<svg width="9" height="7" viewBox="0 0 9 7" fill="none" xmlns="http://www.w3.org/2000/svg">
<path d="M7.60102 0.223174C7.75654 0.0784464 7.9635 -0.00156492 8.17823 2.3197e-05C8.39296 0.00161132 8.59866 0.0846749 8.75192 0.231686C8.90519 0.378698 8.99403 0.578158 8.99971 0.78798C9.00539 0.997802 8.92745 1.20157 8.78235 1.3563L4.37721 6.74132C4.30146 6.82107 4.21004 6.88507 4.10841 6.92949C4.00678 6.97391 3.89703 6.99785 3.78572 6.99986C3.67441 7.00188 3.56383 6.98193 3.46059 6.94122C3.35734 6.9005 3.26356 6.83985 3.18484 6.7629L0.263544 3.90744C0.182191 3.83334 0.11694 3.74398 0.0716828 3.6447C0.0264258 3.54542 0.00209051 3.43824 0.000128864 3.32957C-0.00183278 3.22089 0.0186195 3.11295 0.0602651 3.01217C0.101911 2.91138 0.163897 2.81984 0.242525 2.74298C0.321154 2.66612 0.414814 2.60553 0.517919 2.56483C0.621023 2.52412 0.73146 2.50413 0.84264 2.50604C0.953821 2.50796 1.06347 2.53175 1.16504 2.57599C1.26661 2.62022 1.35802 2.684 1.43383 2.76352L3.7457 5.02221L7.58004 0.246916C7.58695 0.238607 7.59321 0.230681 7.60102 0.223174Z" fill="#13141A"/>
</svg>
