<svg width="13" height="13" viewBox="0 0 13 13" fill="none" xmlns="http://www.w3.org/2000/svg">
<mask id="mask0_1118_340" style="mask-type:alpha" maskUnits="userSpaceOnUse" x="0" y="0" width="13" height="13">
<rect width="13" height="13" fill="white"/>
</mask>
<g mask="url(#mask0_1118_340)">
<path d="M8.28713 6.95811H7.8187L8.04511 5.25406C8.05414 5.18229 8.0395 5.10942 8.00367 5.04772C7.96783 4.98603 7.91299 4.93928 7.84838 4.91536C7.71188 4.86288 7.56173 4.91605 7.49608 5.02788L5.69038 7.50535C5.65489 7.56344 5.63505 7.63066 5.63299 7.69979C5.63093 7.76892 5.64673 7.83733 5.67868 7.89767C5.74498 8.02486 5.87281 8.10369 6.01256 8.10369H6.481L6.25458 9.80774C6.24555 9.87951 6.26019 9.95238 6.29602 10.0141C6.33186 10.0758 6.3867 10.1225 6.45131 10.1464C6.48728 10.1604 6.52433 10.1668 6.56051 10.1668C6.66148 10.1668 6.7553 10.1162 6.80361 10.0339L8.60931 7.55645C8.6448 7.49836 8.66464 7.43113 8.6667 7.36201C8.66876 7.29288 8.65297 7.22446 8.62101 7.16412C8.58787 7.10133 8.53941 7.0491 8.48068 7.01286C8.42196 6.97663 8.35512 6.95772 8.28713 6.95811ZM6.75226 9.35537L6.94488 7.90684C6.94922 7.87436 6.94692 7.84127 6.93813 7.80981C6.92934 7.77836 6.91427 7.74926 6.89394 7.7245C6.8736 7.69973 6.84848 7.67987 6.82026 7.66626C6.79204 7.65264 6.76139 7.6456 6.73038 7.64559H6.13433L7.54743 5.70665L7.35481 7.15519C7.35047 7.18767 7.35277 7.22075 7.36156 7.25221C7.37035 7.28367 7.38542 7.31276 7.40575 7.33753C7.42609 7.36229 7.45121 7.38215 7.47943 7.39577C7.50765 7.40938 7.5383 7.41643 7.56931 7.41643H8.16536L6.75226 9.35537Z" fill="#5E5E5E"/>
<path d="M12.35 4.89575H11.9167C11.5583 4.89575 11.2667 5.2042 11.2667 5.58324V6.27072H10.8333V4.20827C10.8333 3.70274 10.4446 3.29162 9.96667 3.29162H8.88333V2.83329H10.1833C10.5417 2.83329 10.8333 2.52484 10.8333 2.14581V1.68749C10.8333 1.30845 10.5417 1 10.1833 1H5.85C5.49163 1 5.2 1.30845 5.2 1.68749V2.14581C5.2 2.52484 5.49163 2.83329 5.85 2.83329H7.15V3.29162H5.86863C5.66627 3.29162 5.46932 3.36701 5.31397 3.50405L4.37515 4.3311C4.29737 4.39972 4.19932 4.43735 4.09803 4.43743H3.03333C2.55537 4.43743 2.16667 4.84854 2.16667 5.35408V6.27072H1.73333V4.89575C1.73333 4.51672 1.4417 4.20827 1.08333 4.20827H0.65C0.291633 4.20827 0 4.51672 0 4.89575V9.47899C0 9.85802 0.291633 10.1665 0.65 10.1665H1.08333C1.4417 10.1665 1.73333 9.85802 1.73333 9.47899V8.10402H2.16667V9.47899C2.16667 9.98452 2.55537 10.3956 3.03333 10.3956H3.73945C3.89458 10.3956 4.03888 10.4841 4.11558 10.6266L4.60807 11.5378C4.68391 11.6781 4.79344 11.7947 4.92557 11.8759C5.0577 11.957 5.20775 11.9998 5.36055 12H9.22892C9.35599 12.0002 9.48154 11.9707 9.59662 11.9137C9.7117 11.8567 9.81349 11.7736 9.89473 11.6702L10.6325 10.7339C10.7622 10.569 10.8332 10.3614 10.8333 10.147V8.10425H11.2667V8.79173C11.2667 9.17077 11.5583 9.47922 11.9167 9.47922H12.35C12.7084 9.47922 13 9.17077 13 8.79173V5.58347C13 5.20443 12.7084 4.89575 12.35 4.89575ZM1.3 9.47899C1.3 9.53977 1.27717 9.59805 1.23654 9.64103C1.19591 9.68401 1.1408 9.70815 1.08333 9.70815H0.65C0.592536 9.70815 0.537426 9.68401 0.496794 9.64103C0.456161 9.59805 0.433333 9.53977 0.433333 9.47899V4.89575C0.433333 4.83497 0.456161 4.77669 0.496794 4.73371C0.537426 4.69073 0.592536 4.66659 0.65 4.66659H1.08333C1.1408 4.66659 1.19591 4.69073 1.23654 4.73371C1.27717 4.77669 1.3 4.83497 1.3 4.89575V9.47899ZM1.73333 7.64569V6.72905H2.16667V7.64569H1.73333ZM5.63333 2.14581V1.68749C5.63333 1.62671 5.65616 1.56842 5.69679 1.52544C5.73743 1.48247 5.79254 1.45832 5.85 1.45832H10.1833C10.2408 1.45832 10.2959 1.48247 10.3365 1.52544C10.3772 1.56842 10.4 1.62671 10.4 1.68749V2.14581C10.4 2.20659 10.3772 2.26488 10.3365 2.30785C10.2959 2.35083 10.2408 2.37497 10.1833 2.37497H5.85C5.79254 2.37497 5.73743 2.35083 5.69679 2.30785C5.65616 2.26488 5.63333 2.20659 5.63333 2.14581ZM7.58333 2.83329H8.45V3.29162H7.58333V2.83329ZM10.4 10.1468C10.4 10.2538 10.3643 10.3578 10.2995 10.4401L9.56193 11.3764C9.52126 11.4281 9.47034 11.4697 9.41279 11.4982C9.35524 11.5267 9.29247 11.5415 9.22892 11.5414H5.36055C5.28417 11.5414 5.20916 11.52 5.14311 11.4794C5.07706 11.4389 5.02232 11.3806 4.98442 11.3105L4.49193 10.3993C4.41609 10.259 4.30656 10.1424 4.17443 10.0612C4.0423 9.98006 3.89225 9.93724 3.73945 9.93708H3.03333C2.79435 9.93708 2.6 9.73153 2.6 9.47876V5.35385C2.6 5.10108 2.79435 4.89552 3.03333 4.89552H4.09803C4.3004 4.89552 4.49735 4.82013 4.6527 4.68309L5.59152 3.85604C5.66929 3.78742 5.76735 3.7498 5.86863 3.74971H9.96667C10.2057 3.74971 10.4 3.95527 10.4 4.20804V10.1465V10.1468ZM10.8333 7.64569V6.72905H11.2667V7.64569H10.8333ZM12.5667 8.7915C12.5667 8.85228 12.5438 8.91057 12.5032 8.95355C12.4626 8.99652 12.4075 9.02067 12.35 9.02067H11.9167C11.8592 9.02067 11.8041 8.99652 11.7635 8.95355C11.7228 8.91057 11.7 8.85228 11.7 8.7915V5.58324C11.7 5.52246 11.7228 5.46417 11.7635 5.4212C11.8041 5.37822 11.8592 5.35408 11.9167 5.35408H12.35C12.4075 5.35408 12.4626 5.37822 12.5032 5.4212C12.5438 5.46417 12.5667 5.52246 12.5667 5.58324V8.7915Z" fill="#5E5E5E"/>
</g>
</svg>
