<svg width="13" height="13" viewBox="0 0 13 13" fill="none" xmlns="http://www.w3.org/2000/svg">
<mask id="mask0_1118_347" style="mask-type:alpha" maskUnits="userSpaceOnUse" x="0" y="0" width="13" height="13">
<rect width="13" height="13" fill="white"/>
</mask>
<g mask="url(#mask0_1118_347)">
<path d="M6.42663 3.45316H10.8878C10.949 3.45316 11.0077 3.43176 11.051 3.39366C11.0943 3.35557 11.1186 3.3039 11.1186 3.25003V1.82813C11.1186 1.77426 11.0943 1.72259 11.051 1.6845C11.0077 1.6464 10.949 1.625 10.8878 1.625H7.19516C7.15154 1.62499 7.10882 1.63587 7.07193 1.65636C7.03505 1.67685 7.00551 1.70612 6.98676 1.74078L6.21823 3.16268C6.20147 3.19365 6.1939 3.22784 6.19621 3.26208C6.19852 3.29632 6.21064 3.32948 6.23145 3.35848C6.25226 3.38748 6.28107 3.41138 6.3152 3.42793C6.34933 3.44448 6.38766 3.45316 6.42663 3.45316ZM7.34102 2.03126H10.657V3.0469H6.79197L7.34102 2.03126Z" fill="#5E5E5E"/>
<path d="M1.49911 3.21956C1.56073 3.24028 1.64058 3.21936 1.67497 3.2027L1.87622 3.10601L2.16332 3.56955C1.79404 3.78793 1.49148 4.08293 1.28231 4.42852C1.07314 4.77412 0.963791 5.1597 0.963905 5.55127V11.5781C0.963905 12.3622 1.68859 13 2.57944 13H10.8879C11.7787 13 12.5034 12.3622 12.5034 11.5781V1.42187C12.5034 0.861847 11.9858 0.406229 11.3495 0.406229H7.42603C7.03602 0.404981 6.6534 0.499924 6.32156 0.680298C5.98972 0.860671 5.72194 1.11926 5.54855 1.42675L5.17444 2.08732L4.57947 2.3778L4.30759 1.93944L4.51115 1.84174C4.56484 1.81594 4.60469 1.77244 4.62196 1.72079C4.63923 1.66914 4.63249 1.61358 4.60324 1.5663L3.82986 0.316853C3.74165 0.175448 3.59347 0.0704953 3.41766 0.0249036C3.24185 -0.0206881 3.05269 -0.00321658 2.89147 0.0735044L0.862588 1.04649C0.53025 1.20635 0.405854 1.57645 0.586101 1.87261L1.36156 3.12186C1.37608 3.1453 1.39574 3.16598 1.41938 3.18272C1.44303 3.19945 1.4702 3.2119 1.49934 3.21936L1.49911 3.21956ZM3.11164 0.430605C3.16571 0.406431 3.22823 0.401358 3.2864 0.416425C3.34458 0.431492 3.39402 0.465558 3.42459 0.511653L4.08742 1.58255L3.58084 1.82529L3.24804 1.28984C3.21792 1.24381 3.16853 1.21 3.11043 1.19564C3.05234 1.18128 2.99016 1.18752 2.93723 1.21302C2.8843 1.23852 2.84482 1.28125 2.82725 1.33206C2.80968 1.38287 2.81541 1.43771 2.84323 1.48484L3.17557 2.01948L2.56697 2.31117L2.2351 1.77714C2.20498 1.73112 2.15559 1.69731 2.09749 1.68295C2.0394 1.66859 1.97723 1.67483 1.92429 1.70033C1.87136 1.72583 1.83188 1.76856 1.81431 1.81936C1.79674 1.87017 1.80248 1.92502 1.83029 1.97215L2.16171 2.50536L1.85845 2.6508L1.85729 2.65121L1.65604 2.74851L0.992292 1.67924C0.963266 1.63183 0.956605 1.57627 0.973751 1.52457C0.990897 1.47288 1.03047 1.4292 1.08392 1.40298L3.11164 0.430605ZM3.60391 3.33778L5.46085 2.41212C5.5017 2.39222 5.53448 2.36175 5.55548 2.32519L5.96144 1.60834C6.09866 1.36989 6.30803 1.16942 6.56646 1.02903C6.82489 0.888634 7.12234 0.81377 7.42603 0.812689H11.3495C11.7312 0.812689 12.0418 1.0861 12.0418 1.42208V11.5783C12.0418 12.1383 11.5242 12.5939 10.8879 12.5939H2.57944C1.94315 12.5939 1.42549 12.1383 1.42549 11.5783V5.55148C1.42528 5.19819 1.53251 4.8513 1.73603 4.5468C1.93955 4.2423 2.23196 3.99128 2.5829 3.81981C2.63616 3.7938 2.67559 3.75032 2.69258 3.69883C2.70957 3.64735 2.70275 3.59205 2.6736 3.54497L2.28149 2.91182L3.9021 2.13424L4.17743 2.57808L3.37359 2.98596C3.34732 2.99928 3.32429 3.01703 3.30582 3.03818C3.28735 3.05934 3.27379 3.08349 3.26593 3.10926C3.25806 3.13502 3.25604 3.1619 3.25998 3.18836C3.26392 3.21481 3.27374 3.24032 3.28889 3.26344C3.33158 3.32864 3.47629 3.38795 3.60415 3.33798L3.60391 3.33778Z" fill="#5E5E5E"/>
<path d="M9.5031 9.46291V6.58418L10.8202 5.42492C10.8417 5.40607 10.8587 5.38369 10.8703 5.35904C10.8819 5.3344 10.8879 5.30799 10.8879 5.28131C10.8879 5.25463 10.8819 5.22822 10.8703 5.20357C10.8587 5.17893 10.8417 5.15654 10.8202 5.1377L9.89706 4.32518C9.87565 4.3063 9.85021 4.29132 9.82221 4.2811C9.79421 4.27089 9.7642 4.26562 9.73389 4.26562C9.70358 4.26562 9.67357 4.27089 9.64557 4.2811C9.61757 4.29132 9.59214 4.3063 9.57072 4.32518L8.2536 5.48444H5.21363L3.89651 4.32518C3.8751 4.3063 3.84966 4.29132 3.82167 4.2811C3.79367 4.27089 3.76365 4.26562 3.73334 4.26562C3.70303 4.26562 3.67302 4.27089 3.64502 4.2811C3.61702 4.29132 3.59159 4.3063 3.57017 4.32518L2.64701 5.1377C2.62556 5.15654 2.60854 5.17893 2.59693 5.20357C2.58532 5.22822 2.57935 5.25463 2.57935 5.28131C2.57935 5.30799 2.58532 5.3344 2.59693 5.35904C2.60854 5.38369 2.62556 5.40607 2.64701 5.42492L3.96413 6.58418V9.46291L2.64701 10.6222C2.62556 10.641 2.60854 10.6634 2.59693 10.688C2.58532 10.7127 2.57935 10.7391 2.57935 10.7658C2.57935 10.7925 2.58532 10.8189 2.59693 10.8435C2.60854 10.8682 2.62556 10.8905 2.64701 10.9094L3.57017 11.7219C3.59159 11.7408 3.61702 11.7558 3.64502 11.766C3.67302 11.7762 3.70303 11.7815 3.73334 11.7815C3.76365 11.7815 3.79367 11.7762 3.82167 11.766C3.84966 11.7558 3.8751 11.7408 3.89651 11.7219L5.21363 10.5627H8.2536L9.57072 11.7219C9.59211 11.7408 9.61753 11.7559 9.64553 11.7661C9.67353 11.7764 9.70356 11.7816 9.73389 11.7816C9.76422 11.7816 9.79425 11.7764 9.82225 11.7661C9.85025 11.7559 9.87568 11.7408 9.89706 11.7219L10.8202 10.9094C10.8417 10.8905 10.8587 10.8682 10.8703 10.8435C10.8819 10.8189 10.8879 10.7925 10.8879 10.7658C10.8879 10.7391 10.8819 10.7127 10.8703 10.688C10.8587 10.6634 10.8417 10.641 10.8202 10.6222L9.5031 9.46291ZM9.73389 11.2911L8.51232 10.2159C8.46905 10.1778 8.41035 10.1564 8.34915 10.1564H5.11809C5.08777 10.1564 5.05776 10.1616 5.02975 10.1718C5.00175 10.182 4.97632 10.197 4.95492 10.2159L3.73334 11.2911L3.13652 10.7658L4.35809 9.69062C4.40138 9.65254 4.4257 9.60088 4.42571 9.54701V6.50008C4.42575 6.4734 4.41979 6.44698 4.40818 6.42234C4.39658 6.39769 4.37956 6.37531 4.35809 6.35647L3.13652 5.28131L3.73334 4.75602L4.95492 5.83118C4.99819 5.86927 5.05688 5.89068 5.11809 5.89069H8.34915C8.41031 5.89069 8.46916 5.86937 8.51232 5.83118L9.73389 4.75602L10.3307 5.28131L9.10914 6.35647C9.06586 6.39455 9.04153 6.44621 9.04152 6.50008V9.54701C9.04152 9.60084 9.06575 9.65264 9.10914 9.69062L10.3307 10.7658L9.73389 11.2911Z" fill="#5E5E5E"/>
<path d="M8.11844 6.5H5.34895C5.28774 6.5 5.22904 6.5214 5.18576 6.55949C5.14248 6.59759 5.11816 6.64926 5.11816 6.70313V9.3438C5.11816 9.39767 5.14248 9.44934 5.18576 9.48743C5.22904 9.52553 5.28774 9.54693 5.34895 9.54693H7.19528C7.25649 9.54693 7.31519 9.52553 7.35847 9.48743C7.40175 9.44934 7.42607 9.39767 7.42607 9.3438C7.42607 9.28993 7.40175 9.23826 7.35847 9.20017C7.31519 9.16207 7.25649 9.14067 7.19528 9.14067H5.57974V6.90626H7.88765V8.53129C7.88765 8.58516 7.91196 8.63683 7.95524 8.67492C7.99853 8.71301 8.05723 8.73441 8.11844 8.73441C8.17965 8.73441 8.23835 8.71301 8.28163 8.67492C8.32491 8.63683 8.34923 8.58516 8.34923 8.53129V6.70313C8.34923 6.64926 8.32491 6.59759 8.28163 6.55949C8.23835 6.5214 8.17965 6.5 8.11844 6.5ZM11.1187 6.5C11.0575 6.5 10.9988 6.5214 10.9555 6.55949C10.9122 6.59759 10.8879 6.64926 10.8879 6.70313V8.53129C10.8879 8.58516 10.9122 8.63683 10.9555 8.67492C10.9988 8.71301 11.0575 8.73441 11.1187 8.73441C11.1799 8.73441 11.2386 8.71301 11.2819 8.67492C11.3252 8.63683 11.3495 8.58516 11.3495 8.53129V6.70313C11.3495 6.64926 11.3252 6.59759 11.2819 6.55949C11.2386 6.5214 11.1799 6.5 11.1187 6.5Z" fill="#5E5E5E"/>
<path d="M11.1187 9.54713C11.2462 9.54713 11.3495 9.45618 11.3495 9.344C11.3495 9.23181 11.2462 9.14087 11.1187 9.14087C10.9913 9.14087 10.8879 9.23181 10.8879 9.344C10.8879 9.45618 10.9913 9.54713 11.1187 9.54713Z" fill="#5E5E5E"/>
</g>
</svg>
