<svg width="13" height="13" viewBox="0 0 13 13" fill="none" xmlns="http://www.w3.org/2000/svg">
<mask id="mask0_2394_29" style="mask-type:alpha" maskUnits="userSpaceOnUse" x="0" y="0" width="13" height="13">
<rect width="13" height="13" fill="#D9D9D9"/>
</mask>
<g mask="url(#mask0_2394_29)">
<path d="M11.1316 10.8676V2.13238C11.6304 2.0118 12 1.58719 12 1.08333C12 0.485983 11.4806 0 10.8421 0C10.2036 0 9.68421 0.485983 9.68421 1.08333C9.68421 1.58719 10.0538 2.0118 10.5526 2.13238V6.22917H8.23684V2.13238C8.73566 2.0118 9.10526 1.58719 9.10526 1.08333C9.10526 0.485983 8.58583 0 7.94737 0C7.30891 0 6.78947 0.485983 6.78947 1.08333C6.78947 1.58719 7.15907 2.0118 7.65789 2.13238V6.22917H5.34211V2.13238C5.84096 2.0118 6.21053 1.58719 6.21053 1.08333C6.21053 0.485983 5.69109 0 5.05263 0C4.41417 0 3.89474 0.485983 3.89474 1.08333C3.89474 1.58719 4.26431 2.0118 4.76316 2.13238V6.22917H2.73684C2.57723 6.22917 2.44737 6.10767 2.44737 5.95833V2.13238C2.94622 2.0118 3.31579 1.58719 3.31579 1.08333C3.31579 0.485983 2.79636 0 2.15789 0C1.51943 0 1 0.485983 1 1.08333C1 1.58719 1.36957 2.0118 1.86842 2.13238V5.95833C1.86842 6.40635 2.25799 6.77083 2.73684 6.77083H4.76316V10.8676C4.26431 10.9882 3.89474 11.4128 3.89474 11.9167C3.89474 12.514 4.41417 13 5.05263 13C5.69109 13 6.21053 12.514 6.21053 11.9167C6.21053 11.4128 5.84096 10.9882 5.34211 10.8676V6.77083H7.65789V10.8676C7.15907 10.9882 6.78947 11.4128 6.78947 11.9167C6.78947 12.514 7.30891 13 7.94737 13C8.58583 13 9.10526 12.514 9.10526 11.9167C9.10526 11.4128 8.73566 10.9882 8.23684 10.8676V6.77083H10.5526V10.8676C10.0538 10.9882 9.68421 11.4128 9.68421 11.9167C9.68421 12.514 10.2036 13 10.8421 13C11.4806 13 12 12.514 12 11.9167C12 11.4128 11.6304 10.9882 11.1316 10.8676ZM7.36842 1.08333C7.36842 0.784658 7.62814 0.541667 7.94737 0.541667C8.2666 0.541667 8.52632 0.784658 8.52632 1.08333C8.52632 1.38201 8.2666 1.625 7.94737 1.625C7.62814 1.625 7.36842 1.38201 7.36842 1.08333ZM4.47368 1.08333C4.47368 0.784658 4.7334 0.541667 5.05263 0.541667C5.37186 0.541667 5.63158 0.784658 5.63158 1.08333C5.63158 1.38201 5.37186 1.625 5.05263 1.625C4.7334 1.625 4.47368 1.38201 4.47368 1.08333ZM1.57895 1.08333C1.57895 0.784658 1.83866 0.541667 2.15789 0.541667C2.47713 0.541667 2.73684 0.784658 2.73684 1.08333C2.73684 1.38201 2.47713 1.625 2.15789 1.625C1.83866 1.625 1.57895 1.38201 1.57895 1.08333ZM5.63158 11.9167C5.63158 12.2153 5.37186 12.4583 5.05263 12.4583C4.7334 12.4583 4.47368 12.2153 4.47368 11.9167C4.47368 11.618 4.7334 11.375 5.05263 11.375C5.37186 11.375 5.63158 11.618 5.63158 11.9167ZM8.52632 11.9167C8.52632 12.2153 8.2666 12.4583 7.94737 12.4583C7.62814 12.4583 7.36842 12.2153 7.36842 11.9167C7.36842 11.618 7.62814 11.375 7.94737 11.375C8.2666 11.375 8.52632 11.618 8.52632 11.9167ZM10.2632 1.08333C10.2632 0.784658 10.5229 0.541667 10.8421 0.541667C11.1613 0.541667 11.4211 0.784658 11.4211 1.08333C11.4211 1.38201 11.1613 1.625 10.8421 1.625C10.5229 1.625 10.2632 1.38201 10.2632 1.08333ZM10.8421 12.4583C10.5229 12.4583 10.2632 12.2153 10.2632 11.9167C10.2632 11.618 10.5229 11.375 10.8421 11.375C11.1613 11.375 11.4211 11.618 11.4211 11.9167C11.4211 12.2153 11.1613 12.4583 10.8421 12.4583Z" fill="#5E5E5E"/>
</g>
</svg>
