<svg width="13" height="13" viewBox="0 0 13 13" fill="none" xmlns="http://www.w3.org/2000/svg">
<mask id="mask0_1118_357" style="mask-type:alpha" maskUnits="userSpaceOnUse" x="0" y="0" width="13" height="13">
<rect width="13" height="13" fill="white"/>
</mask>
<g mask="url(#mask0_1118_357)">
<path d="M13 7.3125C13 5.53674 12.284 3.9253 11.1258 2.75099C11.1167 2.73873 11.1068 2.72712 11.0962 2.71625C11.0853 2.70558 11.0737 2.69569 11.0615 2.68667C9.88716 1.52848 8.27571 0.8125 6.5 0.8125C4.72429 0.8125 3.11284 1.52852 1.93849 2.68667C1.92625 2.69572 1.91466 2.7056 1.9038 2.71625C1.89311 2.72711 1.88321 2.73872 1.87417 2.75099C0.716023 3.9253 0 5.53674 0 7.3125C0 9.04849 0.675957 10.6805 1.90333 11.9081L1.90384 11.9087L1.90418 11.909L1.90469 11.9095C1.93434 11.9392 1.96957 11.9628 2.00835 11.9788C2.04713 11.9949 2.0887 12.0031 2.13068 12.0031C2.21251 12.0031 2.29435 11.9719 2.35675 11.9094C2.36208 11.9041 2.36689 11.8984 2.37175 11.8928L3.35686 10.9077C3.41637 10.8476 3.44969 10.7665 3.44951 10.6819C3.44933 10.5974 3.41566 10.5163 3.35589 10.4566C3.29611 10.3968 3.21509 10.3631 3.13055 10.3629C3.04601 10.3627 2.96484 10.396 2.9048 10.4556L2.13605 11.2243C1.23965 10.2268 0.719603 8.97139 0.648082 7.63217H1.73527C1.91181 7.63217 2.05494 7.48909 2.05494 7.3125C2.05494 7.13591 1.91181 6.99283 1.73527 6.99283H0.648167C0.722502 5.6173 1.27336 4.36649 2.13814 3.40274L2.9048 4.1694C2.93445 4.19912 2.96968 4.22269 3.00847 4.23875C3.04726 4.25481 3.08884 4.26305 3.13083 4.263C3.19405 4.26299 3.25585 4.24424 3.30841 4.20912C3.36098 4.17399 3.40195 4.12407 3.42614 4.06566C3.45033 4.00725 3.45666 3.94298 3.44433 3.88097C3.432 3.81896 3.40156 3.762 3.35686 3.7173L2.59024 2.9506C3.55403 2.08582 4.8048 1.53496 6.18033 1.46067V2.54781C6.18033 2.72439 6.32346 2.86748 6.5 2.86748C6.67654 2.86748 6.81967 2.72439 6.81967 2.54781V1.46067C8.1952 1.53496 9.44597 2.08586 10.4098 2.95064L9.6431 3.7173C9.58358 3.77733 9.55027 3.8585 9.55045 3.94304C9.55063 4.02758 9.58429 4.10861 9.64407 4.16839C9.70384 4.22817 9.78487 4.26184 9.86941 4.26203C9.95395 4.26222 10.0351 4.22891 10.0952 4.1694L10.8618 3.40274C11.7266 4.36653 12.2775 5.6173 12.3518 6.99283H11.2646C11.0881 6.99283 10.945 7.13591 10.945 7.3125C10.945 7.48909 11.0881 7.63217 11.2646 7.63217H12.3518C12.2803 8.97139 11.7603 10.2268 10.8639 11.2243L10.0952 10.4556C10.0349 10.3973 9.95409 10.365 9.87024 10.3657C9.78638 10.3664 9.70616 10.4001 9.64687 10.4594C9.58758 10.5187 9.55396 10.5989 9.55325 10.6827C9.55254 10.7666 9.58481 10.8474 9.6431 10.9077L10.6441 11.9087C10.6738 11.9384 10.709 11.962 10.7478 11.978C10.7866 11.9941 10.8281 12.0023 10.8701 12.0023C10.9121 12.0023 10.9537 11.9941 10.9925 11.978C11.0313 11.9619 11.0665 11.9384 11.0962 11.9087C12.3239 10.6809 13 9.04866 13 7.3125Z" fill="#5E5E5E"/>
<path d="M7.96853 3.64648C7.92956 3.63086 7.8879 3.62307 7.84592 3.62356C7.80394 3.62404 7.76247 3.63279 7.72387 3.64931C7.68528 3.66583 7.65031 3.68979 7.62098 3.71982C7.59165 3.74986 7.56852 3.78537 7.55292 3.82435L6.62915 6.13025C6.58625 6.12537 6.54313 6.12278 6.49996 6.12249C6.05003 6.12249 5.64362 6.37171 5.43924 6.77288C5.22562 7.19225 5.28035 7.69332 5.58553 8.11316C5.61729 8.15668 5.65563 8.19499 5.69916 8.22675C5.9471 8.407 6.22402 8.50226 6.49996 8.50226C6.94989 8.50226 7.35634 8.25305 7.56067 7.85188C7.7743 7.43251 7.71957 6.93148 7.4146 6.51194C7.3828 6.46827 7.34439 6.42982 7.30076 6.39797C7.27754 6.38137 7.25388 6.36541 7.22979 6.3501L8.1464 4.06206C8.17791 3.98336 8.17688 3.89537 8.14352 3.81744C8.11016 3.73951 8.04722 3.67801 7.96853 3.64648ZM6.99093 7.56166C6.94504 7.65244 6.87483 7.72868 6.78812 7.78187C6.70142 7.83506 6.60163 7.8631 6.49992 7.86287C6.36335 7.86287 6.22589 7.81518 6.0912 7.72107C5.93776 7.50075 5.90763 7.26189 6.00894 7.06306C6.05482 6.97227 6.12504 6.89602 6.21175 6.84283C6.29845 6.78964 6.39824 6.7616 6.49996 6.76184C6.56637 6.76184 6.63294 6.77335 6.69935 6.79572C6.70152 6.79662 6.70353 6.79777 6.70574 6.79867C6.71273 6.80144 6.71976 6.80369 6.7268 6.80595C6.79115 6.83099 6.85221 6.86378 6.90863 6.9036C7.06203 7.12392 7.0922 7.36282 6.99093 7.56166Z" fill="#5E5E5E"/>
</g>
</svg>
