<svg width="45" height="25" viewBox="0 0 45 25" fill="none" xmlns="http://www.w3.org/2000/svg">
<mask id="mask0_1110_1386" style="mask-type:alpha" maskUnits="userSpaceOnUse" x="0" y="0" width="45" height="25">
<rect width="45" height="25" fill="#D9D9D9"/>
</mask>
<g mask="url(#mask0_1110_1386)">
<path d="M33.3844 17.7548C31.8676 17.7733 30.5142 18.7137 29.9833 20.1385C29.4592 21.5431 29.9058 23.2093 31.062 24.1615C32.2367 25.1305 33.9288 25.2841 35.2418 24.494C36.5513 23.7057 37.217 22.1643 36.9339 20.6686C36.6137 18.9821 35.0766 17.775 33.3844 17.7548ZM35.1238 23.5807C34.2103 24.3117 32.9007 24.3776 31.9097 23.7664C30.9271 23.1587 30.3996 21.9533 30.6423 20.8188C30.9187 19.5206 32.0631 18.5972 33.3844 18.582C34.544 18.5955 35.6277 19.3197 36.017 20.4289C36.4114 21.5566 36.0609 22.8295 35.1238 23.5807Z" fill="#595959"/>
<path d="M34.6237 19.9427C34.054 19.4633 33.2248 19.3788 32.5776 19.7587C31.9304 20.1385 31.6034 20.8898 31.7315 21.6241C31.8748 22.4463 32.6012 23.0169 33.4085 23.0676C33.4287 23.0692 33.4506 23.0709 33.4725 23.0709C33.5012 23.0709 33.5265 23.0692 33.5518 23.0659C34.2647 23.0169 34.8832 22.5814 35.1377 21.9027C35.3939 21.219 35.1782 20.4103 34.6237 19.9427ZM33.4725 22.2437C32.9534 22.2302 32.522 21.8217 32.522 21.2916C32.522 20.7716 32.9534 20.3394 33.4725 20.3394C33.9916 20.3394 34.4231 20.7716 34.4231 21.2916C34.4231 21.8234 33.9916 22.2302 33.4725 22.2437Z" fill="#595959"/>
<path d="M9.89519 17.7548C8.37834 17.7733 7.02496 18.7137 6.49407 20.1385C5.96991 21.5431 6.41654 23.2093 7.57272 24.1615C8.74744 25.1305 10.4396 25.2841 11.7525 24.494C13.062 23.7057 13.7278 22.1643 13.4446 20.6686C13.1261 18.9821 11.589 17.775 9.89519 17.7548ZM11.6362 23.5807C10.7227 24.3117 9.41317 24.3776 8.42216 23.7664C7.43957 23.1587 6.91204 21.9533 7.15474 20.8188C7.43115 19.5206 8.57553 18.5972 9.89688 18.582C11.0564 18.5955 12.1401 19.3197 12.5295 20.4289C12.9238 21.5566 12.5733 22.8295 11.6362 23.5807Z" fill="#595959"/>
<path d="M11.1373 19.9427C10.5677 19.4633 9.73846 19.3788 9.09127 19.7587C8.44408 20.1385 8.11711 20.8898 8.2452 21.6241C8.38846 22.4463 9.11487 23.0169 9.92217 23.0676C9.94239 23.0692 9.9643 23.0709 9.98621 23.0709C10.0149 23.0709 10.0401 23.0692 10.0654 23.0659C10.7783 23.0169 11.3969 22.5814 11.6514 21.9027C11.9076 21.219 11.6918 20.4103 11.1373 19.9427ZM9.98621 22.2437C9.46711 22.2302 9.03565 21.8217 9.03565 21.2916C9.03565 20.7716 9.46711 20.3394 9.98621 20.3394C10.5053 20.3394 10.9368 20.7716 10.9368 21.2916C10.9368 21.8234 10.5053 22.2302 9.98621 22.2437Z" fill="#595959"/>
<path d="M17.629 4.90927C17.6223 4.73876 17.5869 4.57839 17.5279 4.4332C17.5262 4.42982 17.5262 4.42645 17.5245 4.42476C17.5144 4.40112 17.5026 4.37749 17.4908 4.35386C17.4841 4.34035 17.4773 4.32516 17.4706 4.31165C17.4622 4.29646 17.4537 4.28126 17.4436 4.26607C17.4318 4.24581 17.42 4.22555 17.4066 4.20529C17.3998 4.19516 17.3931 4.18672 17.3863 4.17828C17.3695 4.15465 17.3509 4.12932 17.3324 4.10738C17.329 4.10231 17.324 4.09725 17.3189 4.09218C17.297 4.06517 17.2734 4.03985 17.2498 4.01622C17.2481 4.01453 17.2464 4.01284 17.2448 4.01115C17.0374 3.8035 16.7577 3.66845 16.4358 3.63468C16.4088 3.62962 16.3818 3.62793 16.3515 3.62793C16.3515 3.62793 16.3515 3.62793 16.3498 3.62793C13.7931 3.64144 11.3004 4.76746 9.64194 6.72746C9.44307 6.96381 9.2543 7.2086 9.07902 7.46183C8.90543 7.71168 8.70486 7.97842 8.63408 8.28061C8.57003 8.55578 8.61554 8.86641 8.75037 9.12133C8.90205 9.41339 9.16835 9.63454 9.51554 9.65142C9.87284 9.66999 10.2369 9.65142 10.5942 9.65142C12.1549 9.65142 13.7155 9.65142 15.2762 9.65142C15.6352 9.65142 15.9959 9.65986 16.3549 9.65142C16.8942 9.63961 17.3931 9.42014 17.565 8.87148C17.6408 8.62669 17.6307 8.3667 17.6307 8.11179C17.6307 7.27106 17.6307 6.43034 17.6307 5.58962C17.629 5.36171 17.6374 5.1338 17.629 4.90927ZM16.8032 8.35489C16.7981 8.66383 16.7273 8.80564 16.3936 8.81745C16.0987 8.82758 15.8037 8.81914 15.5088 8.81914C14.0948 8.81914 12.6824 8.81914 11.2683 8.81914C10.7627 8.81914 10.2571 8.81914 9.75149 8.81914C9.6925 8.81914 9.61498 8.83096 9.55093 8.82421C9.55262 8.82083 9.55093 8.81745 9.54587 8.81239C9.53576 8.79213 9.4852 8.74824 9.4616 8.70772C9.45992 8.70603 9.45823 8.70266 9.45823 8.70097C9.42116 8.61318 9.41947 8.51358 9.44981 8.42241C9.53071 8.18269 9.7397 7.94803 9.88632 7.74376C11.3728 5.68078 13.8251 4.46528 16.3532 4.45346C16.5571 4.4619 16.6734 4.55982 16.7408 4.70162C16.8672 4.97511 16.8032 5.40898 16.8032 5.67234C16.8032 6.38645 16.8032 7.10056 16.8032 7.81466C16.8032 7.9953 16.8066 8.17594 16.8032 8.35489Z" fill="#595959"/>
<path d="M41.3461 13.6052C40.8489 13.6052 40.4326 14.0239 40.4326 14.5202C40.4326 15.0031 40.8253 15.4133 41.3073 15.4335C41.8197 15.4555 42.2023 15.0638 42.2562 14.5759C42.2596 14.5591 42.263 14.5405 42.2613 14.5185C42.263 14.4983 42.2596 14.4797 42.2562 14.4628C42.204 13.9935 41.8433 13.6052 41.3461 13.6052ZM40.8118 14.5219C40.8118 13.8314 41.8416 13.8365 41.8787 14.5219C41.8416 15.2056 40.8118 15.2124 40.8118 14.5219Z" fill="#595959"/>
<path d="M43.8118 18.0114C43.8135 17.8308 43.8067 17.6484 43.8067 17.4695C43.8067 16.6963 43.8438 15.913 43.8017 15.1398C43.7242 13.72 42.7045 12.5602 41.3815 12.2276C41.2551 11.9406 40.9567 11.7296 40.714 11.549C40.409 11.3227 40.082 11.1202 39.7365 10.9632C39.723 10.9564 39.7096 10.9513 39.6961 10.9463C39.6775 10.9378 39.659 10.9294 39.6388 10.921C37.4275 10.1478 35.218 9.37457 33.0084 8.60137C32.7506 8.5119 32.4944 8.42073 32.2365 8.33126C31.6197 7.26094 31.0028 6.19062 30.386 5.12031C30.0472 4.53281 29.7084 3.94363 29.3697 3.35614C28.9264 2.58801 28.264 2.03428 27.3388 1.99207C26.4287 1.95156 25.5067 1.99039 24.5966 1.99039C22.8725 1.99039 21.1483 1.99039 19.4242 1.99039C18.3556 1.99039 17.2854 1.99039 16.2169 1.99039C16.1865 1.98363 16.1545 1.97857 16.1225 1.97857C14.5315 1.98532 12.9826 2.39893 11.5551 3.07927C10.7275 2.25037 9.90169 1.42315 9.07416 0.594246C9.1045 0.536847 9.12135 0.472696 9.12135 0.403479C9.12135 0.180637 8.94101 0 8.71854 0C8.49607 0 8.31573 0.180637 8.31573 0.403479C8.31573 0.626322 8.49607 0.806959 8.71854 0.806959C8.79775 0.806959 8.87022 0.783324 8.93258 0.744495C9.74157 1.55483 10.5489 2.36348 11.3579 3.17381C10.5961 3.55366 9.86966 4.00778 9.19214 4.51593C7.37528 5.87999 5.74719 7.64754 4.75787 9.71052C4.52528 10.1967 4.32303 10.7015 4.1882 11.2248C4.12584 11.4696 4.08034 11.7178 4.05 11.9693C4.03989 12.0504 4.03315 12.1314 4.0264 12.2124C3.68764 12.285 3.36236 12.4066 3.05899 12.594C2.4236 12.9873 1.94494 13.5934 1.70393 14.3007C1.55562 14.7363 1.54382 15.1837 1.54382 15.6361C1.54382 15.7897 1.54382 15.9433 1.54213 16.0953C1.16629 16.0953 0.792135 16.0953 0.416292 16.0953C0.342135 16.0953 0.279775 16.1577 0.279775 16.232C0.279775 16.6676 0.279775 17.1048 0.279775 17.5404C0.279775 17.6147 0.342135 17.6771 0.416292 17.6771C0.790449 17.6771 1.16461 17.6771 1.54045 17.6771C1.54045 17.7869 1.54213 17.8966 1.54213 18.0063H0V18.9129H1.65169C1.95506 20.0507 2.87191 20.9894 4.06517 21.224C4.51685 21.3135 4.97865 21.2899 5.43539 21.2899C5.60056 21.2899 5.80281 21.1633 5.83146 20.9877C6.07921 19.4784 7.11404 18.1802 8.58202 17.6991C10.0534 17.2162 11.6933 17.6079 12.7787 18.7137C13.3904 19.3366 13.7663 20.1284 13.9079 20.986C13.9365 21.1616 14.1388 21.2882 14.3039 21.2882C15.9624 21.2882 17.6225 21.2882 19.2809 21.2882C21.9017 21.2882 24.5225 21.2882 27.1433 21.2882C27.7449 21.2882 28.3483 21.2882 28.95 21.2882C29.1152 21.2882 29.3174 21.1616 29.3461 20.986C29.5938 19.4767 30.6287 18.1785 32.0966 17.6974C33.568 17.2146 35.2079 17.6062 36.2933 18.712C36.9051 19.3349 37.2809 20.1267 37.4225 20.9843C37.4511 21.1599 37.6534 21.2865 37.8185 21.2865C38.5787 21.2865 39.3388 21.2865 40.0989 21.2865C40.4258 21.2865 40.7545 21.2983 41.0798 21.2527C41.7792 21.1565 42.4382 20.8205 42.927 20.3073C43.3028 19.9106 43.564 19.4312 43.6989 18.9095H45V18.0029H43.8118V18.0114ZM8.72528 0.624633C8.59214 0.624633 8.48596 0.516589 8.48596 0.384909C8.48596 0.251541 8.59382 0.145185 8.72528 0.145185C8.85843 0.145185 8.96461 0.25323 8.96461 0.384909C8.96629 0.516589 8.85843 0.624633 8.72528 0.624633ZM1.54213 17.407C1.21348 17.407 0.884831 17.407 0.55618 17.407C0.55618 17.0626 0.55618 16.7182 0.55618 16.3738C0.884831 16.3738 1.21517 16.3738 1.54382 16.3738C1.54213 16.7182 1.54213 17.0626 1.54213 17.407ZM28.8674 4.13102C29.0511 4.45009 29.2348 4.76916 29.4185 5.08823C29.7202 5.61157 30.0219 6.13491 30.3236 6.65825C30.6169 7.17484 30.9118 7.69143 31.2051 8.20802C31.2236 8.24178 31.2421 8.27386 31.2624 8.30762C31.2354 8.30594 31.2067 8.30425 31.1798 8.30425C31.0854 8.30087 30.9253 8.31944 30.8545 8.29749C30.7112 8.2536 30.6236 8.08985 30.5478 7.97167C30.3607 7.67455 30.1921 7.36561 30.0152 7.06173C29.5365 6.24127 29.0579 5.42249 28.5809 4.60034C28.5169 4.48892 28.4461 4.3775 28.4006 4.25595C28.3938 4.23738 28.3837 4.1631 28.3702 4.11076C28.3837 4.10907 28.3972 4.1057 28.4022 4.1057C28.5556 4.10063 28.7124 4.11583 28.8674 4.13102ZM4.93483 11.6452C5.02416 11.2366 5.1573 10.8349 5.32079 10.4516C5.7118 9.54001 6.25618 8.6824 6.87135 7.90583C8.31742 6.08427 10.1966 4.55138 12.3354 3.62625C13.5034 3.12148 14.7624 2.82267 16.0365 2.80579C16.0652 2.81254 16.0938 2.81591 16.1242 2.81591C18.7028 2.81591 21.2798 2.81591 23.8584 2.81591C24.9657 2.81591 26.0747 2.81085 27.182 2.81591C27.7348 2.8176 28.1815 3.05395 28.4882 3.49119C28.1511 3.49119 27.8309 3.57223 27.7517 3.94701C27.6489 4.42814 28.0719 4.95317 28.3079 5.35665C28.859 6.30373 29.4 7.25756 29.9629 8.19789C30.1921 8.5828 30.4534 8.90525 30.927 8.92213C31.1697 8.93057 31.4107 8.9407 31.6534 8.95252C31.7275 9.04199 31.8202 9.08588 31.9163 9.09095C34.1039 9.8557 36.2916 10.6221 38.4792 11.3869C38.7775 11.4916 39.0758 11.5962 39.3742 11.7009C39.632 11.8225 39.8781 11.9676 40.1124 12.128C40.114 12.1297 40.1157 12.1314 40.1174 12.1314C39.814 12.1314 39.5124 12.1314 39.209 12.1314C37.9416 12.1314 36.6758 12.1314 35.4084 12.1314C33.5949 12.1314 31.7831 12.1314 29.9697 12.1314C29.8669 12.1314 29.764 12.1314 29.6629 12.1314C29.6629 11.0594 29.6629 9.98569 29.6629 8.91369C29.6629 8.85291 29.6629 8.79214 29.6629 8.73136C29.6629 8.70941 29.6579 8.69084 29.6494 8.67396C29.5803 8.22659 29.2298 7.78428 29.0073 7.40613C28.6045 6.71565 28.2017 6.02687 27.7989 5.33639C27.5191 4.85863 27.2427 4.3775 26.9612 3.90143C26.6292 3.34094 26.1067 3.05226 25.4612 3.05057C24.1247 3.0472 22.7899 3.05057 21.4534 3.05057C20.8331 3.05057 20.2129 3.05057 19.5927 3.05057C19.4697 3.05057 19.3433 3.04551 19.2202 3.05733C18.7551 3.10291 18.3607 3.42198 18.2056 3.85753C18.1315 3.64651 18.0034 3.45574 17.7809 3.29199C17.2837 2.92734 16.623 3.02019 16.0449 3.05902C15.4011 3.10122 14.7607 3.19069 14.132 3.33588C11.8315 3.86597 9.83258 5.18615 8.37303 7.04147C8.01236 7.49898 7.68202 7.99362 7.40056 8.48657C7.19157 8.85122 7.16292 9.32561 7.19157 9.75103C7.22022 10.1933 7.20337 10.6779 7.20337 11.1354C7.20337 11.4679 7.2 11.8005 7.19663 12.1331C7.16461 12.1331 7.13259 12.1331 7.10056 12.1331C6.35899 12.1331 5.6191 12.1331 4.87753 12.1331C4.88933 11.9693 4.89944 11.8056 4.93483 11.6452ZM28.3112 4.12427C28.3028 4.12933 28.2961 4.13271 28.2927 4.12933C28.2927 4.12764 28.2994 4.12596 28.3112 4.12427ZM18.4112 14.4324C18.4112 13.958 18.4112 13.4836 18.4112 13.0109C18.4854 13.0109 18.5596 13.0109 18.6354 13.0109C21.086 13.0109 23.5365 13.0109 25.9854 13.0109C27.1197 13.0109 28.2556 13.0278 29.3916 13.0278C29.3916 13.7183 29.3916 14.4088 29.3916 15.1009C29.3916 15.5871 29.3916 16.075 29.3916 16.5612C29.3916 16.9883 29.4101 17.3277 29.036 17.6417C28.6348 17.9793 28.259 18.3642 28.0146 18.8335C27.8882 19.0783 27.8191 19.3383 27.5713 19.4953C27.4298 19.5848 27.2764 19.6202 27.1112 19.627C26.8331 19.6371 26.5534 19.627 26.2753 19.6253C23.9697 19.6219 21.6624 19.6186 19.3567 19.6152C18.8562 19.6152 18.4315 19.3434 18.4129 18.7998C18.4045 18.5668 18.4129 18.3321 18.4129 18.0992C18.4129 17.4222 18.4129 16.7436 18.4129 16.0666C18.514 16.0159 18.5848 15.9096 18.5848 15.788V14.7126C18.5831 14.5894 18.5124 14.4831 18.4112 14.4324ZM18.4112 10.0262C18.4112 9.33911 18.4112 8.6537 18.4112 7.96661C18.4112 7.9244 18.4112 7.88389 18.4112 7.84168V7.83999C18.4112 6.69202 18.4112 5.54404 18.4112 4.39607C18.4112 4.02635 18.5191 3.6769 18.8494 3.46756C19.05 3.34094 19.264 3.32575 19.4899 3.32575C20.009 3.32575 20.5298 3.32575 21.0489 3.32575C22.4343 3.32575 23.8197 3.32575 25.2051 3.32575C25.323 3.32575 25.441 3.32237 25.5607 3.32575C26.0427 3.33757 26.4438 3.57729 26.6966 3.98752C26.9275 4.3623 27.1399 4.74721 27.3624 5.12706C27.7938 5.86649 28.227 6.60592 28.6584 7.34535C28.8152 7.61209 28.9702 7.87882 29.127 8.14724C29.2449 8.34983 29.3596 8.5254 29.3916 8.76681C29.3916 9.88778 29.3916 11.0104 29.3916 12.1314C27.482 12.1314 25.5742 12.1314 23.6646 12.1314C21.9135 12.1314 20.1624 12.1314 18.4129 12.1314C18.4129 11.9727 18.4129 11.8157 18.4129 11.657C18.514 11.6064 18.5848 11.5 18.5848 11.3785V10.3031C18.5831 10.1832 18.5124 10.0769 18.4112 10.0262ZM18.0303 9.05212C18.0287 9.08082 18.0354 9.10445 18.0455 9.12302C18.0455 9.43196 18.0455 9.7409 18.0455 10.0482C17.9646 10.1039 17.9124 10.1984 17.9124 10.3031V11.3785C17.9124 11.4831 17.9646 11.5777 18.0455 11.6334C18.0455 11.7988 18.0455 11.9643 18.0455 12.1314C17.786 12.1314 17.5264 12.1314 17.2669 12.1314C15.3371 12.1314 13.409 12.1314 11.4792 12.1314C10.1461 12.1314 8.81124 12.1314 7.47809 12.1314C7.47809 11.5371 7.47809 10.9446 7.47809 10.3503C7.47809 9.81856 7.42416 9.27496 7.55562 8.755C7.56236 8.72967 7.56405 8.71617 7.56573 8.70773C7.56573 8.70604 7.56742 8.70435 7.56742 8.70266C7.59607 8.64695 7.6382 8.59293 7.67023 8.53891C7.73764 8.42749 7.80674 8.31606 7.87753 8.20633C8.04438 7.94804 8.21966 7.69481 8.40337 7.44833C8.75225 6.98239 9.13483 6.54346 9.54944 6.1366C10.3635 5.34146 11.309 4.68813 12.3472 4.2205C13.436 3.73092 14.6157 3.45574 15.8022 3.35445C16.1326 3.32575 16.5337 3.26498 16.9079 3.2903C16.9264 3.30043 16.9466 3.30549 16.9702 3.30549H16.9719C16.9837 3.30549 16.9972 3.30212 17.009 3.29874C17.2551 3.32744 17.486 3.40003 17.6713 3.55366C17.9427 3.77819 18.0354 4.0905 18.0354 4.42814C18.0354 5.79896 18.0354 7.16978 18.0354 8.5406C18.0354 8.7111 18.0388 8.88161 18.0303 9.05212ZM7.47809 14.6823C7.47809 14.1252 7.47809 13.568 7.47809 13.0093C8.10506 13.0093 8.73371 13.0093 9.36067 13.0093C11.4404 13.0093 13.5202 13.0093 15.6017 13.0093C16.4174 13.0093 17.2315 13.0093 18.0472 13.0093C18.0472 13.4904 18.0472 13.9732 18.0472 14.4544C17.9663 14.5101 17.914 14.6046 17.914 14.7093V15.7847C17.914 15.8893 17.9663 15.9839 18.0472 16.0396C18.0472 16.2354 18.0472 16.4312 18.0472 16.6288C18.0472 17.1943 18.0472 17.7598 18.0472 18.3254C18.0472 18.8335 18.0607 19.3822 17.4438 19.5679C17.1337 19.6608 16.741 19.6067 16.4225 19.6067C16.2573 19.6067 16.0904 19.6135 15.927 19.6067C15.9 19.605 15.8612 19.6152 15.836 19.6067C15.6944 19.5612 15.6404 19.2539 15.5831 19.1155C15.2006 18.192 14.5719 17.3986 13.7376 16.8465C12.2882 15.8876 10.4393 15.7188 8.74888 15.8691C8.49775 15.891 8.25506 15.9332 8.01236 15.8336C7.69214 15.7019 7.49663 15.4149 7.48146 15.0722C7.47135 14.9439 7.47809 14.8123 7.47809 14.6823ZM42.9809 18.0114H42.5174V18.9179H42.8393C42.7652 19.1442 42.6573 19.3619 42.4938 19.5696C42.1264 20.0389 41.582 20.358 40.9955 20.4475C40.7275 20.488 40.441 20.4694 40.1697 20.4694C39.5006 20.4694 38.8298 20.4694 38.1607 20.4694C37.7781 18.8234 36.5393 17.461 34.9315 16.9191C33.1955 16.335 31.2152 16.8128 29.9242 18.1076C29.2787 18.7542 28.8236 19.5797 28.618 20.4677C27.0708 20.4677 25.5236 20.4677 23.9764 20.4677C21.3556 20.4677 18.7348 20.4677 16.114 20.4677C15.6236 20.4677 15.1348 20.4677 14.6444 20.4677C14.2618 18.8217 13.023 17.4593 11.4152 16.9174C9.67921 16.3333 7.69888 16.8111 6.40787 18.1059C5.76236 18.7525 5.30562 19.5797 5.10169 20.4711C4.77978 20.4762 4.45281 20.4762 4.1427 20.3985C3.49045 20.2347 2.94438 19.7958 2.6309 19.2016C2.58034 19.107 2.53989 19.0108 2.50787 18.9146H2.84157V18.008H2.37135C2.37135 17.9793 2.37135 17.9489 2.37135 17.9202C2.37135 17.4627 2.37135 17.0035 2.37135 16.546C2.37135 15.6192 2.25169 14.6333 2.86348 13.8534C3.2309 13.3823 3.74494 13.0987 4.30955 12.9957C4.33652 13.0025 4.36517 13.0059 4.39382 13.0059C5.32584 13.0059 6.25618 13.0059 7.1882 13.0059C7.18146 13.6947 7.17978 14.3834 7.20506 15.0689C7.22528 15.604 7.60112 16.0514 8.13202 16.1527C8.52978 16.227 8.98483 16.1139 9.38764 16.1003C10.318 16.0683 11.2601 16.1459 12.1551 16.416C13.1208 16.7064 14.0073 17.2416 14.641 18.0367C14.8197 18.2596 14.9747 18.5027 15.1096 18.7542C15.2646 19.0446 15.3489 19.3636 15.4921 19.6557C15.6404 19.9613 16.0365 19.8785 16.3146 19.8785C16.6483 19.8785 16.9989 19.9106 17.3309 19.8667C17.7438 19.8144 18.0758 19.5493 18.2292 19.1897C18.3287 19.4717 18.5191 19.7047 18.8714 19.8228C19.1545 19.9191 19.4899 19.8836 19.7848 19.8836C20.3309 19.8836 20.877 19.8853 21.4247 19.8853C22.8135 19.887 24.2022 19.8887 25.5893 19.8904C26.0309 19.8904 26.4708 19.892 26.9124 19.892C27.4449 19.892 27.9017 19.7283 28.1393 19.2049C28.3871 18.6597 28.7478 18.2359 29.2028 17.8493C29.486 17.6096 29.6528 17.3412 29.6646 16.9613C29.673 16.671 29.6646 16.3789 29.6646 16.0902C29.6646 15.0672 29.6646 14.0424 29.6646 13.0194C30.123 13.0177 30.5798 13.0143 31.0365 13.0042C31.0652 13.0042 31.0921 13.0042 31.1208 13.0042C31.136 13.0042 31.1494 13.0025 31.1629 13.0025C32.6242 13.0025 34.0854 13.0025 35.5483 13.0025C37.2657 13.0025 38.9831 13.0093 40.7006 13.0025C40.7831 13.0025 40.8674 12.9924 40.9466 12.9755C42.0202 13.1274 42.9169 14.0137 42.9792 15.1347C43.018 15.8336 42.9826 16.5427 42.9826 17.2433C42.9843 17.5049 42.9893 17.7615 42.9809 18.0114Z" fill="#595959"/>
<path d="M28.0973 10.8838H26.9732C26.7928 10.8838 26.6445 11.0324 26.6445 11.213C26.6445 11.3936 26.7928 11.5422 26.9732 11.5422H28.0973C28.2777 11.5422 28.426 11.3936 28.426 11.213C28.426 11.0324 28.2777 10.8838 28.0973 10.8838Z" fill="#595959"/>
<path d="M10.1703 10.8838H9.04447C8.86414 10.8838 8.71582 11.0324 8.71582 11.213C8.71582 11.3936 8.86414 11.5422 9.04447 11.5422H10.1703C10.3507 11.5422 10.499 11.3936 10.499 11.213C10.499 11.0324 10.3523 10.8838 10.1703 10.8838Z" fill="#595959"/>
<path d="M18.7375 8.365C18.7409 8.60641 18.778 8.85626 18.8892 9.07066C18.9263 9.14326 18.9735 9.21247 19.0308 9.27494C19.2853 9.55518 19.651 9.64127 20.0168 9.64972C20.1887 9.65309 20.3606 9.64972 20.5325 9.64972C21.5033 9.64972 22.4724 9.64972 23.4432 9.64972C24.5269 9.64972 25.6123 9.64972 26.696 9.64972C27.0128 9.64972 27.328 9.64972 27.6448 9.64972C28.0729 9.64972 28.4151 9.46401 28.5971 9.05209C28.7791 8.64355 28.6965 8.2789 28.5213 7.92607C28.4808 7.84503 28.4353 7.76231 28.3881 7.68128C28.137 7.25754 27.8842 6.8338 27.633 6.41175C27.3499 5.93568 27.0684 5.4613 26.7853 4.98522C26.6269 4.72018 26.4836 4.42474 26.283 4.18671C25.9898 3.83894 25.5735 3.65661 25.1286 3.6296C25.1117 3.62791 25.0948 3.62622 25.0763 3.62622C23.4128 3.62622 21.751 3.61441 20.0875 3.62622C19.4404 3.63129 18.8606 4.03477 18.7578 4.70161C18.7072 5.02574 18.7375 5.37182 18.7375 5.69933C18.7375 6.58564 18.7241 7.47532 18.7375 8.365ZM19.5634 7.86023C19.5634 7.35377 19.5634 6.84562 19.5634 6.33916C19.5634 5.91711 19.5634 5.49337 19.5634 5.07132C19.5634 4.75394 19.6595 4.4737 20.0319 4.45344C20.7752 4.4163 21.5302 4.45344 22.2752 4.45344C23.155 4.45344 24.0347 4.45344 24.9162 4.45344C24.9701 4.45344 25.0257 4.45344 25.0797 4.45344C25.5128 4.46863 25.6982 4.76407 25.892 5.09158C26.1212 5.47649 26.3488 5.8614 26.578 6.24631C26.9926 6.94353 27.4628 7.63063 27.8302 8.35318C27.8623 8.41564 27.8859 8.47135 27.8859 8.54395C27.8859 8.6081 27.869 8.67056 27.8404 8.72796C27.8286 8.74991 27.7847 8.79211 27.7662 8.81575C27.7443 8.81743 27.7123 8.82081 27.6971 8.82081C27.4392 8.81237 27.1797 8.82081 26.9235 8.82081C25.9544 8.82081 24.9853 8.82081 24.0179 8.82081C23.0319 8.82081 22.0477 8.82081 21.0617 8.82081C20.7718 8.82081 20.4802 8.82081 20.1904 8.82081C19.9814 8.82081 19.6915 8.85626 19.5988 8.64693C19.5128 8.44603 19.5634 8.08138 19.5634 7.86023Z" fill="#595959"/>
</g>
</svg>
