<svg width="45" height="25" viewBox="0 0 45 25" fill="none" xmlns="http://www.w3.org/2000/svg">
<mask id="mask0_1110_1371" style="mask-type:alpha" maskUnits="userSpaceOnUse" x="0" y="0" width="45" height="25">
<rect width="45" height="25" fill="#D9D9D9"/>
</mask>
<g mask="url(#mask0_1110_1371)">
<path d="M9.45372 17.6416C8.70697 17.3497 7.82257 17.6131 7.3163 18.2605C6.79578 18.9248 6.70719 19.8826 7.1217 20.634C7.54254 21.3939 8.37789 21.7746 9.18793 21.6153C10.0834 21.4391 10.7068 20.587 10.751 19.6477C10.7526 19.6293 10.7542 19.6091 10.7542 19.589C10.7542 19.5638 10.7526 19.5404 10.751 19.5186C10.7083 18.6715 10.2131 17.9385 9.45372 17.6416ZM8.80664 20.8286C8.16747 20.8286 7.63746 20.2667 7.63746 19.589C7.63746 18.913 8.16747 18.3494 8.80664 18.3494C9.45689 18.3494 9.96158 18.9113 9.97582 19.589C9.96158 20.2667 9.4553 20.8286 8.80664 20.8286Z" fill="#595959"/>
<path d="M44.986 12.4602C44.9195 10.5782 43.4371 9.08196 41.6715 9.06016C41.162 9.06016 40.6526 9.06016 40.1432 9.06016C38.7936 9.06016 37.4425 9.06016 36.093 9.06016C34.7877 9.06016 33.4809 9.06016 32.1757 9.06016C32.1203 9.0199 32.0523 8.99139 31.9716 8.98635C31.9447 8.98468 31.9162 8.98131 31.8893 8.97964C31.8561 8.97628 31.8244 8.97293 31.7912 8.96789C31.7754 8.96622 31.7596 8.96287 31.7422 8.96119C31.7406 8.96119 31.7406 8.96119 31.739 8.96119C31.7374 8.96119 31.7358 8.96119 31.7343 8.96119C31.47 8.91925 31.2058 8.8639 30.9479 8.79177C30.274 8.60391 29.5905 8.30701 29.0858 7.78367C28.7678 7.45323 28.608 7.05402 28.4118 6.63635C28.1729 6.12643 27.904 5.63161 27.6034 5.16026C27.1034 4.37525 26.5165 3.6456 25.8346 3.03168C24.3964 1.73842 22.5612 0.938311 20.6627 1.00373C19.7055 1.03728 18.7404 1.00373 17.7832 1.00373C16.8656 1.00373 15.9464 1.06244 15.0288 1.09263C14.4228 1.11276 13.828 1.11947 13.2283 1.21676C12.1161 1.39624 10.996 1.78203 10.0451 2.43118C8.83958 3.25477 7.95202 4.54635 7.76375 6.07276C7.759 6.10295 7.75584 6.13146 7.75109 6.16165C7.73369 6.26565 7.71629 6.36964 7.69572 6.47364C7.64351 6.73699 7.57706 6.99698 7.49321 7.25194C7.31443 7.80045 7.02016 8.40766 6.55186 8.75152C6.28764 8.94609 5.99337 9.03499 5.67221 9.04002C5.62791 9.04002 5.58677 9.04842 5.55038 9.06016C4.86375 9.06016 4.17711 9.06016 3.49048 9.06016C2.86713 9.06016 2.26118 9.18092 1.70903 9.50634C1.00657 9.92065 0.474984 10.6033 0.198115 11.3984C0.0272473 11.8865 0.00351579 12.3931 0.00351579 12.9064C0.00351579 13.8591 -0.00439474 14.8119 0.00351579 15.7663C0.00668001 16.2225 0.0936958 16.667 0.250324 17.078C0.474984 18.5524 1.68688 19.688 3.13925 19.688H3.92556H4.37962C4.37962 19.688 4.41285 19.3995 4.47297 19.0405C4.47771 19.0271 4.48088 19.012 4.48404 18.9969C4.74984 17.2776 5.86839 15.7998 7.44416 15.2513C9.03893 14.6945 10.8204 15.1507 11.9927 16.4272C12.624 17.1149 13.0211 17.9838 13.1793 18.9248L13.2584 19.688H13.7188L29.4307 19.7031L29.5573 19.0338C29.5604 19.0221 29.5636 19.0103 29.5652 18.9986C29.5683 18.9751 29.5731 18.9516 29.5778 18.9281L29.6158 18.7269C29.9512 17.125 31.035 15.773 32.5253 15.253C34.1201 14.6961 35.9015 15.1524 37.0739 16.4289C37.7225 17.135 38.1244 18.0307 38.2731 19.0003C38.2778 19.0321 38.2873 19.0607 38.3016 19.0892C38.3269 19.2854 38.3522 19.485 38.3823 19.6897H41.7458C43.0321 19.6897 44.1301 18.799 44.5193 17.5695C44.7677 17.1216 44.9211 16.6184 44.9702 16.0934C45.0018 15.7546 44.9844 15.4057 44.9844 15.0652C44.9891 14.198 45.016 13.3257 44.986 12.4602ZM24.4265 2.98303C24.4344 2.97967 24.4423 2.97465 24.4502 2.96962C24.5357 3.02665 24.6195 3.08535 24.7034 3.14574C25.3742 3.63385 25.9643 4.2461 26.4753 4.91872C26.7823 5.32297 27.056 5.7574 27.3044 6.20359C27.4293 6.42835 27.5401 6.66319 27.6477 6.89802C27.4183 6.9215 27.1984 6.90808 27.0101 6.72861C26.7601 6.48874 26.5165 6.24049 26.2697 5.99559C25.6226 5.35484 24.9771 4.71576 24.33 4.075C24.2272 3.97268 24.1275 3.87707 24.0816 3.73114C23.9788 3.40573 24.1528 3.11386 24.4265 2.98303ZM21.6721 1.87261C21.661 1.87093 21.661 1.87093 21.6721 1.87261ZM8.37444 7.0255C8.42824 6.81415 8.47095 6.59777 8.50418 6.38139C8.51683 6.29752 8.52474 6.21533 8.5374 6.13146C8.53898 6.11804 8.54056 6.10295 8.54215 6.08953C8.54373 6.08114 8.54848 6.06604 8.54056 6.10462C8.53424 6.14487 8.56904 5.95701 8.57537 5.92682C8.72884 5.17871 9.05475 4.48931 9.54995 3.92907C10.3948 2.97129 11.5561 2.44795 12.7363 2.15776C12.9546 2.10409 13.173 2.0588 13.3945 2.0219C13.4388 2.01519 13.4846 2.0068 13.5289 2.00009C13.5337 2.00009 13.5369 1.99841 13.54 1.99841C13.5448 1.99841 13.5511 1.99673 13.5574 1.99673C13.6239 1.98834 13.6919 1.97996 13.7584 1.97326C13.9245 1.95648 14.0906 1.95312 14.2567 1.94809C15.3626 1.90951 16.4701 1.8659 17.5776 1.83403C18.5142 1.80887 19.4555 1.83067 20.3921 1.83067C20.8225 1.83067 21.2465 1.81558 21.6752 1.87261C21.6895 1.87428 21.7116 1.87764 21.7417 1.88267C21.7955 1.89273 21.8492 1.90112 21.903 1.91118C22.0249 1.93467 22.1451 1.96151 22.2653 1.99003C22.5185 2.05377 22.7685 2.13093 23.0137 2.2215C23.2399 2.30537 23.463 2.40434 23.6845 2.51672C23.2099 2.99981 23.1355 3.8452 23.5627 4.41718C23.7573 4.67717 24.0183 4.89356 24.2461 5.11833C24.9739 5.83792 25.7001 6.55919 26.4279 7.27878C26.6177 7.46664 26.8266 7.62768 27.0844 7.69477C27.3882 7.77361 27.6999 7.70819 28.0052 7.67297C28.0116 7.67297 28.0195 7.67129 28.0258 7.66961C28.0305 7.678 28.0353 7.68639 28.04 7.69477C28.3675 8.28856 28.8611 8.73139 29.4275 9.05512C28.4102 9.05512 27.393 9.05512 26.3757 9.05512C26.2744 8.14095 25.9485 7.28885 25.3647 6.57093C24.9122 6.01572 24.3142 5.56954 23.781 5.10491C23.1561 4.55976 22.5311 4.01461 21.9062 3.46779C21.025 2.69955 19.9919 2.25505 18.8417 2.2584C17.4035 2.26176 15.967 2.2886 14.5288 2.30369C13.741 2.31208 12.9974 2.35569 12.2348 2.62407C10.9707 3.06857 9.93915 4.06158 9.50881 5.41354C9.2715 6.15829 9.30156 6.9215 9.30156 7.69309C9.30156 8.14766 9.30156 8.60055 9.30156 9.05512C8.65922 9.05512 8.01847 9.05512 7.37613 9.05512C7.865 8.51668 8.18776 7.76858 8.37444 7.0255ZM9.89959 9.8871C11.8646 9.8871 13.828 9.8871 15.7929 9.8871C18.019 9.8871 20.245 9.8871 22.471 9.8871C23.6987 9.8871 24.9264 9.8871 26.1542 9.8871C26.1542 10.1303 26.1494 10.3735 26.1494 10.6151C26.1494 11.5259 26.1494 12.4384 26.1494 13.3492C26.1494 14.0487 26.2206 14.7783 25.8662 15.404C25.4216 16.1907 24.6401 16.4859 23.8174 16.4892C22.3492 16.4976 20.8794 16.5077 19.4112 16.5161C18.25 16.5228 17.0855 16.5496 15.9243 16.5379C15.2519 16.5312 14.6443 16.1739 14.3137 15.5482C13.8311 14.5988 13.0891 13.8138 12.1731 13.3391C11.8836 13.1898 11.5814 13.0674 11.2713 12.9751C10.9201 12.8711 10.5388 12.851 10.2223 12.6447C9.79518 12.3663 9.56577 11.8916 9.56261 11.3665C9.55944 10.8734 9.55944 10.3803 9.55944 9.8871C9.67019 9.8871 9.78568 9.8871 9.89959 9.8871ZM9.55786 9.05848C9.55944 8.3456 9.56102 7.63439 9.56102 6.92151C9.56102 5.8027 9.91225 4.7493 10.6653 3.94584C11.4738 3.08367 12.6873 2.61569 13.8264 2.59221C15.3057 2.56034 16.7865 2.56033 18.2658 2.54524C19.1154 2.53685 19.9349 2.57542 20.7228 2.97128C21.3809 3.30173 21.9252 3.84185 22.4821 4.32996C23.1149 4.88182 23.7462 5.43367 24.379 5.98553C25.1479 6.65648 25.7681 7.42807 26.026 8.47643C26.0735 8.66932 26.1035 8.86391 26.1241 9.06016C25.2887 9.06016 24.4518 9.06016 23.6165 9.06016C21.3398 9.06016 19.0616 9.06016 16.7849 9.06016C14.7298 9.06016 12.6762 9.06016 10.621 9.06016C10.2651 9.05848 9.91067 9.05848 9.55786 9.05848ZM44.2092 15.7697C44.206 16.2007 44.1127 16.6218 43.9323 17.0025H38.4392C37.8095 15.8166 36.7701 14.8873 35.525 14.4546C33.685 13.8138 31.5998 14.359 30.2407 15.8166C29.9117 16.1705 29.6301 16.5698 29.4022 17.0025H13.3549C12.7252 15.8166 11.6858 14.8873 10.4407 14.4546C8.60068 13.8138 6.51547 14.359 5.15644 15.8166C4.82736 16.1705 4.54574 16.5698 4.31792 17.0025H1.06353C1.06036 16.9941 1.05562 16.9874 1.05245 16.9807C0.83254 16.5245 0.786659 16.0397 0.786659 15.5382C0.786659 15.0132 0.786659 14.4881 0.786659 13.9631C0.786659 12.9198 0.669583 11.8345 1.30559 10.9472C1.81028 10.2427 2.58868 9.88878 3.40979 9.8871C4.11383 9.88542 4.81787 9.8871 5.5219 9.8871C6.78126 9.8871 8.0422 9.8871 9.30156 9.8871C9.30156 10.1018 9.30156 10.3165 9.30156 10.5329C9.30156 11.2743 9.2272 12.0291 9.76512 12.6112C10.2619 13.1479 10.9912 13.1379 11.6225 13.3861C12.2221 13.6226 12.7743 13.99 13.2315 14.4647C13.5764 14.8236 13.8612 15.2379 14.0906 15.6875C14.5225 16.506 15.2993 16.818 16.1426 16.813C16.7659 16.8096 17.3893 16.8063 18.0126 16.8012C19.734 16.7912 21.4553 16.7811 23.1766 16.7694C23.6244 16.766 24.1022 16.8046 24.542 16.7056C25.621 16.4658 26.401 15.4627 26.4105 14.2969C26.4247 12.8259 26.412 11.3548 26.4105 9.88542C27.317 9.88542 28.222 9.88542 29.1285 9.88542C31.0967 9.88542 33.0664 9.88542 35.0345 9.88542C36.5011 9.88542 37.9693 9.88542 39.4359 9.88542C40.1495 9.88542 40.8646 9.89716 41.5781 9.88542C41.6098 9.88542 41.6414 9.88542 41.673 9.88542C42.9894 9.9022 44.1396 11.0059 44.206 12.4199C44.2424 13.2083 44.2092 14.0051 44.2092 14.7934C44.2092 15.1205 44.2107 15.4442 44.2092 15.7697Z" fill="#595959"/>
<path d="M10.1179 15.6522C8.54216 15.0265 6.66736 15.5666 5.60577 16.9471C4.52677 18.3511 4.3559 20.3656 5.24979 21.9256C6.13894 23.4788 7.87134 24.2672 9.5468 23.9183C11.4263 23.5275 12.7743 21.7058 12.7917 19.698C12.7759 17.8932 11.7143 16.2846 10.1179 15.6522ZM9.87904 22.9622C8.56431 23.4671 7.10402 23.0494 6.20064 21.9222C5.31308 20.8151 5.21024 19.1612 5.90637 17.9217C6.59933 16.6838 8.00108 15.9977 9.34112 16.2778C10.8853 16.5999 11.9991 18.0357 12.0133 19.6997C11.9991 21.1288 11.1621 22.4707 9.87904 22.9622Z" fill="#595959"/>
<path d="M34.6246 17.6416C33.8779 17.3497 32.9935 17.6131 32.4872 18.2605C31.9667 18.9248 31.8781 19.8826 32.2926 20.634C32.7134 21.3939 33.5488 21.7746 34.3588 21.6153C35.2543 21.4391 35.8776 20.587 35.9219 19.6477C35.9235 19.6293 35.9251 19.6108 35.9235 19.589C35.9235 19.5638 35.9219 19.5404 35.9204 19.5186C35.8792 18.6715 35.384 17.9385 34.6246 17.6416ZM33.9775 20.8286C33.3384 20.8286 32.8084 20.2667 32.8084 19.589C32.8084 18.913 33.3384 18.3494 33.9775 18.3494C34.6278 18.3494 35.1325 18.9113 35.1467 19.589C35.1309 20.2667 34.6262 20.8286 33.9775 20.8286Z" fill="#595959"/>
<path d="M35.2888 15.6522C33.7131 15.0265 31.8383 15.5666 30.7767 16.9471C29.6977 18.3511 29.5268 20.3656 30.4207 21.9256C31.3098 23.4788 33.0422 24.2672 34.7177 23.9183C36.5972 23.5275 37.9452 21.7058 37.9626 19.698C37.9468 17.8932 36.8852 16.2846 35.2888 15.6522ZM35.0499 22.9622C33.7352 23.4671 32.2749 23.0494 31.3715 21.9222C30.484 20.8151 30.3811 19.1612 31.0773 17.9217C31.7702 16.6838 33.172 15.9977 34.512 16.2778C36.0562 16.5999 37.17 18.0357 37.1842 19.6997C37.17 21.1288 36.333 22.4707 35.0499 22.9622Z" fill="#595959"/>
<path d="M4.66881 10.4893C4.66881 10.4104 4.60869 10.3567 4.53908 10.3517C3.53761 10.2762 1.51093 10.3752 1.48245 11.8345C1.48087 11.9083 1.54257 11.9721 1.61218 11.9721C2.57411 11.9721 3.53761 11.9721 4.49953 11.9721C4.53908 11.9721 4.56914 11.957 4.58971 11.9335C4.58971 11.9335 4.59129 11.9335 4.59129 11.9318C4.71944 11.8245 4.66249 11.3867 4.66407 11.2441C4.66881 10.9908 4.6704 10.7392 4.66881 10.4893ZM4.38404 11.7624C4.38245 11.7641 4.38087 11.7657 4.38087 11.7691C4.38087 11.7674 4.38245 11.7657 4.38562 11.7607C4.38404 11.7607 4.38404 11.7624 4.38404 11.7624ZM4.40619 11.1065C4.4046 11.2541 4.40302 11.4001 4.39669 11.5477C4.39511 11.5963 4.38878 11.6466 4.38878 11.6953C3.51071 11.6953 2.63106 11.6953 1.75299 11.6953C1.85741 11.0126 2.63264 10.7845 3.2022 10.6872C3.59615 10.6201 4.00749 10.5966 4.40777 10.6184C4.40777 10.7811 4.40777 10.9438 4.40619 11.1065Z" fill="#595959"/>
<path d="M42.9534 10.9422C42.4819 10.5245 41.8063 10.2159 41.1814 10.3014C40.7384 10.3618 40.3919 10.7124 40.5248 11.2072C40.6799 11.7893 41.2589 12.1969 41.7541 12.4132C42.2335 12.6229 43.0752 12.799 43.4106 12.2354C43.4185 12.2254 43.4248 12.2153 43.4312 12.2019C43.4375 12.1901 43.4422 12.1767 43.4454 12.165C43.6068 11.6953 43.284 11.2357 42.9534 10.9422ZM43.2065 12.0643C42.9138 12.6162 41.9756 12.2522 41.5943 12.0308C41.2763 11.8463 40.5755 11.3213 40.7811 10.8365C41.0185 10.2779 42.0136 10.657 42.3553 10.8482C42.6907 11.0361 43.4074 11.5595 43.2065 12.0643Z" fill="#595959"/>
<path d="M14.1193 8.70112C15.6002 8.70112 17.0794 8.70112 18.5603 8.70112C19.8149 8.70112 21.0711 8.70112 22.3257 8.70112C22.7734 8.70112 23.2196 8.70112 23.6673 8.70112C24.1783 8.70112 24.6609 8.53338 24.8492 7.9681C24.9852 7.56218 24.8761 7.10761 24.5834 6.81575C24.5739 6.80568 24.5644 6.79394 24.5533 6.78556C23.8271 6.17332 23.0993 5.56275 22.3763 4.94715C21.6944 4.3651 21.0331 3.69751 20.2405 3.28655C19.4605 2.8823 18.6172 2.79172 17.7597 2.79172C16.7962 2.79172 15.8311 2.79172 14.8676 2.79172C14.3946 2.79172 13.92 2.7716 13.4501 2.84205C12.5499 2.97792 11.6971 3.45429 11.0769 4.16046C10.4393 4.88844 10.0596 5.82106 9.98684 6.80903C9.96311 7.1227 9.93621 7.50682 10.0106 7.81378C10.1387 8.34215 10.5801 8.67763 11.0848 8.69944C12.091 8.74473 13.1099 8.70112 14.1193 8.70112ZM10.7542 7.51857C10.7004 6.77046 10.8459 5.99886 11.2051 5.35139C11.6053 4.62509 12.254 4.05982 13.0102 3.79815C13.5814 3.60022 14.1589 3.62034 14.7506 3.62034C15.665 3.62034 16.5795 3.62034 17.4924 3.62034C18.0461 3.62034 18.6014 3.61196 19.1441 3.74615C19.8734 3.9273 20.4699 4.37013 21.0442 4.8616C21.9302 5.61978 22.8177 6.3746 23.7085 7.12774C23.805 7.20993 23.9015 7.29045 23.998 7.37264C24.1546 7.51689 24.1863 7.79701 23.9426 7.87081C23.8777 7.88926 23.7876 7.87752 23.7211 7.87752C23.3367 7.87752 22.9506 7.87752 22.5662 7.87752C21.3669 7.87752 20.1677 7.87752 18.97 7.87752C17.543 7.87752 16.1175 7.87752 14.6904 7.87752C13.6526 7.87752 12.6163 7.87752 11.5784 7.87752C11.2763 7.87416 10.7874 7.97314 10.7542 7.51857Z" fill="#595959"/>
<path d="M12.2746 12.4451H14.3788C14.5496 12.4451 14.6904 12.2958 14.6904 12.1146V11.7456C14.6904 11.5644 14.5496 11.4152 14.3788 11.4152H12.2746C12.1037 11.4152 11.9629 11.5644 11.9629 11.7456V12.1146C11.9629 12.2958 12.1021 12.4451 12.2746 12.4451Z" fill="#595959"/>
</g>
</svg>
