<svg width="45" height="25" viewBox="0 0 45 25" fill="none" xmlns="http://www.w3.org/2000/svg">
<mask id="mask0_1110_1357" style="mask-type:alpha" maskUnits="userSpaceOnUse" x="0" y="0" width="45" height="25">
<rect width="45" height="25" fill="#D9D9D9"/>
</mask>
<g mask="url(#mask0_1110_1357)">
<path d="M34.5699 16.9805C33.1682 16.4556 31.5091 16.9028 30.5596 18.0595C29.5939 19.2353 29.4403 20.9287 30.2274 22.2423C31.0131 23.5516 32.5494 24.2186 34.0402 23.9357C35.7242 23.6161 36.9269 22.0767 36.9459 20.3833C36.9298 18.8674 35.9905 17.5127 34.5699 16.9805ZM34.2831 23.0179C33.158 23.4137 31.888 23.0619 31.1404 22.125C30.4118 21.2117 30.3459 19.901 30.9561 18.9099C31.5618 17.9261 32.763 17.3983 33.8954 17.6417C35.1902 17.9188 36.1105 19.0623 36.1251 20.3848C36.112 21.5445 35.3907 22.6279 34.2831 23.0179Z" fill="#595959"/>
<path d="M34.0008 18.7267C33.3555 18.4804 32.5918 18.6856 32.1485 19.2149C31.7008 19.75 31.6262 20.5315 31.9802 21.137C32.3343 21.7425 33.0381 22.0547 33.7228 21.936C34.5026 21.8011 35.0439 21.112 35.0864 20.3409C35.0878 20.3247 35.0893 20.3101 35.0893 20.2925C35.0893 20.272 35.0878 20.2514 35.0849 20.2338C35.0469 19.5594 34.6401 18.9701 34.0008 18.7267ZM33.4214 21.3481C32.8464 21.3481 32.3694 20.8701 32.3694 20.2939C32.3694 19.7178 32.8464 19.2398 33.4214 19.2398C34.0066 19.2398 34.4572 19.7192 34.4733 20.2939C34.4587 20.8687 34.0081 21.3481 33.4214 21.3481Z" fill="#595959"/>
<path d="M11.1167 16.9805C9.71511 16.4556 8.05597 16.9028 7.10643 18.0595C6.1408 19.2353 5.98718 20.9287 6.77431 22.2423C7.55999 23.5516 9.09623 24.2186 10.5871 23.9357C12.2711 23.6161 13.4738 22.0767 13.4928 20.3833C13.4767 18.8674 12.5374 17.5127 11.1167 16.9805ZM10.83 23.0179C9.70487 23.4137 8.43491 23.0619 7.68728 22.125C6.95866 21.2117 6.89282 19.901 7.50293 18.9099C8.10865 17.9261 9.30984 17.3983 10.4423 17.6417C11.7371 17.9188 12.6574 19.0623 12.672 20.3848C12.6588 21.5445 11.9375 22.6279 10.83 23.0179Z" fill="#595959"/>
<path d="M10.5476 18.7267C9.90242 18.4804 9.13869 18.6856 8.69537 19.2149C8.24767 19.75 8.17305 20.5315 8.52712 21.137C8.88119 21.7425 9.58493 22.0547 10.2697 21.936C11.0495 21.8011 11.5908 21.112 11.6332 20.3409C11.6347 20.3247 11.6362 20.3101 11.6362 20.2925C11.6362 20.272 11.6347 20.2514 11.6318 20.2338C11.5937 19.5594 11.187 18.9701 10.5476 18.7267ZM9.96826 21.3481C9.39326 21.3481 8.9163 20.8701 8.9163 20.2939C8.9163 19.7178 9.39326 19.2398 9.96826 19.2398C10.5535 19.2398 11.0041 19.7192 11.0202 20.2939C11.0041 20.8687 10.5535 21.3481 9.96826 21.3481Z" fill="#595959"/>
<path d="M31.9948 4.83971C31.9217 4.64032 31.8485 4.44093 31.7929 4.23567C31.6759 3.80757 31.5281 3.50115 31.1506 3.24458C30.8185 3.02027 30.4966 3.0144 30.1221 3.0144C29.1565 3.0144 28.1894 3.0144 27.2237 3.0144C27.1477 3.0144 27.0701 3.0144 26.994 3.0144C26.1454 3.0276 25.3144 3.37653 24.7497 4.02015C24.498 4.30604 24.3166 4.63738 24.1235 4.96286C23.6626 5.73843 23.1885 6.50667 22.7408 7.29103C22.419 7.85402 22.5463 8.77619 23.2485 8.99318C23.4226 9.04742 23.626 9.0269 23.806 9.0269C24.6268 9.0269 25.4461 9.0269 26.2669 9.0269C28.0577 9.0269 29.85 9.0269 31.6408 9.0269C32.0329 9.0269 32.4396 8.97266 32.7235 8.6721C33.0395 8.33637 33.0907 7.84522 32.94 7.43031C32.624 6.56678 32.3094 5.70324 31.9948 4.83971ZM32.1997 7.92439C32.1894 7.99036 32.1631 8.06807 32.1236 8.10765C32.0285 8.20442 31.8661 8.20002 31.7359 8.20295C30.2611 8.22494 28.7834 8.20295 27.3086 8.20295C26.3912 8.20295 25.4753 8.20295 24.558 8.20295C24.2742 8.20295 23.9903 8.20295 23.7065 8.20295C23.6392 8.20295 23.569 8.19708 23.5017 8.20295C23.5002 8.20295 23.4973 8.20295 23.4943 8.20295C23.4534 8.17069 23.4256 8.12818 23.4036 8.0798C23.2954 7.82763 23.5499 7.53441 23.6714 7.32915C23.9157 6.91718 24.16 6.5052 24.4058 6.09322C24.8345 5.3719 25.2091 4.49224 25.9816 4.0832C26.2947 3.91753 26.64 3.84129 26.9911 3.83689C27.7285 3.83689 28.4659 3.83689 29.2033 3.83689C29.591 3.83689 29.9787 3.83689 30.3664 3.83689C30.403 3.83689 30.4396 3.83542 30.4747 3.83689C30.4908 3.83982 30.542 3.84715 30.5581 3.85448C30.8756 3.99376 30.9209 4.18876 31.0102 4.49811C31.2414 5.30593 31.5779 6.09322 31.8646 6.88199C31.9773 7.18987 32.1221 7.50215 32.207 7.81883C32.2055 7.83349 32.2041 7.89653 32.1997 7.92439Z" fill="#595959"/>
<path d="M41.0261 12.871C40.6691 12.871 40.3691 13.1715 40.3691 13.5293C40.3691 13.8767 40.6515 14.1714 40.9983 14.1861C41.367 14.2022 41.642 13.9192 41.6801 13.5688C41.683 13.5556 41.6844 13.5424 41.6844 13.5278C41.6859 13.5131 41.683 13.4999 41.6801 13.4867C41.6435 13.151 41.3831 12.871 41.0261 12.871ZM40.6427 13.5307C40.6427 13.0337 41.3831 13.0381 41.4094 13.5307C41.3831 14.0219 40.6427 14.0263 40.6427 13.5307Z" fill="#595959"/>
<path d="M44.8625 14.6186C44.4923 14.6186 44.1236 14.6186 43.7535 14.6186C43.7505 14.4618 43.7461 14.3049 43.7374 14.148C43.6598 12.7318 42.6459 11.575 41.3277 11.2407C41.3101 11.1821 41.2882 11.1235 41.2604 11.0677C41.0789 10.7041 40.779 10.3537 40.4644 10.0884C40.4308 10.0444 40.384 10.0063 40.3225 9.97549C39.0687 9.35679 37.8148 8.7381 36.5609 8.1194C36.422 8.05049 36.2844 7.98305 36.1454 7.91415C35.6436 6.22666 35.1432 4.54064 34.6414 2.85316C34.5331 2.4881 34.4 2.12743 34.1688 1.81955C33.7284 1.23604 33.051 1.01613 32.34 1.01173C31.446 1.00587 30.5521 1.01173 29.6581 1.01173C28.7335 1.01173 27.8073 1.01173 26.8827 1.01173C26.8519 1.0044 26.8212 1 26.7876 1C25.0845 1.01613 23.6931 2.27551 22.707 3.54956C21.5088 5.09776 20.6382 6.93626 20.1218 8.82313C19.9901 9.30255 19.8847 9.79076 19.8145 10.2834C19.813 10.2966 19.8116 10.3083 19.8087 10.3215H4.28829V10.4681H4.41851V11.163C3.93715 11.2099 3.47189 11.3463 3.05199 11.6058C2.41701 11.9987 1.94005 12.6042 1.7001 13.3109C1.55233 13.7448 1.54062 14.1935 1.54062 14.645C1.54062 14.7975 1.54062 14.9514 1.53916 15.1039C1.16461 15.1039 0.790064 15.1039 0.415515 15.1039C0.340898 15.1039 0.277985 15.167 0.277985 15.2417C0.277985 15.6772 0.277985 16.1126 0.277985 16.5495C0.277985 16.6243 0.340898 16.6873 0.415515 16.6873C0.790064 16.6873 1.16315 16.6873 1.5377 16.6873C1.5377 16.7973 1.53916 16.9072 1.53916 17.0172H0V17.9232H1.64889C1.71327 18.1637 1.80544 18.3968 1.92103 18.6138H1.45723C0.75495 20.1459 2.73743 21.4697 2.73743 21.4697H5.54654C5.58751 21.0109 5.67676 20.5388 5.77478 20.1121C5.79966 20.0769 5.81721 20.0374 5.82306 19.9948C6.07033 18.4877 7.10472 17.1902 8.56927 16.7108C10.0382 16.2284 11.6754 16.6199 12.7595 17.7253C13.3696 18.3469 13.7457 19.1386 13.8876 19.9963C13.8934 20.03 13.9051 20.0608 13.9212 20.0901V21.4155H29.2792V20.074C29.2909 20.0491 29.3011 20.0227 29.3055 19.9963C29.5528 18.4892 30.5872 17.1917 32.0517 16.7122C33.5207 16.2299 35.1578 16.6213 36.2435 17.7268C36.8462 18.3411 37.2193 19.1196 37.3656 19.9655V21.417H39.9392C39.9407 21.436 39.9436 21.4536 39.9451 21.4727H42.7542C42.7542 21.4727 44.7366 20.1488 44.0344 18.6167H43.3716C43.4872 18.3983 43.575 18.1666 43.6379 17.9262H44.9371V17.0201H43.7476C43.7491 16.8398 43.7432 16.658 43.7432 16.4791C43.7432 16.4469 43.7432 16.4132 43.7432 16.3809C44.1163 16.3809 44.4908 16.3809 44.8639 16.3809C44.9034 16.3809 44.9342 16.3662 44.9561 16.3442C44.9576 16.3428 44.959 16.3413 44.9605 16.3398C44.962 16.3384 44.962 16.3384 44.9634 16.3369C44.9854 16.3149 45 16.2841 45 16.2431C45 15.749 45 15.2549 45 14.7609C44.9985 14.6817 44.9371 14.6186 44.8625 14.6186ZM1.53624 16.4132C1.20851 16.4132 0.880775 16.4132 0.553045 16.4132C0.553045 16.0686 0.553045 15.7241 0.553045 15.381C0.882238 15.381 1.20997 15.381 1.53916 15.381C1.5377 15.7241 1.53624 16.0686 1.53624 16.4132ZM34.1044 3.93514C34.28 4.52891 34.457 5.12122 34.6326 5.71499C34.8638 6.49496 35.0964 7.27346 35.3276 8.05343C35.0905 8.05343 34.8535 8.05343 34.615 8.05343C34.2668 6.76033 33.9186 5.46722 33.5704 4.17411C33.5485 4.09494 33.528 4.01431 33.506 3.93514C33.7065 3.93514 33.9055 3.93514 34.1044 3.93514ZM20.5914 10.6352C20.6353 10.2526 20.7099 9.87433 20.7992 9.50047C21.0055 8.62521 21.2966 7.76754 21.6624 6.94505C22.3676 5.3558 23.3318 3.72549 24.7232 2.64497C25.2996 2.19781 25.9873 1.85767 26.7071 1.82835C26.7334 1.83421 26.7598 1.83714 26.7876 1.83714C28.5681 1.83714 30.3472 1.83714 32.1278 1.83714C32.5433 1.83714 32.9852 1.83714 33.3261 2.11277C33.607 2.34002 33.7284 2.66843 33.825 2.99243C33.8645 3.12438 33.9025 3.25487 33.942 3.38682C33.6787 3.38682 33.4139 3.38682 33.1505 3.38682C32.972 3.38682 32.8403 3.56275 32.8857 3.73428C33.2515 5.09483 33.6187 6.45391 33.9845 7.81445C34.0371 8.00945 34.0898 8.2059 34.1425 8.4009C34.1732 8.51672 34.2873 8.60175 34.4073 8.60175C34.8316 8.60175 35.2544 8.60175 35.6772 8.60175C35.6802 8.60322 35.6846 8.60468 35.6875 8.60468C36.9106 9.20872 38.1338 9.81129 39.3569 10.4153C39.5354 10.5033 39.7124 10.5913 39.8909 10.6792C40.0519 10.817 40.2026 10.9739 40.3313 11.144C39.9377 11.144 39.5442 11.144 39.1506 11.144C37.885 11.144 36.6209 11.144 35.3554 11.144C34.8228 11.144 34.2902 11.144 33.7577 11.144C33.7577 10.1778 33.7577 9.21165 33.7577 8.24549C33.7577 8.17072 33.7577 8.09594 33.7591 8.01971C33.7635 8.00065 33.7635 7.98012 33.7577 7.95667C33.7548 7.94054 33.7504 7.92587 33.7431 7.91268C33.3656 6.86148 32.9881 5.80882 32.6106 4.75763C32.5594 4.61688 32.5097 4.47613 32.4585 4.33539C32.2902 3.8633 32.2536 3.28712 31.8879 2.91767C31.664 2.69042 31.348 2.49396 31.0232 2.48077C30.8827 2.4749 30.7423 2.48077 30.6018 2.48077C29.364 2.48077 28.1263 2.48077 26.8885 2.48077C26.1072 2.48077 25.3654 2.68455 24.7392 3.1669C24.255 3.53929 23.9506 4.02897 23.6492 4.54358C23.2557 5.21505 22.8636 5.88652 22.47 6.55653C22.3076 6.83509 22.1437 7.11365 21.9813 7.39221C21.876 7.57255 21.7692 7.74261 21.7151 7.9464C21.7048 7.96546 21.699 7.98599 21.699 8.00798C21.6975 8.30413 21.696 8.60175 21.6946 8.8979C21.5805 8.94335 21.4985 9.05624 21.4985 9.18672V10.2614C21.4985 10.3889 21.5761 10.4989 21.6858 10.5473C21.6843 10.7452 21.6843 10.9446 21.6829 11.1425C21.3069 11.1425 20.9308 11.1425 20.5534 11.1425C20.5651 10.9739 20.5724 10.8038 20.5914 10.6352ZM21.9477 13.3842C21.9506 12.9297 21.9521 12.4752 21.955 12.0207C23.4664 12.0207 24.9777 12.0207 26.4891 12.0207C28.4569 12.0207 30.4233 12.0207 32.3912 12.0207C32.754 12.0207 33.1183 12.0207 33.4812 12.0207C33.4826 12.3726 33.4855 12.7244 33.4855 13.0778C33.4855 13.5352 33.3992 13.9677 32.9822 14.2448C32.6106 14.4911 32.1395 14.453 31.7152 14.5292C31.3304 14.5981 30.9544 14.7081 30.5945 14.8605C29.5235 15.3136 28.6969 16.1566 28.2214 17.2136C27.9712 17.7693 27.5118 17.9848 26.9295 17.9848C26.5008 17.9848 26.0721 17.9848 25.6449 17.9848C24.7992 17.9848 23.9506 18.0083 23.105 17.9848C22.4539 17.9672 21.9448 17.4907 21.9316 16.831C21.9272 16.6389 21.9331 16.4454 21.9345 16.2519C21.936 15.8546 21.9389 15.4573 21.9404 15.0599C22.072 15.0248 22.1701 14.9031 22.1701 14.7594V13.6847C22.1701 13.5425 22.0764 13.4223 21.9477 13.3842ZM33.4753 11.144C32.2917 11.144 31.108 11.144 29.9259 11.144C27.8263 11.144 25.7268 11.144 23.6258 11.144C23.0699 11.144 22.5154 11.144 21.9594 11.144C21.9609 10.949 21.9609 10.7525 21.9623 10.5561C22.0823 10.5135 22.1701 10.3977 22.1701 10.2628V9.18819C22.1701 9.06504 22.0969 8.95801 21.993 8.90817C21.996 8.64133 21.993 8.37597 21.9755 8.11354C21.974 8.09154 21.974 8.06955 21.9755 8.04756C21.9755 8.04756 21.9755 8.04756 21.9755 8.0461C22.0706 7.64585 22.3822 7.2588 22.5856 6.90987C22.9338 6.31463 23.282 5.71939 23.6317 5.12415C23.8395 4.76935 24.0311 4.3955 24.2667 4.0583C24.8402 3.23581 25.7751 2.76372 26.7715 2.75493C27.8893 2.74466 29.0071 2.75493 30.1248 2.75493C30.4672 2.75493 30.9266 2.67576 31.2529 2.80917C31.4665 2.89714 31.6772 3.05255 31.8103 3.24167C31.9815 3.48358 32.0034 3.83105 32.0942 4.10961C32.1541 4.29287 32.2214 4.47467 32.2873 4.65646C32.6882 5.77217 33.0876 6.88641 33.4885 8.00065C33.4636 9.04891 33.4695 10.0957 33.4753 11.144ZM18.489 10.4696H19.1035V11.1015H18.489V10.4696ZM17.1737 10.4696H17.7881V11.1015H17.1737V10.4696ZM15.7486 10.4696H16.3631V11.1015H15.7486V10.4696ZM14.4333 10.4696H15.0478V11.1015H14.4333V10.4696ZM13.118 10.4696H13.7325V11.1015H13.118V10.4696ZM11.8027 10.4696H12.4172V11.1015H11.8027V10.4696ZM10.4888 10.4696H11.1033V11.1015H10.4888V10.4696ZM9.17352 10.4696H9.78802V11.1015H9.17352V10.4696ZM7.74848 10.4696H8.36297V11.1015H7.74848V10.4696ZM6.43317 10.4696H7.04766V11.1015H6.43317V10.4696ZM5.11786 10.4696H5.73235V11.1015H5.11786V10.4696ZM42.9136 17.0172H42.4498V17.9232H42.7717C42.6986 18.149 42.5888 18.366 42.4264 18.5742C42.4162 18.5874 42.4045 18.6006 42.3928 18.6152H42.1002V18.5976H37.806C37.2515 17.3559 36.1864 16.3706 34.8769 15.9293C33.1432 15.3458 31.1666 15.8238 29.8761 17.1169C29.4504 17.5435 29.108 18.0479 28.8651 18.5976H14.325C13.7705 17.3559 12.7054 16.3706 11.3959 15.9293C9.66219 15.3458 7.68557 15.8238 6.39513 17.1169C5.96498 17.5479 5.6197 18.0596 5.37682 18.6152H2.89251C2.7901 18.4906 2.69939 18.3557 2.62331 18.2106C2.57356 18.1168 2.53259 18.02 2.49894 17.9232H2.83106V17.0172H2.36141C2.36141 16.9879 2.36141 16.9585 2.36141 16.9292C2.36141 16.4718 2.36141 16.0144 2.36141 15.5569C2.36141 14.6318 2.2429 13.6466 2.85301 12.8666C3.3212 12.2685 4.02347 11.9679 4.76965 11.9665C5.4295 11.965 6.08788 11.9665 6.74773 11.9665C8.11571 11.9665 9.48516 11.9665 10.8531 11.9665C12.6952 11.9665 14.5357 11.9665 16.3777 11.9665C17.5526 11.9665 18.7289 11.9665 19.9038 11.9665C19.9608 12.0002 20.0281 12.0192 20.1071 12.0192C20.6324 12.0192 21.1562 12.0192 21.6814 12.0192C21.6799 12.3198 21.6785 12.6203 21.677 12.9209C21.6756 13.0822 21.6756 13.242 21.6741 13.4032C21.5717 13.4546 21.5 13.5601 21.5 13.6818V14.7565C21.5 14.8752 21.5673 14.9793 21.6653 15.0306C21.6638 15.3458 21.6624 15.6625 21.6609 15.9777C21.658 16.6551 21.5585 17.391 22.1291 17.891C22.4802 18.1989 22.8987 18.256 23.3435 18.256C23.8219 18.256 24.2989 18.256 24.7773 18.256C25.3318 18.256 25.8863 18.256 26.4393 18.256C26.7451 18.256 27.0743 18.2868 27.3786 18.2311C27.7371 18.1651 28.0678 17.9614 28.2828 17.6667C28.4452 17.4453 28.5316 17.1697 28.6662 16.9292C28.9617 16.4044 29.364 15.9396 29.8527 15.5863C30.536 15.0922 31.3538 14.8239 32.1863 14.733C32.5872 14.689 32.9457 14.6406 33.2646 14.3694C33.5338 14.1422 33.7109 13.8152 33.7489 13.4648C33.7767 13.2141 33.7577 12.9531 33.7577 12.7024C33.7577 12.4737 33.7577 12.2465 33.7577 12.0178C34.28 12.0178 34.8038 12.0178 35.3261 12.0178C35.3407 12.0178 35.3554 12.0163 35.3685 12.0148C36.2815 12.0148 37.1945 12.0148 38.1074 12.0148C39.0116 12.0148 39.9304 12.0632 40.8346 12.0148C40.877 12.0119 40.9165 12.006 40.9531 11.9987C41.9948 12.179 42.8522 13.0499 42.9136 14.1451C42.9517 14.843 42.918 15.5525 42.918 16.2519C42.9195 16.5114 42.9239 16.7665 42.9136 17.0172ZM44.7249 16.1023C44.3972 16.1023 44.0709 16.1023 43.7432 16.1023C43.7476 15.7006 43.7564 15.2974 43.7549 14.8943C44.0783 14.8943 44.4016 14.8943 44.7235 14.8943C44.7249 15.296 44.7249 15.6992 44.7249 16.1023Z" fill="#595959"/>
<path d="M32.1628 9.87H31.0392C30.8577 9.87 30.71 10.0181 30.71 10.1999C30.71 10.3817 30.8577 10.5297 31.0392 10.5297H32.1628C32.3442 10.5297 32.492 10.3817 32.492 10.1999C32.492 10.0181 32.3442 9.87 32.1628 9.87Z" fill="#595959"/>
</g>
</svg>
