<svg width="179" height="325" viewBox="0 0 179 325" fill="none" xmlns="http://www.w3.org/2000/svg">
<g clip-path="url(#clip0_1_400)">
<path d="M283.138 337L-2 51.8625V50.6875L284.313 337H283.138Z" fill="white"/>
<path d="M259.329 337L-2 75.6709V74.4958L260.504 337H259.329Z" fill="white"/>
<path d="M235.521 337L-2 99.4792V98.3042L236.696 337H235.521Z" fill="white"/>
<path d="M211.712 337L-2 123.288V122.113L212.888 337H211.712Z" fill="white"/>
<path d="M187.904 337L-2 147.096V145.921L189.079 337H187.904Z" fill="white"/>
<path d="M164.096 337L-2 170.904V169.729L165.271 337H164.096Z" fill="white"/>
<path d="M140.287 337L-2 194.713V193.538L141.462 337H140.287Z" fill="white"/>
<path d="M116.479 337L-2 218.521V217.346L117.654 337H116.479Z" fill="white"/>
<path d="M92.6708 337L-2 242.329V241.154L93.8458 337H92.6708Z" fill="white"/>
<path d="M68.8625 337L-2 266.137V264.962L70.0375 337H68.8625Z" fill="white"/>
<path d="M45.0542 337L-2 289.946V288.771L46.2292 337H45.0542Z" fill="white"/>
<path d="M21.2458 337L-2 313.754V312.579L22.4208 337H21.2458Z" fill="white"/>
<path d="M306.946 337L-2 28.0542V26.8792L308.121 337H306.946Z" fill="white"/>
<path d="M330.754 337L-2 4.2458V3.0708L331.929 337H330.754Z" fill="white"/>
<path d="M354.562 337L-2 -19.5625V-20.7375L355.737 337H354.562Z" fill="white"/>
<path d="M378.371 337L-2 -43.3709V-44.5459L379.546 337H378.371Z" fill="white"/>
<path d="M402.179 337L-2 -67.1792V-68.3542L403.354 337H402.179Z" fill="white"/>
<path d="M425.988 337L-2 -90.9876V-92.1626L427.163 337H425.988Z" fill="white"/>
<path d="M449.796 337L-2 -114.796V-115.971L450.971 337H449.796Z" fill="white"/>
<path d="M473.604 337L-2 -138.604V-139.779L474.779 337H473.604Z" fill="white"/>
<path d="M-2 -163H-1.4125L498 336.412V337H497.412L-2 -162.413V-163Z" fill="white"/>
<path d="M22.3958 -163L498 312.604V313.779L21.2208 -163H22.3958Z" fill="white"/>
<path d="M46.2042 -163L498 288.796V289.971L45.0292 -163H46.2042Z" fill="white"/>
<path d="M70.0125 -163L498 264.988V266.163L68.8375 -163H70.0125Z" fill="white"/>
<path d="M93.8208 -163L498 241.179V242.354L92.6458 -163H93.8208Z" fill="white"/>
<path d="M117.629 -163L498 217.371V218.546L116.454 -163H117.629Z" fill="white"/>
<path d="M141.438 -163L498 193.562V194.737L140.263 -163H141.438Z" fill="white"/>
<path d="M165.246 -163L498 169.754V170.929L164.071 -163H165.246Z" fill="white"/>
<path d="M271.054 337L-2 63.9458V62.7708L272.229 337H271.054Z" fill="white"/>
<path d="M247.246 337L-2 87.7541V86.5791L248.421 337H247.246Z" fill="white"/>
<path d="M223.438 337L-2 111.562V110.387L224.613 337H223.438Z" fill="white"/>
<path d="M199.629 337L-2 135.371V134.196L200.804 337H199.629Z" fill="white"/>
<path d="M175.821 337L-2 159.179V158.004L176.996 337H175.821Z" fill="white"/>
<path d="M152.012 337L-2 182.988V181.812L153.188 337H152.012Z" fill="white"/>
<path d="M128.204 337L-2 206.796V205.621L129.379 337H128.204Z" fill="white"/>
<path d="M104.396 337L-2 230.604V229.429L105.571 337H104.396Z" fill="white"/>
<path d="M80.5875 337L-2 254.413V253.238L81.7625 337H80.5875Z" fill="white"/>
<path d="M56.7792 337L-2 278.221V277.046L57.9542 337H56.7792Z" fill="white"/>
<path d="M32.9708 337L-2 302.029V300.854L34.1458 337H32.9708Z" fill="white"/>
<path d="M9.1625 337L-2 325.838V324.663L10.3375 337H9.1625Z" fill="white"/>
<path d="M294.862 337L-2 40.1374V38.9624L296.037 337H294.862Z" fill="white"/>
<path d="M318.671 337L-2 16.3293V15.1543L319.846 337H318.671Z" fill="white"/>
<path d="M342.479 337L-2 -7.47929V-8.6543L343.654 337H342.479Z" fill="white"/>
<path d="M366.288 337L-2 -31.2874V-32.4624L367.463 337H366.288Z" fill="white"/>
<path d="M390.096 337L-2 -55.0957V-56.2708L391.271 337H390.096Z" fill="white"/>
<path d="M413.904 337L-2 -78.9041V-80.0791L415.079 337H413.904Z" fill="white"/>
<path d="M437.713 337L-2 -102.712V-103.887L438.888 337H437.713Z" fill="white"/>
<path d="M461.521 337L-2 -126.521V-127.696L462.696 337H461.521Z" fill="white"/>
<path d="M485.329 337L-2 -150.329V-151.504L486.504 337H485.329Z" fill="white"/>
<path d="M10.3125 -163L498 324.688V325.863L9.13751 -163H10.3125Z" fill="white"/>
<path d="M34.1208 -163L498 300.879V302.054L32.9458 -163H34.1208Z" fill="white"/>
<path d="M57.9292 -163L498 277.071V278.246L56.7542 -163H57.9292Z" fill="white"/>
<path d="M81.7375 -163L498 253.263V254.438L80.5625 -163H81.7375Z" fill="white"/>
<path d="M105.546 -163L498 229.454V230.629L104.371 -163H105.546Z" fill="white"/>
<path d="M129.354 -163L498 205.646V206.821L128.179 -163H129.354Z" fill="white"/>
<path d="M153.162 -163L498 181.838V183.013L151.987 -163H153.162Z" fill="white"/>
<path d="M176.971 -163L498 158.029V159.204L175.796 -163H176.971Z" fill="white"/>
</g>
<defs>
<clipPath id="clip0_1_400">
<rect width="179" height="325" fill="white"/>
</clipPath>
</defs>
</svg>
