<svg width="250" height="52" viewBox="0 0 250 52" fill="none" xmlns="http://www.w3.org/2000/svg">
<path d="M80.292 32.4371V4.09008H92.0655C94.1282 4.09008 96.0168 4.44104 97.7313 5.14297C99.4458 5.8179 100.919 6.7898 102.151 8.05867C103.41 9.32754 104.375 10.8259 105.045 12.5537C105.714 14.2815 106.049 16.1848 106.049 18.2636C106.049 20.3424 105.714 22.2592 105.045 24.014C104.375 25.7418 103.41 27.2402 102.151 28.5091C100.919 29.7509 99.4458 30.7228 97.7313 31.4248C96.0168 32.0997 94.1282 32.4371 92.0655 32.4371H80.292ZM87.1231 27.7396L86.1989 26.3628H91.8646C92.9897 26.3628 93.9943 26.1738 94.8783 25.7958C95.7623 25.3909 96.5124 24.8374 97.1285 24.1355C97.7715 23.4336 98.2671 22.5832 98.6153 21.5843C98.9636 20.5854 99.1377 19.4785 99.1377 18.2636C99.1377 17.0487 98.9636 15.9419 98.6153 14.943C98.2671 13.9441 97.7715 13.0936 97.1285 12.3917C96.5124 11.6898 95.7623 11.1498 94.8783 10.7719C93.9943 10.3669 92.9897 10.1645 91.8646 10.1645H86.0783L87.1231 8.86858V27.7396Z" fill="white"/>
<path d="M110.648 32.4371V10.9339H116.756L117.038 17.9396L115.832 16.6033C116.153 15.4424 116.676 14.403 117.399 13.4851C118.149 12.5672 119.02 11.8383 120.011 11.2983C121.002 10.7584 122.06 10.4884 123.185 10.4884C123.668 10.4884 124.11 10.5289 124.511 10.6099C124.94 10.6909 125.329 10.7854 125.677 10.8934L123.909 18.0611C123.614 17.8722 123.212 17.7237 122.703 17.6157C122.221 17.4807 121.712 17.4132 121.176 17.4132C120.587 17.4132 120.038 17.5212 119.529 17.7372C119.02 17.9261 118.591 18.2096 118.243 18.5876C117.895 18.9655 117.613 19.411 117.399 19.9239C117.212 20.4369 117.118 21.0173 117.118 21.6653V32.4371H110.648Z" fill="white"/>
<path d="M129.296 32.4371V10.9339H135.726V32.4371H129.296ZM132.511 6.68181C131.306 6.68181 130.355 6.39834 129.658 5.8314C128.988 5.23746 128.653 4.40055 128.653 3.32066C128.653 2.34876 129.002 1.55234 129.698 0.931404C130.395 0.310468 131.332 0 132.511 0C133.716 0 134.654 0.296969 135.324 0.890908C135.993 1.45785 136.328 2.26777 136.328 3.32066C136.328 4.31955 135.98 5.12947 135.284 5.75041C134.614 6.37134 133.69 6.68181 132.511 6.68181Z" fill="white"/>
<path d="M148.316 32.4371L139.396 10.9339H146.508L151.812 27.0107L150.245 27.1727L155.71 10.9339H162.742L153.379 32.4371H148.316Z" fill="white"/>
<path d="M174.87 32.8421C172.807 32.8421 170.959 32.3562 169.325 31.3843C167.691 30.4124 166.391 29.0895 165.427 27.4157C164.489 25.7148 164.021 23.798 164.021 21.6653C164.021 19.5325 164.489 17.6292 165.427 15.9554C166.391 14.2545 167.691 12.9182 169.325 11.9463C170.959 10.9744 172.807 10.4884 174.87 10.4884C176.772 10.4884 178.513 10.8259 180.094 11.5008C181.701 12.1757 182.973 13.1206 183.911 14.3355L180.415 18.5471C180.04 18.1151 179.598 17.7102 179.089 17.3322C178.58 16.9542 178.017 16.6573 177.401 16.4413C176.785 16.2253 176.142 16.1173 175.473 16.1173C174.455 16.1173 173.557 16.3603 172.78 16.8463C172.003 17.3052 171.401 17.9531 170.972 18.7901C170.544 19.627 170.329 20.5854 170.329 21.6653C170.329 22.6912 170.544 23.6226 170.972 24.4595C171.428 25.2964 172.044 25.9578 172.821 26.4438C173.597 26.9297 174.481 27.1727 175.473 27.1727C176.169 27.1727 176.812 27.0917 177.401 26.9297C177.991 26.7407 178.526 26.4708 179.009 26.1198C179.518 25.7688 179.986 25.3369 180.415 24.8239L183.871 29.076C182.96 30.2369 181.688 31.1548 180.053 31.8297C178.446 32.5046 176.718 32.8421 174.87 32.8421Z" fill="white"/>
<path d="M197.449 32.8421C195.226 32.8421 193.244 32.3562 191.502 31.3843C189.788 30.4124 188.422 29.0895 187.404 27.4157C186.413 25.7418 185.917 23.825 185.917 21.6653C185.917 19.5055 186.413 17.5887 187.404 15.9149C188.422 14.241 189.788 12.9182 191.502 11.9463C193.244 10.9744 195.226 10.4884 197.449 10.4884C199.673 10.4884 201.642 10.9744 203.356 11.9463C205.097 12.9182 206.464 14.241 207.455 15.9149C208.446 17.5887 208.942 19.5055 208.942 21.6653C208.942 23.825 208.446 25.7418 207.455 27.4157C206.464 29.0895 205.097 30.4124 203.356 31.3843C201.642 32.3562 199.673 32.8421 197.449 32.8421ZM197.449 27.2537C198.414 27.2537 199.271 27.0107 200.021 26.5248C200.771 26.0388 201.361 25.3774 201.789 24.5405C202.218 23.7035 202.419 22.7452 202.392 21.6653C202.419 20.5854 202.218 19.627 201.789 18.7901C201.361 17.9261 200.771 17.2512 200.021 16.7653C199.271 16.2793 198.414 16.0363 197.449 16.0363C196.485 16.0363 195.614 16.2793 194.838 16.7653C194.087 17.2512 193.498 17.9261 193.069 18.7901C192.641 19.627 192.44 20.5854 192.467 21.6653C192.44 22.7452 192.641 23.7035 193.069 24.5405C193.498 25.3774 194.087 26.0388 194.838 26.5248C195.614 27.0107 196.485 27.2537 197.449 27.2537Z" fill="white"/>
<path d="M84.7868 51.7059C84.4665 51.7059 84.222 51.6242 84.0534 51.461C83.8847 51.2977 83.7709 51.0895 83.7119 50.8364C83.6529 50.5834 83.6149 50.3221 83.5981 50.0527C83.5981 49.8976 83.6065 49.714 83.6234 49.5017C83.6402 49.2894 83.6613 49.0854 83.6866 48.8894C83.7203 48.6853 83.7456 48.5343 83.7625 48.4364H80.8665C80.3269 48.9833 79.8126 49.518 79.3236 50.0405C78.843 50.5548 78.3709 51.0773 77.9072 51.6079H76.6426C76.8618 51.412 77.1484 51.1507 77.5025 50.8242C77.8651 50.4895 78.274 50.1099 78.7292 49.6854C79.1845 49.2609 79.6566 48.8119 80.1456 48.3384C80.643 47.8567 81.1405 47.3751 81.6379 46.8934C82.1353 46.4036 82.6032 45.9342 83.0416 45.4852C83.4885 45.0281 83.8847 44.6158 84.2304 44.2484C84.399 44.0688 84.555 43.8892 84.6983 43.7096C84.8501 43.5219 85.0187 43.3668 85.2042 43.2443C85.3897 43.1219 85.6173 43.0606 85.8871 43.0606H86.7976C86.6543 43.1913 86.511 43.4117 86.3676 43.7219C86.2243 44.0321 86.0936 44.3668 85.9756 44.726C85.866 45.0852 85.7733 45.4117 85.6974 45.7056C85.5878 46.1465 85.474 46.624 85.3559 47.1383C85.2463 47.6527 85.1578 48.1629 85.0904 48.669C85.0229 49.1752 85.0018 49.6446 85.0271 50.0772C85.0356 50.2323 85.0651 50.3956 85.1156 50.5671C85.1747 50.7303 85.2548 50.8732 85.3559 50.9956C85.4655 51.1099 85.6004 51.1671 85.7606 51.1671C85.9039 51.1671 86.0599 51.114 86.2285 51.0079L86.3044 51.1181C86.1948 51.2814 85.984 51.4201 85.6721 51.5344C85.3686 51.6487 85.0735 51.7059 84.7868 51.7059ZM79.7283 45.4975C79.5934 45.3587 79.4922 45.2158 79.4248 45.0689C79.3658 44.9219 79.3363 44.7832 79.3363 44.6525C79.3363 44.4893 79.37 44.3342 79.4374 44.1872C79.5133 44.0321 79.6018 43.9015 79.703 43.7954C79.9053 43.5749 80.1583 43.4117 80.4618 43.3055C80.7653 43.1994 81.0857 43.1341 81.4229 43.1096C81.7686 43.077 82.0974 43.0606 82.4093 43.0606H85.2421C85.0651 43.2321 84.7953 43.3668 84.4327 43.4647C84.0786 43.5545 83.6908 43.6239 83.2693 43.6729C82.8477 43.7137 82.4388 43.7545 82.0426 43.7954C81.6548 43.828 81.3344 43.8729 81.0815 43.9301C80.6346 44.028 80.2932 44.2158 80.0571 44.4933C79.8295 44.7709 79.7199 45.1056 79.7283 45.4975ZM81.4229 47.8241H83.851C83.9522 47.2853 84.0702 46.7465 84.2051 46.2077C84.3484 45.6689 84.4749 45.1954 84.5845 44.7872C84.0702 45.2607 83.5433 45.7546 83.0037 46.2689C82.4726 46.7751 81.9456 47.2935 81.4229 47.8241Z" fill="white"/>
<path d="M93.1587 51.7059C92.8468 51.7059 92.6318 51.6202 92.5138 51.4487C92.4042 51.2691 92.3494 51.0528 92.3494 50.7997C92.3494 50.6691 92.3578 50.5344 92.3747 50.3956C92.4 50.2487 92.4295 50.1017 92.4632 49.9548C92.4885 49.8242 92.5391 49.6486 92.6149 49.4282C92.6993 49.1996 92.792 48.9547 92.8932 48.6935C93.0028 48.4323 93.1124 48.1792 93.222 47.9343C93.3316 47.6812 93.4285 47.4649 93.5128 47.2853C93.3779 47.4894 93.2051 47.7384 92.9943 48.0323C92.792 48.318 92.5728 48.616 92.3367 48.9262C92.1091 49.2364 91.8857 49.5303 91.6665 49.8078C91.4557 50.0772 91.2702 50.2977 91.11 50.4691C90.7222 50.8773 90.326 51.1834 89.9213 51.3875C89.5166 51.5916 89.1456 51.6936 88.8084 51.6936C88.3531 51.6936 87.999 51.5916 87.7461 51.3875C87.4932 51.1834 87.3667 50.8324 87.3667 50.3344C87.3667 50.0976 87.3962 49.8242 87.4552 49.5139C87.5142 49.1956 87.6112 48.8364 87.7461 48.4364C87.9063 47.9547 88.1044 47.4486 88.3405 46.9179C88.5765 46.3791 88.8253 45.8526 89.0866 45.3383C89.3564 44.8158 89.6178 44.3342 89.8707 43.8933C89.8875 43.8607 89.9213 43.7994 89.9719 43.7096C90.0309 43.6198 90.0772 43.5545 90.111 43.5137C89.7822 43.5219 89.4281 43.5627 89.0487 43.6362C88.6777 43.7015 88.3194 43.7954 87.9737 43.9178C87.6365 44.0403 87.3456 44.1831 87.1011 44.3464C86.8651 44.5097 86.7133 44.6893 86.6459 44.8852C86.6374 44.9097 86.6206 44.9219 86.5953 44.9219C86.5194 44.9219 86.4815 44.8648 86.4815 44.7505C86.4815 44.726 86.4899 44.6893 86.5067 44.6403C86.5911 44.428 86.688 44.2403 86.7976 44.077C86.9072 43.9137 87.021 43.7749 87.1391 43.6607C87.4173 43.3831 87.7292 43.2157 88.0749 43.1586C88.4206 43.0933 88.7873 43.0606 89.1751 43.0606H92.0459C91.8688 43.1913 91.6749 43.4035 91.4641 43.6974C91.2534 43.9913 91.0342 44.326 90.8065 44.7015C90.5873 45.077 90.3765 45.4648 90.1742 45.8648C89.9719 46.2567 89.7906 46.624 89.6304 46.9669C89.4786 47.3016 89.3564 47.5751 89.2637 47.7873C89.2131 47.9098 89.1288 48.1057 89.0107 48.3751C88.9011 48.6445 88.8 48.9425 88.7072 49.269C88.6145 49.5874 88.5681 49.8813 88.5681 50.1507C88.5681 50.3793 88.6187 50.5671 88.7199 50.714C88.821 50.8609 88.9939 50.9303 89.2384 50.9222C89.4997 50.914 89.799 50.7915 90.1363 50.5548C90.4735 50.3181 90.8276 50.0038 91.1986 49.6119C91.5695 49.2201 91.9405 48.7915 92.3114 48.3261C92.6824 47.8527 93.0323 47.3792 93.3611 46.9057C93.6983 46.424 93.9976 45.9791 94.259 45.5709C94.5203 45.1546 94.7227 44.8117 94.866 44.5423C95.1611 44.0199 95.4267 43.6443 95.6627 43.4158C95.9072 43.179 96.177 43.0606 96.4721 43.0606H97.2562C97.0791 43.1913 96.8852 43.4117 96.6744 43.7219C96.4637 44.0321 96.2571 44.3668 96.0548 44.726C95.8524 45.0852 95.6754 45.4117 95.5236 45.7056C95.3044 46.1465 95.081 46.624 94.8534 47.1383C94.6257 47.6527 94.4234 48.1629 94.2463 48.669C94.0693 49.1752 93.9386 49.6446 93.8543 50.0772C93.829 50.2079 93.8164 50.3466 93.8164 50.4936C93.8164 50.6732 93.8459 50.8324 93.9049 50.9711C93.9723 51.1018 94.0904 51.1671 94.259 51.1671C94.4023 51.1671 94.5709 51.114 94.7648 51.0079H94.7775C94.7943 51.0079 94.807 51.0242 94.8154 51.0569C94.8238 51.0814 94.8196 51.1018 94.8028 51.1181C94.6426 51.2814 94.4023 51.4201 94.0819 51.5344C93.7616 51.6487 93.4538 51.7059 93.1587 51.7059Z" fill="white"/>
<path d="M99.7207 51.8773C99.4425 51.8773 99.257 51.7834 99.1643 51.5957C99.0715 51.3997 99.0252 51.1834 99.0252 50.9467C99.0252 50.7834 99.0378 50.6242 99.0631 50.4691C99.0884 50.3058 99.1137 50.1711 99.139 50.065C99.2064 49.7548 99.316 49.3874 99.4678 48.9629C99.6196 48.5302 99.7924 48.0772 99.9863 47.6037C100.189 47.122 100.399 46.6485 100.619 46.1832C100.838 45.7097 101.049 45.2689 101.251 44.8607C101.462 44.4444 101.647 44.0892 101.807 43.7954C101.613 43.8035 101.39 43.8035 101.137 43.7954C100.884 43.779 100.623 43.7709 100.353 43.7709C99.8893 43.7709 99.4299 43.8076 98.9746 43.8811C98.5278 43.9464 98.161 44.1056 97.8744 44.3586C97.7395 44.4811 97.6425 44.6117 97.5835 44.7505C97.5245 44.8893 97.495 45.0281 97.495 45.1668C97.495 45.3219 97.5203 45.473 97.5708 45.6199C97.5793 45.6362 97.5835 45.6567 97.5835 45.6811C97.5835 45.7628 97.5413 45.8036 97.457 45.8036C97.4064 45.8036 97.3685 45.7832 97.3432 45.7424C97.2589 45.6118 97.1957 45.4811 97.1535 45.3505C97.1198 45.2117 97.1029 45.077 97.1029 44.9464C97.1029 44.7178 97.1451 44.5015 97.2294 44.2974C97.3137 44.0933 97.4149 43.926 97.5329 43.7954C97.828 43.4606 98.2285 43.2402 98.7343 43.1341C99.2402 43.0198 99.7671 42.9627 100.315 42.9627C100.737 42.9627 101.146 42.979 101.542 43.0117C101.946 43.0443 102.305 43.0688 102.617 43.0851C102.912 43.1015 103.279 43.13 103.717 43.1708C104.155 43.2035 104.581 43.2198 104.994 43.2198C105.365 43.2198 105.698 43.1953 105.993 43.1464C106.288 43.0974 106.503 43.0076 106.638 42.877C106.664 42.9259 106.676 42.9831 106.676 43.0484C106.676 43.2198 106.575 43.3872 106.373 43.5504C106.17 43.7137 105.896 43.8239 105.551 43.8811C105.441 43.8974 105.315 43.9096 105.171 43.9178C105.036 43.926 104.893 43.9301 104.741 43.9301C104.488 43.9301 104.235 43.926 103.983 43.9178C103.73 43.9015 103.506 43.8852 103.312 43.8688C103.118 43.8525 102.988 43.8484 102.92 43.8566C102.87 43.9301 102.79 44.0648 102.68 44.2607C102.579 44.4566 102.469 44.6689 102.351 44.8974C102.233 45.126 102.128 45.3342 102.035 45.522C101.875 45.8485 101.706 46.2159 101.529 46.624C101.352 47.0322 101.183 47.4445 101.023 47.8608C100.863 48.2772 100.724 48.6731 100.606 49.0486C100.496 49.4241 100.425 49.7466 100.391 50.016C100.383 50.0405 100.378 50.0691 100.378 50.1017C100.378 50.1262 100.378 50.1507 100.378 50.1752C100.378 50.3303 100.408 50.465 100.467 50.5793C100.534 50.6854 100.635 50.7385 100.77 50.7385C100.888 50.7385 101.032 50.6773 101.2 50.5548C101.369 50.4324 101.563 50.2283 101.782 49.9425C101.824 49.8936 101.862 49.8691 101.896 49.8691C101.946 49.8691 101.972 49.9099 101.972 49.9915C101.972 50.0487 101.951 50.1262 101.909 50.2242C101.875 50.3221 101.812 50.4364 101.719 50.5671C101.643 50.6732 101.521 50.816 101.352 50.9956C101.183 51.1671 101.019 51.314 100.859 51.4365C100.716 51.5508 100.539 51.6528 100.328 51.7426C100.117 51.8324 99.9146 51.8773 99.7207 51.8773Z" fill="white"/>
<path d="M107.733 51.9998C107.109 51.9998 106.561 51.91 106.089 51.7304C105.616 51.5589 105.25 51.2773 104.988 50.8854C104.727 50.4936 104.596 49.9711 104.596 49.318C104.596 48.6649 104.706 48.0282 104.925 47.4077C105.153 46.7791 105.465 46.1955 105.861 45.6567C106.257 45.1179 106.721 44.6444 107.252 44.2362C107.792 43.828 108.373 43.5096 108.997 43.2811C109.621 43.0525 110.27 42.9382 110.945 42.9382C111.695 42.9382 112.306 43.0606 112.779 43.3055C113.251 43.5504 113.596 43.8852 113.816 44.3097C114.043 44.726 114.157 45.1954 114.157 45.7179C114.157 46.4118 113.984 47.1383 113.638 47.8976C113.284 48.6731 112.821 49.3711 112.247 49.9915C111.674 50.612 111.004 51.1018 110.237 51.461C109.478 51.8202 108.643 51.9998 107.733 51.9998ZM108.883 51.3508C109.381 51.2201 109.87 50.9793 110.35 50.6283C110.831 50.2772 111.265 49.8568 111.653 49.367C112.041 48.8772 112.349 48.3629 112.576 47.8241C112.93 46.9996 113.107 46.224 113.107 45.4975C113.107 45.3832 113.099 45.273 113.082 45.1668C113.074 45.0607 113.061 44.9587 113.044 44.8607C112.951 44.3627 112.736 44.0117 112.399 43.8076C112.062 43.6035 111.682 43.5015 111.261 43.5015C110.823 43.5015 110.376 43.5872 109.92 43.7586C109.465 43.9219 109.073 44.126 108.744 44.3709C108.34 44.6811 107.964 45.0362 107.619 45.4362C107.273 45.8363 106.982 46.2608 106.746 46.7098C106.544 47.1016 106.379 47.5302 106.253 47.9955C106.135 48.4527 106.076 48.8976 106.076 49.3303C106.076 49.7221 106.135 50.0813 106.253 50.4079C106.371 50.7344 106.565 50.9997 106.835 51.2038C107.104 51.3997 107.463 51.4977 107.91 51.4977C108.196 51.4977 108.521 51.4487 108.883 51.3508Z" fill="white"/>
<path d="M122.962 51.7059C122.633 51.7059 122.41 51.6242 122.292 51.461C122.174 51.2895 122.115 51.0773 122.115 50.8242C122.115 50.5956 122.148 50.3385 122.216 50.0527C122.292 49.7017 122.427 49.2854 122.62 48.8037C122.823 48.3221 123.046 47.82 123.291 47.2975C123.544 46.7669 123.792 46.2608 124.037 45.7791C124.29 45.2975 124.509 44.8852 124.694 44.5423C124.585 44.6403 124.471 44.7423 124.353 44.8485C124.243 44.9546 124.13 45.073 124.012 45.2036C123.523 45.7342 123.076 46.2404 122.671 46.722C122.275 47.1955 121.891 47.6649 121.52 48.1302C121.158 48.5874 120.783 49.0568 120.395 49.5384C120.184 49.8078 120.015 50.0119 119.889 50.1507C119.771 50.2813 119.661 50.3711 119.56 50.4201C119.467 50.4609 119.349 50.4813 119.206 50.4813C118.995 50.4813 118.755 50.4201 118.485 50.2977C118.603 50.1589 118.683 49.8609 118.725 49.4037C118.776 48.9466 118.801 48.4241 118.801 47.8363C118.801 47.2404 118.78 46.624 118.738 45.9873C118.696 45.3505 118.633 44.7872 118.548 44.2974C118.498 44.3791 118.405 44.5587 118.27 44.8362C118.144 45.1138 117.988 45.4566 117.802 45.8648C117.625 46.2648 117.435 46.7016 117.233 47.1751C117.031 47.6404 116.833 48.1098 116.639 48.5833C116.453 49.0486 116.285 49.4895 116.133 49.9058C115.99 50.3221 115.88 50.6813 115.804 50.9834C115.728 51.2854 115.703 51.4936 115.728 51.6079H114.565C114.75 51.1507 114.961 50.6446 115.197 50.0895C115.442 49.5262 115.694 48.9507 115.956 48.3629C116.217 47.7751 116.474 47.2037 116.727 46.6485C116.989 46.0934 117.225 45.5873 117.435 45.1301C117.655 44.6648 117.836 44.2811 117.979 43.979C118.123 43.677 118.215 43.4892 118.257 43.4158C117.886 43.4076 117.507 43.4443 117.119 43.526C116.731 43.5994 116.369 43.7056 116.032 43.8443C115.694 43.9831 115.408 44.1423 115.172 44.3219C114.944 44.5015 114.797 44.6893 114.729 44.8852C114.721 44.9097 114.704 44.9219 114.679 44.9219C114.611 44.9219 114.577 44.8689 114.577 44.7627C114.577 44.7464 114.577 44.7301 114.577 44.7138C114.586 44.6893 114.594 44.6648 114.603 44.6403C114.679 44.428 114.771 44.2403 114.881 44.077C114.999 43.9137 115.113 43.7749 115.222 43.6607C115.501 43.3831 115.812 43.2157 116.158 43.1586C116.504 43.0933 116.871 43.0606 117.258 43.0606H118.485C118.671 43.0606 118.852 43.0606 119.029 43.0606C119.206 43.0606 119.362 43.1055 119.497 43.1953C119.632 43.277 119.72 43.4402 119.762 43.6851C119.796 43.8566 119.826 44.1178 119.851 44.4689C119.885 44.8117 119.91 45.1954 119.927 45.6199C119.952 46.0444 119.973 46.4648 119.99 46.8812C120.007 47.2975 120.02 47.6567 120.028 47.9588C120.028 47.9751 120.028 48.0241 120.028 48.1057C120.036 48.1792 120.041 48.2731 120.041 48.3874C120.041 48.4935 120.036 48.616 120.028 48.7547C120.028 48.8854 120.02 49.0119 120.003 49.1343C120.18 48.9221 120.399 48.6609 120.66 48.3506C120.93 48.0323 121.221 47.6894 121.533 47.322C121.845 46.9465 122.161 46.571 122.481 46.1955C122.802 45.8199 123.109 45.4607 123.405 45.1179C123.7 44.775 123.957 44.477 124.176 44.2239C124.404 43.9627 124.572 43.7668 124.682 43.6362C124.876 43.4239 125.12 43.277 125.415 43.1953C125.71 43.1055 126.005 43.0606 126.301 43.0606H127.085C126.908 43.1913 126.714 43.4117 126.503 43.7219C126.292 44.0321 126.086 44.3668 125.883 44.726C125.689 45.0852 125.516 45.4117 125.365 45.7056C125.146 46.1465 124.922 46.624 124.694 47.1383C124.467 47.6527 124.264 48.1629 124.087 48.669C123.91 49.1752 123.78 49.6446 123.695 50.0772C123.67 50.2079 123.657 50.3466 123.657 50.4936C123.657 50.6732 123.687 50.8324 123.746 50.9711C123.813 51.1018 123.931 51.1671 124.1 51.1671C124.235 51.1671 124.399 51.114 124.593 51.0079H124.606C124.623 51.0079 124.635 51.0242 124.644 51.0569C124.652 51.0814 124.648 51.1018 124.631 51.1181C124.471 51.2814 124.227 51.4201 123.898 51.5344C123.569 51.6487 123.257 51.7059 122.962 51.7059Z" fill="white"/>
<path d="M129.147 51.9998C128.524 51.9998 127.976 51.91 127.503 51.7304C127.031 51.5589 126.665 51.2773 126.403 50.8854C126.142 50.4936 126.011 49.9711 126.011 49.318C126.011 48.6649 126.121 48.0282 126.34 47.4077C126.568 46.7791 126.88 46.1955 127.276 45.6567C127.672 45.1179 128.136 44.6444 128.667 44.2362C129.206 43.828 129.788 43.5096 130.412 43.2811C131.036 43.0525 131.685 42.9382 132.36 42.9382C133.11 42.9382 133.721 43.0606 134.193 43.3055C134.665 43.5504 135.011 43.8852 135.23 44.3097C135.458 44.726 135.572 45.1954 135.572 45.7179C135.572 46.4118 135.399 47.1383 135.053 47.8976C134.699 48.6731 134.236 49.3711 133.662 49.9915C133.089 50.612 132.419 51.1018 131.651 51.461C130.893 51.8202 130.058 51.9998 129.147 51.9998ZM130.298 51.3508C130.796 51.2201 131.285 50.9793 131.765 50.6283C132.246 50.2772 132.68 49.8568 133.068 49.367C133.456 48.8772 133.763 48.3629 133.991 47.8241C134.345 46.9996 134.522 46.224 134.522 45.4975C134.522 45.3832 134.514 45.273 134.497 45.1668C134.488 45.0607 134.476 44.9587 134.459 44.8607C134.366 44.3627 134.151 44.0117 133.814 43.8076C133.477 43.6035 133.097 43.5015 132.676 43.5015C132.237 43.5015 131.791 43.5872 131.335 43.7586C130.88 43.9219 130.488 44.126 130.159 44.3709C129.754 44.6811 129.379 45.0362 129.034 45.4362C128.688 45.8363 128.397 46.2608 128.161 46.7098C127.959 47.1016 127.794 47.5302 127.668 47.9955C127.55 48.4527 127.491 48.8976 127.491 49.3303C127.491 49.7221 127.55 50.0813 127.668 50.4079C127.786 50.7344 127.98 50.9997 128.25 51.2038C128.519 51.3997 128.878 51.4977 129.325 51.4977C129.611 51.4977 129.936 51.4487 130.298 51.3508Z" fill="white"/>
<path d="M138.747 51.8773C138.468 51.8773 138.283 51.7834 138.19 51.5957C138.097 51.3997 138.051 51.1834 138.051 50.9467C138.051 50.7834 138.064 50.6242 138.089 50.4691C138.114 50.3058 138.14 50.1711 138.165 50.065C138.232 49.7548 138.342 49.3874 138.494 48.9629C138.645 48.5302 138.818 48.0772 139.012 47.6037C139.215 47.122 139.425 46.6485 139.645 46.1832C139.864 45.7097 140.075 45.2689 140.277 44.8607C140.488 44.4444 140.673 44.0892 140.833 43.7954C140.639 43.8035 140.416 43.8035 140.163 43.7954C139.91 43.779 139.649 43.7709 139.379 43.7709C138.915 43.7709 138.456 43.8076 138.001 43.8811C137.554 43.9464 137.187 44.1056 136.9 44.3586C136.765 44.4811 136.668 44.6117 136.609 44.7505C136.55 44.8893 136.521 45.0281 136.521 45.1668C136.521 45.3219 136.546 45.473 136.597 45.6199C136.605 45.6362 136.609 45.6567 136.609 45.6811C136.609 45.7628 136.567 45.8036 136.483 45.8036C136.432 45.8036 136.394 45.7832 136.369 45.7424C136.285 45.6118 136.222 45.4811 136.179 45.3505C136.146 45.2117 136.129 45.077 136.129 44.9464C136.129 44.7178 136.171 44.5015 136.255 44.2974C136.34 44.0933 136.441 43.926 136.559 43.7954C136.854 43.4606 137.254 43.2402 137.76 43.1341C138.266 43.0198 138.793 42.9627 139.341 42.9627C139.763 42.9627 140.171 42.979 140.568 43.0117C140.972 43.0443 141.331 43.0688 141.643 43.0851C141.938 43.1015 142.304 43.13 142.743 43.1708C143.181 43.2035 143.607 43.2198 144.02 43.2198C144.391 43.2198 144.724 43.1953 145.019 43.1464C145.314 43.0974 145.529 43.0076 145.664 42.877C145.689 42.9259 145.702 42.9831 145.702 43.0484C145.702 43.2198 145.601 43.3872 145.399 43.5504C145.196 43.7137 144.922 43.8239 144.577 43.8811C144.467 43.8974 144.341 43.9096 144.197 43.9178C144.062 43.926 143.919 43.9301 143.767 43.9301C143.514 43.9301 143.261 43.926 143.008 43.9178C142.756 43.9015 142.532 43.8852 142.338 43.8688C142.144 43.8525 142.014 43.8484 141.946 43.8566C141.896 43.9301 141.815 44.0648 141.706 44.2607C141.605 44.4566 141.495 44.6689 141.377 44.8974C141.259 45.126 141.154 45.3342 141.061 45.522C140.901 45.8485 140.732 46.2159 140.555 46.624C140.378 47.0322 140.209 47.4445 140.049 47.8608C139.889 48.2772 139.75 48.6731 139.632 49.0486C139.522 49.4241 139.451 49.7466 139.417 50.016C139.408 50.0405 139.404 50.0691 139.404 50.1017C139.404 50.1262 139.404 50.1507 139.404 50.1752C139.404 50.3303 139.434 50.465 139.493 50.5793C139.56 50.6854 139.661 50.7385 139.796 50.7385C139.914 50.7385 140.058 50.6773 140.226 50.5548C140.395 50.4324 140.589 50.2283 140.808 49.9425C140.85 49.8936 140.888 49.8691 140.922 49.8691C140.972 49.8691 140.998 49.9099 140.998 49.9915C140.998 50.0487 140.977 50.1262 140.934 50.2242C140.901 50.3221 140.838 50.4364 140.745 50.5671C140.669 50.6732 140.547 50.816 140.378 50.9956C140.209 51.1671 140.045 51.314 139.885 51.4365C139.741 51.5508 139.564 51.6528 139.354 51.7426C139.143 51.8324 138.941 51.8773 138.747 51.8773Z" fill="white"/>
<path d="M145.328 51.6079C145.43 51.1997 145.565 50.7466 145.733 50.2487C145.91 49.7425 146.108 49.216 146.328 48.669C146.555 48.1221 146.787 47.5792 147.023 47.0404C147.259 46.5016 147.487 45.9873 147.706 45.4975C147.925 44.9995 148.178 44.4974 148.465 43.9913C148.524 43.8933 148.574 43.8035 148.617 43.7219C148.667 43.6402 148.722 43.5709 148.781 43.5137C148.452 43.5219 148.098 43.5627 147.719 43.6362C147.348 43.7015 146.989 43.7954 146.644 43.9178C146.306 44.0403 146.016 44.1831 145.771 44.3464C145.535 44.5097 145.383 44.6893 145.316 44.8852C145.307 44.9097 145.291 44.9219 145.265 44.9219C145.189 44.9219 145.151 44.8648 145.151 44.7505C145.151 44.726 145.16 44.6893 145.177 44.6403C145.253 44.428 145.345 44.2403 145.455 44.077C145.573 43.9137 145.691 43.7749 145.809 43.6607C146.087 43.3831 146.399 43.2157 146.745 43.1586C147.091 43.0933 147.457 43.0606 147.845 43.0606H150.703C150.501 43.2076 150.286 43.4484 150.058 43.7831C149.831 44.1097 149.607 44.477 149.388 44.8852C149.169 45.2934 148.962 45.6934 148.768 46.0852C148.583 46.4771 148.427 46.8077 148.3 47.0771C148.241 47.2077 148.157 47.4077 148.047 47.6771C147.938 47.9384 147.816 48.2363 147.681 48.5711C147.554 48.9058 147.432 49.2527 147.314 49.6119C147.196 49.9629 147.099 50.2895 147.023 50.5915C146.947 50.8936 146.909 51.1426 146.909 51.3385C146.909 51.3957 146.913 51.4487 146.922 51.4977C146.939 51.5385 146.951 51.5753 146.96 51.6079H145.328Z" fill="white"/>
<path d="M151.404 51.6079C151.505 51.4201 151.572 51.1834 151.606 50.8977C151.648 50.612 151.673 50.3099 151.682 49.9915C151.699 49.665 151.716 49.3507 151.732 49.0486C151.749 48.7629 151.762 48.469 151.77 48.167C151.779 47.8649 151.783 47.5588 151.783 47.2486C151.783 46.8159 151.766 46.3914 151.732 45.975C151.707 45.5505 151.657 45.1628 151.581 44.8117C151.547 44.624 151.48 44.4444 151.378 44.2729C151.286 44.1015 151.168 44.0158 151.024 44.0158C150.948 44.0158 150.864 44.0484 150.771 44.1137C150.687 44.1709 150.59 44.2811 150.48 44.4444C150.472 44.4607 150.455 44.4566 150.43 44.4321C150.413 44.4076 150.409 44.3872 150.417 44.3709C150.485 44.1668 150.62 43.9464 150.822 43.7096C151.024 43.4729 151.239 43.277 151.467 43.1219C151.585 43.0402 151.69 42.9831 151.783 42.9504C151.884 42.9178 151.977 42.9014 152.061 42.9014C152.314 42.9014 152.508 43.028 152.643 43.2811C152.778 43.526 152.875 43.8035 152.934 44.1137C152.993 44.424 153.031 44.7995 153.048 45.2403C153.073 45.673 153.086 46.1261 153.086 46.5995C153.086 47.0975 153.077 47.5914 153.06 48.0812C153.043 48.5711 153.022 49.0078 152.997 49.3915C152.972 49.7752 152.951 50.0609 152.934 50.2487C153.221 49.865 153.532 49.4119 153.87 48.8894C154.207 48.367 154.548 47.82 154.894 47.2486C155.248 46.6771 155.581 46.122 155.893 45.5832C156.205 45.0362 156.479 44.5423 156.715 44.1015C156.96 43.6607 157.137 43.3137 157.246 43.0606H158.384C158.258 43.2566 158.056 43.5668 157.777 43.9913C157.499 44.4076 157.175 44.8893 156.804 45.4362C156.441 45.9832 156.058 46.5587 155.653 47.1628C155.248 47.7588 154.856 48.3425 154.477 48.9139C154.097 49.4772 153.76 49.9793 153.465 50.4201C153.305 50.6732 153.136 50.9222 152.959 51.1671C152.791 51.4038 152.58 51.5467 152.327 51.5957C152.302 51.6038 152.264 51.6079 152.213 51.6079H151.404Z" fill="white"/>
<path d="M158.892 51.6079C158.757 51.6079 158.656 51.5548 158.589 51.4487C158.53 51.3426 158.5 51.2038 158.5 51.0324C158.5 50.7956 158.538 50.5181 158.614 50.1997C158.698 49.8813 158.8 49.5507 158.918 49.2078C159.044 48.8649 159.171 48.5384 159.297 48.2282C159.423 47.9098 159.533 47.6404 159.626 47.42H158.93C158.863 47.42 158.829 47.3955 158.829 47.3465C158.829 47.2975 158.867 47.2322 158.943 47.1506C159.019 47.0608 159.107 46.9832 159.208 46.9179C159.31 46.8526 159.394 46.82 159.461 46.82H159.891C160.102 46.3383 160.3 45.8893 160.486 45.473C160.671 45.0485 160.903 44.5995 161.181 44.126C161.249 44.0117 161.312 43.9056 161.371 43.8076C161.43 43.7015 161.497 43.6076 161.573 43.526C161.118 43.5831 160.65 43.6688 160.17 43.7831C159.697 43.8974 159.276 44.0443 158.905 44.2239C158.534 44.4035 158.273 44.6158 158.121 44.8607C158.112 44.8852 158.096 44.8974 158.07 44.8974C158.053 44.8974 158.041 44.8811 158.032 44.8485C158.015 44.8158 158.011 44.7791 158.02 44.7383C158.104 44.526 158.209 44.3219 158.336 44.126C158.462 43.9301 158.585 43.7749 158.703 43.6607C158.888 43.4729 159.141 43.3382 159.461 43.2566C159.782 43.1749 160.111 43.1219 160.448 43.0974C160.793 43.0729 161.089 43.0606 161.333 43.0606H163.837C164.132 43.0606 164.393 43.0525 164.621 43.0361C164.857 43.0117 165.055 42.9994 165.215 42.9994C165.477 42.9994 165.629 43.0606 165.671 43.1831C165.679 43.2157 165.683 43.2484 165.683 43.2811C165.692 43.3055 165.696 43.3382 165.696 43.379C165.696 43.5423 165.658 43.73 165.582 43.9423C165.506 44.1464 165.422 44.3464 165.329 44.5423C165.245 44.7301 165.178 44.8852 165.127 45.0076C165.119 45.0485 165.093 45.077 165.051 45.0934C165.017 45.1097 164.984 45.1179 164.95 45.1179C164.908 45.1179 164.87 45.1097 164.836 45.0934C164.811 45.077 164.802 45.024 164.811 44.9342C164.828 44.8362 164.849 44.726 164.874 44.6036C164.899 44.4811 164.912 44.375 164.912 44.2852C164.912 44.0239 164.802 43.8239 164.583 43.6851C164.372 43.5382 164.107 43.4647 163.786 43.4647C163.55 43.4647 163.356 43.4851 163.205 43.526C163.053 43.5586 162.931 43.6443 162.838 43.7831C162.501 44.2648 162.193 44.7587 161.915 45.2648C161.645 45.7709 161.392 46.2893 161.156 46.82H164.457C164.482 46.82 164.465 46.8689 164.406 46.9669C164.356 47.0649 164.288 47.1669 164.204 47.273C164.128 47.371 164.06 47.42 164.001 47.42H160.878C160.785 47.6486 160.675 47.9261 160.549 48.2527C160.423 48.5792 160.304 48.9017 160.195 49.2201C160.094 49.5384 160.014 49.8119 159.955 50.0405C159.904 50.2364 159.879 50.4119 159.879 50.5671C159.879 50.7711 159.942 50.9262 160.068 51.0324C160.203 51.1385 160.435 51.1916 160.764 51.1916C161.219 51.1916 161.675 51.1752 162.13 51.1426C162.585 51.1018 163.032 51.0201 163.47 50.8977C163.85 50.7915 164.187 50.6487 164.482 50.4691C164.786 50.2895 165.005 50.065 165.14 49.7956C165.156 49.7629 165.182 49.7466 165.215 49.7466C165.275 49.7466 165.304 49.7915 165.304 49.8813C165.304 49.8976 165.3 49.918 165.291 49.9425C165.291 49.967 165.287 49.9956 165.279 50.0283C165.211 50.2405 165.131 50.4283 165.038 50.5915C164.946 50.7548 164.849 50.8936 164.748 51.0079C164.512 51.2854 164.208 51.4569 163.837 51.5222C163.466 51.5793 163.095 51.6079 162.724 51.6079H158.892Z" fill="white"/>
<path d="M171.97 51.9018C171.262 51.7875 170.743 51.4895 170.415 51.0079C170.094 50.5262 169.934 49.9548 169.934 49.2935C169.934 48.8119 170.014 48.3098 170.174 47.7873C170.335 47.2567 170.562 46.7383 170.857 46.2322C171.161 45.726 171.523 45.2566 171.945 44.824C172.366 44.3831 172.843 44.0076 173.374 43.6974C173.905 43.3872 174.483 43.1708 175.106 43.0484C175.486 42.9749 175.848 42.9382 176.194 42.9382C176.869 42.9382 177.408 43.0688 177.813 43.33C178.217 43.5831 178.42 43.9096 178.42 44.3097C178.42 44.3913 178.411 44.4729 178.394 44.5546C178.386 44.628 178.361 44.7097 178.319 44.7995C178.226 45.0362 178.07 45.2485 177.851 45.4362C177.64 45.6158 177.395 45.7546 177.117 45.8526C176.847 45.9505 176.569 45.9914 176.283 45.975C176.148 45.9587 176.03 45.9138 175.928 45.8403C175.836 45.7587 175.789 45.6607 175.789 45.5464C175.789 45.4322 175.84 45.3097 175.941 45.1791C176.034 45.2117 176.139 45.2281 176.257 45.2281C176.468 45.2281 176.675 45.1791 176.877 45.0811C177.079 44.9832 177.248 44.8485 177.383 44.677C177.518 44.5056 177.585 44.3137 177.585 44.1015C177.585 43.8158 177.484 43.628 177.282 43.5382C177.079 43.4402 176.852 43.3913 176.599 43.3913C176.43 43.3913 176.261 43.4076 176.093 43.4402C175.933 43.4647 175.802 43.4892 175.701 43.5137C175.22 43.6362 174.727 43.8607 174.221 44.1872C173.724 44.5056 173.269 44.8974 172.855 45.3628C172.442 45.8199 172.122 46.322 171.894 46.8689C171.726 47.269 171.595 47.6731 171.502 48.0812C171.409 48.4894 171.363 48.8772 171.363 49.2445C171.363 49.718 171.443 50.1344 171.603 50.4936C171.772 50.8528 172.038 51.1018 172.4 51.2405C172.729 51.363 173.066 51.4242 173.412 51.4242C173.968 51.4242 174.529 51.2936 175.094 51.0324C175.667 50.7711 176.194 50.4405 176.675 50.0405C176.97 49.7874 177.235 49.5262 177.471 49.2568C177.707 48.9874 177.889 48.7017 178.015 48.3996C178.175 48.4976 178.255 48.6404 178.255 48.8282C178.255 48.9752 178.209 49.1343 178.116 49.3058C178.032 49.4772 177.931 49.6364 177.813 49.7833C177.703 49.9303 177.606 50.0446 177.522 50.1262C176.932 50.7222 176.224 51.1793 175.397 51.4977C174.58 51.8161 173.749 51.9753 172.906 51.9753C172.586 51.9753 172.274 51.9508 171.97 51.9018Z" fill="white"/>
<path d="M185.143 51.7059C184.822 51.7059 184.578 51.6242 184.409 51.461C184.241 51.2977 184.127 51.0895 184.068 50.8364C184.009 50.5834 183.971 50.3221 183.954 50.0527C183.954 49.8976 183.962 49.714 183.979 49.5017C183.996 49.2894 184.017 49.0854 184.042 48.8894C184.076 48.6853 184.101 48.5343 184.118 48.4364H181.222C180.683 48.9833 180.168 49.518 179.679 50.0405C179.199 50.5548 178.727 51.0773 178.263 51.6079H176.998C177.218 51.412 177.504 51.1507 177.858 50.8242C178.221 50.4895 178.63 50.1099 179.085 49.6854C179.54 49.2609 180.013 48.8119 180.502 48.3384C180.999 47.8567 181.496 47.3751 181.994 46.8934C182.491 46.4036 182.959 45.9342 183.398 45.4852C183.844 45.0281 184.241 44.6158 184.586 44.2484C184.755 44.0688 184.911 43.8892 185.054 43.7096C185.206 43.5219 185.375 43.3668 185.56 43.2443C185.746 43.1219 185.973 43.0606 186.243 43.0606H187.153C187.01 43.1913 186.867 43.4117 186.724 43.7219C186.58 44.0321 186.45 44.3668 186.331 44.726C186.222 45.0852 186.129 45.4117 186.053 45.7056C185.944 46.1465 185.83 46.624 185.712 47.1383C185.602 47.6527 185.514 48.1629 185.446 48.669C185.379 49.1752 185.358 49.6446 185.383 50.0772C185.391 50.2323 185.421 50.3956 185.472 50.5671C185.531 50.7303 185.611 50.8732 185.712 50.9956C185.821 51.1099 185.956 51.1671 186.116 51.1671C186.26 51.1671 186.416 51.114 186.584 51.0079L186.66 51.1181C186.551 51.2814 186.34 51.4201 186.028 51.5344C185.724 51.6487 185.429 51.7059 185.143 51.7059ZM180.084 45.4975C179.949 45.3587 179.848 45.2158 179.781 45.0689C179.722 44.9219 179.692 44.7832 179.692 44.6525C179.692 44.4893 179.726 44.3342 179.793 44.1872C179.869 44.0321 179.958 43.9015 180.059 43.7954C180.261 43.5749 180.514 43.4117 180.818 43.3055C181.121 43.1994 181.442 43.1341 181.779 43.1096C182.124 43.077 182.453 43.0606 182.765 43.0606H185.598C185.421 43.2321 185.151 43.3668 184.789 43.4647C184.435 43.5545 184.047 43.6239 183.625 43.6729C183.204 43.7137 182.795 43.7545 182.398 43.7954C182.011 43.828 181.69 43.8729 181.437 43.9301C180.99 44.028 180.649 44.2158 180.413 44.4933C180.185 44.7709 180.076 45.1056 180.084 45.4975ZM181.779 47.8241H184.207C184.308 47.2853 184.426 46.7465 184.561 46.2077C184.704 45.6689 184.831 45.1954 184.94 44.7872C184.426 45.2607 183.899 45.7546 183.36 46.2689C182.828 46.7751 182.302 47.2935 181.779 47.8241Z" fill="white"/>
<path d="M187.189 51.6079C187.29 51.1997 187.425 50.7466 187.594 50.2487C187.771 49.7425 187.969 49.216 188.188 48.669C188.416 48.1221 188.648 47.5792 188.884 47.0404C189.12 46.5016 189.347 45.9873 189.566 45.4975C189.786 44.9995 190.039 44.4974 190.325 43.9913C190.384 43.8933 190.435 43.8035 190.477 43.7219C190.528 43.6402 190.582 43.5709 190.641 43.5137C190.313 43.5219 189.959 43.5627 189.579 43.6362C189.208 43.7015 188.85 43.7954 188.504 43.9178C188.167 44.0403 187.876 44.1831 187.632 44.3464C187.396 44.5097 187.244 44.6893 187.176 44.8852C187.168 44.9097 187.151 44.9219 187.126 44.9219C187.05 44.9219 187.012 44.8648 187.012 44.7505C187.012 44.726 187.02 44.6893 187.037 44.6403C187.113 44.428 187.206 44.2403 187.315 44.077C187.433 43.9137 187.551 43.7749 187.67 43.6607C187.948 43.3831 188.26 43.2157 188.605 43.1586C188.951 43.0933 189.318 43.0606 189.706 43.0606H192.779C193.133 43.0606 193.449 43.0974 193.727 43.1708C194.005 43.2362 194.237 43.33 194.423 43.4525C194.667 43.6076 194.844 43.7994 194.954 44.028C195.063 44.2484 195.118 44.4811 195.118 44.726C195.118 45.1015 195.034 45.4362 194.865 45.7301C194.697 46.024 194.473 46.2771 194.195 46.4893C193.925 46.7016 193.622 46.873 193.285 47.0036C192.947 47.1343 192.606 47.2322 192.26 47.2975L191.855 47.371C192.058 48.0323 192.315 48.6282 192.627 49.1588C192.939 49.6895 193.263 50.1548 193.601 50.5548C193.938 50.9548 194.241 51.2977 194.511 51.5834C194.385 51.6079 194.191 51.6202 193.929 51.6202C193.702 51.6202 193.483 51.6161 193.272 51.6079C193.061 51.5916 192.956 51.5834 192.956 51.5834C192.745 51.5834 192.538 51.4732 192.336 51.2528C192.134 51.0324 191.94 50.7507 191.754 50.4079C191.569 50.0568 191.4 49.6935 191.248 49.318C191.105 48.9343 190.983 48.5792 190.882 48.2527C190.789 47.9261 190.726 47.6731 190.692 47.4935C190.692 47.469 190.688 47.4445 190.679 47.42C190.679 47.3955 190.679 47.3669 190.679 47.3343C190.679 47.2853 190.688 47.2445 190.705 47.2118C190.73 47.171 190.776 47.1465 190.844 47.1383C191.265 47.0894 191.649 47.0159 191.995 46.9179C192.34 46.8118 192.656 46.6689 192.943 46.4893C193.23 46.3016 193.462 46.073 193.639 45.8036C193.816 45.526 193.904 45.1995 193.904 44.824C193.904 44.5219 193.816 44.2484 193.639 44.0035C193.47 43.7505 193.196 43.5831 192.817 43.5015C192.715 43.477 192.606 43.4606 192.488 43.4525C192.378 43.4443 192.264 43.4362 192.146 43.428C191.961 43.6729 191.767 43.9668 191.565 44.3097C191.362 44.6525 191.164 45.0158 190.97 45.3995C190.776 45.775 190.591 46.1506 190.414 46.5261C190.245 46.8934 190.093 47.2322 189.959 47.5424C189.891 47.7139 189.79 47.9629 189.655 48.2894C189.529 48.616 189.398 48.9711 189.263 49.3548C189.128 49.7384 189.01 50.1099 188.909 50.4691C188.816 50.8201 188.77 51.1099 188.77 51.3385C188.77 51.461 188.787 51.5508 188.82 51.6079H187.189Z" fill="white"/>
<path d="M200.394 51.7549C200.149 51.714 199.922 51.6569 199.711 51.5834C199.5 51.5018 199.319 51.3997 199.167 51.2773C199.057 51.1793 198.977 51.065 198.927 50.9344C198.876 50.7956 198.851 50.6487 198.851 50.4936C198.851 50.2323 198.897 49.9629 198.99 49.6854C199.083 49.3997 199.163 49.1547 199.23 48.9507C199.39 48.4935 199.58 48.0078 199.799 47.4935C200.027 46.9792 200.255 46.4812 200.482 45.9995C200.718 45.5179 200.929 45.0893 201.115 44.7138C201.3 44.3382 201.439 44.0648 201.532 43.8933C201.566 43.828 201.595 43.7668 201.62 43.7096C201.654 43.6525 201.688 43.5994 201.722 43.5504C201.637 43.5586 201.557 43.5709 201.481 43.5872C201.405 43.5953 201.334 43.6035 201.266 43.6117C200.895 43.6607 200.508 43.7423 200.103 43.8566C199.707 43.9627 199.348 44.0974 199.028 44.2607C198.708 44.424 198.476 44.624 198.332 44.8607C198.324 44.8852 198.307 44.8974 198.282 44.8974C198.265 44.8974 198.252 44.8811 198.244 44.8485C198.227 44.8158 198.223 44.7791 198.231 44.7383C198.316 44.526 198.421 44.3219 198.547 44.126C198.674 43.9301 198.796 43.7749 198.914 43.6607C199.1 43.4729 199.353 43.3382 199.673 43.2566C199.993 43.1749 200.322 43.1219 200.659 43.0974C201.005 43.0729 201.3 43.0606 201.545 43.0606H204.137C204.989 43.0606 205.672 43.2157 206.186 43.526C206.709 43.8362 207.088 44.2444 207.324 44.7505C207.56 45.2566 207.678 45.8036 207.678 46.3914C207.678 46.5302 207.674 46.6689 207.665 46.8077C207.657 46.9465 207.64 47.0853 207.615 47.2241C207.488 47.9669 207.24 48.6282 206.869 49.2078C206.506 49.7793 206.055 50.2609 205.516 50.6528C204.976 51.0446 204.369 51.3426 203.694 51.5467C203.028 51.7426 202.329 51.8406 201.595 51.8406C201.401 51.8406 201.203 51.8324 201.001 51.8161C200.798 51.8079 200.596 51.7875 200.394 51.7549ZM200.71 51.2773C200.82 51.2854 200.929 51.2977 201.039 51.314C201.148 51.3222 201.258 51.3263 201.368 51.3263C201.966 51.3263 202.531 51.2242 203.062 51.0201C203.602 50.816 204.086 50.5303 204.516 50.163C204.955 49.7956 205.326 49.3711 205.629 48.8894C205.933 48.4078 206.152 47.8853 206.287 47.322C206.38 46.9465 206.426 46.5873 206.426 46.2444C206.426 45.8771 206.367 45.526 206.249 45.1913C206.139 44.8485 205.958 44.5423 205.705 44.2729C205.478 44.028 205.174 43.8403 204.795 43.7096C204.415 43.5709 204.065 43.4892 203.745 43.4647C203.669 43.4566 203.593 43.4525 203.517 43.4525C203.442 43.4443 203.366 43.4402 203.29 43.4402C203.138 43.6362 202.982 43.8688 202.822 44.1382C202.662 44.3995 202.506 44.6689 202.354 44.9464C202.211 45.224 202.084 45.4771 201.975 45.7056C201.688 46.3016 201.418 46.8975 201.165 47.4935C200.912 48.0894 200.685 48.6976 200.482 49.318C200.423 49.4976 200.364 49.7017 200.305 49.9303C200.246 50.1589 200.217 50.3711 200.217 50.5671C200.217 50.7466 200.25 50.9058 200.318 51.0446C200.394 51.1752 200.524 51.2528 200.71 51.2773Z" fill="white"/>
<path d="M208.589 51.6079C208.454 51.6079 208.353 51.5548 208.285 51.4487C208.226 51.3426 208.197 51.2038 208.197 51.0324C208.197 50.7956 208.235 50.5181 208.31 50.1997C208.395 49.8813 208.496 49.5507 208.614 49.2078C208.74 48.8649 208.867 48.5384 208.993 48.2282C209.12 47.9098 209.229 47.6404 209.322 47.42H208.627C208.559 47.42 208.525 47.3955 208.525 47.3465C208.525 47.2975 208.563 47.2322 208.639 47.1506C208.715 47.0608 208.804 46.9832 208.905 46.9179C209.006 46.8526 209.09 46.82 209.158 46.82H209.588C209.798 46.3383 209.997 45.8893 210.182 45.473C210.368 45.0485 210.599 44.5995 210.878 44.126C210.945 44.0117 211.008 43.9056 211.067 43.8076C211.126 43.7015 211.194 43.6076 211.27 43.526C210.814 43.5831 210.346 43.6688 209.866 43.7831C209.394 43.8974 208.972 44.0443 208.601 44.2239C208.23 44.4035 207.969 44.6158 207.817 44.8607C207.809 44.8852 207.792 44.8974 207.767 44.8974C207.75 44.8974 207.737 44.8811 207.729 44.8485C207.712 44.8158 207.708 44.7791 207.716 44.7383C207.8 44.526 207.906 44.3219 208.032 44.126C208.159 43.9301 208.281 43.7749 208.399 43.6607C208.584 43.4729 208.837 43.3382 209.158 43.2566C209.478 43.1749 209.807 43.1219 210.144 43.0974C210.49 43.0729 210.785 43.0606 211.029 43.0606H213.533C213.828 43.0606 214.09 43.0525 214.317 43.0361C214.553 43.0117 214.752 42.9994 214.912 42.9994C215.173 42.9994 215.325 43.0606 215.367 43.1831C215.375 43.2157 215.38 43.2484 215.38 43.2811C215.388 43.3055 215.392 43.3382 215.392 43.379C215.392 43.5423 215.354 43.73 215.279 43.9423C215.203 44.1464 215.118 44.3464 215.026 44.5423C214.941 44.7301 214.874 44.8852 214.823 45.0076C214.815 45.0485 214.79 45.077 214.747 45.0934C214.714 45.1097 214.68 45.1179 214.646 45.1179C214.604 45.1179 214.566 45.1097 214.532 45.0934C214.507 45.077 214.499 45.024 214.507 44.9342C214.524 44.8362 214.545 44.726 214.57 44.6036C214.596 44.4811 214.608 44.375 214.608 44.2852C214.608 44.0239 214.499 43.8239 214.279 43.6851C214.069 43.5382 213.803 43.4647 213.483 43.4647C213.247 43.4647 213.053 43.4851 212.901 43.526C212.749 43.5586 212.627 43.6443 212.534 43.7831C212.197 44.2648 211.889 44.7587 211.611 45.2648C211.341 45.7709 211.088 46.2893 210.852 46.82H214.153C214.178 46.82 214.161 46.8689 214.102 46.9669C214.052 47.0649 213.984 47.1669 213.9 47.273C213.824 47.371 213.757 47.42 213.698 47.42H210.574C210.481 47.6486 210.372 47.9261 210.245 48.2527C210.119 48.5792 210.001 48.9017 209.891 49.2201C209.79 49.5384 209.71 49.8119 209.651 50.0405C209.6 50.2364 209.575 50.4119 209.575 50.5671C209.575 50.7711 209.638 50.9262 209.765 51.0324C209.9 51.1385 210.131 51.1916 210.46 51.1916C210.916 51.1916 211.371 51.1752 211.826 51.1426C212.281 51.1018 212.728 51.0201 213.167 50.8977C213.546 50.7915 213.883 50.6487 214.178 50.4691C214.482 50.2895 214.701 50.065 214.836 49.7956C214.853 49.7629 214.878 49.7466 214.912 49.7466C214.971 49.7466 215 49.7915 215 49.8813C215 49.8976 214.996 49.918 214.988 49.9425C214.988 49.967 214.983 49.9956 214.975 50.0283C214.908 50.2405 214.827 50.4283 214.735 50.5915C214.642 50.7548 214.545 50.8936 214.444 51.0079C214.208 51.2854 213.904 51.4569 213.533 51.5222C213.162 51.5793 212.791 51.6079 212.42 51.6079H208.589Z" fill="white"/>
<path d="M222.452 51.7059C222.132 51.7059 221.887 51.6242 221.719 51.461C221.55 51.2977 221.436 51.0895 221.377 50.8364C221.318 50.5834 221.28 50.3221 221.263 50.0527C221.263 49.8976 221.272 49.714 221.289 49.5017C221.305 49.2894 221.326 49.0854 221.352 48.8894C221.385 48.6853 221.411 48.5343 221.428 48.4364H218.532C217.992 48.9833 217.478 49.518 216.989 50.0405C216.508 50.5548 216.036 51.0773 215.572 51.6079H214.308C214.527 51.412 214.814 51.1507 215.168 50.8242C215.53 50.4895 215.939 50.1099 216.394 49.6854C216.85 49.2609 217.322 48.8119 217.811 48.3384C218.308 47.8567 218.806 47.3751 219.303 46.8934C219.8 46.4036 220.268 45.9342 220.707 45.4852C221.154 45.0281 221.55 44.6158 221.896 44.2484C222.064 44.0688 222.22 43.8892 222.363 43.7096C222.515 43.5219 222.684 43.3668 222.869 43.2443C223.055 43.1219 223.282 43.0606 223.552 43.0606H224.463C224.319 43.1913 224.176 43.4117 224.033 43.7219C223.889 44.0321 223.759 44.3668 223.641 44.726C223.531 45.0852 223.438 45.4117 223.363 45.7056C223.253 46.1465 223.139 46.624 223.021 47.1383C222.911 47.6527 222.823 48.1629 222.756 48.669C222.688 49.1752 222.667 49.6446 222.692 50.0772C222.701 50.2323 222.73 50.3956 222.781 50.5671C222.84 50.7303 222.92 50.8732 223.021 50.9956C223.131 51.1099 223.266 51.1671 223.426 51.1671C223.569 51.1671 223.725 51.114 223.894 51.0079L223.97 51.1181C223.86 51.2814 223.649 51.4201 223.337 51.5344C223.034 51.6487 222.739 51.7059 222.452 51.7059ZM217.393 45.4975C217.259 45.3587 217.157 45.2158 217.09 45.0689C217.031 44.9219 217.001 44.7832 217.001 44.6525C217.001 44.4893 217.035 44.3342 217.103 44.1872C217.178 44.0321 217.267 43.9015 217.368 43.7954C217.57 43.5749 217.823 43.4117 218.127 43.3055C218.43 43.1994 218.751 43.1341 219.088 43.1096C219.434 43.077 219.763 43.0606 220.074 43.0606H222.907C222.73 43.2321 222.46 43.3668 222.098 43.4647C221.744 43.5545 221.356 43.6239 220.934 43.6729C220.513 43.7137 220.104 43.7545 219.708 43.7954C219.32 43.828 219 43.8729 218.747 43.9301C218.3 44.028 217.958 44.2158 217.722 44.4933C217.495 44.7709 217.385 45.1056 217.393 45.4975ZM219.088 47.8241H221.516C221.617 47.2853 221.735 46.7465 221.87 46.2077C222.014 45.6689 222.14 45.1954 222.25 44.7872C221.735 45.2607 221.208 45.7546 220.669 46.2689C220.138 46.7751 219.611 47.2935 219.088 47.8241Z" fill="white"/>
<path d="M225.4 51.6079C225.223 51.6079 225.092 51.5467 225.008 51.4242C224.932 51.3018 224.894 51.1344 224.894 50.9222C224.894 50.7997 224.906 50.665 224.932 50.5181C224.957 50.3711 224.986 50.216 225.02 50.0527C225.121 49.6201 225.277 49.1425 225.488 48.62C225.707 48.0894 225.956 47.5465 226.234 46.9914C226.521 46.4281 226.808 45.8812 227.094 45.3505C227.389 44.8199 227.663 44.3342 227.916 43.8933C227.933 43.8607 227.967 43.7994 228.017 43.7096C228.076 43.6198 228.123 43.5545 228.156 43.5137C227.828 43.5219 227.474 43.5627 227.094 43.6362C226.723 43.7015 226.365 43.7954 226.019 43.9178C225.682 44.0403 225.391 44.1831 225.147 44.3464C224.911 44.5097 224.759 44.6893 224.691 44.8852C224.683 44.9097 224.666 44.9219 224.641 44.9219C224.565 44.9219 224.527 44.8648 224.527 44.7505C224.527 44.726 224.535 44.6893 224.552 44.6403C224.637 44.428 224.734 44.2403 224.843 44.077C224.953 43.9137 225.067 43.7749 225.185 43.6607C225.463 43.3831 225.775 43.2157 226.12 43.1586C226.466 43.0933 226.833 43.0606 227.221 43.0606H230.091C229.906 43.1994 229.687 43.4525 229.434 43.8198C229.181 44.179 228.919 44.5872 228.65 45.0444C228.532 45.2485 228.384 45.5138 228.207 45.8403C228.03 46.1669 227.845 46.5302 227.651 46.9302C227.457 47.322 227.271 47.718 227.094 48.118C226.917 48.518 226.765 48.8976 226.639 49.2568C226.512 49.6078 226.432 49.9099 226.399 50.163C226.39 50.2038 226.386 50.2446 226.386 50.2854C226.386 50.3181 226.386 50.3548 226.386 50.3956C226.386 50.6242 226.449 50.816 226.576 50.9711C226.702 51.1181 226.938 51.1916 227.284 51.1916C227.731 51.1916 228.182 51.1752 228.637 51.1426C229.101 51.1018 229.552 51.0201 229.99 50.8977C230.361 50.7915 230.698 50.6487 231.002 50.4691C231.305 50.2895 231.525 50.065 231.66 49.7956C231.676 49.7629 231.697 49.7466 231.723 49.7466C231.782 49.7466 231.811 49.7915 231.811 49.8813C231.811 49.8976 231.807 49.918 231.799 49.9425C231.799 49.967 231.794 49.9956 231.786 50.0283C231.719 50.2405 231.638 50.4283 231.546 50.5915C231.453 50.7548 231.36 50.8936 231.268 51.0079C231.031 51.2854 230.724 51.4569 230.344 51.5222C229.973 51.5793 229.602 51.6079 229.231 51.6079H225.4Z" fill="white"/>
<path d="M232.115 51.6079C231.98 51.6079 231.879 51.5548 231.812 51.4487C231.753 51.3426 231.723 51.2038 231.723 51.0324C231.723 50.7956 231.761 50.5181 231.837 50.1997C231.921 49.8813 232.023 49.5507 232.141 49.2078C232.267 48.8649 232.394 48.5384 232.52 48.2282C232.646 47.9098 232.756 47.6404 232.849 47.42H232.153C232.086 47.42 232.052 47.3955 232.052 47.3465C232.052 47.2975 232.09 47.2322 232.166 47.1506C232.242 47.0608 232.33 46.9832 232.431 46.9179C232.533 46.8526 232.617 46.82 232.684 46.82H233.114C233.325 46.3383 233.523 45.8893 233.709 45.473C233.894 45.0485 234.126 44.5995 234.404 44.126C234.472 44.0117 234.535 43.9056 234.594 43.8076C234.653 43.7015 234.72 43.6076 234.796 43.526C234.341 43.5831 233.873 43.6688 233.393 43.7831C232.92 43.8974 232.499 44.0443 232.128 44.2239C231.757 44.4035 231.496 44.6158 231.344 44.8607C231.335 44.8852 231.319 44.8974 231.293 44.8974C231.276 44.8974 231.264 44.8811 231.255 44.8485C231.238 44.8158 231.234 44.7791 231.243 44.7383C231.327 44.526 231.432 44.3219 231.559 44.126C231.685 43.9301 231.808 43.7749 231.926 43.6607C232.111 43.4729 232.364 43.3382 232.684 43.2566C233.005 43.1749 233.334 43.1219 233.671 43.0974C234.016 43.0729 234.312 43.0606 234.556 43.0606H237.06C237.355 43.0606 237.616 43.0525 237.844 43.0361C238.08 43.0117 238.278 42.9994 238.438 42.9994C238.7 42.9994 238.852 43.0606 238.894 43.1831C238.902 43.2157 238.906 43.2484 238.906 43.2811C238.915 43.3055 238.919 43.3382 238.919 43.379C238.919 43.5423 238.881 43.73 238.805 43.9423C238.729 44.1464 238.645 44.3464 238.552 44.5423C238.468 44.7301 238.401 44.8852 238.35 45.0076C238.342 45.0485 238.316 45.077 238.274 45.0934C238.24 45.1097 238.207 45.1179 238.173 45.1179C238.131 45.1179 238.093 45.1097 238.059 45.0934C238.034 45.077 238.025 45.024 238.034 44.9342C238.051 44.8362 238.072 44.726 238.097 44.6036C238.122 44.4811 238.135 44.375 238.135 44.2852C238.135 44.0239 238.025 43.8239 237.806 43.6851C237.595 43.5382 237.33 43.4647 237.009 43.4647C236.773 43.4647 236.579 43.4851 236.428 43.526C236.276 43.5586 236.154 43.6443 236.061 43.7831C235.724 44.2648 235.416 44.7587 235.138 45.2648C234.868 45.7709 234.615 46.2893 234.379 46.82H237.68C237.705 46.82 237.688 46.8689 237.629 46.9669C237.579 47.0649 237.511 47.1669 237.427 47.273C237.351 47.371 237.283 47.42 237.224 47.42H234.101C234.008 47.6486 233.898 47.9261 233.772 48.2527C233.646 48.5792 233.527 48.9017 233.418 49.2201C233.317 49.5384 233.237 49.8119 233.178 50.0405C233.127 50.2364 233.102 50.4119 233.102 50.5671C233.102 50.7711 233.165 50.9262 233.291 51.0324C233.426 51.1385 233.658 51.1916 233.987 51.1916C234.442 51.1916 234.897 51.1752 235.353 51.1426C235.808 51.1018 236.255 51.0201 236.693 50.8977C237.073 50.7915 237.41 50.6487 237.705 50.4691C238.009 50.2895 238.228 50.065 238.363 49.7956C238.379 49.7629 238.405 49.7466 238.438 49.7466C238.498 49.7466 238.527 49.7915 238.527 49.8813C238.527 49.8976 238.523 49.918 238.514 49.9425C238.514 49.967 238.51 49.9956 238.502 50.0283C238.434 50.2405 238.354 50.4283 238.261 50.5915C238.169 50.7548 238.072 50.8936 237.971 51.0079C237.735 51.2854 237.431 51.4569 237.06 51.5222C236.689 51.5793 236.318 51.6079 235.947 51.6079H232.115Z" fill="white"/>
<path d="M239.676 51.6079C239.778 51.1997 239.912 50.7466 240.081 50.2487C240.258 49.7425 240.456 49.216 240.675 48.669C240.903 48.1221 241.135 47.5792 241.371 47.0404C241.607 46.5016 241.835 45.9873 242.054 45.4975C242.273 44.9995 242.526 44.4974 242.813 43.9913C242.872 43.8933 242.922 43.8035 242.964 43.7219C243.015 43.6402 243.07 43.5709 243.129 43.5137C242.8 43.5219 242.446 43.5627 242.067 43.6362C241.696 43.7015 241.337 43.7954 240.992 43.9178C240.654 44.0403 240.363 44.1831 240.119 44.3464C239.883 44.5097 239.731 44.6893 239.664 44.8852C239.655 44.9097 239.638 44.9219 239.613 44.9219C239.537 44.9219 239.499 44.8648 239.499 44.7505C239.499 44.726 239.508 44.6893 239.525 44.6403C239.6 44.428 239.693 44.2403 239.803 44.077C239.921 43.9137 240.039 43.7749 240.157 43.6607C240.435 43.3831 240.747 43.2157 241.093 43.1586C241.438 43.0933 241.805 43.0606 242.193 43.0606H245.266C245.62 43.0606 245.936 43.0974 246.215 43.1708C246.493 43.2362 246.725 43.33 246.91 43.4525C247.155 43.6076 247.332 43.7994 247.441 44.028C247.551 44.2484 247.606 44.4811 247.606 44.726C247.606 45.1015 247.521 45.4362 247.353 45.7301C247.184 46.024 246.961 46.2771 246.682 46.4893C246.413 46.7016 246.109 46.873 245.772 47.0036C245.435 47.1343 245.093 47.2322 244.748 47.2975L244.343 47.371C244.545 48.0323 244.802 48.6282 245.114 49.1588C245.426 49.6895 245.751 50.1548 246.088 50.5548C246.425 50.9548 246.729 51.2977 246.999 51.5834C246.872 51.6079 246.678 51.6202 246.417 51.6202C246.189 51.6202 245.97 51.6161 245.759 51.6079C245.548 51.5916 245.443 51.5834 245.443 51.5834C245.232 51.5834 245.026 51.4732 244.823 51.2528C244.621 51.0324 244.427 50.7507 244.242 50.4079C244.056 50.0568 243.888 49.6935 243.736 49.318C243.593 48.9343 243.47 48.5792 243.369 48.2527C243.276 47.9261 243.213 47.6731 243.179 47.4935C243.179 47.469 243.175 47.4445 243.167 47.42C243.167 47.3955 243.167 47.3669 243.167 47.3343C243.167 47.2853 243.175 47.2445 243.192 47.2118C243.217 47.171 243.264 47.1465 243.331 47.1383C243.753 47.0894 244.136 47.0159 244.482 46.9179C244.828 46.8118 245.144 46.6689 245.43 46.4893C245.717 46.3016 245.949 46.073 246.126 45.8036C246.303 45.526 246.392 45.1995 246.392 44.824C246.392 44.5219 246.303 44.2484 246.126 44.0035C245.957 43.7505 245.683 43.5831 245.304 43.5015C245.203 43.477 245.093 43.4606 244.975 43.4525C244.866 43.4443 244.752 43.4362 244.634 43.428C244.448 43.6729 244.254 43.9668 244.052 44.3097C243.85 44.6525 243.652 45.0158 243.458 45.3995C243.264 45.775 243.078 46.1506 242.901 46.5261C242.733 46.8934 242.581 47.2322 242.446 47.5424C242.378 47.7139 242.277 47.9629 242.142 48.2894C242.016 48.616 241.885 48.9711 241.75 49.3548C241.615 49.7384 241.497 50.1099 241.396 50.4691C241.304 50.8201 241.257 51.1099 241.257 51.3385C241.257 51.461 241.274 51.5508 241.308 51.6079H239.676Z" fill="white"/>
<path d="M249.204 51.7059C249.17 51.6895 249.102 51.661 249.001 51.6202C248.908 51.5793 248.82 51.5304 248.736 51.4732C248.634 51.3997 248.584 51.3099 248.584 51.2038C248.584 51.0895 248.639 50.9793 248.748 50.8732C248.833 50.7834 248.938 50.7099 249.064 50.6528C249.191 50.5956 249.33 50.5671 249.482 50.5671C249.625 50.5671 249.747 50.5915 249.848 50.6405C249.95 50.6813 250 50.7589 250 50.8732C250 50.8977 249.992 50.9426 249.975 51.0079C249.907 51.016 249.819 51.065 249.709 51.1548C249.6 51.2446 249.494 51.3426 249.393 51.4487C249.3 51.5548 249.237 51.6406 249.204 51.7059Z" fill="white"/>
<path d="M61.2393 21.2015L57.4415 18.2139L57.396 18.1751L60.9316 17.4794C61.161 17.4345 61.3674 17.3127 61.5156 17.1348C61.6638 16.957 61.7447 16.7341 61.7444 16.5041V13.5185C61.7444 13.2545 61.6378 13.0014 61.4479 12.8147C61.2581 12.6281 61.0007 12.5232 60.7322 12.5232H55.6712C55.4027 12.5232 55.1453 12.6281 54.9555 12.8147C54.7656 13.0014 54.659 13.2545 54.659 13.5185V15.2621L54.5891 15.1695C54.5249 15.0005 54.4137 14.8526 54.2683 14.7426C53.6984 13.9494 53.2105 13.1552 52.8927 12.4685L51.1821 8.76929C50.0919 6.40964 47.1727 4.56152 44.537 4.56152H20.2441C17.6083 4.56152 14.6891 6.40964 13.599 8.76929L11.8893 12.4675C11.5715 13.1542 11.0836 13.9494 10.5138 14.7426C10.3686 14.8529 10.2575 15.0007 10.1929 15.1695L10.123 15.2621V13.5185C10.123 13.2545 10.0164 13.0014 9.82658 12.8147C9.63675 12.6281 9.3793 12.5232 9.11084 12.5232H4.04881C3.78036 12.5232 3.5229 12.6281 3.33308 12.8147C3.14325 13.0014 3.03661 13.2545 3.03661 13.5185V16.5041C3.03661 16.9788 3.37671 17.3869 3.85042 17.4794L7.38605 18.1751L7.3405 18.2139L3.5417 21.2015C1.55576 22.764 0 25.9467 0 28.4467V45.3654C0 47.0114 1.36243 48.351 3.03661 48.351H11.1342C12.8084 48.351 14.1708 47.0114 14.1708 45.3654V43.3749H50.6102V45.3654C50.6102 47.0114 51.9726 48.351 53.6468 48.351H61.7444C63.4186 48.351 64.781 47.0114 64.781 45.3654V28.4467C64.781 25.9467 63.2253 22.764 61.2393 21.2015ZM52.0414 41.3845L49.7204 39.1025C48.7356 38.1341 46.9419 37.4036 45.5492 37.4036H18.7258C17.333 37.4036 15.5393 38.1341 14.5545 39.1025L12.2335 41.3845H5.06102C3.38683 41.3845 2.02441 40.0449 2.02441 38.3988V33.4228H3.03661V34.418C3.03661 36.6134 4.8525 38.3988 7.08542 38.3988H10.122C10.3905 38.3988 10.6479 38.294 10.8378 38.1074C11.0276 37.9207 11.1342 37.6676 11.1342 37.4036C11.1342 37.1397 11.0276 36.8865 10.8378 36.6999C10.6479 36.5133 10.3905 36.4084 10.122 36.4084H7.08542C5.96896 36.4084 5.06102 35.5157 5.06102 34.418V33.4228H7.08542C7.92555 33.4228 9.2313 33.9542 9.82546 34.5384C9.91924 34.6311 10.0307 34.7047 10.1536 34.755C10.2764 34.8052 10.4081 34.831 10.5411 34.831C10.6741 34.831 10.8058 34.8052 10.9286 34.755C11.0514 34.7047 11.1629 34.6311 11.2567 34.5384C11.3508 34.4461 11.4254 34.3364 11.4764 34.2156C11.5273 34.0949 11.5535 33.9655 11.5535 33.8348C11.5535 33.7041 11.5273 33.5747 11.4764 33.4539C11.4254 33.3332 11.3508 33.2235 11.2567 33.1312C10.2718 32.1628 8.47923 31.4323 7.08542 31.4323H2.02441V28.4467C2.02441 28.0954 2.08109 27.7162 2.16105 27.3291C2.80886 27.9939 3.75123 28.4467 5.06102 28.4467H13.1586C13.4271 28.4466 13.6845 28.3417 13.8743 28.1551L15.1831 26.8683L16.4918 28.1551C16.5857 28.2476 16.6972 28.3211 16.8201 28.3711C16.9429 28.4211 17.0745 28.4468 17.2075 28.4467H28.9348L31.6749 31.1407C31.7687 31.2335 31.8802 31.3071 32.003 31.3573C32.1258 31.4075 32.2575 31.4334 32.3905 31.4334C32.5235 31.4334 32.6552 31.4075 32.778 31.3573C32.9009 31.3071 33.0124 31.2335 33.1061 31.1407L35.8462 28.4467H47.5736C47.8418 28.4467 48.0999 28.3422 48.2892 28.1551L49.598 26.8683L50.9067 28.1551C51.0006 28.2476 51.1122 28.3211 51.235 28.3711C51.3578 28.4211 51.4894 28.4468 51.6224 28.4467H59.72C61.0298 28.4467 61.9722 27.9939 62.62 27.3291C62.6999 27.7162 62.7566 28.0954 62.7566 28.4467V31.4323H57.6956C56.3028 31.4323 54.5092 32.1628 53.5243 33.1312C53.4303 33.2236 53.3558 33.3333 53.3049 33.454C53.2541 33.5747 53.2279 33.7041 53.2279 33.8348C53.2279 33.9655 53.2541 34.0949 53.3049 34.2156C53.3558 34.3363 53.4303 34.446 53.5243 34.5384C53.6183 34.6308 53.7299 34.7041 53.8526 34.7541C53.9754 34.8041 54.107 34.8299 54.2399 34.8299C54.3728 34.8299 54.5044 34.8041 54.6272 34.7541C54.75 34.7041 54.8616 34.6308 54.9556 34.5384C55.5497 33.9542 56.8555 33.4228 57.6956 33.4228H59.72V34.418C59.72 35.5157 58.8121 36.4084 57.6956 36.4084H54.659C54.3905 36.4084 54.1331 36.5133 53.9432 36.6999C53.7534 36.8865 53.6468 37.1397 53.6468 37.4036C53.6468 37.6676 53.7534 37.9207 53.9432 38.1074C54.1331 38.294 54.3905 38.3988 54.659 38.3988H57.6956C59.9285 38.3988 61.7444 36.6134 61.7444 34.418V33.4228H62.7566V38.3988C62.7566 40.0449 61.3942 41.3845 59.72 41.3845H52.0414ZM49.1789 41.3845H15.096L15.9857 40.5097C16.5799 39.9255 17.8856 39.3941 18.7258 39.3941H45.5492C46.3893 39.3941 47.695 39.9255 48.2892 40.5097L49.1789 41.3845ZM11.7011 16.5041H53.0799C54.0608 17.779 55.1813 18.9852 56.1763 19.7684L57.394 20.7258L50.2346 23.5413L50.2326 23.5423C50.1065 23.5923 49.9918 23.6667 49.8956 23.7612L48.8834 24.7564L47.1545 26.4563H35.4271C35.2942 26.4561 35.1625 26.4818 35.0397 26.5319C34.9169 26.5819 34.8054 26.6553 34.7115 26.7479L32.3905 29.0299L30.0695 26.7479C29.9757 26.6553 29.8641 26.5819 29.7413 26.5319C29.6185 26.4818 29.4868 26.4561 29.3539 26.4563H17.6265L15.8987 24.7574L14.8865 23.7622C14.7902 23.6677 14.6756 23.5933 14.5494 23.5433L14.5474 23.5423L7.38807 20.7268L8.60575 19.7694C9.59974 18.9852 10.7202 17.779 11.7011 16.5041ZM61.6847 24.8828C61.4812 25.9228 60.8253 26.4563 59.72 26.4563H52.0414L51.0292 25.461L51.179 25.3138L59.2109 22.1549L59.9741 22.756C60.6158 23.2606 61.2079 24.0279 61.6847 24.8828ZM56.6834 14.5137H59.72V15.688L56.6834 16.2852V14.5137ZM13.7305 13.2916L15.4402 9.59333C16.2034 7.94426 18.4029 6.55195 20.2441 6.55195H44.537C46.3782 6.55195 48.5777 7.94426 49.3399 9.59234L51.0505 13.2916C51.2286 13.6757 51.4604 14.0907 51.7145 14.5137H13.0665C13.3206 14.0907 13.5534 13.6757 13.7305 13.2916ZM5.06102 14.5137H8.09763V16.2852L5.06102 15.688V14.5137ZM4.80594 22.756L5.56914 22.1549L13.602 25.3138L13.7518 25.461L12.7396 26.4563H5.06102C3.95569 26.4563 3.29978 25.9228 3.09633 24.8828C3.57308 24.0279 4.16421 23.2606 4.80594 22.756ZM11.1342 46.3606H3.03661C2.47889 46.3606 2.02441 45.9137 2.02441 45.3654V42.3548C2.89564 43.0127 3.96249 43.3711 5.06102 43.3749H12.1464V45.3654C12.1464 45.9137 11.692 46.3606 11.1342 46.3606ZM61.7444 46.3606H53.6468C53.0891 46.3606 52.6346 45.9137 52.6346 45.3654V43.3749H59.72C60.8638 43.3749 61.9084 42.9858 62.7566 42.3548V45.3654C62.7566 45.9137 62.3021 46.3606 61.7444 46.3606Z" fill="white"/>
</svg>
