<svg width="218" height="47" viewBox="0 0 218 47" fill="none" xmlns="http://www.w3.org/2000/svg">
<path d="M69.08 29V4.5H79.335C81.1317 4.5 82.7767 4.80333 84.27 5.41C85.7633 5.99333 87.0467 6.83333 88.12 7.93C89.2167 9.02667 90.0567 10.3217 90.64 11.815C91.2233 13.3083 91.515 14.9533 91.515 16.75C91.515 18.5467 91.2233 20.2033 90.64 21.72C90.0567 23.2133 89.2167 24.5083 88.12 25.605C87.0467 26.6783 85.7633 27.5183 84.27 28.125C82.7767 28.7083 81.1317 29 79.335 29H69.08ZM75.03 24.94L74.225 23.75H79.16C80.14 23.75 81.015 23.5867 81.785 23.26C82.555 22.91 83.2083 22.4317 83.745 21.825C84.305 21.2183 84.7367 20.4833 85.04 19.62C85.3433 18.7567 85.495 17.8 85.495 16.75C85.495 15.7 85.3433 14.7433 85.04 13.88C84.7367 13.0167 84.305 12.2817 83.745 11.675C83.2083 11.0683 82.555 10.6017 81.785 10.275C81.015 9.925 80.14 9.75 79.16 9.75H74.12L75.03 8.63V24.94ZM95.5211 29V10.415H100.841L101.086 16.47L100.036 15.315C100.316 14.3117 100.771 13.4133 101.401 12.62C102.054 11.8267 102.813 11.1967 103.676 10.73C104.539 10.2633 105.461 10.03 106.441 10.03C106.861 10.03 107.246 10.065 107.596 10.135C107.969 10.205 108.308 10.2867 108.611 10.38L107.071 16.575C106.814 16.4117 106.464 16.2833 106.021 16.19C105.601 16.0733 105.158 16.015 104.691 16.015C104.178 16.015 103.699 16.1083 103.256 16.295C102.813 16.4583 102.439 16.7033 102.136 17.03C101.833 17.3567 101.588 17.7417 101.401 18.185C101.238 18.6283 101.156 19.13 101.156 19.69V29H95.5211ZM111.764 29V10.415H117.364V29H111.764ZM114.564 6.74C113.514 6.74 112.686 6.495 112.079 6.005C111.496 5.49167 111.204 4.76833 111.204 3.835C111.204 2.995 111.507 2.30666 112.114 1.77C112.721 1.23333 113.537 0.964998 114.564 0.964998C115.614 0.964998 116.431 1.22166 117.014 1.735C117.597 2.225 117.889 2.925 117.889 3.835C117.889 4.69833 117.586 5.39833 116.979 5.935C116.396 6.47167 115.591 6.74 114.564 6.74ZM128.331 29L120.561 10.415H126.756L131.376 24.31L130.011 24.45L134.771 10.415H140.896L132.741 29H128.331ZM151.459 29.35C149.663 29.35 148.053 28.93 146.629 28.09C145.206 27.25 144.074 26.1067 143.234 24.66C142.418 23.19 142.009 21.5333 142.009 19.69C142.009 17.8467 142.418 16.2017 143.234 14.755C144.074 13.285 145.206 12.13 146.629 11.29C148.053 10.45 149.663 10.03 151.459 10.03C153.116 10.03 154.633 10.3217 156.009 10.905C157.409 11.4883 158.518 12.305 159.334 13.355L156.289 16.995C155.963 16.6217 155.578 16.2717 155.134 15.945C154.691 15.6183 154.201 15.3617 153.664 15.175C153.128 14.9883 152.568 14.895 151.984 14.895C151.098 14.895 150.316 15.105 149.639 15.525C148.963 15.9217 148.438 16.4817 148.064 17.205C147.691 17.9283 147.504 18.7567 147.504 19.69C147.504 20.5767 147.691 21.3817 148.064 22.105C148.461 22.8283 148.998 23.4 149.674 23.82C150.351 24.24 151.121 24.45 151.984 24.45C152.591 24.45 153.151 24.38 153.664 24.24C154.178 24.0767 154.644 23.8433 155.064 23.54C155.508 23.2367 155.916 22.8633 156.289 22.42L159.299 26.095C158.506 27.0983 157.398 27.8917 155.974 28.475C154.574 29.0583 153.069 29.35 151.459 29.35ZM171.127 29.35C169.19 29.35 167.463 28.93 165.947 28.09C164.453 27.25 163.263 26.1067 162.377 24.66C161.513 23.2133 161.082 21.5567 161.082 19.69C161.082 17.8233 161.513 16.1667 162.377 14.72C163.263 13.2733 164.453 12.13 165.947 11.29C167.463 10.45 169.19 10.03 171.127 10.03C173.063 10.03 174.778 10.45 176.272 11.29C177.788 12.13 178.978 13.2733 179.842 14.72C180.705 16.1667 181.137 17.8233 181.137 19.69C181.137 21.5567 180.705 23.2133 179.842 24.66C178.978 26.1067 177.788 27.25 176.272 28.09C174.778 28.93 173.063 29.35 171.127 29.35ZM171.127 24.52C171.967 24.52 172.713 24.31 173.367 23.89C174.02 23.47 174.533 22.8983 174.907 22.175C175.28 21.4517 175.455 20.6233 175.432 19.69C175.455 18.7567 175.28 17.9283 174.907 17.205C174.533 16.4583 174.02 15.875 173.367 15.455C172.713 15.035 171.967 14.825 171.127 14.825C170.287 14.825 169.528 15.035 168.852 15.455C168.198 15.875 167.685 16.4583 167.312 17.205C166.938 17.9283 166.763 18.7567 166.787 19.69C166.763 20.6233 166.938 21.4517 167.312 22.175C167.685 22.8983 168.198 23.47 168.852 23.89C169.528 24.31 170.287 24.52 171.127 24.52Z" fill="#13141A"/>
<path d="M73.216 46.088C72.9373 46.088 72.7247 46.0147 72.578 45.868C72.4313 45.7213 72.3323 45.5343 72.281 45.307C72.2297 45.0797 72.1967 44.845 72.182 44.603C72.182 44.4637 72.1893 44.2987 72.204 44.108C72.2187 43.9173 72.237 43.734 72.259 43.558C72.2883 43.3747 72.3103 43.239 72.325 43.151H69.806C69.3367 43.6423 68.8893 44.1227 68.464 44.592C68.046 45.054 67.6353 45.5233 67.232 46H66.132C66.3227 45.824 66.572 45.5893 66.88 45.296C67.1953 44.9953 67.551 44.6543 67.947 44.273C68.343 43.8917 68.7537 43.4883 69.179 43.063C69.6117 42.6303 70.0443 42.1977 70.477 41.765C70.9097 41.325 71.3167 40.9033 71.698 40.5C72.0867 40.0893 72.4313 39.719 72.732 39.389C72.8787 39.2277 73.0143 39.0663 73.139 38.905C73.271 38.7363 73.4177 38.597 73.579 38.487C73.7403 38.377 73.9383 38.322 74.173 38.322H74.965C74.8403 38.4393 74.7157 38.6373 74.591 38.916C74.4663 39.1947 74.3527 39.4953 74.25 39.818C74.1547 40.1407 74.074 40.434 74.008 40.698C73.9127 41.094 73.8137 41.523 73.711 41.985C73.6157 42.447 73.5387 42.9053 73.48 43.36C73.4213 43.8147 73.403 44.2363 73.425 44.625C73.4323 44.7643 73.458 44.911 73.502 45.065C73.5533 45.2117 73.623 45.34 73.711 45.45C73.8063 45.5527 73.9237 45.604 74.063 45.604C74.1877 45.604 74.3233 45.5563 74.47 45.461L74.536 45.56C74.4407 45.7067 74.2573 45.8313 73.986 45.934C73.722 46.0367 73.4653 46.088 73.216 46.088ZM68.816 40.511C68.6987 40.3863 68.6107 40.258 68.552 40.126C68.5007 39.994 68.475 39.8693 68.475 39.752C68.475 39.6053 68.5043 39.466 68.563 39.334C68.629 39.1947 68.706 39.0773 68.794 38.982C68.97 38.784 69.19 38.6373 69.454 38.542C69.718 38.4467 69.9967 38.388 70.29 38.366C70.5907 38.3367 70.8767 38.322 71.148 38.322H73.612C73.458 38.476 73.2233 38.597 72.908 38.685C72.6 38.7657 72.2627 38.828 71.896 38.872C71.5293 38.9087 71.1737 38.9453 70.829 38.982C70.4917 39.0113 70.213 39.0517 69.993 39.103C69.6043 39.191 69.3073 39.3597 69.102 39.609C68.904 39.8583 68.8087 40.159 68.816 40.511ZM70.29 42.601H72.402C72.49 42.117 72.5927 41.633 72.71 41.149C72.8347 40.665 72.9447 40.2397 73.04 39.873C72.5927 40.2983 72.1343 40.742 71.665 41.204C71.203 41.6587 70.7447 42.1243 70.29 42.601ZM80.498 46.088C80.2267 46.088 80.0397 46.011 79.937 45.857C79.8417 45.6957 79.794 45.5013 79.794 45.274C79.794 45.1567 79.8013 45.0357 79.816 44.911C79.838 44.779 79.8637 44.647 79.893 44.515C79.915 44.3977 79.959 44.24 80.025 44.042C80.0983 43.8367 80.179 43.6167 80.267 43.382C80.3623 43.1473 80.4577 42.92 80.553 42.7C80.6483 42.4727 80.7327 42.2783 80.806 42.117C80.6887 42.3003 80.5383 42.524 80.355 42.788C80.179 43.0447 79.9883 43.3123 79.783 43.591C79.585 43.8697 79.3907 44.1337 79.2 44.383C79.0167 44.625 78.8553 44.823 78.716 44.977C78.3787 45.3437 78.034 45.6187 77.682 45.802C77.33 45.9853 77.0073 46.077 76.714 46.077C76.318 46.077 76.01 45.9853 75.79 45.802C75.57 45.6187 75.46 45.3033 75.46 44.856C75.46 44.6433 75.4857 44.3977 75.537 44.119C75.5883 43.833 75.6727 43.5103 75.79 43.151C75.9293 42.7183 76.1017 42.2637 76.307 41.787C76.5123 41.303 76.7287 40.83 76.956 40.368C77.1907 39.8987 77.418 39.466 77.638 39.07C77.6527 39.0407 77.682 38.9857 77.726 38.905C77.7773 38.8243 77.8177 38.7657 77.847 38.729C77.561 38.7363 77.253 38.773 76.923 38.839C76.6003 38.8977 76.2887 38.982 75.988 39.092C75.6947 39.202 75.4417 39.3303 75.229 39.477C75.0237 39.6237 74.8917 39.785 74.833 39.961C74.8257 39.983 74.811 39.994 74.789 39.994C74.723 39.994 74.69 39.9427 74.69 39.84C74.69 39.818 74.6973 39.785 74.712 39.741C74.7853 39.5503 74.8697 39.3817 74.965 39.235C75.0603 39.0883 75.1593 38.9637 75.262 38.861C75.504 38.6117 75.7753 38.4613 76.076 38.41C76.3767 38.3513 76.6957 38.322 77.033 38.322H79.53C79.376 38.4393 79.2073 38.63 79.024 38.894C78.8407 39.158 78.65 39.4587 78.452 39.796C78.2613 40.1333 78.078 40.4817 77.902 40.841C77.726 41.193 77.5683 41.523 77.429 41.831C77.297 42.1317 77.1907 42.3773 77.11 42.568C77.066 42.678 76.9927 42.854 76.89 43.096C76.7947 43.338 76.7067 43.6057 76.626 43.899C76.5453 44.185 76.505 44.449 76.505 44.691C76.505 44.8963 76.549 45.065 76.637 45.197C76.725 45.329 76.8753 45.3913 77.088 45.384C77.3153 45.3767 77.5757 45.2667 77.869 45.054C78.1623 44.8413 78.4703 44.559 78.793 44.207C79.1157 43.855 79.4383 43.47 79.761 43.052C80.0837 42.6267 80.388 42.2013 80.674 41.776C80.9673 41.3433 81.2277 40.9437 81.455 40.577C81.6823 40.203 81.8583 39.895 81.983 39.653C82.2397 39.1837 82.4707 38.8463 82.676 38.641C82.8887 38.4283 83.1233 38.322 83.38 38.322H84.062C83.908 38.4393 83.7393 38.6373 83.556 38.916C83.3727 39.1947 83.193 39.4953 83.017 39.818C82.841 40.1407 82.687 40.434 82.555 40.698C82.3643 41.094 82.17 41.523 81.972 41.985C81.774 42.447 81.598 42.9053 81.444 43.36C81.29 43.8147 81.1763 44.2363 81.103 44.625C81.081 44.7423 81.07 44.867 81.07 44.999C81.07 45.1603 81.0957 45.3033 81.147 45.428C81.2057 45.5453 81.3083 45.604 81.455 45.604C81.5797 45.604 81.7263 45.5563 81.895 45.461H81.906C81.9207 45.461 81.9317 45.4757 81.939 45.505C81.9463 45.527 81.9427 45.5453 81.928 45.56C81.7887 45.7067 81.5797 45.8313 81.301 45.934C81.0223 46.0367 80.7547 46.088 80.498 46.088ZM86.2057 46.242C85.9637 46.242 85.8024 46.1577 85.7217 45.989C85.641 45.813 85.6007 45.6187 85.6007 45.406C85.6007 45.2593 85.6117 45.1163 85.6337 44.977C85.6557 44.8303 85.6777 44.7093 85.6997 44.614C85.7584 44.3353 85.8537 44.0053 85.9857 43.624C86.1177 43.2353 86.268 42.8283 86.4367 42.403C86.6127 41.9703 86.796 41.545 86.9867 41.127C87.1774 40.7017 87.3607 40.3057 87.5367 39.939C87.72 39.565 87.8814 39.246 88.0207 38.982C87.852 38.9893 87.6577 38.9893 87.4377 38.982C87.2177 38.9673 86.9904 38.96 86.7557 38.96C86.3524 38.96 85.9527 38.993 85.5567 39.059C85.168 39.1177 84.849 39.2607 84.5997 39.488C84.4824 39.598 84.398 39.7153 84.3467 39.84C84.2954 39.9647 84.2697 40.0893 84.2697 40.214C84.2697 40.3533 84.2917 40.489 84.3357 40.621C84.343 40.6357 84.3467 40.654 84.3467 40.676C84.3467 40.7493 84.31 40.786 84.2367 40.786C84.1927 40.786 84.1597 40.7677 84.1377 40.731C84.0644 40.6137 84.0094 40.4963 83.9727 40.379C83.9434 40.2543 83.9287 40.1333 83.9287 40.016C83.9287 39.8107 83.9654 39.6163 84.0387 39.433C84.112 39.2497 84.2 39.0993 84.3027 38.982C84.5594 38.6813 84.9077 38.4833 85.3477 38.388C85.7877 38.2853 86.246 38.234 86.7227 38.234C87.0894 38.234 87.445 38.2487 87.7897 38.278C88.1417 38.3073 88.4534 38.3293 88.7247 38.344C88.9814 38.3587 89.3004 38.3843 89.6817 38.421C90.063 38.4503 90.4334 38.465 90.7927 38.465C91.1154 38.465 91.405 38.443 91.6617 38.399C91.9184 38.355 92.1054 38.2743 92.2227 38.157C92.2447 38.201 92.2557 38.2523 92.2557 38.311C92.2557 38.465 92.1677 38.6153 91.9917 38.762C91.8157 38.9087 91.5774 39.0077 91.2767 39.059C91.1814 39.0737 91.0714 39.0847 90.9467 39.092C90.8294 39.0993 90.7047 39.103 90.5727 39.103C90.3527 39.103 90.1327 39.0993 89.9127 39.092C89.6927 39.0773 89.4984 39.0627 89.3297 39.048C89.161 39.0333 89.0474 39.0297 88.9887 39.037C88.9447 39.103 88.875 39.224 88.7797 39.4C88.6917 39.576 88.5964 39.7667 88.4937 39.972C88.391 40.1773 88.2994 40.3643 88.2187 40.533C88.0794 40.8263 87.9327 41.1563 87.7787 41.523C87.6247 41.8897 87.478 42.26 87.3387 42.634C87.1994 43.008 87.0784 43.3637 86.9757 43.701C86.8804 44.0383 86.818 44.328 86.7887 44.57C86.7814 44.592 86.7777 44.6177 86.7777 44.647C86.7777 44.669 86.7777 44.691 86.7777 44.713C86.7777 44.8523 86.8034 44.9733 86.8547 45.076C86.9134 45.1713 87.0014 45.219 87.1187 45.219C87.2214 45.219 87.346 45.164 87.4927 45.054C87.6394 44.944 87.808 44.7607 87.9987 44.504C88.0354 44.46 88.0684 44.438 88.0977 44.438C88.1417 44.438 88.1637 44.4747 88.1637 44.548C88.1637 44.5993 88.1454 44.669 88.1087 44.757C88.0794 44.845 88.0244 44.9477 87.9437 45.065C87.8777 45.1603 87.7714 45.2887 87.6247 45.45C87.478 45.604 87.335 45.736 87.1957 45.846C87.071 45.9487 86.917 46.0403 86.7337 46.121C86.5504 46.2017 86.3744 46.242 86.2057 46.242ZM93.1746 46.352C92.6319 46.352 92.1552 46.2713 91.7446 46.11C91.3339 45.956 91.0149 45.703 90.7876 45.351C90.5602 44.999 90.4466 44.5297 90.4466 43.943C90.4466 43.3563 90.5419 42.7843 90.7326 42.227C90.9306 41.6623 91.2019 41.138 91.5466 40.654C91.8912 40.17 92.2946 39.7447 92.7566 39.378C93.2259 39.0113 93.7319 38.7253 94.2746 38.52C94.8172 38.3147 95.3819 38.212 95.9686 38.212C96.6212 38.212 97.1529 38.322 97.5636 38.542C97.9742 38.762 98.2749 39.0627 98.4656 39.444C98.6636 39.818 98.7626 40.2397 98.7626 40.709C98.7626 41.3323 98.6122 41.985 98.3116 42.667C98.0036 43.3637 97.6002 43.9907 97.1016 44.548C96.6029 45.1053 96.0199 45.5453 95.3526 45.868C94.6926 46.1907 93.9666 46.352 93.1746 46.352ZM94.1756 45.769C94.6082 45.6517 95.0336 45.4353 95.4516 45.12C95.8696 44.8047 96.2472 44.427 96.5846 43.987C96.9219 43.547 97.1896 43.085 97.3876 42.601C97.6956 41.8603 97.8496 41.1637 97.8496 40.511C97.8496 40.4083 97.8422 40.3093 97.8276 40.214C97.8202 40.1187 97.8092 40.027 97.7946 39.939C97.7139 39.4917 97.5269 39.1763 97.2336 38.993C96.9402 38.8097 96.6102 38.718 96.2436 38.718C95.8622 38.718 95.4736 38.795 95.0776 38.949C94.6816 39.0957 94.3406 39.279 94.0546 39.499C93.7026 39.7777 93.3762 40.0967 93.0756 40.456C92.7749 40.8153 92.5219 41.1967 92.3166 41.6C92.1406 41.952 91.9976 42.337 91.8876 42.755C91.7849 43.1657 91.7336 43.5653 91.7336 43.954C91.7336 44.306 91.7849 44.6287 91.8876 44.922C91.9902 45.2153 92.1589 45.4537 92.3936 45.637C92.6282 45.813 92.9399 45.901 93.3286 45.901C93.5779 45.901 93.8602 45.857 94.1756 45.769ZM106.421 46.088C106.135 46.088 105.941 46.0147 105.838 45.868C105.736 45.714 105.684 45.5233 105.684 45.296C105.684 45.0907 105.714 44.8597 105.772 44.603C105.838 44.2877 105.956 43.9137 106.124 43.481C106.3 43.0483 106.495 42.5973 106.707 42.128C106.927 41.6513 107.144 41.1967 107.356 40.764C107.576 40.3313 107.767 39.961 107.928 39.653C107.833 39.741 107.734 39.8327 107.631 39.928C107.536 40.0233 107.437 40.1297 107.334 40.247C106.909 40.7237 106.52 41.1783 106.168 41.611C105.824 42.0363 105.49 42.458 105.167 42.876C104.852 43.2867 104.526 43.7083 104.188 44.141C104.005 44.383 103.858 44.5663 103.748 44.691C103.646 44.8083 103.55 44.889 103.462 44.933C103.382 44.9697 103.279 44.988 103.154 44.988C102.971 44.988 102.762 44.933 102.527 44.823C102.63 44.6983 102.7 44.4307 102.736 44.02C102.78 43.6093 102.802 43.14 102.802 42.612C102.802 42.0767 102.784 41.523 102.747 40.951C102.711 40.379 102.656 39.873 102.582 39.433C102.538 39.5063 102.458 39.6677 102.34 39.917C102.23 40.1663 102.095 40.4743 101.933 40.841C101.779 41.2003 101.614 41.5927 101.438 42.018C101.262 42.436 101.09 42.8577 100.921 43.283C100.76 43.701 100.613 44.097 100.481 44.471C100.357 44.845 100.261 45.1677 100.195 45.439C100.129 45.7103 100.107 45.8973 100.129 46H99.1172C99.2786 45.5893 99.4619 45.1347 99.6672 44.636C99.8799 44.13 100.1 43.613 100.327 43.085C100.555 42.557 100.778 42.0437 100.998 41.545C101.226 41.0463 101.431 40.5917 101.614 40.181C101.805 39.763 101.963 39.4183 102.087 39.147C102.212 38.8757 102.293 38.707 102.329 38.641C102.007 38.6337 101.677 38.6667 101.339 38.74C101.002 38.806 100.687 38.9013 100.393 39.026C100.1 39.1507 99.8506 39.2937 99.6452 39.455C99.4472 39.6163 99.3189 39.785 99.2602 39.961C99.2529 39.983 99.2382 39.994 99.2162 39.994C99.1576 39.994 99.1282 39.9463 99.1282 39.851C99.1282 39.8363 99.1282 39.8217 99.1282 39.807C99.1356 39.785 99.1429 39.763 99.1502 39.741C99.2162 39.5503 99.2969 39.3817 99.3922 39.235C99.4949 39.0883 99.5939 38.9637 99.6892 38.861C99.9312 38.6117 100.203 38.4613 100.503 38.41C100.804 38.3513 101.123 38.322 101.46 38.322H102.527C102.689 38.322 102.846 38.322 103 38.322C103.154 38.322 103.29 38.3623 103.407 38.443C103.525 38.5163 103.602 38.663 103.638 38.883C103.668 39.037 103.693 39.2717 103.715 39.587C103.745 39.895 103.767 40.2397 103.781 40.621C103.803 41.0023 103.822 41.38 103.836 41.754C103.851 42.128 103.862 42.4507 103.869 42.722C103.869 42.7367 103.869 42.7807 103.869 42.854C103.877 42.92 103.88 43.0043 103.88 43.107C103.88 43.2023 103.877 43.3123 103.869 43.437C103.869 43.5543 103.862 43.668 103.847 43.778C104.001 43.5873 104.192 43.3527 104.419 43.074C104.654 42.788 104.907 42.48 105.178 42.15C105.45 41.8127 105.725 41.4753 106.003 41.138C106.282 40.8007 106.55 40.478 106.806 40.17C107.063 39.862 107.287 39.5943 107.477 39.367C107.675 39.1323 107.822 38.9563 107.917 38.839C108.086 38.6483 108.299 38.5163 108.555 38.443C108.812 38.3623 109.069 38.322 109.325 38.322H110.007C109.853 38.4393 109.685 38.6373 109.501 38.916C109.318 39.1947 109.138 39.4953 108.962 39.818C108.794 40.1407 108.643 40.434 108.511 40.698C108.321 41.094 108.126 41.523 107.928 41.985C107.73 42.447 107.554 42.9053 107.4 43.36C107.246 43.8147 107.133 44.2363 107.059 44.625C107.037 44.7423 107.026 44.867 107.026 44.999C107.026 45.1603 107.052 45.3033 107.103 45.428C107.162 45.5453 107.265 45.604 107.411 45.604C107.529 45.604 107.672 45.5563 107.84 45.461H107.851C107.866 45.461 107.877 45.4757 107.884 45.505C107.892 45.527 107.888 45.5453 107.873 45.56C107.734 45.7067 107.521 45.8313 107.235 45.934C106.949 46.0367 106.678 46.088 106.421 46.088ZM111.802 46.352C111.259 46.352 110.782 46.2713 110.372 46.11C109.961 45.956 109.642 45.703 109.415 45.351C109.187 44.999 109.074 44.5297 109.074 43.943C109.074 43.3563 109.169 42.7843 109.36 42.227C109.558 41.6623 109.829 41.138 110.174 40.654C110.518 40.17 110.922 39.7447 111.384 39.378C111.853 39.0113 112.359 38.7253 112.902 38.52C113.444 38.3147 114.009 38.212 114.596 38.212C115.248 38.212 115.78 38.322 116.191 38.542C116.601 38.762 116.902 39.0627 117.093 39.444C117.291 39.818 117.39 40.2397 117.39 40.709C117.39 41.3323 117.239 41.985 116.939 42.667C116.631 43.3637 116.227 43.9907 115.729 44.548C115.23 45.1053 114.647 45.5453 113.98 45.868C113.32 46.1907 112.594 46.352 111.802 46.352ZM112.803 45.769C113.235 45.6517 113.661 45.4353 114.079 45.12C114.497 44.8047 114.874 44.427 115.212 43.987C115.549 43.547 115.817 43.085 116.015 42.601C116.323 41.8603 116.477 41.1637 116.477 40.511C116.477 40.4083 116.469 40.3093 116.455 40.214C116.447 40.1187 116.436 40.027 116.422 39.939C116.341 39.4917 116.154 39.1763 115.861 38.993C115.567 38.8097 115.237 38.718 114.871 38.718C114.489 38.718 114.101 38.795 113.705 38.949C113.309 39.0957 112.968 39.279 112.682 39.499C112.33 39.7777 112.003 40.0967 111.703 40.456C111.402 40.8153 111.149 41.1967 110.944 41.6C110.768 41.952 110.625 42.337 110.515 42.755C110.412 43.1657 110.361 43.5653 110.361 43.954C110.361 44.306 110.412 44.6287 110.515 44.922C110.617 45.2153 110.786 45.4537 111.021 45.637C111.255 45.813 111.567 45.901 111.956 45.901C112.205 45.901 112.487 45.857 112.803 45.769ZM120.151 46.242C119.909 46.242 119.748 46.1577 119.667 45.989C119.586 45.813 119.546 45.6187 119.546 45.406C119.546 45.2593 119.557 45.1163 119.579 44.977C119.601 44.8303 119.623 44.7093 119.645 44.614C119.704 44.3353 119.799 44.0053 119.931 43.624C120.063 43.2353 120.213 42.8283 120.382 42.403C120.558 41.9703 120.741 41.545 120.932 41.127C121.123 40.7017 121.306 40.3057 121.482 39.939C121.665 39.565 121.827 39.246 121.966 38.982C121.797 38.9893 121.603 38.9893 121.383 38.982C121.163 38.9673 120.936 38.96 120.701 38.96C120.298 38.96 119.898 38.993 119.502 39.059C119.113 39.1177 118.794 39.2607 118.545 39.488C118.428 39.598 118.343 39.7153 118.292 39.84C118.241 39.9647 118.215 40.0893 118.215 40.214C118.215 40.3533 118.237 40.489 118.281 40.621C118.288 40.6357 118.292 40.654 118.292 40.676C118.292 40.7493 118.255 40.786 118.182 40.786C118.138 40.786 118.105 40.7677 118.083 40.731C118.01 40.6137 117.955 40.4963 117.918 40.379C117.889 40.2543 117.874 40.1333 117.874 40.016C117.874 39.8107 117.911 39.6163 117.984 39.433C118.057 39.2497 118.145 39.0993 118.248 38.982C118.505 38.6813 118.853 38.4833 119.293 38.388C119.733 38.2853 120.191 38.234 120.668 38.234C121.035 38.234 121.39 38.2487 121.735 38.278C122.087 38.3073 122.399 38.3293 122.67 38.344C122.927 38.3587 123.246 38.3843 123.627 38.421C124.008 38.4503 124.379 38.465 124.738 38.465C125.061 38.465 125.35 38.443 125.607 38.399C125.864 38.355 126.051 38.2743 126.168 38.157C126.19 38.201 126.201 38.2523 126.201 38.311C126.201 38.465 126.113 38.6153 125.937 38.762C125.761 38.9087 125.523 39.0077 125.222 39.059C125.127 39.0737 125.017 39.0847 124.892 39.092C124.775 39.0993 124.65 39.103 124.518 39.103C124.298 39.103 124.078 39.0993 123.858 39.092C123.638 39.0773 123.444 39.0627 123.275 39.048C123.106 39.0333 122.993 39.0297 122.934 39.037C122.89 39.103 122.82 39.224 122.725 39.4C122.637 39.576 122.542 39.7667 122.439 39.972C122.336 40.1773 122.245 40.3643 122.164 40.533C122.025 40.8263 121.878 41.1563 121.724 41.523C121.57 41.8897 121.423 42.26 121.284 42.634C121.145 43.008 121.024 43.3637 120.921 43.701C120.826 44.0383 120.763 44.328 120.734 44.57C120.727 44.592 120.723 44.6177 120.723 44.647C120.723 44.669 120.723 44.691 120.723 44.713C120.723 44.8523 120.749 44.9733 120.8 45.076C120.859 45.1713 120.947 45.219 121.064 45.219C121.167 45.219 121.291 45.164 121.438 45.054C121.585 44.944 121.753 44.7607 121.944 44.504C121.981 44.46 122.014 44.438 122.043 44.438C122.087 44.438 122.109 44.4747 122.109 44.548C122.109 44.5993 122.091 44.669 122.054 44.757C122.025 44.845 121.97 44.9477 121.889 45.065C121.823 45.1603 121.717 45.2887 121.57 45.45C121.423 45.604 121.28 45.736 121.141 45.846C121.016 45.9487 120.862 46.0403 120.679 46.121C120.496 46.2017 120.32 46.242 120.151 46.242ZM125.876 46C125.964 45.6333 126.081 45.2263 126.228 44.779C126.382 44.3243 126.554 43.8513 126.745 43.36C126.943 42.8687 127.145 42.381 127.35 41.897C127.555 41.413 127.753 40.951 127.944 40.511C128.135 40.0637 128.355 39.6127 128.604 39.158C128.655 39.07 128.699 38.9893 128.736 38.916C128.78 38.8427 128.828 38.7803 128.879 38.729C128.593 38.7363 128.285 38.773 127.955 38.839C127.632 38.8977 127.321 38.982 127.02 39.092C126.727 39.202 126.474 39.3303 126.261 39.477C126.056 39.6237 125.924 39.785 125.865 39.961C125.858 39.983 125.843 39.994 125.821 39.994C125.755 39.994 125.722 39.9427 125.722 39.84C125.722 39.818 125.729 39.785 125.744 39.741C125.81 39.5503 125.891 39.3817 125.986 39.235C126.089 39.0883 126.191 38.9637 126.294 38.861C126.536 38.6117 126.807 38.4613 127.108 38.41C127.409 38.3513 127.728 38.322 128.065 38.322H130.551C130.375 38.454 130.188 38.6703 129.99 38.971C129.792 39.2643 129.598 39.5943 129.407 39.961C129.216 40.3277 129.037 40.687 128.868 41.039C128.707 41.391 128.571 41.688 128.461 41.93C128.41 42.0473 128.336 42.227 128.241 42.469C128.146 42.7037 128.039 42.9713 127.922 43.272C127.812 43.5727 127.706 43.8843 127.603 44.207C127.5 44.5223 127.416 44.8157 127.35 45.087C127.284 45.3583 127.251 45.582 127.251 45.758C127.251 45.8093 127.255 45.857 127.262 45.901C127.277 45.9377 127.288 45.9707 127.295 46H125.876ZM131.16 46C131.248 45.8313 131.307 45.6187 131.336 45.362C131.373 45.1053 131.395 44.834 131.402 44.548C131.417 44.2547 131.432 43.9723 131.446 43.701C131.461 43.4443 131.472 43.1803 131.479 42.909C131.487 42.6377 131.49 42.3627 131.49 42.084C131.49 41.6953 131.476 41.314 131.446 40.94C131.424 40.5587 131.38 40.2103 131.314 39.895C131.285 39.7263 131.226 39.565 131.138 39.411C131.058 39.257 130.955 39.18 130.83 39.18C130.764 39.18 130.691 39.2093 130.61 39.268C130.537 39.3193 130.453 39.4183 130.357 39.565C130.35 39.5797 130.335 39.576 130.313 39.554C130.299 39.532 130.295 39.5137 130.302 39.499C130.361 39.3157 130.478 39.1177 130.654 38.905C130.83 38.6923 131.017 38.5163 131.215 38.377C131.318 38.3037 131.41 38.2523 131.49 38.223C131.578 38.1937 131.659 38.179 131.732 38.179C131.952 38.179 132.121 38.2927 132.238 38.52C132.356 38.74 132.44 38.9893 132.491 39.268C132.543 39.5467 132.576 39.884 132.59 40.28C132.612 40.6687 132.623 41.0757 132.623 41.501C132.623 41.9483 132.616 42.392 132.601 42.832C132.587 43.272 132.568 43.6643 132.546 44.009C132.524 44.3537 132.506 44.6103 132.491 44.779C132.741 44.4343 133.012 44.0273 133.305 43.558C133.599 43.0887 133.896 42.5973 134.196 42.084C134.504 41.5707 134.794 41.072 135.065 40.588C135.337 40.0967 135.575 39.653 135.78 39.257C135.993 38.861 136.147 38.5493 136.242 38.322H137.232C137.122 38.498 136.946 38.7767 136.704 39.158C136.462 39.532 136.18 39.9647 135.857 40.456C135.542 40.9473 135.208 41.4643 134.856 42.007C134.504 42.5423 134.163 43.0667 133.833 43.58C133.503 44.086 133.21 44.537 132.953 44.933C132.814 45.1603 132.667 45.384 132.513 45.604C132.367 45.8167 132.183 45.945 131.963 45.989C131.941 45.9963 131.908 46 131.864 46H131.16ZM137.674 46C137.557 46 137.469 45.9523 137.41 45.857C137.359 45.7617 137.333 45.637 137.333 45.483C137.333 45.2703 137.366 45.021 137.432 44.735C137.505 44.449 137.593 44.152 137.696 43.844C137.806 43.536 137.916 43.2427 138.026 42.964C138.136 42.678 138.231 42.436 138.312 42.238H137.707C137.648 42.238 137.619 42.216 137.619 42.172C137.619 42.128 137.652 42.0693 137.718 41.996C137.784 41.9153 137.861 41.8457 137.949 41.787C138.037 41.7283 138.11 41.699 138.169 41.699H138.543C138.726 41.2663 138.899 40.863 139.06 40.489C139.221 40.1077 139.423 39.7043 139.665 39.279C139.724 39.1763 139.779 39.081 139.83 38.993C139.881 38.8977 139.94 38.8133 140.006 38.74C139.61 38.7913 139.203 38.8683 138.785 38.971C138.374 39.0737 138.008 39.2057 137.685 39.367C137.362 39.5283 137.135 39.719 137.003 39.939C136.996 39.961 136.981 39.972 136.959 39.972C136.944 39.972 136.933 39.9573 136.926 39.928C136.911 39.8987 136.908 39.8657 136.915 39.829C136.988 39.6383 137.08 39.455 137.19 39.279C137.3 39.103 137.406 38.9637 137.509 38.861C137.67 38.6923 137.89 38.5713 138.169 38.498C138.448 38.4247 138.734 38.377 139.027 38.355C139.328 38.333 139.584 38.322 139.797 38.322H141.975C142.232 38.322 142.459 38.3147 142.657 38.3C142.862 38.278 143.035 38.267 143.174 38.267C143.401 38.267 143.533 38.322 143.57 38.432C143.577 38.4613 143.581 38.4907 143.581 38.52C143.588 38.542 143.592 38.5713 143.592 38.608C143.592 38.7547 143.559 38.9233 143.493 39.114C143.427 39.2973 143.354 39.477 143.273 39.653C143.2 39.8217 143.141 39.961 143.097 40.071C143.09 40.1077 143.068 40.1333 143.031 40.148C143.002 40.1627 142.972 40.17 142.943 40.17C142.906 40.17 142.873 40.1627 142.844 40.148C142.822 40.1333 142.815 40.0857 142.822 40.005C142.837 39.917 142.855 39.818 142.877 39.708C142.899 39.598 142.91 39.5027 142.91 39.422C142.91 39.1873 142.815 39.0077 142.624 38.883C142.441 38.751 142.21 38.685 141.931 38.685C141.726 38.685 141.557 38.7033 141.425 38.74C141.293 38.7693 141.187 38.8463 141.106 38.971C140.813 39.4037 140.545 39.8473 140.303 40.302C140.068 40.7567 139.848 41.2223 139.643 41.699H142.514C142.536 41.699 142.521 41.743 142.47 41.831C142.426 41.919 142.367 42.0107 142.294 42.106C142.228 42.194 142.169 42.238 142.118 42.238H139.401C139.32 42.4433 139.225 42.6927 139.115 42.986C139.005 43.2793 138.902 43.569 138.807 43.855C138.719 44.141 138.649 44.3867 138.598 44.592C138.554 44.768 138.532 44.9257 138.532 45.065C138.532 45.2483 138.587 45.3877 138.697 45.483C138.814 45.5783 139.016 45.626 139.302 45.626C139.698 45.626 140.094 45.6113 140.49 45.582C140.886 45.5453 141.275 45.472 141.656 45.362C141.986 45.2667 142.279 45.1383 142.536 44.977C142.8 44.8157 142.991 44.614 143.108 44.372C143.123 44.3427 143.145 44.328 143.174 44.328C143.225 44.328 143.251 44.3683 143.251 44.449C143.251 44.4637 143.247 44.482 143.24 44.504C143.24 44.526 143.236 44.5517 143.229 44.581C143.17 44.7717 143.101 44.9403 143.02 45.087C142.939 45.2337 142.855 45.3583 142.767 45.461C142.562 45.7103 142.298 45.8643 141.975 45.923C141.652 45.9743 141.33 46 141.007 46H137.674ZM149.049 46.264C148.433 46.1613 147.982 45.8937 147.696 45.461C147.418 45.0283 147.278 44.515 147.278 43.921C147.278 43.4883 147.348 43.0373 147.487 42.568C147.627 42.0913 147.825 41.6257 148.081 41.171C148.345 40.7163 148.661 40.2947 149.027 39.906C149.394 39.51 149.808 39.1727 150.27 38.894C150.732 38.6153 151.235 38.421 151.777 38.311C152.107 38.245 152.423 38.212 152.723 38.212C153.31 38.212 153.779 38.3293 154.131 38.564C154.483 38.7913 154.659 39.0847 154.659 39.444C154.659 39.5173 154.652 39.5907 154.637 39.664C154.63 39.73 154.608 39.8033 154.571 39.884C154.491 40.0967 154.355 40.2873 154.164 40.456C153.981 40.6173 153.768 40.742 153.526 40.83C153.292 40.918 153.05 40.9547 152.8 40.94C152.683 40.9253 152.58 40.885 152.492 40.819C152.412 40.7457 152.371 40.6577 152.371 40.555C152.371 40.4523 152.415 40.3423 152.503 40.225C152.584 40.2543 152.676 40.269 152.778 40.269C152.962 40.269 153.141 40.225 153.317 40.137C153.493 40.049 153.64 39.928 153.757 39.774C153.875 39.62 153.933 39.4477 153.933 39.257C153.933 39.0003 153.845 38.8317 153.669 38.751C153.493 38.663 153.295 38.619 153.075 38.619C152.929 38.619 152.782 38.6337 152.635 38.663C152.496 38.685 152.382 38.707 152.294 38.729C151.876 38.839 151.447 39.0407 151.007 39.334C150.575 39.62 150.179 39.972 149.819 40.39C149.46 40.8007 149.181 41.2517 148.983 41.743C148.837 42.1023 148.723 42.4653 148.642 42.832C148.562 43.1987 148.521 43.547 148.521 43.877C148.521 44.3023 148.591 44.6763 148.73 44.999C148.877 45.3217 149.108 45.5453 149.423 45.67C149.709 45.78 150.003 45.835 150.303 45.835C150.787 45.835 151.275 45.7177 151.766 45.483C152.265 45.2483 152.723 44.9513 153.141 44.592C153.398 44.3647 153.629 44.13 153.834 43.888C154.04 43.646 154.197 43.3893 154.307 43.118C154.447 43.206 154.516 43.3343 154.516 43.503C154.516 43.635 154.476 43.778 154.395 43.932C154.322 44.086 154.234 44.229 154.131 44.361C154.036 44.493 153.952 44.5957 153.878 44.669C153.365 45.2043 152.749 45.615 152.03 45.901C151.319 46.187 150.597 46.33 149.863 46.33C149.585 46.33 149.313 46.308 149.049 46.264ZM160.507 46.088C160.228 46.088 160.016 46.0147 159.869 45.868C159.722 45.7213 159.623 45.5343 159.572 45.307C159.521 45.0797 159.488 44.845 159.473 44.603C159.473 44.4637 159.48 44.2987 159.495 44.108C159.51 43.9173 159.528 43.734 159.55 43.558C159.579 43.3747 159.601 43.239 159.616 43.151H157.097C156.628 43.6423 156.18 44.1227 155.755 44.592C155.337 45.054 154.926 45.5233 154.523 46H153.423C153.614 45.824 153.863 45.5893 154.171 45.296C154.486 44.9953 154.842 44.6543 155.238 44.273C155.634 43.8917 156.045 43.4883 156.47 43.063C156.903 42.6303 157.335 42.1977 157.768 41.765C158.201 41.325 158.608 40.9033 158.989 40.5C159.378 40.0893 159.722 39.719 160.023 39.389C160.17 39.2277 160.305 39.0663 160.43 38.905C160.562 38.7363 160.709 38.597 160.87 38.487C161.031 38.377 161.229 38.322 161.464 38.322H162.256C162.131 38.4393 162.007 38.6373 161.882 38.916C161.757 39.1947 161.644 39.4953 161.541 39.818C161.446 40.1407 161.365 40.434 161.299 40.698C161.204 41.094 161.105 41.523 161.002 41.985C160.907 42.447 160.83 42.9053 160.771 43.36C160.712 43.8147 160.694 44.2363 160.716 44.625C160.723 44.7643 160.749 44.911 160.793 45.065C160.844 45.2117 160.914 45.34 161.002 45.45C161.097 45.5527 161.215 45.604 161.354 45.604C161.479 45.604 161.614 45.5563 161.761 45.461L161.827 45.56C161.732 45.7067 161.548 45.8313 161.277 45.934C161.013 46.0367 160.756 46.088 160.507 46.088ZM156.107 40.511C155.99 40.3863 155.902 40.258 155.843 40.126C155.792 39.994 155.766 39.8693 155.766 39.752C155.766 39.6053 155.795 39.466 155.854 39.334C155.92 39.1947 155.997 39.0773 156.085 38.982C156.261 38.784 156.481 38.6373 156.745 38.542C157.009 38.4467 157.288 38.388 157.581 38.366C157.882 38.3367 158.168 38.322 158.439 38.322H160.903C160.749 38.476 160.514 38.597 160.199 38.685C159.891 38.7657 159.554 38.828 159.187 38.872C158.82 38.9087 158.465 38.9453 158.12 38.982C157.783 39.0113 157.504 39.0517 157.284 39.103C156.895 39.191 156.598 39.3597 156.393 39.609C156.195 39.8583 156.1 40.159 156.107 40.511ZM157.581 42.601H159.693C159.781 42.117 159.884 41.633 160.001 41.149C160.126 40.665 160.236 40.2397 160.331 39.873C159.884 40.2983 159.425 40.742 158.956 41.204C158.494 41.6587 158.036 42.1243 157.581 42.601ZM162.287 46C162.375 45.6333 162.492 45.2263 162.639 44.779C162.793 44.3243 162.965 43.8513 163.156 43.36C163.354 42.8687 163.556 42.381 163.761 41.897C163.966 41.413 164.164 40.951 164.355 40.511C164.546 40.0637 164.766 39.6127 165.015 39.158C165.066 39.07 165.11 38.9893 165.147 38.916C165.191 38.8427 165.239 38.7803 165.29 38.729C165.004 38.7363 164.696 38.773 164.366 38.839C164.043 38.8977 163.732 38.982 163.431 39.092C163.138 39.202 162.885 39.3303 162.672 39.477C162.467 39.6237 162.335 39.785 162.276 39.961C162.269 39.983 162.254 39.994 162.232 39.994C162.166 39.994 162.133 39.9427 162.133 39.84C162.133 39.818 162.14 39.785 162.155 39.741C162.221 39.5503 162.302 39.3817 162.397 39.235C162.5 39.0883 162.602 38.9637 162.705 38.861C162.947 38.6117 163.218 38.4613 163.519 38.41C163.82 38.3513 164.139 38.322 164.476 38.322H167.149C167.457 38.322 167.732 38.355 167.974 38.421C168.216 38.4797 168.418 38.564 168.579 38.674C168.792 38.8133 168.946 38.9857 169.041 39.191C169.136 39.389 169.184 39.598 169.184 39.818C169.184 40.1553 169.111 40.456 168.964 40.72C168.817 40.984 168.623 41.2113 168.381 41.402C168.146 41.5927 167.882 41.7467 167.589 41.864C167.296 41.9813 166.999 42.0693 166.698 42.128L166.346 42.194C166.522 42.788 166.746 43.3233 167.017 43.8C167.288 44.2767 167.571 44.6947 167.864 45.054C168.157 45.4133 168.421 45.7213 168.656 45.978C168.546 46 168.377 46.011 168.15 46.011C167.952 46.011 167.761 46.0073 167.578 46C167.395 45.9853 167.303 45.978 167.303 45.978C167.12 45.978 166.94 45.879 166.764 45.681C166.588 45.483 166.419 45.23 166.258 44.922C166.097 44.6067 165.95 44.2803 165.818 43.943C165.693 43.5983 165.587 43.2793 165.499 42.986C165.418 42.6927 165.363 42.4653 165.334 42.304C165.334 42.282 165.33 42.26 165.323 42.238C165.323 42.216 165.323 42.1903 165.323 42.161C165.323 42.117 165.33 42.0803 165.345 42.051C165.367 42.0143 165.407 41.9923 165.466 41.985C165.833 41.941 166.166 41.875 166.467 41.787C166.768 41.6917 167.043 41.5633 167.292 41.402C167.541 41.2333 167.743 41.028 167.897 40.786C168.051 40.5367 168.128 40.2433 168.128 39.906C168.128 39.6347 168.051 39.389 167.897 39.169C167.75 38.9417 167.512 38.7913 167.182 38.718C167.094 38.696 166.999 38.6813 166.896 38.674C166.801 38.6667 166.702 38.6593 166.599 38.652C166.438 38.872 166.269 39.136 166.093 39.444C165.917 39.752 165.745 40.0783 165.576 40.423C165.407 40.7603 165.246 41.0977 165.092 41.435C164.945 41.765 164.813 42.0693 164.696 42.348C164.637 42.502 164.549 42.7257 164.432 43.019C164.322 43.3123 164.208 43.6313 164.091 43.976C163.974 44.3207 163.871 44.6543 163.783 44.977C163.702 45.2923 163.662 45.5527 163.662 45.758C163.662 45.868 163.677 45.9487 163.706 46H162.287ZM173.773 46.132C173.56 46.0953 173.362 46.044 173.179 45.978C172.995 45.9047 172.838 45.813 172.706 45.703C172.61 45.615 172.541 45.5123 172.497 45.395C172.453 45.2703 172.431 45.1383 172.431 44.999C172.431 44.7643 172.471 44.5223 172.552 44.273C172.632 44.0163 172.702 43.7963 172.761 43.613C172.9 43.2023 173.065 42.766 173.256 42.304C173.454 41.842 173.652 41.3947 173.85 40.962C174.055 40.5293 174.238 40.1443 174.4 39.807C174.561 39.4697 174.682 39.224 174.763 39.07C174.792 39.0113 174.818 38.9563 174.84 38.905C174.869 38.8537 174.898 38.806 174.928 38.762C174.854 38.7693 174.785 38.7803 174.719 38.795C174.653 38.8023 174.59 38.8097 174.532 38.817C174.209 38.861 173.872 38.9343 173.52 39.037C173.175 39.1323 172.863 39.2533 172.585 39.4C172.306 39.5467 172.104 39.7263 171.98 39.939C171.972 39.961 171.958 39.972 171.936 39.972C171.921 39.972 171.91 39.9573 171.903 39.928C171.888 39.8987 171.884 39.8657 171.892 39.829C171.965 39.6383 172.057 39.455 172.167 39.279C172.277 39.103 172.383 38.9637 172.486 38.861C172.647 38.6923 172.867 38.5713 173.146 38.498C173.424 38.4247 173.71 38.377 174.004 38.355C174.304 38.333 174.561 38.322 174.774 38.322H177.029C177.769 38.322 178.363 38.4613 178.811 38.74C179.265 39.0187 179.595 39.3853 179.801 39.84C180.006 40.2947 180.109 40.786 180.109 41.314C180.109 41.4387 180.105 41.5633 180.098 41.688C180.09 41.8127 180.076 41.9373 180.054 42.062C179.944 42.7293 179.727 43.3233 179.405 43.844C179.089 44.3573 178.697 44.79 178.228 45.142C177.758 45.494 177.23 45.7617 176.644 45.945C176.064 46.121 175.456 46.209 174.818 46.209C174.649 46.209 174.477 46.2017 174.301 46.187C174.125 46.1797 173.949 46.1613 173.773 46.132ZM174.048 45.703C174.143 45.7103 174.238 45.7213 174.334 45.736C174.429 45.7433 174.524 45.747 174.62 45.747C175.14 45.747 175.632 45.6553 176.094 45.472C176.563 45.2887 176.985 45.032 177.359 44.702C177.74 44.372 178.063 43.9907 178.327 43.558C178.591 43.1253 178.781 42.656 178.899 42.15C178.979 41.8127 179.02 41.49 179.02 41.182C179.02 40.852 178.968 40.5367 178.866 40.236C178.77 39.928 178.613 39.653 178.393 39.411C178.195 39.191 177.931 39.0223 177.601 38.905C177.271 38.7803 176.966 38.707 176.688 38.685C176.622 38.6777 176.556 38.674 176.49 38.674C176.424 38.6667 176.358 38.663 176.292 38.663C176.16 38.839 176.024 39.048 175.885 39.29C175.745 39.5247 175.61 39.7667 175.478 40.016C175.353 40.2653 175.243 40.4927 175.148 40.698C174.898 41.2333 174.664 41.7687 174.444 42.304C174.224 42.8393 174.026 43.3857 173.85 43.943C173.798 44.1043 173.747 44.2877 173.696 44.493C173.644 44.6983 173.619 44.889 173.619 45.065C173.619 45.2263 173.648 45.3693 173.707 45.494C173.773 45.6113 173.886 45.681 174.048 45.703ZM180.901 46C180.783 46 180.695 45.9523 180.637 45.857C180.585 45.7617 180.56 45.637 180.56 45.483C180.56 45.2703 180.593 45.021 180.659 44.735C180.732 44.449 180.82 44.152 180.923 43.844C181.033 43.536 181.143 43.2427 181.253 42.964C181.363 42.678 181.458 42.436 181.539 42.238H180.934C180.875 42.238 180.846 42.216 180.846 42.172C180.846 42.128 180.879 42.0693 180.945 41.996C181.011 41.9153 181.088 41.8457 181.176 41.787C181.264 41.7283 181.337 41.699 181.396 41.699H181.77C181.953 41.2663 182.125 40.863 182.287 40.489C182.448 40.1077 182.65 39.7043 182.892 39.279C182.95 39.1763 183.005 39.081 183.057 38.993C183.108 38.8977 183.167 38.8133 183.233 38.74C182.837 38.7913 182.43 38.8683 182.012 38.971C181.601 39.0737 181.234 39.2057 180.912 39.367C180.589 39.5283 180.362 39.719 180.23 39.939C180.222 39.961 180.208 39.972 180.186 39.972C180.171 39.972 180.16 39.9573 180.153 39.928C180.138 39.8987 180.134 39.8657 180.142 39.829C180.215 39.6383 180.307 39.455 180.417 39.279C180.527 39.103 180.633 38.9637 180.736 38.861C180.897 38.6923 181.117 38.5713 181.396 38.498C181.674 38.4247 181.96 38.377 182.254 38.355C182.554 38.333 182.811 38.322 183.024 38.322H185.202C185.458 38.322 185.686 38.3147 185.884 38.3C186.089 38.278 186.261 38.267 186.401 38.267C186.628 38.267 186.76 38.322 186.797 38.432C186.804 38.4613 186.808 38.4907 186.808 38.52C186.815 38.542 186.819 38.5713 186.819 38.608C186.819 38.7547 186.786 38.9233 186.72 39.114C186.654 39.2973 186.58 39.477 186.5 39.653C186.426 39.8217 186.368 39.961 186.324 40.071C186.316 40.1077 186.294 40.1333 186.258 40.148C186.228 40.1627 186.199 40.17 186.17 40.17C186.133 40.17 186.1 40.1627 186.071 40.148C186.049 40.1333 186.041 40.0857 186.049 40.005C186.063 39.917 186.082 39.818 186.104 39.708C186.126 39.598 186.137 39.5027 186.137 39.422C186.137 39.1873 186.041 39.0077 185.851 38.883C185.667 38.751 185.436 38.685 185.158 38.685C184.952 38.685 184.784 38.7033 184.652 38.74C184.52 38.7693 184.413 38.8463 184.333 38.971C184.039 39.4037 183.772 39.8473 183.53 40.302C183.295 40.7567 183.075 41.2223 182.87 41.699H185.741C185.763 41.699 185.748 41.743 185.697 41.831C185.653 41.919 185.594 42.0107 185.521 42.106C185.455 42.194 185.396 42.238 185.345 42.238H182.628C182.547 42.4433 182.452 42.6927 182.342 42.986C182.232 43.2793 182.129 43.569 182.034 43.855C181.946 44.141 181.876 44.3867 181.825 44.592C181.781 44.768 181.759 44.9257 181.759 45.065C181.759 45.2483 181.814 45.3877 181.924 45.483C182.041 45.5783 182.243 45.626 182.529 45.626C182.925 45.626 183.321 45.6113 183.717 45.582C184.113 45.5453 184.501 45.472 184.883 45.362C185.213 45.2667 185.506 45.1383 185.763 44.977C186.027 44.8157 186.217 44.614 186.335 44.372C186.349 44.3427 186.371 44.328 186.401 44.328C186.452 44.328 186.478 44.3683 186.478 44.449C186.478 44.4637 186.474 44.482 186.467 44.504C186.467 44.526 186.463 44.5517 186.456 44.581C186.397 44.7717 186.327 44.9403 186.247 45.087C186.166 45.2337 186.082 45.3583 185.994 45.461C185.788 45.7103 185.524 45.8643 185.202 45.923C184.879 45.9743 184.556 46 184.234 46H180.901ZM192.959 46.088C192.68 46.088 192.468 46.0147 192.321 45.868C192.174 45.7213 192.075 45.5343 192.024 45.307C191.973 45.0797 191.94 44.845 191.925 44.603C191.925 44.4637 191.932 44.2987 191.947 44.108C191.962 43.9173 191.98 43.734 192.002 43.558C192.031 43.3747 192.053 43.239 192.068 43.151H189.549C189.08 43.6423 188.632 44.1227 188.207 44.592C187.789 45.054 187.378 45.5233 186.975 46H185.875C186.066 45.824 186.315 45.5893 186.623 45.296C186.938 44.9953 187.294 44.6543 187.69 44.273C188.086 43.8917 188.497 43.4883 188.922 43.063C189.355 42.6303 189.787 42.1977 190.22 41.765C190.653 41.325 191.06 40.9033 191.441 40.5C191.83 40.0893 192.174 39.719 192.475 39.389C192.622 39.2277 192.757 39.0663 192.882 38.905C193.014 38.7363 193.161 38.597 193.322 38.487C193.483 38.377 193.681 38.322 193.916 38.322H194.708C194.583 38.4393 194.459 38.6373 194.334 38.916C194.209 39.1947 194.096 39.4953 193.993 39.818C193.898 40.1407 193.817 40.434 193.751 40.698C193.656 41.094 193.557 41.523 193.454 41.985C193.359 42.447 193.282 42.9053 193.223 43.36C193.164 43.8147 193.146 44.2363 193.168 44.625C193.175 44.7643 193.201 44.911 193.245 45.065C193.296 45.2117 193.366 45.34 193.454 45.45C193.549 45.5527 193.667 45.604 193.806 45.604C193.931 45.604 194.066 45.5563 194.213 45.461L194.279 45.56C194.184 45.7067 194 45.8313 193.729 45.934C193.465 46.0367 193.208 46.088 192.959 46.088ZM188.559 40.511C188.442 40.3863 188.354 40.258 188.295 40.126C188.244 39.994 188.218 39.8693 188.218 39.752C188.218 39.6053 188.247 39.466 188.306 39.334C188.372 39.1947 188.449 39.0773 188.537 38.982C188.713 38.784 188.933 38.6373 189.197 38.542C189.461 38.4467 189.74 38.388 190.033 38.366C190.334 38.3367 190.62 38.322 190.891 38.322H193.355C193.201 38.476 192.966 38.597 192.651 38.685C192.343 38.7657 192.006 38.828 191.639 38.872C191.272 38.9087 190.917 38.9453 190.572 38.982C190.235 39.0113 189.956 39.0517 189.736 39.103C189.347 39.191 189.05 39.3597 188.845 39.609C188.647 39.8583 188.552 40.159 188.559 40.511ZM190.033 42.601H192.145C192.233 42.117 192.336 41.633 192.453 41.149C192.578 40.665 192.688 40.2397 192.783 39.873C192.336 40.2983 191.877 40.742 191.408 41.204C190.946 41.6587 190.488 42.1243 190.033 42.601ZM195.523 46C195.369 46 195.255 45.945 195.182 45.835C195.116 45.725 195.083 45.5747 195.083 45.384C195.083 45.274 195.094 45.153 195.116 45.021C195.138 44.889 195.164 44.7497 195.193 44.603C195.281 44.2143 195.417 43.7853 195.6 43.316C195.791 42.8393 196.007 42.3517 196.249 41.853C196.498 41.347 196.748 40.8557 196.997 40.379C197.254 39.9023 197.492 39.466 197.712 39.07C197.727 39.0407 197.756 38.9857 197.8 38.905C197.851 38.8243 197.892 38.7657 197.921 38.729C197.635 38.7363 197.327 38.773 196.997 38.839C196.674 38.8977 196.363 38.982 196.062 39.092C195.769 39.202 195.516 39.3303 195.303 39.477C195.098 39.6237 194.966 39.785 194.907 39.961C194.9 39.983 194.885 39.994 194.863 39.994C194.797 39.994 194.764 39.9427 194.764 39.84C194.764 39.818 194.771 39.785 194.786 39.741C194.859 39.5503 194.944 39.3817 195.039 39.235C195.134 39.0883 195.233 38.9637 195.336 38.861C195.578 38.6117 195.849 38.4613 196.15 38.41C196.451 38.3513 196.77 38.322 197.107 38.322H199.604C199.443 38.4467 199.252 38.674 199.032 39.004C198.812 39.3267 198.585 39.6933 198.35 40.104C198.247 40.2873 198.119 40.5257 197.965 40.819C197.811 41.1123 197.65 41.4387 197.481 41.798C197.312 42.15 197.151 42.5057 196.997 42.865C196.843 43.2243 196.711 43.5653 196.601 43.888C196.491 44.2033 196.421 44.4747 196.392 44.702C196.385 44.7387 196.381 44.7753 196.381 44.812C196.381 44.8413 196.381 44.8743 196.381 44.911C196.381 45.1163 196.436 45.2887 196.546 45.428C196.656 45.56 196.861 45.626 197.162 45.626C197.551 45.626 197.943 45.6113 198.339 45.582C198.742 45.5453 199.135 45.472 199.516 45.362C199.839 45.2667 200.132 45.1383 200.396 44.977C200.66 44.8157 200.851 44.614 200.968 44.372C200.983 44.3427 201.001 44.328 201.023 44.328C201.074 44.328 201.1 44.3683 201.1 44.449C201.1 44.4637 201.096 44.482 201.089 44.504C201.089 44.526 201.085 44.5517 201.078 44.581C201.019 44.7717 200.95 44.9403 200.869 45.087C200.788 45.2337 200.708 45.3583 200.627 45.461C200.422 45.7103 200.154 45.8643 199.824 45.923C199.501 45.9743 199.179 46 198.856 46H195.523ZM201.364 46C201.247 46 201.159 45.9523 201.1 45.857C201.049 45.7617 201.023 45.637 201.023 45.483C201.023 45.2703 201.056 45.021 201.122 44.735C201.196 44.449 201.284 44.152 201.386 43.844C201.496 43.536 201.606 43.2427 201.716 42.964C201.826 42.678 201.922 42.436 202.002 42.238H201.397C201.339 42.238 201.309 42.216 201.309 42.172C201.309 42.128 201.342 42.0693 201.408 41.996C201.474 41.9153 201.551 41.8457 201.639 41.787C201.727 41.7283 201.801 41.699 201.859 41.699H202.233C202.417 41.2663 202.589 40.863 202.75 40.489C202.912 40.1077 203.113 39.7043 203.355 39.279C203.414 39.1763 203.469 39.081 203.52 38.993C203.572 38.8977 203.63 38.8133 203.696 38.74C203.3 38.7913 202.893 38.8683 202.475 38.971C202.065 39.0737 201.698 39.2057 201.375 39.367C201.053 39.5283 200.825 39.719 200.693 39.939C200.686 39.961 200.671 39.972 200.649 39.972C200.635 39.972 200.624 39.9573 200.616 39.928C200.602 39.8987 200.598 39.8657 200.605 39.829C200.679 39.6383 200.77 39.455 200.88 39.279C200.99 39.103 201.097 38.9637 201.199 38.861C201.361 38.6923 201.581 38.5713 201.859 38.498C202.138 38.4247 202.424 38.377 202.717 38.355C203.018 38.333 203.275 38.322 203.487 38.322H205.665C205.922 38.322 206.149 38.3147 206.347 38.3C206.553 38.278 206.725 38.267 206.864 38.267C207.092 38.267 207.224 38.322 207.26 38.432C207.268 38.4613 207.271 38.4907 207.271 38.52C207.279 38.542 207.282 38.5713 207.282 38.608C207.282 38.7547 207.249 38.9233 207.183 39.114C207.117 39.2973 207.044 39.477 206.963 39.653C206.89 39.8217 206.831 39.961 206.787 40.071C206.78 40.1077 206.758 40.1333 206.721 40.148C206.692 40.1627 206.663 40.17 206.633 40.17C206.597 40.17 206.564 40.1627 206.534 40.148C206.512 40.1333 206.505 40.0857 206.512 40.005C206.527 39.917 206.545 39.818 206.567 39.708C206.589 39.598 206.6 39.5027 206.6 39.422C206.6 39.1873 206.505 39.0077 206.314 38.883C206.131 38.751 205.9 38.685 205.621 38.685C205.416 38.685 205.247 38.7033 205.115 38.74C204.983 38.7693 204.877 38.8463 204.796 38.971C204.503 39.4037 204.235 39.8473 203.993 40.302C203.759 40.7567 203.539 41.2223 203.333 41.699H206.204C206.226 41.699 206.212 41.743 206.16 41.831C206.116 41.919 206.058 42.0107 205.984 42.106C205.918 42.194 205.86 42.238 205.808 42.238H203.091C203.011 42.4433 202.915 42.6927 202.805 42.986C202.695 43.2793 202.593 43.569 202.497 43.855C202.409 44.141 202.34 44.3867 202.288 44.592C202.244 44.768 202.222 44.9257 202.222 45.065C202.222 45.2483 202.277 45.3877 202.387 45.483C202.505 45.5783 202.706 45.626 202.992 45.626C203.388 45.626 203.784 45.6113 204.18 45.582C204.576 45.5453 204.965 45.472 205.346 45.362C205.676 45.2667 205.97 45.1383 206.226 44.977C206.49 44.8157 206.681 44.614 206.798 44.372C206.813 44.3427 206.835 44.328 206.864 44.328C206.916 44.328 206.941 44.3683 206.941 44.449C206.941 44.4637 206.938 44.482 206.93 44.504C206.93 44.526 206.927 44.5517 206.919 44.581C206.861 44.7717 206.791 44.9403 206.71 45.087C206.63 45.2337 206.545 45.3583 206.457 45.461C206.252 45.7103 205.988 45.8643 205.665 45.923C205.343 45.9743 205.02 46 204.697 46H201.364ZM207.941 46C208.029 45.6333 208.146 45.2263 208.293 44.779C208.447 44.3243 208.619 43.8513 208.81 43.36C209.008 42.8687 209.21 42.381 209.415 41.897C209.62 41.413 209.818 40.951 210.009 40.511C210.2 40.0637 210.42 39.6127 210.669 39.158C210.72 39.07 210.764 38.9893 210.801 38.916C210.845 38.8427 210.893 38.7803 210.944 38.729C210.658 38.7363 210.35 38.773 210.02 38.839C209.697 38.8977 209.386 38.982 209.085 39.092C208.792 39.202 208.539 39.3303 208.326 39.477C208.121 39.6237 207.989 39.785 207.93 39.961C207.923 39.983 207.908 39.994 207.886 39.994C207.82 39.994 207.787 39.9427 207.787 39.84C207.787 39.818 207.794 39.785 207.809 39.741C207.875 39.5503 207.956 39.3817 208.051 39.235C208.154 39.0883 208.256 38.9637 208.359 38.861C208.601 38.6117 208.872 38.4613 209.173 38.41C209.474 38.3513 209.793 38.322 210.13 38.322H212.803C213.111 38.322 213.386 38.355 213.628 38.421C213.87 38.4797 214.072 38.564 214.233 38.674C214.446 38.8133 214.6 38.9857 214.695 39.191C214.79 39.389 214.838 39.598 214.838 39.818C214.838 40.1553 214.765 40.456 214.618 40.72C214.471 40.984 214.277 41.2113 214.035 41.402C213.8 41.5927 213.536 41.7467 213.243 41.864C212.95 41.9813 212.653 42.0693 212.352 42.128L212 42.194C212.176 42.788 212.4 43.3233 212.671 43.8C212.942 44.2767 213.225 44.6947 213.518 45.054C213.811 45.4133 214.075 45.7213 214.31 45.978C214.2 46 214.031 46.011 213.804 46.011C213.606 46.011 213.415 46.0073 213.232 46C213.049 45.9853 212.957 45.978 212.957 45.978C212.774 45.978 212.594 45.879 212.418 45.681C212.242 45.483 212.073 45.23 211.912 44.922C211.751 44.6067 211.604 44.2803 211.472 43.943C211.347 43.5983 211.241 43.2793 211.153 42.986C211.072 42.6927 211.017 42.4653 210.988 42.304C210.988 42.282 210.984 42.26 210.977 42.238C210.977 42.216 210.977 42.1903 210.977 42.161C210.977 42.117 210.984 42.0803 210.999 42.051C211.021 42.0143 211.061 41.9923 211.12 41.985C211.487 41.941 211.82 41.875 212.121 41.787C212.422 41.6917 212.697 41.5633 212.946 41.402C213.195 41.2333 213.397 41.028 213.551 40.786C213.705 40.5367 213.782 40.2433 213.782 39.906C213.782 39.6347 213.705 39.389 213.551 39.169C213.404 38.9417 213.166 38.7913 212.836 38.718C212.748 38.696 212.653 38.6813 212.55 38.674C212.455 38.6667 212.356 38.6593 212.253 38.652C212.092 38.872 211.923 39.136 211.747 39.444C211.571 39.752 211.399 40.0783 211.23 40.423C211.061 40.7603 210.9 41.0977 210.746 41.435C210.599 41.765 210.467 42.0693 210.35 42.348C210.291 42.502 210.203 42.7257 210.086 43.019C209.976 43.3123 209.862 43.6313 209.745 43.976C209.628 44.3207 209.525 44.6543 209.437 44.977C209.356 45.2923 209.316 45.5527 209.316 45.758C209.316 45.868 209.331 45.9487 209.36 46H207.941ZM216.228 46.088C216.199 46.0733 216.14 46.0477 216.052 46.011C215.971 45.9743 215.894 45.9303 215.821 45.879C215.733 45.813 215.689 45.7323 215.689 45.637C215.689 45.5343 215.737 45.4353 215.832 45.34C215.905 45.2593 215.997 45.1933 216.107 45.142C216.217 45.0907 216.338 45.065 216.47 45.065C216.595 45.065 216.701 45.087 216.789 45.131C216.877 45.1677 216.921 45.2373 216.921 45.34C216.921 45.362 216.914 45.4023 216.899 45.461C216.84 45.4683 216.763 45.5123 216.668 45.593C216.573 45.6737 216.481 45.7617 216.393 45.857C216.312 45.9523 216.257 46.0293 216.228 46.088Z" fill="#13141A"/>
<path d="M52.9384 19.44L49.6554 16.8474L49.616 16.8137L52.6724 16.21C52.8706 16.171 53.0491 16.0653 53.1772 15.911C53.3053 15.7566 53.3753 15.5632 53.375 15.3636V12.7727C53.375 12.5437 53.2828 12.324 53.1187 12.162C52.9546 12.0001 52.7321 11.9091 52.5 11.9091H48.125C47.8929 11.9091 47.6704 12.0001 47.5063 12.162C47.3422 12.324 47.25 12.5437 47.25 12.7727V14.2858L47.1896 14.2055C47.1341 14.0588 47.038 13.9305 46.9122 13.835C46.4196 13.1467 45.9979 12.4575 45.7231 11.8616L44.2444 8.65145C43.302 6.60377 40.7785 5 38.5 5H17.5C15.2215 5 12.698 6.60377 11.7556 8.65145L10.2778 11.8607C10.003 12.4566 9.58125 13.1467 9.08862 13.835C8.96314 13.9307 8.8671 14.059 8.81125 14.2055L8.75088 14.2858V12.7727C8.75088 12.5437 8.65869 12.324 8.49459 12.162C8.3305 12.0001 8.10794 11.9091 7.87588 11.9091H3.5C3.26794 11.9091 3.04538 12.0001 2.88128 12.162C2.71719 12.324 2.625 12.5437 2.625 12.7727V15.3636C2.625 15.7756 2.919 16.1297 3.3285 16.21L6.38487 16.8137L6.3455 16.8474L3.06163 19.44C1.34488 20.7959 0 23.5578 0 25.7273V40.4091C0 41.8375 1.17775 43 2.625 43H9.625C11.0723 43 12.25 41.8375 12.25 40.4091V38.6818H43.75V40.4091C43.75 41.8375 44.9277 43 46.375 43H53.375C54.8223 43 56 41.8375 56 40.4091V25.7273C56 23.5578 54.6551 20.7959 52.9384 19.44ZM44.9873 36.9545L42.9809 34.9742C42.1295 34.1339 40.579 33.5 39.375 33.5H16.1875C14.9835 33.5 13.433 34.1339 12.5816 34.9742L10.5753 36.9545H4.375C2.92775 36.9545 1.75 35.7921 1.75 34.3636V30.0455H2.625V30.9091C2.625 32.8143 4.19475 34.3636 6.125 34.3636H8.75C8.98206 34.3636 9.20462 34.2726 9.36872 34.1107C9.53281 33.9487 9.625 33.7291 9.625 33.5C9.625 33.271 9.53281 33.0513 9.36872 32.8893C9.20462 32.7274 8.98206 32.6364 8.75 32.6364H6.125C5.15987 32.6364 4.375 31.8617 4.375 30.9091V30.0455H6.125C6.85125 30.0455 7.98 30.5066 8.49362 31.0136C8.5747 31.0941 8.67109 31.1579 8.77725 31.2015C8.88342 31.2451 8.99727 31.2675 9.11225 31.2675C9.22723 31.2675 9.34108 31.2451 9.44725 31.2015C9.55341 31.1579 9.6498 31.0941 9.73088 31.0136C9.8122 30.9335 9.87672 30.8383 9.92074 30.7335C9.96477 30.6287 9.98743 30.5164 9.98743 30.403C9.98743 30.2896 9.96477 30.1773 9.92074 30.0725C9.87672 29.9677 9.8122 29.8725 9.73088 29.7924C8.8795 28.9521 7.32987 28.3182 6.125 28.3182H1.75V25.7273C1.75 25.4224 1.799 25.0934 1.86812 24.7574C2.42812 25.3343 3.24275 25.7273 4.375 25.7273H11.375C11.607 25.7272 11.8296 25.6362 11.9936 25.4742L13.125 24.3575L14.2564 25.4742C14.3375 25.5545 14.4339 25.6182 14.5401 25.6617C14.6463 25.7051 14.7601 25.7274 14.875 25.7273H25.0128L27.3814 28.0651C27.4624 28.1456 27.5588 28.2095 27.665 28.2531C27.7712 28.2966 27.885 28.3191 28 28.3191C28.115 28.3191 28.2288 28.2966 28.335 28.2531C28.4412 28.2095 28.5376 28.1456 28.6186 28.0651L30.9873 25.7273H41.125C41.3569 25.7273 41.58 25.6366 41.7436 25.4742L42.875 24.3575L44.0064 25.4742C44.0875 25.5545 44.1839 25.6182 44.2901 25.6617C44.3963 25.7051 44.5101 25.7274 44.625 25.7273H51.625C52.7573 25.7273 53.5719 25.3343 54.1319 24.7574C54.201 25.0934 54.25 25.4224 54.25 25.7273V28.3182H49.875C48.671 28.3182 47.1205 28.9521 46.2691 29.7924C46.1879 29.8726 46.1234 29.9678 46.0795 30.0726C46.0355 30.1773 46.0129 30.2896 46.0129 30.403C46.0129 30.5164 46.0355 30.6287 46.0795 30.7335C46.1234 30.8382 46.1879 30.9334 46.2691 31.0136C46.3504 31.0938 46.4468 31.1574 46.553 31.2008C46.6591 31.2442 46.7729 31.2665 46.8877 31.2665C47.0026 31.2665 47.1164 31.2442 47.2225 31.2008C47.3287 31.1574 47.4251 31.0938 47.5064 31.0136C48.02 30.5066 49.1488 30.0455 49.875 30.0455H51.625V30.9091C51.625 31.8617 50.8401 32.6364 49.875 32.6364H47.25C47.0179 32.6364 46.7954 32.7274 46.6313 32.8893C46.4672 33.0513 46.375 33.271 46.375 33.5C46.375 33.7291 46.4672 33.9487 46.6313 34.1107C46.7954 34.2726 47.0179 34.3636 47.25 34.3636H49.875C51.8052 34.3636 53.375 32.8143 53.375 30.9091V30.0455H54.25V34.3636C54.25 35.7921 53.0723 36.9545 51.625 36.9545H44.9873ZM42.5127 36.9545H13.0497L13.8189 36.1954C14.3325 35.6885 15.4613 35.2273 16.1875 35.2273H39.375C40.1012 35.2273 41.23 35.6885 41.7436 36.1954L42.5127 36.9545ZM10.115 15.3636H45.885C46.7329 16.47 47.7015 17.5167 48.5616 18.1964L49.6143 19.0272L43.4254 21.4704L43.4236 21.4713C43.3146 21.5147 43.2155 21.5793 43.1322 21.6613L42.2572 22.5249L40.7627 24H30.625C30.5101 23.9999 30.3963 24.0222 30.2901 24.0656C30.1839 24.109 30.0875 24.1727 30.0064 24.253L28 26.2334L25.9936 24.253C25.9125 24.1727 25.8161 24.109 25.7099 24.0656C25.6037 24.0222 25.4899 23.9999 25.375 24H15.2372L13.7436 22.5258L12.8686 21.6621C12.7854 21.5801 12.6863 21.5155 12.5772 21.4721L12.5755 21.4713L6.38662 19.028L7.43925 18.1972C8.2985 17.5167 9.26713 16.47 10.115 15.3636ZM53.3234 22.6346C53.1475 23.5371 52.5805 24 51.625 24H44.9873L44.1123 23.1364L44.2417 23.0085L51.1849 20.2674L51.8446 20.789C52.3994 21.2269 52.9113 21.8927 53.3234 22.6346ZM49 13.6364H51.625V14.6555L49 15.1736V13.6364ZM11.8694 12.5758L13.3472 9.36655C14.007 7.9355 15.9084 6.72727 17.5 6.72727H38.5C40.0916 6.72727 41.993 7.9355 42.6519 9.36568L44.1306 12.5758C44.2846 12.9092 44.485 13.2693 44.7046 13.6364H11.2954C11.515 13.2693 11.7162 12.9092 11.8694 12.5758ZM4.375 13.6364H7V15.1736L4.375 14.6555V13.6364ZM4.1545 20.789L4.81425 20.2674L11.7582 23.0085L11.8878 23.1364L11.0128 24H4.375C3.4195 24 2.8525 23.5371 2.67663 22.6346C3.08875 21.8927 3.59975 21.2269 4.1545 20.789ZM9.625 41.2727H2.625C2.14287 41.2727 1.75 40.885 1.75 40.4091V37.7966C2.50314 38.3675 3.42538 38.6785 4.375 38.6818H10.5V40.4091C10.5 40.885 10.1071 41.2727 9.625 41.2727ZM53.375 41.2727H46.375C45.8929 41.2727 45.5 40.885 45.5 40.4091V38.6818H51.625C52.6138 38.6818 53.5168 38.3441 54.25 37.7966V40.4091C54.25 40.885 53.8571 41.2727 53.375 41.2727Z" fill="#46D993"/>
</svg>
