<svg width="137" height="29" viewBox="0 0 137 29" fill="none" xmlns="http://www.w3.org/2000/svg">
<path d="M43.6287 17.913V2.25869H50.1054C51.2401 2.25869 52.279 2.4525 53.2222 2.84013C54.1653 3.21285 54.9758 3.74957 55.6537 4.45028C56.3463 5.151 56.8768 5.97844 57.2452 6.9326C57.6136 7.88677 57.7979 8.93784 57.7979 10.0858C57.7979 11.2338 57.6136 12.2923 57.2452 13.2614C56.8768 14.2156 56.3463 15.043 55.6537 15.7437C54.9758 16.4295 54.1653 16.9662 53.2222 17.3539C52.279 17.7266 51.2401 17.913 50.1054 17.913H43.6287ZM47.3865 15.3188L46.8781 14.5585H49.9949C50.6138 14.5585 51.1664 14.4541 51.6527 14.2454C52.139 14.0217 52.5516 13.7161 52.8906 13.3285C53.2443 12.9409 53.5169 12.4712 53.7085 11.9196C53.9 11.368 53.9958 10.7567 53.9958 10.0858C53.9958 9.41492 53.9 8.80366 53.7085 8.25203C53.5169 7.70041 53.2443 7.23078 52.8906 6.84315C52.5516 6.45552 52.139 6.15734 51.6527 5.94862C51.1664 5.72499 50.6138 5.61317 49.9949 5.61317H46.8118L47.3865 4.89755V15.3188Z" fill="#13141A"/>
<path d="M60.328 17.913V6.03807H63.6879L63.8427 9.90691L63.1795 9.16893C63.3563 8.52785 63.6437 7.95386 64.0416 7.44696C64.4542 6.94006 64.9332 6.53752 65.4784 6.23934C66.0237 5.94117 66.6058 5.79208 67.2247 5.79208C67.4899 5.79208 67.7331 5.81444 67.9542 5.85917C68.1899 5.90389 68.4036 5.95608 68.5952 6.01571L67.6226 9.974C67.4605 9.86964 67.2394 9.78764 66.9594 9.72801C66.6942 9.65346 66.4142 9.61619 66.1194 9.61619C65.7952 9.61619 65.4931 9.67583 65.2132 9.7951C64.9332 9.89946 64.6974 10.056 64.5058 10.2647C64.3142 10.4734 64.1595 10.7194 64.0416 11.0027C63.9384 11.286 63.8869 11.6065 63.8869 11.9643V17.913H60.328Z" fill="#13141A"/>
<path d="M70.5863 17.913V6.03807H74.1231V17.913H70.5863ZM72.3547 3.68993C71.6916 3.68993 71.1684 3.53339 70.7853 3.22031C70.4169 2.89231 70.2327 2.43014 70.2327 1.83379C70.2327 1.29707 70.4242 0.857257 70.8074 0.514354C71.1905 0.171451 71.7063 0 72.3547 0C73.0179 0 73.5337 0.163997 73.9021 0.491991C74.2705 0.805077 74.4547 1.25234 74.4547 1.83379C74.4547 2.38541 74.2631 2.83268 73.88 3.17558C73.5116 3.51848 73.0031 3.68993 72.3547 3.68993Z" fill="#13141A"/>
<path d="M81.0494 17.913L76.1421 6.03807H80.0546L82.9725 14.9163L82.1104 15.0057L85.1166 6.03807H88.985L83.8346 17.913H81.0494Z" fill="#13141A"/>
<path d="M95.6567 18.1366C94.522 18.1366 93.5051 17.8682 92.6062 17.3315C91.7073 16.7948 90.9925 16.0643 90.462 15.1399C89.9463 14.2007 89.6884 13.1421 89.6884 11.9643C89.6884 10.7865 89.9463 9.73546 90.462 8.81112C90.9925 7.87186 91.7073 7.13387 92.6062 6.59715C93.5051 6.06044 94.522 5.79208 95.6567 5.79208C96.703 5.79208 97.6608 5.97844 98.5303 6.35116C99.4145 6.72388 100.114 7.24569 100.63 7.91659L98.7071 10.2424C98.5008 10.0038 98.2577 9.78019 97.9777 9.57146C97.6977 9.36274 97.3882 9.19874 97.0493 9.07947C96.7103 8.9602 96.3567 8.90057 95.9882 8.90057C95.4283 8.90057 94.9346 9.03475 94.5072 9.30311C94.0799 9.55656 93.7483 9.91437 93.5125 10.3765C93.2767 10.8387 93.1588 11.368 93.1588 11.9643C93.1588 12.5309 93.2767 13.0452 93.5125 13.5074C93.763 13.9696 94.102 14.3348 94.5293 14.6032C94.9567 14.8716 95.443 15.0057 95.9882 15.0057C96.3714 15.0057 96.7251 14.961 97.0493 14.8716C97.3735 14.7672 97.6682 14.6181 97.9335 14.4243C98.2135 14.2305 98.4713 13.9919 98.7071 13.7087L100.608 16.0568C100.107 16.6979 99.4071 17.2048 98.5082 17.5775C97.624 17.9502 96.6735 18.1366 95.6567 18.1366Z" fill="#13141A"/>
<path d="M108.078 18.1366C106.855 18.1366 105.764 17.8682 104.806 17.3315C103.863 16.7948 103.112 16.0643 102.552 15.1399C102.006 14.2156 101.734 13.157 101.734 11.9643C101.734 10.7716 102.006 9.7131 102.552 8.78875C103.112 7.8644 103.863 7.13387 104.806 6.59715C105.764 6.06044 106.855 5.79208 108.078 5.79208C109.301 5.79208 110.384 6.06044 111.327 6.59715C112.285 7.13387 113.037 7.8644 113.582 8.78875C114.127 9.7131 114.4 10.7716 114.4 11.9643C114.4 13.157 114.127 14.2156 113.582 15.1399C113.037 16.0643 112.285 16.7948 111.327 17.3315C110.384 17.8682 109.301 18.1366 108.078 18.1366ZM108.078 15.0505C108.608 15.0505 109.08 14.9163 109.493 14.6479C109.905 14.3796 110.229 14.0143 110.465 13.5521C110.701 13.0899 110.811 12.5607 110.797 11.9643C110.811 11.368 110.701 10.8387 110.465 10.3765C110.229 9.89946 109.905 9.52674 109.493 9.25838C109.08 8.99002 108.608 8.85584 108.078 8.85584C107.547 8.85584 107.068 8.99002 106.641 9.25838C106.228 9.52674 105.904 9.89946 105.668 10.3765C105.433 10.8387 105.322 11.368 105.337 11.9643C105.322 12.5607 105.433 13.0899 105.668 13.5521C105.904 14.0143 106.228 14.3796 106.641 14.6479C107.068 14.9163 107.547 15.0505 108.078 15.0505Z" fill="#13141A"/>
<path d="M46.2409 28.8313C46.0649 28.8313 45.9306 28.7844 45.8379 28.6907C45.7453 28.597 45.6828 28.4775 45.6503 28.3323C45.6179 28.187 45.5971 28.0371 45.5878 27.8825C45.5878 27.7934 45.5925 27.688 45.6017 27.5662C45.611 27.4444 45.6226 27.3272 45.6365 27.2148C45.655 27.0976 45.6689 27.0109 45.6781 26.9547H44.0872C43.7908 27.2686 43.5083 27.5756 43.2397 27.8754C42.9757 28.1706 42.7163 28.4705 42.4616 28.7751H41.7668C41.8873 28.6626 42.0447 28.5127 42.2393 28.3253C42.4384 28.1331 42.663 27.9153 42.9131 27.6716C43.1632 27.428 43.4226 27.1702 43.6912 26.8985C43.9645 26.622 44.2377 26.3456 44.511 26.0691C44.7843 25.788 45.0413 25.5186 45.2821 25.2609C45.5276 24.9985 45.7453 24.7618 45.9352 24.551C46.0278 24.4479 46.1135 24.3448 46.1922 24.2417C46.2756 24.134 46.3682 24.0449 46.4701 23.9746C46.572 23.9044 46.6971 23.8692 46.8453 23.8692H47.3455C47.2667 23.9442 47.188 24.0707 47.1093 24.2488C47.0305 24.4268 46.9587 24.6189 46.8939 24.8251C46.8337 25.0313 46.7827 25.2187 46.7411 25.3874C46.6809 25.6404 46.6183 25.9145 46.5535 26.2097C46.4933 26.5049 46.4446 26.7977 46.4076 27.0882C46.3705 27.3788 46.359 27.6482 46.3729 27.8965C46.3775 27.9855 46.3937 28.0793 46.4215 28.1777C46.4539 28.2714 46.4979 28.3534 46.5535 28.4237C46.6137 28.4893 46.6878 28.5221 46.7758 28.5221C46.8545 28.5221 46.9402 28.4916 47.0328 28.4307L47.0745 28.4939C47.0143 28.5876 46.8985 28.6673 46.7272 28.7329C46.5604 28.7985 46.3983 28.8313 46.2409 28.8313ZM43.462 25.2679C43.3879 25.1882 43.3323 25.1062 43.2952 25.0219C43.2628 24.9375 43.2466 24.8579 43.2466 24.7829C43.2466 24.6892 43.2651 24.6002 43.3022 24.5158C43.3439 24.4268 43.3925 24.3518 43.4481 24.2909C43.5592 24.1644 43.6982 24.0707 43.8649 24.0098C44.0316 23.9489 44.2076 23.9114 44.3929 23.8973C44.5828 23.8786 44.7634 23.8692 44.9348 23.8692H46.491C46.3937 23.9676 46.2455 24.0449 46.0463 24.1012C45.8518 24.1527 45.6388 24.1925 45.4072 24.2206C45.1756 24.2441 44.951 24.2675 44.7333 24.2909C44.5203 24.3097 44.3443 24.3354 44.2053 24.3682C43.9599 24.4245 43.7723 24.5322 43.6426 24.6915C43.5175 24.8509 43.4573 25.043 43.462 25.2679ZM44.3929 26.6033H45.7268C45.7823 26.294 45.8472 25.9848 45.9213 25.6755C46 25.3663 46.0695 25.0945 46.1297 24.8602C45.8472 25.132 45.5577 25.4155 45.2613 25.7107C44.9695 26.0012 44.6801 26.2987 44.3929 26.6033Z" fill="#13141A"/>
<path d="M50.8399 28.8313C50.6686 28.8313 50.5505 28.7821 50.4856 28.6837C50.4254 28.5806 50.3953 28.4565 50.3953 28.3112C50.3953 28.2362 50.3999 28.1589 50.4092 28.0793C50.4231 27.9949 50.4393 27.9106 50.4578 27.8262C50.4717 27.7513 50.4995 27.6505 50.5412 27.524C50.5875 27.3928 50.6385 27.2522 50.694 27.1023C50.7542 26.9524 50.8145 26.8071 50.8747 26.6665C50.9349 26.5213 50.9881 26.3971 51.0344 26.294C50.9603 26.4112 50.8654 26.5541 50.7496 26.7228C50.6385 26.8868 50.518 27.0578 50.3884 27.2358C50.2633 27.4139 50.1406 27.5826 50.0202 27.7419C49.9044 27.8965 49.8025 28.023 49.7145 28.1214C49.5014 28.3557 49.2837 28.5314 49.0614 28.6486C48.8391 28.7657 48.6353 28.8243 48.4501 28.8243C48.2 28.8243 48.0055 28.7657 47.8665 28.6486C47.7276 28.5314 47.6581 28.3299 47.6581 28.0441C47.6581 27.9082 47.6743 27.7513 47.7067 27.5732C47.7391 27.3905 47.7924 27.1843 47.8665 26.9547C47.9545 26.6783 48.0634 26.3877 48.193 26.0832C48.3227 25.7739 48.4593 25.4717 48.6029 25.1765C48.7511 24.8766 48.8947 24.6002 49.0336 24.3472C49.0429 24.3284 49.0614 24.2933 49.0892 24.2417C49.1216 24.1902 49.1471 24.1527 49.1656 24.1293C48.985 24.134 48.7905 24.1574 48.5821 24.1996C48.3783 24.237 48.1815 24.2909 47.9916 24.3612C47.8063 24.4315 47.6465 24.5135 47.5122 24.6072C47.3825 24.7009 47.2992 24.804 47.2621 24.9165C47.2575 24.9305 47.2482 24.9375 47.2343 24.9375C47.1926 24.9375 47.1718 24.9047 47.1718 24.8391C47.1718 24.8251 47.1764 24.804 47.1857 24.7759C47.232 24.6541 47.2853 24.5463 47.3455 24.4526C47.4057 24.3589 47.4682 24.2792 47.533 24.2136C47.6859 24.0543 47.8572 23.9582 48.0471 23.9254C48.237 23.888 48.4385 23.8692 48.6515 23.8692H50.2286C50.1313 23.9442 50.0248 24.066 49.909 24.2347C49.7932 24.4034 49.6728 24.5955 49.5477 24.811C49.4273 25.0266 49.3115 25.2491 49.2004 25.4787C49.0892 25.7036 48.9896 25.9145 48.9016 26.1113C48.8183 26.3034 48.7511 26.4604 48.7002 26.5822C48.6724 26.6525 48.6261 26.7649 48.5612 26.9196C48.501 27.0742 48.4454 27.2452 48.3945 27.4326C48.3436 27.6154 48.3181 27.7841 48.3181 27.9387C48.3181 28.0699 48.3459 28.1777 48.4014 28.262C48.457 28.3463 48.552 28.3862 48.6863 28.3815C48.8299 28.3768 48.9943 28.3065 49.1795 28.1706C49.3648 28.0347 49.5593 27.8543 49.7631 27.6294C49.9669 27.4045 50.1707 27.1585 50.3745 26.8915C50.5782 26.6197 50.7705 26.3479 50.9511 26.0762C51.1363 25.7997 51.3008 25.5443 51.4443 25.3101C51.5879 25.0711 51.6991 24.8743 51.7778 24.7197C51.9399 24.4198 52.0858 24.2042 52.2155 24.073C52.3498 23.9372 52.498 23.8692 52.6601 23.8692H53.0908C52.9936 23.9442 52.887 24.0707 52.7713 24.2488C52.6555 24.4268 52.542 24.6189 52.4308 24.8251C52.3197 25.0313 52.2224 25.2187 52.1391 25.3874C52.0186 25.6404 51.8959 25.9145 51.7709 26.2097C51.6458 26.5049 51.5346 26.7977 51.4374 27.0882C51.3401 27.3788 51.2683 27.6482 51.222 27.8965C51.2081 27.9715 51.2012 28.0511 51.2012 28.1355C51.2012 28.2386 51.2174 28.3299 51.2498 28.4096C51.2869 28.4846 51.3517 28.5221 51.4443 28.5221C51.5231 28.5221 51.6157 28.4916 51.7222 28.4307H51.7292C51.7384 28.4307 51.7454 28.4401 51.75 28.4588C51.7546 28.4729 51.7523 28.4846 51.7431 28.4939C51.6551 28.5876 51.5231 28.6673 51.3471 28.7329C51.1711 28.7985 51.002 28.8313 50.8399 28.8313Z" fill="#13141A"/>
<path d="M54.4447 28.9297C54.2919 28.9297 54.19 28.8758 54.139 28.768C54.0881 28.6556 54.0626 28.5314 54.0626 28.3955C54.0626 28.3018 54.0696 28.2105 54.0835 28.1214C54.0974 28.0277 54.1113 27.9504 54.1252 27.8895C54.1622 27.7114 54.2224 27.5006 54.3058 27.2569C54.3891 27.0086 54.4841 26.7485 54.5906 26.4768C54.7018 26.2003 54.8176 25.9286 54.938 25.6615C55.0584 25.3897 55.1742 25.1367 55.2853 24.9024C55.4011 24.6634 55.503 24.4596 55.591 24.2909C55.4845 24.2956 55.3618 24.2956 55.2228 24.2909C55.0839 24.2816 54.9403 24.2769 54.7921 24.2769C54.5374 24.2769 54.2849 24.298 54.0348 24.3401C53.7894 24.3776 53.5879 24.469 53.4304 24.6142C53.3563 24.6845 53.3031 24.7595 53.2706 24.8391C53.2382 24.9188 53.222 24.9985 53.222 25.0781C53.222 25.1671 53.2359 25.2538 53.2637 25.3382C53.2683 25.3475 53.2706 25.3593 53.2706 25.3733C53.2706 25.4202 53.2475 25.4436 53.2012 25.4436C53.1734 25.4436 53.1525 25.4319 53.1386 25.4085C53.0923 25.3335 53.0576 25.2585 53.0344 25.1835C53.0159 25.1039 53.0066 25.0266 53.0066 24.9516C53.0066 24.8204 53.0298 24.6962 53.0761 24.5791C53.1224 24.462 53.178 24.3659 53.2429 24.2909C53.405 24.0988 53.625 23.9723 53.9028 23.9114C54.1807 23.8458 54.4702 23.813 54.7712 23.813C55.0028 23.813 55.2274 23.8224 55.4451 23.8411C55.6674 23.8598 55.8643 23.8739 56.0356 23.8833C56.1977 23.8926 56.3992 23.909 56.64 23.9325C56.8809 23.9512 57.1148 23.9606 57.3417 23.9606C57.5455 23.9606 57.7284 23.9465 57.8905 23.9184C58.0527 23.8903 58.1708 23.8388 58.2449 23.7638C58.2588 23.7919 58.2657 23.8247 58.2657 23.8622C58.2657 23.9606 58.2101 24.0566 58.099 24.1504C57.9878 24.2441 57.8373 24.3073 57.6474 24.3401C57.5872 24.3495 57.5177 24.3565 57.439 24.3612C57.3649 24.3659 57.2861 24.3682 57.2028 24.3682C57.0638 24.3682 56.9249 24.3659 56.7859 24.3612C56.647 24.3518 56.5243 24.3425 56.4177 24.3331C56.3112 24.3237 56.2394 24.3214 56.2024 24.3261C56.1746 24.3682 56.1306 24.4456 56.0704 24.558C56.0148 24.6705 55.9546 24.7923 55.8897 24.9235C55.8249 25.0547 55.767 25.1742 55.7161 25.2819C55.6281 25.4694 55.5354 25.6802 55.4382 25.9145C55.3409 26.1488 55.2483 26.3854 55.1603 26.6244C55.0723 26.8633 54.9959 27.0906 54.931 27.3061C54.8708 27.5217 54.8315 27.7068 54.8129 27.8614C54.8083 27.8754 54.806 27.8918 54.806 27.9106C54.806 27.9246 54.806 27.9387 54.806 27.9527C54.806 28.0418 54.8222 28.1191 54.8546 28.1847C54.8917 28.2456 54.9472 28.2761 55.0213 28.2761C55.0862 28.2761 55.1649 28.2409 55.2575 28.1706C55.3502 28.1003 55.4567 27.9832 55.5771 27.8192C55.6003 27.7911 55.6211 27.777 55.6396 27.777C55.6674 27.777 55.6813 27.8005 55.6813 27.8473C55.6813 27.8801 55.6698 27.9246 55.6466 27.9809C55.6281 28.0371 55.5933 28.1027 55.5424 28.1777C55.5007 28.2386 55.4335 28.3206 55.3409 28.4237C55.2483 28.5221 55.158 28.6064 55.07 28.6767C54.9912 28.7423 54.894 28.8008 54.7782 28.8524C54.6624 28.9039 54.5512 28.9297 54.4447 28.9297Z" fill="#13141A"/>
<path d="M58.846 29C58.5033 29 58.2022 28.9484 57.9429 28.8454C57.6835 28.747 57.482 28.5853 57.3385 28.3604C57.1949 28.1355 57.1231 27.8356 57.1231 27.4608C57.1231 27.0859 57.1833 26.7204 57.3037 26.3643C57.4288 26.0035 57.6001 25.6685 57.8178 25.3593C58.0355 25.05 58.2902 24.7782 58.582 24.544C58.8784 24.3097 59.198 24.1269 59.5407 23.9957C59.8835 23.8645 60.2401 23.7989 60.6106 23.7989C61.0228 23.7989 61.3586 23.8692 61.618 24.0098C61.8773 24.1504 62.0672 24.3425 62.1876 24.5861C62.3127 24.8251 62.3752 25.0945 62.3752 25.3944C62.3752 25.7927 62.2803 26.2097 62.0904 26.6455C61.8958 27.0906 61.6411 27.4912 61.3262 27.8473C61.0112 28.2034 60.643 28.4846 60.2216 28.6907C59.8047 28.8969 59.3462 29 58.846 29ZM59.4782 28.6275C59.7515 28.5525 60.0201 28.4143 60.2841 28.2128C60.5481 28.0113 60.7866 27.77 60.9997 27.4889C61.2127 27.2077 61.3818 26.9125 61.5068 26.6033C61.7013 26.13 61.7986 25.6849 61.7986 25.2679C61.7986 25.2023 61.794 25.139 61.7847 25.0781C61.7801 25.0172 61.7731 24.9586 61.7638 24.9024C61.7129 24.6166 61.5948 24.4151 61.4095 24.298C61.2243 24.1808 61.0159 24.1222 60.7843 24.1222C60.5434 24.1222 60.298 24.1714 60.0479 24.2698C59.7978 24.3636 59.5824 24.4807 59.4018 24.6213C59.1795 24.7993 58.9734 25.0031 58.7835 25.2327C58.5936 25.4623 58.4338 25.706 58.3041 25.9637C58.193 26.1886 58.1027 26.4346 58.0332 26.7017C57.9683 26.9641 57.9359 27.2194 57.9359 27.4678C57.9359 27.6927 57.9683 27.8989 58.0332 28.0863C58.098 28.2737 58.2045 28.426 58.3528 28.5431C58.501 28.6556 58.6978 28.7118 58.9433 28.7118C59.1007 28.7118 59.2791 28.6837 59.4782 28.6275Z" fill="#13141A"/>
<path d="M67.2122 28.8313C67.0315 28.8313 66.9088 28.7844 66.844 28.6907C66.7791 28.5923 66.7467 28.4705 66.7467 28.3253C66.7467 28.1941 66.7652 28.0465 66.8023 27.8825C66.844 27.681 66.9181 27.442 67.0246 27.1656C67.1357 26.8891 67.2585 26.6009 67.3928 26.3011C67.5317 25.9965 67.6684 25.706 67.8027 25.4295C67.9416 25.1531 68.062 24.9165 68.1639 24.7197C68.1037 24.7759 68.0412 24.8345 67.9764 24.8954C67.9161 24.9563 67.8536 25.0242 67.7888 25.0992C67.5202 25.4038 67.2747 25.6943 67.0524 25.9707C66.8347 26.2425 66.624 26.5119 66.4202 26.779C66.221 27.0414 66.0149 27.3108 65.8019 27.5873C65.6861 27.7419 65.5935 27.859 65.524 27.9387C65.4591 28.0137 65.3989 28.0652 65.3434 28.0933C65.2924 28.1167 65.2276 28.1285 65.1488 28.1285C65.033 28.1285 64.901 28.0933 64.7528 28.023C64.8177 27.9434 64.8617 27.7724 64.8848 27.51C64.9126 27.2476 64.9265 26.9477 64.9265 26.6103C64.9265 26.2683 64.9149 25.9145 64.8918 25.549C64.8686 25.1835 64.8339 24.8602 64.7876 24.5791C64.7598 24.626 64.7088 24.729 64.6347 24.8883C64.5653 25.0477 64.4796 25.2445 64.3777 25.4787C64.2804 25.7083 64.1762 25.959 64.0651 26.2308C63.9539 26.4979 63.8451 26.7673 63.7385 27.039C63.6366 27.3061 63.544 27.5592 63.4607 27.7981C63.3819 28.0371 63.3217 28.2433 63.28 28.4166C63.2383 28.59 63.2244 28.7095 63.2383 28.7751H62.5992C62.7011 28.5127 62.8169 28.2222 62.9466 27.9035C63.0809 27.5802 63.2198 27.2499 63.3634 26.9125C63.507 26.5752 63.6482 26.2472 63.7872 25.9286C63.9307 25.6099 64.0604 25.3194 64.1762 25.057C64.2966 24.7899 64.3962 24.5697 64.4749 24.3964C64.5537 24.223 64.6046 24.1152 64.6278 24.073C64.424 24.0684 64.2156 24.0894 64.0025 24.1363C63.7895 24.1785 63.5903 24.2394 63.4051 24.319C63.2198 24.3987 63.0623 24.4901 62.9327 24.5932C62.8076 24.6962 62.7266 24.804 62.6895 24.9165C62.6849 24.9305 62.6756 24.9375 62.6617 24.9375C62.6247 24.9375 62.6061 24.9071 62.6061 24.8462C62.6061 24.8368 62.6061 24.8274 62.6061 24.8181C62.6108 24.804 62.6154 24.7899 62.62 24.7759C62.6617 24.6541 62.7127 24.5463 62.7729 24.4526C62.8377 24.3589 62.9002 24.2792 62.9605 24.2136C63.1133 24.0543 63.2847 23.9582 63.4745 23.9254C63.6644 23.888 63.8659 23.8692 64.079 23.8692H64.7528C64.8547 23.8692 64.9543 23.8692 65.0516 23.8692C65.1488 23.8692 65.2345 23.895 65.3086 23.9465C65.3827 23.9934 65.4313 24.0871 65.4545 24.2277C65.473 24.3261 65.4892 24.476 65.5031 24.6775C65.5217 24.8743 65.5356 25.0945 65.5448 25.3382C65.5587 25.5818 65.5703 25.8231 65.5796 26.0621C65.5888 26.3011 65.5958 26.5072 65.6004 26.6806C65.6004 26.69 65.6004 26.7181 65.6004 26.7649C65.605 26.8071 65.6073 26.861 65.6073 26.9266C65.6073 26.9875 65.605 27.0578 65.6004 27.1374C65.6004 27.2124 65.5958 27.285 65.5865 27.3553C65.6838 27.2335 65.8042 27.0836 65.9478 26.9055C66.096 26.7228 66.2558 26.526 66.4271 26.3151C66.5985 26.0996 66.7722 25.884 66.9482 25.6685C67.1242 25.453 67.2932 25.2468 67.4553 25.05C67.6174 24.8532 67.7587 24.6822 67.8791 24.5369C68.0041 24.387 68.0968 24.2745 68.157 24.1996C68.2635 24.0777 68.3978 23.9934 68.5599 23.9465C68.722 23.895 68.8841 23.8692 69.0462 23.8692H69.477C69.3797 23.9442 69.2732 24.0707 69.1574 24.2488C69.0416 24.4268 68.9281 24.6189 68.817 24.8251C68.7104 25.0313 68.6155 25.2187 68.5321 25.3874C68.4117 25.6404 68.289 25.9145 68.1639 26.2097C68.0389 26.5049 67.9277 26.7977 67.8305 27.0882C67.7332 27.3788 67.6614 27.6482 67.6151 27.8965C67.6012 27.9715 67.5943 28.0511 67.5943 28.1355C67.5943 28.2386 67.6105 28.3299 67.6429 28.4096C67.6799 28.4846 67.7448 28.5221 67.8374 28.5221C67.9115 28.5221 68.0018 28.4916 68.1083 28.4307H68.1153C68.1246 28.4307 68.1315 28.4401 68.1361 28.4588C68.1408 28.4729 68.1385 28.4846 68.1292 28.4939C68.0412 28.5876 67.9069 28.6673 67.7262 28.7329C67.5456 28.7985 67.3743 28.8313 67.2122 28.8313Z" fill="#13141A"/>
<path d="M70.6102 29C70.2674 29 69.9664 28.9484 69.707 28.8454C69.4477 28.747 69.2462 28.5853 69.1026 28.3604C68.959 28.1355 68.8873 27.8356 68.8873 27.4608C68.8873 27.0859 68.9475 26.7204 69.0679 26.3643C69.1929 26.0035 69.3643 25.6685 69.582 25.3593C69.7997 25.05 70.0544 24.7782 70.3462 24.544C70.6426 24.3097 70.9622 24.1269 71.3049 23.9957C71.6476 23.8645 72.0042 23.7989 72.3748 23.7989C72.787 23.7989 73.1227 23.8692 73.3821 24.0098C73.6415 24.1504 73.8314 24.3425 73.9518 24.5861C74.0768 24.8251 74.1394 25.0945 74.1394 25.3944C74.1394 25.7927 74.0444 26.2097 73.8545 26.6455C73.66 27.0906 73.4053 27.4912 73.0903 27.8473C72.7754 28.2034 72.4072 28.4846 71.9857 28.6907C71.5689 28.8969 71.1104 29 70.6102 29ZM71.2424 28.6275C71.5156 28.5525 71.7842 28.4143 72.0482 28.2128C72.3122 28.0113 72.5508 27.77 72.7638 27.4889C72.9769 27.2077 73.1459 26.9125 73.271 26.6033C73.4655 26.13 73.5627 25.6849 73.5627 25.2679C73.5627 25.2023 73.5581 25.139 73.5488 25.0781C73.5442 25.0172 73.5373 24.9586 73.528 24.9024C73.4771 24.6166 73.359 24.4151 73.1737 24.298C72.9884 24.1808 72.78 24.1222 72.5484 24.1222C72.3076 24.1222 72.0621 24.1714 71.812 24.2698C71.5619 24.3636 71.3466 24.4807 71.1659 24.6213C70.9436 24.7993 70.7375 25.0031 70.5476 25.2327C70.3577 25.4623 70.198 25.706 70.0683 25.9637C69.9571 26.1886 69.8668 26.4346 69.7973 26.7017C69.7325 26.9641 69.7001 27.2194 69.7001 27.4678C69.7001 27.6927 69.7325 27.8989 69.7973 28.0863C69.8622 28.2737 69.9687 28.426 70.1169 28.5431C70.2651 28.6556 70.462 28.7118 70.7074 28.7118C70.8649 28.7118 71.0432 28.6837 71.2424 28.6275Z" fill="#13141A"/>
<path d="M75.8834 28.9297C75.7306 28.9297 75.6287 28.8758 75.5778 28.768C75.5268 28.6556 75.5013 28.5314 75.5013 28.3955C75.5013 28.3018 75.5083 28.2105 75.5222 28.1214C75.5361 28.0277 75.55 27.9504 75.5639 27.8895C75.6009 27.7114 75.6611 27.5006 75.7445 27.2569C75.8279 27.0086 75.9228 26.7485 76.0293 26.4768C76.1405 26.2003 76.2563 25.9286 76.3767 25.6615C76.4971 25.3897 76.6129 25.1367 76.7241 24.9024C76.8398 24.6634 76.9417 24.4596 77.0297 24.2909C76.9232 24.2956 76.8005 24.2956 76.6615 24.2909C76.5226 24.2816 76.379 24.2769 76.2308 24.2769C75.9761 24.2769 75.7236 24.298 75.4735 24.3401C75.2281 24.3776 75.0266 24.469 74.8691 24.6142C74.795 24.6845 74.7418 24.7595 74.7094 24.8391C74.6769 24.9188 74.6607 24.9985 74.6607 25.0781C74.6607 25.1671 74.6746 25.2538 74.7024 25.3382C74.707 25.3475 74.7094 25.3593 74.7094 25.3733C74.7094 25.4202 74.6862 25.4436 74.6399 25.4436C74.6121 25.4436 74.5913 25.4319 74.5774 25.4085C74.531 25.3335 74.4963 25.2585 74.4731 25.1835C74.4546 25.1039 74.4454 25.0266 74.4454 24.9516C74.4454 24.8204 74.4685 24.6962 74.5148 24.5791C74.5611 24.462 74.6167 24.3659 74.6816 24.2909C74.8437 24.0988 75.0637 23.9723 75.3416 23.9114C75.6194 23.8458 75.9089 23.813 76.21 23.813C76.4415 23.813 76.6662 23.8224 76.8838 23.8411C77.1061 23.8598 77.303 23.8739 77.4744 23.8833C77.6365 23.8926 77.8379 23.909 78.0788 23.9325C78.3196 23.9512 78.5535 23.9606 78.7804 23.9606C78.9842 23.9606 79.1672 23.9465 79.3293 23.9184C79.4914 23.8903 79.6095 23.8388 79.6836 23.7638C79.6975 23.7919 79.7044 23.8247 79.7044 23.8622C79.7044 23.9606 79.6488 24.0566 79.5377 24.1504C79.4265 24.2441 79.276 24.3073 79.0861 24.3401C79.0259 24.3495 78.9564 24.3565 78.8777 24.3612C78.8036 24.3659 78.7249 24.3682 78.6415 24.3682C78.5025 24.3682 78.3636 24.3659 78.2247 24.3612C78.0857 24.3518 77.963 24.3425 77.8564 24.3331C77.7499 24.3237 77.6781 24.3214 77.6411 24.3261C77.6133 24.3682 77.5693 24.4456 77.5091 24.558C77.4535 24.6705 77.3933 24.7923 77.3285 24.9235C77.2636 25.0547 77.2057 25.1742 77.1548 25.2819C77.0668 25.4694 76.9742 25.6802 76.8769 25.9145C76.7796 26.1488 76.687 26.3854 76.599 26.6244C76.511 26.8633 76.4346 27.0906 76.3697 27.3061C76.3095 27.5217 76.2702 27.7068 76.2516 27.8614C76.247 27.8754 76.2447 27.8918 76.2447 27.9106C76.2447 27.9246 76.2447 27.9387 76.2447 27.9527C76.2447 28.0418 76.2609 28.1191 76.2933 28.1847C76.3304 28.2456 76.386 28.2761 76.4601 28.2761C76.5249 28.2761 76.6036 28.2409 76.6963 28.1706C76.7889 28.1003 76.8954 27.9832 77.0158 27.8192C77.039 27.7911 77.0598 27.777 77.0784 27.777C77.1061 27.777 77.12 27.8005 77.12 27.8473C77.12 27.8801 77.1085 27.9246 77.0853 27.9809C77.0668 28.0371 77.032 28.1027 76.9811 28.1777C76.9394 28.2386 76.8723 28.3206 76.7796 28.4237C76.687 28.5221 76.5967 28.6064 76.5087 28.6767C76.43 28.7423 76.3327 28.8008 76.2169 28.8524C76.1011 28.9039 75.99 28.9297 75.8834 28.9297Z" fill="#13141A"/>
<path d="M79.4991 28.7751C79.5547 28.5408 79.6288 28.2807 79.7215 27.9949C79.8187 27.7044 79.9276 27.4022 80.048 27.0882C80.173 26.7743 80.3004 26.4627 80.4301 26.1535C80.5598 25.8442 80.6848 25.549 80.8052 25.2679C80.9256 24.9821 81.0646 24.6939 81.2221 24.4034C81.2545 24.3472 81.2823 24.2956 81.3054 24.2488C81.3332 24.2019 81.3633 24.1621 81.3957 24.1293C81.2151 24.134 81.0206 24.1574 80.8122 24.1996C80.6084 24.237 80.4115 24.2909 80.2217 24.3612C80.0364 24.4315 79.8766 24.5135 79.7423 24.6072C79.6126 24.7009 79.5292 24.804 79.4922 24.9165C79.4876 24.9305 79.4783 24.9375 79.4644 24.9375C79.4227 24.9375 79.4019 24.9047 79.4019 24.8391C79.4019 24.8251 79.4065 24.804 79.4158 24.7759C79.4575 24.6541 79.5084 24.5463 79.5686 24.4526C79.6335 24.3589 79.6983 24.2792 79.7631 24.2136C79.916 24.0543 80.0873 23.9582 80.2772 23.9254C80.4671 23.888 80.6686 23.8692 80.8816 23.8692H82.4517C82.3406 23.9536 82.2225 24.0918 82.0974 24.2839C81.9724 24.4713 81.8496 24.6822 81.7292 24.9165C81.6088 25.1507 81.4953 25.3803 81.3888 25.6052C81.2869 25.8302 81.2012 26.0199 81.1317 26.1746C81.0993 26.2495 81.053 26.3643 80.9928 26.5189C80.9326 26.6689 80.8654 26.8399 80.7913 27.032C80.7219 27.2241 80.6547 27.4233 80.5899 27.6294C80.525 27.8309 80.4718 28.0183 80.4301 28.1917C80.3884 28.3651 80.3675 28.508 80.3675 28.6204C80.3675 28.6532 80.3699 28.6837 80.3745 28.7118C80.3838 28.7352 80.3907 28.7563 80.3953 28.7751H79.4991Z" fill="#13141A"/>
<path d="M82.8365 28.7751C82.8921 28.6673 82.9292 28.5314 82.9477 28.3674C82.9708 28.2034 82.9847 28.0301 82.9894 27.8473C82.9986 27.6599 83.0079 27.4795 83.0172 27.3061C83.0264 27.1421 83.0334 26.9735 83.038 26.8001C83.0426 26.6267 83.0449 26.451 83.0449 26.2729C83.0449 26.0246 83.0357 25.781 83.0172 25.542C83.0033 25.2983 82.9755 25.0758 82.9338 24.8743C82.9153 24.7665 82.8782 24.6634 82.8226 24.565C82.7717 24.4666 82.7068 24.4174 82.6281 24.4174C82.5864 24.4174 82.5401 24.4362 82.4892 24.4737C82.4428 24.5065 82.3896 24.5697 82.3294 24.6634C82.3247 24.6728 82.3155 24.6705 82.3016 24.6564C82.2923 24.6423 82.29 24.6306 82.2946 24.6213C82.3317 24.5041 82.4058 24.3776 82.517 24.2417C82.6281 24.1058 82.7462 23.9934 82.8713 23.9044C82.9361 23.8575 82.994 23.8247 83.0449 23.806C83.1005 23.7872 83.1515 23.7779 83.1978 23.7779C83.3367 23.7779 83.4432 23.8505 83.5174 23.9957C83.5915 24.1363 83.6447 24.2956 83.6771 24.4737C83.7096 24.6517 83.7304 24.8673 83.7397 25.1203C83.7536 25.3686 83.7605 25.6287 83.7605 25.9004C83.7605 26.1863 83.7559 26.4697 83.7466 26.7509C83.7373 27.032 83.7258 27.2827 83.7119 27.5029C83.698 27.7232 83.6864 27.8871 83.6771 27.9949C83.8346 27.7747 84.006 27.5146 84.1912 27.2148C84.3765 26.9149 84.5641 26.6009 84.754 26.2729C84.9485 25.945 85.1314 25.6263 85.3028 25.3171C85.4742 25.0031 85.6247 24.7197 85.7544 24.4666C85.8887 24.2136 85.9859 24.0145 86.0461 23.8692H86.6714C86.6019 23.9817 86.4908 24.1597 86.3379 24.4034C86.1851 24.6423 86.0068 24.9188 85.803 25.2327C85.6038 25.5467 85.3931 25.877 85.1708 26.2237C84.9485 26.5658 84.7331 26.9008 84.5247 27.2288C84.3163 27.5521 84.131 27.8403 83.9689 28.0933C83.8809 28.2386 83.7883 28.3815 83.691 28.5221C83.5984 28.6579 83.4826 28.7399 83.3437 28.768C83.3298 28.7727 83.3089 28.7751 83.2811 28.7751H82.8365Z" fill="#13141A"/>
<path d="M86.9504 28.7751C86.8763 28.7751 86.8207 28.7446 86.7836 28.6837C86.7512 28.6228 86.735 28.5431 86.735 28.4447C86.735 28.3089 86.7558 28.1495 86.7975 27.9668C86.8438 27.7841 86.8994 27.5943 86.9643 27.3975C87.0337 27.2007 87.1032 27.0133 87.1727 26.8352C87.2422 26.6525 87.3024 26.4979 87.3533 26.3713H86.9712C86.9342 26.3713 86.9156 26.3573 86.9156 26.3292C86.9156 26.3011 86.9365 26.2636 86.9782 26.2167C87.0198 26.1652 87.0685 26.1207 87.124 26.0832C87.1796 26.0457 87.2259 26.027 87.263 26.027H87.4992C87.615 25.7505 87.7238 25.4928 87.8257 25.2538C87.9276 25.0102 88.055 24.7525 88.2078 24.4807C88.2449 24.4151 88.2796 24.3542 88.312 24.298C88.3444 24.237 88.3815 24.1832 88.4232 24.1363C88.1731 24.1691 87.916 24.2183 87.652 24.2839C87.3927 24.3495 87.1611 24.4338 86.9573 24.5369C86.7535 24.64 86.61 24.7618 86.5266 24.9024C86.522 24.9165 86.5127 24.9235 86.4988 24.9235C86.4895 24.9235 86.4826 24.9141 86.478 24.8954C86.4687 24.8766 86.4664 24.8555 86.471 24.8321C86.5173 24.7103 86.5752 24.5932 86.6447 24.4807C86.7142 24.3682 86.7813 24.2792 86.8462 24.2136C86.9481 24.1058 87.087 24.0285 87.263 23.9817C87.439 23.9348 87.6196 23.9044 87.8049 23.8903C87.9948 23.8762 88.1569 23.8692 88.2912 23.8692H89.6667C89.8288 23.8692 89.9724 23.8645 90.0975 23.8552C90.2271 23.8411 90.336 23.8341 90.424 23.8341C90.5676 23.8341 90.6509 23.8692 90.6741 23.9395C90.6787 23.9582 90.681 23.977 90.681 23.9957C90.6857 24.0098 90.688 24.0285 90.688 24.052C90.688 24.1457 90.6671 24.2534 90.6255 24.3753C90.5838 24.4924 90.5375 24.6072 90.4865 24.7197C90.4402 24.8274 90.4031 24.9165 90.3754 24.9867C90.3707 25.0102 90.3568 25.0266 90.3337 25.0359C90.3151 25.0453 90.2966 25.05 90.2781 25.05C90.2549 25.05 90.2341 25.0453 90.2156 25.0359C90.2017 25.0266 90.197 24.9961 90.2017 24.9446C90.2109 24.8883 90.2225 24.8251 90.2364 24.7548C90.2503 24.6845 90.2573 24.6236 90.2573 24.5721C90.2573 24.4221 90.197 24.3073 90.0766 24.2277C89.9608 24.1433 89.8149 24.1012 89.6389 24.1012C89.5093 24.1012 89.4027 24.1129 89.3194 24.1363C89.236 24.155 89.1689 24.2042 89.1179 24.2839C88.9326 24.5604 88.7636 24.8438 88.6108 25.1343C88.4626 25.4248 88.3236 25.7224 88.1939 26.027H90.0071C90.021 26.027 90.0118 26.0551 89.9794 26.1113C89.9516 26.1675 89.9145 26.2261 89.8682 26.287C89.8265 26.3432 89.7895 26.3713 89.7571 26.3713H88.0411C87.9901 26.5025 87.9299 26.6619 87.8605 26.8493C87.791 27.0367 87.7261 27.2218 87.6659 27.4045C87.6104 27.5873 87.5664 27.7442 87.5339 27.8754C87.5061 27.9879 87.4923 28.0886 87.4923 28.1777C87.4923 28.2948 87.527 28.3838 87.5965 28.4447C87.6706 28.5057 87.7979 28.5361 87.9786 28.5361C88.2287 28.5361 88.4788 28.5267 88.7289 28.508C88.979 28.4846 89.2244 28.4377 89.4653 28.3674C89.6737 28.3065 89.8589 28.2245 90.021 28.1214C90.1878 28.0183 90.3082 27.8895 90.3823 27.7349C90.3916 27.7161 90.4055 27.7068 90.424 27.7068C90.4564 27.7068 90.4726 27.7325 90.4726 27.7841C90.4726 27.7934 90.4703 27.8051 90.4657 27.8192C90.4657 27.8333 90.4634 27.8497 90.4587 27.8684C90.4217 27.9902 90.3777 28.098 90.3267 28.1917C90.2758 28.2854 90.2225 28.3651 90.1669 28.4307C90.0373 28.59 89.8705 28.6884 89.6667 28.7259C89.4629 28.7587 89.2592 28.7751 89.0554 28.7751H86.9504Z" fill="#13141A"/>
<path d="M94.1346 28.9438C93.7456 28.8782 93.4607 28.7071 93.2801 28.4307C93.1041 28.1542 93.0161 27.8262 93.0161 27.4467C93.0161 27.1702 93.0601 26.8821 93.1481 26.5822C93.2361 26.2776 93.3612 25.9801 93.5233 25.6896C93.69 25.3991 93.8891 25.1297 94.1207 24.8813C94.3523 24.6283 94.614 24.4128 94.9058 24.2347C95.1975 24.0566 95.5148 23.9325 95.8575 23.8622C96.0659 23.82 96.2651 23.7989 96.455 23.7989C96.8255 23.7989 97.1219 23.8739 97.3442 24.0238C97.5665 24.1691 97.6777 24.3565 97.6777 24.5861C97.6777 24.633 97.6731 24.6798 97.6638 24.7267C97.6592 24.7689 97.6453 24.8157 97.6221 24.8673C97.5712 25.0031 97.4855 25.125 97.3651 25.2327C97.2493 25.3358 97.115 25.4155 96.9621 25.4717C96.8139 25.5279 96.6611 25.5514 96.5036 25.542C96.4295 25.5326 96.3647 25.5068 96.3091 25.4647C96.2582 25.4178 96.2327 25.3616 96.2327 25.296C96.2327 25.2304 96.2605 25.1601 96.316 25.0851C96.367 25.1039 96.4249 25.1133 96.4897 25.1133C96.6055 25.1133 96.719 25.0851 96.8301 25.0289C96.9413 24.9727 97.0339 24.8954 97.108 24.797C97.1821 24.6986 97.2192 24.5885 97.2192 24.4666C97.2192 24.3026 97.1636 24.1949 97.0525 24.1433C96.9413 24.0871 96.8162 24.059 96.6773 24.059C96.5847 24.059 96.492 24.0684 96.3994 24.0871C96.3114 24.1012 96.2396 24.1152 96.184 24.1293C95.9201 24.1996 95.6491 24.3284 95.3712 24.5158C95.098 24.6986 94.8479 24.9235 94.6209 25.1906C94.394 25.453 94.218 25.7411 94.0929 26.0551C94.0003 26.2847 93.9285 26.5166 93.8776 26.7509C93.8266 26.9852 93.8011 27.2077 93.8011 27.4186C93.8011 27.6904 93.8452 27.9293 93.9332 28.1355C94.0258 28.3417 94.1717 28.4846 94.3708 28.5642C94.5514 28.6345 94.7367 28.6696 94.9266 28.6696C95.2323 28.6696 95.5403 28.5947 95.8506 28.4447C96.1655 28.2948 96.455 28.105 96.719 27.8754C96.8811 27.7302 97.027 27.5802 97.1567 27.4256C97.2863 27.271 97.3859 27.107 97.4554 26.9336C97.5434 26.9899 97.5874 27.0718 97.5874 27.1796C97.5874 27.264 97.5619 27.3553 97.511 27.4537C97.4647 27.5521 97.4091 27.6435 97.3442 27.7278C97.284 27.8122 97.2308 27.8778 97.1844 27.9246C96.8602 28.2667 96.4712 28.5291 96.0173 28.7118C95.5681 28.8946 95.1119 28.9859 94.6487 28.9859C94.4727 28.9859 94.3014 28.9719 94.1346 28.9438Z" fill="#13141A"/>
<path d="M101.371 28.8313C101.195 28.8313 101.061 28.7844 100.968 28.6907C100.875 28.597 100.813 28.4775 100.78 28.3323C100.748 28.187 100.727 28.0371 100.718 27.8825C100.718 27.7934 100.723 27.688 100.732 27.5662C100.741 27.4444 100.753 27.3272 100.767 27.2148C100.785 27.0976 100.799 27.0109 100.808 26.9547H99.2173C98.9209 27.2686 98.6383 27.5756 98.3697 27.8754C98.1057 28.1706 97.8464 28.4705 97.5916 28.7751H96.8969C97.0173 28.6626 97.1748 28.5127 97.3693 28.3253C97.5685 28.1331 97.7931 27.9153 98.0432 27.6716C98.2933 27.428 98.5527 27.1702 98.8213 26.8985C99.0945 26.622 99.3678 26.3456 99.6411 26.0691C99.9143 25.788 100.171 25.5186 100.412 25.2609C100.658 24.9985 100.875 24.7618 101.065 24.551C101.158 24.4479 101.244 24.3448 101.322 24.2417C101.406 24.134 101.498 24.0449 101.6 23.9746C101.702 23.9044 101.827 23.8692 101.975 23.8692H102.476C102.397 23.9442 102.318 24.0707 102.239 24.2488C102.161 24.4268 102.089 24.6189 102.024 24.8251C101.964 25.0313 101.913 25.2187 101.871 25.3874C101.811 25.6404 101.748 25.9145 101.684 26.2097C101.623 26.5049 101.575 26.7977 101.538 27.0882C101.501 27.3788 101.489 27.6482 101.503 27.8965C101.508 27.9855 101.524 28.0793 101.552 28.1777C101.584 28.2714 101.628 28.3534 101.684 28.4237C101.744 28.4893 101.818 28.5221 101.906 28.5221C101.985 28.5221 102.07 28.4916 102.163 28.4307L102.205 28.4939C102.144 28.5876 102.029 28.6673 101.857 28.7329C101.69 28.7985 101.528 28.8313 101.371 28.8313ZM98.592 25.2679C98.5179 25.1882 98.4623 25.1062 98.4253 25.0219C98.3929 24.9375 98.3767 24.8579 98.3767 24.7829C98.3767 24.6892 98.3952 24.6002 98.4322 24.5158C98.4739 24.4268 98.5226 24.3518 98.5781 24.2909C98.6893 24.1644 98.8282 24.0707 98.995 24.0098C99.1617 23.9489 99.3377 23.9114 99.523 23.8973C99.7128 23.8786 99.8935 23.8692 100.065 23.8692H101.621C101.524 23.9676 101.376 24.0449 101.176 24.1012C100.982 24.1527 100.769 24.1925 100.537 24.2206C100.306 24.2441 100.081 24.2675 99.8634 24.2909C99.6503 24.3097 99.4743 24.3354 99.3354 24.3682C99.0899 24.4245 98.9023 24.5322 98.7727 24.6915C98.6476 24.8509 98.5874 25.043 98.592 25.2679ZM99.523 26.6033H100.857C100.912 26.294 100.977 25.9848 101.051 25.6755C101.13 25.3663 101.2 25.0945 101.26 24.8602C100.977 25.132 100.688 25.4155 100.391 25.7107C100.1 26.0012 99.8101 26.2987 99.523 26.6033Z" fill="#13141A"/>
<path d="M102.495 28.7751C102.551 28.5408 102.625 28.2807 102.717 27.9949C102.815 27.7044 102.923 27.4022 103.044 27.0882C103.169 26.7743 103.296 26.4627 103.426 26.1535C103.556 25.8442 103.681 25.549 103.801 25.2679C103.922 24.9821 104.06 24.6939 104.218 24.4034C104.25 24.3472 104.278 24.2956 104.301 24.2488C104.329 24.2019 104.359 24.1621 104.392 24.1293C104.211 24.134 104.016 24.1574 103.808 24.1996C103.604 24.237 103.407 24.2909 103.218 24.3612C103.032 24.4315 102.872 24.5135 102.738 24.6072C102.608 24.7009 102.525 24.804 102.488 24.9165C102.483 24.9305 102.474 24.9375 102.46 24.9375C102.419 24.9375 102.398 24.9047 102.398 24.8391C102.398 24.8251 102.402 24.804 102.412 24.7759C102.453 24.6541 102.504 24.5463 102.564 24.4526C102.629 24.3589 102.694 24.2792 102.759 24.2136C102.912 24.0543 103.083 23.9582 103.273 23.9254C103.463 23.888 103.664 23.8692 103.878 23.8692H105.566C105.76 23.8692 105.934 23.8903 106.087 23.9325C106.24 23.97 106.367 24.0238 106.469 24.0941C106.603 24.1832 106.7 24.2933 106.761 24.4245C106.821 24.551 106.851 24.6845 106.851 24.8251C106.851 25.0406 106.805 25.2327 106.712 25.4014C106.619 25.5701 106.497 25.7154 106.344 25.8372C106.196 25.959 106.029 26.0574 105.844 26.1324C105.658 26.2074 105.471 26.2636 105.281 26.3011L105.059 26.3432C105.17 26.7228 105.311 27.0648 105.482 27.3694C105.654 27.674 105.832 27.941 106.017 28.1706C106.203 28.4002 106.369 28.597 106.517 28.761C106.448 28.7751 106.341 28.7821 106.198 28.7821C106.073 28.7821 105.952 28.7798 105.837 28.7751C105.721 28.7657 105.663 28.761 105.663 28.761C105.547 28.761 105.434 28.6978 105.323 28.5712C105.211 28.4447 105.105 28.2831 105.003 28.0863C104.901 27.8848 104.808 27.6763 104.725 27.4608C104.646 27.2405 104.579 27.0367 104.524 26.8493C104.473 26.6619 104.438 26.5166 104.419 26.4135C104.419 26.3995 104.417 26.3854 104.412 26.3713C104.412 26.3573 104.412 26.3409 104.412 26.3221C104.412 26.294 104.417 26.2706 104.426 26.2519C104.44 26.2284 104.466 26.2144 104.503 26.2097C104.734 26.1816 104.945 26.1394 105.135 26.0832C105.325 26.0223 105.499 25.9403 105.656 25.8372C105.813 25.7294 105.941 25.5982 106.038 25.4436C106.135 25.2843 106.184 25.0969 106.184 24.8813C106.184 24.7079 106.135 24.551 106.038 24.4104C105.945 24.2652 105.795 24.1691 105.587 24.1222C105.531 24.1082 105.471 24.0988 105.406 24.0941C105.346 24.0894 105.283 24.0848 105.218 24.0801C105.116 24.2206 105.01 24.3893 104.899 24.5861C104.788 24.7829 104.679 24.9914 104.572 25.2117C104.466 25.4272 104.364 25.6427 104.267 25.8583C104.174 26.0691 104.091 26.2636 104.016 26.4416C103.979 26.54 103.924 26.6829 103.85 26.8704C103.78 27.0578 103.708 27.2616 103.634 27.4818C103.56 27.7021 103.495 27.9153 103.44 28.1214C103.389 28.3229 103.363 28.4893 103.363 28.6204C103.363 28.6907 103.373 28.7423 103.391 28.7751H102.495Z" fill="#13141A"/>
<path d="M109.749 28.8594C109.615 28.836 109.49 28.8032 109.374 28.761C109.258 28.7142 109.158 28.6556 109.075 28.5853C109.015 28.5291 108.971 28.4635 108.943 28.3885C108.915 28.3089 108.901 28.2245 108.901 28.1355C108.901 27.9855 108.927 27.8309 108.978 27.6716C109.029 27.5076 109.073 27.367 109.11 27.2499C109.198 26.9875 109.302 26.7087 109.422 26.4135C109.548 26.1183 109.673 25.8325 109.798 25.556C109.927 25.2796 110.043 25.0336 110.145 24.8181C110.247 24.6025 110.323 24.4456 110.374 24.3472C110.393 24.3097 110.409 24.2745 110.423 24.2417C110.441 24.2089 110.46 24.1785 110.478 24.1504C110.432 24.155 110.388 24.1621 110.346 24.1714C110.305 24.1761 110.265 24.1808 110.228 24.1855C110.025 24.2136 109.812 24.2605 109.589 24.3261C109.372 24.387 109.175 24.4643 108.999 24.558C108.823 24.6517 108.695 24.7665 108.617 24.9024C108.612 24.9165 108.603 24.9235 108.589 24.9235C108.58 24.9235 108.573 24.9141 108.568 24.8954C108.559 24.8766 108.556 24.8555 108.561 24.8321C108.607 24.7103 108.665 24.5932 108.735 24.4807C108.804 24.3682 108.871 24.2792 108.936 24.2136C109.038 24.1058 109.177 24.0285 109.353 23.9817C109.529 23.9348 109.71 23.9044 109.895 23.8903C110.085 23.8762 110.247 23.8692 110.381 23.8692H111.805C112.273 23.8692 112.648 23.9582 112.931 24.1363C113.218 24.3144 113.426 24.5486 113.556 24.8391C113.686 25.1297 113.751 25.4436 113.751 25.781C113.751 25.8606 113.748 25.9403 113.744 26.0199C113.739 26.0996 113.73 26.1792 113.716 26.2589C113.646 26.6853 113.51 27.0648 113.306 27.3975C113.107 27.7255 112.859 28.0019 112.563 28.2269C112.266 28.4518 111.933 28.6228 111.562 28.7399C111.196 28.8524 110.812 28.9086 110.409 28.9086C110.302 28.9086 110.194 28.9039 110.082 28.8946C109.971 28.8899 109.86 28.8782 109.749 28.8594ZM109.923 28.5853C109.983 28.59 110.043 28.597 110.103 28.6064C110.164 28.6111 110.224 28.6134 110.284 28.6134C110.613 28.6134 110.923 28.5549 111.215 28.4377C111.511 28.3206 111.778 28.1566 112.014 27.9457C112.255 27.7349 112.458 27.4912 112.625 27.2148C112.792 26.9383 112.912 26.6384 112.986 26.3151C113.037 26.0996 113.063 25.8934 113.063 25.6966C113.063 25.4858 113.03 25.2843 112.966 25.0922C112.905 24.8954 112.806 24.7197 112.667 24.565C112.542 24.4245 112.375 24.3167 112.167 24.2417C111.958 24.1621 111.766 24.1152 111.59 24.1012C111.548 24.0965 111.507 24.0941 111.465 24.0941C111.423 24.0894 111.382 24.0871 111.34 24.0871C111.257 24.1996 111.171 24.3331 111.083 24.4877C110.995 24.6377 110.909 24.7923 110.826 24.9516C110.747 25.1109 110.678 25.2562 110.617 25.3874C110.46 25.7294 110.312 26.0715 110.173 26.4135C110.034 26.7556 109.909 27.1046 109.798 27.4608C109.765 27.5638 109.733 27.681 109.7 27.8122C109.668 27.9434 109.652 28.0652 109.652 28.1777C109.652 28.2807 109.67 28.3721 109.707 28.4518C109.749 28.5267 109.821 28.5712 109.923 28.5853Z" fill="#13141A"/>
<path d="M114.251 28.7751C114.177 28.7751 114.121 28.7446 114.084 28.6837C114.052 28.6228 114.035 28.5431 114.035 28.4447C114.035 28.3089 114.056 28.1495 114.098 27.9668C114.144 27.7841 114.2 27.5943 114.265 27.3975C114.334 27.2007 114.404 27.0133 114.473 26.8352C114.543 26.6525 114.603 26.4979 114.654 26.3713H114.272C114.235 26.3713 114.216 26.3573 114.216 26.3292C114.216 26.3011 114.237 26.2636 114.279 26.2167C114.32 26.1652 114.369 26.1207 114.424 26.0832C114.48 26.0457 114.526 26.027 114.563 26.027H114.8C114.915 25.7505 115.024 25.4928 115.126 25.2538C115.228 25.0102 115.355 24.7525 115.508 24.4807C115.545 24.4151 115.58 24.3542 115.612 24.298C115.645 24.237 115.682 24.1832 115.724 24.1363C115.474 24.1691 115.216 24.2183 114.952 24.2839C114.693 24.3495 114.462 24.4338 114.258 24.5369C114.054 24.64 113.91 24.7618 113.827 24.9024C113.822 24.9165 113.813 24.9235 113.799 24.9235C113.79 24.9235 113.783 24.9141 113.778 24.8954C113.769 24.8766 113.767 24.8555 113.771 24.8321C113.818 24.7103 113.876 24.5932 113.945 24.4807C114.015 24.3682 114.082 24.2792 114.147 24.2136C114.248 24.1058 114.387 24.0285 114.563 23.9817C114.739 23.9348 114.92 23.9044 115.105 23.8903C115.295 23.8762 115.457 23.8692 115.592 23.8692H116.967C117.129 23.8692 117.273 23.8645 117.398 23.8552C117.528 23.8411 117.636 23.8341 117.724 23.8341C117.868 23.8341 117.951 23.8692 117.975 23.9395C117.979 23.9582 117.981 23.977 117.981 23.9957C117.986 24.0098 117.988 24.0285 117.988 24.052C117.988 24.1457 117.968 24.2534 117.926 24.3753C117.884 24.4924 117.838 24.6072 117.787 24.7197C117.741 24.8274 117.704 24.9165 117.676 24.9867C117.671 25.0102 117.657 25.0266 117.634 25.0359C117.616 25.0453 117.597 25.05 117.579 25.05C117.555 25.05 117.535 25.0453 117.516 25.0359C117.502 25.0266 117.497 24.9961 117.502 24.9446C117.511 24.8883 117.523 24.8251 117.537 24.7548C117.551 24.6845 117.558 24.6236 117.558 24.5721C117.558 24.4221 117.497 24.3073 117.377 24.2277C117.261 24.1433 117.115 24.1012 116.939 24.1012C116.81 24.1012 116.703 24.1129 116.62 24.1363C116.536 24.155 116.469 24.2042 116.418 24.2839C116.233 24.5604 116.064 24.8438 115.911 25.1343C115.763 25.4248 115.624 25.7224 115.494 26.027H117.308C117.321 26.027 117.312 26.0551 117.28 26.1113C117.252 26.1675 117.215 26.2261 117.169 26.287C117.127 26.3432 117.09 26.3713 117.057 26.3713H115.342C115.291 26.5025 115.23 26.6619 115.161 26.8493C115.091 27.0367 115.027 27.2218 114.966 27.4045C114.911 27.5873 114.867 27.7442 114.834 27.8754C114.807 27.9879 114.793 28.0886 114.793 28.1777C114.793 28.2948 114.827 28.3838 114.897 28.4447C114.971 28.5057 115.098 28.5361 115.279 28.5361C115.529 28.5361 115.779 28.5267 116.029 28.508C116.279 28.4846 116.525 28.4377 116.766 28.3674C116.974 28.3065 117.159 28.2245 117.321 28.1214C117.488 28.0183 117.609 27.8895 117.683 27.7349C117.692 27.7161 117.706 27.7068 117.724 27.7068C117.757 27.7068 117.773 27.7325 117.773 27.7841C117.773 27.7934 117.771 27.8051 117.766 27.8192C117.766 27.8333 117.764 27.8497 117.759 27.8684C117.722 27.9902 117.678 28.098 117.627 28.1917C117.576 28.2854 117.523 28.3651 117.467 28.4307C117.338 28.59 117.171 28.6884 116.967 28.7259C116.763 28.7587 116.56 28.7751 116.356 28.7751H114.251Z" fill="#13141A"/>
<path d="M121.867 28.8313C121.691 28.8313 121.556 28.7844 121.464 28.6907C121.371 28.597 121.309 28.4775 121.276 28.3323C121.244 28.187 121.223 28.0371 121.214 27.8825C121.214 27.7934 121.218 27.688 121.227 27.5662C121.237 27.4444 121.248 27.3272 121.262 27.2148C121.281 27.0976 121.295 27.0109 121.304 26.9547H119.713C119.417 27.2686 119.134 27.5756 118.865 27.8754C118.601 28.1706 118.342 28.4705 118.087 28.7751H117.393C117.513 28.6626 117.67 28.5127 117.865 28.3253C118.064 28.1331 118.289 27.9153 118.539 27.6716C118.789 27.428 119.048 27.1702 119.317 26.8985C119.59 26.622 119.863 26.3456 120.137 26.0691C120.41 25.788 120.667 25.5186 120.908 25.2609C121.153 24.9985 121.371 24.7618 121.561 24.551C121.654 24.4479 121.739 24.3448 121.818 24.2417C121.901 24.134 121.994 24.0449 122.096 23.9746C122.198 23.9044 122.323 23.8692 122.471 23.8692H122.971C122.892 23.9442 122.814 24.0707 122.735 24.2488C122.656 24.4268 122.584 24.6189 122.52 24.8251C122.459 25.0313 122.408 25.2187 122.367 25.3874C122.307 25.6404 122.244 25.9145 122.179 26.2097C122.119 26.5049 122.07 26.7977 122.033 27.0882C121.996 27.3788 121.985 27.6482 121.999 27.8965C122.003 27.9855 122.019 28.0793 122.047 28.1777C122.08 28.2714 122.124 28.3534 122.179 28.4237C122.239 28.4893 122.314 28.5221 122.402 28.5221C122.48 28.5221 122.566 28.4916 122.659 28.4307L122.7 28.4939C122.64 28.5876 122.524 28.6673 122.353 28.7329C122.186 28.7985 122.024 28.8313 121.867 28.8313ZM119.088 25.2679C119.014 25.1882 118.958 25.1062 118.921 25.0219C118.889 24.9375 118.872 24.8579 118.872 24.7829C118.872 24.6892 118.891 24.6002 118.928 24.5158C118.97 24.4268 119.018 24.3518 119.074 24.2909C119.185 24.1644 119.324 24.0707 119.491 24.0098C119.657 23.9489 119.833 23.9114 120.019 23.8973C120.209 23.8786 120.389 23.8692 120.561 23.8692H122.117C122.019 23.9676 121.871 24.0449 121.672 24.1012C121.478 24.1527 121.265 24.1925 121.033 24.2206C120.801 24.2441 120.577 24.2675 120.359 24.2909C120.146 24.3097 119.97 24.3354 119.831 24.3682C119.586 24.4245 119.398 24.5322 119.268 24.6915C119.143 24.8509 119.083 25.043 119.088 25.2679ZM120.019 26.6033H121.353C121.408 26.294 121.473 25.9848 121.547 25.6755C121.626 25.3663 121.695 25.0945 121.755 24.8602C121.473 25.132 121.183 25.4155 120.887 25.7107C120.595 26.0012 120.306 26.2987 120.019 26.6033Z" fill="#13141A"/>
<path d="M123.486 28.7751C123.389 28.7751 123.317 28.7399 123.27 28.6696C123.229 28.5994 123.208 28.5033 123.208 28.3815C123.208 28.3112 123.215 28.2339 123.229 28.1495C123.243 28.0652 123.259 27.9762 123.277 27.8825C123.333 27.6341 123.419 27.36 123.534 27.0601C123.655 26.7556 123.792 26.444 123.944 26.1254C124.102 25.802 124.259 25.4881 124.417 25.1835C124.579 24.879 124.729 24.6002 124.868 24.3472C124.878 24.3284 124.896 24.2933 124.924 24.2417C124.956 24.1902 124.982 24.1527 125 24.1293C124.82 24.134 124.625 24.1574 124.417 24.1996C124.213 24.237 124.016 24.2909 123.826 24.3612C123.641 24.4315 123.481 24.5135 123.347 24.6072C123.217 24.7009 123.134 24.804 123.097 24.9165C123.092 24.9305 123.083 24.9375 123.069 24.9375C123.027 24.9375 123.006 24.9047 123.006 24.8391C123.006 24.8251 123.011 24.804 123.02 24.7759C123.067 24.6541 123.12 24.5463 123.18 24.4526C123.24 24.3589 123.303 24.2792 123.368 24.2136C123.521 24.0543 123.692 23.9582 123.882 23.9254C124.072 23.888 124.273 23.8692 124.486 23.8692H126.063C125.961 23.9489 125.841 24.0941 125.702 24.305C125.563 24.5112 125.419 24.7454 125.271 25.0078C125.206 25.125 125.125 25.2773 125.028 25.4647C124.931 25.6521 124.829 25.8606 124.722 26.0902C124.616 26.3151 124.514 26.5424 124.417 26.772C124.32 27.0016 124.236 27.2194 124.167 27.4256C124.097 27.6271 124.053 27.8005 124.035 27.9457C124.03 27.9691 124.028 27.9926 124.028 28.016C124.028 28.0347 124.028 28.0558 124.028 28.0793C124.028 28.2105 124.062 28.3206 124.132 28.4096C124.201 28.4939 124.331 28.5361 124.521 28.5361C124.766 28.5361 125.014 28.5267 125.264 28.508C125.519 28.4846 125.767 28.4377 126.008 28.3674C126.211 28.3065 126.397 28.2245 126.563 28.1214C126.73 28.0183 126.851 27.8895 126.925 27.7349C126.934 27.7161 126.946 27.7068 126.959 27.7068C126.992 27.7068 127.008 27.7325 127.008 27.7841C127.008 27.7934 127.006 27.8051 127.001 27.8192C127.001 27.8333 126.999 27.8497 126.994 27.8684C126.957 27.9902 126.913 28.098 126.862 28.1917C126.811 28.2854 126.76 28.3651 126.709 28.4307C126.58 28.59 126.411 28.6884 126.202 28.7259C125.998 28.7587 125.795 28.7751 125.591 28.7751H123.486Z" fill="#13141A"/>
<path d="M127.175 28.7751C127.101 28.7751 127.045 28.7446 127.008 28.6837C126.976 28.6228 126.96 28.5431 126.96 28.4447C126.96 28.3089 126.981 28.1495 127.022 27.9668C127.069 27.7841 127.124 27.5943 127.189 27.3975C127.258 27.2007 127.328 27.0133 127.397 26.8352C127.467 26.6525 127.527 26.4979 127.578 26.3713H127.196C127.159 26.3713 127.14 26.3573 127.14 26.3292C127.14 26.3011 127.161 26.2636 127.203 26.2167C127.245 26.1652 127.293 26.1207 127.349 26.0832C127.404 26.0457 127.451 26.027 127.488 26.027H127.724C127.84 25.7505 127.949 25.4928 128.05 25.2538C128.152 25.0102 128.28 24.7525 128.433 24.4807C128.47 24.4151 128.504 24.3542 128.537 24.298C128.569 24.237 128.606 24.1832 128.648 24.1363C128.398 24.1691 128.141 24.2183 127.877 24.2839C127.617 24.3495 127.386 24.4338 127.182 24.5369C126.978 24.64 126.835 24.7618 126.751 24.9024C126.747 24.9165 126.737 24.9235 126.724 24.9235C126.714 24.9235 126.707 24.9141 126.703 24.8954C126.693 24.8766 126.691 24.8555 126.696 24.8321C126.742 24.7103 126.8 24.5932 126.869 24.4807C126.939 24.3682 127.006 24.2792 127.071 24.2136C127.173 24.1058 127.312 24.0285 127.488 23.9817C127.664 23.9348 127.844 23.9044 128.03 23.8903C128.219 23.8762 128.382 23.8692 128.516 23.8692H129.891C130.054 23.8692 130.197 23.8645 130.322 23.8552C130.452 23.8411 130.561 23.8341 130.649 23.8341C130.792 23.8341 130.876 23.8692 130.899 23.9395C130.903 23.9582 130.906 23.977 130.906 23.9957C130.91 24.0098 130.913 24.0285 130.913 24.052C130.913 24.1457 130.892 24.2534 130.85 24.3753C130.808 24.4924 130.762 24.6072 130.711 24.7197C130.665 24.8274 130.628 24.9165 130.6 24.9867C130.595 25.0102 130.582 25.0266 130.558 25.0359C130.54 25.0453 130.521 25.05 130.503 25.05C130.48 25.05 130.459 25.0453 130.44 25.0359C130.426 25.0266 130.422 24.9961 130.426 24.9446C130.436 24.8883 130.447 24.8251 130.461 24.7548C130.475 24.6845 130.482 24.6236 130.482 24.5721C130.482 24.4221 130.422 24.3073 130.301 24.2277C130.186 24.1433 130.04 24.1012 129.864 24.1012C129.734 24.1012 129.627 24.1129 129.544 24.1363C129.461 24.155 129.394 24.2042 129.343 24.2839C129.157 24.5604 128.988 24.8438 128.835 25.1343C128.687 25.4248 128.548 25.7224 128.419 26.027H130.232C130.246 26.027 130.237 26.0551 130.204 26.1113C130.176 26.1675 130.139 26.2261 130.093 26.287C130.051 26.3432 130.014 26.3713 129.982 26.3713H128.266C128.215 26.5025 128.155 26.6619 128.085 26.8493C128.016 27.0367 127.951 27.2218 127.891 27.4045C127.835 27.5873 127.791 27.7442 127.759 27.8754C127.731 27.9879 127.717 28.0886 127.717 28.1777C127.717 28.2948 127.752 28.3838 127.821 28.4447C127.895 28.5057 128.023 28.5361 128.203 28.5361C128.453 28.5361 128.703 28.5267 128.954 28.508C129.204 28.4846 129.449 28.4377 129.69 28.3674C129.898 28.3065 130.084 28.2245 130.246 28.1214C130.413 28.0183 130.533 27.8895 130.607 27.7349C130.616 27.7161 130.63 27.7068 130.649 27.7068C130.681 27.7068 130.697 27.7325 130.697 27.7841C130.697 27.7934 130.695 27.8051 130.69 27.8192C130.69 27.8333 130.688 27.8497 130.683 27.8684C130.646 27.9902 130.602 28.098 130.551 28.1917C130.5 28.2854 130.447 28.3651 130.392 28.4307C130.262 28.59 130.095 28.6884 129.891 28.7259C129.688 28.7587 129.484 28.7751 129.28 28.7751H127.175Z" fill="#13141A"/>
<path d="M131.329 28.7751C131.384 28.5408 131.458 28.2807 131.551 27.9949C131.648 27.7044 131.757 27.4022 131.878 27.0882C132.003 26.7743 132.13 26.4627 132.26 26.1535C132.389 25.8442 132.514 25.549 132.635 25.2679C132.755 24.9821 132.894 24.6939 133.052 24.4034C133.084 24.3472 133.112 24.2956 133.135 24.2488C133.163 24.2019 133.193 24.1621 133.225 24.1293C133.045 24.134 132.85 24.1574 132.642 24.1996C132.438 24.237 132.241 24.2909 132.051 24.3612C131.866 24.4315 131.706 24.5135 131.572 24.6072C131.442 24.7009 131.359 24.804 131.322 24.9165C131.317 24.9305 131.308 24.9375 131.294 24.9375C131.252 24.9375 131.231 24.9047 131.231 24.8391C131.231 24.8251 131.236 24.804 131.245 24.7759C131.287 24.6541 131.338 24.5463 131.398 24.4526C131.463 24.3589 131.528 24.2792 131.593 24.2136C131.746 24.0543 131.917 23.9582 132.107 23.9254C132.297 23.888 132.498 23.8692 132.711 23.8692H134.399C134.594 23.8692 134.768 23.8903 134.92 23.9325C135.073 23.97 135.201 24.0238 135.303 24.0941C135.437 24.1832 135.534 24.2933 135.594 24.4245C135.655 24.551 135.685 24.6845 135.685 24.8251C135.685 25.0406 135.638 25.2327 135.546 25.4014C135.453 25.5701 135.33 25.7154 135.177 25.8372C135.029 25.959 134.863 26.0574 134.677 26.1324C134.492 26.2074 134.304 26.2636 134.115 26.3011L133.892 26.3432C134.003 26.7228 134.145 27.0648 134.316 27.3694C134.487 27.674 134.666 27.941 134.851 28.1706C135.036 28.4002 135.203 28.597 135.351 28.761C135.282 28.7751 135.175 28.7821 135.032 28.7821C134.907 28.7821 134.786 28.7798 134.67 28.7751C134.555 28.7657 134.497 28.761 134.497 28.761C134.381 28.761 134.267 28.6978 134.156 28.5712C134.045 28.4447 133.939 28.2831 133.837 28.0863C133.735 27.8848 133.642 27.6763 133.559 27.4608C133.48 27.2405 133.413 27.0367 133.357 26.8493C133.306 26.6619 133.272 26.5166 133.253 26.4135C133.253 26.3995 133.251 26.3854 133.246 26.3713C133.246 26.3573 133.246 26.3409 133.246 26.3221C133.246 26.294 133.251 26.2706 133.26 26.2519C133.274 26.2284 133.299 26.2144 133.336 26.2097C133.568 26.1816 133.779 26.1394 133.969 26.0832C134.159 26.0223 134.332 25.9403 134.49 25.8372C134.647 25.7294 134.775 25.5982 134.872 25.4436C134.969 25.2843 135.018 25.0969 135.018 24.8813C135.018 24.7079 134.969 24.551 134.872 24.4104C134.779 24.2652 134.629 24.1691 134.42 24.1222C134.365 24.1082 134.304 24.0988 134.24 24.0941C134.179 24.0894 134.117 24.0848 134.052 24.0801C133.95 24.2206 133.844 24.3893 133.732 24.5861C133.621 24.7829 133.512 24.9914 133.406 25.2117C133.299 25.4272 133.198 25.6427 133.1 25.8583C133.008 26.0691 132.924 26.2636 132.85 26.4416C132.813 26.54 132.758 26.6829 132.683 26.8704C132.614 27.0578 132.542 27.2616 132.468 27.4818C132.394 27.7021 132.329 27.9153 132.274 28.1214C132.223 28.3229 132.197 28.4893 132.197 28.6204C132.197 28.6907 132.206 28.7423 132.225 28.7751H131.329Z" fill="#13141A"/>
<path d="M136.562 28.8313C136.544 28.8219 136.507 28.8055 136.451 28.7821C136.4 28.7587 136.352 28.7306 136.305 28.6978C136.25 28.6556 136.222 28.604 136.222 28.5431C136.222 28.4775 136.252 28.4143 136.312 28.3534C136.359 28.3018 136.417 28.2597 136.486 28.2269C136.555 28.1941 136.632 28.1777 136.715 28.1777C136.794 28.1777 136.861 28.1917 136.917 28.2198C136.972 28.2433 137 28.2878 137 28.3534C137 28.3674 136.995 28.3932 136.986 28.4307C136.949 28.4354 136.901 28.4635 136.84 28.515C136.78 28.5666 136.722 28.6228 136.667 28.6837C136.616 28.7446 136.581 28.7938 136.562 28.8313Z" fill="#13141A"/>
<path d="M33.4341 11.8046L31.3607 10.1481L31.3358 10.1265L33.2661 9.74081C33.3913 9.7159 33.504 9.64837 33.5849 9.54975C33.6659 9.45113 33.71 9.32753 33.7098 9.20003V7.54457C33.7098 7.39821 33.6516 7.25786 33.548 7.15437C33.4444 7.05088 33.3038 6.99275 33.1572 6.99275H30.3941C30.2476 6.99275 30.107 7.05088 30.0034 7.15437C29.8997 7.25786 29.8415 7.39821 29.8415 7.54457V8.51136L29.8034 8.46004C29.7683 8.36633 29.7076 8.28432 29.6282 8.22331C29.3171 7.7835 29.0507 7.34315 28.8772 6.9624L27.9433 4.91128C27.3481 3.60292 25.7543 2.57819 24.3153 2.57819H11.0524C9.61339 2.57819 8.01963 3.60292 7.42446 4.91128L6.49108 6.96184C6.31756 7.3426 6.05119 7.7835 5.74007 8.22331C5.66082 8.28446 5.60016 8.36643 5.56489 8.46004L5.52676 8.51136V7.54457C5.52676 7.39821 5.46853 7.25786 5.3649 7.15437C5.26126 7.05088 5.1207 6.99275 4.97414 6.99275H2.21048C2.06392 6.99275 1.92336 7.05088 1.81972 7.15437C1.71608 7.25786 1.65786 7.39821 1.65786 7.54457V9.20003C1.65786 9.46324 1.84354 9.68949 2.10217 9.74081L4.03247 10.1265L4.0076 10.1481L1.93362 11.8046C0.849378 12.671 0 14.4357 0 15.8219V25.2028C0 26.1155 0.743827 26.8583 1.65786 26.8583H6.07882C6.99286 26.8583 7.73669 26.1155 7.73669 25.2028V24.0992H27.631V25.2028C27.631 26.1155 28.3748 26.8583 29.2889 26.8583H33.7098C34.6239 26.8583 35.3677 26.1155 35.3677 25.2028V15.8219C35.3677 14.4357 34.5183 12.671 33.4341 11.8046ZM28.4124 22.9955L27.1453 21.7302C26.6076 21.1933 25.6283 20.7882 24.8679 20.7882H10.2235C9.46307 20.7882 8.48383 21.1933 7.94613 21.7302L6.67897 22.9955H2.7631C1.84907 22.9955 1.10524 22.2528 1.10524 21.3401V18.581H1.65786V19.1328C1.65786 20.3501 2.64926 21.3401 3.86834 21.3401H5.5262C5.67277 21.3401 5.81333 21.2819 5.91697 21.1784C6.0206 21.075 6.07882 20.9346 6.07882 20.7882C6.07882 20.6419 6.0206 20.5015 5.91697 20.3981C5.81333 20.2946 5.67277 20.2364 5.5262 20.2364H3.86834C3.2588 20.2364 2.7631 19.7414 2.7631 19.1328V18.581H3.86834C4.32702 18.581 5.0399 18.8756 5.36429 19.1996C5.41549 19.251 5.47637 19.2918 5.54342 19.3196C5.61047 19.3475 5.68237 19.3618 5.75499 19.3618C5.82761 19.3618 5.89951 19.3475 5.96656 19.3196C6.03361 19.2918 6.09449 19.251 6.14569 19.1996C6.19706 19.1484 6.2378 19.0875 6.26561 19.0206C6.29341 18.9537 6.30772 18.8819 6.30772 18.8094C6.30772 18.7369 6.29341 18.6652 6.26561 18.5982C6.2378 18.5313 6.19706 18.4705 6.14569 18.4193C5.60799 17.8824 4.6293 17.4773 3.86834 17.4773H1.10524V15.8219C1.10524 15.6271 1.13619 15.4168 1.17984 15.2022C1.53352 15.5708 2.04801 15.8219 2.7631 15.8219H7.18407C7.33062 15.8218 7.47116 15.7637 7.57477 15.6602L8.28931 14.9467L9.00384 15.6602C9.05509 15.7115 9.11599 15.7522 9.18304 15.7799C9.25009 15.8077 9.32197 15.8219 9.39455 15.8219H15.7972L17.2932 17.3156C17.3444 17.3671 17.4052 17.4079 17.4723 17.4357C17.5393 17.4636 17.6112 17.4779 17.6839 17.4779C17.7565 17.4779 17.8284 17.4636 17.8954 17.4357C17.9625 17.4079 18.0234 17.3671 18.0746 17.3156L19.5705 15.8219H25.9732C26.1196 15.8219 26.2605 15.7639 26.3639 15.6602L27.0784 14.9467L27.7929 15.6602C27.8442 15.7115 27.9051 15.7522 27.9721 15.7799C28.0392 15.8077 28.1111 15.8219 28.1836 15.8219H32.6046C33.3197 15.8219 33.8342 15.5708 34.1879 15.2022C34.2315 15.4168 34.2625 15.6271 34.2625 15.8219V17.4773H31.4994C30.739 17.4773 29.7597 17.8824 29.222 18.4193C29.1707 18.4705 29.13 18.5313 29.1022 18.5983C29.0745 18.6652 29.0602 18.737 29.0602 18.8094C29.0602 18.8819 29.0745 18.9536 29.1022 19.0206C29.13 19.0875 29.1707 19.1483 29.222 19.1996C29.2733 19.2508 29.3342 19.2914 29.4013 19.3192C29.4683 19.3469 29.5402 19.3612 29.6127 19.3612C29.6853 19.3612 29.7571 19.3469 29.8242 19.3192C29.8912 19.2914 29.9521 19.2508 30.0034 19.1996C30.3278 18.8756 31.0407 18.581 31.4994 18.581H32.6046V19.1328C32.6046 19.7414 32.1089 20.2364 31.4994 20.2364H29.8415C29.6949 20.2364 29.5544 20.2946 29.4507 20.3981C29.3471 20.5015 29.2889 20.6419 29.2889 20.7882C29.2889 20.9346 29.3471 21.075 29.4507 21.1784C29.5544 21.2819 29.6949 21.3401 29.8415 21.3401H31.4994C32.7184 21.3401 33.7098 20.3501 33.7098 19.1328V18.581H34.2625V21.3401C34.2625 22.2528 33.5186 22.9955 32.6046 22.9955H28.4124ZM26.8496 22.9955H8.24178L8.72754 22.5105C9.05192 22.1866 9.7648 21.8919 10.2235 21.8919H24.8679C25.3266 21.8919 26.0395 22.1866 26.3639 22.5105L26.8496 22.9955ZM6.38829 9.20003H28.9794C29.5149 9.90691 30.1267 10.5757 30.6699 11.01L31.3347 11.5408L27.426 13.1019L27.4249 13.1025C27.356 13.1302 27.2934 13.1715 27.2409 13.2239L26.6883 13.7757L25.7444 14.7182H19.3417C19.2691 14.7182 19.1973 14.7324 19.1302 14.7601C19.0632 14.7879 19.0023 14.8286 18.951 14.8799L17.6839 16.1452L16.4167 14.8799C16.3654 14.8286 16.3045 14.7879 16.2375 14.7601C16.1705 14.7324 16.0986 14.7182 16.026 14.7182H9.62333L8.68001 13.7763L8.12739 13.2245C8.07483 13.1721 8.01225 13.1308 7.94337 13.1031L7.94226 13.1025L4.03358 11.5414L4.69838 11.0105C5.24105 10.5757 5.8528 9.90691 6.38829 9.20003ZM33.6772 13.8458C33.5662 14.4225 33.2081 14.7182 32.6046 14.7182H28.4124L27.8598 14.1664L27.9416 14.0847L32.3266 12.3333L32.7433 12.6666C33.0937 12.9463 33.417 13.3718 33.6772 13.8458ZM30.9467 8.09639H32.6046V8.74753L30.9467 9.07863V8.09639ZM7.4963 7.41875L8.42967 5.36819C8.84635 4.45382 10.0472 3.68183 11.0524 3.68183H24.3153C25.3205 3.68183 26.5214 4.45382 26.9375 5.36764L27.8714 7.41875C27.9687 7.63175 28.0952 7.86186 28.2339 8.09639H7.13378C7.27249 7.86186 7.39959 7.63175 7.4963 7.41875ZM2.7631 8.09639H4.42096V9.07863L2.7631 8.74753V8.09639ZM2.62384 12.6666L3.04052 12.3333L7.42611 14.0847L7.5079 14.1664L6.95528 14.7182H2.7631C2.15964 14.7182 1.80154 14.4225 1.69047 13.8458C1.95075 13.3718 2.27348 12.9463 2.62384 12.6666ZM6.07882 25.7546H1.65786C1.35337 25.7546 1.10524 25.5069 1.10524 25.2028V23.5336C1.5809 23.8983 2.16336 24.0971 2.7631 24.0992H6.63145V25.2028C6.63145 25.5069 6.38332 25.7546 6.07882 25.7546ZM33.7098 25.7546H29.2889C28.9844 25.7546 28.7363 25.5069 28.7363 25.2028V24.0992H32.6046C33.2291 24.0992 33.7994 23.8834 34.2625 23.5336V25.2028C34.2625 25.5069 34.0143 25.7546 33.7098 25.7546Z" fill="#46D993"/>
</svg>
