<svg width="56" height="38" viewBox="0 0 56 38" fill="none" xmlns="http://www.w3.org/2000/svg">
<path d="M52.9384 14.44L49.6554 11.8474L49.616 11.8137L52.6724 11.21C52.8706 11.171 53.0491 11.0653 53.1772 10.911C53.3053 10.7566 53.3753 10.5632 53.375 10.3636V7.77273C53.375 7.54368 53.2828 7.32401 53.1187 7.16204C52.9546 7.00008 52.7321 6.90909 52.5 6.90909H48.125C47.8929 6.90909 47.6704 7.00008 47.5063 7.16204C47.3422 7.32401 47.25 7.54368 47.25 7.77273V9.28582L47.1896 9.2055C47.1341 9.05884 47.038 8.93049 46.9122 8.835C46.4196 8.14668 45.9979 7.4575 45.7231 6.86159L44.2444 3.65145C43.302 1.60377 40.7785 0 38.5 0H17.5C15.2215 0 12.698 1.60377 11.7556 3.65145L10.2778 6.86073C10.003 7.45664 9.58125 8.14668 9.08862 8.835C8.96314 8.93071 8.8671 9.059 8.81125 9.2055L8.75088 9.28582V7.77273C8.75088 7.54368 8.65869 7.32401 8.49459 7.16204C8.3305 7.00008 8.10794 6.90909 7.87588 6.90909H3.5C3.26794 6.90909 3.04538 7.00008 2.88128 7.16204C2.71719 7.32401 2.625 7.54368 2.625 7.77273V10.3636C2.625 10.7756 2.919 11.1297 3.3285 11.21L6.38487 11.8137L6.3455 11.8474L3.06163 14.44C1.34488 15.7959 0 18.5578 0 20.7273V35.4091C0 36.8375 1.17775 38 2.625 38H9.625C11.0723 38 12.25 36.8375 12.25 35.4091V33.6818H43.75V35.4091C43.75 36.8375 44.9277 38 46.375 38H53.375C54.8223 38 56 36.8375 56 35.4091V20.7273C56 18.5578 54.6551 15.7959 52.9384 14.44ZM44.9873 31.9545L42.9809 29.9742C42.1295 29.1339 40.579 28.5 39.375 28.5H16.1875C14.9835 28.5 13.433 29.1339 12.5816 29.9742L10.5753 31.9545H4.375C2.92775 31.9545 1.75 30.7921 1.75 29.3636V25.0455H2.625V25.9091C2.625 27.8143 4.19475 29.3636 6.125 29.3636H8.75C8.98206 29.3636 9.20462 29.2726 9.36872 29.1107C9.53281 28.9487 9.625 28.7291 9.625 28.5C9.625 28.271 9.53281 28.0513 9.36872 27.8893C9.20462 27.7274 8.98206 27.6364 8.75 27.6364H6.125C5.15987 27.6364 4.375 26.8617 4.375 25.9091V25.0455H6.125C6.85125 25.0455 7.98 25.5066 8.49362 26.0136C8.5747 26.0941 8.67109 26.1579 8.77725 26.2015C8.88342 26.2451 8.99727 26.2675 9.11225 26.2675C9.22723 26.2675 9.34108 26.2451 9.44725 26.2015C9.55341 26.1579 9.6498 26.0941 9.73088 26.0136C9.8122 25.9335 9.87672 25.8383 9.92074 25.7335C9.96477 25.6287 9.98743 25.5164 9.98743 25.403C9.98743 25.2896 9.96477 25.1773 9.92074 25.0725C9.87672 24.9677 9.8122 24.8725 9.73088 24.7924C8.8795 23.9521 7.32987 23.3182 6.125 23.3182H1.75V20.7273C1.75 20.4224 1.799 20.0934 1.86812 19.7574C2.42812 20.3343 3.24275 20.7273 4.375 20.7273H11.375C11.607 20.7272 11.8296 20.6362 11.9936 20.4742L13.125 19.3575L14.2564 20.4742C14.3375 20.5545 14.4339 20.6182 14.5401 20.6617C14.6463 20.7051 14.7601 20.7274 14.875 20.7273H25.0128L27.3814 23.0651C27.4624 23.1456 27.5588 23.2095 27.665 23.2531C27.7712 23.2966 27.885 23.3191 28 23.3191C28.115 23.3191 28.2288 23.2966 28.335 23.2531C28.4412 23.2095 28.5376 23.1456 28.6186 23.0651L30.9873 20.7273H41.125C41.3569 20.7273 41.58 20.6366 41.7436 20.4742L42.875 19.3575L44.0064 20.4742C44.0875 20.5545 44.1839 20.6182 44.2901 20.6617C44.3963 20.7051 44.5101 20.7274 44.625 20.7273H51.625C52.7573 20.7273 53.5719 20.3343 54.1319 19.7574C54.201 20.0934 54.25 20.4224 54.25 20.7273V23.3182H49.875C48.671 23.3182 47.1205 23.9521 46.2691 24.7924C46.1879 24.8726 46.1234 24.9678 46.0795 25.0726C46.0355 25.1773 46.0129 25.2896 46.0129 25.403C46.0129 25.5164 46.0355 25.6287 46.0795 25.7335C46.1234 25.8382 46.1879 25.9334 46.2691 26.0136C46.3504 26.0938 46.4468 26.1574 46.553 26.2008C46.6591 26.2442 46.7729 26.2665 46.8877 26.2665C47.0026 26.2665 47.1164 26.2442 47.2225 26.2008C47.3287 26.1574 47.4251 26.0938 47.5064 26.0136C48.02 25.5066 49.1488 25.0455 49.875 25.0455H51.625V25.9091C51.625 26.8617 50.8401 27.6364 49.875 27.6364H47.25C47.0179 27.6364 46.7954 27.7274 46.6313 27.8893C46.4672 28.0513 46.375 28.271 46.375 28.5C46.375 28.7291 46.4672 28.9487 46.6313 29.1107C46.7954 29.2726 47.0179 29.3636 47.25 29.3636H49.875C51.8052 29.3636 53.375 27.8143 53.375 25.9091V25.0455H54.25V29.3636C54.25 30.7921 53.0723 31.9545 51.625 31.9545H44.9873ZM42.5127 31.9545H13.0497L13.8189 31.1954C14.3325 30.6885 15.4613 30.2273 16.1875 30.2273H39.375C40.1012 30.2273 41.23 30.6885 41.7436 31.1954L42.5127 31.9545ZM10.115 10.3636H45.885C46.7329 11.47 47.7015 12.5167 48.5616 13.1964L49.6143 14.0272L43.4254 16.4704L43.4236 16.4713C43.3146 16.5147 43.2155 16.5793 43.1322 16.6613L42.2572 17.5249L40.7627 19H30.625C30.5101 18.9999 30.3963 19.0222 30.2901 19.0656C30.1839 19.109 30.0875 19.1727 30.0064 19.253L28 21.2334L25.9936 19.253C25.9125 19.1727 25.8161 19.109 25.7099 19.0656C25.6037 19.0222 25.4899 18.9999 25.375 19H15.2372L13.7436 17.5258L12.8686 16.6621C12.7854 16.5801 12.6863 16.5155 12.5772 16.4721L12.5755 16.4713L6.38662 14.028L7.43925 13.1972C8.2985 12.5167 9.26713 11.47 10.115 10.3636ZM53.3234 17.6346C53.1475 18.5371 52.5805 19 51.625 19H44.9873L44.1123 18.1364L44.2417 18.0085L51.1849 15.2674L51.8446 15.789C52.3994 16.2269 52.9113 16.8927 53.3234 17.6346ZM49 8.63636H51.625V9.65545L49 10.1736V8.63636ZM11.8694 7.57582L13.3472 4.36655C14.007 2.9355 15.9084 1.72727 17.5 1.72727H38.5C40.0916 1.72727 41.993 2.9355 42.6519 4.36568L44.1306 7.57582C44.2846 7.90918 44.485 8.26932 44.7046 8.63636H11.2954C11.515 8.26932 11.7162 7.90918 11.8694 7.57582ZM4.375 8.63636H7V10.1736L4.375 9.65545V8.63636ZM4.1545 15.789L4.81425 15.2674L11.7582 18.0085L11.8878 18.1364L11.0128 19H4.375C3.4195 19 2.8525 18.5371 2.67663 17.6346C3.08875 16.8927 3.59975 16.2269 4.1545 15.789ZM9.625 36.2727H2.625C2.14287 36.2727 1.75 35.885 1.75 35.4091V32.7966C2.50314 33.3675 3.42538 33.6785 4.375 33.6818H10.5V35.4091C10.5 35.885 10.1071 36.2727 9.625 36.2727ZM53.375 36.2727H46.375C45.8929 36.2727 45.5 35.885 45.5 35.4091V33.6818H51.625C52.6138 33.6818 53.5168 33.3441 54.25 32.7966V35.4091C54.25 35.885 53.8571 36.2727 53.375 36.2727Z" fill="#13141A"/>
</svg>
