<svg width="44" height="44" viewBox="0 0 44 44" fill="none" xmlns="http://www.w3.org/2000/svg">
<mask id="mask0_2660_3209" style="mask-type:alpha" maskUnits="userSpaceOnUse" x="0" y="0" width="44" height="44">
<rect width="44" height="44" fill="#D9D9D9"/>
</mask>
<g mask="url(#mask0_2660_3209)">
<path d="M40.0338 18.9714C40.7734 18.9714 41.3752 18.3677 41.3752 17.6255V15.9289H42.6586C43.3983 15.9289 44 15.3252 44 14.583V11.498C44 10.7558 43.3983 10.1521 42.6586 10.1521H41.843L22.7749 0.19051C22.2897 -0.0620774 21.7104 -0.0635534 21.2261 0.186429L1.85617 10.1521H1.34141C0.601731 10.1521 0 10.7558 0 11.498V14.583C0 15.3252 0.601731 15.9289 1.34141 15.9289H2.62484V17.6255C2.62484 18.3677 3.22657 18.9714 3.96625 18.9714H4.35569V35.1816H3.96625C3.22657 35.1816 2.62484 35.7853 2.62484 36.5275V38.2232H1.34141C0.601731 38.2232 0 38.827 0 39.5691V42.6541C0 43.3963 0.601731 44 1.34141 44H30.7157C31.0743 44 31.3648 43.7085 31.3648 43.3488C31.3648 42.989 31.0743 42.6976 30.7157 42.6976H1.34141C1.32998 42.6974 1.31907 42.6928 1.31099 42.6847C1.30291 42.6766 1.2983 42.6656 1.29814 42.6541V39.5691C1.29814 39.5459 1.3183 39.5257 1.34141 39.5257H42.6586C42.6817 39.5257 42.7019 39.5459 42.7019 39.5691V42.6541C42.7019 42.6777 42.682 42.6976 42.6586 42.6976H33.7447C33.3862 42.6976 33.0956 42.989 33.0956 43.3488C33.0956 43.7085 33.3862 44 33.7447 44H42.6586C43.3983 44 44 43.3963 44 42.6541V39.5691C44 38.827 43.3983 38.2232 42.6586 38.2232H41.1588V36.6873C41.1588 35.9452 40.5571 35.3414 39.8174 35.3414H39.6443V18.9714H40.0338ZM40.077 17.6255C40.077 17.6494 40.0575 17.6689 40.0338 17.6689H33.1969C33.1854 17.6689 33.1744 17.6643 33.1663 17.6562C33.1582 17.6481 33.1536 17.637 33.1536 17.6255V15.9289H40.077V17.6255ZM33.4132 35.3414C32.6736 35.3414 32.0718 35.9452 32.0718 36.6873V38.2232H29.2029V25.9959C29.2029 24.0665 28.4538 22.2517 27.0931 20.8855C25.7319 19.5208 23.9232 18.7691 22 18.7691C18.0283 18.7691 14.7971 22.011 14.7971 25.9958V38.2231H12.1445V36.5274C12.1445 35.7852 11.5428 35.1815 10.8031 35.1815H10.4137V18.9714H10.8031C11.5428 18.9714 12.1445 18.3677 12.1445 17.6255V15.9289H31.8555V17.6255C31.8555 18.3677 32.4572 18.9714 33.1969 18.9714H33.5863V35.3414H33.4132V35.3414ZM27.9048 38.2232H16.0952V25.9959C16.0952 22.7292 18.7441 20.0716 22 20.0716C23.5765 20.0716 25.0595 20.6879 26.1752 21.8065C27.2906 22.9263 27.9048 24.4142 27.9048 25.9959V38.2232ZM1.29814 14.583V11.498C1.29814 11.4744 1.31796 11.4546 1.34141 11.4546H9.07399C9.43245 11.4546 9.72306 11.1631 9.72306 10.8033C9.72306 10.4436 9.43245 10.1521 9.07399 10.1521H4.70117L21.8193 1.34491C21.8746 1.31653 21.9358 1.30184 21.9979 1.30205C22.06 1.30226 22.1212 1.31737 22.1763 1.34612L39.0322 10.1521H12.103C11.7445 10.1521 11.4539 10.4436 11.4539 10.8033C11.4539 11.1631 11.7445 11.4546 12.103 11.4546H42.6586C42.682 11.4546 42.7019 11.4744 42.7019 11.498V14.583C42.7019 14.6066 42.682 14.6264 42.6586 14.6264H1.34141C1.32998 14.6263 1.31905 14.6217 1.31096 14.6136C1.30288 14.6055 1.29827 14.5945 1.29814 14.583ZM3.92298 17.6255V15.9289H10.8464V17.6255C10.8464 17.637 10.8418 17.6481 10.8337 17.6562C10.8256 17.6644 10.8146 17.6689 10.8031 17.6689H3.96625C3.95477 17.6689 3.94377 17.6644 3.93565 17.6562C3.92754 17.6481 3.92298 17.637 3.92298 17.6255ZM5.65383 18.9714H9.11553V35.1816H5.65383V18.9714ZM3.92298 36.5275C3.92298 36.5159 3.92754 36.5049 3.93565 36.4968C3.94377 36.4886 3.95477 36.484 3.96625 36.484H10.8031C10.8146 36.484 10.8256 36.4886 10.8337 36.4968C10.8418 36.5049 10.8464 36.5159 10.8464 36.5275V38.2232H3.92298V36.5275ZM39.8607 36.6873V38.2232H33.37V36.6873C33.37 36.6634 33.3894 36.6439 33.4132 36.6439H39.8174C39.8289 36.6439 39.8399 36.6485 39.848 36.6566C39.8561 36.6647 39.8607 36.6758 39.8607 36.6873ZM38.3462 35.3414H34.8845V18.9714H38.3462V35.3414Z" fill="#5E5E5E"/>
<path d="M21.9994 8.2637C23.4055 8.2637 24.5495 7.1159 24.5495 5.70509C24.5495 4.29428 23.4055 3.14648 21.9994 3.14648C20.5932 3.14648 19.4492 4.29428 19.4492 5.70509C19.4492 7.1159 20.5932 8.2637 21.9994 8.2637ZM21.9994 4.44893C22.6897 4.44893 23.2514 5.01245 23.2514 5.70509C23.2514 6.39773 22.6897 6.96125 21.9994 6.96125C21.309 6.96125 20.7474 6.39773 20.7474 5.70509C20.7474 5.01245 21.309 4.44893 21.9994 4.44893Z" fill="#5E5E5E"/>
</g>
</svg>
