<svg width="44" height="44" viewBox="0 0 44 44" fill="none" xmlns="http://www.w3.org/2000/svg">
<mask id="mask0_755_9190" style="mask-type:alpha" maskUnits="userSpaceOnUse" x="0" y="0" width="44" height="44">
<rect width="44" height="44" fill="#D9D9D9"/>
</mask>
<g mask="url(#mask0_755_9190)">
<path fill-rule="evenodd" clip-rule="evenodd" d="M42.3798 11.682L42.2654 11.163L42.1104 10.6588L41.9153 10.1543L41.6705 9.64285C41.3504 9.09325 40.9854 8.56564 40.5785 8.06433C40.3307 7.76099 40.0671 7.46833 39.7885 7.18732C39.2685 6.70521 38.7219 6.24673 38.1507 5.8136L37.4741 5.34567L37.401 5.30186C36.5292 4.76108 35.6158 4.27889 34.6793 3.833C33.791 3.40914 32.8458 3.08017 31.9085 2.75871L30.9795 2.48106L30.197 2.26149L30.0181 2.21768C28.6737 1.90348 27.321 1.64761 25.952 1.46485L24.86 1.34793L23.768 1.26756L22.6601 1.21624L21.5354 1.19446C20.1907 1.21624 18.8464 1.29686 17.5101 1.42103C17.107 1.46456 16.7049 1.51573 16.3042 1.5745C14.8783 1.77905 13.4767 2.10076 12.0997 2.48081C11.7817 2.56843 11.4641 2.66332 11.1542 2.75846C10.6937 2.91465 10.2373 3.08026 9.78528 3.25517C9.37066 3.41179 8.96038 3.5775 8.5548 3.75213C7.77288 4.11182 7.00887 4.502 6.26496 4.92157C5.60238 5.33085 4.96325 5.76987 4.35002 6.23696C3.8347 6.66145 3.34512 7.1104 2.88338 7.58189C2.56544 7.91812 2.28043 8.27614 2.00324 8.64166L1.6691 9.15315L1.38409 9.64285L1.13984 10.1543L0.944154 10.6588L0.789228 11.163L0.675057 11.682L0.617832 12.2083C0.585171 12.7345 0.617832 13.2608 0.675057 13.7795C0.788671 14.2981 0.943909 14.8085 1.13956 15.307C1.39149 15.8248 1.67997 16.3277 2.00324 16.8127C2.39432 17.3241 2.82644 17.8138 3.27447 18.2815C3.92964 18.8811 4.62929 19.4403 5.36863 19.9552C5.79237 20.2549 6.25687 20.518 6.71299 20.7738C7.57695 21.2418 8.46492 21.6656 9.37773 22.0602C9.51618 22.1113 9.65464 22.1626 9.785 22.2137C10.5183 22.4768 11.2516 22.7324 12.0014 22.9592L13.0281 23.2369C14.0386 23.4707 15.0572 23.668 16.0839 23.8287C16.1574 23.8435 16.2305 23.8508 16.3039 23.8653C16.9314 23.9604 17.559 24.0408 18.1943 24.1066C19.3106 24.187 20.4188 24.2456 21.5351 24.2599C22.8795 24.2381 24.216 24.1577 25.5523 24.0335C26.5871 23.9311 27.6306 23.7411 28.6492 23.5366C29.1622 23.4269 29.684 23.3102 30.197 23.1858C30.3034 23.1568 30.4173 23.1277 30.5231 23.0982C31.5743 22.8278 32.5932 22.4695 33.5873 22.075C34.1655 21.8436 34.7362 21.5975 35.2987 21.3369C36.0148 20.9646 36.716 20.5697 37.401 20.153L37.4741 20.1091C38.2892 19.5463 39.0633 18.94 39.7804 18.282C40.234 17.8114 40.6583 17.3186 41.0514 16.8059C41.481 16.1731 41.836 15.502 42.1107 14.8033C42.2573 14.299 42.372 13.7948 42.4368 13.2758L42.4694 12.7278L42.4449 12.2163L42.3798 11.682ZM16.3039 16.1547H13.6311L12.8813 14.8977H6.61529L5.79237 16.1547H2.50012L8.12296 7.57463L7.5281 6.63928H10.8608L16.3042 15.3508L16.8011 16.1547H16.3039ZM24.8109 13.2898C24.8274 15.2339 22.4965 16.3302 20.2477 16.3302C18.7322 16.3302 17.1023 15.6285 16.3039 14.6273C15.9862 14.2254 15.7987 13.7868 15.7987 13.3191V9.20422H18.5203V12.4639C18.5203 13.5675 19.3025 14.2034 20.3376 14.2034C21.1605 14.2034 22.1464 13.6479 22.1464 12.537V9.20422H24.8109V13.2898ZM30.197 16.352C27.3941 16.352 25.1124 14.6859 25.1124 12.6394C25.1124 10.6077 27.3615 8.94134 30.132 8.91931L28.4778 6.72691H31.5009L34.3365 10.476C34.9394 11.0827 35.2901 11.8355 35.2901 12.6394C35.2903 14.6856 33.0089 16.352 30.197 16.352ZM38.7127 16.1254H36.0887V9.19721H38.7127V16.1254Z" fill="#CC2229"/>
<path fill-rule="evenodd" clip-rule="evenodd" d="M9.78515 10.0084L7.89478 12.9098H11.6839L9.84238 9.92078L9.78515 10.0084Z" fill="#CC2229"/>
<path fill-rule="evenodd" clip-rule="evenodd" d="M43.5039 12.1349L43.4307 11.5431L43.3082 10.9512L43.1371 10.3736L42.9093 9.80355L42.6405 9.23373C42.0702 8.23981 41.4016 7.37732 40.5709 6.5296C39.9998 6.01006 39.4042 5.51265 38.7857 5.03871L38.1015 4.57103C37.8732 4.43208 37.637 4.28587 37.4009 4.15443C36.6184 3.69402 35.8117 3.28468 34.9807 2.89012L34.1164 2.52459L33.212 2.1811L32.2755 1.85238L31.3054 1.56747L30.3114 1.29708C30.2706 1.28256 30.2296 1.27505 30.1969 1.26779C28.8432 0.954507 27.4726 0.703238 26.0904 0.514954L24.9657 0.398036L23.8416 0.31767L22.7005 0.259336L21.5353 0.237305C19.9953 0.266346 18.496 0.361233 16.9721 0.514703L16.3038 0.60258L15.8882 0.660913L14.8207 0.850937C13.4566 1.11774 12.11 1.45198 10.7871 1.85213C10.4529 1.96904 10.1188 2.09322 9.78492 2.21765C9.21212 2.43126 8.64431 2.65547 8.08185 2.89012C7.25892 3.27016 6.46028 3.68676 5.67812 4.12514C4.97316 4.55928 4.29322 5.02522 3.64091 5.52115C3.05414 6.01085 2.50003 6.51508 1.98668 7.05585L1.51409 7.58937L1.10681 8.13015L0.731921 8.6857L0.422347 9.23373L0.145155 9.80355L-0.0750914 10.3736L-0.254304 10.9512L-0.37657 11.5431L-0.449985 12.1349C-0.482645 12.7488 -0.449985 13.3116 -0.37657 13.9255C-0.254303 14.5101 -0.0750915 15.0801 0.145155 15.6502C0.419993 16.2283 0.741395 16.7876 1.10681 17.3239C1.53056 17.8867 1.99506 18.4127 2.48384 18.9317C3.25641 19.6317 4.08134 20.2837 4.95289 20.883C6.23222 21.6724 7.52802 22.3301 8.93771 22.9292C9.22272 23.0388 9.50801 23.1412 9.7852 23.2436C10.4354 23.4711 11.0901 23.6879 11.749 23.8941L12.7433 24.1644C13.933 24.4348 15.1066 24.6614 16.3044 24.8369C16.8912 24.9248 17.4857 24.9979 18.089 25.0635C19.2379 25.1439 20.3869 25.2024 21.5359 25.2167C23.0585 25.1936 24.5788 25.101 26.091 24.9393C27.4923 24.7568 28.8448 24.5007 30.1975 24.172C30.5643 24.0841 30.9395 23.9894 31.306 23.8943C32.855 23.4265 34.3616 22.8524 35.8123 22.1771C36.3495 21.8984 36.8794 21.6084 37.4014 21.3073C37.6376 21.1684 37.8735 21.0224 38.1021 20.8835C38.9754 20.286 39.8005 19.6339 40.5714 18.9322C41.0627 18.4192 41.5223 17.8824 41.9482 17.3244C42.4327 16.6166 42.8316 15.8644 43.1379 15.0806C43.3089 14.505 43.4316 13.9187 43.5047 13.3266L43.5374 12.7273L43.5039 12.1349ZM42.9665 13.3264C42.9012 13.8744 42.7789 14.4079 42.624 14.9414C42.3633 15.5919 42.0537 16.2133 41.6704 16.8124C41.4181 17.1924 41.1247 17.5504 40.8232 17.9014C40.6111 18.1353 40.3995 18.3764 40.1792 18.6029C39.4294 19.2899 38.6308 19.9111 37.7917 20.4959C37.6613 20.5763 37.531 20.6567 37.4009 20.7298C36.7996 21.0889 36.1854 21.4301 35.5591 21.753C34.4425 22.2717 33.31 22.7249 32.1367 23.1194C31.8107 23.2291 31.4766 23.3315 31.1424 23.4339C30.8295 23.5211 30.5142 23.6015 30.1969 23.675C29.0877 23.9466 27.9647 24.171 26.8318 24.3475C26.5625 24.3913 26.2936 24.4278 26.0248 24.4646C24.5255 24.6178 23.0424 24.713 21.535 24.735C20.4023 24.7202 19.2698 24.6619 18.1451 24.5815C17.5259 24.5157 16.9146 24.4426 16.3035 24.3475C15.5376 24.2378 14.7797 24.0991 14.0221 23.9456C13.7487 23.8941 13.477 23.8356 13.2073 23.7704C12.6205 23.6389 12.0502 23.478 11.4799 23.3027C10.9104 23.121 10.3453 22.9285 9.78492 22.7251C9.58114 22.652 9.36927 22.5719 9.1574 22.4913C8.2266 22.0959 7.31825 21.6593 6.43572 21.1832C5.96312 20.9125 5.48216 20.6421 5.03413 20.3354C4.27538 19.8011 3.55669 19.2225 2.88274 18.6034C2.40822 18.1147 1.9648 17.6023 1.55457 17.0687C1.2134 16.5579 0.908616 16.0283 0.642036 15.483C0.438538 14.9494 0.267142 14.4084 0.153251 13.8534C0.0879303 13.2978 0.05527 12.735 0.0798349 12.1725L0.153251 11.6172L0.267421 11.0543L0.430164 10.5136L0.642036 9.98006L0.902759 9.43928L1.20424 8.92028L1.55457 8.38677L1.94565 7.87528L2.43443 7.31998C2.9235 6.8085 3.44495 6.34058 3.99096 5.88041C4.62576 5.39849 5.28655 4.9448 5.97094 4.52096C6.7367 4.09594 7.51948 3.6961 8.31773 3.32224C8.80204 3.1183 9.29103 2.9234 9.78436 2.73765C10.1754 2.58418 10.5749 2.44523 10.966 2.30653C11.251 2.2189 11.5363 2.13854 11.8216 2.05792C13.2882 1.64858 14.7794 1.30534 16.3033 1.08602C16.6863 1.0347 17.0692 0.983627 17.4522 0.947075C18.8131 0.822646 20.1739 0.74228 21.5348 0.720499L22.6753 0.73527L23.8 0.793604L24.9161 0.87397L26.1465 1.00541C27.4993 1.19543 28.8355 1.45105 30.1643 1.75824L30.1964 1.7655L31.1419 2.02137L32.0954 2.30628L33.0163 2.62799C33.6598 2.87635 34.3118 3.11769 34.931 3.40986C35.2978 3.58537 35.6562 3.76062 36.0068 3.95089C36.4825 4.19254 36.9474 4.45095 37.4003 4.7255C37.8591 5.00228 38.2998 5.30237 38.7204 5.6243C39.2243 6.01884 39.7108 6.43083 40.1789 6.85932C40.4478 7.12971 40.7007 7.41487 40.9449 7.69978C41.3972 8.25032 41.8004 8.83195 42.1508 9.43928L42.4116 9.98006L42.6237 10.5136L42.7867 11.0543L42.9006 11.6172L42.9743 12.1725L43.0064 12.728L42.9665 13.3264Z" fill="#CC2229"/>
<path fill-rule="evenodd" clip-rule="evenodd" d="M30.1975 10.9364C28.9104 10.9364 27.8672 11.6965 27.8672 12.6393C27.8672 13.5747 28.9101 14.342 30.1975 14.342C31.4852 14.342 32.5284 13.5747 32.5284 12.6393C32.5284 11.6965 31.4855 10.9364 30.1975 10.9364Z" fill="#CC2229"/>
<path fill-rule="evenodd" clip-rule="evenodd" d="M12.3435 40.9776C12.0917 40.6406 11.8865 40.2775 11.7325 39.896L11.6752 39.9033L11.2923 39.9106C11.0566 39.2967 10.9354 38.6523 10.9336 38.0031C10.9336 37.0239 11.2024 36.1104 11.6752 35.3137C11.8653 34.991 12.0891 34.6852 12.3435 34.4004C12.3597 34.3784 12.3759 34.3563 12.4005 34.3346L12.8158 34.3198L13.0115 34.3125L13.15 34.1883C13.0442 34.0932 12.93 33.9983 12.8158 33.9032C12.6659 33.7875 12.5082 33.6801 12.3435 33.5817C12.129 33.4526 11.9058 33.3354 11.6752 33.231C10.9581 32.9168 10.1595 32.7485 9.27933 32.7195H8.95329C5.77521 32.7998 3.21655 35.1385 3.21655 38.0031V38.1418C3.22465 38.1783 3.22465 38.2221 3.22465 38.266V38.2732C3.22465 38.3173 3.23274 38.3611 3.23274 38.3974V38.4122C3.24084 38.4487 3.24084 38.4925 3.24921 38.5291V38.5439C3.25731 38.5879 3.25731 38.6242 3.26568 38.661V38.6828C3.27378 38.7194 3.27378 38.7487 3.28215 38.7852C3.28215 38.7997 3.29025 38.807 3.29025 38.8218C3.29862 38.851 3.29862 38.8801 3.30672 38.9169C3.30672 38.9242 3.31481 38.9387 3.31481 38.9534C3.32291 38.9825 3.32291 39.0118 3.33128 39.0336C3.33938 39.0556 3.33938 39.0701 3.34775 39.0919C3.34775 39.1139 3.35585 39.136 3.36422 39.158C3.36422 39.1798 3.37232 39.2018 3.38041 39.2236C3.38041 39.2384 3.38851 39.2601 3.3966 39.2822C3.4047 39.3039 3.4047 39.3332 3.41307 39.3553C3.42117 39.3698 3.42117 39.3843 3.42954 39.3991C3.43764 39.4356 3.45383 39.4649 3.4622 39.5012C3.51105 39.6402 3.5599 39.7646 3.60875 39.8958C4.31779 41.5329 5.90669 42.7827 7.85429 43.1627L8.12339 42.7754C8.39221 42.8192 8.66912 42.8485 8.95441 42.8556H9.10933C9.9892 42.8556 10.902 42.6437 11.6761 42.3003C11.8799 42.2124 12.0753 42.1102 12.2548 42.0006L12.3444 41.9936L12.8167 41.9643L13.0285 41.9495L13.1427 41.8546C13.0299 41.7533 12.9211 41.6484 12.8167 41.5402C12.6424 41.3643 12.4842 41.1762 12.3435 40.9776ZM11.6752 41.7815C11.5368 41.8549 11.39 41.9277 11.2434 41.9938C11.0234 42.0814 10.8035 42.1618 10.5751 42.2349C10.3306 42.2932 10.1025 42.3446 9.85828 42.3811C9.60566 42.4102 9.36112 42.4249 9.1085 42.4322C9.05127 42.4322 9.00242 42.4322 8.95357 42.4249C8.74979 42.4177 8.55439 42.4029 8.35871 42.3811C8.11683 42.3443 7.87742 42.2955 7.64158 42.2349C7.40514 42.1618 7.19355 42.0814 6.96521 41.9938C6.75259 41.8964 6.54583 41.789 6.34578 41.6721C6.15096 41.5493 5.96331 41.4176 5.78358 41.2775C5.61237 41.1312 5.44916 40.9776 5.29452 40.8171C5.14885 40.6489 5.01021 40.4758 4.87887 40.2984C4.75895 40.1112 4.65021 39.9184 4.55311 39.7208C4.4658 39.5189 4.38693 39.3141 4.31667 39.1069C4.2615 38.8921 4.218 38.6751 4.18631 38.4565C4.16984 38.2224 4.16174 38.0031 4.16984 37.7695C4.18631 37.5502 4.21869 37.3309 4.26782 37.1118C4.32476 36.8925 4.38171 36.6879 4.46322 36.4831C4.55283 36.2786 4.65053 36.0886 4.7647 35.8913C4.87887 35.701 5.00923 35.5258 5.14769 35.3505C5.29424 35.1823 5.44917 35.0288 5.61219 34.8681C5.7914 34.7219 5.96252 34.5829 6.14982 34.4515C6.3536 34.3273 6.54091 34.2104 6.75306 34.108C6.96759 34.0075 7.18786 33.9173 7.41296 33.8376C7.64151 33.7639 7.87578 33.7053 8.1139 33.6623L8.60268 33.5892C8.71685 33.582 8.83075 33.582 8.95301 33.5745H9.36029C9.61291 33.5892 9.84907 33.6183 10.102 33.6623C10.3384 33.7062 10.5665 33.7647 10.8026 33.8376C11.0226 33.918 11.2426 34.0058 11.4544 34.108C11.5279 34.1445 11.6013 34.1811 11.6747 34.2249L11.7235 34.2469L11.7805 34.2907C11.7478 34.3348 11.7071 34.3786 11.6747 34.4222C10.868 35.4454 10.4604 36.6511 10.4604 38.0033C10.4591 39.2561 10.8826 40.4797 11.6747 41.5116C11.7235 41.5775 11.7724 41.6358 11.8212 41.7016C11.7709 41.7257 11.7221 41.7524 11.6752 41.7815Z" fill="#D0D1D3"/>
<path fill-rule="evenodd" clip-rule="evenodd" d="M33.9455 31.7621C33.8964 31.7621 33.8472 31.7621 33.7906 31.7693C32.2994 31.7984 30.9299 32.2518 29.8058 32.9969C29.6624 32.9003 29.5157 32.8078 29.3658 32.7195C28.9998 32.5133 28.6123 32.3395 28.2088 32.2005C27.4263 31.9156 26.5624 31.7621 25.6666 31.7621C25.6174 31.7621 25.5602 31.7621 25.5117 31.7693C24.0792 31.7951 22.6917 32.2218 21.543 32.9899C21.4002 32.8947 21.2533 32.8045 21.1028 32.7195C20.9454 32.6322 20.7851 32.5493 20.6221 32.4709C20.4001 32.3666 20.1716 32.2739 19.9377 32.1932C19.1335 31.9075 18.2763 31.7612 17.4114 31.7621C17.3625 31.7621 17.3056 31.7621 17.2567 31.7693C16.996 31.7693 16.7434 31.7911 16.4908 31.8204C15.2927 31.9594 14.1847 32.3832 13.2557 33.0044C13.1136 32.906 12.9668 32.8134 12.8155 32.7267C12.6626 32.6394 12.505 32.559 12.3432 32.4856C11.3467 32.0116 10.2361 31.7633 9.10817 31.7623C9.05094 31.7623 9.00209 31.7623 8.95324 31.7696C5.18867 31.8427 2.14905 34.6124 2.14905 38.0033C2.14905 41.3872 5.18839 44.1569 8.95324 44.2373H9.10817C10.0126 44.2373 10.8763 44.0763 11.6749 43.7916C11.9028 43.712 12.1259 43.6218 12.3432 43.5212C12.5033 43.4427 12.6609 43.3598 12.8155 43.2729C12.9704 43.185 13.117 43.0901 13.2557 42.995C14.1847 43.6161 15.2927 44.0402 16.4908 44.1789C16.7434 44.2155 16.996 44.23 17.2567 44.2373H17.4114C18.2763 44.2384 19.1337 44.092 19.9377 43.8059C20.1738 43.7258 20.4022 43.6306 20.6221 43.5282C20.7868 43.4552 20.9472 43.3747 21.1028 43.2872C21.2496 43.1995 21.3962 43.1046 21.543 43.0098C22.6596 43.7551 24.028 44.2082 25.5117 44.2373H25.6666C26.5624 44.2373 27.4266 44.084 28.2088 43.8059C28.611 43.6615 28.9982 43.4854 29.3658 43.2796C29.5124 43.192 29.6673 43.1044 29.8058 43.002C30.9299 43.7548 32.2997 44.208 33.7906 44.2373H33.9455C37.7751 44.2373 40.9041 41.4382 40.9041 38.0033C40.9041 34.5684 37.7751 31.7621 33.9455 31.7621ZM40.0158 38.0033C40.0158 40.9999 37.2861 43.4409 33.9455 43.4409H33.7909C33.7417 43.4409 33.6926 43.4336 33.6443 43.4336H33.6278C33.5871 43.4336 33.538 43.4264 33.4894 43.4264H33.4729C33.4322 43.4191 33.383 43.4191 33.3425 43.4118H33.318C33.2772 43.4043 33.2362 43.4043 33.1957 43.3968H33.1631C33.1223 43.3898 33.0813 43.3823 33.0492 43.3823C33.0321 43.375 33.0246 43.375 33.0084 43.375C32.9758 43.3678 32.9347 43.3678 32.9026 43.3603C32.8861 43.353 32.87 43.353 32.8535 43.353C32.8209 43.3458 32.7883 43.3385 32.7558 43.3312C32.7388 43.3312 32.7231 43.3312 32.7067 43.324C32.6659 43.3167 32.633 43.3092 32.5928 43.3019C31.5169 43.0826 30.5798 42.6442 29.8058 41.9793L29.7893 41.9645C29.7162 42.0376 29.5615 42.1618 29.3655 42.3007C29.2838 42.3591 29.2025 42.4177 29.1132 42.476C28.8267 42.652 28.5242 42.8061 28.2088 42.9364C27.4123 43.2682 26.5448 43.4404 25.6666 43.4409H25.5117H25.5036C25.4544 43.4409 25.4053 43.4336 25.3564 43.4336H25.3489C25.2998 43.4336 25.259 43.4264 25.2099 43.4264H25.194C25.1532 43.4191 25.1041 43.4191 25.0555 43.4118H25.031C24.9902 43.4043 24.9492 43.4043 24.9084 43.3968H24.8844C24.8437 43.3898 24.8026 43.3823 24.7619 43.3823C24.7543 43.375 24.7379 43.375 24.7298 43.375C24.689 43.3678 24.6561 43.3678 24.6153 43.3603C24.5994 43.353 24.5913 43.353 24.5748 43.353C24.5422 43.3457 24.5011 43.3385 24.4685 43.3312C24.4526 43.3312 24.4364 43.3312 24.4199 43.324C24.3873 43.3167 24.3462 43.3092 24.3136 43.3019C23.5534 43.1439 22.8342 42.856 22.1954 42.454C21.9751 42.2932 21.7711 42.147 21.5514 41.9793C21.3887 42.1035 21.2418 42.2131 21.1034 42.3155C21.0138 42.3738 20.9323 42.4324 20.8507 42.4835C20.7773 42.5276 20.6958 42.5714 20.6227 42.6149C20.4035 42.7389 20.1748 42.8488 19.9382 42.9437C19.1722 43.2651 18.3164 43.4406 17.4119 43.4406H17.2573C17.2084 43.4406 17.1596 43.4334 17.1105 43.4334H17.0943C17.0535 43.4334 17.0047 43.4261 16.9555 43.4261H16.9393C16.8986 43.4188 16.8497 43.4188 16.809 43.4116H16.7847C16.7439 43.4041 16.7032 43.4041 16.6543 43.3966H16.6298C16.589 43.3895 16.5483 43.382 16.5075 43.382C16.5075 43.382 16.4991 43.3748 16.491 43.3748H16.4746C16.4419 43.3675 16.4011 43.3675 16.3604 43.36C16.3523 43.3527 16.3361 43.3527 16.3196 43.3527C16.287 43.3455 16.2543 43.3382 16.2136 43.331C16.1974 43.331 16.1809 43.331 16.1728 43.3237C16.1321 43.3164 16.0994 43.3089 16.0586 43.3017C14.9912 43.0824 14.0295 42.6074 13.2554 41.957V41.9497C13.1251 42.0519 13.0762 42.1032 12.8152 42.2932C12.7502 42.3373 12.6687 42.3956 12.5626 42.4612C12.4892 42.5125 12.4161 42.5564 12.3426 42.6002C12.1224 42.7173 11.9024 42.8267 11.6744 42.9291C10.871 43.2666 9.99469 43.4412 9.10761 43.4406H8.94459C8.89574 43.4406 8.84661 43.4334 8.79776 43.4334H8.78966C8.74053 43.4334 8.69168 43.4261 8.64311 43.4261H8.63474C8.58589 43.4188 8.54513 43.4188 8.49628 43.4116H8.47199C8.43124 43.4041 8.39048 43.4041 8.34973 43.3966H8.31707C8.27976 43.3878 8.24145 43.3829 8.2029 43.382C8.18643 43.3748 8.17861 43.3748 8.17024 43.3748C8.12948 43.3675 8.08873 43.3675 8.05607 43.36C8.03988 43.3527 8.02341 43.3527 8.01531 43.3527C7.97984 43.3463 7.94456 43.339 7.90951 43.331C7.89304 43.331 7.87685 43.331 7.86066 43.3237C7.828 43.3164 7.78725 43.3089 7.75459 43.3017C5.75841 42.8923 4.12848 41.5917 3.41972 39.8958L2.98788 39.9105C2.74554 39.2981 2.62149 38.653 2.62108 38.0031C2.62108 34.846 5.44856 32.2663 8.95268 32.193H9.04229L9.22178 32.5585C10.1181 32.5733 10.933 32.7485 11.6746 33.0554C11.9027 33.1503 12.1227 33.2527 12.3429 33.3769C12.5057 33.4648 12.6606 33.5669 12.8152 33.6691C12.9702 33.7787 13.1167 33.8884 13.2554 34.0128C13.2775 34.0205 13.2971 34.0331 13.3124 34.0494L13.402 33.9835L13.4185 33.4428C14.3718 32.8216 15.3739 32.3978 16.4905 32.2515C16.7431 32.215 16.9957 32.2002 17.2565 32.193H17.3461L17.5253 32.5585C18.4051 32.5733 19.2119 32.741 19.9374 33.0334C20.1735 33.1286 20.4019 33.238 20.6218 33.3621C20.7034 33.4059 20.7849 33.4573 20.8664 33.5011C20.8664 33.5083 20.8583 33.5083 20.8583 33.5083C20.8664 33.5083 20.8664 33.5083 20.8826 33.5156C20.956 33.5594 21.0291 33.6107 21.1025 33.6546C21.1433 33.6836 21.184 33.7204 21.2329 33.7494C21.241 33.7567 21.2494 33.7645 21.241 33.7715C21.241 33.7645 21.2491 33.7645 21.2491 33.7645C21.3794 33.8521 21.5017 33.9542 21.6156 34.0494L21.7382 33.9615C21.7786 33.9249 21.6974 33.4207 21.7382 33.3917C22.8196 32.639 24.1425 32.2186 25.5111 32.193H25.6004L25.7799 32.5585C26.6682 32.5733 27.4833 32.7485 28.2082 33.0409C28.6236 33.2092 29.0063 33.421 29.3653 33.6621C29.5118 33.7717 29.6667 33.8814 29.8052 33.9983C29.8298 34.0201 29.846 34.0349 29.8705 34.0494L29.9682 33.9397L29.9928 33.4062C31.0801 32.6458 32.4119 32.2204 33.7903 32.193H33.8796L34.0591 32.5585C36.5525 32.6023 38.6793 33.9983 39.5672 35.9644C39.5837 36.0009 39.5999 36.0302 39.6164 36.0665C39.6164 36.0738 39.6245 36.0813 39.6245 36.0813C39.6409 36.1178 39.649 36.1544 39.6652 36.1837C39.6652 36.1907 39.6733 36.2055 39.6733 36.2127C39.6892 36.242 39.6973 36.2711 39.7138 36.3079C39.7138 36.3149 39.7219 36.3297 39.7219 36.3369C39.73 36.3662 39.7464 36.3952 39.7545 36.4248C39.7626 36.4396 39.7626 36.4613 39.771 36.4831L39.7956 36.549C39.8037 36.571 39.8037 36.593 39.812 36.6073C39.8212 36.6284 39.8266 36.6506 39.828 36.6731C39.8361 36.7022 39.8444 36.7245 39.8525 36.7462C39.8525 36.761 39.8606 36.7828 39.8606 36.8046C39.8687 36.8266 39.8771 36.8559 39.8852 36.8849C39.8852 36.8995 39.8933 36.9142 39.8933 36.9288L39.9178 37.0166C39.9178 37.0314 39.9178 37.0459 39.9259 37.0605C39.9259 37.0897 39.934 37.1265 39.9424 37.1556V37.1921C39.9505 37.2214 39.9589 37.2582 39.9589 37.2945C39.967 37.3018 39.967 37.3166 39.967 37.3236C39.9745 37.3601 39.9745 37.3969 39.9829 37.4332V37.455C39.991 37.4916 39.991 37.5356 39.9994 37.5722V37.587C39.9994 37.6308 39.9994 37.6746 40.0075 37.7184V37.7254C40.0075 37.7695 40.0075 37.8133 40.0155 37.8571V37.8641L40.0158 38.0033Z" fill="#D0D1D3"/>
<path fill-rule="evenodd" clip-rule="evenodd" d="M34.1255 32.7195H33.7916C32.2432 32.756 30.8416 33.3334 29.8068 34.2542C29.6518 34.3934 29.5049 34.5397 29.3669 34.6926C28.8212 35.3065 28.4133 36.0227 28.2098 36.8121C28.1108 37.2029 28.0616 37.6026 28.0633 38.0033V38.142C28.0633 38.1786 28.0633 38.2224 28.0714 38.2662V38.2735C28.0714 38.3175 28.0714 38.3613 28.0795 38.3976V38.4124C28.0795 38.449 28.087 38.4928 28.0954 38.5293V38.5441C28.0954 38.5882 28.1035 38.6245 28.1035 38.6613C28.1116 38.6685 28.1116 38.6758 28.1116 38.6831C28.1197 38.7196 28.1197 38.7489 28.128 38.7855C28.128 38.8 28.128 38.8072 28.1361 38.822C28.1361 38.8513 28.1442 38.8803 28.1526 38.9171C28.1526 38.9244 28.1526 38.9389 28.1607 38.9537C28.1607 38.9827 28.1688 39.012 28.1772 39.0338C28.1772 39.0558 28.1853 39.0704 28.1853 39.0921L28.2098 39.1582V39.1948C28.2179 39.202 28.2179 39.2093 28.2179 39.2238C28.2279 39.2421 28.2334 39.2621 28.2338 39.2824C28.2419 39.3042 28.2503 39.3335 28.2584 39.3555C28.2665 39.37 28.2665 39.3846 28.2749 39.3993C28.283 39.4359 28.2913 39.4652 28.3075 39.5015C28.3483 39.6404 28.3969 39.7649 28.4541 39.896C28.6742 40.4062 28.9822 40.8823 29.3669 41.3068C29.4972 41.453 29.6357 41.592 29.7906 41.7304C29.7906 41.7234 29.7987 41.7159 29.8071 41.7084C29.8479 41.6646 29.9129 41.5772 29.9294 41.5624C29.9375 41.3359 30.0031 41.0727 30.0112 40.8534L30.125 40.7513C30.7118 39.9767 31.0786 39.0193 31.0786 38.0031C31.081 37.4503 30.9763 36.9013 30.769 36.3807L31.1517 36.0738C30.9723 35.6645 30.7118 35.2699 30.4103 34.9116L30.4595 34.8678C30.4916 34.8385 30.5242 34.8167 30.5572 34.7875C30.8567 35.15 31.1031 35.5454 31.2905 35.9641C31.307 36.0007 31.3231 36.03 31.3396 36.0663C31.3396 36.0736 31.3396 36.0811 31.3477 36.0811C31.3558 36.1176 31.3723 36.1542 31.3882 36.1835C31.3882 36.1905 31.3882 36.2052 31.3968 36.2125C31.4044 36.2418 31.4208 36.2708 31.4289 36.3076C31.437 36.3146 31.437 36.3294 31.4454 36.3367L31.47 36.4246C31.4781 36.4393 31.4864 36.4611 31.4945 36.4829C31.5026 36.5049 31.5026 36.5267 31.511 36.5487C31.5194 36.5708 31.5275 36.5928 31.535 36.6071C31.535 36.6291 31.5431 36.6509 31.552 36.6729C31.5596 36.702 31.5596 36.7242 31.568 36.746C31.5761 36.7608 31.5761 36.7826 31.5844 36.8044C31.5925 36.8264 31.6009 36.8557 31.609 36.8847C31.609 36.8992 31.609 36.914 31.6171 36.9285C31.6252 36.9578 31.6252 36.9871 31.6336 37.0164C31.6336 37.0312 31.6416 37.0457 31.6416 37.0602C31.6497 37.0895 31.6581 37.1263 31.6581 37.1554C31.6662 37.1701 31.6662 37.1774 31.6662 37.1919C31.6743 37.2212 31.6743 37.258 31.6827 37.2943C31.6827 37.3016 31.6827 37.3163 31.6908 37.3234C31.6908 37.3599 31.6983 37.3967 31.6983 37.433C31.6983 37.4403 31.707 37.4478 31.707 37.4548C31.707 37.4913 31.7145 37.5354 31.7145 37.572V37.5867C31.7226 37.6305 31.7226 37.6744 31.7226 37.7182V37.7252C31.7307 37.7692 31.7307 37.8131 31.7307 37.8569V38.0028C31.7307 39.2016 31.2989 40.3124 30.5574 41.2112C30.3051 41.4668 30.1337 41.7009 29.9791 41.8471C30.745 42.5048 31.6249 42.9504 32.7007 43.1625L32.9696 42.7752C33.2384 42.819 33.5153 42.8483 33.7928 42.8553H33.9477C36.9301 42.8553 39.3665 40.6777 39.3665 38.0026C39.3665 37.4328 39.252 36.8845 39.0569 36.3802L39.4315 36.0733C38.5913 34.1591 36.5373 32.7851 34.1255 32.7195ZM30.508 37.1118C30.5485 37.3309 30.5812 37.5502 30.6057 37.7695C30.6057 38.0033 30.6057 38.2226 30.5812 38.4565C30.5496 38.6751 30.5061 38.8921 30.4508 39.1069C30.3871 39.3151 30.3108 39.52 30.2225 39.7208C30.1194 39.9171 30.0079 40.1098 29.8883 40.2984C29.8642 40.3366 29.8371 40.3733 29.8071 40.408C29.7825 40.3715 29.7499 40.3349 29.7259 40.2984C29.6057 40.1112 29.4969 39.9184 29.3998 39.7208C29.3834 39.6988 29.3753 39.6697 29.3672 39.6477C29.2883 39.4709 29.2202 39.2904 29.1634 39.1069C29.1084 38.8921 29.0649 38.675 29.033 38.4565C29.0166 38.2224 29.0085 38.0031 29.0166 37.7695C29.033 37.5502 29.0657 37.3309 29.1064 37.1118C29.1631 36.8925 29.2287 36.6879 29.3099 36.4831C29.3264 36.4393 29.3426 36.3953 29.3672 36.359C29.4374 36.1997 29.5162 36.0437 29.6033 35.8913C29.6686 35.7889 29.7418 35.694 29.8071 35.5989C29.8808 35.694 29.9456 35.7889 30.0109 35.8913C30.1248 36.0886 30.2144 36.2786 30.3043 36.4831C30.3852 36.6879 30.4508 36.8925 30.508 37.1118ZM38.8682 38.4565C38.8364 38.675 38.7929 38.8921 38.7378 39.1069C38.6676 39.3141 38.5886 39.5189 38.5011 39.7208C38.4034 39.9181 38.2976 40.1084 38.1756 40.2984C38.0447 40.4736 37.9063 40.6491 37.7597 40.8171C37.6051 40.9775 37.4421 41.1311 37.2712 41.2775C37.0913 41.4176 36.9034 41.5493 36.7084 41.6721C36.5049 41.789 36.3012 41.8987 36.089 41.9938C35.8612 42.0814 35.6491 42.1618 35.4129 42.2349C35.1795 42.2947 34.9427 42.3436 34.7036 42.3811C34.4429 42.4102 34.207 42.4249 33.9463 42.4322C33.8972 42.4322 33.848 42.4322 33.7914 42.4249C33.5925 42.4173 33.3941 42.4026 33.1965 42.3811C32.9517 42.3446 32.7239 42.2932 32.4791 42.2349C32.2532 42.162 32.0303 42.0816 31.8111 41.9938C31.6191 41.9059 31.4313 41.8106 31.2483 41.7084C32.1393 40.6385 32.6196 39.3384 32.6173 38.0031C32.6173 36.5928 32.1369 35.3282 31.2645 34.2905C31.3709 34.2246 31.4848 34.1663 31.5987 34.108C31.8113 34.0089 32.0289 33.9187 32.2507 33.8376C32.4799 33.7658 32.7139 33.7072 32.9514 33.6623L33.4486 33.5892C33.5625 33.582 33.6763 33.582 33.7911 33.5745H34.2064C34.4507 33.5892 34.6955 33.6183 34.9398 33.6623C35.1778 33.7053 35.412 33.7639 35.6404 33.8376C35.8688 33.918 36.0804 34.0058 36.3006 34.108C36.5122 34.2104 36.7079 34.3273 36.9036 34.4515C37.0911 34.5829 37.2617 34.7219 37.4412 34.8681C37.6042 35.0288 37.7591 35.1823 37.9057 35.3505C38.0442 35.5258 38.1751 35.701 38.289 35.8913C38.4029 36.0886 38.5006 36.2786 38.5904 36.4831C38.6717 36.6877 38.737 36.8925 38.7856 37.1118C38.8347 37.3309 38.8674 37.5502 38.8838 37.7695C38.8928 38.0033 38.8847 38.2226 38.8682 38.4565Z" fill="#D0D1D3"/>
<path fill-rule="evenodd" clip-rule="evenodd" d="M28.2661 39.8961L28.2094 39.9033L27.8262 39.9106C27.5908 39.2967 27.4698 38.6522 27.468 38.0031C27.468 37.0312 27.7369 36.1104 28.2094 35.299C28.4022 34.9778 28.6257 34.6722 28.8774 34.3856L29.3665 34.3198L29.6027 34.2832L29.7171 34.1881C29.6027 34.0857 29.4888 33.9908 29.3665 33.8957C29.0078 33.6253 28.6251 33.3987 28.2094 33.2232C27.5001 32.9163 26.7101 32.7483 25.8378 32.719H25.5123C23.7272 32.7628 22.1467 33.5229 21.1038 34.6851C20.9246 34.8748 20.7699 35.0796 20.6231 35.2914C20.3109 35.7592 20.0801 36.2669 19.9386 36.7971C19.837 37.1926 19.785 37.597 19.7837 38.0028C19.7837 38.0469 19.7918 38.0907 19.7918 38.1343V38.273C19.7999 38.317 19.7999 38.3609 19.8083 38.3972V38.4119C19.8083 38.4485 19.8164 38.4923 19.8164 38.5288V38.5436C19.8244 38.5877 19.8244 38.624 19.8328 38.6608V38.6826C19.8409 38.7191 19.8493 38.7484 19.8493 38.785C19.8574 38.7995 19.8574 38.8067 19.8574 38.8215C19.8655 38.8508 19.8736 38.8798 19.8736 38.9167C19.8817 38.9239 19.8817 38.9384 19.8817 38.9532C19.8898 38.9822 19.8979 39.0115 19.8979 39.0333C19.906 39.0554 19.906 39.0699 19.9143 39.0917C19.9227 39.1134 19.9224 39.1357 19.9308 39.1577C19.9389 39.1723 19.9389 39.1868 19.9389 39.2016C19.947 39.2086 19.947 39.2163 19.947 39.2233C19.9551 39.2381 19.9551 39.2599 19.9635 39.2819C19.9716 39.3037 19.9797 39.333 19.9877 39.355C19.9877 39.3696 19.9958 39.3841 19.9958 39.3988C20.0123 39.4354 20.0204 39.4647 20.0285 39.501C20.0774 39.6399 20.1262 39.7644 20.1834 39.8956C20.3036 40.1769 20.4508 40.4483 20.6234 40.7067C20.7687 40.9204 20.9293 41.1255 21.1041 41.3206C21.2263 41.4596 21.3651 41.5912 21.5035 41.7227C21.5443 41.6934 21.642 41.6348 21.6584 41.6203C21.6663 41.401 21.7157 41.1454 21.7238 40.9185L21.8541 40.7723C22.449 39.9904 22.8236 39.0256 22.8317 38.0026C22.8304 37.4501 22.7257 36.9017 22.5221 36.3803L22.8973 36.0733C22.7178 35.664 22.4493 35.2622 22.1475 34.9039L22.1883 34.8673C22.2204 34.838 22.2614 34.809 22.2941 34.7795C22.599 35.1427 22.8483 35.5409 23.0355 35.9634C23.0519 36 23.0681 36.0293 23.0846 36.0656C23.0846 36.0728 23.0846 36.0803 23.0927 36.0803C23.1008 36.1169 23.1092 36.1534 23.1248 36.1827C23.1248 36.1897 23.1329 36.2045 23.1329 36.2118C23.1494 36.2411 23.1575 36.2701 23.1655 36.3069C23.1736 36.3139 23.1736 36.3287 23.182 36.3359C23.1901 36.3652 23.1985 36.3943 23.2147 36.4238C23.2147 36.4386 23.2228 36.4604 23.2311 36.4822C23.2392 36.5042 23.2471 36.526 23.2557 36.548C23.256 36.5683 23.2614 36.5882 23.2716 36.6063C23.2797 36.6284 23.2797 36.6501 23.2881 36.6722C23.2962 36.7012 23.3046 36.7235 23.3046 36.7453C23.3147 36.7634 23.3204 36.7833 23.321 36.8036C23.3291 36.8256 23.3375 36.8549 23.3456 36.884C23.3456 36.8985 23.3537 36.9133 23.3537 36.9278C23.3618 36.9571 23.3702 36.9864 23.3702 37.0157C23.3767 37.0295 23.3795 37.0445 23.3783 37.0595C23.3864 37.0888 23.3947 37.1256 23.4028 37.1546V37.1912C23.4109 37.2205 23.4187 37.2573 23.4187 37.2936C23.4187 37.3008 23.4268 37.3156 23.4268 37.3226C23.4268 37.3592 23.4349 37.396 23.4433 37.4323V37.4541C23.4433 37.4906 23.4514 37.5347 23.4514 37.5712V37.586C23.4595 37.6298 23.4595 37.6736 23.4679 37.7174V37.8631C23.476 37.9072 23.476 37.951 23.476 38.0021C23.476 39.2078 23.036 40.3189 22.2946 41.2252C22.0744 41.4591 22.1481 41.4152 21.7078 41.8318C22.4741 42.4895 23.3375 42.9499 24.4133 43.1618L24.6902 42.7744C24.9591 42.8183 25.2279 42.8476 25.5135 42.8546H25.6684C26.5887 42.8546 27.453 42.6503 28.2106 42.2847C28.3409 42.2264 28.4548 42.1606 28.5768 42.0947L28.7398 42.0144L29.3673 41.9853L29.4812 41.9781C29.5549 41.9122 29.5795 41.8977 29.6524 41.8318C29.5547 41.744 29.4567 41.6491 29.3673 41.5542C28.8896 41.067 28.5162 40.5049 28.2661 39.8961ZM22.2525 37.1118C22.3016 37.3309 22.3262 37.5502 22.3507 37.7695C22.3588 38.0033 22.3507 38.2227 22.3262 38.4565C22.3016 38.6756 22.2525 38.8876 22.1958 39.1069C22.132 39.3151 22.0558 39.52 21.9675 39.7208C21.8698 39.9181 21.764 40.1084 21.6417 40.2984C21.609 40.3349 21.5766 40.3788 21.544 40.4226C21.5131 40.3818 21.4832 40.3404 21.4544 40.2984C21.335 40.1097 21.2236 39.917 21.1202 39.7208C21.1121 39.7063 21.1121 39.6843 21.1038 39.6697C21.0222 39.4856 20.9515 39.2977 20.8919 39.1069C20.8367 38.8921 20.7932 38.6751 20.7615 38.4565C20.737 38.2224 20.737 38.0031 20.737 37.7695C20.7615 37.5502 20.7858 37.3309 20.835 37.1118C20.8919 36.8925 20.9572 36.6879 21.0304 36.4832C21.0549 36.4321 21.0792 36.3808 21.1038 36.3369C21.1691 36.1837 21.2506 36.0375 21.3321 35.8913C21.3972 35.7816 21.4706 35.6793 21.544 35.5769C21.6171 35.6793 21.6908 35.7816 21.7556 35.8913C21.87 36.0886 21.9677 36.2786 22.0576 36.4832C22.1305 36.6879 22.1958 36.8925 22.2525 37.1118ZM28.2094 41.789C28.0791 41.8621 27.9482 41.928 27.8016 41.9938C27.5824 42.0817 27.3596 42.1621 27.1336 42.2349C26.8969 42.2933 26.661 42.3446 26.4168 42.3811C26.1639 42.4102 25.9196 42.4249 25.667 42.4322C25.6179 42.4322 25.5606 42.4322 25.5121 42.4249C25.313 42.4175 25.1144 42.4029 24.9166 42.3811C24.675 42.3435 24.4358 42.2947 24.1998 42.2349C23.9739 42.162 23.751 42.0816 23.5318 41.9938C23.3461 41.9114 23.1664 41.8187 22.9936 41.7162C23.8495 40.6782 24.3625 39.3921 24.3625 38.0033C24.3625 36.5858 23.8735 35.3212 23.0017 34.2837C23.0999 34.2184 23.2034 34.1598 23.3113 34.1082C23.5259 34.0078 23.7463 33.9175 23.9714 33.8379C24.2006 33.766 24.4346 33.7075 24.6721 33.6626L25.1612 33.5895C25.2834 33.5822 25.3973 33.5822 25.5118 33.5747H25.919C26.1714 33.5895 26.4076 33.6185 26.6605 33.6626C26.8966 33.7064 27.125 33.765 27.3611 33.8379C27.5843 33.9162 27.8021 34.0065 28.0132 34.1082C28.0863 34.1375 28.1517 34.1741 28.2089 34.2106C28.2329 34.2252 28.2575 34.2324 28.282 34.2472L28.3638 34.2692C28.3147 34.3351 28.2575 34.3934 28.2089 34.4592C27.4264 35.4677 26.9946 36.6737 26.9946 38.0036C26.9931 39.2586 27.4165 40.4845 28.2089 41.5189C28.2656 41.585 28.3147 41.6433 28.3638 41.7089C28.3152 41.7399 28.2636 41.7667 28.2094 41.789Z" fill="#D0D1D3"/>
<path fill-rule="evenodd" clip-rule="evenodd" d="M21.1031 41.5552L20.8996 41.3506C20.8016 41.241 20.7123 41.1241 20.6224 41.0071C20.3666 40.6595 20.1561 40.2867 19.9949 39.896L19.9379 39.9033L19.5549 39.9106C19.3152 39.2977 19.1939 38.6526 19.1962 38.0031C19.1962 37.0167 19.465 36.1031 19.9379 35.2989C20.1333 34.9775 20.3617 34.6705 20.6143 34.3856H20.6224L21.1031 34.3198L21.3476 34.2832L21.4618 34.1881C21.3462 34.0844 21.2266 33.9845 21.1031 33.8884C20.9503 33.7726 20.7897 33.6653 20.6224 33.567C20.4056 33.433 20.1767 33.3157 19.9379 33.2162C19.237 32.9093 18.4467 32.7485 17.5911 32.7195H17.257C17.0003 32.7263 16.7445 32.7483 16.491 32.7851C15.2443 32.9606 14.1197 33.4941 13.256 34.2615C13.1028 34.4047 12.9559 34.5534 12.8158 34.7071C12.6447 34.9044 12.4816 35.1092 12.3435 35.3282C12.0336 35.7886 11.8136 36.2931 11.6752 36.8264C11.5762 37.2122 11.5269 37.6069 11.5284 38.0028V38.1415C11.5284 38.1781 11.5284 38.2219 11.5367 38.2657V38.273C11.5367 38.317 11.5367 38.3608 11.5448 38.3971V38.4119C11.5448 38.4485 11.5529 38.4923 11.5529 38.5288C11.5529 38.5361 11.5529 38.5436 11.561 38.5436C11.561 38.5877 11.5691 38.624 11.5691 38.6608C11.5691 38.668 11.5772 38.6753 11.5772 38.6826C11.5772 38.7191 11.5853 38.7484 11.5937 38.785V38.8215C11.6018 38.8508 11.6099 38.8798 11.618 38.9166C11.618 38.9239 11.618 38.9384 11.6261 38.9532C11.6261 38.9822 11.6341 39.0115 11.6425 39.0333C11.6425 39.0553 11.6506 39.0699 11.6506 39.0916C11.6587 39.1137 11.6668 39.1357 11.6668 39.1577C11.6668 39.1647 11.6749 39.1723 11.6749 39.1723C11.6749 39.187 11.683 39.2016 11.683 39.2233C11.6932 39.2415 11.6988 39.2615 11.6995 39.2819C11.7076 39.3037 11.7159 39.333 11.724 39.355C11.7321 39.3695 11.7321 39.3841 11.7402 39.3988C11.7483 39.4354 11.7567 39.4647 11.7645 39.501H11.7726C11.8128 39.635 11.8618 39.7667 11.9192 39.8955C12.0374 40.1682 12.1791 40.4321 12.3432 40.6849C12.4828 40.9001 12.6407 41.1052 12.8155 41.2986C12.9535 41.4517 13.1004 41.5981 13.2557 41.7372C13.2638 41.7372 13.2638 41.7445 13.2719 41.7445C13.3046 41.7737 13.3291 41.6566 13.3615 41.6786L13.4023 40.9548C13.4595 40.8599 13.4919 40.8089 13.5488 40.7578C14.1704 39.9462 14.508 38.9869 14.5186 38.0023C14.5186 37.4325 14.4128 36.8842 14.209 36.38L14.5839 36.0731C14.4128 35.6712 14.152 35.2839 13.8587 34.9257C13.883 34.9109 13.8994 34.8891 13.9237 34.8673C13.9483 34.8453 13.9809 34.8233 14.0052 34.8015C14.3002 35.1601 14.5439 35.5506 14.7304 35.9636C14.7469 36.0002 14.755 36.0295 14.7712 36.0658C14.7793 36.0731 14.7793 36.0806 14.7793 36.0806C14.7958 36.1171 14.812 36.1537 14.82 36.183C14.8281 36.19 14.8281 36.2047 14.8281 36.212C14.8446 36.2413 14.8524 36.2703 14.8689 36.3071C14.8689 36.3141 14.877 36.3289 14.877 36.3362C14.8932 36.3655 14.9013 36.3945 14.9097 36.4241C14.9197 36.4422 14.9253 36.4621 14.9258 36.4824L14.9504 36.5482C14.9585 36.5703 14.9669 36.5923 14.9669 36.6066L14.9912 36.6724C14.9918 36.6974 14.9973 36.7222 15.0074 36.7455C15.0154 36.7603 15.0154 36.7821 15.0238 36.8039C15.0319 36.8259 15.0319 36.8552 15.0403 36.8842C15.0484 36.8987 15.0484 36.9135 15.0484 36.928L15.0727 37.0159C15.0727 37.0307 15.0808 37.0452 15.0808 37.0597C15.0889 37.089 15.0889 37.1258 15.0972 37.1549C15.0972 37.1696 15.1053 37.1769 15.1053 37.1914C15.1053 37.2207 15.1134 37.2575 15.1218 37.2938V37.3229C15.1299 37.3594 15.1299 37.3962 15.138 37.4325V37.4543C15.1461 37.4908 15.1461 37.5349 15.1542 37.5715V37.5862C15.1542 37.63 15.1623 37.6739 15.1623 37.7177V37.7247C15.1623 37.7687 15.1704 37.8126 15.1704 37.8564V38.0023C15.1704 39.1938 14.7385 40.3044 14.0052 41.2034C13.7772 41.4738 13.5979 41.6859 13.4023 41.8611C14.1746 42.5113 15.1294 42.961 16.1647 43.162L16.4335 42.7747C16.4517 42.7806 16.4711 42.7831 16.4905 42.7819C16.7431 42.8258 16.9957 42.8478 17.2564 42.8548H17.4111C18.3239 42.8548 19.1876 42.6505 19.9374 42.2922C20.0351 42.2484 20.1247 42.1971 20.2143 42.1533L20.4423 42.0219L20.6215 42.0071L21.1022 41.9705L21.1918 41.9633C21.2653 41.8902 21.2895 41.8974 21.3711 41.8318L21.3222 41.7878L21.1031 41.5552ZM13.9486 37.1118C13.9893 37.3309 14.022 37.5502 14.0382 37.7695C14.0463 38.0033 14.0382 38.2226 14.022 38.4565C13.9903 38.6751 13.9468 38.8921 13.8916 39.1069C13.8266 39.319 13.7451 39.5163 13.6552 39.7208C13.5575 39.9181 13.4517 40.1084 13.3294 40.2984C13.3051 40.3274 13.2806 40.3567 13.256 40.3933C13.2391 40.3591 13.2171 40.3272 13.1907 40.2984C13.0707 40.1112 12.962 39.9184 12.8649 39.7208L12.8161 39.6111C12.7449 39.4458 12.6824 39.2775 12.6287 39.1069C12.5733 38.8922 12.5298 38.6751 12.4984 38.4565C12.4819 38.2224 12.4741 38.0031 12.4819 37.7695C12.4984 37.5502 12.5308 37.3309 12.5715 37.1118C12.6287 36.8925 12.6938 36.6879 12.7753 36.4831C12.7834 36.4466 12.7996 36.4173 12.8161 36.388C12.8895 36.22 12.9791 36.0593 13.0687 35.8913C13.1337 35.7962 13.1909 35.701 13.256 35.6136C13.321 35.7013 13.3863 35.7962 13.4517 35.8913C13.5575 36.0886 13.6552 36.2786 13.7451 36.4831C13.8263 36.6879 13.8916 36.8925 13.9486 37.1118ZM19.9379 41.8035C19.8129 41.8712 19.6852 41.9346 19.5549 41.9938C19.3269 42.0814 19.115 42.1618 18.8786 42.2349C18.6424 42.2932 18.406 42.3446 18.1614 42.3811C17.9088 42.4102 17.6726 42.4249 17.4116 42.4322C17.3628 42.4322 17.3058 42.4322 17.257 42.4249C17.0581 42.4173 16.8597 42.4026 16.6621 42.3811C16.6052 42.3739 16.548 42.3591 16.491 42.3518C16.3118 42.3153 16.1323 42.2787 15.945 42.2349C15.719 42.162 15.4961 42.0816 15.2767 41.9938C15.0732 41.8987 14.8856 41.8035 14.6981 41.7014C15.5827 40.6318 16.0599 39.3351 16.0589 38.0033C16.0589 36.5931 15.5782 35.336 14.7062 34.298C14.8229 34.2304 14.9425 34.167 15.0649 34.108C15.2759 34.0062 15.4935 33.9159 15.7167 33.8376C15.9458 33.7658 16.1798 33.7073 16.4173 33.6623L16.4907 33.6476L16.9064 33.5892C17.0287 33.582 17.1428 33.582 17.2567 33.5745H17.664C17.9166 33.5892 18.1609 33.6183 18.4054 33.6623C18.6499 33.7062 18.878 33.7647 19.1063 33.8376C19.3314 33.9173 19.5517 34.0075 19.7662 34.108C19.8232 34.1373 19.8804 34.1663 19.9374 34.1959C19.97 34.2176 20.0024 34.2324 20.027 34.2469L20.0596 34.2835C20.0189 34.3346 19.9781 34.3784 19.9374 34.4294C19.1387 35.4454 18.7231 36.6584 18.7231 38.0031C18.7227 39.2602 19.146 40.4881 19.9374 41.5256C19.9943 41.5917 20.0432 41.6498 20.092 41.7159C20.042 41.747 19.9906 41.7762 19.9379 41.8035Z" fill="#D0D1D3"/>
</g>
</svg>
