<svg width="44" height="44" viewBox="0 0 44 44" fill="none" xmlns="http://www.w3.org/2000/svg">
<circle cx="22" cy="22" r="22" fill="white"/>
<mask id="mask0_791_326" style="mask-type:alpha" maskUnits="userSpaceOnUse" x="6" y="6" width="32" height="32">
<rect x="6" y="6" width="32" height="32" fill="#D9D9D9"/>
</mask>
<g mask="url(#mask0_791_326)">
<path fill-rule="evenodd" clip-rule="evenodd" d="M37.1582 14.3234L37.075 13.9459L36.9623 13.5792L36.8204 13.2123L36.6423 12.8403C36.4095 12.4406 36.1441 12.0569 35.8482 11.6923C35.668 11.4717 35.4762 11.2589 35.2736 11.0545C34.8954 10.7039 34.4979 10.3704 34.0825 10.0554L33.5904 9.71511L33.5372 9.68325C32.9032 9.28995 32.2389 8.93927 31.5578 8.61499C30.9118 8.30672 30.2244 8.06747 29.5427 7.83368L28.8671 7.63175L28.298 7.47207L28.1679 7.44021C27.1901 7.2117 26.2063 7.02561 25.2107 6.89269L24.4165 6.80766L23.6224 6.74921L22.8166 6.71189L21.9986 6.69604C21.0207 6.71189 20.043 6.77052 19.0711 6.86083C18.778 6.89248 18.4856 6.9297 18.1941 6.97244C17.1571 7.1212 16.1378 7.35517 15.1363 7.63157C14.9051 7.6953 14.674 7.76431 14.4487 7.8335C14.1138 7.94709 13.7818 8.06754 13.4531 8.19474C13.1516 8.30865 12.8532 8.42916 12.5582 8.55617C11.9895 8.81776 11.4339 9.10153 10.8929 9.40667C10.411 9.70433 9.94617 10.0236 9.50018 10.3633C9.12541 10.672 8.76935 10.9986 8.43354 11.3414C8.2023 11.586 7.99502 11.8464 7.79343 12.1122L7.55042 12.4842L7.34314 12.8403L7.1655 13.2123L7.02319 13.5792L6.91051 13.9459L6.82748 14.3234L6.78586 14.7061C6.76211 15.0888 6.78586 15.4716 6.82748 15.8488C6.91011 16.2259 7.02301 16.5972 7.1653 16.9597C7.34852 17.3363 7.55832 17.7021 7.79343 18.0547C8.07785 18.4267 8.39212 18.7829 8.71796 19.123C9.19445 19.5591 9.70329 19.9657 10.241 20.3402C10.5492 20.5582 10.887 20.7495 11.2187 20.9356C11.847 21.2759 12.4928 21.5842 13.1567 21.8711C13.2574 21.9083 13.3581 21.9456 13.4529 21.9827C13.9862 22.1741 14.5195 22.36 15.0648 22.525L15.8115 22.7269C16.5464 22.897 17.2873 23.0404 18.0339 23.1573C18.0873 23.1681 18.1405 23.1734 18.1939 23.1839C18.6503 23.2531 19.1067 23.3116 19.5687 23.3595C20.3806 23.4179 21.1866 23.4605 21.9984 23.4709C22.9762 23.455 23.9482 23.3966 24.92 23.3063C25.6726 23.2318 26.4315 23.0936 27.1723 22.9449C27.5454 22.8651 27.9249 22.7803 28.298 22.6898C28.3754 22.6686 28.4582 22.6475 28.5351 22.626C29.2997 22.4294 30.0407 22.1688 30.7636 21.8819C31.1841 21.7136 31.5992 21.5346 32.0083 21.3451C32.5291 21.0743 33.0391 20.7871 33.5372 20.484L33.5904 20.4522C34.1832 20.0429 34.7462 19.6019 35.2677 19.1234C35.5977 18.7811 35.9062 18.4227 36.1921 18.0498C36.5045 17.5896 36.7627 17.1015 36.9625 16.5934C37.0691 16.2267 37.1525 15.8599 37.1996 15.4825L37.2234 15.0839L37.2055 14.7119L37.1582 14.3234ZM18.1939 17.5762H16.25L15.7047 16.662H11.1477L10.5492 17.5762H8.1548L12.2441 11.3362L11.8115 10.6559H14.2353L18.1941 16.9916L18.5555 17.5762H18.1939ZM24.3808 15.4927C24.3928 16.9065 22.6976 17.7039 21.0621 17.7039C19.96 17.7039 18.7745 17.1935 18.1939 16.4654C17.9629 16.1731 17.8265 15.8541 17.8265 15.514V12.5213H19.8059V14.892C19.8059 15.6946 20.3747 16.1571 21.1275 16.1571C21.726 16.1571 22.443 15.7531 22.443 14.9452V12.5213H24.3808V15.4927ZM28.298 17.7197C26.2595 17.7197 24.6001 16.508 24.6001 15.0196C24.6001 13.5421 26.2358 12.3301 28.2507 12.3141L27.0476 10.7196H29.2463L31.3085 13.4463C31.747 13.8875 32.002 14.435 32.002 15.0196C32.0022 16.5078 30.343 17.7197 28.298 17.7197ZM34.4912 17.5549H32.5829V12.5162H34.4912V17.5549Z" fill="#CC2229"/>
<path fill-rule="evenodd" clip-rule="evenodd" d="M13.4529 13.1065L12.0781 15.2166H14.8339L13.4946 13.0427L13.4529 13.1065Z" fill="#CC2229"/>
<path fill-rule="evenodd" clip-rule="evenodd" d="M37.9756 14.6528L37.9224 14.2224L37.8333 13.7919L37.7089 13.3719L37.5432 12.9573L37.3477 12.5429C36.933 11.82 36.4467 11.1927 35.8426 10.5762C35.4272 10.1984 34.994 9.83661 34.5443 9.49193L34.0467 9.1518C33.8806 9.05075 33.7089 8.94441 33.5371 8.84882C32.9681 8.51398 32.3813 8.21628 31.777 7.92932L31.1484 7.66348L30.4907 7.41367L29.8095 7.1746L29.1041 6.96739L28.3811 6.77074C28.3515 6.76018 28.3216 6.75472 28.2979 6.74944C27.3134 6.5216 26.3166 6.33886 25.3113 6.20193L24.4934 6.1169L23.6758 6.05845L22.8459 6.01602L21.9985 6C20.8785 6.02112 19.7881 6.09013 18.6798 6.20174L18.1938 6.26565L17.8915 6.30808L17.1152 6.44628C16.1231 6.64031 15.1437 6.8834 14.1816 7.17442C13.9386 7.25945 13.6956 7.34976 13.4528 7.44025C13.0362 7.59561 12.6232 7.75866 12.2142 7.92932C11.6157 8.20572 11.0349 8.5087 10.466 8.82752C9.95332 9.14326 9.45881 9.48212 8.9844 9.8428C8.55766 10.1989 8.15468 10.5657 7.78133 10.9589L7.43763 11.347L7.14143 11.7402L6.86878 12.1443L6.64363 12.5429L6.44204 12.9573L6.28186 13.3719L6.15152 13.7919L6.0626 14.2224L6.00921 14.6528C5.98546 15.0993 6.00921 15.5086 6.0626 15.955C6.15152 16.3802 6.28186 16.7948 6.44204 17.2094C6.64192 17.6298 6.87567 18.0366 7.14143 18.4266C7.4496 18.8359 7.78742 19.2185 8.1429 19.5959C8.70477 20.105 9.30472 20.5792 9.93857 21.015C10.869 21.5891 11.8114 22.0675 12.8366 22.5032C13.0439 22.5829 13.2514 22.6574 13.453 22.7319C13.9258 22.8973 14.402 23.055 14.8812 23.2049L15.6043 23.4016C16.4696 23.5982 17.3231 23.763 18.1942 23.8906C18.6209 23.9545 19.0534 24.0077 19.4921 24.0554C20.3277 24.1139 21.1633 24.1565 21.9989 24.1668C23.1063 24.15 24.212 24.0827 25.3117 23.9651C26.3309 23.8324 27.3145 23.6461 28.2983 23.407C28.5651 23.3431 28.8379 23.2743 29.1045 23.2051C30.231 22.8649 31.3267 22.4474 32.3817 21.9562C32.7725 21.7535 33.1579 21.5426 33.5375 21.3237C33.7093 21.2226 33.8808 21.1165 34.0471 21.0154C34.6822 20.5808 35.2823 20.1066 35.843 19.5963C36.2002 19.2232 36.5345 18.8328 36.8442 18.427C37.1966 17.9122 37.4867 17.3652 37.7095 16.7952C37.8339 16.3765 37.9231 15.9501 37.9762 15.5195L38 15.0836L37.9756 14.6528ZM37.5848 15.5193C37.5373 15.9179 37.4484 16.3059 37.3357 16.6939C37.1461 17.167 36.921 17.6189 36.6422 18.0546C36.4587 18.331 36.2453 18.5914 36.0261 18.8466C35.8718 19.0167 35.7179 19.1921 35.5577 19.3568C35.0124 19.8565 34.4316 20.3082 33.8213 20.7335C33.7265 20.792 33.6317 20.8504 33.5371 20.9036C33.0998 21.1648 32.6531 21.413 32.1976 21.6478C31.3855 22.025 30.5619 22.3546 29.7086 22.6416C29.4715 22.7213 29.2285 22.7958 28.9855 22.8702C28.7579 22.9337 28.5286 22.9921 28.2979 23.0456C27.4911 23.2431 26.6744 23.4063 25.8505 23.5347C25.6546 23.5665 25.4591 23.5931 25.2636 23.6199C24.1732 23.7313 23.0946 23.8005 21.9983 23.8165C21.1745 23.8058 20.3508 23.7633 19.5329 23.7049C19.0826 23.657 18.638 23.6038 18.1936 23.5347C17.6365 23.4549 17.0853 23.354 16.5343 23.2424C16.3355 23.2049 16.1379 23.1624 15.9417 23.115C15.515 23.0194 15.1002 22.9023 14.6855 22.7748C14.2713 22.6427 13.8603 22.5027 13.4528 22.3548C13.3046 22.3016 13.1505 22.2433 12.9964 22.1847C12.3194 21.8972 11.6588 21.5796 11.017 21.2333C10.6733 21.0365 10.3235 20.8399 9.99765 20.6168C9.44583 20.2282 8.92316 19.8074 8.43301 19.3572C8.08791 19.0017 7.76541 18.6291 7.46706 18.241C7.21894 17.8696 6.99728 17.4844 6.80341 17.0878C6.65541 16.6997 6.53076 16.3063 6.44793 15.9026C6.40042 15.4986 6.37667 15.0892 6.39453 14.6801L6.44793 14.2763L6.53096 13.8669L6.64932 13.4736L6.80341 13.0856L6.99302 12.6923L7.21228 12.3149L7.46706 11.9269L7.75149 11.5549L8.10697 11.151C8.46265 10.779 8.84188 10.4387 9.23898 10.1041C9.70066 9.75359 10.1812 9.42363 10.679 9.11539C11.2359 8.80628 11.8052 8.51549 12.3857 8.24359C12.738 8.09527 13.0936 7.95352 13.4524 7.81843C13.7368 7.70682 14.0273 7.60576 14.3117 7.50489C14.519 7.44116 14.7265 7.38271 14.934 7.32408C16.0006 7.02638 17.0851 6.77675 18.1934 6.61725C18.4719 6.57992 18.7505 6.54278 19.029 6.5162C20.0187 6.4257 21.0084 6.36726 21.9981 6.35141L22.8276 6.36216L23.6456 6.40458L24.4572 6.46303L25.3521 6.55862C26.3359 6.69682 27.3078 6.88272 28.2741 7.10614L28.2975 7.11142L28.9851 7.2975L29.6786 7.50471L30.3483 7.73868C30.8163 7.9193 31.2905 8.09483 31.7408 8.30732C32.0076 8.43495 32.2683 8.56241 32.5232 8.70079C32.8692 8.87653 33.2073 9.06447 33.5367 9.26415C33.8704 9.46544 34.1909 9.68368 34.4968 9.91781C34.8632 10.2048 35.2171 10.5044 35.5575 10.816C35.753 11.0127 35.937 11.22 36.1146 11.4273C36.4435 11.8276 36.7368 12.2507 36.9916 12.6923L37.1812 13.0856L37.3355 13.4736L37.4541 13.8669L37.5369 14.2763L37.5905 14.6801L37.6139 15.0841L37.5848 15.5193Z" fill="#CC2229"/>
<path fill-rule="evenodd" clip-rule="evenodd" d="M28.2983 13.7812C27.3622 13.7812 26.6035 14.334 26.6035 15.0198C26.6035 15.7 27.362 16.2581 28.2983 16.2581C29.2348 16.2581 29.9935 15.7 29.9935 15.0198C29.9935 14.334 29.235 13.7812 28.2983 13.7812Z" fill="#CC2229"/>
<path fill-rule="evenodd" clip-rule="evenodd" d="M15.3136 35.6292C15.1304 35.3841 14.9812 35.12 14.8692 34.8426L14.8276 34.8479L14.549 34.8532C14.3776 34.4068 14.2895 33.938 14.2881 33.4659C14.2881 32.7538 14.4837 32.0894 14.8276 31.51C14.9658 31.2753 15.1285 31.0529 15.3136 30.8458C15.3254 30.8298 15.3371 30.8137 15.355 30.7979L15.6571 30.7871L15.7994 30.7819L15.9001 30.6916C15.8231 30.6224 15.7401 30.5534 15.6571 30.4842C15.548 30.4 15.4333 30.3219 15.3136 30.2504C15.1576 30.1564 14.9953 30.0713 14.8276 29.9953C14.306 29.7668 13.7252 29.6444 13.0851 29.6233H12.848C10.5366 29.6817 8.67578 31.3825 8.67578 33.4659V33.5668C8.68167 33.5934 8.68167 33.6252 8.68167 33.6571V33.6624C8.68167 33.6944 8.68756 33.7263 8.68756 33.7527V33.7634C8.69344 33.79 8.69344 33.8219 8.69953 33.8485V33.8592C8.70542 33.8912 8.70542 33.9176 8.71151 33.9444V33.9603C8.7174 33.9868 8.7174 34.0081 8.72349 34.0347C8.72349 34.0453 8.72938 34.0506 8.72938 34.0613C8.73547 34.0826 8.73547 34.1037 8.74136 34.1305C8.74136 34.1358 8.74724 34.1463 8.74724 34.1571C8.75313 34.1782 8.75313 34.1995 8.75922 34.2153C8.76511 34.2314 8.76511 34.2419 8.7712 34.2578C8.7712 34.2738 8.77709 34.2898 8.78318 34.3058C8.78318 34.3217 8.78906 34.3377 8.79495 34.3535C8.79495 34.3643 8.80084 34.3801 8.80673 34.3962C8.81261 34.412 8.81261 34.4333 8.8187 34.4493C8.82459 34.4599 8.82459 34.4704 8.83068 34.4812C8.83657 34.5078 8.84834 34.5291 8.85444 34.5555C8.88996 34.6565 8.92549 34.747 8.96102 34.8424C9.47668 36.033 10.6322 36.942 12.0487 37.2184L12.2444 36.9367C12.4399 36.9686 12.6413 36.9899 12.8488 36.995H12.9614C13.6013 36.995 14.2652 36.8409 14.8282 36.5911C14.9764 36.5272 15.1185 36.4529 15.249 36.3732L15.3142 36.3681L15.6577 36.3468L15.8118 36.336L15.8948 36.267C15.8127 36.1934 15.7337 36.1171 15.6577 36.0383C15.531 35.9104 15.4159 35.7736 15.3136 35.6292ZM14.8276 36.2139C14.7269 36.2672 14.6201 36.3202 14.5135 36.3683C14.3535 36.432 14.1935 36.4904 14.0275 36.5436C13.8496 36.586 13.6838 36.6234 13.5061 36.6499C13.3224 36.6711 13.1446 36.6818 12.9608 36.6871C12.9192 36.6871 12.8837 36.6871 12.8482 36.6818C12.7 36.6765 12.5578 36.6658 12.4155 36.6499C12.2396 36.6232 12.0655 36.5877 11.894 36.5436C11.722 36.4904 11.5681 36.432 11.4021 36.3683C11.2474 36.2974 11.0971 36.2193 10.9516 36.1343C10.8099 36.045 10.6734 35.9492 10.5427 35.8473C10.4182 35.7409 10.2995 35.6292 10.187 35.5125C10.0811 35.3901 9.98026 35.2643 9.88474 35.1352C9.79752 34.9991 9.71844 34.8588 9.64782 34.7152C9.58432 34.5683 9.52696 34.4194 9.47587 34.2687C9.43574 34.1125 9.4041 33.9546 9.38106 33.7957C9.36908 33.6254 9.36319 33.4659 9.36908 33.296C9.38106 33.1365 9.40461 32.977 9.44034 32.8177C9.48175 32.6582 9.52317 32.5094 9.58245 32.3605C9.64762 32.2117 9.71867 32.0735 9.80171 31.9301C9.88474 31.7917 9.97955 31.6642 10.0802 31.5368C10.1868 31.4144 10.2995 31.3028 10.4181 31.1859C10.5484 31.0796 10.6728 30.9785 10.8091 30.8829C10.9573 30.7926 11.0935 30.7076 11.2478 30.6331C11.4038 30.5601 11.564 30.4944 11.7277 30.4365C11.8939 30.3828 12.0643 30.3402 12.2375 30.309L12.593 30.2558C12.676 30.2506 12.7588 30.2506 12.8478 30.2451H13.144C13.3277 30.2558 13.4994 30.277 13.6834 30.309C13.8553 30.3409 14.0212 30.3835 14.1929 30.4365C14.3529 30.4949 14.5129 30.5588 14.667 30.6331C14.7204 30.6597 14.7738 30.6863 14.8272 30.7181L14.8627 30.7342L14.9041 30.766C14.8803 30.7981 14.8507 30.8299 14.8272 30.8616C14.2404 31.6058 13.944 32.4827 13.944 33.4661C13.9431 34.3772 14.2511 35.2671 14.8272 36.0176C14.8627 36.0655 14.8982 36.1079 14.9337 36.1558C14.8971 36.1733 14.8617 36.1927 14.8276 36.2139Z" fill="#D0D1D3"/>
<path fill-rule="evenodd" clip-rule="evenodd" d="M31.024 28.9272C30.9883 28.9272 30.9526 28.9272 30.9114 28.9325C29.8269 28.9536 28.8309 29.2834 28.0133 29.8253C27.9091 29.755 27.8024 29.6877 27.6934 29.6235C27.4272 29.4736 27.1453 29.3472 26.8519 29.2461C26.2828 29.0389 25.6545 28.9272 25.003 28.9272C24.9673 28.9272 24.9257 28.9272 24.8903 28.9325C23.8486 28.9513 22.8394 29.2616 22.0041 29.8202C21.9002 29.751 21.7934 29.6854 21.6839 29.6235C21.5695 29.5601 21.4529 29.4998 21.3343 29.4427C21.1729 29.3669 21.0066 29.2995 20.8365 29.2408C20.2517 29.033 19.6283 28.9266 18.9992 28.9272C18.9637 28.9272 18.9223 28.9272 18.8868 28.9325C18.6971 28.9325 18.5134 28.9484 18.3297 28.9697C17.4583 29.0707 16.6526 29.379 15.9769 29.8307C15.8736 29.7592 15.7668 29.6918 15.6568 29.6288C15.5456 29.5653 15.4309 29.5068 15.3133 29.4535C14.5886 29.1087 13.7809 28.9281 12.9605 28.9274C12.9189 28.9274 12.8834 28.9274 12.8479 28.9327C10.11 28.9859 7.89935 31.0002 7.89935 33.4663C7.89935 35.9273 10.1098 37.9417 12.8479 38.0001H12.9605C13.6183 38.0001 14.2464 37.883 14.8273 37.676C14.993 37.6181 15.1552 37.5525 15.3133 37.4794C15.4297 37.4222 15.5443 37.362 15.6568 37.2987C15.7695 37.2348 15.876 37.1658 15.9769 37.0966C16.6526 37.5484 17.4583 37.8568 18.3297 37.9577C18.5134 37.9843 18.6971 37.9948 18.8868 38.0001H18.9992C19.6283 38.0009 20.2518 37.8945 20.8365 37.6864C21.0083 37.6281 21.1743 37.5589 21.3343 37.4845C21.4541 37.4313 21.5708 37.3728 21.6839 37.3091C21.7907 37.2454 21.8973 37.1764 22.0041 37.1074C22.8161 37.6494 23.8113 37.979 24.8903 38.0001H25.003C25.6545 38.0001 26.283 37.8887 26.8519 37.6864C27.1444 37.5814 27.426 37.4533 27.6934 37.3037C27.8 37.2399 27.9126 37.1762 28.0133 37.1017C28.8309 37.6492 29.8271 37.9788 30.9114 38.0001H31.024C33.8092 38.0001 36.0848 35.9645 36.0848 33.4663C36.0848 30.9682 33.8092 28.9272 31.024 28.9272ZM35.4388 33.4663C35.4388 35.6456 33.4535 37.4209 31.024 37.4209H30.9116C30.8758 37.4209 30.8401 37.4156 30.805 37.4156H30.793C30.7634 37.4156 30.7276 37.4103 30.6923 37.4103H30.6803C30.6507 37.4051 30.615 37.4051 30.5855 37.3998H30.5677C30.538 37.3943 30.5082 37.3943 30.4788 37.3889H30.455C30.4254 37.3838 30.3955 37.3783 30.3722 37.3783C30.3598 37.373 30.3543 37.373 30.3425 37.373C30.3188 37.3677 30.2889 37.3677 30.2656 37.3623C30.2536 37.357 30.2418 37.357 30.2299 37.357C30.2062 37.3517 30.1825 37.3465 30.1588 37.3412C30.1464 37.3412 30.135 37.3412 30.1231 37.3359C30.0934 37.3306 30.0695 37.3251 30.0402 37.3199C29.2578 37.1604 28.5763 36.8415 28.0133 36.3579L28.0013 36.3472C27.9482 36.4004 27.8357 36.4907 27.6932 36.5917C27.6337 36.6341 27.5746 36.6767 27.5096 36.7192C27.3013 36.8472 27.0813 36.9592 26.8519 37.054C26.2726 37.2953 25.6417 37.4205 25.003 37.4209H24.8903H24.8845C24.8487 37.4209 24.813 37.4156 24.7775 37.4156H24.772C24.7362 37.4156 24.7066 37.4103 24.6709 37.4103H24.6593C24.6297 37.4051 24.5939 37.4051 24.5586 37.3998H24.5407C24.5111 37.3943 24.4813 37.3943 24.4516 37.3889H24.4342C24.4045 37.3838 24.3747 37.3783 24.345 37.3783C24.3396 37.373 24.3276 37.373 24.3217 37.373C24.2921 37.3677 24.2681 37.3677 24.2385 37.3623C24.2269 37.357 24.221 37.357 24.209 37.357C24.1853 37.3517 24.1554 37.3464 24.1317 37.3412C24.1201 37.3412 24.1083 37.3412 24.0963 37.3359C24.0726 37.3306 24.0427 37.3251 24.019 37.3199C23.4661 37.2049 22.9431 36.9955 22.4785 36.7032C22.3183 36.5863 22.1699 36.4799 22.0102 36.3579C21.8918 36.4482 21.785 36.528 21.6843 36.6025C21.6191 36.6449 21.5599 36.6875 21.5006 36.7246C21.4472 36.7567 21.3879 36.7885 21.3347 36.8202C21.1753 36.9104 21.009 36.9903 20.8369 37.0593C20.2799 37.2931 19.6574 37.4207 18.9996 37.4207H18.8872C18.8516 37.4207 18.8161 37.4154 18.7804 37.4154H18.7686C18.739 37.4154 18.7034 37.4102 18.6677 37.4102H18.6559C18.6263 37.4049 18.5908 37.4049 18.5611 37.3996H18.5435C18.5138 37.3941 18.4842 37.3941 18.4487 37.3887H18.4308C18.4011 37.3836 18.3715 37.3781 18.3419 37.3781C18.3419 37.3781 18.3358 37.3728 18.3299 37.3728H18.3179C18.2942 37.3676 18.2645 37.3676 18.2349 37.3621C18.229 37.3568 18.2172 37.3568 18.2052 37.3568C18.1815 37.3515 18.1577 37.3463 18.1281 37.341C18.1163 37.341 18.1043 37.341 18.0985 37.3357C18.0688 37.3304 18.0451 37.325 18.0154 37.3197C17.2391 37.1602 16.5397 36.8148 15.9767 36.3417V36.3364C15.8819 36.4107 15.8464 36.4481 15.6566 36.5863C15.6093 36.6183 15.55 36.6607 15.4728 36.7084C15.4195 36.7458 15.3663 36.7776 15.3129 36.8095C15.1527 36.8947 14.9927 36.9743 14.8269 37.0487C14.2426 37.2942 13.6053 37.4212 12.9601 37.4207H12.8416C12.806 37.4207 12.7703 37.4154 12.7348 37.4154H12.7289C12.6932 37.4154 12.6576 37.4102 12.6223 37.4102H12.6162C12.5807 37.4049 12.551 37.4049 12.5155 37.3996H12.4979C12.4682 37.3941 12.4386 37.3941 12.4089 37.3887H12.3852C12.3581 37.3823 12.3302 37.3788 12.3022 37.3781C12.2902 37.3728 12.2845 37.3728 12.2784 37.3728C12.2488 37.3676 12.2191 37.3676 12.1954 37.3621C12.1836 37.3568 12.1716 37.3568 12.1657 37.3568C12.1399 37.3521 12.1143 37.3469 12.0888 37.341C12.0768 37.341 12.065 37.341 12.0533 37.3357C12.0295 37.3304 11.9999 37.325 11.9761 37.3197C10.5243 37.022 9.33894 36.0761 8.82348 34.8427L8.50942 34.8534C8.33316 34.408 8.24295 33.9388 8.24265 33.4661C8.24265 31.1701 10.299 29.294 12.8475 29.2406H12.9126L13.0432 29.5064C13.695 29.5172 14.2876 29.6446 14.8271 29.8679C14.9929 29.9369 15.1529 30.0114 15.3131 30.1017C15.4314 30.1656 15.5441 30.2399 15.6566 30.3141C15.7693 30.3939 15.8758 30.4737 15.9767 30.5641C15.9928 30.5697 16.0071 30.5789 16.0182 30.5907L16.0833 30.5428L16.0953 30.1496C16.7886 29.6978 17.5174 29.3896 18.3295 29.2832C18.5132 29.2566 18.6969 29.2459 18.8866 29.2406H18.9517L19.0821 29.5064C19.722 29.5172 20.3087 29.6392 20.8363 29.8519C21.0081 29.921 21.1741 30.0006 21.3341 30.0909C21.3934 30.1228 21.4527 30.1601 21.512 30.192C21.512 30.1973 21.5061 30.1973 21.5061 30.1973C21.512 30.1973 21.512 30.1973 21.5237 30.2025C21.5771 30.2344 21.6303 30.2717 21.6837 30.3036C21.7133 30.3247 21.743 30.3515 21.7785 30.3726C21.7844 30.3779 21.7905 30.3835 21.7844 30.3886C21.7844 30.3835 21.7903 30.3835 21.7903 30.3835C21.8851 30.4473 21.974 30.5215 22.0569 30.5907L22.146 30.5268C22.1754 30.5002 22.1163 30.1335 22.146 30.1124C22.9325 29.565 23.8946 29.2593 24.8899 29.2406H24.9549L25.0854 29.5064C25.7314 29.5172 26.3242 29.6446 26.8515 29.8573C27.1536 29.9797 27.4319 30.1337 27.693 30.3091C27.7996 30.3888 27.9122 30.4686 28.0129 30.5536C28.0308 30.5694 28.0426 30.5802 28.0604 30.5907L28.1315 30.511L28.1493 30.123C28.9401 29.57 29.9087 29.2605 30.9112 29.2406H30.9761L31.1067 29.5064C32.92 29.5383 34.4668 30.5536 35.1126 31.9835C35.1246 32.01 35.1363 32.0313 35.1483 32.0577C35.1483 32.063 35.1542 32.0685 35.1542 32.0685C35.1662 32.0951 35.1721 32.1217 35.1838 32.143C35.1838 32.1481 35.1897 32.1588 35.1897 32.1641C35.2013 32.1854 35.2072 32.2065 35.2192 32.2333C35.2192 32.2384 35.2251 32.2491 35.2251 32.2544C35.2309 32.2757 35.2429 32.2968 35.2488 32.3183C35.2547 32.329 35.2547 32.3449 35.2608 32.3607L35.2786 32.4086C35.2845 32.4246 35.2845 32.4407 35.2906 32.451C35.2973 32.4664 35.3012 32.4825 35.3022 32.4989C35.3081 32.52 35.3142 32.5363 35.3201 32.5521C35.3201 32.5628 35.326 32.5787 35.326 32.5945C35.3318 32.6105 35.3379 32.6318 35.3438 32.653C35.3438 32.6635 35.3497 32.6743 35.3497 32.6848L35.3676 32.7487C35.3676 32.7595 35.3676 32.77 35.3735 32.7806C35.3735 32.8019 35.3793 32.8287 35.3854 32.8498V32.8764C35.3913 32.8977 35.3974 32.9244 35.3974 32.9508C35.4033 32.9561 35.4033 32.9669 35.4033 32.972C35.4088 32.9986 35.4088 33.0253 35.4149 33.0517V33.0676C35.4208 33.0941 35.4208 33.1262 35.4268 33.1528V33.1635C35.4268 33.1954 35.4269 33.2272 35.4327 33.2591V33.2642C35.4327 33.2963 35.4327 33.3281 35.4386 33.36V33.3651L35.4388 33.4663Z" fill="#D0D1D3"/>
<path fill-rule="evenodd" clip-rule="evenodd" d="M31.155 29.6233H30.9122C29.7861 29.6499 28.7667 30.0698 28.0142 30.7394C27.9014 30.8406 27.7946 30.9471 27.6942 31.0583C27.2973 31.5047 27.0007 32.0257 26.8527 32.5998C26.7807 32.884 26.7449 33.1746 26.7461 33.4661V33.567C26.7461 33.5935 26.7461 33.6254 26.752 33.6573V33.6626C26.752 33.6946 26.752 33.7265 26.7579 33.7529V33.7636C26.7579 33.7902 26.7634 33.8221 26.7695 33.8486V33.8594C26.7695 33.8914 26.7754 33.9178 26.7754 33.9446C26.7812 33.9499 26.7812 33.9552 26.7812 33.9604C26.7871 33.987 26.7871 34.0083 26.7932 34.0349C26.7932 34.0455 26.7932 34.0507 26.7991 34.0615C26.7991 34.0828 26.805 34.1039 26.8111 34.1307C26.8111 34.136 26.8111 34.1465 26.817 34.1573C26.817 34.1784 26.8229 34.1997 26.829 34.2155C26.829 34.2316 26.8348 34.2421 26.8348 34.258L26.8527 34.306V34.3326C26.8586 34.3379 26.8586 34.3432 26.8586 34.3537C26.8659 34.367 26.8698 34.3815 26.8702 34.3963C26.8761 34.4122 26.8821 34.4335 26.888 34.4495C26.8939 34.4601 26.8939 34.4706 26.9 34.4814C26.9059 34.5079 26.912 34.5293 26.9238 34.5557C26.9534 34.6567 26.9887 34.7472 27.0303 34.8426C27.1904 35.2137 27.4144 35.5599 27.6942 35.8686C27.789 35.975 27.8897 36.076 28.0024 36.1767C28.0024 36.1716 28.0083 36.1662 28.0144 36.1607C28.044 36.1288 28.0913 36.0653 28.1033 36.0545C28.1092 35.8898 28.1569 35.6984 28.1628 35.5389L28.2456 35.4646C28.6723 34.9012 28.9391 34.205 28.9391 33.4659C28.9409 33.0639 28.8647 32.6646 28.714 32.286L28.9923 32.0628C28.8617 31.7651 28.6723 31.4781 28.4531 31.2176L28.4888 31.1857C28.5122 31.1644 28.5359 31.1486 28.5599 31.1273C28.7777 31.3909 28.9569 31.6785 29.0932 31.983C29.1052 32.0096 29.1169 32.0309 29.1289 32.0573C29.1289 32.0626 29.1289 32.0681 29.1348 32.0681C29.1407 32.0947 29.1527 32.1212 29.1642 32.1425C29.1642 32.1476 29.1642 32.1584 29.1705 32.1637C29.176 32.185 29.188 32.2061 29.1939 32.2329C29.1998 32.238 29.1998 32.2487 29.2059 32.254L29.2237 32.3179C29.2296 32.3286 29.2357 32.3445 29.2416 32.3603C29.2475 32.3763 29.2475 32.3922 29.2536 32.4082C29.2597 32.4242 29.2655 32.4402 29.271 32.4506C29.271 32.4667 29.2769 32.4825 29.2834 32.4985C29.2889 32.5196 29.2889 32.5358 29.295 32.5517C29.3009 32.5624 29.3009 32.5783 29.307 32.5941C29.3128 32.6101 29.3189 32.6314 29.3248 32.6526C29.3248 32.6631 29.3248 32.6739 29.3307 32.6844C29.3366 32.7057 29.3366 32.727 29.3427 32.7483C29.3427 32.7591 29.3486 32.7696 29.3486 32.7802C29.3545 32.8015 29.3606 32.8283 29.3606 32.8494C29.3664 32.8601 29.3664 32.8654 29.3664 32.876C29.3723 32.8973 29.3723 32.924 29.3784 32.9504C29.3784 32.9557 29.3784 32.9665 29.3843 32.9716C29.3843 32.9981 29.3898 33.0249 29.3898 33.0513C29.3898 33.0566 29.3961 33.0621 29.3961 33.0672C29.3961 33.0937 29.4016 33.1258 29.4016 33.1524V33.1631C29.4075 33.195 29.4075 33.2268 29.4075 33.2587V33.2638C29.4133 33.2958 29.4133 33.3277 29.4133 33.3596V33.4657C29.4133 34.3375 29.0993 35.1454 28.5601 35.7991C28.3765 35.985 28.2519 36.1552 28.1394 36.2616C28.6965 36.7399 29.3364 37.064 30.1188 37.2182L30.3143 36.9365C30.5098 36.9684 30.7112 36.9897 30.913 36.9948H31.0257C33.1947 36.9948 34.9666 35.4111 34.9666 33.4655C34.9666 33.0511 34.8834 32.6524 34.7415 32.2857L35.0139 32.0624C34.4029 30.6703 32.9091 29.671 31.155 29.6233ZM28.5241 32.8177C28.5536 32.977 28.5773 33.1365 28.5952 33.296C28.5952 33.4661 28.5952 33.6256 28.5773 33.7957C28.5544 33.9546 28.5227 34.1125 28.4825 34.2687C28.4362 34.4201 28.3807 34.5691 28.3164 34.7152C28.2415 34.8579 28.1604 34.998 28.0734 35.1352C28.0559 35.163 28.0362 35.1897 28.0144 35.215C27.9965 35.1884 27.9727 35.1618 27.9553 35.1352C27.8679 34.9991 27.7888 34.8589 27.7182 34.7152C27.7062 34.6991 27.7003 34.678 27.6944 34.662C27.637 34.5334 27.5876 34.4021 27.5462 34.2687C27.5062 34.1125 27.4745 33.9546 27.4514 33.7957C27.4394 33.6254 27.4335 33.4659 27.4394 33.296C27.4514 33.1365 27.4752 32.977 27.5048 32.8177C27.546 32.6582 27.5937 32.5094 27.6528 32.3605C27.6648 32.3286 27.6765 32.2966 27.6944 32.2702C27.7455 32.1544 27.8028 32.0409 27.8662 31.9301C27.9137 31.8556 27.9669 31.7866 28.0144 31.7174C28.068 31.7866 28.1151 31.8556 28.1626 31.9301C28.2454 32.0735 28.3106 32.2117 28.3759 32.3605C28.4348 32.5094 28.4825 32.6582 28.5241 32.8177ZM34.6042 33.7957C34.5811 33.9546 34.5495 34.1125 34.5094 34.2687C34.4584 34.4194 34.4009 34.5683 34.3373 34.7152C34.2662 34.8586 34.1893 34.997 34.1006 35.1352C34.0054 35.2627 33.9047 35.3903 33.7981 35.5125C33.6856 35.6291 33.5671 35.7408 33.4428 35.8473C33.3119 35.9492 33.1753 36.045 33.0335 36.1343C32.8855 36.2193 32.7373 36.2991 32.583 36.3683C32.4174 36.432 32.2631 36.4904 32.0913 36.5436C31.9216 36.5871 31.7494 36.6226 31.5755 36.6499C31.3858 36.6711 31.2143 36.6818 31.0247 36.6871C30.9889 36.6871 30.9532 36.6871 30.912 36.6818C30.7674 36.6762 30.6231 36.6656 30.4794 36.6499C30.3013 36.6234 30.1357 36.586 29.9576 36.5436C29.7933 36.4906 29.6313 36.4321 29.4718 36.3683C29.3322 36.3043 29.1956 36.235 29.0625 36.1607C29.7105 35.3826 30.0598 34.4371 30.0581 33.4659C30.0581 32.4402 29.7087 31.5206 29.0743 30.7658C29.1517 30.718 29.2345 30.6755 29.3173 30.6331C29.472 30.5611 29.6302 30.4954 29.7916 30.4365C29.9582 30.3842 30.1284 30.3416 30.3011 30.309L30.6627 30.2558C30.7455 30.2506 30.8284 30.2506 30.9118 30.2451H31.2139C31.3915 30.2558 31.5696 30.277 31.7472 30.309C31.9203 30.3403 32.0906 30.3829 32.2568 30.4365C32.4228 30.4949 32.5767 30.5588 32.7369 30.6331C32.8908 30.7076 33.0331 30.7926 33.1754 30.8829C33.3119 30.9785 33.4359 31.0796 33.5664 31.1859C33.685 31.3028 33.7977 31.4144 33.9042 31.5368C34.0049 31.6642 34.1002 31.7917 34.183 31.9301C34.2658 32.0735 34.3369 32.2117 34.4022 32.3605C34.4613 32.5093 34.5088 32.6582 34.5442 32.8177C34.5799 32.977 34.6036 33.1365 34.6156 33.296C34.6221 33.4661 34.6162 33.6256 34.6042 33.7957Z" fill="#D0D1D3"/>
<path fill-rule="evenodd" clip-rule="evenodd" d="M26.8936 34.8427L26.8524 34.848L26.5737 34.8533C26.4025 34.4068 26.3145 33.9381 26.3132 33.466C26.3132 32.7592 26.5087 32.0895 26.8524 31.4994C26.9926 31.2658 27.1552 31.0435 27.3382 30.8352L27.6939 30.7873L27.8657 30.7607L27.9489 30.6915C27.8657 30.617 27.7829 30.548 27.6939 30.4788C27.4331 30.2822 27.1547 30.1174 26.8524 29.9898C26.3366 29.7665 25.762 29.6444 25.1276 29.623H24.8909C23.5926 29.6549 22.4431 30.2077 21.6847 31.0529C21.5543 31.1909 21.4419 31.3399 21.3351 31.4939C21.108 31.8341 20.9401 32.2034 20.8373 32.5889C20.7633 32.8766 20.7256 33.1707 20.7246 33.4658C20.7246 33.4979 20.7305 33.5298 20.7305 33.5614V33.6623C20.7364 33.6944 20.7364 33.7262 20.7425 33.7526V33.7634C20.7425 33.7899 20.7484 33.8218 20.7484 33.8484V33.8591C20.7542 33.8912 20.7543 33.9176 20.7603 33.9443V33.9602C20.7662 33.9868 20.7723 34.0081 20.7723 34.0347C20.7782 34.0452 20.7782 34.0505 20.7782 34.0612C20.7841 34.0825 20.79 34.1037 20.79 34.1304C20.7959 34.1357 20.7959 34.1463 20.7959 34.157C20.8018 34.1781 20.8076 34.1994 20.8076 34.2153C20.8135 34.2313 20.8135 34.2419 20.8196 34.2577C20.8257 34.2736 20.8255 34.2898 20.8316 34.3058C20.8375 34.3163 20.8375 34.3269 20.8375 34.3376C20.8434 34.3427 20.8434 34.3484 20.8434 34.3535C20.8493 34.3642 20.8493 34.3801 20.8554 34.3961C20.8612 34.4119 20.8671 34.4332 20.873 34.4493C20.873 34.4598 20.8789 34.4704 20.8789 34.4811C20.8909 34.5077 20.8968 34.529 20.9027 34.5554C20.9382 34.6565 20.9737 34.747 21.0153 34.8424C21.1027 35.047 21.2098 35.2444 21.3353 35.4323C21.441 35.5877 21.5578 35.7368 21.6849 35.8788C21.7738 35.9798 21.8747 36.0756 21.9754 36.1712C22.005 36.1499 22.0761 36.1073 22.0881 36.0967C22.0937 35.9372 22.1297 35.7513 22.1356 35.5863L22.2304 35.48C22.663 34.9114 22.9354 34.2096 22.9413 33.4657C22.9404 33.0638 22.8643 32.665 22.7162 32.2858L22.989 32.0626C22.8585 31.7649 22.6632 31.4726 22.4437 31.2121L22.4734 31.1855C22.4967 31.1642 22.5266 31.1431 22.5503 31.1216C22.7721 31.3857 22.9534 31.6753 23.0895 31.9826C23.1015 32.0092 23.1133 32.0305 23.1253 32.0569C23.1253 32.0622 23.1253 32.0677 23.1312 32.0677C23.137 32.0942 23.1431 32.1208 23.1545 32.1421C23.1545 32.1472 23.1604 32.158 23.1604 32.1632C23.1724 32.1845 23.1783 32.2057 23.1841 32.2324C23.19 32.2375 23.19 32.2483 23.1961 32.2536C23.202 32.2749 23.2081 32.296 23.2199 32.3175C23.2199 32.3282 23.2258 32.344 23.2319 32.3599C23.2377 32.3759 23.2434 32.3918 23.2497 32.4078C23.2499 32.4225 23.2539 32.437 23.2613 32.4502C23.2672 32.4662 23.2672 32.4821 23.2733 32.4981C23.2792 32.5192 23.2852 32.5354 23.2852 32.5513C23.2926 32.5644 23.2967 32.5789 23.2972 32.5937C23.3031 32.6097 23.3092 32.631 23.3151 32.6521C23.3151 32.6627 23.321 32.6734 23.321 32.684C23.3269 32.7053 23.333 32.7266 23.333 32.7479C23.3377 32.7579 23.3398 32.7689 23.3388 32.7798C23.3447 32.8011 23.3508 32.8278 23.3567 32.849V32.8755C23.3626 32.8968 23.3683 32.9236 23.3683 32.95C23.3683 32.9553 23.3742 32.966 23.3742 32.9711C23.3742 32.9977 23.3801 33.0245 23.3861 33.0509V33.0667C23.3861 33.0933 23.392 33.1254 23.392 33.1519V33.1627C23.3979 33.1945 23.3979 33.2264 23.404 33.2583V33.3642C23.4099 33.3963 23.4099 33.4282 23.4099 33.4653C23.4099 34.3422 23.0899 35.1503 22.5507 35.8094C22.3906 35.9795 22.4442 35.9476 22.124 36.2506C22.6813 36.7289 23.3092 37.0637 24.0916 37.2178L24.293 36.9361C24.4885 36.968 24.684 36.9893 24.8917 36.9944H25.0044C25.6737 36.9944 26.3023 36.8458 26.8532 36.58C26.9481 36.5375 27.0309 36.4896 27.1196 36.4418L27.2382 36.3833L27.6945 36.3622L27.7774 36.3569C27.831 36.309 27.8488 36.2985 27.9018 36.2506C27.8308 36.1867 27.7595 36.1177 27.6945 36.0486C27.3471 35.6943 27.0755 35.2855 26.8936 34.8427ZM22.5201 32.8178C22.5558 32.9771 22.5737 33.1366 22.5915 33.2961C22.5974 33.4662 22.5915 33.6257 22.5737 33.7958C22.5558 33.9551 22.5201 34.1093 22.4789 34.2688C22.4325 34.4202 22.3771 34.5692 22.3128 34.7153C22.2417 34.8588 22.1648 34.9971 22.0759 35.1353C22.0521 35.1619 22.0286 35.1938 22.0048 35.2256C21.9823 35.196 21.9606 35.1659 21.9397 35.1353C21.8528 34.9981 21.7718 34.858 21.6966 34.7153C21.6908 34.7047 21.6908 34.6887 21.6847 34.6781C21.6253 34.5442 21.5739 34.4076 21.5306 34.2688C21.4905 34.1126 21.4588 33.9547 21.4358 33.7958C21.4179 33.6255 21.4179 33.466 21.4179 33.2961C21.4358 33.1366 21.4534 32.9771 21.4892 32.8178C21.5306 32.6583 21.5781 32.5096 21.6313 32.3606C21.6491 32.3235 21.6668 32.2861 21.6847 32.2543C21.7322 32.1429 21.7915 32.0365 21.8507 31.9302C21.898 31.8504 21.9514 31.776 22.0048 31.7015C22.058 31.776 22.1116 31.8504 22.1587 31.9302C22.2419 32.0737 22.313 32.2119 22.3784 32.3606C22.4314 32.5096 22.4789 32.6583 22.5201 32.8178ZM26.8524 36.2194C26.7576 36.2726 26.6624 36.3205 26.5558 36.3684C26.3964 36.4323 26.2344 36.4908 26.07 36.5437C25.8979 36.5861 25.7263 36.6235 25.5487 36.6501C25.3647 36.6712 25.1871 36.6819 25.0034 36.6872C24.9676 36.6872 24.926 36.6872 24.8907 36.6819C24.7459 36.6765 24.6015 36.6659 24.4577 36.6501C24.2819 36.6227 24.1079 36.5872 23.9363 36.5437C23.772 36.4907 23.6099 36.4322 23.4505 36.3684C23.3155 36.3085 23.1847 36.241 23.0591 36.1665C23.6815 35.4116 24.0547 34.4762 24.0547 33.4662C24.0547 32.4353 23.699 31.5156 23.065 30.761C23.1364 30.7135 23.2116 30.6709 23.2901 30.6334C23.4462 30.5604 23.6065 30.4947 23.7702 30.4368C23.9369 30.3845 24.1071 30.342 24.2798 30.3093L24.6355 30.2561C24.7244 30.2509 24.8073 30.2509 24.8905 30.2454H25.1867C25.3702 30.2561 25.542 30.2773 25.7259 30.3093C25.8976 30.3412 26.0637 30.3838 26.2355 30.4368C26.3978 30.4937 26.5562 30.5594 26.7097 30.6334C26.7629 30.6547 26.8104 30.6813 26.852 30.7079C26.8695 30.7184 26.8874 30.7237 26.9052 30.7345L26.9647 30.7505C26.929 30.7984 26.8873 30.8408 26.852 30.8887C26.283 31.6221 25.9689 32.4992 25.9689 33.4664C25.9678 34.3791 26.2757 35.2707 26.852 36.023C26.8932 36.071 26.929 36.1135 26.9647 36.1612C26.9294 36.1837 26.8918 36.2032 26.8524 36.2194Z" fill="#D0D1D3"/>
<path fill-rule="evenodd" clip-rule="evenodd" d="M21.6842 36.0493L21.5362 35.9005C21.4649 35.8207 21.3999 35.7357 21.3346 35.6507C21.1486 35.3978 20.9955 35.1267 20.8782 34.8426L20.8368 34.8479L20.5582 34.8532C20.3839 34.4074 20.2957 33.9383 20.2974 33.4659C20.2974 32.7485 20.4929 32.0841 20.8368 31.4993C20.9789 31.2655 21.145 31.0422 21.3287 30.835H21.3346L21.6842 30.7871L21.862 30.7606L21.945 30.6914C21.861 30.616 21.774 30.5433 21.6842 30.4734C21.573 30.3892 21.4563 30.3111 21.3346 30.2396C21.1769 30.1422 21.0104 30.0569 20.8368 29.9845C20.327 29.7613 19.7523 29.6444 19.13 29.6233H18.887C18.7004 29.6283 18.5143 29.6442 18.3299 29.671C17.4233 29.7986 16.6053 30.1866 15.9772 30.7447C15.8658 30.8489 15.759 30.9571 15.657 31.0688C15.5326 31.2123 15.414 31.3612 15.3135 31.5206C15.0882 31.8554 14.9282 32.2223 14.8275 32.6101C14.7555 32.8907 14.7197 33.1778 14.7207 33.4657V33.5666C14.7207 33.5932 14.7207 33.625 14.7268 33.6569V33.6622C14.7268 33.6942 14.7268 33.7261 14.7327 33.7525V33.7632C14.7327 33.7898 14.7386 33.8217 14.7386 33.8483C14.7386 33.8536 14.7386 33.859 14.7445 33.859C14.7445 33.8911 14.7504 33.9175 14.7504 33.9442C14.7504 33.9495 14.7563 33.9548 14.7563 33.9601C14.7563 33.9867 14.7621 34.008 14.7682 34.0345V34.0611C14.7741 34.0824 14.78 34.1035 14.7859 34.1303C14.7859 34.1356 14.7859 34.1462 14.7918 34.1569C14.7918 34.178 14.7977 34.1993 14.8038 34.2152C14.8038 34.2312 14.8096 34.2417 14.8096 34.2576C14.8155 34.2736 14.8214 34.2896 14.8214 34.3057C14.8214 34.3108 14.8273 34.3162 14.8273 34.3162C14.8273 34.327 14.8332 34.3375 14.8332 34.3534C14.8406 34.3666 14.8447 34.3812 14.8452 34.396C14.8511 34.4118 14.8572 34.4331 14.863 34.4491C14.8689 34.4597 14.8689 34.4703 14.8748 34.481C14.8807 34.5076 14.8868 34.5289 14.8925 34.5553H14.8984C14.9276 34.6527 14.9632 34.7485 15.0049 34.8422C15.0909 35.0405 15.194 35.2325 15.3133 35.4163C15.4148 35.5728 15.5297 35.722 15.6568 35.8626C15.7572 35.974 15.8641 36.0804 15.977 36.1816C15.9829 36.1816 15.9829 36.1869 15.9888 36.1869C16.0125 36.2082 16.0304 36.123 16.0539 36.139L16.0836 35.6126C16.1252 35.5436 16.1487 35.5065 16.1902 35.4693C16.6422 34.8791 16.8878 34.1814 16.8954 33.4654C16.8954 33.0509 16.8185 32.6522 16.6703 32.2855L16.9429 32.0623C16.8185 31.77 16.6289 31.4883 16.4155 31.2278C16.4332 31.217 16.4451 31.2012 16.4628 31.1854C16.4807 31.1693 16.5044 31.1533 16.5221 31.1375C16.7366 31.3983 16.9138 31.6823 17.0495 31.9827C17.0615 32.0093 17.0674 32.0306 17.0792 32.057C17.085 32.0623 17.085 32.0677 17.085 32.0677C17.097 32.0943 17.1088 32.1209 17.1147 32.1422C17.1206 32.1473 17.1206 32.158 17.1206 32.1633C17.1326 32.1846 17.1382 32.2057 17.1502 32.2325C17.1502 32.2376 17.1561 32.2483 17.1561 32.2536C17.1679 32.2749 17.1738 32.296 17.1799 32.3175C17.1872 32.3307 17.1912 32.3452 17.1916 32.36L17.2095 32.4078C17.2154 32.4239 17.2215 32.4399 17.2215 32.4503L17.2391 32.4982C17.2396 32.5163 17.2436 32.5343 17.2509 32.5513C17.2568 32.5621 17.2568 32.5779 17.2629 32.5937C17.2688 32.6098 17.2688 32.6311 17.2749 32.6522C17.2808 32.6628 17.2808 32.6735 17.2808 32.6841L17.2984 32.748C17.2984 32.7587 17.3043 32.7693 17.3043 32.7798C17.3102 32.8011 17.3102 32.8279 17.3163 32.849C17.3163 32.8598 17.3222 32.865 17.3222 32.8756C17.3222 32.8969 17.3281 32.9237 17.3341 32.9501V32.9712C17.34 32.9978 17.34 33.0245 17.3459 33.0509V33.0668C17.3518 33.0934 17.3518 33.1254 17.3577 33.152V33.1627C17.3577 33.1946 17.3636 33.2265 17.3636 33.2583V33.2634C17.3636 33.2955 17.3695 33.3273 17.3695 33.3592V33.4654C17.3695 34.3319 17.0554 35.1396 16.5221 35.7934C16.3562 35.9901 16.2259 36.1443 16.0836 36.2718C16.6452 36.7446 17.3397 37.0717 18.0926 37.2178L18.2881 36.9362C18.3014 36.9405 18.3155 36.9423 18.3295 36.9414C18.5133 36.9733 18.697 36.9893 18.8866 36.9944H18.9991C19.6629 36.9944 20.2911 36.8459 20.8364 36.5853C20.9074 36.5534 20.9726 36.5161 21.0378 36.4842L21.2036 36.3887L21.334 36.3779L21.6836 36.3513L21.7487 36.346C21.8021 36.2929 21.8198 36.2982 21.8791 36.2505L21.8435 36.2184L21.6842 36.0493ZM16.4809 32.8177C16.5105 32.977 16.5343 33.1365 16.546 33.296C16.5519 33.4661 16.546 33.6256 16.5343 33.7957C16.5112 33.9546 16.4796 34.1125 16.4395 34.2687C16.3922 34.4229 16.3329 34.5664 16.2675 34.7152C16.1964 34.8586 16.1195 34.997 16.0306 35.1352C16.0129 35.1563 15.9951 35.1776 15.9772 35.2042C15.9649 35.1794 15.9489 35.1562 15.9297 35.1352C15.8425 34.9991 15.7634 34.8588 15.6928 34.7152L15.6572 34.6354C15.6055 34.5151 15.5601 34.3928 15.521 34.2687C15.4807 34.1125 15.4491 33.9546 15.4262 33.7957C15.4142 33.6254 15.4085 33.4659 15.4142 33.296C15.4262 33.1365 15.4498 32.977 15.4794 32.8177C15.521 32.6582 15.5683 32.5094 15.6276 32.3605C15.6335 32.3339 15.6453 32.3126 15.6572 32.2913C15.7106 32.1691 15.7758 32.0522 15.841 31.9301C15.8883 31.8609 15.9299 31.7917 15.9772 31.7281C16.0245 31.7919 16.072 31.8609 16.1195 31.9301C16.1964 32.0735 16.2675 32.2117 16.3329 32.3605C16.3919 32.5094 16.4395 32.6582 16.4809 32.8177ZM20.8368 36.2299C20.7459 36.2791 20.6529 36.3252 20.5582 36.3683C20.3924 36.432 20.2383 36.4904 20.0663 36.5436C19.8946 36.586 19.7226 36.6234 19.5448 36.6499C19.3611 36.6711 19.1893 36.6818 18.9995 36.6871C18.964 36.6871 18.9225 36.6871 18.887 36.6818C18.7424 36.6762 18.5981 36.6656 18.4544 36.6499C18.413 36.6447 18.3714 36.6339 18.3299 36.6286C18.1996 36.602 18.0691 36.5755 17.9328 36.5436C17.7685 36.4906 17.6063 36.4321 17.4468 36.3683C17.2988 36.2991 17.1624 36.2299 17.026 36.1556C17.6694 35.3777 18.0164 34.4347 18.0157 33.4661C18.0157 32.4404 17.6661 31.5262 17.0319 30.7713C17.1167 30.7221 17.2038 30.676 17.2927 30.6331C17.4462 30.5591 17.6045 30.4934 17.7668 30.4365C17.9334 30.3842 18.1036 30.3417 18.2763 30.309L18.3297 30.2983L18.632 30.2558C18.7209 30.2506 18.804 30.2506 18.8868 30.2451H19.183C19.3667 30.2558 19.5444 30.277 19.7222 30.309C19.9001 30.3409 20.0659 30.3835 20.232 30.4365C20.3957 30.4944 20.5559 30.5601 20.7119 30.6331C20.7533 30.6544 20.795 30.6755 20.8364 30.697C20.8601 30.7129 20.8837 30.7236 20.9015 30.7342L20.9253 30.7607C20.8956 30.7979 20.866 30.8298 20.8364 30.8669C20.2555 31.6058 19.9532 32.488 19.9532 33.4659C19.953 34.3802 20.2608 35.2732 20.8364 36.0278C20.8778 36.0758 20.9133 36.1181 20.9488 36.1662C20.9124 36.1887 20.8751 36.21 20.8368 36.2299Z" fill="#D0D1D3"/>
</g>
</svg>
