<svg width="99" height="44" viewBox="0 0 99 44" fill="none" xmlns="http://www.w3.org/2000/svg">
<mask id="mask0_2660_1661" style="mask-type:alpha" maskUnits="userSpaceOnUse" x="0" y="0" width="99" height="44">
<rect width="99" height="44" fill="#D9D9D9"/>
</mask>
<g mask="url(#mask0_2660_1661)">
<path d="M73.1722 31.9441C76.1409 31.0416 79.6529 31.8258 81.6551 33.8209C83.6732 35.8314 83.9954 38.7161 82.3531 40.9631C80.7045 43.2205 77.4516 44.3723 74.2965 43.8915C70.7341 43.3464 68.1791 40.706 68.1412 37.7905C68.1728 35.181 70.1656 32.8593 73.1722 31.9441ZM73.6744 42.3746C76.0746 43.0765 78.7654 42.5057 80.4077 40.9091C82.0215 39.3434 82.2173 37.0372 80.9382 35.2889C79.6686 33.5535 77.1042 32.5868 74.6534 32.9827C71.83 33.4404 69.7993 35.4509 69.7708 37.7879C69.7993 39.7933 71.3247 41.6882 73.6744 42.3746Z" fill="#272525"/>
<path d="M74.3629 34.9602C75.7178 34.5412 77.319 34.8806 78.257 35.783C79.2139 36.7085 79.3718 38.0686 78.5949 39.1098C77.8306 40.1357 76.3526 40.6524 74.9124 40.4365C73.2891 40.1948 72.1648 39.0199 72.0827 37.7086C72.0795 37.6855 72.0764 37.6598 72.0795 37.6341C72.0795 37.6032 72.0827 37.5724 72.0858 37.5441C72.1616 36.3897 73.0175 35.3768 74.3629 34.9602ZM75.5851 39.4929C76.8294 39.4955 77.8716 38.6471 77.8685 37.6341C77.8653 36.6185 76.8326 35.7753 75.5851 35.7753C74.3155 35.7753 73.3333 36.6211 73.3017 37.6341C73.3365 38.6496 74.3155 39.4903 75.5851 39.4929Z" fill="#272525"/>
<path d="M22.859 31.9441C25.8277 31.0416 29.3396 31.8258 31.3419 33.8209C33.36 35.8314 33.6821 38.7161 32.0399 40.9631C30.3913 43.2205 27.1384 44.3723 23.9833 43.8915C20.4177 43.3464 17.8659 40.706 17.828 37.7905C17.8596 35.181 19.8524 32.8593 22.859 31.9441ZM23.3611 42.3746C25.7614 43.0765 28.4522 42.5057 30.0944 40.9091C31.7083 39.3434 31.9041 37.0372 30.625 35.2889C29.3554 33.5535 26.791 32.5868 24.3402 32.9827C21.5168 33.4404 19.486 35.4509 19.4576 37.7879C19.486 39.7933 21.0115 41.6882 23.3611 42.3746Z" fill="#272525"/>
<path d="M24.0465 34.9602C25.4014 34.5412 27.0026 34.8806 27.9405 35.783C28.8975 36.7085 29.0554 38.0686 28.2785 39.1098C27.5142 40.1357 26.0362 40.6524 24.596 40.4365C22.9727 40.1948 21.8484 39.0199 21.7663 37.7086C21.7631 37.6855 21.76 37.6598 21.7631 37.6341C21.7631 37.6032 21.7663 37.5724 21.7694 37.5441C21.8452 36.3897 22.7011 35.3768 24.0465 34.9602ZM25.2719 39.4929C26.5162 39.4955 27.5584 38.6471 27.5553 37.6341C27.5521 36.6185 26.5194 35.7753 25.2719 35.7753C24.0023 35.7753 23.0201 36.6211 22.9885 37.6341C23.0201 38.6496 24.0023 39.4903 25.2719 39.4929Z" fill="#272525"/>
<path d="M0.0126266 27.43H3.23716C3.23716 27.1986 3.23716 26.9646 3.23716 26.7332C2.4255 26.7332 1.617 26.7332 0.805344 26.7332C0.726387 26.7332 0.663216 26.7101 0.622162 26.6741C0.619003 26.6715 0.615852 26.669 0.612694 26.6664C0.609535 26.6638 0.609528 26.6638 0.606377 26.6613C0.562157 26.6253 0.533737 26.5764 0.533737 26.5096C0.533737 25.656 0.533737 24.7999 0.533737 23.9463C0.533737 23.8254 0.660065 23.7252 0.805344 23.7252C1.65174 23.7252 2.49812 23.7252 3.34136 23.7252C3.61613 22.8896 4.40885 22.0977 5.19208 21.5938C6.01006 21.0668 6.85644 20.8019 7.86074 20.6245C9.81567 20.28 11.8148 20.0949 13.8013 19.9458C16.9058 19.7144 20.0261 19.6013 23.1433 19.5473C25.0919 19.5062 27.0436 19.4933 28.9922 19.5087C29.8418 15.1483 31.4051 10.6671 34.7086 7.10367C34.7433 7.02654 34.797 6.9597 34.8665 6.90057C35.4729 6.02386 36.4551 5.34254 37.5826 4.93632C38.2805 4.68436 38.9943 4.53523 39.7491 4.46068C40.2038 4.41697 40.9776 4.29872 41.5366 4.40927C43.3968 4.40927 45.2538 4.40927 47.114 4.40927V3.44514H43.6652C43.0589 3.44514 42.5314 3.16747 42.2788 2.76382C41.9693 2.56843 41.7356 2.29332 41.6377 1.95395C41.3534 0.974402 42.1493 0.053991 43.3905 0C44.8432 0 46.2992 0 47.7519 0C51.1565 0 54.5578 0 57.9624 0C61.8754 0 65.7884 0 69.7046 0C72.6796 0 75.6546 0 78.6296 0C79.3307 0 80.0319 0 80.7298 0C80.992 0 81.2478 0.00514702 81.5004 0.069422C82.6721 0.370229 83.1048 1.59145 82.4668 2.40902C82.4574 2.41931 82.4479 2.42959 82.4416 2.43987C82.3152 3.00807 81.6805 3.44257 80.9225 3.44257H77.1895V4.40669C78.0706 4.40669 78.9486 4.40669 79.8298 4.40669C80.9635 4.40669 82.0973 4.40669 83.2311 4.40669C84.785 4.40669 85.7798 5.4171 86.5662 6.39922C88.2179 8.46373 89.2854 10.8856 90.2171 13.2149C90.5866 14.1354 90.9245 15.0635 91.2214 16.0019C91.4235 15.9608 91.6351 15.9376 91.8498 15.9376H96.4008C97.8315 15.9376 99 16.8889 99 18.0535V29.2708C99 30.4355 97.8315 31.3867 96.4008 31.3867H93.9027C93.9027 31.4896 93.9027 31.5924 93.8995 31.6953C93.8742 33.5695 92.6583 35.2895 90.7034 36.2768C88.9411 37.1689 87.0083 37.1175 85.025 37.1175C84.6997 37.1175 84.2891 36.9118 84.2354 36.629C84.1849 36.3693 84.1502 36.0994 84.1059 35.832C84.0333 35.7626 83.9796 35.6803 83.9607 35.5903C83.787 34.7368 83.4364 33.9192 82.9311 33.1787C81.292 31.5719 78.8507 30.5923 76.2515 30.5537C73.5039 30.5152 70.8668 31.5153 69.1392 33.2559C68.1728 34.2277 67.5823 35.4001 67.3328 36.6264C67.2759 36.9093 66.8748 37.1149 66.5432 37.1149C62.9902 37.1149 59.4373 37.1149 55.8843 37.1149C50.228 37.1149 44.5748 37.1149 38.9185 37.1149C37.6299 37.1149 36.3414 37.1149 35.0528 37.1149C34.7244 37.1149 34.3233 36.9093 34.2633 36.6264C33.7232 33.9835 31.4556 31.7441 28.3006 30.9111C25.1235 30.073 21.561 30.7517 19.205 32.6851C17.8912 33.7623 17.0732 35.1327 16.77 36.6264C16.7132 36.9093 16.3121 37.1149 15.9805 37.1149C14.2056 37.1149 12.4275 37.1149 10.6526 37.1149C9.67355 37.1149 8.70399 37.0944 7.766 36.8321C6.19953 36.3951 4.84468 35.5055 4.02987 34.3254C3.2719 33.225 3.18031 32.0732 3.18031 30.8468C3.18031 30.7774 3.19294 30.7131 3.21188 30.654C3.18031 30.0987 3.20242 29.5382 3.21505 28.9854H7.62939e-06V27.43H0.0126266ZM34.7086 9.48699C34.1117 10.3149 33.5874 11.1787 33.139 12.0631C32.3747 13.5672 31.7873 15.1278 31.3262 16.7115C31.5125 16.7141 31.6988 16.7141 31.8788 16.7038C32.1852 16.6832 32.2704 16.5058 32.4157 16.2256C32.6557 15.7525 32.8263 15.246 33.0347 14.7627C33.6032 13.436 34.1749 12.112 34.7433 10.7853C34.9423 10.3226 35.2423 9.79037 34.7086 9.48699ZM47.9541 0.671027C46.5234 0.671027 45.0927 0.671027 43.6621 0.671027C43.5705 0.671027 43.4789 0.671027 43.3873 0.671027C42.0672 0.73016 42.0988 2.36275 43.3999 2.42702C43.5294 2.43474 43.6589 2.42702 43.7884 2.42702C44.5369 2.42702 45.2854 2.42702 46.0307 2.42702C46.6718 2.42702 47.3129 2.42702 47.9509 2.42702V0.671027H47.9541ZM54.7221 0.671027C52.9409 0.671027 51.1628 0.671027 49.3816 0.671027C49.1005 0.671027 48.8163 0.671027 48.5352 0.671027V2.42702C50.5975 2.42702 52.6598 2.42702 54.7221 2.42702V0.671027ZM49.2647 3.45027V4.4144C54.621 4.4144 59.9773 4.4144 65.3336 4.4144C68.5708 4.4144 71.8079 4.4144 75.0451 4.4144V3.45027H49.2647ZM62.0144 0.671027C61.2374 0.671027 60.4574 0.671027 59.6773 0.671027C58.2182 0.671027 56.7591 0.671027 55.3 0.671027V2.42702C57.536 2.42702 59.7752 2.42702 62.0112 2.42702V0.671027H62.0144ZM68.7824 0.671027C66.7201 0.671027 64.6578 0.671027 62.5955 0.671027V2.42702C63.7356 2.42702 64.8725 2.42702 66.0126 2.42702C66.9348 2.42702 67.8602 2.42702 68.7824 2.42702V0.671027ZM75.5472 0.671027C73.9808 0.671027 72.4111 0.671027 70.8447 0.671027C70.3488 0.671027 69.8562 0.671027 69.3603 0.671027V2.42702C71.4226 2.42702 73.4849 2.42702 75.5472 2.42702V0.671027ZM80.8877 2.42702C81.652 2.40645 82.1037 1.85369 81.9015 1.25722C81.7594 0.835578 81.2952 0.676166 80.8088 0.668453C80.2087 0.66074 79.6087 0.668453 79.0055 0.668453C78.0454 0.668453 77.0853 0.668453 76.1252 0.668453V2.42445C77.7138 2.42959 79.3055 2.46816 80.8877 2.42702ZM89.3359 15.4234C88.619 13.364 87.7726 11.3047 86.6609 9.35587C86.2409 9.34301 85.7829 9.32243 85.4103 9.45612C84.7786 9.68237 84.4628 10.2146 84.4502 10.7519C84.4312 11.5695 84.4502 12.3871 84.4502 13.2021C84.4502 13.9939 84.4312 14.7884 84.4502 15.5802C84.4628 16.133 84.8134 16.6755 85.4734 16.8837C85.8366 16.9969 86.2788 16.9557 86.6609 16.9557C87.7189 16.9557 88.7738 16.9557 89.8318 16.9557C89.6802 16.4415 89.5128 15.9299 89.3359 15.4234ZM90.3592 19.3982C90.3465 19.2593 90.3371 19.1205 90.3181 18.9817C90.3118 18.938 90.3055 18.8943 90.2992 18.8531C90.2992 18.848 90.296 18.8403 90.296 18.8326C90.2739 18.722 90.255 18.6115 90.2297 18.5009C90.2139 18.4289 90.1981 18.3569 90.1823 18.2875C90.176 18.2875 90.1697 18.2875 90.1665 18.2875C88.998 18.2875 87.8326 18.2875 86.6641 18.2875C86.1177 18.2875 85.5682 18.3081 85.0408 18.1667C83.9701 17.8787 83.1301 17.11 82.9027 16.2127C82.6784 15.3386 82.8174 14.3539 82.8174 13.4669C82.8174 12.5542 82.789 11.6389 82.8174 10.7262C82.8458 9.76721 83.4175 8.84424 84.4597 8.35832C84.9081 8.15007 85.3787 8.07293 85.8587 8.04465C85.3819 7.31448 84.8702 6.61775 84.1912 6.09069C84.1281 6.04185 84.0617 5.993 83.9954 5.94672C83.9891 5.94158 83.9828 5.93644 83.9765 5.93387C83.9733 5.9313 83.9701 5.93129 83.967 5.92872C83.9354 5.91072 83.9038 5.89015 83.8691 5.87472C83.8122 5.84644 83.7585 5.82074 83.7017 5.7976C83.7333 5.81559 83.6038 5.77189 83.5438 5.75132C83.5343 5.74875 83.528 5.74619 83.5217 5.74362C83.509 5.74619 83.4964 5.74618 83.4743 5.74875C83.449 5.75132 83.4238 5.74875 83.4017 5.74875C82.4511 5.76932 81.4973 5.74875 80.5498 5.74875C75.9262 5.74875 71.3058 5.74875 66.6822 5.74875C61.228 5.74875 55.7706 5.74875 50.3164 5.74875C48.3236 5.74875 46.3307 5.74875 44.3411 5.74875C43.3999 5.74875 42.4493 5.78217 41.5082 5.74875C41.4798 5.74875 41.4513 5.74619 41.4229 5.74362C41.4261 5.74619 41.4324 5.74618 41.4355 5.74875C39.4143 5.65105 37.2004 6.14469 36.2024 7.70014C36.1961 7.713 36.1866 7.72328 36.1771 7.73357C36.0256 7.95724 35.7729 8.17063 35.5802 8.38659C36.4835 8.89308 36.9162 9.7518 36.5182 10.6876C36.2561 11.3047 35.9877 11.9191 35.7255 12.5336C35.1223 13.9348 34.6075 15.4003 33.9001 16.7706C33.5937 17.3645 33.12 17.8916 32.2957 18.0073C31.8694 18.0664 31.4146 18.0433 30.9788 18.0356C30.8366 18.6089 30.7103 19.1822 30.5966 19.7581C31.683 19.7581 32.7694 19.7581 33.8559 19.7581C33.8495 19.4676 33.8022 19.1436 33.8685 18.8608C33.938 18.5729 34.1212 18.2747 34.2412 17.997C35.596 14.8655 36.9477 11.734 38.3026 8.60256C38.4131 8.34547 38.5237 8.08837 38.6374 7.83127C39.0479 6.97769 39.9544 6.47378 41.0787 6.46349C41.5556 6.45835 42.0356 6.46349 42.5125 6.46349C44.559 6.46349 46.6087 6.46349 48.6552 6.46349C50.8565 6.46349 53.0577 6.46349 55.259 6.46349C55.9285 6.46349 56.598 6.46349 57.2707 6.46349C57.716 6.46349 58.1929 6.43007 58.6256 6.50977C59.5225 6.67945 60.1321 7.25279 60.3184 7.94439C60.3405 7.90325 60.3658 7.86211 60.3942 7.82097C60.9437 6.98283 62.0175 6.48149 63.1734 6.46349C63.4198 6.45835 63.6661 6.46349 63.9093 6.46349C67.2412 6.46349 70.5762 6.46349 73.9081 6.46349C75.2662 6.46349 76.6242 6.46349 77.9822 6.46349C78.3138 6.46349 78.6454 6.45578 78.9739 6.49692C80.1424 6.64346 81.1278 7.3402 81.491 8.25547C81.7373 8.87508 81.6394 9.61554 81.6394 10.2583C81.6394 11.4667 81.6394 12.675 81.6394 13.8808C81.6394 15.8399 81.6394 17.799 81.6394 19.7556C81.8415 19.7556 82.0436 19.7556 82.2458 19.7556C82.6532 19.7556 83.0606 19.7556 83.4648 19.7556C85.5524 19.7556 87.6526 19.7067 89.7433 19.7324C89.9644 19.7273 90.1855 19.7273 90.4065 19.7273C90.3844 19.6193 90.3687 19.5087 90.3592 19.3982ZM59.832 24.4682C59.832 23.6275 59.832 22.7868 59.832 21.946C59.5604 21.892 59.3583 21.6941 59.3583 21.4576V21.0873C57.0055 21.0873 54.6526 21.0873 52.2966 21.0873C49.8237 21.0873 47.3508 21.0873 44.878 21.0873C42.2093 21.0873 39.5438 21.0873 36.8751 21.0873C36.0508 21.0873 35.2202 21.095 34.3928 21.1028C34.3928 21.2853 34.3928 21.4704 34.3928 21.6529C34.3928 23.4192 34.3928 25.1829 34.3928 26.9492C34.3928 27.4557 34.3896 27.9647 34.3928 28.4712C34.3991 29.4045 35.1602 30.1424 36.3414 30.1758C39.2564 30.2581 42.1903 30.1758 45.1085 30.1758C49.0121 30.1758 52.9156 30.1758 56.8191 30.1758C57.1602 30.1758 57.5013 30.1835 57.8392 30.1758C58.9541 30.1527 59.791 29.4945 59.8257 28.5792C59.8415 28.1936 59.8384 27.8079 59.8352 27.4223C59.5604 27.3708 59.3552 27.1703 59.3552 26.9312V24.9515C59.3583 24.7201 59.5604 24.5222 59.832 24.4682ZM34.3959 19.0228C34.3959 19.2054 34.3959 19.3879 34.3959 19.573C34.3959 19.6347 34.3959 19.6964 34.3959 19.7581C34.7338 19.7581 35.0718 19.7581 35.4129 19.7581C37.731 19.7581 40.0491 19.7581 42.3672 19.7581C44.979 19.7581 47.5909 19.7581 50.2027 19.7581C53.2535 19.7581 56.3075 19.7581 59.3583 19.7581V19.4805C59.3583 19.2439 59.5604 19.046 59.832 18.992C59.832 18.0793 59.832 17.164 59.832 16.2513C59.832 13.6674 59.832 11.0836 59.832 8.49972C59.832 7.85183 59.5162 7.24764 58.7172 7.00082C58.2814 6.86713 57.7697 6.91084 57.3055 6.91084C55.7011 6.91084 54.0999 6.91084 52.4955 6.91084C48.7531 6.91084 45.0138 6.91084 41.2713 6.91084C40.346 6.91084 39.5185 7.19879 39.1553 7.9521C38.0279 10.5617 36.8972 13.1712 35.7697 15.7834C35.3181 16.8272 34.7718 17.8761 34.4054 18.9431C34.4022 18.956 34.3991 18.9611 34.3959 18.9637C34.3959 18.9714 34.3959 18.9894 34.3959 19.0228ZM81.0899 9.03192C81.0583 7.86211 79.9213 6.93398 78.4844 6.91084C77.7359 6.89799 76.9811 6.91084 76.2326 6.91084C72.8217 6.91084 69.414 6.91084 66.0032 6.91084C65.0747 6.91084 64.1461 6.89799 63.2176 6.91084C61.6006 6.93141 60.5616 7.95981 60.5616 9.22217C60.5616 11.1633 60.5616 13.1044 60.5616 15.0455C60.5616 16.3567 60.5616 17.6679 60.5616 18.9791C60.8742 19.0048 61.1174 19.2208 61.1174 19.4805V19.7581C61.9954 19.7581 62.8734 19.7581 63.7514 19.7581C65.182 19.7581 66.6127 19.7581 68.0434 19.7581C72.3922 19.7581 76.741 19.7581 81.0899 19.7581C81.0899 18.596 81.0899 17.4339 81.0899 16.2718C81.0899 13.9939 81.0899 11.7135 81.0899 9.43557C81.0899 9.30187 81.093 9.16561 81.0899 9.03192ZM81.0899 25.0852C81.0899 24.7613 81.0899 24.4373 81.0899 24.1134C81.0899 23.103 81.0899 22.0952 81.0899 21.0848C77.439 21.0848 73.7881 21.0848 70.1372 21.0848C68.8455 21.0848 67.557 21.0848 66.2653 21.0848C64.5504 21.0848 62.8323 21.0848 61.1174 21.0848V21.455C61.1174 21.7147 60.8711 21.9306 60.5616 21.9563C60.5616 22.5528 60.5616 23.1518 60.5616 23.7483C60.5616 23.9823 60.5584 24.2188 60.5553 24.4528C60.8711 24.4759 61.1174 24.6919 61.1174 24.9541V26.9338C61.1174 27.2037 60.8521 27.4248 60.5237 27.4351C60.5332 27.7205 60.5426 28.0084 60.5647 28.2913C60.65 29.3942 61.8059 30.2889 63.1671 30.2889C63.4671 30.2581 63.7924 29.6745 63.9535 29.4842C64.1525 29.2502 64.3641 29.0214 64.582 28.7978C64.9831 28.3915 65.4157 28.0059 65.8863 27.6511C66.739 27.0058 67.7023 26.4556 68.7445 26.0339C70.6426 25.2652 72.7554 24.9233 74.8651 24.9053C76.7221 24.8898 78.5823 25.1161 80.3793 25.4992C80.6635 25.5609 80.9825 25.5943 81.0899 25.3141C81.1151 25.2523 81.0899 25.1521 81.0899 25.0852ZM4.8731 30.6617C4.8731 30.744 4.87941 30.8263 4.88573 30.9085C5.58369 32.5668 7.46913 33.6981 9.64513 33.7238C11.4264 33.7238 13.2076 33.7238 14.992 33.7238C15.791 30.8648 18.4376 28.4995 21.8737 27.5765C25.5656 26.5816 29.7692 27.4325 32.4852 29.6899C33.8243 30.8006 34.7654 32.2095 35.1855 33.7238C38.4921 33.7238 41.7956 33.7238 45.1022 33.7238C50.6764 33.7238 56.2506 33.7238 61.8249 33.7238C62.8797 33.7238 63.9314 33.7238 64.9831 33.7238C65.7505 30.978 68.2076 28.7103 71.4447 27.6974C74.9598 26.597 79.0244 27.2397 81.8636 29.222C83.4301 30.3146 84.5449 31.8007 85.0881 33.4153C85.126 33.5258 85.1292 33.6286 85.1071 33.7212C85.3692 33.7212 85.6314 33.7212 85.8903 33.7212C88.7138 33.6929 91.0319 31.8804 91.0445 29.5665C91.0508 28.0753 91.0445 26.5841 91.0445 25.0904C91.0445 24.3731 90.8929 23.6917 90.7318 22.9899C90.7097 22.8922 90.7129 22.7919 90.735 22.6942C90.615 22.1569 90.4981 21.6221 90.3781 21.0848C88.559 21.0848 86.7399 21.0848 84.9239 21.0848C84.6018 21.0848 84.2796 21.0848 83.9575 21.0848C83.1806 21.0848 82.4068 21.0848 81.6299 21.0848C81.6299 21.6324 81.6299 22.18 81.6299 22.7276C81.6299 23.5478 81.6394 24.3679 81.6299 25.1855C81.6268 25.5223 81.532 25.8488 81.0899 25.9825C80.6856 26.1059 80.1582 25.9054 79.7539 25.8257C79.3181 25.7408 78.8791 25.6637 78.437 25.5994C73.8513 24.9284 68.9908 25.5763 65.681 28.4352C65.201 28.8492 64.7683 29.294 64.3735 29.7619C64.0482 30.1501 63.8493 30.6103 63.2618 30.7157C63.2334 30.7234 63.1987 30.7311 63.1639 30.7311C63.1355 30.7337 63.1071 30.7337 63.085 30.7286C61.768 30.7029 60.7353 30.0293 60.2742 29.1114C59.9994 29.9084 59.1815 30.5229 58.114 30.6052C57.1823 30.6771 56.2127 30.6154 55.2811 30.6154C53.2093 30.6154 51.1344 30.6154 49.0626 30.6154C45.0959 30.6154 41.1324 30.6154 37.1657 30.6154C36.8909 30.6154 36.6161 30.6206 36.3414 30.6154C34.9581 30.5846 33.8906 29.7156 33.8527 28.5895C33.8117 27.4171 33.8527 26.237 33.8527 25.0647C33.8527 23.7432 33.8527 22.4217 33.8527 21.1028C32.3621 21.1156 30.8682 21.1259 29.3839 21.0822C29.3491 21.0822 29.3144 21.0822 29.2765 21.0822C28.3132 21.0822 27.3531 21.0822 26.3899 21.0822C23.3896 21.0822 20.3704 21.1567 17.3733 21.0822C17.3322 21.0822 17.2911 21.0822 17.2532 21.0822C17.1617 21.0873 17.0795 21.0796 17.0037 21.0642C14.5877 21.1747 12.178 21.3521 9.79672 21.6735C8.96927 21.7841 8.03446 21.8663 7.24491 22.108C6.71433 22.27 6.19953 22.5939 5.80791 22.923C5.41314 23.2521 4.88572 23.8126 4.8794 24.2908C4.8794 25.3346 4.86993 26.3784 4.86678 27.4223H7.05225V28.9906H4.86362C4.86362 29.5536 4.86678 30.1064 4.8731 30.6617ZM3.24032 24.2985C3.24032 24.2677 3.24346 24.2394 3.24662 24.2137C3.24662 24.2008 3.24978 24.1854 3.24978 24.1725C2.52656 24.1725 1.80333 24.1725 1.07694 24.1725C1.07694 24.8796 1.07694 25.5866 1.07694 26.2936C1.79701 26.2936 2.51709 26.2936 3.23716 26.2936C3.24032 25.6277 3.24032 24.9618 3.24032 24.2985Z" fill="#272525"/>
<path d="M9.25673 22.3855C9.27568 22.3803 9.29463 22.3752 9.31674 22.37C10.0652 22.2595 10.8137 22.1464 11.5622 22.0358C11.897 21.987 12.2223 21.9278 12.5602 22.005C13.1129 22.1309 13.5298 22.5372 13.5487 23.0076C13.5866 23.8715 12.6297 24.0926 11.7959 24.216C11.3159 24.288 10.8327 24.36 10.3526 24.432C10.0557 24.4757 9.74308 24.5451 9.4399 24.5245C7.89554 24.4114 7.87344 22.7171 9.25673 22.3855ZM9.6673 24.0797C9.90732 24.0643 10.1537 24.0103 10.3905 23.9743C11.019 23.8818 11.6759 23.8227 12.2949 23.6915C13.2582 23.4859 13.1729 22.3803 12.1307 22.4035C11.8938 22.4086 11.6443 22.4703 11.4138 22.5063C10.7632 22.604 10.1126 22.6991 9.46201 22.7968C8.47033 22.9999 8.60614 24.144 9.6673 24.0797Z" fill="#272525"/>
<path d="M56.118 23.2386H53.6356C53.2756 23.2386 52.9819 22.9995 52.9819 22.7064V22.6318C52.9819 22.3387 53.2756 22.0996 53.6356 22.0996H56.118C56.478 22.0996 56.7717 22.3387 56.7717 22.6318V22.7064C56.7717 22.9995 56.4749 23.2386 56.118 23.2386Z" fill="#272525"/>
<path d="M80.0381 15.9919C80.0254 17.1129 79.2011 18.1335 77.8368 18.4395C77.3062 18.5578 76.7346 18.5269 76.1914 18.5269C72.3952 18.5269 68.5991 18.5269 64.8029 18.5269C64.7019 18.5269 64.6008 18.5269 64.4997 18.5269C64.465 18.5269 64.4303 18.5243 64.3955 18.5218C62.7785 18.4369 61.5437 17.4085 61.5026 16.0742C61.4837 15.5188 61.5026 14.9635 61.5026 14.4082C61.5026 12.9864 61.3921 11.5312 61.5089 10.112C61.6163 8.8034 62.9175 7.82641 64.5124 7.79299C64.964 7.7827 65.4156 7.79299 65.8672 7.79299C67.9864 7.79299 70.1055 7.79299 72.2247 7.79299C73.8038 7.79299 75.3829 7.77756 76.962 7.79299C78.3011 7.80584 79.5106 8.46659 79.9086 9.53099C80.117 10.0863 80.0381 10.7291 80.0381 11.3024C80.0381 12.8656 80.0539 14.4313 80.0381 15.9919ZM77.8715 9.35616C77.4452 9.09135 76.9557 9.12476 76.4598 9.12476C75.7334 9.12476 75.0039 9.12476 74.2775 9.12476C71.0246 9.12476 67.7527 9.03221 64.5029 9.12476C63.546 9.15305 63.1417 9.7778 63.1417 10.472C63.1417 11.1481 63.1417 11.8243 63.1417 12.5005C63.1417 13.3386 63.1417 14.1793 63.1417 15.0175C63.1417 15.4417 63.0501 15.9636 63.1922 16.3801C63.3596 16.866 63.8965 17.1797 64.506 17.1951C67.7495 17.1951 70.993 17.1951 74.2364 17.1951C74.9786 17.1951 75.7208 17.1951 76.4661 17.1951C76.9651 17.1951 77.4547 17.2285 77.8779 16.9637C78.4747 16.5909 78.4084 16.0305 78.4084 15.4931C78.4084 14.7141 78.4084 13.9377 78.4084 13.1587C78.4084 12.3796 78.4084 11.6032 78.4084 10.8242C78.4021 10.2894 78.4684 9.72896 77.8715 9.35616Z" fill="#272525"/>
<path d="M37.5447 14.0606C37.9773 13.1196 38.41 12.1761 38.8427 11.2351C39.1838 10.4946 39.4522 9.68989 39.9038 8.99572C40.3933 8.23985 41.1797 7.94162 42.184 7.94162C42.9546 7.94162 43.7221 7.94162 44.4927 7.94162C47.0066 7.94162 49.5174 7.94162 52.0281 7.94162C53.0609 7.94162 54.0936 7.94162 55.1232 7.94162C55.6253 7.94162 56.1622 7.90304 56.6612 7.9776C58.2182 8.21413 58.8814 9.5202 58.8846 10.6797C58.8877 11.541 58.8846 12.4023 58.8846 13.2636C58.8846 14.1377 58.8846 15.0093 58.8846 15.8834C58.8846 17.0095 58.3256 18.2796 56.8475 18.6087C56.3707 18.7167 55.8243 18.6755 55.3316 18.6755C54.4378 18.6755 53.5441 18.6755 52.6503 18.6755C48.292 18.6755 43.9337 18.6755 39.5754 18.6755C39.4806 18.6755 39.3859 18.6755 39.2911 18.6755C39.2532 18.6755 39.2153 18.673 39.1806 18.6704C37.5004 18.5701 36.0856 17.3129 36.6919 15.9194C36.9635 15.2947 37.2604 14.6802 37.5447 14.0606ZM39.2911 17.3412C42.8536 17.3412 46.416 17.3412 49.9785 17.3412C51.845 17.3412 53.7146 17.3412 55.5811 17.3412C55.9696 17.3412 56.4117 17.4003 56.7244 17.1844C57.3908 16.7242 57.2486 15.886 57.2486 15.2484C57.2486 13.6724 57.2834 12.0963 57.2486 10.5203C57.236 9.87757 56.8665 9.27082 56.0296 9.27082C55.3663 9.27082 54.7063 9.27082 54.0431 9.27082C50.0353 9.27082 46.0244 9.25025 42.0167 9.27082C41.8461 9.27082 41.6977 9.2631 41.5777 9.34537C41.1671 9.62304 41.0092 10.2915 40.8355 10.6874C40.5923 11.2351 40.3365 11.775 40.087 12.32C39.6701 13.2276 39.2532 14.1377 38.8363 15.0453C38.6911 15.3615 38.5458 15.6777 38.4005 15.9965C38.3247 16.1637 38.1763 16.3976 38.17 16.5725C38.151 17.025 38.7984 17.3283 39.2911 17.3412Z" fill="#272525"/>
</g>
</svg>
