<svg width="99" height="44" viewBox="0 0 99 44" fill="none" xmlns="http://www.w3.org/2000/svg">
<mask id="mask0_2660_1673" style="mask-type:alpha" maskUnits="userSpaceOnUse" x="0" y="0" width="99" height="44">
<rect width="99" height="44" transform="matrix(-1 0 0 1 99 0)" fill="#D9D9D9"/>
</mask>
<g mask="url(#mask0_2660_1673)">
<path d="M76.942 31.6178C78.5261 31.0396 80.3967 31.5347 81.4737 32.8018C82.5728 34.0965 82.7586 35.9818 81.8611 37.4334C80.9636 38.888 79.2221 39.6107 77.5246 39.3001C75.6508 38.9557 74.3471 37.3134 74.2463 35.502C74.2431 35.4651 74.24 35.4251 74.24 35.3851C74.24 35.3359 74.2431 35.2898 74.2494 35.2437C74.3376 33.6198 75.358 32.1929 76.942 31.6178ZM78.3434 37.7501C79.6692 37.747 80.7683 36.6707 80.7652 35.3759C80.762 34.0812 79.6598 33.0048 78.334 33.0109C76.983 33.0171 75.9406 34.0873 75.9122 35.3851C75.9437 36.6799 76.9955 37.7532 78.3434 37.7501Z" fill="#272525"/>
<path d="M75.5784 27.7715C78.8945 26.5628 82.8153 27.6023 85.0544 30.2749C87.325 32.9874 87.6746 36.8931 85.7945 39.9039C83.9364 42.884 80.3337 44.4063 76.8349 43.7574C72.8701 43.0224 70.02 39.5041 69.9728 35.6076C70.0011 32.117 72.2276 28.9924 75.5784 27.7715ZM76.1201 41.8722C78.8662 42.8379 81.9241 42.0198 83.7979 39.8424C85.6433 37.6989 85.8386 34.522 84.3742 32.1416C82.9098 29.7643 79.9747 28.4634 77.1782 29.0201C73.9723 29.6598 71.6734 32.4153 71.645 35.6045C71.6797 38.357 73.4369 40.9311 76.1201 41.8722Z" fill="#272525"/>
<path d="M24.4159 31.7135C26 31.1353 27.8706 31.6304 28.9476 32.8975C30.0467 34.1923 30.2325 36.0775 29.335 37.5291C28.4374 38.9837 26.6959 39.7064 24.9985 39.3958C23.1247 39.0514 21.8209 37.4091 21.7202 35.5977C21.717 35.5608 21.7139 35.5208 21.7139 35.4808C21.7139 35.4316 21.717 35.3855 21.7233 35.3394C21.8115 33.7155 22.8318 32.2916 24.4159 31.7135ZM25.8173 37.8458C27.1431 37.8427 28.2422 36.7664 28.2391 35.4716C28.2359 34.1769 27.1337 33.1005 25.8079 33.1066C24.4568 33.1128 23.4144 34.183 23.3861 35.4808C23.4207 36.7756 24.4694 37.8489 25.8173 37.8458Z" fill="#272525"/>
<path d="M23.0526 27.8672C26.3688 26.6586 30.2896 27.698 32.5287 30.3706C34.7992 33.0831 35.1488 36.9888 33.2687 39.9996C31.4107 42.9797 27.808 44.502 24.3092 43.8531C20.3443 43.1181 17.4942 39.5998 17.447 35.7033C17.4785 32.2127 19.7019 29.0912 23.0526 27.8672ZM23.5943 41.971C26.3404 42.9366 29.3983 42.1186 31.2721 39.9412C33.1176 37.7976 33.3128 34.6208 31.8484 32.2404C30.384 29.8631 27.449 28.5622 24.6524 29.1189C21.4465 29.7586 19.1476 32.5141 19.1192 35.7033C19.1539 38.4527 20.9112 41.0268 23.5943 41.971Z" fill="#272525"/>
<path d="M87.1265 17.8149C87.1265 17.6611 87.2525 17.5535 87.4037 17.5412C89.5042 17.3905 93.7494 17.5781 93.8155 20.3951C93.8186 20.5428 93.6864 20.6688 93.5384 20.6688C91.5229 20.6719 89.5074 20.675 87.4919 20.6811C87.4068 20.6811 87.3439 20.6504 87.2966 20.6043C87.2966 20.6043 87.2935 20.6043 87.2935 20.6012C87.0226 20.389 87.1423 19.5586 87.136 19.2726C87.1297 18.7867 87.1265 18.3008 87.1265 17.8149ZM87.7375 20.2629C87.7438 20.269 87.747 20.2752 87.7501 20.2813C87.7501 20.2783 87.7469 20.269 87.7343 20.2567C87.7343 20.2598 87.7375 20.2598 87.7375 20.2629ZM87.6903 19.002C87.6934 19.2788 87.6997 19.5525 87.7092 19.8293C87.7123 19.9277 87.7312 20.0353 87.7281 20.1368C89.5609 20.1337 91.3969 20.1307 93.2297 20.1276C93.003 18.8205 91.3811 18.3838 90.197 18.2024C89.3751 18.0763 88.5217 18.0332 87.684 18.0732C87.6871 18.3808 87.6871 18.6914 87.6903 19.002Z" fill="#272525"/>
<path d="M7.95826 18.1907C9.00066 17.6525 11.3311 16.9667 12.0271 18.3844C12.6349 19.6177 11.0729 20.8816 10.1281 21.3891C9.03845 21.9765 6.79306 22.65 5.99315 21.2722C5.98055 21.2507 5.97112 21.2292 5.96482 21.2076C5.96482 21.2076 5.96482 21.2076 5.96482 21.2046C5.41056 19.9344 6.97256 18.7012 7.95826 18.1907ZM6.4813 21.0108C7.12374 22.078 9.12978 21.3214 9.92653 20.8755C10.5721 20.5157 11.9893 19.4916 11.5106 18.5905C11.265 18.1292 10.5784 18.083 10.1155 18.1107C9.40062 18.1538 8.69834 18.4029 8.08109 18.7473C7.36622 19.1471 6.12858 20.0636 6.4813 21.0108Z" fill="#272525"/>
<path d="M52.6106 18.9249L54.897 18.9219C55.2654 18.9219 55.5677 19.214 55.5677 19.5739C55.5677 19.9337 55.2686 20.2289 54.9001 20.2289L52.6138 20.232C52.2453 20.232 51.943 19.9398 51.943 19.58C51.943 19.2202 52.2453 18.9249 52.6106 18.9249Z" fill="#272525"/>
<path d="M37.5834 9.49583C39.2305 7.98889 40.8933 6.50348 42.5372 4.99961C43.4662 4.1508 44.5023 3.56647 45.7714 3.36042C46.6973 3.20972 47.6294 3.20972 48.5648 3.20665C50.6055 3.20357 52.6462 3.2005 54.6869 3.19435C55.8899 3.19128 57.0079 3.63721 57.4173 4.84892C57.6408 5.51013 57.5369 6.33433 57.5401 7.02014C57.5432 8.13959 57.5432 9.25595 57.5464 10.3754C57.5464 11.0458 57.6188 11.7563 57.5117 12.4236C57.3196 13.6507 56.2394 14.4257 55.0081 14.4442C54.5514 14.4503 54.0948 14.4472 53.6382 14.4472C51.6857 14.4503 49.73 14.4534 47.7775 14.4564C44.0456 14.4626 40.3075 14.5364 36.5757 14.478C36.5032 14.478 36.4308 14.478 36.3615 14.478C36.3111 14.478 36.2639 14.4749 36.2167 14.4657C35.4797 14.3857 34.8688 13.9429 34.8436 13.1494C34.8184 12.3929 35.2939 11.6578 35.7978 11.1227C36.3458 10.5476 36.9945 10.031 37.5834 9.49583ZM45.0124 12.8326C48.3254 12.8265 51.6416 12.8142 54.9546 12.8142C55.4805 12.8142 55.8489 12.5466 55.8773 12.0023C55.9151 11.3011 55.8741 10.5845 55.8741 9.88026C55.871 8.85308 55.871 7.82589 55.8678 6.79871C55.8678 6.34047 56.0221 5.48244 55.6883 5.09494C55.3293 4.67669 54.4885 4.82431 53.9972 4.82739C52.9642 4.83046 51.9313 4.83047 50.8984 4.83354C50.0134 4.83662 49.1316 4.83661 48.2467 4.83968C47.3618 4.84276 46.4642 4.83354 45.6013 5.05804C44.5904 5.31945 43.926 5.9376 43.1891 6.65417C42.3923 7.4261 41.5325 8.11806 40.7137 8.86538C39.4918 9.98175 38.1849 11.0489 37.026 12.2299C36.8497 12.4082 36.689 12.6204 36.5883 12.848C39.4005 12.8419 42.2065 12.8357 45.0124 12.8326Z" fill="#272525"/>
<path d="M60.714 5.8718C60.714 5.23519 60.7139 4.62626 61.0824 4.05731C61.5926 3.27308 62.4397 3.00245 63.3404 3.00245C64.9276 2.99938 66.5117 2.99629 68.0989 2.99322C69.9065 2.99014 71.6197 3.12239 73.2605 3.96197C75.4303 5.07527 77.0647 7.14809 77.597 9.48539C77.8079 10.4203 77.9308 11.5305 77.7765 12.487C77.5907 13.6279 76.5955 14.3691 75.446 14.4091C74.4099 14.446 73.3644 14.4122 72.3283 14.4152C69.2767 14.4214 66.2251 14.4275 63.1735 14.4306C63.142 14.4337 63.1074 14.4337 63.0727 14.4306C63.0129 14.4306 62.9531 14.4245 62.8995 14.4152C61.6682 14.283 60.7769 13.3665 60.7266 12.1302C60.7077 11.6597 60.7234 11.183 60.7234 10.7125C60.7203 9.10096 60.7171 7.48638 60.714 5.8718ZM63.0664 12.8007C65.4126 12.7976 67.7556 12.7914 70.1018 12.7884C71.5158 12.7853 72.933 12.7822 74.347 12.7791C74.6839 12.7791 75.0272 12.7945 75.3673 12.776C75.9436 12.7484 76.1389 12.4101 76.1389 11.8842C76.1357 9.87596 75.6067 8.0338 74.1108 6.57914C72.7724 5.27825 70.993 4.62011 69.1161 4.62011C67.7651 4.62011 66.4109 4.62625 65.0599 4.62625C64.4552 4.62625 63.8537 4.62933 63.2491 4.62933C62.7861 4.62933 62.424 4.78925 62.3862 5.30284C62.2854 6.65602 62.3925 8.05532 62.3956 9.41464C62.3956 10.1527 62.3988 10.8908 62.3988 11.6289C62.3988 12.1333 62.3579 12.7668 63.0664 12.8007Z" fill="#272525"/>
<path d="M0.859772 27.3956C0.784195 27.1711 0.746368 26.9251 0.746368 26.6668C0.746368 25.9164 0.570023 24.8923 0.954231 24.2064C1.31009 23.5729 2.01552 23.2746 2.6863 23.3515C2.6863 22.7948 2.69575 22.2413 2.72094 21.6908C2.90044 18.0833 5.98355 15.2324 9.665 15.1801C10.7357 15.1771 11.8033 15.1771 12.8741 15.174C14.4865 15.1709 16.102 15.1678 17.7176 15.1648C17.8278 15.1002 17.9632 15.0571 18.1207 15.0479C19.1221 14.9987 19.8622 14.8849 20.8227 14.7004C22.5863 14.3652 24.3845 13.8608 25.8929 12.8767C26.6677 12.3692 27.1652 11.7449 27.6565 10.9853C28.321 9.95814 29.0642 8.97708 29.8704 8.05446C31.3443 6.36914 33.0795 4.8991 34.9911 3.70277C39.0977 1.13174 43.8782 -0.0307577 48.7154 0.0153732C51.3041 0.0399764 53.8927 0 56.4814 0C58.6921 0 60.906 0.0922686 63.1168 0.141475C64.6757 0.175304 66.2471 0.15378 67.8029 0.298323C70.5994 0.562807 73.3959 1.12866 75.994 2.18352C79.1621 3.47211 82.1665 5.6741 83.0325 9.08471C83.5742 11.2221 84.2261 13.3134 86.4053 14.4451C87.1958 14.8572 88.0776 15.011 88.9688 15.0172C89.0255 15.0172 89.0822 15.0233 89.1326 15.0325C89.2932 15.0325 89.4506 15.0325 89.6112 15.0325C91 15.0295 92.3542 15.3001 93.5541 16.0167C94.9681 16.8624 96.0388 18.1817 96.5679 19.7164C96.886 20.642 96.9143 21.5924 96.9174 22.555C96.9174 22.9148 96.9206 23.2746 96.9206 23.6344C97.5032 23.5268 98.1362 23.6959 98.5613 24.1818C99.1439 24.8492 98.977 25.8579 98.9802 26.6698C98.9802 27.1188 98.9991 27.5617 98.7692 27.9707C98.47 28.5028 97.878 28.8503 97.2576 28.8503C97.1222 28.8441 96.993 28.8257 96.8734 28.798C96.7411 29.8006 96.3852 30.757 95.8499 31.6028C95.9506 31.6427 96.0262 31.735 96.0199 31.8488C95.9191 33.5679 95.579 35.4439 93.7934 36.2036C92.5243 36.7418 91.2551 36.6587 89.9041 36.6618C89.8758 36.6618 89.8506 36.6556 89.8254 36.6495L87.6871 36.6526C87.7815 34.835 87.3469 32.9867 86.3801 31.3967C84.3898 28.1214 80.3934 26.3254 76.5923 27.0942C73.188 27.78 70.5364 30.2496 69.516 33.3896C69.4404 33.6756 69.3775 33.9647 69.3302 34.2599C69.3176 34.3429 69.283 34.4198 69.2357 34.4906C69.1287 35.038 69.072 35.6008 69.0657 36.1728C69.0688 36.345 69.0751 36.5172 69.0877 36.6895L66.4392 36.7848V36.7817C63.4128 36.8678 60.3833 36.8156 57.3569 36.8217C52.315 36.8309 47.273 36.8402 42.2343 36.8494C41.0502 36.8525 39.8629 36.8525 38.6788 36.8555C38.6725 36.8555 38.6662 36.8525 38.6599 36.8525L36.8712 36.8555V36.8371L35.2556 36.8402C35.3028 36.0775 35.2556 35.3117 35.117 34.5582C35.0667 34.4875 35.0289 34.4075 35.0163 34.3214C34.9375 33.8632 34.8273 33.4172 34.6824 32.9805C34.4903 32.4669 34.251 31.9687 33.9644 31.4921C31.9898 28.2168 28.0281 26.4207 24.2553 27.1896C19.9283 28.0691 16.8263 31.8734 16.7885 36.2651C16.7917 36.468 16.8011 36.671 16.8169 36.8709L14.5557 36.874C14.5557 36.8678 14.5557 36.8617 14.5557 36.8555C14.1904 36.8648 13.8251 36.8771 13.4598 36.8863C13.4409 36.8924 13.4189 36.8955 13.4 36.8955C11.8065 36.8986 10.2161 36.9048 8.6226 36.9078C6.86219 36.9109 4.69237 36.8033 3.63737 35.1917C2.85007 33.9893 2.97917 32.427 3.22796 31.083C3.22796 31.0553 3.23428 31.0277 3.24372 31.0031C3.25632 30.9477 3.28151 30.9077 3.31615 30.877C3.20277 30.6217 3.10202 30.3572 3.02014 30.0897L1.45183 30.0927C0.655075 30.0927 0 29.4592 0 28.6811C0.00630188 28.1153 0.359047 27.6201 0.859772 27.3956ZM97.2607 28.309C98.4763 28.3059 98.4291 27.1096 98.4291 26.2731C98.4259 25.4151 98.5173 24.1388 97.2544 24.1357C97.1347 24.1357 97.0277 24.148 96.93 24.1695C96.9363 25.4458 96.9458 26.719 96.9332 27.9953C96.9332 28.0845 96.93 28.1737 96.9237 28.2629C97.0245 28.2844 97.1379 28.3029 97.2607 28.309ZM32.7646 7.45783C31.9269 8.22668 31.149 9.06012 30.4404 9.94276C30.1885 10.2564 29.9618 10.5824 29.7382 10.9146C33.0543 9.69057 35.876 7.31944 37.3845 4.22867C35.7091 5.10516 34.1534 6.18154 32.7646 7.45783ZM61.0005 32.8914C61.8886 32.8883 62.7735 32.8883 63.6616 32.8852C64.5339 27.9646 68.798 24.3694 73.5596 23.0163C78.8944 21.5001 84.9567 22.598 89.1231 26.2669C90.9465 27.8754 92.3322 29.9544 92.9557 32.2732C93.6611 31.7965 94.25 31.1568 94.6626 30.4034C95.1507 29.5115 95.2641 28.5612 95.2641 27.5679C95.261 26.5745 95.2609 25.5811 95.2578 24.5909C95.2547 22.5857 95.5066 20.4821 94.2154 18.763C93.173 17.376 91.526 16.6625 89.7907 16.6625C88.3295 16.6625 86.8683 16.6686 85.4102 16.6717C82.3617 16.6779 79.3101 16.684 76.2617 16.6871C72.1488 16.6933 68.0359 16.7025 63.923 16.7086C62.4618 16.7117 60.9974 16.7148 59.5361 16.7178V17.0592C59.5361 17.3422 59.3377 17.582 59.0701 17.6558C59.0732 19.3012 59.0763 20.9465 59.0795 22.5919C59.3188 22.681 59.4889 22.9056 59.492 23.167L59.4952 25.2982C59.4952 25.5627 59.3251 25.7872 59.0858 25.8764C59.0889 27.6909 59.0921 29.5054 59.0952 31.3198C59.0952 31.7166 59.1141 32.1133 59.0984 32.51C59.0921 32.6453 59.0763 32.7714 59.048 32.8944C59.6967 32.8944 60.3486 32.8944 61.0005 32.8914ZM33.1771 17.3022C33.1803 19.5042 33.1866 21.7092 33.1897 23.9112C34.5218 24.5017 35.7689 25.2705 36.8806 26.2239C38.9181 27.9707 40.3888 30.3142 40.8644 32.9313C43.4027 32.9252 45.9409 32.9221 48.4792 32.916C51.8016 32.9098 55.1209 32.9037 58.4434 32.8975C58.5378 32.5777 58.5378 32.224 58.5347 31.8457C58.5315 29.8559 58.5284 27.8631 58.5221 25.8733C58.2922 25.781 58.1253 25.5596 58.1253 25.3013L58.1221 23.17C58.1221 22.9117 58.2859 22.6903 58.5158 22.598C58.5126 20.9342 58.5095 19.2735 58.5063 17.6097C58.3048 17.5052 58.1662 17.2991 58.1662 17.0654V16.7271C55.4358 16.7332 52.7055 16.7363 49.9751 16.7425C45.3205 16.7517 40.6691 16.7609 36.0146 16.7671C35.0698 16.7701 34.1219 16.7701 33.1771 16.7732C33.1771 16.9485 33.1771 17.1269 33.1771 17.3022ZM33.174 15.1371C33.2873 15.1371 33.3976 15.1371 33.5109 15.1371C38.2001 15.1279 42.8893 15.1186 47.5754 15.1125C51.1057 15.1063 54.6328 15.1002 58.1631 15.094V14.9341C58.1631 14.6973 58.3016 14.4913 58.5 14.3867C58.4969 13.4579 58.4969 12.5292 58.4937 11.6004C58.4937 11.5081 58.4937 11.4128 58.4937 11.3205C58.4937 11.3175 58.4937 11.3174 58.4937 11.3144C58.4906 9.2231 58.4843 7.13185 58.4811 5.04058C58.4811 4.73304 58.5095 4.39474 58.4434 4.09335C58.2292 3.11845 57.2214 2.63561 56.283 2.61101C55.3949 2.58948 54.4942 2.57103 53.6093 2.5741C51.4363 2.57718 49.2634 2.57717 47.0904 2.5864C45.4811 2.59255 43.9097 2.84167 42.5272 3.69047C40.9337 4.66845 39.6803 6.14156 38.367 7.4363C36.7861 8.9986 35.1863 10.5394 33.5928 12.0925C33.2023 12.4984 33.1834 12.9628 33.1834 13.4948C33.1834 13.5563 33.2149 13.7809 33.1803 13.9223C33.1992 14.0453 33.1677 14.3959 33.1677 14.439C33.174 14.6727 33.174 14.9065 33.174 15.1371ZM32.6984 13.6794C32.6795 13.6671 32.6323 13.4795 32.6323 13.418C32.6323 13.1934 32.6386 12.9659 32.6732 12.7444C32.7394 12.3354 32.9157 12.0125 33.2055 11.7111C34.6572 10.2934 36.1122 8.87867 37.564 7.46091C38.8772 6.17847 40.1117 4.76994 41.5918 3.66894C43.0405 2.59256 44.719 2.11587 46.5267 2.05128C48.8067 1.96825 51.0994 2.0359 53.3825 2.02975C54.3021 2.02668 55.2217 2.0636 56.1476 2.06668C57.6088 2.06975 59.0008 2.91855 59.0449 4.45932C59.1078 6.73819 59.0543 9.02629 59.0574 11.3082C59.0574 11.3082 59.0574 11.3113 59.0574 11.3144C59.0606 12.3231 59.0606 13.3288 59.0637 14.3375C59.3314 14.4082 59.5298 14.6481 59.5298 14.931V15.091C60.3203 15.091 61.1108 15.0879 61.9044 15.0879C66.1905 15.0787 70.4765 15.0725 74.7626 15.0633C77.9654 15.0571 81.1682 15.051 84.3709 15.0448C84.1662 14.8726 83.9678 14.6881 83.782 14.4882C82.8026 13.4364 82.1318 12.1355 81.7256 10.7762C81.4736 9.9366 81.3792 9.08472 80.9855 8.28204C80.2958 6.87043 79.1338 5.75714 77.7985 4.91755C75.2256 3.2999 72.1456 2.51874 69.1476 2.08819C68.7728 2.03283 68.8484 2.04514 68.4894 2.00209C68.2469 1.97441 68.0044 1.94673 67.7588 1.9252C67.4627 1.89752 67.1699 1.87291 66.8738 1.85753C66.3322 1.82985 65.7842 1.82985 65.2425 1.81755C60.2038 1.70684 55.1807 1.63304 50.142 1.64227C48.8854 1.64534 47.6226 1.58997 46.3661 1.68531C45.0906 1.78065 44.0325 1.94672 42.7098 2.26041C41.4155 2.56795 40.1432 2.98006 38.9213 3.4998C37.9702 6.33839 35.6744 8.88789 33.1771 10.4748C31.8198 11.3359 30.3113 11.9602 28.7524 12.3723C28.6296 12.5415 28.5068 12.7075 28.3745 12.8675C27.5305 13.9008 26.3496 14.6204 25.0993 15.1494C27.5935 15.1463 30.0909 15.1402 32.5851 15.1371C32.5913 14.6758 32.6071 14.2145 32.6386 13.7593C32.6417 13.7286 32.6827 13.7009 32.6984 13.6794ZM4.3995 27.6663C4.67033 27.9246 4.84036 28.2813 4.84036 28.6781C4.84036 28.9764 4.7459 29.2532 4.58215 29.4807C4.75535 30.1296 5.05137 30.7447 5.47967 31.2921C6.08117 32.0641 6.89998 32.6484 7.81641 32.9929C7.91088 32.9898 8.00535 32.9898 8.09982 32.9898C9.19576 32.9867 10.2885 32.9867 11.3845 32.9836C12.2599 28.0353 16.5681 24.431 21.3581 23.0932C25.0269 22.069 29.0957 22.2597 32.6323 23.6744C32.6292 22.1275 32.626 20.5775 32.6228 19.0305C32.6228 18.2832 32.6008 17.5267 32.5882 16.7732C29.5838 16.7794 26.5795 16.7855 23.5751 16.7886C20.5078 16.7947 17.4404 16.8009 14.3762 16.804C12.874 16.807 11.3656 16.8347 9.8634 16.8132C9.79726 16.8132 9.73428 16.8132 9.66815 16.8132C6.95982 16.8501 4.56641 18.9291 4.3995 21.6139C4.30502 23.1485 4.3932 24.7108 4.39635 26.2454C4.3995 26.719 4.39635 27.1927 4.3995 27.6663ZM1.41089 27.2726C1.42664 27.2726 1.4392 27.2695 1.45494 27.2695L2.72094 27.2664C2.72409 27.0881 2.72409 26.9128 2.72409 26.7344C2.72094 25.7903 2.69576 24.8369 2.68945 23.8866C2.62017 23.8774 2.54775 23.8712 2.46902 23.8712C1.25343 23.8681 1.30064 25.0737 1.30064 25.9071C1.30379 26.35 1.28177 26.8605 1.41089 27.2726Z" fill="#272525"/>
</g>
</svg>
