<svg width="99" height="44" viewBox="0 0 99 44" fill="none" xmlns="http://www.w3.org/2000/svg">
<mask id="mask0_2660_1613" style="mask-type:alpha" maskUnits="userSpaceOnUse" x="0" y="0" width="99" height="44">
<rect width="99" height="44" fill="#D9D9D9"/>
</mask>
<g mask="url(#mask0_2660_1613)">
<path d="M36.6607 9.8069C38.3423 7.5807 40.9209 6.08178 43.7554 5.13571C46.8423 4.10687 50.1305 3.82305 53.4118 3.82305C55.1514 3.82305 58.3133 3.55401 58.327 5.73292C58.3372 7.23184 58.3099 8.73075 58.3031 10.2297C58.2997 11.0013 58.2928 11.7729 58.2894 12.5475C58.286 13.1447 58.3167 13.6976 57.7948 14.1765C57.2082 14.7146 56.3316 14.892 55.5095 14.9156C52.5932 14.9156 49.6768 14.9156 46.7605 14.9156C44.8094 14.9156 42.8583 14.9156 40.9073 14.9156C39.8806 14.9156 38.7993 14.9925 37.7795 14.8624C36.3264 14.6791 34.7881 13.7538 35.2929 12.3288C35.6033 11.4448 36.0774 10.5815 36.6607 9.8069ZM37.0564 12.9762C37.3053 13.3132 38.1069 13.3487 38.4992 13.3546C41.1495 13.399 43.8066 13.3546 46.4569 13.3546C49.4722 13.3546 52.4874 13.3546 55.5027 13.3546C55.8608 13.3458 56.0996 13.2334 56.4202 13.1506C56.4543 13.1418 56.4748 13.124 56.4885 13.1152C56.5055 12.9999 56.4782 12.855 56.4782 12.7486C56.4816 12.0922 56.485 11.4389 56.4885 10.7825C56.4987 9.26587 56.5055 7.74626 56.5157 6.2296C56.5191 5.82752 56.6556 5.63831 56.2054 5.48458C55.5027 5.24806 54.4828 5.38997 53.7495 5.38997C50.9184 5.38997 48.1385 5.54962 45.4166 6.28873C42.7765 7.00419 40.1637 8.25181 38.5094 10.2267C37.9773 10.8624 37.51 11.5926 37.2098 12.2874C37.1109 12.5298 36.9165 12.784 37.0564 12.9762Z" fill="#272525"/>
<path d="M74.8769 9.3243C75.7944 10.0279 76.654 10.7877 77.4385 11.6037C77.8205 12.0028 78.2196 12.3931 78.223 12.943C78.2264 13.4515 77.916 13.9098 77.4555 14.2084C76.7119 14.6843 75.7057 14.575 74.8325 14.575C73.4681 14.575 72.1038 14.575 70.7394 14.575C68.2562 14.575 65.7731 14.575 63.2899 14.575C63.2524 14.5779 63.2115 14.5779 63.1705 14.575C63.1023 14.575 63.0409 14.569 62.9795 14.5602C61.9733 14.4508 61.1615 13.8861 61.1001 12.9489C61.0796 12.6444 61.0933 12.334 61.0899 12.0265C61.0762 10.7375 61.0626 9.45143 61.0523 8.16242C61.0455 7.63321 61.0421 7.10696 61.0353 6.57776C61.0319 6.19342 61.0046 5.82091 61.2024 5.45727C61.8334 4.30721 63.2933 4.45207 64.494 4.65311C65.8004 4.87485 67.0658 5.23258 68.2903 5.68196C70.7053 6.57185 72.9156 7.82538 74.8769 9.3243ZM64.2109 6.19933C63.8971 6.14316 63.1501 5.89482 62.8635 6.09881C62.8022 6.14316 62.8635 6.07516 62.8397 6.19933C62.7817 6.49793 62.8465 6.85271 62.8499 7.15427C62.8635 8.43737 62.8772 9.71751 62.8874 11.0006C62.8908 11.515 62.8977 12.0294 62.9045 12.5439C62.9079 12.8839 62.8056 12.9933 63.1739 13.0139C67.3012 13.0139 71.4284 13.0139 75.5591 13.0139C75.7501 13.0139 75.9547 13.0317 76.1423 13.0139C76.1764 13.011 76.2105 13.0139 76.2447 13.008C76.3095 13.0021 76.347 12.9755 76.3947 12.9519C76.3333 12.8661 76.2412 12.7863 76.1662 12.7094C75.9957 12.532 75.8183 12.3547 75.6409 12.1832C74.1503 10.7375 72.4312 9.47508 70.5313 8.44919C68.5837 7.39965 66.4621 6.60437 64.2109 6.19933Z" fill="#272525"/>
<path d="M76.2003 30.0916C79.4168 29.0539 83.2336 29.9644 85.3928 32.2734C87.5689 34.6031 87.9169 37.9291 86.1193 40.519C84.3183 43.1177 80.788 44.4422 77.3668 43.8686C73.5227 43.2241 70.7769 40.1878 70.736 36.8382C70.7769 33.8226 72.9394 31.1441 76.2003 30.0916ZM76.7563 42.1036C79.3486 42.9166 82.2479 42.2367 84.0182 40.4066C85.7611 38.6061 85.9487 35.9483 84.5639 33.9497C83.1825 31.9571 80.406 30.8632 77.7659 31.3303C74.737 31.8684 72.5745 34.1685 72.5369 36.8411C72.571 39.1472 74.2185 41.3083 76.7563 42.1036Z" fill="#272525"/>
<path d="M77.5204 33.5554C78.9871 33.0883 80.7062 33.4904 81.709 34.5252C82.7391 35.5924 82.9096 37.1416 82.0842 38.3419C81.2724 39.5186 79.6931 40.1306 78.1377 39.9029C76.347 39.6398 75.0986 38.2798 75.0065 36.7455C75.0031 36.7159 74.9997 36.6863 75.0031 36.6568C75.0031 36.6183 75.0065 36.5828 75.0099 36.5474C75.0952 35.2051 76.04 34.0255 77.5204 33.5554ZM78.8063 38.7854C80.1434 38.7884 81.2656 37.8157 81.2622 36.6568C81.2588 35.4949 80.1502 34.5281 78.8063 34.5281C77.4385 34.5281 76.3879 35.4949 76.3504 36.6568C76.3879 37.8216 77.4419 38.7824 78.8063 38.7854Z" fill="#272525"/>
<path d="M24.0676 30.0916C27.2841 29.0539 31.101 29.9644 33.2601 32.2734C35.4397 34.6031 35.7842 37.9291 33.9866 40.519C32.1856 43.1177 28.6553 44.4422 25.2342 43.8686C21.39 43.2241 18.6442 40.1878 18.6033 36.8382C18.6442 33.8226 20.8067 31.1441 24.0676 30.0916ZM24.6236 42.1036C27.2159 42.9166 30.1152 42.2367 31.8855 40.4066C33.6285 38.6061 33.8161 35.9483 32.4312 33.9497C31.0498 31.9571 28.2733 30.8632 25.6332 31.3303C22.6043 31.8684 20.4418 34.1685 20.4043 36.8411C20.4384 39.1472 22.0858 41.3083 24.6236 42.1036Z" fill="#272525"/>
<path d="M25.3875 33.5554C26.8543 33.0883 28.5734 33.4904 29.5762 34.5252C30.6063 35.5924 30.7768 37.1416 29.9514 38.3419C29.1396 39.5186 27.5603 40.1306 26.0049 39.9029C24.2142 39.6398 22.9658 38.2798 22.8737 36.7455C22.8703 36.7159 22.8669 36.6863 22.8703 36.6568C22.8703 36.6183 22.8737 36.5828 22.8771 36.5474C22.9624 35.2051 23.9072 34.0255 25.3875 33.5554ZM26.6735 38.7854C28.0106 38.7884 29.1328 37.8157 29.1294 36.6568C29.1259 35.4949 28.0174 34.5281 26.6735 34.5281C25.3057 34.5281 24.2551 35.4949 24.2176 36.6568C24.2551 37.8216 25.3091 38.7824 26.6735 38.7854Z" fill="#272525"/>
<path d="M46.3001 2.95908C47.2176 2.76691 47.9851 2.65752 48.9026 2.65456C50.0385 2.65161 51.1709 2.64865 52.3068 2.6457C54.6467 2.63978 56.9865 2.63091 59.3299 2.625C59.4731 2.625 59.6164 2.625 59.7631 2.625C61.8301 2.68117 63.9312 3.08029 65.9096 3.56515C70.3097 4.64425 74.4642 6.52751 77.8376 9.21788C78.8711 10.0398 79.8262 10.9385 80.6891 11.8935C81.5214 12.8159 82.6231 13.8684 82.6675 15.0923C82.7118 16.405 82.6675 17.7236 82.6675 19.0333C82.6675 19.7428 82.5481 20.4021 82.0024 20.9698C81.2178 21.7798 80.1741 21.8242 79.0519 21.8567C76.8962 21.9217 74.7371 22.1789 72.67 22.7229C70.2858 23.3527 68.0005 24.4052 66.3598 26.0637C65.9266 26.5042 65.5446 26.9802 65.2206 27.4858C64.8965 27.9943 64.6509 28.5235 64.2246 28.9817C63.3855 29.8834 62.1336 30.4245 60.8034 30.4895C60.4555 30.5073 60.1076 30.5102 59.7596 30.5191C57.8802 30.5191 56.0008 30.5191 54.1214 30.5191C52.1908 30.5191 50.2124 30.6285 48.2852 30.5013C46.283 30.3683 44.3729 29.5523 43.0665 28.2219C41.709 26.8383 40.3548 25.5256 38.6084 24.4909C36.9166 23.4916 34.7779 23.0895 33.5091 21.6172C32.6632 20.6386 32.4039 19.5181 32.4039 18.3237C32.4039 15.8758 32.0628 13.4486 33.1782 11.1455C35.4124 6.54229 40.962 4.0707 46.3001 2.95908ZM60.0632 12.1625C60.0632 13.3185 60.0632 14.4715 60.0632 15.6275C60.3395 15.7162 60.5373 15.9468 60.5373 16.2128V18.9742C60.5373 19.2432 60.3395 19.4738 60.0632 19.5595C60.0632 20.5145 60.0632 21.4694 60.0632 22.4243C60.3395 22.513 60.5373 22.7407 60.5373 23.0097V25.771C60.5373 26.0401 60.3395 26.2707 60.0632 26.3564C60.0632 26.5279 60.0632 26.7023 60.0632 26.8738C60.0632 27.9115 60.0632 28.9463 60.0632 29.984C61.0319 29.9544 61.9529 29.8775 62.8056 29.3986C64.0335 28.7068 64.4087 27.5272 65.1933 26.5279C66.5065 24.8545 68.4268 23.6365 70.5518 22.8382C72.5438 22.0873 74.6825 21.6764 76.8382 21.4694C77.7455 21.3807 78.6562 21.3334 79.5704 21.3186C80.9211 21.2979 82.0194 20.6268 82.0706 19.3792C82.1217 18.1138 82.0706 16.8396 82.0706 15.5742C82.0706 15.4146 82.0774 15.249 82.0706 15.0894C82.0365 14.3651 81.576 13.8329 81.1189 13.2564C80.3105 12.2482 79.4066 11.2992 78.4175 10.4212C75.1975 7.56227 71.1146 5.52232 66.735 4.31609C64.6032 3.73071 62.3212 3.24585 60.0666 3.15125C60.0632 6.15796 60.0632 9.16171 60.0632 12.1625ZM33.0077 16.6356C33.0077 17.4161 32.9701 18.2025 33.0145 18.983C33.0657 19.867 33.4477 20.7332 34.0855 21.4221C34.7575 22.1464 35.6102 22.5426 36.5721 22.9092C38.5197 23.6542 40.2457 24.7895 41.7294 26.1022C43.1416 27.3498 44.1717 28.8103 46.1057 29.5198C48.0533 30.2353 50.4103 30.0017 52.4841 30.0017C54.7558 30.0017 57.0275 30.0017 59.3026 30.0017C59.3571 30.0017 59.4117 30.0017 59.4629 30.0017C59.4629 28.8014 59.4629 27.5981 59.4629 26.3978C59.1047 26.3594 58.8285 26.0962 58.8285 25.7769V23.0156C58.8285 22.6963 59.1082 22.4332 59.4629 22.3948C59.4629 21.9247 59.4629 21.4546 59.4629 20.9845C59.4629 20.5233 59.4629 20.0592 59.4629 19.598C59.1047 19.5595 58.8285 19.2964 58.8285 18.9771V16.2158C58.8285 15.8965 59.1082 15.6334 59.4629 15.5949C59.4629 12.4848 59.4629 9.37457 59.4629 6.26439C59.4629 5.22372 59.4629 4.186 59.4629 3.14533C55.7074 3.15716 51.952 3.16603 48.1966 3.17786C47.7975 3.17786 47.4223 3.27246 47.0334 3.34637C46.0102 3.54446 44.9937 3.78097 44.0011 4.06775C42.3604 4.54078 40.771 5.14981 39.3043 5.94509C37.2679 7.04489 35.4772 8.5172 34.3004 10.3443C33.683 11.3051 33.2123 12.3724 33.0452 13.4693C32.8985 14.3976 33.0077 15.6304 33.0077 16.6356Z" fill="#272525"/>
<path d="M1.20407 26.7174H3.01869C3.01528 26.3833 3.01527 26.0522 3.01527 25.7181C1.73618 25.4166 0.351326 24.6243 0.726532 23.3293C1.13584 21.9161 3.11418 21.3101 4.5843 21.1445C4.75484 21.1297 4.92539 21.1238 5.09594 21.1179C6.35117 19.4623 8.24083 18.2502 10.243 17.3307C14.4965 15.3794 19.3537 14.4334 24.0812 13.8332C25.0397 13.712 25.9981 13.6026 26.9634 13.5169C27.2807 13.4873 27.5979 13.4607 27.9151 13.4371C27.9424 13.4341 27.9697 13.4341 27.997 13.4311C28.0004 13.4075 28.0038 13.3838 28.0106 13.3602C28.0413 13.2124 28.0822 13.0645 28.1266 12.9167C28.2391 12.5442 28.3824 12.1806 28.5461 11.8228C28.9316 10.9714 29.4023 10.1524 29.9412 9.36898C31.2681 7.44138 32.9701 5.68525 34.9382 4.22476C37.3395 2.44203 40.1365 1.04954 43.2336 0.428685C45.0278 0.0709547 46.8424 0 48.6741 0C52.01 0 55.3424 0 58.6783 0C60.2951 0 61.5845 0.218777 63.2422 0.49964C65.8208 0.937194 68.3688 1.52257 70.8451 2.28238C78.5334 4.64162 85.3996 8.75109 90.0078 14.6433C92.8082 18.2235 94.7046 22.3448 95.629 26.5962C96.1202 26.5962 96.6079 26.5962 97.0991 26.5962C97.9587 26.5962 98.808 26.8445 98.9717 27.6901C99.1423 28.5563 98.5283 29.3516 97.4811 29.393C97.0241 29.4107 96.5636 29.4019 96.1031 29.3989C96.1884 30.0996 96.243 30.8003 96.26 31.5039C96.2634 31.6872 96.2737 31.8735 96.2635 32.0568H97.6074C98.4362 32.0568 98.9615 32.8254 98.5658 33.4581L97.3208 35.4271C97.1298 35.7316 96.7614 35.9179 96.3624 35.9179H89.8577C89.0664 35.9179 88.3705 35.4626 88.1522 34.8004L87.3916 32.4677C84.5878 28.3346 76.7563 27.7463 72.6052 30.8417C71.5239 31.6458 70.7224 32.6451 70.296 33.8011L70.0947 34.9659C70.0027 35.5099 69.4637 35.909 68.8293 35.909H36.8142C36.2037 35.909 35.6784 35.5336 35.559 35.0132L35.3032 33.8779C33.4715 28.4942 24.3984 27.4211 19.8141 30.8387C19.0126 31.4359 18.3611 32.1425 17.904 32.9378L17.2593 34.963C17.0786 35.5247 16.4885 35.9149 15.8131 35.9149H3.88165C3.4928 35.9149 3.13465 35.7257 2.94705 35.4242L1.73276 33.4552C1.19724 32.4115 1.46329 32.1425 3.73157 32.0745C3.5883 31.8557 3.46211 31.6251 3.35637 31.3857C3.0835 30.7618 3.01869 30.1144 3.01869 29.4551C3.01869 29.2363 3.01527 29.0205 3.00845 28.8047H1.20407C0.542351 28.8047 0 28.3346 0 27.761C0 27.1875 0.542351 26.7174 1.20407 26.7174ZM95.8303 27.6221C95.9053 28.036 95.9701 28.4529 96.0315 28.8697C96.3931 28.8697 96.7512 28.8697 97.1128 28.8697C97.3925 28.8697 97.6892 28.8934 97.9416 28.7633C98.3987 28.5268 98.5317 27.903 98.2657 27.5068C97.9212 26.9953 97.1025 27.1195 96.5261 27.1195C96.26 27.1195 95.9974 27.1195 95.7313 27.1195C95.7654 27.2851 95.7996 27.4536 95.8303 27.6221ZM7.45632 28.8017H4.81966C4.81966 28.8904 4.82307 28.9761 4.82307 29.0648C4.82307 29.4906 4.78896 29.934 4.88446 30.3539C5.03455 31.0072 5.41999 31.5808 5.93845 32.0509C6.56947 32.0509 7.27894 32.0538 8.08051 32.0538H13.3504C15.7244 26.9037 18.8932 23.4092 26.1278 23.4092C33.11 23.4092 39.2155 26.6642 42.5344 31.5187C42.5446 31.7316 42.548 31.9089 42.548 32.0538H65.5173C67.4137 26.7913 71.7695 23.4092 79.0314 23.4092C85.3246 23.4092 90.9015 26.0522 94.3704 30.1262C94.3636 30.0582 94.3601 29.9873 94.3533 29.9193C94.309 29.4876 94.2544 29.0589 94.193 28.6273C94.193 28.6214 94.193 28.6184 94.1896 28.6125C94.1794 28.5563 94.1725 28.5002 94.1623 28.444C94.1384 28.308 94.118 28.172 94.0907 28.036C94.0429 27.767 93.9884 27.4979 93.9338 27.2318C93.6745 26.0049 93.3369 24.7898 92.9207 23.5984C91.8702 20.5946 90.3796 17.854 88.2716 15.2109C85.7578 12.0564 82.4048 9.31872 78.6221 7.24034C73.5466 4.45241 67.7719 2.78793 61.8846 1.86256C61.4412 1.79161 60.9944 1.72657 60.5475 1.66448C60.3019 1.63196 59.9029 1.629 59.6027 1.55805C56.0315 1.55805 52.4636 1.55805 48.8924 1.55805C46.3273 1.55805 43.8305 1.72657 41.4054 2.54255C38.066 3.666 35.1361 5.83603 32.9667 8.2751C31.9946 9.36898 31.1453 10.5604 30.4869 11.8169C30.2516 12.2663 30.0504 12.7334 29.9003 13.2124C29.8321 13.4193 29.7809 13.6292 29.7331 13.8421C29.7229 13.8864 29.7161 13.9308 29.7093 13.9781C29.7434 13.7859 29.7024 14.0638 29.6888 14.1082C29.624 14.3476 29.4807 14.5605 29.2624 14.7202C29.0748 14.8591 28.8736 14.9242 28.6826 14.933C28.2767 15.001 27.8401 15.001 27.4308 15.0365C26.7247 15.0956 26.022 15.1666 25.3194 15.2464C24.586 15.3292 23.4741 15.48 22.5975 15.613C21.4855 15.7845 20.3803 15.9766 19.282 16.2013C16.9626 16.6744 14.6431 17.2657 12.467 18.1171C10.4954 18.8917 8.55122 19.8732 7.13908 21.3219C6.70589 21.7654 6.38187 22.2975 5.9828 22.7765C5.40976 23.4624 4.87764 24.098 4.82307 24.9761C4.78896 25.5526 4.80601 26.135 4.81624 26.7145H7.45291C8.11463 26.7145 8.65696 27.1845 8.65696 27.7581C8.65696 28.3346 8.11804 28.8017 7.45632 28.8017ZM3.01869 25.1682C3.03233 24.4262 3.22675 23.7196 3.60536 23.0544C3.88506 22.5607 4.28415 22.1113 4.65935 21.6589C4.63206 21.6619 4.60817 21.6619 4.58089 21.6649C3.40752 21.7979 1.75323 22.2709 1.3371 23.3648C0.965309 24.3463 2.03293 24.9199 3.01527 25.1801C3.01868 25.1742 3.01869 25.1712 3.01869 25.1682Z" fill="#272525"/>
<path d="M14.0701 18.2414C15.0593 17.9103 17.7198 17.2806 18.2724 18.5459C18.767 19.6783 16.6999 20.6155 15.8029 20.9348C14.7728 21.3043 12.0781 21.9991 11.4232 20.7308C11.4096 20.713 11.3994 20.6923 11.3925 20.6657C11.0037 19.4595 13.0809 18.5726 14.0701 18.2414ZM11.969 20.509C12.467 21.325 14.5408 20.7869 15.2537 20.5652C15.9086 20.3612 16.5669 20.0803 17.0956 19.6842C17.3583 19.4861 17.846 19.1018 17.7198 18.7529C17.5697 18.3479 16.775 18.339 16.3862 18.342C15.6869 18.3508 14.9842 18.4986 14.3328 18.7115C13.671 18.9273 11.7268 19.6546 11.969 20.509Z" fill="#272525"/>
<path d="M36.074 17.8604H39.2598C39.6555 17.8604 39.9829 18.1412 39.9829 18.4871C39.9829 18.833 39.6589 19.1139 39.2598 19.1139H36.074C35.6783 19.1139 35.3509 18.833 35.3509 18.4871C35.3509 18.1412 35.6749 17.8604 36.074 17.8604Z" fill="#272525"/>
<path d="M75.6921 17.8604H78.878C79.2736 17.8604 79.6011 18.1412 79.6011 18.4871C79.6011 18.833 79.277 19.1139 78.878 19.1139H75.6921C75.2965 19.1139 74.969 18.833 74.969 18.4871C74.969 18.1412 75.2965 17.8604 75.6921 17.8604Z" fill="#272525"/>
</g>
</svg>
