<svg width="36" height="36" viewBox="0 0 36 36" fill="none" xmlns="http://www.w3.org/2000/svg">
<mask id="mask0_807_17" style="mask-type:alpha" maskUnits="userSpaceOnUse" x="0" y="0" width="36" height="36">
<rect width="36" height="36" fill="#D9D9D9"/>
</mask>
<g mask="url(#mask0_807_17)">
<path d="M34.4696 1H9.32342C8.47862 1.00098 7.79403 1.68161 7.79304 2.52153V9.41735L6.64315 7.70248C6.1168 6.91312 5.05826 6.67629 4.24258 7.16547L1.87682 8.5796C1.10208 9.03156 0.533728 9.76452 0.291229 10.6244C-0.57179 13.7487 0.0685646 19.1313 8.01515 27.0331C14.3346 33.3095 19.0464 34.9999 22.2938 34.9999C23.0456 35.0033 23.7946 34.9062 24.5204 34.7111C25.3849 34.47 26.1221 33.9058 26.5777 33.1365L27.9982 30.782C28.4883 29.9717 28.2503 28.9214 27.4581 28.3983L21.7933 24.6439C21.0162 24.1329 19.9746 24.301 19.3999 25.03L17.7506 27.138C17.6672 27.2472 17.5471 27.3228 17.4123 27.3512C17.2774 27.3796 17.1368 27.3588 17.016 27.2926L16.7022 27.1207C15.6693 26.561 14.3838 25.8641 11.7876 23.2829C11.5261 23.0227 11.268 22.7591 11.0134 22.4923H34.4696C35.3123 22.4929 35.9967 21.8157 36 20.9779V2.52153C35.999 1.68161 35.3144 1.00098 34.4696 1ZM16.1278 28.1686L16.4327 28.3351C17.1991 28.7611 18.1638 28.5634 18.6983 27.8708L20.3475 25.7628C20.4379 25.6483 20.5683 25.5718 20.7129 25.5484C20.8574 25.5251 21.0055 25.5567 21.1277 25.6369L26.7925 29.3912C26.9164 29.4733 27.0037 29.5996 27.0364 29.744C27.0692 29.8884 27.0448 30.0398 26.9683 30.1668L25.5478 32.5213C25.2511 33.0271 24.7692 33.3991 24.2029 33.5596C21.366 34.3352 16.4009 33.6789 8.86544 26.1865C1.32993 18.694 0.672276 13.7582 1.45062 10.9401C1.61186 10.3771 1.98582 9.89801 2.49424 9.60292L4.86246 8.18999C4.99024 8.11408 5.14247 8.0899 5.28767 8.12244C5.43288 8.15497 5.55996 8.24174 5.64264 8.36479L9.42055 13.9968C9.50136 14.1183 9.53319 14.2655 9.50972 14.4093C9.48625 14.553 9.40919 14.6827 9.29388 14.7725L7.17294 16.4127C6.47647 16.9439 6.27757 17.9029 6.70602 18.6646L6.87404 18.9677C7.47417 20.062 8.22016 21.4236 10.9395 24.1266C13.6588 26.8296 15.0278 27.5718 16.1278 28.1686ZM34.7997 20.9779C34.7988 21.0641 34.7635 21.1465 34.7017 21.2068C34.6398 21.2672 34.5564 21.3008 34.4697 21.3002H9.93072C9.15126 20.414 8.47909 19.4399 7.92801 18.3979L7.75514 18.0847C7.68846 17.9649 7.66741 17.8253 7.69585 17.6914C7.72429 17.5575 7.80032 17.4382 7.91 17.3555L10.0309 15.7153C10.7645 15.144 10.9335 14.1083 10.4192 13.3357L8.99329 11.2079V2.52153C8.99282 2.4783 9.00102 2.43542 9.01744 2.39539C9.03386 2.35536 9.05815 2.31899 9.0889 2.28843C9.11964 2.25786 9.15622 2.23371 9.19648 2.21738C9.23674 2.20106 9.27988 2.1929 9.32335 2.19338H34.4696C34.5131 2.1929 34.5562 2.20106 34.5965 2.21738C34.6368 2.23371 34.6733 2.25786 34.7041 2.28843C34.7348 2.31899 34.7591 2.35536 34.7755 2.39539C34.792 2.43542 34.8002 2.4783 34.7997 2.52153V20.9779H34.7997Z" fill="#13141A"/>
<path d="M32.4026 3.76292L22.3723 11.3258C22.234 11.4257 22.0674 11.4796 21.8964 11.4796C21.7254 11.4796 21.5588 11.4257 21.4205 11.3258L11.3939 3.76292C11.3311 3.71555 11.2595 3.68095 11.1832 3.66108C11.107 3.64122 11.0275 3.63649 10.9494 3.64716C10.8713 3.65782 10.7961 3.68368 10.728 3.72326C10.66 3.76283 10.6004 3.81535 10.5528 3.8778C10.5052 3.94025 10.4704 4.01142 10.4504 4.08724C10.4304 4.16306 10.4256 4.24205 10.4364 4.3197C10.4471 4.39736 10.4731 4.47214 10.5129 4.5398C10.5527 4.60746 10.6055 4.66665 10.6684 4.71401L20.6962 12.2763C21.0437 12.5315 21.4644 12.6693 21.8965 12.6693C22.3286 12.6693 22.7493 12.5315 23.0968 12.2763L33.1277 4.71401C33.1905 4.66666 33.2434 4.60744 33.2832 4.53974C33.323 4.47205 33.3491 4.39722 33.3598 4.31952C33.3705 4.24183 33.3656 4.16279 33.3456 4.08695C33.3255 4.01111 33.2906 3.93994 33.2429 3.87752C33.1467 3.75163 33.0042 3.66884 32.8466 3.64736C32.6891 3.62587 32.5294 3.66743 32.4026 3.76292ZM16.7748 12.3264L10.6269 18.872C10.5206 18.9881 10.4647 19.1412 10.4712 19.2981C10.4777 19.4549 10.5461 19.6029 10.6616 19.71C10.7771 19.8171 10.9304 19.8746 11.0882 19.8701C11.2461 19.8655 11.3958 19.7994 11.5049 19.6859L17.6528 13.1374C17.7503 13.02 17.799 12.87 17.7889 12.7181C17.7788 12.5661 17.7106 12.4238 17.5985 12.3202C17.4863 12.2166 17.3385 12.1595 17.1854 12.1607C17.0322 12.1618 16.8854 12.2211 16.7748 12.3264ZM27.0578 12.3264C27.004 12.2691 26.9394 12.2229 26.8677 12.1903C26.796 12.1578 26.7185 12.1397 26.6398 12.137C26.561 12.1342 26.4824 12.1469 26.4086 12.1744C26.3348 12.2018 26.2671 12.2435 26.2095 12.2969C26.1518 12.3503 26.1053 12.4145 26.0726 12.4859C26.0399 12.5572 26.0217 12.6342 26.0189 12.7125C26.0162 12.7908 26.0289 12.8689 26.0565 12.9423C26.0841 13.0157 26.126 13.083 26.1798 13.1403L32.3259 19.6859C32.3797 19.7432 32.4442 19.7894 32.516 19.8219C32.5877 19.8544 32.6651 19.8726 32.7439 19.8753C32.8227 19.8781 32.9012 19.8654 32.9751 19.8379C33.0489 19.8105 33.1166 19.7688 33.1742 19.7154C33.2319 19.662 33.2784 19.5977 33.3111 19.5264C33.3438 19.4551 33.362 19.3781 33.3648 19.2998C33.3675 19.2215 33.3547 19.1434 33.3271 19.07C33.2995 18.9966 33.2577 18.9293 33.2039 18.872L27.0578 12.3264Z" fill="#13141A"/>
</g>
</svg>
