<svg width="44" height="44" viewBox="0 0 44 44" fill="none" xmlns="http://www.w3.org/2000/svg">
<mask id="mask0_2660_3193" style="mask-type:alpha" maskUnits="userSpaceOnUse" x="0" y="0" width="44" height="44">
<rect width="44" height="44" fill="#D9D9D9"/>
</mask>
<g mask="url(#mask0_2660_3193)">
<path d="M25.3335 27.9994C25.3335 27.3401 25.138 26.6956 24.7718 26.1474C24.4055 25.5993 23.8849 25.172 23.2758 24.9198C22.6667 24.6675 21.9965 24.6014 21.3499 24.7301C20.7033 24.8587 20.1094 25.1762 19.6432 25.6423C19.177 26.1085 18.8595 26.7024 18.7309 27.349C18.6023 27.9957 18.6683 28.6659 18.9206 29.275C19.1729 29.884 19.6001 30.4046 20.1483 30.7709C20.6965 31.1372 21.3409 31.3327 22.0002 31.3327C22.8839 31.3316 23.7312 30.9801 24.3561 30.3552C24.9809 29.7303 25.3325 28.8831 25.3335 27.9994ZM20.0002 27.9994C20.0002 27.6038 20.1175 27.2171 20.3373 26.8882C20.557 26.5593 20.8694 26.303 21.2348 26.1516C21.6003 26.0002 22.0024 25.9606 22.3904 26.0378C22.7783 26.115 23.1347 26.3054 23.4144 26.5851C23.6941 26.8648 23.8846 27.2212 23.9618 27.6092C24.0389 27.9971 23.9993 28.3993 23.848 28.7647C23.6966 29.1302 23.4402 29.4425 23.1113 29.6623C22.7824 29.8821 22.3958 29.9994 22.0002 29.9994C21.4699 29.9988 20.9615 29.7879 20.5866 29.413C20.2116 29.038 20.0007 28.5296 20.0002 27.9994Z" fill="#5E5E5E"/>
<path d="M43.6753 2.76133C43.5764 2.70187 43.4637 2.66919 43.3484 2.6665C43.233 2.66381 43.1189 2.69121 43.0173 2.746L34.3507 7.41267C34.2447 7.46981 34.1561 7.55458 34.0944 7.65799C34.0326 7.76139 34 7.87957 34 8V29.0573L22.4713 17.5287C22.3463 17.4037 22.1768 17.3335 22 17.3335C21.8232 17.3335 21.6537 17.4037 21.5287 17.5287L8.862 30.1953C8.73697 30.3203 8.66671 30.4899 8.66667 30.6667V42.6667H1.33333V1.33333H21.3333V15.3333C21.3333 15.5101 21.4036 15.6797 21.5286 15.8047C21.6536 15.9298 21.8232 16 22 16C22.1768 16 22.3464 15.9298 22.4714 15.8047C22.5964 15.6797 22.6667 15.5101 22.6667 15.3333V0.666667C22.6667 0.489856 22.5964 0.320286 22.4714 0.195262C22.3464 0.0702379 22.1768 0 22 0H0.666667C0.489856 0 0.320286 0.0702379 0.195262 0.195262C0.0702379 0.320286 0 0.489856 0 0.666667V43.3333C0 43.5101 0.0702379 43.6797 0.195262 43.8047C0.320286 43.9298 0.489856 44 0.666667 44H9.33333C9.51014 44 9.67971 43.9298 9.80474 43.8047C9.92976 43.6797 10 43.5101 10 43.3333V30.9427L22 18.9427L34 30.9427V43.3333C34 43.5101 34.0702 43.6797 34.1953 43.8047C34.3203 43.9298 34.4899 44 34.6667 44H43.3333C43.5101 44 43.6797 43.9298 43.8047 43.8047C43.9298 43.6797 44 43.5101 44 43.3333V3.33333C44 3.21806 43.97 3.10476 43.9131 3.00451C43.8562 2.90426 43.7743 2.82047 43.6753 2.76133ZM42.6667 42.6667H35.3333V8.39867L42.6667 4.44933V42.6667Z" fill="#5E5E5E"/>
<path d="M36.6677 11.3333C36.7835 11.3335 36.8973 11.3031 36.9977 11.2453L41.6644 8.57867C41.7426 8.53641 41.8115 8.47895 41.8672 8.40966C41.9228 8.34036 41.9641 8.26064 41.9885 8.17518C42.0128 8.08972 42.0199 8.00024 42.0092 7.91201C41.9985 7.82378 41.9703 7.73858 41.9262 7.66141C41.8821 7.58425 41.823 7.51668 41.7525 7.46268C41.6819 7.40868 41.6012 7.36933 41.5152 7.34697C41.4292 7.3246 41.3396 7.31965 41.2516 7.33242C41.1636 7.3452 41.0791 7.37542 41.003 7.42133L36.3364 10.088C36.2088 10.161 36.1089 10.274 36.0523 10.4096C35.9956 10.5452 35.9854 10.6957 36.0231 10.8378C36.0608 10.9798 36.1444 11.1054 36.2608 11.195C36.3773 11.2846 36.5207 11.3333 36.6677 11.3333ZM9.3337 4.66667C9.3337 4.48986 9.26346 4.32029 9.13844 4.19526C9.01341 4.07024 8.84384 4 8.66703 4H4.66703C4.49022 4 4.32065 4.07024 4.19563 4.19526C4.0706 4.32029 4.00037 4.48986 4.00037 4.66667V8.66667C4.00037 8.84348 4.0706 9.01305 4.19563 9.13807C4.32065 9.2631 4.49022 9.33333 4.66703 9.33333H8.66703C8.84384 9.33333 9.01341 9.2631 9.13844 9.13807C9.26346 9.01305 9.3337 8.84348 9.3337 8.66667V4.66667ZM8.00037 8H5.3337V5.33333H8.00037V8ZM18.667 4.66667C18.667 4.48986 18.5968 4.32029 18.4718 4.19526C18.3467 4.07024 18.1772 4 18.0004 4H14.0004C13.8236 4 13.654 4.07024 13.529 4.19526C13.4039 4.32029 13.3337 4.48986 13.3337 4.66667V8.66667C13.3337 8.84348 13.4039 9.01305 13.529 9.13807C13.654 9.2631 13.8236 9.33333 14.0004 9.33333H18.0004C18.1772 9.33333 18.3467 9.2631 18.4718 9.13807C18.5968 9.01305 18.667 8.84348 18.667 8.66667V4.66667ZM17.3337 8H14.667V5.33333H17.3337V8ZM9.3337 12.6667C9.3337 12.4899 9.26346 12.3203 9.13844 12.1953C9.01341 12.0702 8.84384 12 8.66703 12H4.66703C4.49022 12 4.32065 12.0702 4.19563 12.1953C4.0706 12.3203 4.00037 12.4899 4.00037 12.6667V16.6667C4.00037 16.8435 4.0706 17.013 4.19563 17.1381C4.32065 17.2631 4.49022 17.3333 4.66703 17.3333H8.66703C8.84384 17.3333 9.01341 17.2631 9.13844 17.1381C9.26346 17.013 9.3337 16.8435 9.3337 16.6667V12.6667ZM8.00037 16H5.3337V13.3333H8.00037V16ZM8.66703 20H4.66703C4.49022 20 4.32065 20.0702 4.19563 20.1953C4.0706 20.3203 4.00037 20.4899 4.00037 20.6667V24.6667C4.00037 24.8435 4.0706 25.013 4.19563 25.1381C4.32065 25.2631 4.49022 25.3333 4.66703 25.3333H8.66703C8.84384 25.3333 9.01341 25.2631 9.13844 25.1381C9.26346 25.013 9.3337 24.8435 9.3337 24.6667V20.6667C9.3337 20.4899 9.26346 20.3203 9.13844 20.1953C9.01341 20.0702 8.84384 20 8.66703 20ZM8.00037 24H5.3337V21.3333H8.00037V24ZM18.0004 12H14.0004C13.8236 12 13.654 12.0702 13.529 12.1953C13.4039 12.3203 13.3337 12.4899 13.3337 12.6667V16.6667C13.3337 16.8435 13.4039 17.013 13.529 17.1381C13.654 17.2631 13.8236 17.3333 14.0004 17.3333H18.0004C18.1772 17.3333 18.3467 17.2631 18.4718 17.1381C18.5968 17.013 18.667 16.8435 18.667 16.6667V12.6667C18.667 12.4899 18.5968 12.3203 18.4718 12.1953C18.3467 12.0702 18.1772 12 18.0004 12ZM17.3337 16H14.667V13.3333H17.3337V16ZM22.0004 32.6667C20.5864 32.6684 19.2309 33.2309 18.2311 34.2307C17.2313 35.2305 16.6688 36.5861 16.667 38V43.3333C16.667 43.5101 16.7373 43.6797 16.8623 43.8047C16.9873 43.9298 17.1569 44 17.3337 44H26.667C26.8438 44 27.0134 43.9298 27.1384 43.8047C27.2635 43.6797 27.3337 43.5101 27.3337 43.3333V38C27.3319 36.5861 26.7695 35.2305 25.7697 34.2307C24.7698 33.2309 23.4143 32.6684 22.0004 32.6667ZM26.0004 42.6667H18.0004V38C18.0004 36.9391 18.4218 35.9217 19.1719 35.1716C19.9221 34.4214 20.9395 34 22.0004 34C23.0612 34 24.0786 34.4214 24.8288 35.1716C25.5789 35.9217 26.0004 36.9391 26.0004 38V42.6667Z" fill="#5E5E5E"/>
</g>
</svg>
