<svg width="44" height="44" viewBox="0 0 44 44" fill="none" xmlns="http://www.w3.org/2000/svg">
<mask id="mask0_755_9237" style="mask-type:alpha" maskUnits="userSpaceOnUse" x="0" y="0" width="44" height="44">
<rect width="44" height="44" fill="#D9D9D9"/>
</mask>
<g mask="url(#mask0_755_9237)">
<path fill-rule="evenodd" clip-rule="evenodd" d="M40 3.7263V4.56475L22.4993 1.71392L5 4.56475V3.7263L22.4993 0.856689L40 3.7263Z" fill="white"/>
<path fill-rule="evenodd" clip-rule="evenodd" d="M40 2.86886V3.72634L22.4993 0.856727L5 3.72634V2.86886L22.4993 0L40 2.86886Z" fill="#33A457"/>
<path fill-rule="evenodd" clip-rule="evenodd" d="M40 4.56482L22.4993 1.71399L5 4.56482L5.00027 7.45746L5.15191 7.3776C5.21359 7.34555 11.4232 4.14547 22.533 4.14547C33.6436 4.14547 39.7808 7.3463 39.843 7.3781L39.993 7.45821L40 4.56482Z" fill="#CC2131"/>
<path fill-rule="evenodd" clip-rule="evenodd" d="M22.5333 4.70447C32.566 4.70447 38.4408 7.32873 39.3929 7.78888V16.1163C39.3929 20.6563 38.2425 25.179 35.9752 29.5613C31.0121 39.133 23.5442 42.8914 22.4996 43.3819C21.4543 42.8914 13.9807 39.133 9.019 29.5613C6.75162 25.179 5.6015 20.6563 5.6015 16.1163V7.78989C6.56227 7.33023 12.4987 4.70447 22.5333 4.70447Z" fill="#FFF22D"/>
<path fill-rule="evenodd" clip-rule="evenodd" d="M5.15213 7.37727L5.00049 7.45713V16.1163C5.00049 20.7414 6.17027 25.3462 8.47751 29.8024C13.8938 40.2548 22.2911 43.9113 22.3751 43.9471L22.4995 44L22.6237 43.9471C22.7086 43.9113 31.0988 40.2538 36.5148 29.8024C38.8232 25.3462 39.9932 20.7414 39.9932 16.1163V7.45788L39.8432 7.37777C39.7812 7.34597 33.6439 4.14514 22.5332 4.14514C11.4234 4.14514 5.21381 7.34522 5.15213 7.37727ZM22.5332 4.70444C32.5659 4.70444 38.4407 7.3287 39.3928 7.78886V16.1163C39.3928 20.6563 38.2424 25.179 35.9751 29.5613C31.012 39.133 23.5441 42.8914 22.4995 43.3818C21.4542 42.8914 13.9806 39.133 9.0189 29.5613C6.75152 25.179 5.60141 20.6563 5.60141 16.1163V7.78986C6.56217 7.3302 12.4986 4.70444 22.5332 4.70444Z" fill="black"/>
<path fill-rule="evenodd" clip-rule="evenodd" d="M25.161 35.3123C25.4525 35.4996 25.241 35.8248 25.0253 35.8757C24.8006 35.9325 24.6086 35.7007 24.4998 35.9548C24.4386 36.0912 24.6046 37.1249 25.7423 37.1249C26.8043 37.1249 27.311 35.8576 27.4109 35.6669C27.5114 35.4766 27.576 35.2337 27.4755 35.2337C27.0096 35.2337 26.8738 35.4909 26.8738 35.4909C26.8738 35.4909 26.8385 35.2435 27.0702 35.0567C27.2611 34.9043 27.5116 34.9413 27.6021 34.9413C27.792 34.9413 27.7621 34.8099 27.8769 34.5498C28.1384 33.9376 28.3183 33.9101 28.4883 33.6309C28.6292 33.4036 28.3631 33.3145 27.8381 33.2687C27.3115 33.2221 27.0295 33.2419 26.7944 33.2737C26.5587 33.305 26.3241 33.3939 26.1778 33.7288C26.0994 33.9103 26.243 34.0891 26.5188 34.0428C26.7944 33.995 27.0597 33.8012 27.0597 33.8012C27.0597 33.8012 26.9355 34.2598 26.5242 34.3547C26.1428 34.4419 25.6925 34.228 25.7531 33.8693C25.832 33.4039 26.1781 33.0629 26.8094 32.948C27.4419 32.8295 28.0722 32.9202 28.6343 33.0486C29.1945 33.18 29.6069 33.1004 30.1278 33.0721C31.251 33.0163 31.947 32.77 31.947 32.77C31.947 32.77 31.4409 33.1518 30.7393 33.3283C30.0376 33.5063 29.4119 33.4324 29.2093 33.5063C29.0459 33.5714 28.8148 33.873 28.6243 34.2178C28.4492 34.5347 28.2629 34.9 28.3434 34.9C28.9958 34.923 29.2347 34.7904 29.2347 34.7904C29.2347 34.7904 29.1056 35.052 28.7948 35.1757C28.5791 35.2568 28.213 35.2568 28.213 35.2568C28.213 35.2568 28.0485 35.6441 27.8631 35.9936C27.6765 36.3428 27.3708 36.8884 26.8205 37.1582C26.2681 37.4276 25.2117 37.7636 24.5464 36.8741C23.8426 35.941 24.485 34.8795 25.161 35.3123ZM16.993 35.434C17.1229 35.743 16.847 35.9039 16.6868 35.9039C16.526 35.9039 16.3259 35.793 16.2841 35.9798C16.2459 36.1651 16.711 37.1207 17.7933 37.1207C18.8761 37.1207 19.3778 36.5384 19.3016 36.0166C19.2168 35.4343 18.2215 35.2029 17.4283 34.8151C17.0402 34.6259 16.1629 34.4992 16.1629 33.7358C16.1629 32.106 18.8313 33.147 18.8313 33.147C18.8313 33.147 18.837 32.9432 18.9612 32.9337C19.0212 32.9284 19.1419 32.9064 19.182 33.0907C19.2216 33.2764 19.398 34.2553 19.398 34.2553C19.398 34.2553 19.0059 33.51 17.9296 33.1846C17.7391 33.1225 16.9066 32.9753 16.9114 33.5879C16.9214 33.9517 17.3984 34.1149 18.2253 34.4133C19.3121 34.8094 19.8689 35.1782 19.6122 36.2402C19.3679 37.2599 18.2953 37.4276 17.7739 37.4276C17.2535 37.4276 16.056 37.0884 16.056 35.9695C16.056 35.1784 16.8909 35.1969 16.993 35.434ZM22.6949 29.3057L23.1331 29.4988C23.3858 29.5897 23.5471 29.5496 23.605 29.5271C23.6662 29.5025 23.8975 29.2717 23.9479 29.0752C23.9716 28.9951 23.9589 28.9255 23.9131 28.8741C23.7426 28.6864 23.4407 27.8239 23.3287 27.3577C23.2872 27.1847 23.3375 26.7073 23.3766 26.323C23.4108 25.993 23.4318 25.788 23.414 25.7351C23.3841 25.6535 23.253 25.5747 23.1021 25.4858L22.8632 25.3346C22.7358 25.2377 22.7302 25.1057 22.7232 24.964L22.6978 24.744C22.6424 24.5392 21.5211 23.4746 21.3473 23.4649C21.0955 23.4496 21.03 23.7065 21.0139 23.861C21.0039 23.9513 21.1162 24.3549 21.2175 24.7127L21.3293 25.144C21.444 25.8223 22.2197 27.0167 22.5505 27.5265L22.7075 27.7743C22.7754 27.918 22.749 28.0314 22.6283 28.095C22.5112 28.1576 21.503 28.0597 21.0214 27.9566C20.8146 27.9125 20.5592 27.8166 20.3101 27.7227C20.0248 27.6171 19.7544 27.5144 19.5982 27.5072C19.4158 27.4984 19.3294 27.5327 19.2623 27.5615L19.1529 27.5898L19.0441 27.5575C18.9105 27.5027 18.6608 27.4025 17.9791 27.3452C16.9855 27.2586 16.9109 27.4443 16.8705 27.5447C16.8212 27.6724 17.4286 28.2728 17.5371 28.3531C17.6753 28.4568 18.1221 28.6148 18.395 28.5727C18.7069 28.5261 19.2154 28.4675 19.2785 28.4793L19.3808 28.5374L19.4759 28.6C19.5621 28.6328 20.1175 28.6611 20.2853 28.6693C20.4789 28.6791 20.9875 28.777 21.3592 28.8493L21.7745 28.9272C21.9372 28.955 22.3563 29.1473 22.6949 29.3057Z" fill="black"/>
<path fill-rule="evenodd" clip-rule="evenodd" d="M32.9738 17.3278C32.9517 17.3025 32.9334 17.301 32.9218 17.3038C32.9113 17.307 32.897 17.3163 32.893 17.3463C32.8747 17.475 32.7009 17.8057 32.563 17.8546C32.2837 17.955 32.1391 18.2594 32.0343 18.4812C31.9807 18.5956 31.9284 18.7048 31.887 18.7063C31.8692 18.7075 31.8495 18.6898 31.828 18.6527C31.6558 18.3768 31.7523 17.955 31.8296 17.615L31.8474 17.5316C31.9104 17.2449 32.2713 16.8434 32.4871 16.6025L32.5824 16.4959C32.7292 16.3256 32.7661 15.7488 32.7386 15.7055C32.7297 15.703 32.7238 15.7077 32.7203 15.7128C32.717 15.7153 32.7141 15.7183 32.712 15.7218L32.7087 15.7213V15.7243C32.6998 15.7333 32.6923 15.7343 32.685 15.7633C32.6465 15.9436 32.2921 16.3099 31.6866 16.7966C31.5624 16.8964 31.421 17.077 31.3052 17.2219C31.2305 17.317 31.143 17.4267 31.1198 17.432C30.9698 16.6879 31.2413 16.2625 31.3703 16.057L31.4304 15.9526C31.6866 15.3047 32.3462 14.814 32.3532 14.8095C32.3621 14.7907 32.3621 14.7707 32.3459 14.7579C32.3206 14.7399 32.2743 14.7476 32.2013 14.7817L32.1614 14.8002C31.9314 14.9041 31.2376 15.2183 30.812 15.9749C30.5063 16.5197 30.388 17.1285 30.388 17.5877C30.388 17.822 30.4185 18.0163 30.4702 18.145C30.6197 18.5155 30.8815 19.4363 30.962 19.7979C31.0121 20.0219 31.0199 20.7913 31.0199 21.2735C31.0199 21.5091 31.0188 21.674 31.0188 21.6803C31.0172 21.6803 30.8869 22.0714 30.8869 22.0714C30.8863 22.0754 30.8233 22.3808 30.2862 22.8913C29.7454 23.4048 29.1431 23.568 29.1377 23.57C28.8958 23.5875 28.6752 23.5783 28.6674 23.549C28.6674 22.9621 27.5863 21.5969 27.033 21.1465C26.4685 20.6866 26.0173 20.3572 25.2507 19.9235C24.4702 19.4819 23.6021 17.6305 23.5921 17.6125L23.5169 17.3624C23.5169 17.3624 23.4749 16.8629 23.4633 16.733C23.4916 16.748 23.5285 16.7693 23.5285 16.7693L23.7946 16.9132L24.1003 17.0224C24.103 17.0231 24.5006 17.0955 24.5006 17.0955C24.5006 17.0962 24.7231 17.2021 24.7231 17.2021L24.9294 17.3268L25.2502 17.5421L25.5796 17.7031C25.5863 17.7049 25.9753 17.7234 25.9753 17.7234L25.9842 17.6936C25.9842 17.6936 25.5338 17.4971 25.5327 17.4971C25.5327 17.491 25.3706 17.2332 25.3706 17.2332C25.3075 17.149 25.2446 17.0648 25.1818 16.9806C25.1756 16.9766 24.9477 16.8501 24.9477 16.8501C24.8513 16.8365 24.7546 16.8238 24.6579 16.8121C24.6579 16.8098 24.6011 16.7645 24.5717 16.74C24.597 16.7262 24.6447 16.6987 24.6447 16.6987C24.6447 16.7019 24.955 16.7352 24.9561 16.7352C24.9561 16.7382 25.2322 16.9127 25.2322 16.9127L25.5336 17.1285C25.5384 17.1308 25.8188 17.2319 25.8188 17.2319L25.8557 17.2454L25.7326 16.9478C25.6556 16.8792 25.5782 16.8112 25.5002 16.7437L25.1586 16.4738C25.1559 16.4716 24.8903 16.3444 24.8903 16.3444C24.8877 16.3439 24.6043 16.255 24.6043 16.255C24.6043 16.2545 24.3045 16.0768 24.3045 16.0768C24.3045 16.0768 24.3077 16.0577 24.3099 16.0415C24.3479 16.055 24.725 16.1957 24.725 16.1957C24.7271 16.1959 25.0864 16.2868 25.0864 16.2868C25.0859 16.2856 25.3878 16.394 25.3878 16.394C25.3868 16.393 25.8212 16.59 25.8212 16.59C25.825 16.5918 26.1848 16.6644 26.1848 16.6644C26.191 16.6646 26.6287 16.5918 26.6287 16.5918C26.6344 16.5893 27.0516 16.3194 27.0516 16.3194C27.0564 16.3121 27.1332 16.1516 27.1332 16.1516L27.1496 16.1146L27.0155 16.1661C27.0144 16.1661 26.6368 16.3444 26.6363 16.3444L26.3747 16.3987C26.3747 16.3975 26.0795 16.3437 26.079 16.3437H26.0795C26.0795 16.3404 25.8401 16.1334 25.8401 16.1334L25.5002 15.8274L25.1928 15.6812C25.1885 15.6795 24.8292 15.6254 24.8292 15.6254C24.8292 15.6246 24.6105 15.5212 24.6067 15.5195C24.6078 15.5195 24.6083 15.5157 24.6083 15.5105C24.6083 15.4859 24.6016 15.4323 24.5989 15.4073L25.0509 15.4426L25.5459 15.4056C25.5459 15.4068 25.8247 15.4596 25.8247 15.4596L26.1067 15.5678L26.3955 15.6041L26.4475 15.6106L26.1256 15.3244C26.1223 15.3229 25.801 15.1071 25.801 15.1071C25.7972 15.1054 25.5317 15.015 25.5317 15.015C25.5268 15.014 25.084 14.9792 25.0751 14.9784C25.0789 14.9782 25.0794 14.9712 25.0794 14.9609C25.0794 14.9359 25.0751 14.9003 25.0727 14.8821L25.282 14.849C25.282 14.8503 25.617 14.9204 25.617 14.9204C25.617 14.9214 25.9343 15.0984 25.9343 15.0984L26.2772 15.2073C26.2872 15.2075 26.7779 15.1359 26.7779 15.1359L26.8073 15.1322L26.6578 14.9487C26.6495 14.9426 26.4027 14.8713 26.4022 14.8713C26.4022 14.87 26.1986 14.7301 26.1986 14.7301L25.895 14.5318C25.8907 14.5296 25.6642 14.458 25.6642 14.458C25.6604 14.4567 25.3033 14.4036 25.3022 14.4034C25.3022 14.3999 25.1266 14.2497 25.1228 14.2472C25.1282 14.2462 25.1392 14.1938 25.1433 14.17L25.3321 14.2191L25.575 14.3268L25.9201 14.4284L25.8438 14.287L25.7097 14.1568L25.5923 14.0161L25.6432 14.0043C25.6432 14.0086 26.0103 14.1826 26.0103 14.1826L26.2963 14.2732C26.2963 14.2747 26.5172 14.4672 26.5172 14.4672C26.5204 14.4697 26.9385 14.689 26.9385 14.689L26.9805 14.7111L26.9043 14.5213C26.9021 14.517 26.6753 14.2474 26.6753 14.2474L26.4865 13.944C26.4849 13.9405 26.1431 13.6173 26.1431 13.6173C26.1399 13.6142 25.7049 13.3982 25.7038 13.3982C25.7038 13.3964 25.5381 13.2219 25.5381 13.2219C25.4367 13.1261 25.3356 13.03 25.2346 12.9338C25.2346 12.93 25.2036 12.8314 25.1877 12.7813C25.2392 12.7966 25.4824 12.8717 25.4824 12.8717L25.8228 12.9611C25.8228 12.9618 26.0658 13.1025 26.0658 13.1025C26.0658 13.104 26.2683 13.3326 26.2683 13.3326C26.2756 13.3379 26.5983 13.464 26.5983 13.464L27.4206 13.5632L27.4686 13.5687L27.2428 13.3479C27.2372 13.3439 26.8014 13.1639 26.8014 13.1639L26.5398 12.9866C26.5398 12.9833 26.3936 12.7395 26.3936 12.7395L26.2411 12.4881C26.2384 12.4844 25.9923 12.2688 25.9923 12.2688C25.9885 12.2663 25.6855 12.1046 25.6855 12.1046L25.3857 11.8728C25.3857 11.8705 25.3135 11.7316 25.2674 11.6389L25.4756 11.8254L25.8735 12.1491C25.8783 12.1519 26.1819 12.2778 26.1819 12.2778L26.4418 12.4731L26.7437 12.7595C26.7542 12.764 27.2261 12.8259 27.2261 12.8259L27.2851 12.8339L26.806 12.4481C26.806 12.4411 26.6977 12.1319 26.6977 12.1319C26.6148 12.0569 26.5311 11.9827 26.4466 11.9093L26.3163 11.7669C26.3163 11.7631 26.1865 11.3953 26.1865 11.3953C26.0972 11.309 26.0072 11.2233 25.9166 11.1382C25.9166 11.1362 25.4837 10.7609 25.4826 10.7594V10.7587C25.4826 10.7529 25.4673 10.6956 25.4584 10.6578C25.4915 10.6733 25.5368 10.6956 25.5368 10.6956L25.9341 10.9106C25.9378 10.9124 26.4108 11.0381 26.4108 11.0381L26.9043 11.1467L27.4745 11.2313L27.3403 10.9792C27.3309 10.9712 27.0473 10.8638 27.0473 10.8638L26.7841 10.7211C26.7814 10.7204 26.4601 10.5942 26.4601 10.5942L26.177 10.4865C26.177 10.484 25.9933 10.2637 25.891 10.142C25.9893 10.2034 26.1409 10.2992 26.1409 10.2992C26.1482 10.3015 26.396 10.3198 26.396 10.3198L27.1731 10.32C27.1731 10.322 27.4877 10.48 27.4877 10.4805C27.4877 10.4815 27.7559 10.7504 27.7559 10.7504L27.7912 10.7857L27.7586 10.4823C27.7554 10.4735 27.5849 10.2755 27.5849 10.2755C27.5801 10.272 27.1246 10.0381 27.1246 10.0381L26.7626 9.91144C26.7599 9.91069 26.2145 9.82106 26.2118 9.82106V9.82031C26.2118 9.81556 26.1075 9.70014 26.1075 9.70014C26.1054 9.69914 25.7084 9.35765 25.7084 9.35765C25.6442 9.32648 25.5798 9.29569 25.5152 9.26527C25.5152 9.26427 25.4546 9.20643 25.4169 9.16988H25.6211C25.6211 9.17289 25.9341 9.34764 25.9341 9.34764C25.9368 9.34939 26.3545 9.47457 26.3545 9.47457L26.8876 9.54692H26.887C26.887 9.55218 27.0847 9.75797 27.0847 9.75797L27.3729 9.92246C27.4823 9.94121 27.5917 9.95932 27.7013 9.97679L27.7471 9.98355L27.0726 9.21545C27.0683 9.21169 26.7459 9.05021 26.7459 9.05021C26.7432 9.04871 26.365 8.9408 26.365 8.9408C26.365 8.93705 26.0321 8.58605 26.0321 8.58605C26.0283 8.58229 25.6114 8.34921 25.6114 8.34921C25.5106 8.3255 25.4096 8.30263 25.3084 8.28061C25.3272 8.25232 25.39 8.15618 25.39 8.15568C25.3911 8.15843 25.724 8.01848 25.724 8.01848C25.724 8.01924 26.212 7.92986 26.212 7.92986C26.2252 7.91934 26.2621 7.81094 26.2621 7.81094C26.2559 7.79266 26.0475 7.66698 26.0475 7.66698C25.9643 7.64188 25.881 7.61717 25.7975 7.59287C25.7822 7.59463 25.6502 7.66648 25.6502 7.66698C25.6502 7.66473 25.2418 7.682 25.2418 7.682C25.2418 7.68175 24.7538 7.5751 24.7538 7.5746C24.7538 7.57234 24.2509 7.18279 24.2509 7.18279C24.1739 7.14595 24.0968 7.1094 24.0195 7.07313C24.0139 7.07213 23.1832 6.98175 23.1811 6.98175C23.1811 6.97198 22.9858 6.7011 22.9858 6.7011L22.7186 6.42971C22.7175 6.42821 22.3784 6.1438 22.3784 6.1438L22.3679 6.16458L22.2542 6.39841C22.2548 6.39616 22.1422 6.55789 22.1422 6.55789V6.5619C22.1422 6.59169 22.1581 6.74791 22.1581 6.74791C22.1629 6.75768 22.2728 6.86233 22.2752 6.86533C22.2696 6.86533 22.2338 7.02807 22.2338 7.02932C22.2327 7.01805 21.778 7.03533 21.7772 7.03533C21.7772 7.03332 21.4058 6.87485 21.4058 6.87485C21.4034 6.87334 21.1187 6.78372 21.1187 6.78372C21.113 6.78196 20.4507 6.80099 20.4507 6.80099C20.4361 6.808 20.3238 6.96973 20.3238 6.96973L20.3087 6.99101L20.6002 7.03007C20.6002 7.03107 20.6433 7.05661 20.6672 7.07088L20.5926 7.12746C20.5926 7.12395 20.1872 7.10668 20.1872 7.10668C20.1805 7.10768 19.8953 7.21508 19.8953 7.21508L19.8656 7.22685L20.0071 7.31523C20.0159 7.31823 20.6217 7.33601 20.6217 7.33601L21.0715 7.44366V7.44416C21.0715 7.44992 21.1572 7.56358 21.1572 7.56358C21.1572 7.56358 21.218 7.64345 21.2409 7.67474L21.0484 7.77338C21.0508 7.77313 20.501 7.98869 20.501 7.98869L19.3647 8.58179C19.3636 8.58079 18.6164 8.68444 18.6164 8.68444C18.6107 8.68619 18.3239 8.83465 18.3239 8.83465C18.3177 8.83866 18.0874 9.13533 18.0874 9.13533C18.085 9.13909 17.9546 9.50837 17.9546 9.50837C17.9444 10.1358 17.9713 10.1503 17.981 10.1553C18.0034 10.1683 18.1984 10.271 18.3492 10.1959C18.52 10.1095 18.8855 10.0246 19.0754 9.98705C19.1691 9.96928 19.213 10.0006 19.2208 10.0329C19.2311 10.0682 19.2028 10.1162 19.1327 10.134L19.0934 10.1448C18.7632 10.2281 18.4262 10.329 18.4373 10.4475L18.4955 10.5378C18.6428 10.6377 19.0258 10.5904 19.2292 10.5476L19.4414 10.4923C19.6246 10.4405 19.8328 10.3826 20.0106 10.4011C20.1132 10.4122 20.2037 10.4532 20.3106 10.5C20.4555 10.5651 20.6212 10.639 20.8682 10.654C21.28 10.6805 21.5612 10.7579 21.5833 10.7804C21.6385 10.8848 21.6029 11.0393 21.5752 11.1635L21.5539 11.2759C21.4386 12.2475 20.2716 13.3461 19.7092 13.8731C19.5572 14.0158 19.4568 14.11 19.4352 14.1493L19.3706 14.2882C19.3159 14.4171 19.2715 14.5283 19.0932 14.5949C18.99 14.6322 18.7495 14.8004 18.4704 14.9947C18.0675 15.2741 17.5678 15.6216 17.4302 15.6066C17.1999 15.5813 16.1244 14.8931 16.0791 14.8508C15.0316 13.9087 14.5934 14.1019 14.3311 14.2171L14.2896 14.2351C13.9771 14.3673 13.6491 15.19 13.6194 15.3665L13.4929 15.8732L13.3956 16.2455C13.3668 16.3714 13.2378 16.6809 13.1147 16.9798L12.862 17.6307C12.8203 17.7815 12.719 17.9933 12.6366 18.1645L12.5248 18.4181C12.447 18.7158 12.4456 20.3461 12.5811 20.4903L12.587 20.4964L12.6137 20.5036C12.7497 20.4906 13.0417 20.2109 13.1818 20.076L13.2141 20.0447C13.3326 19.934 13.4584 19.6386 13.4584 19.5144C13.4584 19.3928 13.3972 19.1384 13.373 19.0691C13.1834 18.5308 13.255 18.0178 13.2895 17.7719L13.3032 17.6623C13.3132 17.5481 13.4363 17.4217 13.5559 17.3005L13.707 17.138C13.7899 17.0354 13.8821 17.0013 13.9642 16.9711L14.0992 16.8994L14.1202 16.8792C14.2096 16.7958 14.3596 16.6551 14.4253 16.4668L14.5535 15.9513L14.5816 15.8136C14.588 15.7861 14.6031 15.7708 14.6282 15.7658C14.6791 15.7553 14.7553 15.7929 14.7879 15.8332L15.715 16.8331C15.9525 17.0211 16.1966 17.2454 16.1966 17.2948L16.1963 17.299C16.1963 17.2983 16.1906 17.2993 16.1906 17.2993C16.0608 17.3118 15.4077 17.1824 15.2991 17.1536C14.4116 16.9117 14.0065 16.9543 13.6941 17.3178C13.338 17.7341 13.45 19.0092 13.5227 19.1489C13.5895 19.2756 13.9144 20.8291 13.9289 21.0361C13.9435 21.2392 14.028 21.6022 14.1164 21.6856L14.1406 21.7086C14.25 21.8092 14.5382 22.0784 14.5891 22.3437C14.644 22.6327 15.3042 23.4063 15.5561 23.4756C15.5749 23.4807 15.5949 23.4815 15.6141 23.4781C15.6334 23.4746 15.6516 23.4669 15.667 23.4556C15.8591 23.3289 15.9463 22.7098 15.9569 22.4484C15.9692 22.1227 15.8435 21.9652 15.7099 21.7967L15.6587 21.7309C15.5604 21.6062 15.3872 21.5609 15.273 21.5311C15.2242 21.5183 15.1574 21.5033 15.1574 21.4893C15.1574 21.4845 15.144 21.0073 14.9802 20.9152C14.8528 20.8423 14.7224 20.3819 14.7071 20.2067C14.6923 20.0327 14.6198 19.6126 14.5226 19.4281C14.4243 19.2428 14.3416 18.9013 14.3836 18.6379C14.4011 18.5248 14.4878 18.4892 14.5584 18.479C14.6801 18.4609 14.8207 18.5098 14.8426 18.5493C14.891 18.6399 15.827 19.1647 16.1427 19.2774C16.3388 19.3465 16.6041 19.5548 16.8384 19.7405C17.0052 19.8705 17.1485 19.9824 17.2379 20.0222C17.3585 20.0762 17.7006 20.0825 17.9754 20.0875C18.1211 20.0898 18.2724 20.093 18.2929 20.1043C18.1814 20.1458 18.1828 20.3276 18.1919 20.3862C18.3058 21.138 21.2485 23.2032 21.4761 23.3191C21.7395 23.4506 22.6844 24.3676 22.7671 24.4923C22.8527 24.6155 22.936 24.7494 22.9201 24.8526C22.8974 25.0051 22.9632 25.1793 23.0946 25.3215C23.2204 25.4539 23.3844 25.5338 23.5361 25.5338C23.6675 25.5338 23.7553 25.4242 23.8202 25.345L23.834 25.3285C24.0096 25.1125 24.27 24.796 24.3037 24.301C24.3395 23.7936 24.5889 23.592 24.6703 23.5788C24.7066 23.5725 24.7333 23.5828 24.743 23.6051C24.753 23.6281 24.7409 23.6666 24.6916 23.6969C24.5838 23.7648 24.5165 23.9894 24.4427 24.2294C24.4422 24.2314 24.4152 24.4745 24.4152 24.4745C24.409 24.6561 24.4015 24.8619 24.2065 25.0614C23.9145 25.3553 23.5794 26.033 23.4927 26.8888C23.4402 27.4042 23.6899 28.1468 24.2345 29.0932L24.2725 29.1608L24.4198 29.3906C24.5687 29.6132 24.8176 29.9832 24.806 30.0698C24.7901 30.192 24.7778 30.2879 24.551 30.5525C24.3015 30.8434 23.3914 31.8278 23.3025 31.8434C23.1215 31.8434 23.0911 31.8649 22.9454 31.9675L22.7918 32.0762C22.6238 32.1871 22.5944 32.2702 22.5661 32.3436C22.5454 32.3989 22.5257 32.4472 22.4476 32.5015L22.3892 32.5381C22.3771 32.5479 22.3442 32.5909 21.9784 32.9312C21.559 33.3165 21.3718 33.7526 21.4365 34.186C21.4572 34.3214 21.5827 34.3687 21.955 34.3845C22.3267 34.4005 23.1789 33.8462 23.2169 33.6657L23.2301 33.5969C23.2627 33.4341 23.3174 33.1597 23.4138 33.1202C23.5301 33.0729 23.7295 32.8591 23.8757 32.7036L23.904 32.6743C23.9818 32.5907 24.0007 32.5075 24.0193 32.4284C24.0352 32.3658 24.0497 32.3028 24.0939 32.2452C24.1286 32.2031 24.1795 32.1801 24.2385 32.1548C24.3516 32.1045 24.4941 32.0404 24.5968 31.8008C24.6988 31.566 25.3081 31.1596 25.7531 30.8639C25.9804 30.7137 26.1587 30.5936 26.2013 30.5407C26.2597 30.4699 26.2955 30.3334 26.2955 30.1887C26.2955 30.017 26.246 29.8342 26.1299 29.7326C25.961 29.5869 25.8021 29.1532 25.7547 29.0173V29.0143C25.7547 28.958 25.749 28.8548 25.7399 28.6628C25.7388 28.654 25.7388 28.6448 25.7388 28.6365C25.7388 28.1285 26.5512 27.6316 26.9018 27.4175L27.0618 27.3149C28.3334 26.2724 28.5823 25.4797 28.6294 25.2622L28.6553 25.0016C28.6631 24.821 28.6696 24.649 28.7867 24.6265C28.8325 24.6183 28.9088 24.6526 28.9551 24.7039C28.9815 24.7317 29.0203 24.7895 28.9944 24.8563C28.9365 25.0026 28.9171 26.4724 28.9166 26.5335C28.9209 26.5438 29.0534 26.689 29.0534 26.689L29.0776 26.7153L29.0849 26.681C29.0865 26.6639 29.1595 26.2634 29.1595 26.1217C29.1595 25.9632 29.4337 25.2845 29.5 25.2727C29.5 25.2747 29.5043 25.2805 29.5043 25.2805C29.5363 25.3743 29.5773 25.6062 29.5773 25.8505C29.5773 26.0906 29.5382 26.343 29.4127 26.4892C29.2223 26.7082 29.0706 27.055 28.9718 27.2838L28.8802 27.4783C28.8699 27.5053 28.8654 27.5339 28.867 27.5625C28.867 27.7487 28.9702 28.1458 29.038 28.2197C29.0558 28.2372 29.0701 28.2372 29.0801 28.2339C29.1022 28.2262 29.1221 28.1996 29.1221 28.0437C29.1221 27.4496 29.6592 27.0187 29.6656 27.0154C30.1391 26.6662 30.2423 26.0185 30.2423 25.5251C30.2423 25.1515 30.1833 24.8664 30.1817 24.8586C30.1068 24.7554 30.031 24.6527 29.9544 24.5507C29.9654 24.5557 30.0271 24.5086 30.0476 24.4933C30.068 24.5179 30.2838 24.7837 30.2838 24.7837C30.3202 24.8311 30.4123 24.969 30.4123 25.0238C30.4123 25.3295 30.4629 25.5388 30.499 25.6923L30.5079 25.7286C30.5459 25.8913 30.7826 26.4113 30.7931 26.4336L30.8184 26.4884L30.8263 26.4288C30.8263 26.4263 30.8637 26.1545 30.8263 25.9219C30.8047 25.7914 30.8316 25.6315 30.8588 25.4587L30.9019 25.0621C30.9019 24.7399 30.8524 24.5364 30.7288 24.3511L30.6657 24.2622C30.6409 24.2259 30.6167 24.1904 30.6194 24.1831L30.6657 24.1646C31.6658 23.8492 32.1313 23.1647 32.3209 22.7856C32.5197 22.3841 32.5302 21.7657 32.5302 21.6467C32.5302 21.4918 32.5229 20.6881 32.3777 20.2753C32.2926 20.0317 32.3198 19.7701 32.3483 19.4877L32.3793 19.0042C32.3793 18.6735 32.5665 18.4279 32.7481 18.1905L32.9643 17.8791C33.1058 17.6197 33.0306 17.3927 32.9738 17.3278Z" fill="black"/>
<path fill-rule="evenodd" clip-rule="evenodd" d="M21.7793 6.97625C21.796 6.97725 22.0085 6.88337 22.0085 6.88337C22.018 6.86559 21.9687 6.67857 21.9687 6.67857C21.8153 6.50948 21.6611 6.34099 21.5062 6.1731L21.4833 6.14832L21.4755 6.17936L21.4259 6.3819C21.4262 6.3799 21.2791 6.70686 21.2791 6.70686L21.2724 6.72063L21.5822 6.86785L21.7793 6.97625Z" fill="black"/>
<path fill-rule="evenodd" clip-rule="evenodd" d="M21.8715 8.27381C21.9206 8.29083 21.9946 8.28332 22.0647 8.25428C22.1719 8.20746 22.2352 8.12735 22.2079 8.07002L22.1587 8.02871C22.1102 8.01143 22.0361 8.01919 21.9671 8.04874C21.8753 8.08679 21.8166 8.15013 21.8166 8.20396C21.8166 8.21372 21.8195 8.22424 21.823 8.2325L21.8715 8.27381ZM23.7217 7.56404L23.81 7.60836C23.8171 7.62257 23.8276 7.63512 23.8406 7.64509C23.8536 7.65506 23.8688 7.66218 23.8852 7.66594C23.904 7.66959 23.9235 7.66924 23.9421 7.66491C23.9608 7.66057 23.9782 7.65236 23.9929 7.6409C24.0166 7.62363 24.0223 7.59133 24.0072 7.55052C23.9835 7.48267 23.9073 7.40857 23.8251 7.40857C23.7193 7.40857 23.6226 7.41984 23.6226 7.49244C23.6228 7.53325 23.6732 7.54877 23.7217 7.56404ZM23.8275 7.85421C23.7866 7.88225 23.7686 7.92005 23.7801 7.95836L23.7885 7.99015C23.799 8.02771 23.8028 8.03547 23.8399 8.03947L23.9073 8.05074C23.9935 8.07127 24.1298 8.02145 24.1607 7.95735C24.1712 7.93657 24.1796 7.89627 24.1209 7.85821C24.0199 7.79562 23.8954 7.80914 23.8275 7.85421ZM24.1031 8.96855C24.0783 8.95754 24.0888 8.92098 24.1079 8.86791C24.1233 8.8246 24.1373 8.78304 24.1133 8.76025C24.0923 8.74148 24.0549 8.74298 23.9913 8.76501C23.7624 8.84162 23.7273 9.05843 23.702 9.21691L23.6942 9.26573C23.681 9.33633 23.7201 9.36036 23.7443 9.36838C23.8232 9.39441 23.9657 9.32782 23.9978 9.27699C24.0336 9.22217 24.2313 9.17209 24.3754 9.13554L24.4306 9.12152C24.4974 9.1045 24.5316 9.08071 24.5365 9.04842C24.5437 9.00611 24.4934 8.96755 24.4487 8.94277C24.4072 8.91998 24.3455 8.93626 24.2809 8.95353C24.2168 8.9698 24.1478 8.98658 24.1031 8.96855ZM21.6833 9.04992C21.7339 9.04516 21.7735 9.02689 21.7985 8.99334C21.8715 8.89219 21.8753 8.74899 21.8045 8.61905C21.736 8.49512 21.6189 8.41576 21.4993 8.41176L21.5009 8.41226L21.4748 8.409L21.2545 8.42502C21.1381 8.44906 21.0301 8.52892 21.004 8.60754C20.9908 8.64734 20.9983 8.68365 21.0277 8.71093C21.2044 8.88493 21.5095 9.06219 21.6833 9.04992ZM19.5137 8.88518C19.54 8.94552 19.661 8.95228 19.8385 8.90321L19.8775 8.89219L20.1956 8.77653L20.6565 8.49487C20.67 8.48511 20.7904 8.40099 20.7656 8.34716C20.7481 8.31186 20.688 8.31812 20.6446 8.32563C20.5175 8.34716 20.3928 8.40399 20.26 8.46408L20.0725 8.54495L19.9899 8.57649C19.7046 8.68615 19.4708 8.78454 19.5137 8.88518ZM18.5445 9.19863C18.4486 9.19863 18.4055 9.24695 18.3705 9.28976L18.3277 9.33483C18.2539 9.39366 18.2313 9.53587 18.2404 9.64402C18.2442 9.68909 18.2579 9.7707 18.3056 9.79674C18.3969 9.84906 18.4406 9.81226 18.5338 9.72989L18.6059 9.67231C18.6975 9.60096 18.8039 9.52009 18.8171 9.39566C18.8236 9.34309 18.8101 9.29978 18.7786 9.26723C18.7226 9.21065 18.6202 9.19863 18.5445 9.19863ZM19.0746 9.23794C19.0471 9.23243 19.0307 9.24044 19.0221 9.2487C18.9943 9.27399 19.0057 9.32807 19.0143 9.37138L19.0197 9.40167L19.014 9.41995C19.0078 9.43547 19.0008 9.45525 19.014 9.47202C19.0259 9.4888 19.0547 9.49606 19.1037 9.49606C19.1659 9.49656 19.1721 9.49055 19.1931 9.43898L19.2098 9.39917C19.2249 9.36412 19.2252 9.33257 19.2109 9.30754C19.1853 9.26348 19.1217 9.2467 19.0746 9.23794ZM19.5872 10.01C19.6197 10.0086 19.6504 9.99565 19.6729 9.97376C19.6954 9.95187 19.7079 9.92277 19.7079 9.8925C19.7079 9.86223 19.6954 9.83313 19.6729 9.81124C19.6504 9.78935 19.6197 9.77635 19.5872 9.77496C19.5707 9.77506 19.5545 9.77818 19.5393 9.78414C19.5242 9.7901 19.5105 9.79879 19.4989 9.8097C19.4874 9.82062 19.4784 9.83354 19.4722 9.84773C19.4661 9.86192 19.4631 9.87709 19.4633 9.89238C19.4633 9.95722 19.5185 10.01 19.5872 10.01ZM21.8963 9.72363C21.8785 9.72056 21.8602 9.72206 21.8432 9.72797C21.8263 9.73388 21.8114 9.74398 21.8002 9.75718C21.7659 9.79424 21.5577 9.92692 21.4056 10.0241L21.2092 10.1538L21.1933 10.168C21.1688 10.1896 21.1567 10.2028 21.1726 10.2474L21.1965 10.2787L21.2483 10.2689L21.3248 10.2426L21.4349 10.2266C21.5435 10.2136 21.6622 10.1986 21.7183 10.1452L21.7913 10.0343L21.8998 9.87235C21.9518 9.81902 21.9545 9.78247 21.9472 9.76169C21.943 9.75178 21.9361 9.74307 21.9272 9.7364C21.9183 9.72972 21.9076 9.72532 21.8963 9.72363ZM22.1244 10.3781C22.1244 10.4379 22.1565 10.4614 22.1745 10.4697C22.2233 10.4937 22.2933 10.4705 22.3351 10.4164L22.4762 10.3022C22.5527 10.2511 22.6381 10.1936 22.7138 10.1042C22.7838 10.0203 22.7536 9.96874 22.7286 9.9467C22.6807 9.90314 22.5821 9.89313 22.5487 9.91866L22.508 9.94445C22.4156 10.0003 22.1969 10.1322 22.142 10.2927C22.1311 10.3201 22.1252 10.3489 22.1244 10.3781ZM23.044 10.3135C23.0152 10.2744 22.9656 10.2581 22.9287 10.2749L22.8293 10.345C22.7593 10.3981 22.672 10.4654 22.5963 10.4852C22.4127 10.531 22.1635 10.6074 22.1482 10.7246L22.1479 10.7398C22.1479 10.7721 22.1635 10.7914 22.1786 10.8022C22.2483 10.855 22.4178 10.8237 22.5403 10.7806C22.7283 10.7161 22.8425 10.6372 22.9901 10.5125C23.0809 10.4357 23.0769 10.3588 23.044 10.3135ZM22.3297 11.6629L22.2699 11.6567C22.1153 11.695 21.8513 12.1176 21.666 12.4325L21.6329 12.4871L21.0775 13.456L20.9032 13.7644C20.8838 13.7925 20.8906 13.8335 20.9197 13.8603C20.9466 13.8853 20.9937 13.8991 21.0508 13.8656C21.1435 13.8082 21.4815 13.4965 21.6383 13.2517L21.847 12.9841C21.9809 12.8216 22.1333 12.6398 22.2228 12.4232L22.2543 12.3486C22.4663 11.8377 22.4994 11.7595 22.3297 11.6629ZM24.4182 9.80049C24.4024 9.80016 24.3867 9.80273 24.3719 9.80805C24.3572 9.81337 24.3437 9.82133 24.3323 9.83149C24.3209 9.84165 24.3117 9.85381 24.3053 9.86726C24.2989 9.88071 24.2955 9.8952 24.2951 9.9099C24.2951 9.97024 24.3503 10.0193 24.4182 10.0193C24.4861 10.0193 24.5402 9.97024 24.5402 9.9099C24.54 9.89526 24.5366 9.88081 24.5304 9.86738C24.5241 9.85394 24.515 9.8418 24.5037 9.83163C24.4924 9.82146 24.479 9.81348 24.4643 9.80814C24.4496 9.80279 24.434 9.8002 24.4182 9.80049ZM24.3598 10.2569C24.3598 10.3175 24.415 10.3666 24.4829 10.3666C24.4985 10.3667 24.5141 10.364 24.5286 10.3586C24.5431 10.3532 24.5564 10.3451 24.5675 10.3349C24.5787 10.3248 24.5876 10.3126 24.5938 10.2992C24.5999 10.2858 24.6031 10.2715 24.6033 10.2569C24.6029 10.2275 24.59 10.1995 24.5675 10.1789C24.5449 10.1584 24.5145 10.147 24.4829 10.1472C24.4509 10.1468 24.4201 10.158 24.3971 10.1786C24.374 10.1991 24.3606 10.2272 24.3598 10.2569ZM24.4729 10.4995C24.3961 10.4995 24.3326 10.5468 24.3326 10.6034C24.3326 10.6607 24.3961 10.7075 24.4729 10.7075C24.5507 10.7075 24.6138 10.661 24.6138 10.6034C24.614 10.5468 24.5507 10.4995 24.4729 10.4995ZM24.4672 10.8029C24.3789 10.8029 24.3083 10.8548 24.3083 10.9186C24.3083 10.9819 24.3789 11.0338 24.4672 11.0338C24.5556 11.0338 24.6251 10.9817 24.6251 10.9186C24.6251 10.8548 24.5556 10.8029 24.4672 10.8029ZM24.4729 11.188C24.3757 11.188 24.2951 11.2418 24.2951 11.3097C24.2951 11.3765 24.3757 11.4303 24.4729 11.4303C24.5707 11.4303 24.6496 11.3765 24.6496 11.3097C24.6496 11.2418 24.5707 11.188 24.4729 11.188ZM24.4128 11.8334C24.5233 11.8244 24.6043 11.7681 24.5981 11.703L24.5634 11.6439C24.5254 11.6141 24.4592 11.5991 24.3918 11.6048C24.2852 11.6138 24.2062 11.6674 24.2062 11.7288L24.2068 11.735L24.2426 11.7938C24.2814 11.8244 24.3447 11.8394 24.4128 11.8334ZM24.4066 12.2387C24.5303 12.2217 24.6175 12.1586 24.6076 12.0935L24.5712 12.0394C24.5281 12.0087 24.4508 11.9964 24.3719 12.0072C24.2504 12.0229 24.161 12.0873 24.171 12.1524L24.2084 12.2062C24.252 12.2372 24.3277 12.249 24.4066 12.2387ZM24.1984 12.4343C24.1984 12.5051 24.2911 12.5617 24.4126 12.5617C24.5335 12.5617 24.6251 12.5051 24.6251 12.4343C24.6251 12.3634 24.5335 12.3076 24.4126 12.3076C24.2908 12.3078 24.1984 12.3634 24.1984 12.4343ZM24.5771 12.8486C24.5771 12.7735 24.4667 12.7162 24.3256 12.7162C24.186 12.7162 24.0756 12.7735 24.0756 12.8486C24.0756 12.9232 24.186 12.9815 24.3256 12.9815C24.4667 12.9815 24.5771 12.9232 24.5771 12.8486ZM24.4166 13.1984C24.4166 13.125 24.3339 13.0657 24.234 13.0657C24.1324 13.0657 24.0498 13.125 24.0498 13.1984C24.0498 13.2717 24.1324 13.3313 24.234 13.3313C24.3342 13.3313 24.4166 13.2717 24.4166 13.1984ZM24.3304 13.6357C24.3304 13.5534 24.2431 13.4855 24.1346 13.4855C24.0274 13.4855 23.9404 13.5534 23.9404 13.6357C23.9404 13.7189 24.0271 13.7857 24.1346 13.7857C24.2431 13.7857 24.3304 13.7189 24.3304 13.6357ZM24.1715 14.0613C24.1715 13.9872 24.0999 13.9284 24.0126 13.9284C23.9259 13.9284 23.8526 13.987 23.8526 14.0613C23.8526 14.1342 23.9256 14.1938 24.0126 14.1938C24.0999 14.194 24.1715 14.1342 24.1715 14.0613ZM23.8962 14.3132C23.8122 14.3132 23.7427 14.3725 23.7427 14.4461C23.7427 14.519 23.8122 14.5783 23.8962 14.5783C23.98 14.5783 24.0487 14.5188 24.0487 14.4461C24.0489 14.3725 23.98 14.3132 23.8962 14.3132ZM23.7664 14.9519C23.8526 14.9519 23.9259 14.9003 23.9259 14.8365C23.9259 14.7726 23.8529 14.7218 23.7664 14.7218C23.6797 14.7218 23.6086 14.7729 23.6086 14.8365C23.6086 14.9 23.6797 14.9519 23.7664 14.9519ZM23.6201 15.2315C23.7001 15.2315 23.7659 15.1882 23.7659 15.1336C23.7659 15.0793 23.7012 15.0362 23.6201 15.0362C23.5364 15.0362 23.4728 15.0791 23.4728 15.1336C23.4728 15.1882 23.5385 15.2315 23.6201 15.2315ZM23.4782 15.5004C23.5544 15.5004 23.6191 15.4566 23.6191 15.4023C23.6191 15.3484 23.5544 15.3046 23.4782 15.3046C23.3998 15.3046 23.3379 15.3484 23.3379 15.4023C23.3376 15.4566 23.3998 15.5004 23.4782 15.5004ZM19.3254 15.2623L19.3507 15.2668L19.5425 15.2348C19.7127 15.1997 19.9691 15.1464 20.2845 15.1386C20.5151 15.1329 20.765 15.2077 20.9466 15.2628C21.1114 15.3139 21.1936 15.3359 21.2248 15.3044C21.2445 15.2836 21.2324 15.2533 21.2216 15.232C21.172 15.1326 20.9549 14.8059 20.2465 14.7909C19.7862 14.7811 19.411 15.072 19.3308 15.195C19.3149 15.22 19.3106 15.2385 19.3186 15.2523L19.3254 15.2623ZM21.9596 16.5001C22.0046 16.4733 22.024 16.426 22.021 16.3581C22.0059 16.0918 21.9292 16.0615 21.7711 16.0615C21.6108 16.0615 21.495 16.2109 21.495 16.2885C21.495 16.3614 21.5526 16.4252 21.6644 16.4773C21.7277 16.5083 21.8734 16.5527 21.9596 16.5001ZM24.133 19.7565C24.3614 19.8556 24.4417 19.8909 24.4759 19.9007C24.4769 19.9007 24.478 19.9037 24.478 19.9037C24.478 19.9037 24.4796 19.9025 24.4796 19.902C24.4955 19.9065 24.5006 19.9047 24.5044 19.8997C24.5023 19.8982 24.4934 19.8857 24.4885 19.8822C24.4912 19.8802 24.4939 19.8749 24.4939 19.8749C24.4939 19.8749 24.4796 19.8694 24.4786 19.8682C24.3275 19.6909 23.4176 18.4884 23.2239 17.6971C23.1935 17.5666 23.1577 17.4452 23.0661 17.3966C23.0146 17.3698 22.9497 17.3678 22.8708 17.3924H22.8703C22.852 17.3974 22.8388 17.4114 22.8304 17.4319C22.8226 17.4542 22.8192 17.4776 22.8204 17.501C22.8204 17.7837 23.1445 18.5618 23.2503 18.7218C23.8359 19.6053 24.1219 19.7505 24.133 19.7565ZM31.5702 20.1002L31.5355 20.1065C31.5366 20.1115 31.5444 20.3476 31.5444 20.6508C31.5444 21.0929 31.528 21.6825 31.4455 21.9474C31.3787 22.1619 31.0725 22.5728 30.8252 22.9015C30.8252 22.9015 30.5376 23.3026 30.5376 23.3031C30.5293 23.3165 30.5252 23.3317 30.5254 23.3471C30.5254 23.3867 30.547 23.424 30.585 23.4473C30.6138 23.4658 30.718 23.5134 30.8632 23.3524L31.0469 23.1719C31.292 22.9446 31.5966 22.6624 31.8113 22.0395C32.0467 21.3558 31.5743 20.112 31.5702 20.1002ZM23.9075 22.3279C23.9296 22.3485 23.9654 22.3542 24.0029 22.3417C24.0317 22.3324 24.057 22.3156 24.0757 22.2932C24.0944 22.2708 24.1057 22.2438 24.1082 22.2155C24.1171 22.1299 24.1812 22.015 24.2765 21.9168C24.3262 21.8643 24.3521 21.796 24.3487 21.7261C24.3453 21.6563 24.3128 21.5904 24.2582 21.5423L24.1362 21.497C24.0578 21.4995 23.9994 21.5578 23.9962 21.5596C23.9553 21.7415 23.9153 21.9236 23.8763 22.1059V22.1054C23.8647 22.1357 23.8542 22.2804 23.9075 22.3279ZM27.875 24.3443L27.8689 24.3418L27.8627 24.3443C27.8578 24.3478 27.7555 24.3921 27.7264 24.485C27.7064 24.5476 27.7436 24.6019 27.7727 24.6468L27.8069 24.7063L27.8217 24.8253L27.8449 25.0003C27.8506 25.0184 27.8628 25.0341 27.8795 25.0449C27.8961 25.0558 27.9162 25.061 27.9365 25.0598C27.9844 25.0583 28.0402 25.024 28.0585 24.9547C28.0833 24.8608 28.0954 24.7336 28.0954 24.5644C28.0948 24.4099 27.8845 24.3463 27.875 24.3443ZM21.7172 22.9205C21.7035 22.9058 20.249 21.4387 19.9346 21.0544C19.6144 20.6605 19.4614 20.6308 19.3046 20.7114C19.2931 20.7175 19.2833 20.7262 19.2761 20.7366C19.2689 20.747 19.2646 20.7589 19.2634 20.7712C19.2408 20.9312 19.6042 21.3182 19.9223 21.6024C20.3669 22.0002 21.6806 22.9353 21.694 22.9446L21.7172 22.9205ZM16.0164 18.5906C15.7218 18.4206 15.2116 18.3262 15.2065 18.3242L15.193 18.353L15.7589 18.7496C15.8521 18.8207 16.264 19.0583 16.397 18.9611C16.4056 18.9551 16.4125 18.9472 16.4171 18.9381C16.4217 18.929 16.4239 18.9191 16.4234 18.909C16.4191 18.8377 16.2763 18.7423 16.0164 18.5906ZM15.8782 16.3461L15.9181 16.3303C15.969 16.277 15.8519 16.1256 15.7094 16.0031C15.5809 15.893 15.4503 15.8219 15.3818 15.8254L15.3431 15.8409C15.3347 15.8503 15.3305 15.8623 15.3312 15.8744C15.3312 15.9435 15.433 16.0657 15.5513 16.1684C15.68 16.2785 15.8117 16.3501 15.8782 16.3461ZM17.3904 16.1546L17.3325 16.1578C17.2226 16.2007 17.048 16.4603 16.9088 16.789C16.8107 17.0211 16.7367 17.2742 16.7367 17.4267C16.7367 17.499 16.7534 17.5481 16.7905 17.5626L16.8476 17.5594C16.9575 17.5158 17.1315 17.2557 17.2724 16.928C17.3702 16.6954 17.4434 16.4423 17.4434 16.2895C17.4434 16.2177 17.4275 16.1684 17.3904 16.1546ZM14.6683 14.5513C14.5264 14.5513 14.4133 14.6139 14.4133 14.693C14.4133 14.7716 14.5264 14.8335 14.6683 14.8335C14.8124 14.8335 14.9245 14.7716 14.9245 14.693C14.9245 14.6139 14.8124 14.5513 14.6683 14.5513ZM13.7631 16.3031L13.8072 16.2993C13.884 16.2642 14.0001 16.0702 14.0876 15.8281C14.1803 15.5705 14.2309 15.2939 14.1412 15.2643L14.0979 15.2686C14.0197 15.3044 13.9039 15.4979 13.8172 15.7397C13.7229 15.9976 13.6752 16.2743 13.7631 16.3031ZM14.0001 17.6357C14.0755 17.5418 14.0906 17.4362 14.0346 17.3966L13.9694 17.3836C13.915 17.3901 13.8501 17.4327 13.8016 17.4955C13.7262 17.5894 13.7111 17.6948 13.7668 17.7336L13.8323 17.7479C13.8864 17.7401 13.9521 17.6981 14.0001 17.6357ZM13.9133 19.0953L13.9072 19.0918L13.8789 19.089C13.7771 19.1111 13.8487 19.5232 13.9012 19.74C13.9758 20.0427 14.0768 20.287 14.1469 20.3276L14.1528 20.3316L14.1805 20.3343C14.284 20.3123 14.2107 19.8982 14.1585 19.6834C14.0844 19.379 13.9845 19.1361 13.9133 19.0953ZM12.8877 19.6486C12.8055 19.6486 12.7393 19.7052 12.7393 19.7758C12.7393 19.8429 12.8055 19.8995 12.8877 19.8995C12.9693 19.8995 13.0377 19.8429 13.0377 19.7758C13.038 19.7052 12.9696 19.6486 12.8877 19.6486ZM15.4077 22.6399C15.3623 22.6397 15.3186 22.6562 15.2861 22.6857C15.2537 22.7153 15.2351 22.7556 15.2345 22.7979C15.2345 22.883 15.3123 22.9533 15.4077 22.9533C15.4529 22.9541 15.4966 22.9381 15.5292 22.909C15.5618 22.8798 15.5807 22.8399 15.5817 22.7979C15.5811 22.7555 15.5624 22.7151 15.5298 22.6855C15.4972 22.6559 15.4533 22.6395 15.4077 22.6399ZM23.9269 26.8073C23.9323 26.8151 23.9479 26.8411 23.9716 26.8386L23.9816 26.8381L23.9999 26.8126L24.1561 26.37L24.2782 26.075L24.3824 25.8507C24.4145 25.7754 24.4145 25.725 24.3829 25.6958C24.3328 25.6532 24.2294 25.6895 24.2168 25.6938C24.2084 25.7 23.9232 26.1426 23.9232 26.1426C23.8674 26.2218 23.8464 26.3284 23.8464 26.4381C23.8464 26.5943 23.8884 26.7503 23.9269 26.8073ZM24.6396 29.0185L24.6453 28.9739C24.6491 28.9477 24.7347 28.332 24.5311 28.0942C24.5103 28.0684 24.4839 28.047 24.4537 28.0312C24.4234 28.0155 24.39 28.0058 24.3555 28.0028C24.2943 27.9976 24.2523 28.0141 24.2291 28.0499C24.105 28.2386 24.5922 28.9497 24.6138 28.9805L24.6396 29.0185ZM25.7803 30.1897C25.7571 30.1894 25.734 30.1934 25.7124 30.2015C25.6908 30.2095 25.6712 30.2214 25.6546 30.2366C25.6379 30.2517 25.6247 30.2697 25.6156 30.2896C25.6065 30.3095 25.6017 30.3308 25.6015 30.3524C25.6015 30.4438 25.6815 30.5147 25.7803 30.5147C25.8267 30.5147 25.8711 30.4975 25.9039 30.4671C25.9367 30.4366 25.9551 30.3953 25.9551 30.3522C25.9551 30.3091 25.9367 30.2678 25.9039 30.2373C25.8711 30.2068 25.8267 30.1897 25.7803 30.1897ZM23.0946 28.2069C23.0109 28.2069 22.9395 28.2674 22.9395 28.3423C22.9395 28.4192 23.0111 28.4782 23.0946 28.4782C23.1803 28.4782 23.2493 28.4192 23.2493 28.3423C23.2493 28.2674 23.1803 28.2069 23.0946 28.2069ZM25.0517 30.6078L25.0329 30.6038C24.9402 30.6038 24.5895 30.8889 24.2906 31.1733C24.2642 31.1994 23.615 31.8183 23.7009 31.8989L23.7058 31.9039L23.7268 31.9079C23.8205 31.9079 24.1707 31.6217 24.4681 31.3388C24.4961 31.3125 25.1463 30.6959 25.0577 30.6123L25.0517 30.6078ZM23.1025 32.2809C23.0483 32.2809 22.9635 32.328 22.8878 32.3984C22.7973 32.4825 22.7316 32.5989 22.78 32.6467L22.828 32.6627C22.8832 32.6627 22.9683 32.6167 23.0437 32.5448C23.1321 32.4597 23.2 32.3458 23.1496 32.2975L23.1025 32.2809ZM22.2473 33.4263C22.1807 33.4263 22.0867 33.4771 22.0046 33.5545C21.9187 33.6346 21.8694 33.7232 21.8694 33.7848C21.8694 33.8084 21.8761 33.8274 21.892 33.8407L21.9526 33.8622C22.0181 33.8622 22.1148 33.8129 22.1953 33.735C22.3146 33.6216 22.3626 33.5002 22.3084 33.4476L22.2473 33.4263ZM17.7764 27.6573C17.6481 27.6573 17.5439 27.7252 17.5439 27.8108C17.5439 27.8959 17.6484 27.9615 17.7764 27.9615C17.9056 27.9615 18.0088 27.8959 18.0088 27.8108C18.0091 27.7252 17.9056 27.6573 17.7764 27.6573ZM19.6699 27.7805C19.5788 27.7805 19.508 27.8261 19.508 27.8861C19.508 27.9425 19.5788 27.9888 19.6699 27.9888C19.7577 27.9888 19.8304 27.9422 19.8304 27.8861C19.8304 27.8273 19.7577 27.7805 19.6699 27.7805ZM21.9809 28.4993L21.9949 28.4792C22.021 28.3781 21.4759 28.2201 21.1844 28.1515C20.8345 28.0684 20.4187 28.0018 20.3268 28.0531L20.3204 28.0571L20.3055 28.0782C20.2791 28.1803 20.824 28.3363 21.116 28.4071C21.4656 28.4888 21.8815 28.5533 21.9747 28.5025L21.9809 28.4993Z" fill="white"/>
</g>
</svg>
