<svg width="44" height="44" viewBox="0 0 44 44" fill="none" xmlns="http://www.w3.org/2000/svg">
<mask id="mask0_755_9246" style="mask-type:alpha" maskUnits="userSpaceOnUse" x="0" y="0" width="44" height="44">
<rect width="44" height="44" fill="#D9D9D9"/>
</mask>
<g mask="url(#mask0_755_9246)">
<path fill-rule="evenodd" clip-rule="evenodd" d="M10.8461 29.5918C10.8461 31.895 9.11612 33.7553 6.9803 33.7553C4.84424 33.7553 3.11676 31.895 3.11676 29.5918C3.11676 27.2928 4.84424 25.4307 6.9803 25.4307C9.11612 25.4307 10.8461 27.2925 10.8461 29.5918ZM41.0369 29.5918C41.0369 31.895 39.3044 33.7553 37.1711 33.7553C35.0353 33.7553 33.3028 31.895 33.3028 29.5918C33.3028 27.2928 35.0353 25.4307 37.1711 25.4307C39.3044 25.4307 41.0369 27.2925 41.0369 29.5918ZM12.8572 26.1541C12.3558 26.1541 11.9519 26.6023 11.9519 26.9396V38.2106C11.9519 38.5476 12.3558 38.9998 12.8572 38.9998C13.359 38.9998 13.765 38.5476 13.765 38.2106V26.9396C13.765 26.6023 13.359 26.1541 12.8572 26.1541ZM15.9256 26.1541C15.4289 26.1541 15.0228 26.6023 15.0228 26.9396V38.2106C15.0228 38.5476 15.4292 38.9998 15.9256 38.9998C16.4271 38.9998 16.8334 38.5476 16.8334 38.2106V26.9396C16.8334 26.6023 16.4271 26.1541 15.9256 26.1541ZM18.9963 26.1541C18.4923 26.1541 18.0887 26.6023 18.0887 26.9396V38.2106C18.0887 38.5476 18.4923 38.9998 18.9963 38.9998C19.4955 38.9998 19.9016 38.5476 19.9016 38.2106V26.9396C19.9016 26.6023 19.4955 26.1541 18.9963 26.1541ZM22.0619 26.1541C21.563 26.1541 21.1592 26.6023 21.1592 26.9396V38.2106C21.1592 38.5476 21.563 38.9998 22.0619 38.9998C22.5684 38.9998 22.9773 38.5476 22.9773 38.2106V26.9396C22.9773 26.6023 22.5684 26.1541 22.0619 26.1541ZM25.1426 26.1541C24.6409 26.1541 24.2326 26.6023 24.2326 26.9396V38.2106C24.2326 38.5476 24.6409 38.9998 25.1426 38.9998C25.6418 38.9998 26.0482 38.5476 26.0482 38.2106V26.9396C26.0482 26.6023 25.6418 26.1541 25.1426 26.1541ZM28.2085 26.1541C27.7068 26.1541 27.3035 26.6023 27.3035 26.9396V38.2106C27.3035 38.5476 27.7068 38.9998 28.2085 38.9998C28.7102 38.9998 29.1141 38.5476 29.1141 38.2106V26.9396C29.1141 26.6023 28.7102 26.1541 28.2085 26.1541ZM31.2792 26.1541C30.7775 26.1541 30.3711 26.6023 30.3711 26.9396V38.2106C30.3711 38.5476 30.7775 38.9998 31.2792 38.9998C31.7784 38.9998 32.1842 38.5476 32.1842 38.2106V26.9396C32.1845 26.6023 31.7786 26.1541 31.2792 26.1541Z" fill="#505E31"/>
<path fill-rule="evenodd" clip-rule="evenodd" d="M42.8183 6L1.18129 6.00539C-0.0985478 6.00539 0.00184626 7.27567 0.00184626 7.27567V28.9044C0.523094 25.621 3.1729 23.119 6.36848 23.119H37.6872C40.7849 23.119 43.3663 25.464 44 28.5908V7.27837C44.0002 7.2781 44.0002 6 42.8183 6Z" fill="#505E31"/>
<path fill-rule="evenodd" clip-rule="evenodd" d="M26.058 12.8621C25.2747 12.8621 24.6971 13.4601 24.5559 14.4141L24.5481 14.4786H27.4453V14.4206C27.4012 13.537 26.8041 12.8621 26.058 12.8621ZM18.2576 12.8621C17.4697 12.8621 16.8946 13.4601 16.7577 14.4141L16.7479 14.4786H19.6423L19.6398 14.4206C19.5985 13.537 19.0039 12.8621 18.2576 12.8621ZM34.4503 19.0312C33.6331 19.0312 32.9922 18.6952 32.5393 18.0416L32.5246 18.0206H32.4169V21.287H30.2806V11.5538H32.3118V12.4064H32.4169L32.4359 12.384C32.8593 11.7002 33.496 11.3392 34.2788 11.3392C36.4978 11.3392 37.2856 13.4974 37.2856 15.3487C37.2861 17.1788 36.4104 19.0312 34.4503 19.0312ZM29.5836 15.72H24.5529L24.5559 15.778C24.6019 16.8611 25.194 17.5067 26.1386 17.5067C26.7405 17.5067 27.2325 17.1958 27.4453 16.695H29.4441C29.0603 18.1562 27.8246 19.0312 26.1141 19.0312C23.8311 19.0312 22.4145 17.5487 22.4145 15.164C22.4145 13.0214 24.0146 11.3389 26.058 11.3389C27.0975 11.3389 27.969 11.7091 28.5832 12.4007C29.2341 13.1347 29.5908 14.2243 29.5908 15.479C29.5908 15.5631 29.5861 15.6383 29.5836 15.72ZM21.7806 15.72H16.7527V15.778C16.7942 16.8611 17.3888 17.5067 18.3357 17.5067C18.9353 17.5067 19.4295 17.1958 19.6423 16.695H21.6414C21.2571 18.1562 20.0194 19.0312 18.3114 19.0312C16.0334 19.0312 14.6141 17.5487 14.6141 15.164C14.6141 13.0214 16.2144 11.3389 18.2573 11.3389C19.2948 11.3389 20.1633 11.7091 20.7825 12.4007C21.4331 13.1347 21.7856 14.2243 21.7856 15.479C21.7856 15.5631 21.7834 15.6383 21.7806 15.72ZM13.8901 15.661C13.8901 17.927 12.8305 19.0315 10.6479 19.0315C8.42873 19.0315 7.3985 17.8351 7.3985 15.2775V14.8928H9.60316V15.7742C9.60316 16.4726 9.97019 16.8665 10.6064 16.8665C11.2523 16.8665 11.5409 16.4435 11.5409 15.4922V8.78296H13.8901V15.661ZM33.7628 13.0756C33.0753 13.0756 32.3385 13.612 32.3385 15.1074C32.3385 16.5804 32.8012 17.292 33.7531 17.292C34.778 17.292 35.1476 16.1655 35.1476 15.1074C35.1478 14.127 34.783 13.0756 33.7628 13.0756ZM38.3334 21.0406C37.9389 21.0405 37.5606 20.8717 37.2816 20.5712C37.0027 20.2707 36.846 19.8632 36.846 19.4384C36.846 18.5569 37.514 17.8348 38.3334 17.8348C39.1528 17.8348 39.8208 18.5569 39.8208 19.4384C39.8208 19.6488 39.7824 19.8571 39.7076 20.0515C39.6329 20.2459 39.5233 20.4225 39.3852 20.5713C39.2471 20.7201 39.0831 20.8381 38.9026 20.9186C38.7222 20.9991 38.5287 21.0406 38.3334 21.0406ZM38.3334 18.2366C38.0377 18.2375 37.7544 18.3644 37.5453 18.5896C37.3362 18.8148 37.2184 19.1199 37.2175 19.4384C37.2175 20.0987 37.7193 20.6361 38.3334 20.6361C38.9475 20.6361 39.4492 20.0984 39.4492 19.4384C39.4483 19.1199 39.3305 18.8148 39.1214 18.5897C38.9123 18.3645 38.6291 18.2376 38.3334 18.2366ZM38.5705 20.3015L38.3284 19.6322H38.0688V20.3015H37.6947V18.6095H38.3872C38.5903 18.6095 38.6982 18.6424 38.7961 18.7241C38.8939 18.8163 38.9598 18.9678 38.9598 19.118C38.9598 19.276 38.8889 19.4251 38.7788 19.5028C38.7593 19.5228 38.7317 19.5333 38.6854 19.5543L38.9768 20.3015H38.5705ZM38.2871 18.9099H38.069V19.3421H38.2921C38.4974 19.3421 38.5805 19.2801 38.5805 19.1221C38.5805 18.9678 38.5021 18.9099 38.2871 18.9099Z" fill="white"/>
</g>
</svg>
