<svg width="36" height="36" viewBox="0 0 36 36" fill="none" xmlns="http://www.w3.org/2000/svg">
<mask id="mask0_807_15" style="mask-type:alpha" maskUnits="userSpaceOnUse" x="0" y="0" width="36" height="36">
<rect width="36" height="36" fill="#D9D9D9"/>
</mask>
<g mask="url(#mask0_807_15)">
<path d="M35.9655 35.2853L30.692 21.3937C30.6482 21.2784 30.5654 21.182 30.4579 21.1215L24.8409 17.957L26.4808 15.3569C27.4873 13.7598 28.0193 11.9141 28.0193 10.0195C28.0193 4.49472 23.5246 0 17.9998 0C12.475 0 7.9803 4.49472 7.9803 10.0195C7.9803 11.9146 8.51256 13.7603 9.51958 15.357L11.159 17.9571L5.54187 21.1215C5.43434 21.182 5.35146 21.2784 5.30765 21.3937L0.0342276 35.2853C-0.00416178 35.3867 -0.0104268 35.4973 0.0162842 35.6023C0.0429951 35.7073 0.101386 35.8015 0.183522 35.8722C0.265657 35.9428 0.367552 35.9865 0.475359 35.9972C0.583165 36.0079 0.691653 35.9851 0.786078 35.932L9.2635 31.156L17.7409 35.932C17.8199 35.9765 17.9091 35.9999 17.9998 35.9999C18.0905 35.9999 18.1796 35.9765 18.2586 35.932L26.7361 31.156L35.2135 35.932C35.3079 35.9853 35.4164 36.0081 35.5243 35.9975C35.6321 35.9868 35.7341 35.9431 35.8163 35.8725C35.8984 35.8018 35.9569 35.7075 35.9836 35.6025C36.0103 35.4974 36.0039 35.3867 35.9655 35.2853ZM18.5272 27.3312C18.8626 27.2127 19.1481 26.9843 19.3373 26.6831C19.3641 26.6409 23.8534 19.5229 23.8534 19.5229L26.1399 30.2813L18.5272 34.5701V27.3312ZM10.4117 14.7943C9.51107 13.3662 9.03505 11.7152 9.03505 10.0194C9.03505 5.0762 13.0566 1.05462 17.9999 1.05462C22.9431 1.05462 26.9647 5.0762 26.9647 10.0194C26.9647 11.7148 26.4888 13.366 25.5888 14.7943C25.5184 14.9059 18.57 25.9247 18.4488 26.115C18.4476 26.1166 18.4466 26.1183 18.4456 26.1199C18.3478 26.2746 18.1812 26.3671 17.9999 26.3671C17.8184 26.3671 17.6511 26.2742 17.5531 26.1202C17.4827 26.0085 10.5204 14.9679 10.4141 14.7982L10.4117 14.7943ZM6.22586 21.9466L11.1418 19.1772L10.2854 23.2064C10.269 23.2833 10.2701 23.3629 10.2884 23.4393C10.3068 23.5158 10.342 23.5871 10.3915 23.6482C10.441 23.7093 10.5035 23.7585 10.5745 23.7923C10.6455 23.8261 10.7231 23.8436 10.8017 23.8436C10.9224 23.8434 11.0395 23.8018 11.1332 23.7258C11.227 23.6497 11.2919 23.5438 11.317 23.4258L12.1464 19.5233L16.662 26.6845C16.8519 26.9849 17.1374 27.2126 17.4724 27.3311V34.5702L9.85989 30.2814L10.8785 25.4889C10.8929 25.4212 10.8938 25.3513 10.8812 25.2832C10.8686 25.2151 10.8427 25.1502 10.805 25.0921C10.7673 25.034 10.7185 24.9839 10.6614 24.9447C10.6044 24.9054 10.5401 24.8778 10.4724 24.8634C10.4046 24.849 10.3347 24.848 10.2666 24.8606C10.1985 24.8732 10.1335 24.8991 10.0754 24.9368C10.0173 24.9745 9.96726 25.0233 9.92804 25.0804C9.88882 25.1375 9.86124 25.2018 9.84688 25.2696L8.79719 30.208L1.53701 34.2984L6.22586 21.9466ZM27.2025 30.2081L24.8581 19.1771L29.7738 21.9466L34.4627 34.2984L27.2025 30.2081Z" fill="#13141A"/>
<path d="M23.8007 10.0195C23.8007 6.82102 21.1984 4.21875 17.9999 4.21875C14.8014 4.21875 12.1991 6.82102 12.1991 10.0195C12.1991 13.218 14.8014 15.8203 17.9999 15.8203C21.1984 15.8203 23.8007 13.218 23.8007 10.0195ZM13.2538 10.0195C13.2538 7.4025 15.3828 5.27344 17.9999 5.27344C20.6169 5.27344 22.746 7.4025 22.746 10.0195C22.746 12.6366 20.6169 14.7656 17.9999 14.7656C15.3828 14.7656 13.2538 12.6366 13.2538 10.0195Z" fill="#13141A"/>
<path d="M21.6913 10.0195C21.6913 7.98413 20.0353 6.32812 17.9999 6.32812C15.9645 6.32812 14.3085 7.98413 14.3085 10.0195C14.3085 12.0549 15.9645 13.7109 17.9999 13.7109C20.0353 13.7109 21.6913 12.0549 21.6913 10.0195ZM15.3632 10.0195C15.3632 8.56561 16.546 7.38281 17.9999 7.38281C19.4538 7.38281 20.6366 8.56561 20.6366 10.0195C20.6366 11.4735 19.4538 12.6562 17.9999 12.6562C16.546 12.6562 15.3632 11.4735 15.3632 10.0195Z" fill="#13141A"/>
</g>
</svg>
