<svg width="40" height="44" viewBox="0 0 40 44" fill="none" xmlns="http://www.w3.org/2000/svg">
<mask id="mask0_2660_3204" style="mask-type:alpha" maskUnits="userSpaceOnUse" x="0" y="0" width="40" height="44">
<rect width="40" height="44" fill="#D9D9D9"/>
</mask>
<g mask="url(#mask0_2660_3204)">
<path d="M19.9603 24.9419C18.5313 24.9419 17.3685 23.7701 17.3685 22.3292C17.3685 20.8883 18.5313 19.7158 19.9603 19.7158C21.3893 19.7158 22.5514 20.8883 22.5514 22.3292C22.5514 23.7701 21.3893 24.9419 19.9603 24.9419ZM19.9603 20.6395C19.0363 20.6395 18.2846 21.3975 18.2846 22.3292C18.2846 23.2608 19.0363 24.0182 19.9603 24.0182C20.8843 24.0182 21.6354 23.2608 21.6354 22.3292C21.6354 21.3975 20.8843 20.6395 19.9603 20.6395Z" fill="#5E5E5E"/>
<path d="M39.4687 24.3098C39.7191 24.3098 39.9267 24.1004 39.9267 23.848V20.4735C39.9267 20.2211 39.7191 20.0117 39.4687 20.0117H29.0992C28.8427 20.0117 28.6412 20.2211 28.6412 20.4735C28.6412 20.7322 28.8427 20.9354 29.0992 20.9354H39.0107V23.3861H31.1634L25.8443 19.6484V13.4906C25.8443 10.3686 23.4504 7.80701 20.4214 7.57302H20.4189V5.6518H24.6412C24.8916 5.6518 25.0992 5.44859 25.0992 5.18997V2.29582C25.0992 2.04335 24.8916 1.83399 24.6412 1.83399H19.9634C19.9028 1.83375 19.8428 1.84573 19.7869 1.8692C19.731 1.89268 19.6803 1.92718 19.6379 1.97069C19.5951 2.01352 19.5611 2.06446 19.538 2.12058C19.5148 2.17669 19.5029 2.23688 19.5029 2.29767V7.57364C16.469 7.80886 14.0763 10.3699 14.0763 13.4906V19.6484L13.5634 20.0117H0.458015C0.201527 20.0117 0 20.2211 0 20.4735V23.848C0 24.1004 0.201527 24.3098 0.458015 24.3098H1.82595V41.2437H0.458015C0.201527 41.2437 0 41.453 0 41.7055C0 41.9641 0.201527 42.1673 0.458015 42.1673H39.4687C39.5902 42.1673 39.7067 42.1187 39.7926 42.032C39.8785 41.9454 39.9267 41.828 39.9267 41.7055C39.9267 41.583 39.8785 41.4655 39.7926 41.3789C39.7067 41.2923 39.5902 41.2437 39.4687 41.2437H38.0947V24.3098H39.4687ZM22.7908 17.5055V13.9525H24.9282V19.008L22.7908 17.5055ZM18.0458 13.9525H21.8748V16.8651L20.2198 15.7013C20.1439 15.6471 20.0533 15.6181 19.9603 15.6181C19.8673 15.6181 19.7767 15.6471 19.7008 15.7013L18.0458 16.8651V13.9525ZM20.4214 2.75765H24.1832V4.72813H20.4214V2.75765ZM19.9603 8.47821H19.9627C22.546 8.47821 24.6772 10.4795 24.9093 13.0288H15.0101C15.2427 10.4807 17.3722 8.48006 19.9603 8.47821ZM14.9924 13.9525H17.1298V17.5055L14.9924 19.008V13.9525ZM0.91603 20.9354H12.2443L8.75725 23.3861H0.91603V20.9354ZM11.884 41.2437V28.0168H14.6382V41.2437H11.884ZM18.5832 41.2437V28.0168H21.3374V41.2437H18.5832ZM25.2824 41.2437V28.0168H28.0366V41.2437H25.2824ZM28.9527 41.2437V27.555C28.9527 27.3025 28.745 27.0931 28.4947 27.0931H24.8244C24.574 27.0931 24.3664 27.3025 24.3664 27.555V41.2437H22.2534V27.555C22.2534 27.3025 22.0458 27.0931 21.7954 27.0931H18.1252C17.8748 27.0931 17.6672 27.3025 17.6672 27.555V41.2437H15.5542V27.555C15.5542 27.3025 15.3466 27.0931 15.0962 27.0931H11.426C11.1756 27.0931 10.9679 27.3025 10.9679 27.555V41.2437H2.74198V24.3098H7.43817L7.31603 24.396L7.30992 24.4022L5.98473 25.332C5.7771 25.4798 5.72824 25.763 5.8687 25.9724C6.01527 26.1818 6.30229 26.2372 6.50992 26.0894L7.12061 25.6584V39.2424C7.12061 39.501 7.32824 39.7042 7.57863 39.7042C7.83511 39.7042 8.03664 39.501 8.03664 39.2424V25.018L19.9634 16.6434L31.884 25.0118V41.2437H28.9527ZM37.1786 41.2437H32.8V25.6584L33.4168 26.0894C33.5168 26.1576 33.6393 26.1836 33.758 26.1617C33.8768 26.1398 33.9823 26.0719 34.0519 25.9724C34.1985 25.763 34.1435 25.4798 33.9359 25.332L32.6107 24.4022L32.6046 24.396L32.4824 24.3098H37.1786V41.2437Z" fill="#5E5E5E"/>
</g>
</svg>
