<svg width="44" height="44" viewBox="0 0 44 44" fill="none" xmlns="http://www.w3.org/2000/svg">
<mask id="mask0_755_9255" style="mask-type:alpha" maskUnits="userSpaceOnUse" x="0" y="0" width="44" height="44">
<rect width="44" height="44" fill="#D9D9D9"/>
</mask>
<g mask="url(#mask0_755_9255)">
<path d="M43.5187 22.0002C43.5187 33.8939 33.8937 43.5189 22 43.5189C10.1062 43.5189 0.481201 33.8939 0.481201 22.0002C0.481201 10.1064 10.1062 0.481445 22 0.481445C33.8937 0.481445 43.5187 10.1064 43.5187 22.0002ZM22 1.7877C10.7937 1.7877 1.78745 10.7939 1.78745 22.0002C1.78745 33.2064 10.8624 42.2127 22 42.2127C33.2062 42.2127 42.2125 33.1377 42.2125 22.0002C42.2125 10.7939 33.2062 1.7877 22 1.7877Z" fill="url(#paint0_linear_755_9255)"/>
<path d="M22.0001 1.7876C10.7938 1.7876 1.7876 10.7938 1.7876 22.0001C1.7876 33.2063 10.8626 42.2126 22.0001 42.2126C33.2063 42.2126 42.2126 33.1376 42.2126 22.0001C42.2126 10.7938 33.2063 1.7876 22.0001 1.7876ZM22.0001 40.9063C11.5501 40.9063 3.09385 32.4501 3.09385 22.0001C3.09385 11.5501 11.5501 3.09385 22.0001 3.09385C32.4501 3.09385 40.9063 11.5501 40.9063 22.0001C40.9063 32.4501 32.4501 40.9063 22.0001 40.9063Z" fill="url(#paint1_linear_755_9255)"/>
<path opacity="0.4" d="M22 43.5187C33.8937 43.5187 43.5187 33.8937 43.5187 22C43.5187 10.1063 33.8937 0.48125 22 0.48125C10.1063 0.48125 0.48125 10.1063 0.48125 22C0.48125 33.8937 10.1063 43.5187 22 43.5187ZM22 0C34.1 0 44 9.9 44 22C44 34.1 34.1 44 22 44C9.9 44 0 34.1 0 22C0 9.9 9.9 0 22 0Z" fill="url(#paint2_linear_755_9255)"/>
<path d="M1.51245 22.0689C1.51245 10.7939 10.6562 1.5127 22 1.5127C33.3437 1.5127 42.4874 10.7252 42.4874 22.0689C42.4874 33.3439 33.3437 42.4877 22 42.4877C10.6562 42.4877 1.51245 33.3439 1.51245 22.0689ZM7.9062 7.90645C4.26245 11.5502 1.9937 16.5689 1.9937 22.0689C1.9937 27.5689 4.26245 32.5877 7.83745 36.1627C11.4812 39.7377 16.5 42.0064 22 42.0064C27.5 42.0064 32.5187 39.8064 36.0937 36.1627C39.7374 32.5877 41.9375 27.5689 41.9375 22.0689C41.9375 16.5689 39.6687 11.5502 36.0937 7.90645C32.5187 4.2627 27.5 1.99395 22 1.99395C16.5 1.99395 11.4812 4.2627 7.9062 7.90645Z" fill="white"/>
<path opacity="0.4" d="M21.9999 40.9749C16.9124 40.9749 12.1687 38.9812 8.59365 35.4062C5.01865 31.8312 3.0249 27.0874 3.0249 21.9999C3.0249 16.9124 5.01865 12.1687 8.59365 8.59365C12.1687 5.01865 16.9124 3.0249 21.9999 3.0249C27.0874 3.0249 31.8312 5.01865 35.4062 8.59365C38.9812 12.1687 40.9749 16.9124 40.9749 21.9999C40.9749 27.0874 38.9812 31.8312 35.4062 35.4062C31.8312 38.9812 27.0874 40.9749 21.9999 40.9749ZM21.9999 40.4249C26.8812 40.4249 31.5562 38.4999 34.9937 35.0624C38.4999 31.5562 40.3562 26.9499 40.3562 22.0687C40.3562 17.1874 38.4312 12.5124 34.9937 9.0749C31.4874 5.56865 26.8812 3.7124 21.9999 3.7124C17.1187 3.7124 12.4437 5.6374 9.00615 9.0749C5.4999 12.4437 3.5749 17.1187 3.5749 21.9999C3.5749 26.8812 5.4999 31.5562 8.9374 34.9937C12.4437 38.4999 17.1187 40.4249 21.9999 40.4249Z" fill="url(#paint3_linear_755_9255)"/>
<path d="M38.7063 30.9376C38.3625 30.6626 25.0938 20.1438 25.0938 20.1438L22 2.4751C21.7938 2.54385 21.5188 2.7501 21.3813 3.0251L19.1813 20.2126L5.50005 30.7313C5.50005 30.7313 5.22505 31.0751 5.08755 31.2813C5.0188 31.4188 5.0188 31.6251 5.0188 31.8313L21.9313 24.8876L38.8438 31.8313C38.9813 31.4876 38.8438 31.1438 38.7063 30.9376Z" fill="white"/>
<path d="M22.1375 22.5501L22 25.7126L37.5375 31.9689C38.0875 32.2439 38.5 32.1064 38.9125 31.8314L22.3438 22.4814C22.275 22.4126 22.1375 22.4814 22.1375 22.5501Z" fill="#565F64"/>
<path d="M22.1375 22.5501C22.1375 22.5501 23.0312 24.1314 24.0625 25.2314C25.5062 26.8126 27.4312 27.9126 27.4312 27.9126L37.5374 31.9689C38.0875 32.2439 38.5 32.1064 38.9124 31.8314L22.3437 22.4814C22.275 22.4126 22.1375 22.4814 22.1375 22.5501Z" fill="url(#paint4_linear_755_9255)"/>
<path d="M38.8437 31.2124C38.8437 31.1437 38.7749 31.0749 38.7062 30.9374L24.5437 20.5562L22.6187 21.7937C22.6187 21.7937 22.7562 21.8624 22.8249 21.7937C23.0312 21.7249 23.4437 21.6562 23.8562 21.7937C24.1999 21.9312 38.8437 31.2812 38.8437 31.2124C38.8437 31.2812 38.8437 31.2812 38.8437 31.2124Z" fill="#A4AAAE" fill-opacity="0.6"/>
<path d="M38.3624 30.5936L25.1624 20.1436L24.5437 20.5561L38.7062 31.0061C38.6375 30.8686 38.5 30.7311 38.3624 30.5936Z" fill="#333E46"/>
<path d="M22.3437 21.5189L22.2749 21.5877C22.2749 21.5877 22.2749 21.7252 22.4124 21.6564C22.4812 21.5877 24.4749 20.5564 25.1624 20.1439L22.7562 3.64395C22.6874 3.0252 22.4124 2.7502 21.9312 2.54395L22.2062 21.6564L22.3437 21.5189Z" fill="#565F64"/>
<path d="M21.1749 3.64395V4.5377L19.6624 19.7314C19.6624 19.9377 19.7312 20.1439 19.9374 20.2814L20.8312 20.9689L21.4499 4.19395L21.5187 2.8877C21.3124 3.0252 21.2437 3.3002 21.1749 3.64395ZM20.3499 21.2439L19.5249 20.5564L5.56865 30.6627C5.56865 30.6627 5.15615 30.9377 5.0874 31.2127L5.56865 30.9377L20.2124 21.7252C20.4874 21.5877 20.5562 21.4502 20.3499 21.2439Z" fill="#A4AAAE" fill-opacity="0.6"/>
<path d="M21.7938 22.5501C21.7938 22.4814 21.725 22.4126 21.6563 22.4814L5.0188 31.9001C5.4313 32.1751 5.8438 32.2439 6.3938 32.0376L21.9313 25.7814L21.7938 22.5501Z" fill="#565F64"/>
<path d="M22.2749 21.5874C22.2749 21.5874 22.2749 21.6562 22.3437 21.6562H22.4124C22.4812 21.5874 24.4749 20.5562 25.1624 20.1437L24.8874 18.1499L22.7562 3.64365C22.7562 3.36865 22.6874 3.1624 22.5499 3.0249C22.5499 3.0249 23.5812 16.9124 23.5812 18.4249C23.5812 20.4187 22.2749 21.5874 22.2749 21.5874Z" fill="url(#paint5_linear_755_9255)"/>
<path d="M21.7938 22.5501C21.7938 22.4814 21.725 22.4126 21.6563 22.4814L5.0188 31.9001C5.4313 32.1751 5.8438 32.2439 6.3938 32.0376L21.9313 25.7814L21.7938 22.5501Z" fill="url(#paint6_linear_755_9255)" fill-opacity="0.8"/>
<path opacity="0.8" d="M6.3937 31.9688L21.9312 25.7125L21.7937 22.6875C21.5187 23.5125 21.0375 24.4062 19.7312 25.0938C18.7687 25.6437 9.5562 30.1813 6.2562 31.7625C6.04995 31.9 5.77495 31.9687 5.63745 32.0375C5.91245 32.175 6.1187 32.1062 6.3937 31.9688Z" fill="url(#paint7_linear_755_9255)"/>
<path d="M22.3437 21.5189L22.2749 21.5877C22.2749 21.5877 22.2749 21.7252 22.4124 21.6564C22.4812 21.5877 24.4749 20.5564 25.1624 20.1439L22.7562 3.64395C22.6874 3.0252 22.4124 2.7502 21.9312 2.54395L22.2062 21.6564L22.3437 21.5189Z" fill="url(#paint8_linear_755_9255)"/>
<path d="M22.3437 21.5189L22.2749 21.5877C22.2749 21.5877 22.2749 21.7252 22.4124 21.6564C22.4812 21.5877 24.4749 20.5564 25.1624 20.1439L22.7562 3.64395C22.6874 3.0252 22.4124 2.7502 21.9312 2.54395L22.2062 21.6564L22.3437 21.5189Z" fill="url(#paint9_linear_755_9255)"/>
<path d="M3.5062 30.525C3.02495 29.425 0.274951 24.0625 3.29995 13.75H2.1312C1.51245 15.8125 1.0312 17.05 0.756201 18.9062C0.756201 18.9062 0.618701 19.5938 0.549951 20.35C0.481201 21.1063 0.481201 21.5188 0.481201 22C0.481201 26.125 1.51245 28.5312 1.51245 28.5312C2.61245 31.9688 4.53745 35.0625 7.14995 37.4C9.4187 39.3938 12.925 40.9062 15.8125 41.4562C15.3312 41.3875 7.0812 37.8813 3.5062 30.525Z" fill="url(#paint10_linear_755_9255)"/>
<path d="M22.275 22.4125H21.6562C21.725 22.4125 21.7938 22.4125 21.7938 22.4813L21.9312 25.6438H22L22.1375 22.4813C22.1375 22.4125 22.2063 22.3438 22.275 22.4125Z" fill="url(#paint11_linear_755_9255)"/>
<path d="M28.875 1.58105C36.0938 4.33105 42.9 11.8936 42.9 21.4498C42.9 32.9998 33.6875 42.4186 22 42.4186V43.5186C33.6875 43.5186 43.5187 33.8936 43.5187 21.9998C43.5187 12.5123 37.4688 4.5373 28.875 1.58105Z" fill="url(#paint12_linear_755_9255)"/>
<path d="M40.425 13.8876C35.6125 2.81885 24.75 2.2001 24.1312 2.13135H24.0625C32.3812 3.64385 37.675 9.0751 39.5312 14.7813V14.8501C40.3562 17.0501 40.7687 19.3876 40.8375 21.9313C40.9062 24.3376 40.3562 27.0189 39.325 29.4939C39.2562 29.8376 39.1875 30.2501 39.1187 30.2501H40.2187C43.5187 24.0626 42.075 17.8063 40.425 13.8876Z" fill="url(#paint13_linear_755_9255)"/>
<path d="M1.51245 22.0689C1.51245 10.7939 10.6562 1.5127 22 1.5127C33.3437 1.5127 42.4874 10.7252 42.4874 22.0689C42.4874 33.3439 33.3437 42.4877 22 42.4877C10.6562 42.4877 1.51245 33.3439 1.51245 22.0689ZM7.9062 7.90645C4.26245 11.5502 1.9937 16.5689 1.9937 22.0689C1.9937 27.5689 4.26245 32.5877 7.83745 36.1627C11.4812 39.7377 16.5 42.0064 22 42.0064C27.5 42.0064 32.5187 39.8064 36.0937 36.1627C39.7374 32.5877 41.9375 27.5689 41.9375 22.0689C41.9375 16.5689 39.6687 11.5502 36.0937 7.90645C32.5187 4.2627 27.5 1.99395 22 1.99395C16.5 1.99395 11.4812 4.2627 7.9062 7.90645Z" fill="#FBFBFB"/>
<path d="M5.43115 30.7999L19.4562 20.6937C20.2124 21.1062 21.4499 21.6562 21.5874 21.6562C21.7249 21.7249 21.7249 21.5874 21.7249 21.5874L20.0062 20.1437C19.7999 20.0062 19.7312 19.7999 19.7312 19.5937L21.3812 3.0249C21.3124 3.09365 21.3124 3.23115 21.2437 3.2999C21.1749 3.4374 21.1749 3.50615 21.1749 3.64365L18.7687 20.2124L5.56865 30.5937C5.4999 30.6624 5.43115 30.7312 5.43115 30.7999Z" fill="#333F47"/>
</g>
<defs>
<linearGradient id="paint0_linear_755_9255" x1="5.49858" y1="8.18007" x2="38.5013" y2="35.8203" gradientUnits="userSpaceOnUse">
<stop stop-color="white"/>
<stop offset="0.1" stop-color="#CDD0D0"/>
<stop offset="0.2" stop-color="#A5ACAF"/>
<stop offset="0.3" stop-color="#98A0A4"/>
<stop offset="0.4" stop-color="#828A8F"/>
<stop offset="0.5" stop-color="#667075"/>
<stop offset="0.6" stop-color="#535C63"/>
<stop offset="0.7" stop-color="#475158"/>
<stop offset="0.8" stop-color="#434D54"/>
<stop offset="1" stop-color="#475157"/>
</linearGradient>
<linearGradient id="paint1_linear_755_9255" x1="6.51141" y1="8.97816" x2="37.4489" y2="34.9657" gradientUnits="userSpaceOnUse">
<stop stop-color="#0B1F2A"/>
<stop offset="0.2" stop-color="#333F47"/>
<stop offset="0.5" stop-color="#81898D"/>
<stop offset="0.7" stop-color="#B3B8B8"/>
<stop offset="0.8" stop-color="#DEE0DD"/>
<stop offset="1" stop-color="#FBFBFB"/>
</linearGradient>
<linearGradient id="paint2_linear_755_9255" x1="29.5192" y1="42.6683" x2="14.4629" y2="1.2815" gradientUnits="userSpaceOnUse">
<stop stop-color="#E1E3E1"/>
<stop offset="0.1" stop-color="#C1C5C4"/>
<stop offset="0.3" stop-color="#9BA1A2"/>
<stop offset="0.5" stop-color="#7D8487"/>
<stop offset="0.7" stop-color="#687074" stop-opacity="0"/>
<stop offset="0.8" stop-color="#5B6469" stop-opacity="0"/>
<stop offset="1" stop-color="#576065" stop-opacity="0"/>
</linearGradient>
<linearGradient id="paint3_linear_755_9255" x1="12.5131" y1="5.56934" x2="31.4867" y2="38.4305" gradientUnits="userSpaceOnUse">
<stop stop-color="#E1E3E1"/>
<stop offset="0.1" stop-color="#C1C5C4"/>
<stop offset="0.3" stop-color="#9BA1A2"/>
<stop offset="0.5" stop-color="#7D8487"/>
<stop offset="0.7" stop-color="#687074" stop-opacity="0"/>
<stop offset="0.8" stop-color="#5B6469" stop-opacity="0"/>
<stop offset="1" stop-color="#576065" stop-opacity="0"/>
</linearGradient>
<linearGradient id="paint4_linear_755_9255" x1="30.5855" y1="27.0828" x2="29.4167" y2="29.0078" gradientUnits="userSpaceOnUse">
<stop stop-color="#27343C"/>
<stop offset="1" stop-color="#00111E" stop-opacity="0"/>
</linearGradient>
<linearGradient id="paint5_linear_755_9255" x1="27.2111" y1="20.0144" x2="25.2861" y2="16.9207" gradientUnits="userSpaceOnUse">
<stop offset="0.1" stop-color="#02131F"/>
<stop offset="0.9" stop-color="#02131F" stop-opacity="0"/>
</linearGradient>
<linearGradient id="paint6_linear_755_9255" x1="21.9877" y1="24.9811" x2="19.1002" y2="25.8061" gradientUnits="userSpaceOnUse">
<stop offset="0.2" stop-color="#02131F"/>
<stop offset="0.9" stop-color="#02131F" stop-opacity="0"/>
</linearGradient>
<linearGradient id="paint7_linear_755_9255" x1="14.2938" y1="28.809" x2="13.8813" y2="27.7777" gradientUnits="userSpaceOnUse">
<stop stop-color="#02131F"/>
<stop offset="0.1" stop-color="#02131F"/>
<stop offset="1" stop-color="#02131F" stop-opacity="0"/>
</linearGradient>
<linearGradient id="paint8_linear_755_9255" x1="24.4763" y1="11.8348" x2="22.1388" y2="12.1098" gradientUnits="userSpaceOnUse">
<stop offset="0.3" stop-color="#02131F"/>
<stop offset="0.8" stop-color="#02131F" stop-opacity="0"/>
</linearGradient>
<linearGradient id="paint9_linear_755_9255" x1="24.5492" y1="11.7956" x2="22.9672" y2="12.0019" gradientUnits="userSpaceOnUse">
<stop offset="0.4" stop-color="#27343C"/>
<stop offset="1" stop-color="#3B474E" stop-opacity="0"/>
</linearGradient>
<linearGradient id="paint10_linear_755_9255" x1="-0.247549" y1="22.5713" x2="18.9337" y2="33.6401" gradientUnits="userSpaceOnUse">
<stop stop-color="#25323B" stop-opacity="0"/>
<stop offset="0.1" stop-color="#27343C"/>
</linearGradient>
<linearGradient id="paint11_linear_755_9255" x1="21.9656" y1="25.7125" x2="21.9656" y2="22.4125" gradientUnits="userSpaceOnUse">
<stop offset="0.3" stop-color="#A5ABAF"/>
<stop offset="1" stop-color="#A5ABAF" stop-opacity="0"/>
</linearGradient>
<linearGradient id="paint12_linear_755_9255" x1="32.7594" y1="1.58105" x2="32.7594" y2="43.5186" gradientUnits="userSpaceOnUse">
<stop stop-color="#6B7378"/>
<stop offset="0.2" stop-color="#333F47"/>
<stop offset="0.5" stop-color="#27343C"/>
<stop offset="0.8" stop-color="#333F47"/>
<stop offset="1" stop-color="#434D54"/>
</linearGradient>
<linearGradient id="paint13_linear_755_9255" x1="39.3862" y1="5.56404" x2="30.1049" y2="19.1765" gradientUnits="userSpaceOnUse">
<stop offset="0.7" stop-color="#49545B"/>
<stop offset="0.8" stop-color="white" stop-opacity="0"/>
</linearGradient>
</defs>
</svg>
