<svg width="44" height="44" viewBox="0 0 44 44" fill="none" xmlns="http://www.w3.org/2000/svg">
<circle cx="22" cy="22" r="22" fill="white"/>
<mask id="mask0_791_50" style="mask-type:alpha" maskUnits="userSpaceOnUse" x="6" y="6" width="32" height="32">
<rect x="6" y="6" width="32" height="32" fill="#D9D9D9"/>
</mask>
<g mask="url(#mask0_791_50)">
<path d="M37.65 22.0001C37.65 30.6501 30.65 37.6501 22 37.6501C13.35 37.6501 6.34998 30.6501 6.34998 22.0001C6.34998 13.3501 13.35 6.3501 22 6.3501C30.65 6.3501 37.65 13.3501 37.65 22.0001ZM22 7.3001C13.85 7.3001 7.29998 13.8501 7.29998 22.0001C7.29998 30.1501 13.9 36.7001 22 36.7001C30.15 36.7001 36.7 30.1001 36.7 22.0001C36.7 13.8501 30.15 7.3001 22 7.3001Z" fill="url(#paint0_linear_791_50)"/>
<path d="M22 7.30005C13.85 7.30005 7.30005 13.85 7.30005 22C7.30005 30.15 13.9 36.7 22 36.7C30.15 36.7 36.7 30.1 36.7 22C36.7 13.85 30.15 7.30005 22 7.30005ZM22 35.75C14.4 35.75 8.25005 29.6 8.25005 22C8.25005 14.4 14.4 8.25005 22 8.25005C29.6 8.25005 35.75 14.4 35.75 22C35.75 29.6 29.6 35.75 22 35.75Z" fill="url(#paint1_linear_791_50)"/>
<path opacity="0.4" d="M22 37.65C30.65 37.65 37.65 30.65 37.65 22C37.65 13.35 30.65 6.35 22 6.35C13.35 6.35 6.35 13.35 6.35 22C6.35 30.65 13.35 37.65 22 37.65ZM22 6C30.8 6 38 13.2 38 22C38 30.8 30.8 38 22 38C13.2 38 6 30.8 6 22C6 13.2 13.2 6 22 6Z" fill="url(#paint2_linear_791_50)"/>
<path d="M7.09998 22.0501C7.09998 13.8501 13.75 7.1001 22 7.1001C30.25 7.1001 36.9 13.8001 36.9 22.0501C36.9 30.2501 30.25 36.9001 22 36.9001C13.75 36.9001 7.09998 30.2501 7.09998 22.0501ZM11.75 11.7501C9.09998 14.4001 7.44998 18.0501 7.44998 22.0501C7.44998 26.0501 9.09998 29.7001 11.7 32.3001C14.35 34.9001 18 36.5501 22 36.5501C26 36.5501 29.65 34.9501 32.25 32.3001C34.9 29.7001 36.5 26.0501 36.5 22.0501C36.5 18.0501 34.85 14.4001 32.25 11.7501C29.65 9.1001 26 7.4501 22 7.4501C18 7.4501 14.35 9.1001 11.75 11.7501Z" fill="white"/>
<path opacity="0.4" d="M22 35.8C18.3 35.8 14.85 34.35 12.25 31.75C9.64995 29.15 8.19995 25.7 8.19995 22C8.19995 18.3 9.64995 14.85 12.25 12.25C14.85 9.64995 18.3 8.19995 22 8.19995C25.7 8.19995 29.15 9.64995 31.75 12.25C34.35 14.85 35.8 18.3 35.8 22C35.8 25.7 34.35 29.15 31.75 31.75C29.15 34.35 25.7 35.8 22 35.8ZM22 35.4C25.55 35.4 28.95 34 31.45 31.5C34 28.95 35.35 25.6 35.35 22.05C35.35 18.5 33.95 15.1 31.45 12.6C28.9 10.05 25.55 8.69995 22 8.69995C18.45 8.69995 15.05 10.1 12.55 12.6C9.99995 15.05 8.59995 18.45 8.59995 22C8.59995 25.55 9.99995 28.95 12.5 31.45C15.05 34 18.45 35.4 22 35.4Z" fill="url(#paint3_linear_791_50)"/>
<path d="M34.15 28.5C33.9 28.3 24.25 20.65 24.25 20.65L22 7.80005C21.85 7.85005 21.65 8.00005 21.55 8.20005L19.95 20.7L10 28.35C10 28.35 9.80002 28.6 9.70002 28.75C9.65002 28.85 9.65002 29 9.65002 29.15L21.95 24.1L34.25 29.15C34.35 28.9 34.25 28.65 34.15 28.5Z" fill="white"/>
<path d="M22.1 22.4001L22 24.7001L33.3 29.2501C33.7 29.4501 34 29.3501 34.3 29.1501L22.25 22.3501C22.2 22.3001 22.1 22.3501 22.1 22.4001Z" fill="#565F64"/>
<path d="M22.1 22.4001C22.1 22.4001 22.75 23.5501 23.5 24.3501C24.55 25.5001 25.95 26.3001 25.95 26.3001L33.3 29.2501C33.7 29.4501 34 29.3501 34.3 29.1501L22.25 22.3501C22.2 22.3001 22.1 22.3501 22.1 22.4001Z" fill="url(#paint4_linear_791_50)"/>
<path d="M34.25 28.7C34.25 28.65 34.2 28.6 34.15 28.5L23.85 20.95L22.45 21.85C22.45 21.85 22.55 21.9 22.6 21.85C22.75 21.8 23.05 21.75 23.35 21.85C23.6 21.95 34.25 28.75 34.25 28.7C34.25 28.75 34.25 28.75 34.25 28.7Z" fill="#A4AAAE" fill-opacity="0.6"/>
<path d="M33.9 28.2499L24.3 20.6499L23.85 20.9499L34.15 28.5499C34.1 28.4499 34 28.3499 33.9 28.2499Z" fill="#333E46"/>
<path d="M22.25 21.6501L22.2 21.7001C22.2 21.7001 22.2 21.8001 22.3 21.7501C22.35 21.7001 23.8 20.9501 24.3 20.6501L22.55 8.6501C22.5 8.2001 22.3 8.0001 21.95 7.8501L22.15 21.7501L22.25 21.6501Z" fill="#565F64"/>
<path d="M21.4 8.6501V9.3001L20.3 20.3501C20.3 20.5001 20.35 20.6501 20.5 20.7501L21.15 21.2501L21.6 9.0501L21.65 8.1001C21.5 8.2001 21.45 8.4001 21.4 8.6501ZM20.8 21.4501L20.2 20.9501L10.05 28.3001C10.05 28.3001 9.74995 28.5001 9.69995 28.7001L10.05 28.5001L20.7 21.8001C20.9 21.7001 20.95 21.6001 20.8 21.4501Z" fill="#A4AAAE" fill-opacity="0.6"/>
<path d="M21.85 22.4001C21.85 22.3501 21.8 22.3001 21.75 22.3501L9.65002 29.2001C9.95002 29.4001 10.25 29.4501 10.65 29.3001L21.95 24.7501L21.85 22.4001Z" fill="#565F64"/>
<path d="M22.2 21.7C22.2 21.7 22.2 21.75 22.25 21.75H22.2999C22.3499 21.7 23.7999 20.95 24.2999 20.65L24.1 19.2L22.5499 8.64995C22.5499 8.44995 22.5 8.29995 22.4 8.19995C22.4 8.19995 23.15 18.3 23.15 19.4C23.15 20.85 22.2 21.7 22.2 21.7Z" fill="url(#paint5_linear_791_50)"/>
<path d="M21.85 22.4001C21.85 22.3501 21.8 22.3001 21.75 22.3501L9.65002 29.2001C9.95002 29.4001 10.25 29.4501 10.65 29.3001L21.95 24.7501L21.85 22.4001Z" fill="url(#paint6_linear_791_50)" fill-opacity="0.8"/>
<path opacity="0.8" d="M10.65 29.25L21.95 24.7L21.85 22.5C21.65 23.1 21.3 23.75 20.35 24.25C19.65 24.65 12.95 27.95 10.55 29.1C10.4 29.2 10.2 29.25 10.1 29.3C10.3 29.4 10.45 29.35 10.65 29.25Z" fill="url(#paint7_linear_791_50)"/>
<path d="M22.25 21.6501L22.2 21.7001C22.2 21.7001 22.2 21.8001 22.3 21.7501C22.35 21.7001 23.8 20.9501 24.3 20.6501L22.55 8.6501C22.5 8.2001 22.3 8.0001 21.95 7.8501L22.15 21.7501L22.25 21.6501Z" fill="url(#paint8_linear_791_50)"/>
<path d="M22.25 21.6501L22.2 21.7001C22.2 21.7001 22.2 21.8001 22.3 21.7501C22.35 21.7001 23.8 20.9501 24.3 20.6501L22.55 8.6501C22.5 8.2001 22.3 8.0001 21.95 7.8501L22.15 21.7501L22.25 21.6501Z" fill="url(#paint9_linear_791_50)"/>
<path d="M8.54998 28.2C8.19998 27.4 6.19998 23.5 8.39998 16H7.54998C7.09998 17.5 6.74998 18.4 6.54998 19.75C6.54998 19.75 6.44998 20.25 6.39998 20.8C6.34998 21.35 6.34998 21.65 6.34998 22C6.34998 25 7.09998 26.75 7.09998 26.75C7.89998 29.25 9.29998 31.5 11.2 33.2C12.85 34.65 15.4 35.75 17.5 36.15C17.15 36.1 11.15 33.55 8.54998 28.2Z" fill="url(#paint10_linear_791_50)"/>
<path d="M22.2 22.3H21.75C21.8 22.3 21.85 22.3 21.85 22.35L21.95 24.65H22L22.1 22.35C22.1 22.3 22.15 22.25 22.2 22.3Z" fill="url(#paint11_linear_791_50)"/>
<path d="M27 7.1499C32.25 9.1499 37.2 14.6499 37.2 21.5999C37.2 29.9999 30.5 36.8499 22 36.8499V37.6499C30.5 37.6499 37.65 30.6499 37.65 21.9999C37.65 15.0999 33.25 9.2999 27 7.1499Z" fill="url(#paint12_linear_791_50)"/>
<path d="M35.4 16.1C31.9 8.05005 24 7.60005 23.55 7.55005H23.5C29.55 8.65005 33.4 12.6 34.75 16.75V16.8C35.35 18.4 35.65 20.1 35.7 21.95C35.75 23.7 35.35 25.6501 34.6 27.4501C34.55 27.7001 34.5 28 34.45 28H35.25C37.65 23.5 36.6 18.95 35.4 16.1Z" fill="url(#paint13_linear_791_50)"/>
<path d="M7.09998 22.0501C7.09998 13.8501 13.75 7.1001 22 7.1001C30.25 7.1001 36.9 13.8001 36.9 22.0501C36.9 30.2501 30.25 36.9001 22 36.9001C13.75 36.9001 7.09998 30.2501 7.09998 22.0501ZM11.75 11.7501C9.09998 14.4001 7.44998 18.0501 7.44998 22.0501C7.44998 26.0501 9.09998 29.7001 11.7 32.3001C14.35 34.9001 18 36.5501 22 36.5501C26 36.5501 29.65 34.9501 32.25 32.3001C34.9 29.7001 36.5 26.0501 36.5 22.0501C36.5 18.0501 34.85 14.4001 32.25 11.7501C29.65 9.1001 26 7.4501 22 7.4501C18 7.4501 14.35 9.1001 11.75 11.7501Z" fill="#FBFBFB"/>
<path d="M9.94995 28.4L20.15 21.05C20.7 21.35 21.6 21.75 21.7 21.75C21.8 21.8 21.8 21.7 21.8 21.7L20.55 20.65C20.4 20.55 20.35 20.4 20.35 20.25L21.55 8.19995C21.5 8.24995 21.5 8.34995 21.45 8.39995C21.4 8.49995 21.4 8.54995 21.4 8.64995L19.65 20.7L10.05 28.25C9.99995 28.2999 9.94995 28.35 9.94995 28.4Z" fill="#333F47"/>
</g>
<defs>
<linearGradient id="paint0_linear_791_50" x1="9.99897" y1="11.9491" x2="34.001" y2="32.0511" gradientUnits="userSpaceOnUse">
<stop stop-color="white"/>
<stop offset="0.1" stop-color="#CDD0D0"/>
<stop offset="0.2" stop-color="#A5ACAF"/>
<stop offset="0.3" stop-color="#98A0A4"/>
<stop offset="0.4" stop-color="#828A8F"/>
<stop offset="0.5" stop-color="#667075"/>
<stop offset="0.6" stop-color="#535C63"/>
<stop offset="0.7" stop-color="#475158"/>
<stop offset="0.8" stop-color="#434D54"/>
<stop offset="1" stop-color="#475157"/>
</linearGradient>
<linearGradient id="paint1_linear_791_50" x1="10.7355" y1="12.5295" x2="33.2355" y2="31.4295" gradientUnits="userSpaceOnUse">
<stop stop-color="#0B1F2A"/>
<stop offset="0.2" stop-color="#333F47"/>
<stop offset="0.5" stop-color="#81898D"/>
<stop offset="0.7" stop-color="#B3B8B8"/>
<stop offset="0.8" stop-color="#DEE0DD"/>
<stop offset="1" stop-color="#FBFBFB"/>
</linearGradient>
<linearGradient id="paint2_linear_791_50" x1="27.4685" y1="37.0315" x2="16.5185" y2="6.932" gradientUnits="userSpaceOnUse">
<stop stop-color="#E1E3E1"/>
<stop offset="0.1" stop-color="#C1C5C4"/>
<stop offset="0.3" stop-color="#9BA1A2"/>
<stop offset="0.5" stop-color="#7D8487"/>
<stop offset="0.7" stop-color="#687074" stop-opacity="0"/>
<stop offset="0.8" stop-color="#5B6469" stop-opacity="0"/>
<stop offset="1" stop-color="#576065" stop-opacity="0"/>
</linearGradient>
<linearGradient id="paint3_linear_791_50" x1="15.1005" y1="10.0505" x2="28.8995" y2="33.9495" gradientUnits="userSpaceOnUse">
<stop stop-color="#E1E3E1"/>
<stop offset="0.1" stop-color="#C1C5C4"/>
<stop offset="0.3" stop-color="#9BA1A2"/>
<stop offset="0.5" stop-color="#7D8487"/>
<stop offset="0.7" stop-color="#687074" stop-opacity="0"/>
<stop offset="0.8" stop-color="#5B6469" stop-opacity="0"/>
<stop offset="1" stop-color="#576065" stop-opacity="0"/>
</linearGradient>
<linearGradient id="paint4_linear_791_50" x1="28.244" y1="25.6966" x2="27.394" y2="27.0966" gradientUnits="userSpaceOnUse">
<stop stop-color="#27343C"/>
<stop offset="1" stop-color="#00111E" stop-opacity="0"/>
</linearGradient>
<linearGradient id="paint5_linear_791_50" x1="25.7899" y1="20.556" x2="24.3899" y2="18.306" gradientUnits="userSpaceOnUse">
<stop offset="0.1" stop-color="#02131F"/>
<stop offset="0.9" stop-color="#02131F" stop-opacity="0"/>
</linearGradient>
<linearGradient id="paint6_linear_791_50" x1="21.991" y1="24.1681" x2="19.891" y2="24.7681" gradientUnits="userSpaceOnUse">
<stop offset="0.2" stop-color="#02131F"/>
<stop offset="0.9" stop-color="#02131F" stop-opacity="0"/>
</linearGradient>
<linearGradient id="paint7_linear_791_50" x1="16.3955" y1="26.952" x2="16.0955" y2="26.202" gradientUnits="userSpaceOnUse">
<stop stop-color="#02131F"/>
<stop offset="0.1" stop-color="#02131F"/>
<stop offset="1" stop-color="#02131F" stop-opacity="0"/>
</linearGradient>
<linearGradient id="paint8_linear_791_50" x1="23.801" y1="14.6071" x2="22.101" y2="14.8071" gradientUnits="userSpaceOnUse">
<stop offset="0.3" stop-color="#02131F"/>
<stop offset="0.8" stop-color="#02131F" stop-opacity="0"/>
</linearGradient>
<linearGradient id="paint9_linear_791_50" x1="23.854" y1="14.5786" x2="22.7035" y2="14.7286" gradientUnits="userSpaceOnUse">
<stop offset="0.4" stop-color="#27343C"/>
<stop offset="1" stop-color="#3B474E" stop-opacity="0"/>
</linearGradient>
<linearGradient id="paint10_linear_791_50" x1="5.81998" y1="22.4155" x2="19.77" y2="30.4655" gradientUnits="userSpaceOnUse">
<stop stop-color="#25323B" stop-opacity="0"/>
<stop offset="0.1" stop-color="#27343C"/>
</linearGradient>
<linearGradient id="paint11_linear_791_50" x1="21.975" y1="24.7" x2="21.975" y2="22.3" gradientUnits="userSpaceOnUse">
<stop offset="0.3" stop-color="#A5ABAF"/>
<stop offset="1" stop-color="#A5ABAF" stop-opacity="0"/>
</linearGradient>
<linearGradient id="paint12_linear_791_50" x1="29.825" y1="7.1499" x2="29.825" y2="37.6499" gradientUnits="userSpaceOnUse">
<stop stop-color="#6B7378"/>
<stop offset="0.2" stop-color="#333F47"/>
<stop offset="0.5" stop-color="#27343C"/>
<stop offset="0.8" stop-color="#333F47"/>
<stop offset="1" stop-color="#434D54"/>
</linearGradient>
<linearGradient id="paint13_linear_791_50" x1="34.6445" y1="10.0465" x2="27.8945" y2="19.9465" gradientUnits="userSpaceOnUse">
<stop offset="0.7" stop-color="#49545B"/>
<stop offset="0.8" stop-color="white" stop-opacity="0"/>
</linearGradient>
</defs>
</svg>
