<svg width="44" height="44" viewBox="0 0 44 44" fill="none" xmlns="http://www.w3.org/2000/svg">
<mask id="mask0_2660_3200" style="mask-type:alpha" maskUnits="userSpaceOnUse" x="0" y="0" width="44" height="44">
<rect width="44" height="44" fill="#D9D9D9"/>
</mask>
<g mask="url(#mask0_2660_3200)">
<path d="M0 13.4482C0 15.2754 0.98036 16.7342 2.28248 16.9331L2.89055 20.8998C2.90687 21.0061 2.96179 21.1033 3.04531 21.1735C3.12884 21.2437 3.23542 21.2823 3.34567 21.2823H3.3464L5.76739 30.1632L5.44177 30.6301C5.38844 30.7066 5.36061 30.7972 5.36209 30.8897C5.36357 30.9822 5.39429 31.072 5.45006 31.1468L11.0586 38.6711L11.0659 38.6806C11.7599 39.5652 12.1369 40.6477 12.1388 41.7617V43.551C12.1388 43.6701 12.1873 43.7843 12.2736 43.8685C12.3599 43.9527 12.4769 44 12.599 44H39.2168C39.3114 44 39.4036 43.9715 39.481 43.9185C39.5584 43.8654 39.6172 43.7904 39.6494 43.7037L39.788 43.3298C39.9305 43.3598 40.0758 43.3749 40.2215 43.3747C40.6175 43.3713 41.0059 43.269 41.3498 43.0775C42.0725 42.6841 42.6332 41.9538 42.8885 41.074C43.285 39.707 42.8279 38.3408 41.8577 37.7509L43.9724 32.0499C43.9949 31.9893 44.0038 31.9248 43.9985 31.8606C43.9932 31.7965 43.9738 31.7342 43.9416 31.6779C43.9094 31.6217 43.8652 31.5729 43.812 31.5348C43.7588 31.4968 43.6978 31.4703 43.6332 31.4572L36.2589 29.9649C36.1497 29.9428 36.0361 29.9601 35.9391 30.0136C35.842 30.0671 35.7682 30.1531 35.7312 30.2557L35.1012 32.0061C34.9528 31.7202 34.7724 31.4512 34.5634 31.204C34.2527 30.8532 33.8994 30.5405 33.5113 30.2728L33.8435 30.1534C34.034 30.0873 34.1926 29.9545 34.2884 29.7808C34.3842 29.6071 34.4105 29.4048 34.362 29.2133L32.3176 21.4046C32.4703 21.4111 32.6219 21.4313 32.7707 21.4649C32.8504 21.4834 32.9337 21.4807 33.012 21.4573C33.0903 21.4338 33.1608 21.3903 33.2161 21.3314C33.2715 21.2725 33.3097 21.2003 33.3269 21.1221C33.344 21.044 33.3395 20.9628 33.3137 20.8869L32.9947 19.9472L37.4722 18.639C37.6333 18.5919 37.7739 18.4941 37.8722 18.3609C37.9704 18.2276 38.0207 18.0665 38.0153 17.9024C38.0099 17.7384 37.9491 17.5807 37.8423 17.4539C37.7354 17.3271 37.5887 17.2383 37.4248 17.2014L32.0569 15.994C31.8452 15.3002 31.5492 14.6336 31.1752 14.0084L34.5109 8.67872C34.5153 8.6718 34.5194 8.66471 34.5233 8.65762C34.603 8.51351 34.6317 8.34776 34.605 8.18611C34.5782 8.02445 34.4976 7.87592 34.3755 7.76357C34.2534 7.65121 34.0967 7.58132 33.9297 7.56473C33.7628 7.54814 33.5949 7.58579 33.4521 7.67183L27.8901 11.001C27.4784 10.8019 27.0511 10.6351 26.6122 10.5021C26.5471 10.4823 26.4817 10.4648 26.4164 10.4464L24.9184 4.22014C24.9164 4.21149 24.9141 4.20292 24.9114 4.19446C24.8635 4.03747 24.7638 3.90032 24.6277 3.80433C24.4917 3.70834 24.327 3.65889 24.1592 3.66366C23.9914 3.66843 23.8299 3.72716 23.6998 3.83072C23.5697 3.93428 23.4784 4.07686 23.4399 4.2363L21.9422 10.322C21.7177 10.3721 21.4944 10.4306 21.2726 10.4975C20.8279 10.6313 20.395 10.7998 19.978 11.0014L14.4191 7.67479C14.2765 7.5877 14.1084 7.54909 13.9409 7.56497C13.7735 7.58085 13.6162 7.65033 13.4934 7.76258C13.3707 7.87483 13.2895 8.02354 13.2624 8.18554C13.2354 8.34753 13.2641 8.51371 13.3439 8.65815C13.3479 8.66534 13.352 8.67234 13.3563 8.67926L16.6919 14.0088C16.3178 14.634 16.0217 15.3007 15.81 15.9945L10.4424 17.2019C10.2785 17.2389 10.1318 17.3277 10.025 17.4545C9.91817 17.5813 9.85734 17.739 9.85194 17.903C9.84655 18.067 9.89689 18.2282 9.99512 18.3614C10.0934 18.4946 10.234 18.5924 10.3951 18.6396L14.8643 19.9453L14.5561 20.8528C14.5351 20.9143 14.528 20.9796 14.5354 21.044C14.5428 21.1085 14.5644 21.1706 14.5988 21.2261C14.6332 21.2816 14.6795 21.3292 14.7346 21.3655C14.7897 21.4018 14.8522 21.426 14.9178 21.4365L13.6416 25.8176L10.7004 24.1466L7.60451 14.0645L8.00762 9.9594H8.10408C8.22612 9.9594 8.34317 9.91209 8.42947 9.82789C8.51577 9.74369 8.56425 9.62949 8.56425 9.51041V7.42229C8.56425 7.30321 8.51577 7.18901 8.42947 7.10481C8.34317 7.02061 8.22612 6.9733 8.10408 6.9733H7.52481C7.8494 6.5178 8.06363 5.99628 8.15133 5.44814C8.23902 4.9 8.19787 4.33958 8.031 3.80923C8.00536 3.72546 7.95527 3.65079 7.88684 3.59434C7.81842 3.53789 7.73462 3.50211 7.64569 3.49137C7.55677 3.48063 7.46656 3.49539 7.38609 3.53385C7.30561 3.57231 7.23837 3.6328 7.19256 3.70794C7.13031 3.80929 7.03696 3.88897 6.92574 3.93571C6.81451 3.98244 6.69104 3.99386 6.57279 3.96835C6.45006 3.94544 6.33772 3.88572 6.25144 3.79752C6.16517 3.70932 6.10927 3.59704 6.09154 3.47636C5.8656 2.08559 5.17192 0.357095 5.14247 0.28418C5.11405 0.213914 5.06793 0.151779 5.00836 0.103529C4.94879 0.0552787 4.8777 0.0224724 4.80169 0.00814732C4.72567 -0.00617773 4.64718 -0.0015584 4.57347 0.0215777C4.49977 0.0447138 4.43325 0.0856188 4.38005 0.140505C2.33678 2.24785 1.42765 4.1193 1.67845 5.70241C1.74886 6.1588 1.92514 6.59347 2.19385 6.9733H1.025C0.902951 6.9733 0.785903 7.02061 0.699603 7.10481C0.613304 7.18901 0.564821 7.30321 0.564821 7.42229V9.51041C0.564821 9.62949 0.613304 9.74369 0.699603 9.82789C0.785903 9.91209 0.902951 9.9594 1.025 9.9594H1.21303L1.28141 10.4053C0.5096 11.006 0 12.1312 0 13.4482ZM3.20163 16.8604C4.34628 16.4955 5.1745 15.1274 5.1745 13.4482C5.1745 11.61 4.18245 10.1443 2.86902 9.9594H7.08304L6.68038 14.0599V14.0613L6.05933 20.3843H3.74188L3.20163 16.8604ZM21.4957 43.102L27.5277 33.13L29.0067 33.432C29.3222 33.4964 29.6437 33.5287 29.9661 33.5286C30.5206 33.5282 31.0709 33.4334 31.592 33.2485L28.3871 43.102H21.4957ZM18.6824 22.7787V20.9043C19.5223 20.5092 20.491 19.8027 21.6388 18.5487C21.8526 18.4972 22.0602 18.4236 22.2581 18.3291C23.1416 17.9062 23.7927 17.0871 24.2047 15.8852C24.6858 17.5397 25.5485 18.3084 26.3472 18.6549C27.708 20.1366 28.7296 20.8474 29.6254 21.173V22.7787C29.6254 24.1946 29.049 25.5524 28.0229 26.5536C26.9968 27.5547 25.6051 28.1171 24.1539 28.1171C22.7028 28.1171 21.3111 27.5547 20.285 26.5536C19.2589 25.5524 18.6824 24.1946 18.6824 22.7787ZM20.0968 27.6032L19.6467 29.3326C19.2808 29.0708 18.9088 28.8333 18.545 28.6143L18.7919 26.173C19.1496 26.7118 19.5896 27.1941 20.0968 27.6032ZM19.3432 17.4456C19.7492 16.6609 20.3515 15.9889 21.0942 15.4915C21.837 14.9941 22.6963 14.6875 23.5927 14.5999C23.2982 16.1244 22.7162 17.1071 21.8571 17.521C20.9437 17.9608 19.8922 17.6634 19.3432 17.4456ZM24.8717 14.6213C25.7687 14.7385 26.6204 15.0762 27.3469 15.6027C28.0734 16.1291 28.651 16.827 29.0253 17.6309C28.7244 17.8185 28.3862 17.9419 28.033 17.993C27.6798 18.044 27.3195 18.0216 26.9757 17.9272C25.8692 17.5988 25.1475 16.4599 24.8713 14.6212L24.8717 14.6213ZM20.9028 28.155C21.8867 28.7256 23.0101 29.0267 24.1547 29.0266C25.2993 29.0265 26.4226 28.7251 27.4064 28.1543L28.5152 32.4142L21.4285 30.9663C21.1286 30.6001 20.7962 30.2604 20.4352 29.9511L20.9028 28.155ZM29.3018 31.7881L32.4133 30.6686C32.7193 30.8228 33.0068 31.0095 33.2708 31.2254L32.1037 31.9955C31.343 32.4944 30.424 32.7102 29.514 32.6035L29.3018 31.7881ZM42.0027 40.8299C41.8163 41.4726 41.4045 42.0199 40.9011 42.2936C40.7544 42.3797 40.5917 42.4366 40.4224 42.461C40.2531 42.4854 40.0805 42.4768 39.9145 42.4358C39.0862 42.2061 38.6754 41.1115 38.999 39.9959C39.1854 39.3532 39.5973 38.8059 40.1006 38.5322C40.3065 38.4159 40.5392 38.3525 40.7771 38.3478C40.882 38.3478 40.9864 38.3619 41.0873 38.3899C41.9163 38.6197 42.3268 39.7142 42.0031 40.8302L42.0027 40.8299ZM35.3427 35.4938C35.5781 34.8373 35.6519 34.136 35.5578 33.4465L36.4657 30.9247L42.9257 32.2321L40.9867 37.4614C40.5225 37.4214 40.057 37.5215 39.653 37.748C38.9304 38.1415 38.3695 38.8718 38.1143 39.7516C37.745 41.025 38.1164 42.2976 38.9534 42.9429L38.8939 43.102H32.5987L35.3427 35.4938ZM33.9305 31.8737C34.2964 32.34 34.5378 32.8877 34.6328 33.4676C34.7278 34.0475 34.6734 34.6414 34.4746 35.1957L31.6228 43.102H29.3523L32.7517 32.6517L33.9305 31.8737ZM33.4446 29.3403L29.0737 30.913L28.2119 27.6022C28.9419 27.0163 29.5297 26.2799 29.9332 25.4459C30.3367 24.6119 30.5458 23.701 30.5454 22.7787V21.3927C30.82 21.4241 31.0966 21.4355 31.3729 21.4268L33.4446 29.3403ZM32.3728 17.4472C32.3536 17.2875 32.329 17.1285 32.2991 16.9704L36.6371 17.9462L32.7052 19.0949L32.2789 17.8394C32.356 17.7233 32.3892 17.5846 32.3728 17.4472ZM32.2136 20.503C32.0078 20.4997 31.8087 20.5095 31.6126 20.5191C30.66 20.5654 29.6786 20.6123 27.8727 18.9112C28.674 18.8587 29.3837 18.5405 29.7791 18.1894L31.4064 18.1258L32.2136 20.503ZM33.3741 8.77282L30.6102 13.1891C30.1019 12.5381 29.4881 11.9724 28.7931 11.5142L33.3741 8.77282ZM24.1793 5.07788L25.4176 10.2246C24.5954 10.0888 23.7577 10.0664 22.9291 10.1578L24.1793 5.07788ZM14.4928 8.77282L19.0745 11.5146C18.3793 11.9726 17.7653 12.5382 17.2567 13.1891L14.4928 8.77282ZM21.5452 11.3554C23.1058 10.8806 24.7778 10.8819 26.3376 11.3592C30.2547 12.5535 31.196 15.9807 31.4112 17.2271L29.8761 17.2872C29.3801 16.2167 28.5799 15.3075 27.5703 14.6673C26.5608 14.0271 25.3843 13.6827 24.1803 13.6749C22.9763 13.6672 21.7953 13.9964 20.7772 14.6236C19.7591 15.2508 18.9466 16.1496 18.4361 17.2135H16.4578C16.6774 15.9554 17.6282 12.5408 21.5452 11.3554ZM16.4564 18.1117H18.6199C19.1486 18.3718 19.7186 18.5428 20.3058 18.6175C18.331 20.5247 17.079 20.5143 15.9606 20.5043C15.8537 20.5033 15.7484 20.5022 15.6444 20.5029L16.4564 18.1117ZM18.0296 24.565L17.6714 28.1074L17.5941 28.0634L16.3991 27.3845L17.3961 21.3169C17.5151 21.2959 17.6371 21.2695 17.7621 21.2377V22.7788C17.762 23.3837 17.8521 23.9853 18.0296 24.5649V24.565ZM11.2301 17.9464L15.5678 16.9708C15.5377 17.1286 15.5132 17.2873 15.4941 17.4467C15.4782 17.5806 15.5094 17.7158 15.5826 17.8302L15.1538 19.093L11.2301 17.9464ZM15.8846 21.4017H15.9517C16.1128 21.4032 16.2787 21.4045 16.45 21.4017L15.5466 26.9001L14.4622 26.284L15.8846 21.4017ZM16.7787 28.6393L13.9711 32.6263C13.9359 32.6748 13.9108 32.7298 13.8975 32.7878C13.8841 32.8459 13.8828 32.906 13.8934 32.9646C13.9041 33.0232 13.9267 33.0792 13.9597 33.1292C13.9928 33.1793 14.0357 33.2224 14.086 33.2561C14.1363 33.2898 14.1929 33.3134 14.2527 33.3256C14.3124 33.3377 14.374 33.3381 14.4339 33.3268C14.4938 33.3155 14.5508 33.2927 14.6016 33.2597C14.6524 33.2267 14.6959 33.1842 14.7297 33.1346L17.5756 29.0931C19.3802 30.1321 21.4262 31.4746 21.8676 34.0716C21.8876 34.189 21.9545 34.294 22.0538 34.3633C22.1531 34.4326 22.2765 34.4606 22.3969 34.4411C22.5173 34.4216 22.6248 34.3562 22.6959 34.2594C22.7669 34.1625 22.7956 34.0421 22.7756 33.9247C22.6657 33.2635 22.4494 32.6234 22.1347 32.0281L26.5765 32.9355L20.427 43.102H13.8327L19.164 38.1363C19.2512 38.0538 19.3015 37.941 19.3038 37.8226C19.3062 37.7041 19.2604 37.5895 19.1765 37.5038C19.0927 37.4181 18.9774 37.3682 18.856 37.365C18.7346 37.3619 18.6168 37.4057 18.5284 37.4869L13.0589 42.5812V41.7613C13.0582 41.2532 12.9907 40.7473 12.8581 40.2559L14.5431 37.9458C14.5782 37.8978 14.6032 37.8435 14.6167 37.786C14.6303 37.7286 14.6321 37.6691 14.6221 37.6109C14.612 37.5528 14.5904 37.4971 14.5583 37.4471C14.5262 37.3972 14.4844 37.3538 14.4351 37.3196C14.3859 37.2854 14.3303 37.261 14.2714 37.2478C14.2125 37.2346 14.1515 37.2328 14.0919 37.2426C14.0323 37.2524 13.9752 37.2736 13.924 37.3049C13.8728 37.3361 13.8284 37.377 13.7933 37.425L12.4772 39.2292C12.2921 38.8425 12.0648 38.4765 11.799 38.1375L9.44623 34.9819L11.6856 31.772C11.7543 31.6736 11.7801 31.5526 11.7573 31.4356C11.7345 31.3186 11.665 31.2152 11.5641 31.1482C11.4633 31.0812 11.3392 31.0561 11.2193 31.0783C11.0994 31.1005 10.9935 31.1683 10.9248 31.2668L8.87156 34.2104L6.38458 30.8739L10.4507 25.044L16.7787 28.6393ZM9.80793 24.3697L6.45186 29.1812L4.29823 21.2823H6.47754C6.59198 21.2823 6.70232 21.2407 6.78701 21.1656C6.8717 21.0905 6.92468 20.9873 6.9356 20.8761L7.37166 16.4353L9.80793 24.3697ZM4.54277 1.30175C4.76025 1.9174 5.05633 2.83979 5.18251 3.61698C5.21824 3.83967 5.30521 4.05156 5.4369 4.23675C5.5686 4.42194 5.74158 4.57561 5.94287 4.68623C6.14416 4.79684 6.36853 4.86151 6.59911 4.87539C6.82969 4.88927 7.06049 4.852 7.2742 4.76637C7.33862 5.96121 6.59387 6.72529 6.30782 6.9733H3.4528C3.21807 6.80408 3.02038 6.59079 2.87132 6.34598C2.72226 6.10116 2.62485 5.82975 2.58481 5.54769C2.41252 4.39973 3.08769 2.94027 4.54277 1.30175ZM1.48517 7.87127H7.6439V9.06143H1.48517V7.87127ZM2.30539 9.9594C2.25238 9.96685 2.20001 9.97691 2.1481 9.98849L2.14359 9.9594H2.30539ZM2.5872 10.8372C3.49081 10.8372 4.25415 12.0329 4.25415 13.4482C4.25415 14.8635 3.49081 16.0591 2.5872 16.0591C1.6836 16.0591 0.920353 14.8635 0.920353 13.4482C0.920353 12.0329 1.68369 10.8372 2.5872 10.8372Z" fill="#5E5E5E"/>
</g>
</svg>
