<svg width="44" height="44" viewBox="0 0 44 44" fill="none" xmlns="http://www.w3.org/2000/svg">
<mask id="mask0_2660_3185" style="mask-type:alpha" maskUnits="userSpaceOnUse" x="0" y="0" width="44" height="44">
<rect width="44" height="44" fill="#D9D9D9"/>
</mask>
<g mask="url(#mask0_2660_3185)">
<path d="M44 36.6483C44 34.893 42.5716 33.4651 40.8164 33.4651C39.0611 33.4651 37.6327 34.893 37.6327 36.6483C37.6327 38.216 38.7728 39.5192 40.2663 39.7811V42.8992H36.1687V15.5715C36.1687 15.4256 36.1107 15.2857 36.0076 15.1826C35.9045 15.0794 35.7646 15.0214 35.6187 15.0214H35.3282V11.2523C35.3282 11.1801 35.314 11.1086 35.2863 11.0419C35.2587 10.9752 35.2181 10.9146 35.167 10.8635C35.116 10.8125 35.0553 10.772 34.9886 10.7444C34.9218 10.7168 34.8503 10.7026 34.7781 10.7027H25.2412C25.1689 10.7026 25.0974 10.7168 25.0307 10.7444C24.964 10.772 24.9033 10.8125 24.8522 10.8635C24.8012 10.9146 24.7606 10.9752 24.733 11.0419C24.7053 11.1086 24.6911 11.1801 24.6911 11.2523V15.0213H24.281C24.1352 15.0213 23.9953 15.0793 23.8922 15.1824C23.789 15.2856 23.7311 15.4254 23.731 15.5713V42.8992H21.6068V30.1915C21.6068 30.1911 21.6072 30.1908 21.6072 30.1903C21.6072 30.1899 21.6068 30.1895 21.6068 30.1891V0.549755C21.6068 0.361768 21.5115 0.187208 21.3533 0.0861252C21.2753 0.0366636 21.1862 0.00749017 21.0941 0.00126121C21.002 -0.00496775 20.9097 0.0119456 20.8258 0.0504614L8.15015 5.91705C8.05488 5.96108 7.97419 6.03145 7.9176 6.11984C7.86102 6.20823 7.83089 6.31096 7.83078 6.41591V42.8993H3.73342V39.7811C5.22722 39.5192 6.36696 38.216 6.36696 36.6483C6.36696 34.893 4.93901 33.4651 3.18375 33.4651C1.42849 33.4651 0.000107421 34.893 0.000107421 36.6483C0.000107421 38.216 1.13985 39.5192 2.63364 39.7811V42.8992H0.550103C0.404207 42.8992 0.264286 42.9572 0.161122 43.0604C0.0579572 43.1635 0 43.3034 0 43.4493C0 43.5952 0.0579572 43.7352 0.161122 43.8383C0.264286 43.9415 0.404207 43.9994 0.550103 43.9994H43.4498C43.5957 43.9994 43.7356 43.9415 43.8388 43.8383C43.9419 43.7352 43.9999 43.5952 43.9999 43.4493C43.9999 43.3034 43.9419 43.1635 43.8388 43.0604C43.7356 42.9572 43.5957 42.8992 43.4498 42.8992H41.3664V39.7812C42.8597 39.5193 43.9999 38.2161 43.9999 36.6484L44 36.6483ZM1.09988 36.6483C1.09988 35.4997 2.03477 34.5649 3.18375 34.5649C4.33219 34.5649 5.26707 35.4997 5.26707 36.6483C5.26707 37.7972 4.33219 38.732 3.18375 38.732C2.03477 38.732 1.09988 37.7972 1.09988 36.6483ZM35.0689 16.1212V31.012H24.8311V16.1212H35.0689ZM25.7913 11.8025H34.2284V15.0214H25.7913V11.8025ZM24.8311 32.1118H35.0689V42.8992H33.3287V37.4065C33.3287 37.2606 33.2707 37.1207 33.1676 37.0176C33.0644 36.9145 32.9245 36.8565 32.7787 36.8565H27.2028C27.0569 36.8565 26.917 36.9145 26.8139 37.0176C26.7108 37.1207 26.6528 37.2606 26.6528 37.4065V42.8992H24.8311V32.1118ZM32.2286 42.8992H27.7529V37.9567H32.2286V42.8992ZM20.507 1.41041V29.6404H8.9312V6.7675L20.507 1.41041ZM8.9312 30.7401H20.507V42.8992H18.1325V37.4065C18.1324 37.2606 18.0745 37.1207 17.9713 37.0176C17.8681 36.9144 17.7282 36.8565 17.5824 36.8565H11.8559C11.71 36.8565 11.5701 36.9145 11.467 37.0176C11.3638 37.1207 11.3059 37.2606 11.3059 37.4065V42.8992H8.9311L8.9312 30.7401ZM17.0323 42.8992H12.406V37.9567H17.0323V42.8992ZM38.7329 36.6483C38.7329 35.4997 39.6675 34.5649 40.8164 34.5649C41.9652 34.5649 42.8997 35.4997 42.8997 36.6483C42.8997 37.7972 41.9652 38.732 40.8164 38.732C39.6675 38.732 38.7329 37.7972 38.7329 36.6483Z" fill="#5E5E5E"/>
<path d="M11.7631 27.1563C11.9089 27.1562 12.0488 27.0982 12.1519 26.995C12.2549 26.8919 12.3128 26.752 12.3128 26.6062V24.7048C12.3099 24.5609 12.2508 24.4238 12.1479 24.323C12.0451 24.2222 11.9069 24.1657 11.7629 24.1657C11.6189 24.1657 11.4807 24.2222 11.3779 24.323C11.275 24.4238 11.2159 24.5609 11.213 24.7048V26.6062C11.213 26.752 11.271 26.8919 11.3741 26.9951C11.4773 27.0982 11.6171 27.1561 11.763 27.1562L11.7631 27.1563ZM14.7192 27.1563C14.7915 27.1563 14.863 27.1421 14.9297 27.1144C14.9964 27.0868 15.057 27.0462 15.1081 26.9951C15.1592 26.9441 15.1997 26.8834 15.2273 26.8167C15.2549 26.7499 15.2691 26.6784 15.269 26.6062V24.7048C15.269 24.6326 15.2548 24.5611 15.2272 24.4944C15.1995 24.4278 15.159 24.3672 15.108 24.3161C15.0569 24.2651 14.9963 24.2246 14.9296 24.197C14.8629 24.1693 14.7914 24.1551 14.7192 24.1552C14.5734 24.1552 14.4336 24.2131 14.3304 24.3161C14.2273 24.4192 14.1693 24.559 14.1692 24.7048V26.6062C14.1693 26.752 14.2272 26.8919 14.3304 26.9951C14.4335 27.0982 14.5734 27.1561 14.7192 27.1562V27.1563ZM17.6755 27.1563C17.8214 27.1563 17.9613 27.0983 18.0644 26.9952C18.1676 26.892 18.2256 26.7521 18.2256 26.6062V24.7048C18.2256 24.4015 17.9793 24.1552 17.6755 24.1552C17.3717 24.1552 17.1254 24.4015 17.1254 24.7048V26.6062C17.1254 26.7521 17.1834 26.892 17.2865 26.9951C17.3897 27.0982 17.5296 27.1562 17.6755 27.1562V27.1563ZM11.7631 22.1142C11.9089 22.1142 12.0487 22.0562 12.1518 21.9532C12.2549 21.8501 12.3128 21.7103 12.3128 21.5645V19.6628C12.3099 19.5188 12.2508 19.3817 12.1479 19.2809C12.0451 19.1801 11.9069 19.1237 11.7629 19.1237C11.6189 19.1237 11.4807 19.1801 11.3779 19.2809C11.275 19.3817 11.2159 19.5188 11.213 19.6628V21.5645C11.213 21.6367 11.2273 21.7082 11.2549 21.7749C11.2826 21.8416 11.3231 21.9022 11.3742 21.9532C11.4252 22.0043 11.4859 22.0448 11.5526 22.0724C11.6193 22.1 11.6909 22.1142 11.7631 22.1142ZM14.7192 22.1142C14.7914 22.1142 14.8629 22.1 14.9297 22.0724C14.9964 22.0448 15.057 22.0043 15.108 21.9533C15.1591 21.9022 15.1996 21.8416 15.2272 21.7749C15.2548 21.7082 15.269 21.6367 15.269 21.5645V19.6628C15.269 19.5906 15.2548 19.5191 15.2272 19.4524C15.1995 19.3857 15.159 19.3251 15.108 19.2741C15.0569 19.223 14.9963 19.1826 14.9296 19.1549C14.8629 19.1273 14.7914 19.1131 14.7192 19.1131C14.5734 19.1131 14.4336 19.171 14.3304 19.2741C14.2273 19.3772 14.1693 19.517 14.1692 19.6628V21.5645C14.1693 21.6367 14.1835 21.7082 14.2111 21.7749C14.2388 21.8416 14.2793 21.9022 14.3304 21.9532C14.3815 22.0043 14.4421 22.0448 14.5088 22.0724C14.5755 22.1 14.647 22.1142 14.7192 22.1142ZM17.6755 22.1142C17.7477 22.1142 17.8192 22.1 17.8859 22.0724C17.9527 22.0448 18.0133 22.0043 18.0644 21.9533C18.1155 21.9022 18.156 21.8416 18.1837 21.7749C18.2113 21.7082 18.2256 21.6367 18.2256 21.5645V19.6628C18.2256 19.3594 17.9793 19.1131 17.6755 19.1131C17.3717 19.1131 17.1254 19.3594 17.1254 19.6628V21.5645C17.1254 21.6367 17.1396 21.7082 17.1673 21.7749C17.1949 21.8416 17.2355 21.9022 17.2865 21.9533C17.3376 22.0043 17.3983 22.0448 17.465 22.0724C17.5317 22.1 17.6032 22.1142 17.6755 22.1142ZM11.7631 17.0726C11.909 17.0725 12.0488 17.0145 12.1519 16.9113C12.255 16.8081 12.3128 16.6682 12.3128 16.5223V14.6211C12.3128 14.4753 12.2549 14.3354 12.1518 14.2323C12.0487 14.1292 11.9089 14.0712 11.7631 14.0711C11.6172 14.0711 11.4773 14.129 11.3742 14.2322C11.271 14.3353 11.213 14.4752 11.213 14.6211V16.5225C11.213 16.6683 11.271 16.8082 11.3741 16.9113C11.4773 17.0145 11.6171 17.0724 11.763 17.0725L11.7631 17.0726ZM14.7192 17.0726C14.7915 17.0726 14.863 17.0583 14.9297 17.0307C14.9965 17.003 15.0571 16.9625 15.1081 16.9114C15.1592 16.8603 15.1997 16.7996 15.2273 16.7329C15.2549 16.6661 15.2691 16.5946 15.269 16.5223V14.6211C15.269 14.5489 15.2548 14.4774 15.2272 14.4106C15.1995 14.3439 15.159 14.2833 15.1079 14.2322C15.0569 14.1812 14.9963 14.1407 14.9295 14.113C14.8628 14.0854 14.7913 14.0712 14.7191 14.0712C14.6469 14.0712 14.5753 14.0854 14.5086 14.113C14.4419 14.1407 14.3813 14.1812 14.3302 14.2322C14.2791 14.2833 14.2386 14.3439 14.211 14.4106C14.1834 14.4774 14.1691 14.5489 14.1691 14.6211V16.5225C14.1692 16.6683 14.2271 16.8082 14.3303 16.9114C14.4335 17.0145 14.5734 17.0725 14.7192 17.0725V17.0726ZM17.6755 17.0726C17.7477 17.0726 17.8193 17.0583 17.886 17.0307C17.9528 17.003 18.0134 16.9625 18.0645 16.9114C18.1156 16.8603 18.1561 16.7997 18.1837 16.7329C18.2114 16.6661 18.2256 16.5946 18.2256 16.5223V14.6211C18.2256 14.4752 18.1676 14.3353 18.0644 14.2321C17.9613 14.129 17.8214 14.071 17.6755 14.071C17.5296 14.071 17.3896 14.129 17.2865 14.2321C17.1833 14.3353 17.1254 14.4752 17.1254 14.6211V16.5225C17.1254 16.6683 17.1834 16.8082 17.2865 16.9114C17.3897 17.0145 17.5296 17.0725 17.6755 17.0725V17.0726ZM11.7631 12.0309C11.9089 12.0308 12.0488 11.9728 12.1519 11.8696C12.2549 11.7665 12.3128 11.6266 12.3128 11.4808V9.5794C12.3128 9.43359 12.2549 9.29374 12.1518 9.19061C12.0487 9.08747 11.9089 9.02949 11.7631 9.0294C11.6172 9.0294 11.4773 9.08735 11.3742 9.19049C11.271 9.29363 11.213 9.43352 11.213 9.5794V11.4808C11.213 11.6266 11.271 11.7665 11.3741 11.8697C11.4772 11.9729 11.6172 12.0308 11.7631 12.0309ZM14.7192 12.0309C14.7915 12.0309 14.863 12.0166 14.9297 11.989C14.9964 11.9613 15.057 11.9208 15.1081 11.8697C15.1592 11.8186 15.1997 11.758 15.2273 11.6912C15.2549 11.6245 15.2691 11.553 15.269 11.4808V9.5794C15.269 9.50718 15.2548 9.43567 15.2272 9.36895C15.1995 9.30222 15.159 9.2416 15.1079 9.19053C15.0569 9.13947 14.9963 9.09896 14.9295 9.07132C14.8628 9.04368 14.7913 9.02946 14.7191 9.02946C14.6469 9.02946 14.5753 9.04368 14.5086 9.07132C14.4419 9.09896 14.3813 9.13947 14.3302 9.19053C14.2791 9.2416 14.2386 9.30222 14.211 9.36895C14.1834 9.43567 14.1691 9.50718 14.1691 9.5794V11.4808C14.1691 11.6266 14.2271 11.7666 14.3303 11.8697C14.4334 11.9729 14.5733 12.0309 14.7192 12.0309ZM17.6755 12.0309C17.8214 12.0309 17.9613 11.9729 18.0644 11.8697C18.1676 11.7666 18.2256 11.6266 18.2256 11.4808V9.5794C18.2256 9.4335 18.1676 9.29358 18.0644 9.19042C17.9613 9.08725 17.8214 9.0293 17.6755 9.0293C17.5296 9.0293 17.3896 9.08725 17.2865 9.19042C17.1833 9.29358 17.1254 9.4335 17.1254 9.5794V11.4808C17.1254 11.6266 17.1833 11.7666 17.2865 11.8697C17.3896 11.9729 17.5296 12.0309 17.6755 12.0309ZM27.121 27.4504C27.2669 27.4504 27.4068 27.3924 27.5099 27.2892C27.6131 27.1861 27.671 27.0462 27.671 26.9003V25.0808C27.669 24.9362 27.6101 24.7983 27.5072 24.6968C27.4043 24.5953 27.2655 24.5384 27.1209 24.5384C26.9764 24.5384 26.8376 24.5953 26.7347 24.6968C26.6318 24.7983 26.5729 24.9362 26.5709 25.0808V26.9003C26.5709 27.0462 26.6289 27.186 26.732 27.2892C26.8352 27.3923 26.975 27.4503 27.1209 27.4503L27.121 27.4504ZM29.95 27.4504C30.0223 27.4504 30.0938 27.4361 30.1605 27.4085C30.2272 27.3808 30.2878 27.3403 30.3388 27.2892C30.3899 27.2381 30.4304 27.1775 30.458 27.1108C30.4856 27.044 30.4998 26.9725 30.4997 26.9003V25.0808C30.4997 24.935 30.4418 24.7951 30.3387 24.692C30.2355 24.5888 30.0957 24.5309 29.9498 24.5309C29.804 24.5309 29.6641 24.5888 29.561 24.692C29.4579 24.7951 29.3999 24.935 29.3999 25.0808V26.9003C29.4 27.0462 29.4579 27.186 29.5611 27.2892C29.6642 27.3923 29.8041 27.4503 29.9499 27.4503L29.95 27.4504ZM32.7786 27.4504C32.8508 27.4504 32.9223 27.4362 32.9891 27.4086C33.0559 27.3809 33.1165 27.3404 33.1676 27.2893C33.2187 27.2382 33.2592 27.1776 33.2869 27.1108C33.3145 27.0441 33.3288 26.9725 33.3288 26.9003V25.0808C33.3288 24.9349 33.2708 24.795 33.1676 24.6918C33.0645 24.5887 32.9246 24.5307 32.7787 24.5307C32.6328 24.5307 32.4928 24.5887 32.3897 24.6918C32.2865 24.795 32.2286 24.9349 32.2286 25.0808V26.9003C32.2286 27.0462 32.2865 27.186 32.3897 27.2892C32.4928 27.3923 32.6327 27.4504 32.7786 27.4504ZM27.121 22.6253C27.2668 22.6253 27.4067 22.5674 27.5098 22.4643C27.6129 22.3612 27.6709 22.2214 27.671 22.0756V20.2561C27.671 19.9523 27.4248 19.7064 27.121 19.7064C26.8172 19.7064 26.5709 19.9524 26.5709 20.2561V22.0756C26.571 22.2214 26.629 22.3612 26.7321 22.4643C26.8352 22.5674 26.9751 22.6253 27.1209 22.6253H27.121ZM29.95 22.6253C30.0222 22.6253 30.0937 22.611 30.1604 22.5834C30.2271 22.5558 30.2877 22.5153 30.3387 22.4643C30.3898 22.4132 30.4303 22.3526 30.4579 22.2859C30.4855 22.2192 30.4997 22.1478 30.4997 22.0756V20.2561C30.4997 19.9523 30.2537 19.7064 29.95 19.7064C29.6464 19.7064 29.3999 19.9524 29.3999 20.2561V22.0756C29.4 22.2214 29.458 22.3612 29.5611 22.4643C29.6643 22.5674 29.8042 22.6253 29.95 22.6253ZM32.7786 22.6253C32.9244 22.6253 33.0643 22.5674 33.1675 22.4644C33.2707 22.3613 33.3287 22.2214 33.3288 22.0756V20.2561C33.3288 19.9523 33.0824 19.7064 32.7787 19.7064C32.4749 19.7064 32.2286 19.9524 32.2286 20.2561V22.0756C32.2286 22.2214 32.2866 22.3612 32.3898 22.4643C32.4929 22.5674 32.6327 22.6253 32.7786 22.6253Z" fill="#5E5E5E"/>
</g>
</svg>
