<svg width="36" height="36" viewBox="0 0 36 36" fill="none" xmlns="http://www.w3.org/2000/svg">
<mask id="mask0_807_23" style="mask-type:alpha" maskUnits="userSpaceOnUse" x="0" y="0" width="36" height="36">
<rect width="36" height="36" fill="#D9D9D9"/>
</mask>
<g mask="url(#mask0_807_23)">
<path d="M30 6.35639V3C29.9979 1.344 28.656 0.002112 27 0H3C1.344 0.002112 0.002112 1.344 0 3V16.2C0.0046464 17.7322 1.16609 19.0137 2.69042 19.1691L4.94581 25.0237C5.54162 26.5697 7.27768 27.3398 8.82374 26.7447L22.908 21.3192C21.9348 23.8613 22.2117 26.7129 23.6553 29.0203L24 29.5716V35.4C24 35.7315 24.2685 36 24.6 36H35.4C35.7315 36 36 35.7315 36 35.4V15.5947C35.9945 13.5199 35.1681 11.5317 33.7013 10.0643L30 6.35639ZM30 9.94472L31.821 14.6718C32.1779 15.5997 31.7154 16.6408 30.7877 16.998L29.7468 17.4C29.9129 17.0217 29.9991 16.6132 30 16.2V9.94472ZM1.2 16.2V3C1.2 2.00609 2.00609 1.2 3 1.2H27C27.9939 1.2 28.8 2.00609 28.8 3V6.81362H28.7947L28.8 6.82725V16.2C28.7953 16.3046 28.7817 16.4086 28.7592 16.5108L23.2632 11.0142C22.0278 9.80732 20.0583 9.79799 18.8118 10.9923C17.565 12.1873 17.4902 14.1553 18.6432 15.4408L20.9862 18H3C2.00609 18 1.2 17.1939 1.2 16.2ZM8.88661 19.2L4.61998 20.8426L3.98884 19.2H8.88661ZM8.39221 25.6247C7.46461 25.9822 6.42286 25.5198 6.0654 24.5922L5.05317 21.96L12.2154 19.2V19.1964H22.086L22.8659 20.0466L8.39221 25.6247ZM34.8 34.8H25.2V30H34.8V34.8ZM34.8 28.8H24.933L24.6728 28.3842C23.2098 26.0463 23.1516 23.0934 24.5208 20.7C24.584 20.5896 24.6104 20.462 24.5963 20.3356C24.5821 20.2092 24.5282 20.0905 24.4422 19.9968L19.5254 14.6328C18.7922 13.8303 18.8334 12.5896 19.6184 11.838C20.4036 11.0862 21.6449 11.0985 22.4147 11.8653L31.9758 21.4242L32.8242 20.5758L30.6042 18.3558L31.2198 18.1158C32.7645 17.5198 33.5343 15.7852 32.94 14.2396L30.9092 8.96625L32.8529 10.914C34.095 12.1556 34.795 13.8385 34.8 15.5947V28.8Z" fill="#13141A"/>
<path d="M6.83996 8.3999C7.70158 8.3999 8.39996 7.70148 8.39996 6.8399V3.9599C8.39996 3.09828 7.70154 2.3999 6.83996 2.3999H3.95996C3.09834 2.3999 2.39996 3.09832 2.39996 3.9599V6.8399C2.39996 7.70152 3.09838 8.3999 3.95996 8.3999H6.83996ZM3.59996 6.8399V5.9999H4.79996V4.7999H3.59996V3.9599C3.59996 3.76114 3.76124 3.5999 3.95996 3.5999H6.83996C7.03872 3.5999 7.19996 3.76118 7.19996 3.9599V4.7999H5.99996V5.9999H7.19996V6.8399C7.19996 7.03866 7.03868 7.1999 6.83996 7.1999H3.95996C3.7612 7.1999 3.59996 7.03862 3.59996 6.8399ZM2.99996 10.1999H5.39996V11.3999H2.99996V10.1999ZM2.99996 13.7999H5.39996V14.9999H2.99996V13.7999ZM13.8 13.7999H16.2V14.9999H13.8V13.7999ZM6.59996 10.1999H8.99996V11.3999H6.59996V10.1999ZM10.2 10.1999H12.6V11.3999H10.2V10.1999ZM13.8 10.1999H16.2V11.3999H13.8V10.1999ZM25.2 2.9999H26.4V4.7999H25.2V2.9999ZM22.8 2.9999H24V4.7999H22.8V2.9999ZM20.4 2.9999H21.6V4.7999H20.4V2.9999ZM18 2.9999H19.2V4.7999H18V2.9999ZM26.4 31.1999H27.6V32.3999H26.4V31.1999Z" fill="#13141A"/>
</g>
</svg>
