<svg width="14" height="11" viewBox="0 0 14 11" fill="none" xmlns="http://www.w3.org/2000/svg">
<path d="M0.857423 7.86809L0.00577865 2.22379C-0.0572197 1.80696 0.408502 1.52242 0.73936 1.77556L3.39276 3.8045C3.46173 3.85718 3.5405 3.89498 3.62428 3.91558C3.70805 3.93619 3.79506 3.93917 3.88 3.92434C3.96494 3.90951 4.04603 3.87718 4.11831 3.82934C4.19059 3.78149 4.25255 3.71912 4.3004 3.64605L6.50954 0.267654C6.74287 -0.0892181 7.25712 -0.0892181 7.49045 0.267654L9.69959 3.64605C9.74745 3.71912 9.80941 3.78149 9.88169 3.82934C9.95397 3.87718 10.0351 3.90951 10.12 3.92434C10.2049 3.93917 10.2919 3.93619 10.3757 3.91558C10.4595 3.89498 10.5383 3.85718 10.6072 3.8045L13.2606 1.77556C13.592 1.52242 14.0572 1.80696 13.9942 2.22379L13.1426 7.86809H0.857423ZM12.5019 11H1.49814C1.414 11 1.33068 10.9831 1.25295 10.9503C1.17521 10.9174 1.10458 10.8693 1.04508 10.8086C0.924927 10.6861 0.857423 10.52 0.857423 10.3467V8.91206H13.1426V10.3467C13.1426 10.7074 12.8556 11 12.5019 11Z" fill="#FFB743"/>
</svg>
