<svg width="36" height="36" viewBox="0 0 36 36" fill="none" xmlns="http://www.w3.org/2000/svg">
<mask id="mask0_807_29" style="mask-type:alpha" maskUnits="userSpaceOnUse" x="0" y="0" width="36" height="36">
<rect width="36" height="36" fill="#D9D9D9"/>
</mask>
<g mask="url(#mask0_807_29)">
<path d="M8.15663 20.3067C7.00062 20.1376 5.83666 20.0277 4.66933 19.9774C4.15747 19.9459 3.48278 20.2114 3.36593 21.4954C3.34413 21.8183 3.37545 22.1426 3.45865 22.4554C3.53619 22.7821 3.71099 23.0779 3.96021 23.3042C4.20942 23.5304 4.52146 23.6766 4.85553 23.7237L9.84525 24.4227C9.87017 24.4267 9.89538 24.4288 9.92063 24.4287C10.0181 24.4287 10.1139 24.4038 10.1988 24.3561C10.2837 24.3085 10.3548 24.2399 10.4052 24.1568C10.4555 24.0738 10.4835 23.9793 10.4863 23.8823C10.4891 23.7854 10.4667 23.6894 10.4212 23.6037C8.78006 20.4979 8.35942 20.3689 8.15663 20.3067ZM5.01309 22.6099C4.90348 22.5932 4.80142 22.5442 4.72011 22.4692C4.6388 22.3942 4.58198 22.2966 4.55701 22.1892C4.50441 21.9965 4.48254 21.7968 4.49218 21.5974C4.49396 21.4267 4.53279 21.2583 4.60601 21.1039H4.62184C5.91092 21.1842 7.36057 21.3004 7.75332 21.3694C8.17776 21.9344 8.55734 22.5315 8.88862 23.1552L5.01309 22.6099ZM31.3307 19.9774C30.1633 20.0277 28.9994 20.1376 27.8434 20.3067C27.6406 20.3689 27.2192 20.4979 25.5758 23.6067C25.5303 23.6924 25.5079 23.7884 25.5107 23.8853C25.5135 23.9823 25.5414 24.0768 25.5918 24.1598C25.6422 24.2429 25.7133 24.3115 25.7982 24.3591C25.883 24.4068 25.9789 24.4317 26.0763 24.4317C26.1016 24.4318 26.1268 24.4297 26.1517 24.4257L31.1414 23.7267C31.4755 23.6796 31.7876 23.5334 32.0368 23.3072C32.286 23.0809 32.4608 22.7851 32.5383 22.4584C32.6213 22.1455 32.6526 21.8213 32.6311 21.4984C32.5165 20.2114 31.838 19.9467 31.3307 19.9774ZM31.443 22.1892C31.418 22.2966 31.3612 22.3942 31.2799 22.4692C31.1986 22.5442 31.0965 22.5932 30.9869 22.6099L27.1114 23.1529C27.4429 22.5295 27.8222 21.9325 28.2459 21.3672C28.6455 21.2974 30.0966 21.1812 31.3849 21.1017C31.4671 21.254 31.5094 21.4245 31.5078 21.5974C31.5175 21.7968 31.4956 21.9965 31.443 22.1892ZM25.8268 20.8302C25.7699 20.7492 25.6925 20.6846 25.6026 20.6427C25.5126 20.6009 25.4132 20.5833 25.3142 20.5917C25.2622 20.5962 20.0689 21.0417 18.0019 21.0417C15.9348 21.0417 10.7408 20.5917 10.6896 20.5917C10.5906 20.583 10.491 20.6004 10.401 20.6423C10.3109 20.6842 10.2336 20.7489 10.1768 20.83C10.12 20.9111 10.0857 21.0057 10.0773 21.1043C10.069 21.2028 10.087 21.3018 10.1295 21.3912L11.6183 24.5344C11.6618 24.6258 11.7292 24.7038 11.8134 24.7604C11.8976 24.817 11.9956 24.8501 12.097 24.8562L17.9989 25.1922L23.9098 24.8562C24.0113 24.8502 24.1093 24.8172 24.1935 24.7606C24.2777 24.704 24.3451 24.6259 24.3885 24.5344L25.8773 21.3912C25.9194 21.3015 25.937 21.2024 25.9281 21.1039C25.9192 21.0053 25.8843 20.9109 25.8268 20.8302ZM23.5065 23.7552L18.0004 24.0717L12.4973 23.7552L11.5693 21.7962C13.1969 21.9282 16.4233 22.1712 18.0026 22.1712C19.5819 22.1712 22.8092 21.9282 24.4375 21.7962L23.5065 23.7552ZM21.2502 3.74216L22.084 4.05266C22.3566 4.15405 22.6042 4.31242 22.81 4.5171C23.0159 4.72178 23.1752 4.968 23.2773 5.23915L23.5894 6.07166C23.6301 6.17808 23.7024 6.26969 23.7966 6.33432C23.8909 6.39895 24.0026 6.43356 24.1171 6.43356C24.2316 6.43356 24.3433 6.39895 24.4376 6.33432C24.5318 6.26969 24.6041 6.17808 24.6448 6.07166L24.9569 5.24216C25.0591 4.9712 25.2184 4.72514 25.4241 4.52049C25.6298 4.31584 25.8771 4.15735 26.1495 4.05566L26.9832 3.74516C27.0902 3.70464 27.1823 3.63274 27.2472 3.53898C27.3122 3.44522 27.347 3.33403 27.347 3.22016C27.347 3.10628 27.3122 2.99509 27.2472 2.90133C27.1823 2.80757 27.0902 2.73567 26.9832 2.69516L26.1495 2.38466C25.8769 2.28309 25.6294 2.12456 25.4237 1.91975C25.218 1.71494 25.0588 1.46862 24.9569 1.1974L24.6478 0.361905C24.6071 0.255477 24.5348 0.163875 24.4406 0.0992427C24.3463 0.0346103 24.2346 0 24.1201 0C24.0056 0 23.8939 0.0346103 23.7996 0.0992427C23.7054 0.163875 23.6331 0.255477 23.5924 0.361905L23.2773 1.19141C23.1754 1.46262 23.0162 1.70894 22.8105 1.91375C22.6047 2.11856 22.3573 2.27709 22.0847 2.37866L21.251 2.68916C21.144 2.72967 21.0519 2.80157 20.987 2.89533C20.922 2.98909 20.8872 3.10028 20.8872 3.21415C20.8872 3.32803 20.922 3.43922 20.987 3.53298C21.0519 3.62674 21.144 3.69864 21.251 3.73915L21.2502 3.74216ZM24.1186 2.04641C24.3983 2.53341 24.8038 2.93711 25.2931 3.21565C24.8036 3.49399 24.3981 3.89775 24.1186 4.3849C23.8385 3.89799 23.4328 3.49433 22.9434 3.21565C23.4328 2.93698 23.8385 2.53332 24.1186 2.04641ZM27.6067 7.23341L28.2384 7.46891C28.4266 7.53921 28.5976 7.64881 28.7397 7.79034C28.8818 7.93187 28.9918 8.10204 29.0623 8.28941L29.299 8.91791C29.3394 9.02524 29.4117 9.11777 29.5064 9.18308C29.601 9.2484 29.7134 9.28341 29.8286 9.28341C29.9438 9.28341 30.0562 9.2484 30.1509 9.18308C30.2455 9.11777 30.3179 9.02524 30.3582 8.91791L30.5942 8.28941C30.6648 8.10199 30.7749 7.9318 30.9172 7.79027C31.0594 7.64874 31.2305 7.53916 31.4189 7.46891L32.0506 7.23341C32.1572 7.19259 32.249 7.12057 32.3137 7.02685C32.3784 6.93313 32.413 6.8221 32.413 6.70841C32.413 6.59471 32.3784 6.48368 32.3137 6.38996C32.249 6.29624 32.1572 6.22422 32.0506 6.1834L31.4189 5.94491C31.2306 5.87515 31.0597 5.7659 30.9176 5.62458C30.7756 5.48326 30.6658 5.31319 30.5957 5.12591L30.3582 4.49665C30.3179 4.38932 30.2455 4.2968 30.1509 4.23148C30.0562 4.16616 29.9438 4.13116 29.8286 4.13116C29.7134 4.13116 29.601 4.16616 29.5064 4.23148C29.4117 4.2968 29.3394 4.38932 29.299 4.49665L29.0623 5.12591C28.9918 5.31318 28.8818 5.48325 28.7397 5.62465C28.5976 5.76606 28.4266 5.87552 28.2384 5.94566L27.6059 6.18116C27.4989 6.22167 27.4069 6.29357 27.3419 6.38733C27.2769 6.48109 27.2421 6.59228 27.2421 6.70616C27.2421 6.82003 27.2769 6.93122 27.3419 7.02498C27.4069 7.11874 27.4989 7.19064 27.6059 7.23116L27.6067 7.23341ZM29.8282 6.07166C30.0003 6.31857 30.2156 6.53273 30.4637 6.70391C30.2161 6.87542 30.0009 7.08922 29.8282 7.33541C29.656 7.08908 29.4411 6.87524 29.1935 6.70391C29.4415 6.53271 29.6565 6.31855 29.8282 6.07166ZM31.1384 3.74216L31.7702 3.97766C31.9583 4.04771 32.1292 4.15706 32.2713 4.29833C32.4135 4.4396 32.5235 4.60952 32.5941 4.79666L32.8308 5.42516C32.8712 5.53249 32.9435 5.62501 33.0381 5.69033C33.1328 5.75565 33.2452 5.79066 33.3604 5.79066C33.4756 5.79066 33.588 5.75565 33.6827 5.69033C33.7773 5.62501 33.8496 5.53249 33.89 5.42516L34.1267 4.79666C34.197 4.60941 34.3069 4.43934 34.4489 4.29793C34.5909 4.15652 34.7617 4.04705 34.9499 3.97691L35.5824 3.74141C35.6893 3.70089 35.7814 3.62899 35.8464 3.53523C35.9113 3.44147 35.9461 3.33028 35.9461 3.21641C35.9461 3.10253 35.9113 2.99134 35.8464 2.89758C35.7814 2.80382 35.6893 2.73192 35.5824 2.69141L34.9506 2.45516C34.7625 2.38514 34.5917 2.2758 34.4497 2.13451C34.3077 1.99323 34.1978 1.82329 34.1274 1.63616L33.8907 1.0069C33.8504 0.899566 33.7781 0.807045 33.6834 0.741726C33.5888 0.676407 33.4763 0.641405 33.3611 0.641405C33.246 0.641405 33.1335 0.676407 33.0389 0.741726C32.9442 0.807045 32.8719 0.899566 32.8316 1.0069L32.5949 1.63616C32.5244 1.82334 32.4143 1.99331 32.2722 2.13459C32.1301 2.27587 31.9591 2.38518 31.7709 2.45516L31.1384 2.69141C31.0315 2.73192 30.9394 2.80382 30.8744 2.89758C30.8095 2.99134 30.7747 3.10253 30.7747 3.21641C30.7747 3.33028 30.8095 3.44147 30.8744 3.53523C30.9394 3.62899 31.0315 3.70164 31.1384 3.74216ZM33.36 2.58416C33.5326 2.83016 33.7475 3.04394 33.9948 3.21565C33.7475 3.38737 33.5326 3.60115 33.36 3.84715C33.1878 3.60083 32.9729 3.38699 32.7253 3.21565C32.9727 3.04412 33.1876 2.83032 33.36 2.58416ZM34.4425 31.7749C34.2926 31.7749 34.1488 31.8342 34.0428 31.9397C33.9367 32.0452 33.8772 32.1882 33.8772 32.3374V34.6729C33.8772 34.7256 33.8561 34.7762 33.8186 34.8134C33.7812 34.8507 33.7304 34.8717 33.6774 34.8717H30.7404C30.6874 34.8717 30.6366 34.8507 30.5991 34.8134C30.5617 34.7762 30.5406 34.7256 30.5406 34.6729V33.7099C30.5406 33.5607 30.4811 33.4176 30.375 33.3122C30.269 33.2067 30.1252 33.1474 29.9752 33.1474C29.8253 33.1474 29.6815 33.2067 29.5755 33.3122C29.4694 33.4176 29.4099 33.5607 29.4099 33.7099V34.6729C29.4103 35.0239 29.5506 35.3603 29.8 35.6085C30.0494 35.8567 30.3876 35.9963 30.7404 35.9967H33.6804C34.0332 35.9963 34.3714 35.8567 34.6208 35.6085C34.8702 35.3603 35.0105 35.0239 35.0109 34.6729V32.3374C35.0109 32.2633 34.9962 32.1899 34.9676 32.1215C34.939 32.053 34.8971 31.9909 34.8443 31.9386C34.7915 31.8863 34.7288 31.845 34.6598 31.8169C34.5909 31.7888 34.517 31.7745 34.4425 31.7749ZM5.98555 33.1467C5.8356 33.1467 5.69179 33.2059 5.58576 33.3114C5.47973 33.4169 5.42016 33.56 5.42016 33.7092V34.6722C5.42016 34.7247 5.39922 34.7752 5.36192 34.8124C5.32462 34.8497 5.274 34.8707 5.22115 34.8709H2.28114C2.22829 34.8707 2.17767 34.8497 2.14037 34.8124C2.10307 34.7752 2.08213 34.7247 2.08213 34.6722V32.3374C2.08213 32.1882 2.02256 32.0452 1.91653 31.9397C1.8105 31.8342 1.66669 31.7749 1.51674 31.7749C1.36679 31.7749 1.22298 31.8342 1.11695 31.9397C1.01092 32.0452 0.951355 32.1882 0.951355 32.3374V34.6729C0.951554 35.0235 1.09149 35.3598 1.34048 35.6079C1.58947 35.8561 1.92721 35.9959 2.27963 35.9967H5.21964C5.57233 35.9963 5.91045 35.8566 6.15977 35.6085C6.40909 35.3603 6.54923 35.0238 6.54943 34.6729V33.7099C6.54963 33.5609 6.49036 33.4178 6.38463 33.3122C6.2789 33.2066 6.13537 33.1471 5.98555 33.1467Z" fill="#13141A"/>
<path d="M34.9084 14.1379L33.0238 13.8139C32.7485 13.7634 32.464 13.8077 32.2173 13.9395C31.9707 14.0713 31.7765 14.2828 31.6669 14.5392L31.5651 14.7642L30.2293 11.6292C29.9273 10.9103 29.4454 10.2804 28.8294 9.79936C28.2134 9.31833 27.4839 9.00223 26.7103 8.88116C23.8279 8.4458 20.9158 8.23366 18.0004 8.24666C15.0849 8.23391 12.1728 8.4463 9.29042 8.88191C8.51693 9.0029 7.78746 9.3189 7.17148 9.79979C6.55551 10.2807 6.07353 10.9105 5.77146 11.6292L4.43112 14.7672L4.33613 14.5467C4.22733 14.2892 4.03368 14.0763 3.78704 13.943C3.54041 13.8097 3.25549 13.7639 2.97921 13.8132L1.09459 14.1379C0.788745 14.1884 0.51084 14.3452 0.310381 14.5805C0.109923 14.8158 -6.92487e-05 15.1142 3.2709e-08 15.4227V15.7909C0.000282371 16.0878 0.102088 16.3758 0.288683 16.6075C0.475277 16.8392 0.735557 17.0009 1.02674 17.0659L2.81638 17.4679L2.02333 18.6717C1.33617 19.7118 0.970551 20.9295 0.97171 22.1742V28.5717C0.97171 30.9859 2.66184 32.5467 5.2792 32.5467H30.7216C33.3389 32.5467 35.029 30.9867 35.029 28.5717V22.1712C35.0302 20.9265 34.6646 19.7088 33.9774 18.6687L33.1844 17.4687L34.968 17.0682C35.26 17.0039 35.5213 16.8426 35.7089 16.6109C35.8965 16.3791 35.9992 16.0907 36 15.7932V15.4249C36.0009 15.1165 35.8916 14.8178 35.6917 14.582C35.4917 14.3463 35.2142 14.1889 34.9084 14.1379ZM1.27023 15.9649C1.23055 15.956 1.1951 15.9339 1.16974 15.9023C1.14439 15.8707 1.13064 15.8314 1.13077 15.7909V15.4227C1.13016 15.3802 1.14513 15.3389 1.17288 15.3066C1.20063 15.2743 1.23926 15.2532 1.28154 15.2472L3.17445 14.9217C3.201 14.9169 3.22839 14.9219 3.25154 14.9357C3.27468 14.9495 3.29202 14.9711 3.30035 14.9967L3.76245 16.0362L3.48051 16.4637L1.27023 15.9649ZM33.8983 26.8242H3.53555C3.3856 26.8242 3.24179 26.8834 3.13576 26.9889C3.02973 27.0944 2.97016 27.2375 2.97016 27.3867C2.97016 27.5358 3.02973 27.6789 3.13576 27.7844C3.24179 27.8899 3.3856 27.9492 3.53555 27.9492H33.8983V28.5717C33.8983 30.3552 32.711 31.4217 30.7216 31.4217H5.2792C3.28979 31.4217 2.10248 30.3559 2.10248 28.5717V22.1712C2.10169 21.1456 2.40281 20.1423 2.96865 19.2852L4.75075 16.5807H29.4174C29.5673 16.5807 29.7112 16.5214 29.8172 16.4159C29.9232 16.3104 29.9828 16.1673 29.9828 16.0182C29.9828 15.869 29.9232 15.7259 29.8172 15.6204C29.7112 15.5149 29.5673 15.4557 29.4174 15.4557H5.36815L6.81252 12.0717C7.03985 11.5287 7.40326 11.0528 7.86808 10.6894C8.33289 10.3259 8.88358 10.0871 9.46757 9.99566C12.2913 9.56774 15.1441 9.35911 18.0004 9.37166C20.8565 9.35836 23.7094 9.56624 26.5332 9.99341C27.1174 10.0851 27.6683 10.3242 28.1331 10.6881C28.5979 11.0519 28.9612 11.5283 29.1882 12.0717L30.8407 15.9469C30.8535 15.9779 30.8694 16.0076 30.8882 16.0354L33.0321 19.2882C33.5979 20.1453 33.8991 21.1486 33.8983 22.1742V26.8242ZM34.8692 15.7909C34.8692 15.8322 34.8549 15.8722 34.8286 15.9042C34.8024 15.9361 34.7659 15.9581 34.7252 15.9664L32.5225 16.4614L32.2406 16.0339L32.7057 14.9839C32.7161 14.9612 32.7339 14.9425 32.7561 14.9308C32.7783 14.9192 32.8038 14.9152 32.8286 14.9194L34.7177 15.2449C34.76 15.2509 34.7986 15.2721 34.8264 15.3044C34.8541 15.3367 34.8691 15.3779 34.8685 15.4204L34.8692 15.7909Z" fill="#13141A"/>
</g>
</svg>
