<svg width="44" height="44" viewBox="0 0 44 44" fill="none" xmlns="http://www.w3.org/2000/svg">
<circle cx="22" cy="22" r="22" fill="white"/>
<mask id="mask0_791_364" style="mask-type:alpha" maskUnits="userSpaceOnUse" x="6" y="6" width="32" height="32">
<rect x="6" y="6" width="32" height="32" fill="#D9D9D9"/>
</mask>
<g mask="url(#mask0_791_364)">
<path d="M18.3931 12.7695C18.6345 11.9645 19.2457 12.3753 19.2457 12.3753C19.2457 12.3753 20.8299 13.6074 25.1749 16.4312C29.5199 19.2551 34.9369 15.3363 34.9369 15.3363L22.0713 6C16.4284 12.1089 9.20568 14.2989 9.20568 14.2989L9.22616 14.3071L25.6716 26.0848C25.4302 26.8898 24.8189 26.4792 24.8189 26.4792C24.8189 26.4792 23.2348 25.247 18.8897 22.4229C14.5447 19.599 9.12781 23.518 9.12781 23.518L21.9934 32.8543C27.6363 26.7453 34.859 24.5554 34.859 24.5554L34.8382 24.5471L18.3931 12.7695Z" fill="#FF0016"/>
<path d="M9 36.561L10.9793 36.5717C11.0133 36.7619 10.9598 36.7612 11.0639 36.8605C11.2269 37.0154 11.4798 37.0506 11.6921 37.0124C11.866 36.9813 12.1355 36.927 12.1483 36.7066C12.1624 36.4673 12.0002 36.384 11.7967 36.3566C11.5154 36.3191 11.2315 36.3093 10.951 36.2635C10.2283 36.1423 9.84405 36.088 9.53629 35.8876C9.22582 35.687 9.19908 35.2503 9.19908 34.9394C9.19908 34.7351 9.27847 34.5423 9.43726 34.3602C9.59605 34.1789 9.83491 34.0361 10.1537 33.9318C10.4726 33.8279 10.9095 33.7764 11.4649 33.7764C12.1461 33.7764 12.666 33.8706 13.0234 34.059C13.3812 34.2475 13.594 34.6678 13.6619 35.0784H11.9791C11.9916 35.0541 11.9461 34.9441 11.9388 34.9166C11.8743 34.6782 11.649 34.6087 11.4331 34.5599C11.2562 34.52 11.0541 34.5165 10.8946 34.6161C10.7976 34.677 10.7223 34.7411 10.7223 34.8283C10.7223 34.8914 10.7622 34.9482 10.8425 34.9989C10.9205 35.0511 11.1049 35.1 11.3959 35.145C12.1162 35.2612 12.632 35.3781 12.9438 35.4962C13.2553 35.6151 13.482 35.7615 13.624 35.9367C13.7657 36.1118 13.8368 36.3079 13.8368 36.5247C13.8368 36.7795 13.7422 37.0143 13.5529 37.2291C13.364 37.4438 13.0997 37.6074 12.7603 37.7184C12.4207 37.8295 11.9929 37.8849 11.4766 37.8849C10.5701 37.8849 9.9419 37.7548 9.593 37.4948C9.2436 37.2351 9.04605 36.9625 9 36.561ZM17.0307 33.8511H18.4935V36.6599C18.4935 37.2363 18.1429 37.6445 17.4415 37.8857C17.117 37.9957 16.728 37.9998 16.2875 37.9998C15.8926 37.9998 15.5383 38.0073 15.2105 37.9201C14.4386 37.6051 14.0528 37.185 14.0528 36.6599V33.8511H15.5259V36.2565C15.5259 36.6945 15.5828 37.0204 16.2877 37.0204C17.0068 37.0204 17.0212 36.6803 17.0212 36.2424L17.0307 33.8511ZM26.595 33.8511H28.058V36.6599C28.058 37.2363 27.7074 37.6445 27.0061 37.8857C26.6817 37.9957 26.2925 37.9998 25.8521 37.9998C25.4571 37.9998 25.1026 38.0073 24.7751 37.9201C24.003 37.6051 23.6172 37.185 23.6172 36.6599V33.8511H25.0903V36.2565C25.0903 36.6945 25.1473 37.0204 25.8521 37.0204C26.5712 37.0204 26.5856 36.6803 26.5856 36.2424L26.595 33.8511ZM18.7944 33.8801H23.3255V34.7435L21.1121 36.7752H23.3257V37.9061H18.7944V36.9339L20.9569 34.9311H18.7985L18.7944 33.8801ZM28.4203 37.899V33.8732H29.8726L29.8722 35.3634L31.4386 33.8732H33.2562L31.1705 35.8243L33.343 37.899H31.3821L29.8866 36.4585L29.9008 37.899H28.4203ZM35 33.8727V37.899H33.5506V33.8732H35V33.8727Z" fill="#015CD0"/>
</g>
</svg>
