<svg width="44" height="44" viewBox="0 0 44 44" fill="none" xmlns="http://www.w3.org/2000/svg">
<mask id="mask0_745_8834" style="mask-type:alpha" maskUnits="userSpaceOnUse" x="0" y="0" width="44" height="44">
<rect width="44" height="44" fill="#D9D9D9"/>
</mask>
<g mask="url(#mask0_745_8834)">
<path d="M17.1168 9.30808C17.4437 8.20121 18.2713 8.76605 18.2713 8.76605C18.2713 8.76605 20.416 10.4601 26.2984 14.343C32.1809 18.2258 39.5146 12.8374 39.5146 12.8374L22.0966 0C14.4569 8.39971 4.67855 11.411 4.67855 11.411L4.70628 11.4222L26.9709 27.6166C26.6441 28.7235 25.8165 28.1589 25.8165 28.1589C25.8165 28.1589 23.6718 26.4646 17.7893 22.5815C11.9068 18.6986 4.57312 24.0873 4.57312 24.0873L21.9911 36.9247C29.6308 28.5247 39.4092 25.5137 39.4092 25.5137L39.381 25.5022L17.1168 9.30808Z" fill="#FF0016"/>
<path d="M4.40002 42.0214L7.07965 42.0361C7.12572 42.2976 7.05329 42.2967 7.19424 42.4331C7.41495 42.6461 7.75735 42.6946 8.04475 42.6421C8.28012 42.5993 8.64498 42.5247 8.6624 42.2216C8.68142 41.8925 8.46186 41.7779 8.18638 41.7404C7.80548 41.6888 7.42114 41.6752 7.04138 41.6123C6.06299 41.4456 5.54274 41.371 5.12608 41.0954C4.70576 40.8197 4.66955 40.2192 4.66955 39.7917C4.66955 39.5107 4.77703 39.2456 4.99201 38.9953C5.20698 38.7459 5.53036 38.5496 5.96192 38.4062C6.3937 38.2633 6.98523 38.1925 7.73718 38.1925C8.65942 38.1925 9.36325 38.3221 9.84705 38.5812C10.3316 38.8403 10.6196 39.4182 10.7115 39.9829H8.43321C8.45017 39.9493 8.38852 39.7981 8.37867 39.7603C8.29135 39.4325 7.9863 39.3369 7.69409 39.2699C7.4546 39.215 7.18095 39.2102 6.96506 39.3472C6.83374 39.4308 6.73175 39.519 6.73175 39.6389C6.73175 39.7256 6.78584 39.8038 6.89447 39.8735C7.00012 39.9453 7.24971 40.0126 7.64367 40.0744C8.61885 40.2341 9.31718 40.3948 9.73934 40.5572C10.161 40.7208 10.4679 40.9221 10.6602 41.1629C10.852 41.4038 10.9483 41.6733 10.9483 41.9715C10.9483 42.3219 10.8202 42.6447 10.5639 42.94C10.3082 43.2352 9.95042 43.4601 9.4909 43.6128C9.03116 43.7656 8.45201 43.8417 7.75299 43.8417C6.52571 43.8417 5.67521 43.6629 5.20286 43.3054C4.72982 42.9483 4.46236 42.5734 4.40002 42.0214ZM15.2723 38.2952H17.2527V42.1574C17.2527 42.95 16.7781 43.5112 15.8285 43.8429C15.3892 43.9941 14.8625 43.9998 14.2662 43.9998C13.7315 43.9998 13.2518 44.01 12.8081 43.8902C11.763 43.457 11.2407 42.8794 11.2407 42.1574V38.2952H13.2351V41.6027C13.2351 42.2049 13.3121 42.653 14.2664 42.653C15.24 42.653 15.2595 42.1854 15.2595 41.5832L15.2723 38.2952ZM28.221 38.2952H30.2016V42.1574C30.2016 42.95 29.727 43.5112 28.7775 43.8429C28.3384 43.9941 27.8115 43.9998 27.2151 43.9998C26.6804 43.9998 26.2005 44.01 25.757 43.8902C24.7117 43.457 24.1894 42.8794 24.1894 42.1574V38.2952H26.1838V41.6027C26.1838 42.2049 26.261 42.653 27.2151 42.653C28.1887 42.653 28.2082 42.1854 28.2082 41.5832L28.221 38.2952ZM17.6602 38.3351H23.7945V39.5224L20.798 42.3159H23.7948V43.8709H17.6602V42.5342L20.5878 39.7803H17.6657L17.6602 38.3351ZM30.6921 43.8612V38.3256H32.6583L32.6578 40.3746L34.7784 38.3256H37.2392L34.4154 41.0084L37.3568 43.8612H34.7019L32.6773 41.8804L32.6965 43.8612H30.6921ZM39.6 38.3249V43.8612H37.6377V38.3256H39.6V38.3249Z" fill="#015CD0"/>
</g>
</svg>
