<svg width="44" height="44" viewBox="0 0 44 44" fill="none" xmlns="http://www.w3.org/2000/svg">
<path d="M23.4148 26.6189H31.2826C31.3549 26.6189 31.4264 26.6047 31.4931 26.577C31.5598 26.5494 31.6204 26.5089 31.6715 26.4578C31.7225 26.4067 31.763 26.3461 31.7906 26.2793C31.8182 26.2126 31.8324 26.1411 31.8323 26.0689C31.8324 25.9966 31.8182 25.9251 31.7906 25.8584C31.763 25.7917 31.7225 25.731 31.6714 25.6799C31.6204 25.6288 31.5598 25.5883 31.4931 25.5607C31.4264 25.533 31.3549 25.5188 31.2826 25.5187H23.4148C23.3426 25.5188 23.2711 25.533 23.2044 25.5606C23.1377 25.5883 23.0771 25.6288 23.0261 25.6799C22.975 25.731 22.9345 25.7916 22.9069 25.8583C22.8793 25.925 22.8651 25.9965 22.8651 26.0687C22.865 26.141 22.8792 26.2125 22.9068 26.2793C22.9344 26.3461 22.9748 26.4067 23.0259 26.4578C23.0769 26.5089 23.1376 26.5495 23.2043 26.5771C23.2711 26.6048 23.3426 26.6189 23.4148 26.6189ZM12.9881 21.4497C12.9159 21.4497 12.8444 21.4639 12.7776 21.4915C12.7109 21.5192 12.6502 21.5597 12.5992 21.6108C12.5481 21.6618 12.5076 21.7225 12.4799 21.7892C12.4523 21.8559 12.4381 21.9275 12.4381 21.9997V23.4311C12.4381 23.5769 12.496 23.7168 12.5992 23.8199C12.7023 23.9231 12.8422 23.981 12.988 23.981C13.1338 23.981 13.2737 23.9231 13.3768 23.8199C13.48 23.7168 13.5379 23.5769 13.5379 23.4311V21.9998C13.538 21.9276 13.5238 21.856 13.4962 21.7893C13.4686 21.7225 13.4281 21.6618 13.3771 21.6108C13.326 21.5597 13.2654 21.5191 13.1986 21.4915C13.1319 21.4639 13.0603 21.4497 12.9881 21.4497ZM16.2314 21.4497C16.1592 21.4497 16.0876 21.4639 16.0209 21.4915C15.9541 21.5191 15.8935 21.5596 15.8424 21.6107C15.7913 21.6618 15.7508 21.7224 15.7231 21.7892C15.6955 21.8559 15.6813 21.9275 15.6813 21.9997V23.4311C15.6813 23.577 15.7393 23.7169 15.8424 23.8201C15.9456 23.9233 16.0855 23.9812 16.2314 23.9812C16.3773 23.9812 16.5172 23.9233 16.6204 23.8201C16.7236 23.7169 16.7815 23.577 16.7815 23.4311V21.9998C16.7815 21.9276 16.7673 21.856 16.7397 21.7893C16.7121 21.7225 16.6715 21.6619 16.6204 21.6108C16.5694 21.5597 16.5087 21.5192 16.442 21.4915C16.3752 21.4639 16.3037 21.4497 16.2314 21.4497ZM12.9881 25.5187C12.8423 25.5188 12.7024 25.5767 12.5992 25.6799C12.4961 25.783 12.4381 25.9229 12.4381 26.0687V27.501C12.4381 27.8048 12.6843 28.0507 12.9881 28.0507C13.2919 28.0507 13.5378 27.8047 13.5378 27.501V26.0689C13.5378 25.9966 13.5236 25.9251 13.496 25.8584C13.4684 25.7917 13.428 25.731 13.3769 25.6799C13.3259 25.6288 13.2653 25.5883 13.1985 25.5607C13.1318 25.533 13.0603 25.5188 12.9881 25.5187ZM16.2314 25.5187C16.0855 25.5187 15.9456 25.5767 15.8425 25.6798C15.7393 25.783 15.6813 25.9229 15.6813 26.0687V27.501C15.6813 27.8048 15.9276 28.0507 16.2313 28.0507C16.535 28.0507 16.7815 27.8047 16.7815 27.501V26.0689C16.7815 25.9966 16.7673 25.9251 16.7396 25.8583C16.712 25.7916 16.6715 25.731 16.6204 25.6799C16.5693 25.6288 16.5087 25.5883 16.4419 25.5606C16.3752 25.533 16.3036 25.5187 16.2314 25.5187ZM12.9881 29.5885C12.9159 29.5885 12.8443 29.6027 12.7776 29.6304C12.7109 29.658 12.6502 29.6986 12.5991 29.7496C12.5481 29.8007 12.5075 29.8614 12.4799 29.9281C12.4523 29.9949 12.4381 30.0664 12.4381 30.1387V31.57C12.4381 31.7159 12.496 31.8558 12.5992 31.9589C12.7023 32.062 12.8422 32.1199 12.988 32.1199C13.1338 32.1199 13.2737 32.062 13.3768 31.9589C13.48 31.8558 13.5379 31.7159 13.5379 31.57V30.1387C13.538 30.0664 13.5238 29.9949 13.4962 29.9281C13.4686 29.8614 13.4281 29.8007 13.377 29.7497C13.326 29.6986 13.2653 29.6581 13.1986 29.6304C13.1319 29.6028 13.0603 29.5886 12.9881 29.5887V29.5885ZM16.2314 29.5885C16.1592 29.5885 16.0876 29.6027 16.0209 29.6304C15.9541 29.658 15.8934 29.6985 15.8424 29.7496C15.7913 29.8007 15.7507 29.8613 15.7231 29.9281C15.6955 29.9949 15.6813 30.0664 15.6813 30.1387V31.57C15.6813 31.7159 15.7393 31.8559 15.8424 31.959C15.9456 32.0622 16.0855 32.1202 16.2314 32.1202C16.3773 32.1202 16.5172 32.0622 16.6204 31.959C16.7236 31.8559 16.7815 31.7159 16.7815 31.57V30.1387C16.7815 30.0664 16.7673 29.9949 16.7397 29.9281C16.712 29.8614 16.6715 29.8007 16.6204 29.7497C16.5693 29.6986 16.5087 29.6581 16.4419 29.6305C16.3752 29.6028 16.3036 29.5886 16.2314 29.5887V29.5885ZM12.9881 33.658C12.8422 33.658 12.7023 33.716 12.5992 33.8192C12.4961 33.9223 12.4381 34.0622 12.4381 34.2081V35.6394C12.4381 35.9436 12.6843 36.1896 12.9881 36.1896C13.2919 36.1896 13.5378 35.9436 13.5378 35.6394V34.2082C13.5378 34.136 13.5236 34.0645 13.496 33.9978C13.4684 33.9311 13.4279 33.8704 13.3769 33.8194C13.3258 33.7683 13.2652 33.7278 13.1985 33.7001C13.1318 33.6725 13.0603 33.6582 12.9881 33.6582V33.658ZM16.2314 33.658C16.0855 33.658 15.9456 33.716 15.8424 33.8191C15.7393 33.9223 15.6813 34.0622 15.6813 34.2081V35.6394C15.6813 35.9436 15.9276 36.1896 16.2313 36.1896C16.535 36.1896 16.7815 35.9436 16.7815 35.6394V34.2082C16.7815 34.0624 16.7235 33.9225 16.6203 33.8193C16.5172 33.7162 16.3773 33.6582 16.2314 33.6582V33.658ZM12.9881 37.7274C12.9159 37.7274 12.8444 37.7416 12.7777 37.7692C12.7109 37.7968 12.6503 37.8373 12.5992 37.8883C12.5481 37.9394 12.5076 38 12.48 38.0667C12.4523 38.1334 12.4381 38.2049 12.4381 38.2772V39.7093C12.4381 39.8552 12.496 39.995 12.5992 40.0982C12.7023 40.2013 12.8422 40.2592 12.988 40.2592C13.1338 40.2592 13.2737 40.2013 13.3768 40.0982C13.48 39.995 13.5379 39.8552 13.5379 39.7093V38.2772C13.5379 38.205 13.5237 38.1335 13.4961 38.0668C13.4685 38 13.428 37.9394 13.3769 37.8884C13.3259 37.8373 13.2652 37.7969 13.1985 37.7692C13.1318 37.7416 13.0603 37.7274 12.9881 37.7275V37.7274ZM16.2314 37.7274C16.1592 37.7273 16.0876 37.7415 16.0209 37.7691C15.9542 37.7967 15.8935 37.8372 15.8424 37.8883C15.7913 37.9394 15.7508 38 15.7232 38.0667C15.6955 38.1334 15.6813 38.2049 15.6813 38.2772V39.7093C15.6813 39.8552 15.7393 39.9951 15.8424 40.0983C15.9456 40.2015 16.0855 40.2594 16.2314 40.2594C16.3773 40.2594 16.5172 40.2015 16.6204 40.0983C16.7236 39.9951 16.7815 39.8552 16.7815 39.7093V38.2772C16.7815 38.2049 16.7673 38.1334 16.7396 38.0667C16.7119 38 16.6714 37.9394 16.6203 37.8884C16.5692 37.8373 16.5086 37.7968 16.4419 37.7692C16.3751 37.7416 16.3036 37.7274 16.2314 37.7275V37.7274ZM23.4148 29.9189H31.2826C31.3549 29.9189 31.4264 29.9047 31.4932 29.877C31.5599 29.8494 31.6205 29.8088 31.6716 29.7577C31.7226 29.7066 31.7631 29.646 31.7907 29.5792C31.8183 29.5124 31.8324 29.4409 31.8323 29.3686C31.8323 29.2965 31.8181 29.225 31.7905 29.1583C31.7629 29.0916 31.7224 29.031 31.6714 28.9799C31.6203 28.9289 31.5597 28.8884 31.493 28.8608C31.4263 28.8331 31.3548 28.8189 31.2826 28.819H23.4148C23.3426 28.8189 23.2711 28.8331 23.2044 28.8608C23.1377 28.8884 23.0771 28.9289 23.0261 28.9799C22.975 29.031 22.9345 29.0916 22.9069 29.1583C22.8793 29.225 22.8651 29.2965 22.8651 29.3686C22.865 29.4409 22.8792 29.5124 22.9068 29.5792C22.9344 29.646 22.9748 29.7066 23.0259 29.7577C23.0769 29.8088 23.1376 29.8494 23.2043 29.877C23.2711 29.9047 23.3426 29.9189 23.4148 29.9189ZM23.4148 33.2187H31.2826C31.3548 33.2187 31.4263 33.2045 31.493 33.1769C31.5597 33.1493 31.6203 33.1088 31.6714 33.0577C31.7224 33.0067 31.7629 32.9461 31.7905 32.8794C31.8181 32.8127 31.8323 32.7412 31.8323 32.669C31.8324 32.5968 31.8182 32.5252 31.7907 32.4585C31.7631 32.3917 31.7226 32.3311 31.6715 32.28C31.6205 32.2289 31.5599 32.1883 31.4931 32.1607C31.4264 32.1331 31.3549 32.1188 31.2826 32.1189H23.4148C23.3426 32.1188 23.2711 32.1331 23.2043 32.1607C23.1376 32.1883 23.077 32.2289 23.0259 32.28C22.9749 32.3311 22.9344 32.3917 22.9068 32.4585C22.8792 32.5252 22.8651 32.5968 22.8651 32.669C22.8651 32.7412 22.8793 32.8127 22.9069 32.8794C22.9345 32.9461 22.975 33.0067 23.0261 33.0577C23.0771 33.1088 23.1377 33.1493 23.2044 33.1769C23.2711 33.2045 23.3426 33.2187 23.4148 33.2187ZM23.4148 19.9651H31.2826C31.3549 19.9652 31.4264 19.9509 31.4932 19.9233C31.5599 19.8956 31.6205 19.8551 31.6716 19.804C31.7226 19.7529 31.7631 19.6922 31.7907 19.6255C31.8183 19.5587 31.8324 19.4872 31.8323 19.4149C31.8323 19.3427 31.8181 19.2712 31.7905 19.2045C31.7629 19.1378 31.7224 19.0772 31.6714 19.0262C31.6203 18.9751 31.5597 18.9346 31.493 18.907C31.4263 18.8794 31.3548 18.8652 31.2826 18.8652H23.4148C23.3426 18.8652 23.2711 18.8794 23.2044 18.907C23.1377 18.9346 23.0771 18.9751 23.0261 19.0262C22.975 19.0772 22.9345 19.1378 22.9069 19.2045C22.8793 19.2712 22.8651 19.3427 22.8651 19.4149C22.8651 19.4871 22.8792 19.5587 22.9068 19.6254C22.9344 19.6922 22.9749 19.7528 23.0259 19.8039C23.077 19.855 23.1376 19.8956 23.2043 19.9232C23.2711 19.9508 23.3426 19.965 23.4148 19.965V19.9651ZM23.4148 23.2649H31.2826C31.3548 23.265 31.4263 23.2508 31.493 23.2231C31.5597 23.1955 31.6203 23.155 31.6714 23.104C31.7224 23.0529 31.7629 22.9923 31.7905 22.9256C31.8181 22.8589 31.8323 22.7874 31.8323 22.7152C31.8324 22.643 31.8182 22.5715 31.7907 22.5047C31.7631 22.438 31.7226 22.3773 31.6715 22.3262C31.6205 22.2751 31.5599 22.2346 31.4931 22.207C31.4264 22.1793 31.3549 22.1651 31.2826 22.1651H23.4148C23.3426 22.1651 23.2711 22.1793 23.2044 22.207C23.1376 22.2346 23.077 22.2751 23.026 22.3262C22.9749 22.3773 22.9344 22.4379 22.9068 22.5047C22.8792 22.5714 22.8651 22.6429 22.8651 22.7151C22.8651 22.7873 22.8793 22.8588 22.9069 22.9256C22.9345 22.9923 22.975 23.0529 23.026 23.104C23.0771 23.155 23.1377 23.1955 23.2044 23.2231C23.2711 23.2507 23.3426 23.265 23.4148 23.2649Z" fill="#5E5E5E"/>
<path d="M44.0004 31.0582C44.0004 29.3025 42.572 27.8742 40.8168 27.8742C39.0615 27.8742 37.6331 29.3025 37.6331 31.0582C37.6331 32.2624 38.3062 33.3128 39.2952 33.8537C38.3062 34.3942 37.6331 35.4445 37.6331 36.6492C37.6331 38.2165 38.7732 39.5199 40.2667 39.7816V42.8998H35.2967V7.90627C35.2967 7.72118 35.204 7.54963 35.0499 7.44715C34.8959 7.34467 34.7004 7.32759 34.5313 7.4002L26.6913 10.7332V5.84333C26.6913 5.69755 26.6334 5.55774 26.5303 5.45465C26.4272 5.35157 26.2874 5.29366 26.1416 5.29366H20.9601V0.549894C20.9601 0.404053 20.9022 0.264185 20.799 0.16106C20.6959 0.0579351 20.556 0 20.4102 0C20.2644 0 20.1245 0.0579351 20.0214 0.16106C19.9182 0.264185 19.8603 0.404053 19.8603 0.549894V5.29366H14.4997C14.4275 5.29361 14.356 5.3078 14.2893 5.33541C14.2226 5.36302 14.162 5.4035 14.1109 5.45455C14.0599 5.5056 14.0194 5.56621 13.9917 5.63292C13.9641 5.69963 13.9499 5.77113 13.9499 5.84333V17.7031H9.25356C9.18134 17.7031 9.10983 17.7173 9.04311 17.7449C8.9764 17.7726 8.91578 17.8131 8.86472 17.8642C8.81367 17.9152 8.77318 17.9759 8.74556 18.0426C8.71794 18.1093 8.70374 18.1808 8.70377 18.2531V42.8999H3.73335V39.7817C5.22727 39.52 6.36702 38.2166 6.36702 36.6493C6.36702 35.4446 5.69434 34.3943 4.70487 33.8538C5.69423 33.3129 6.36702 32.2626 6.36702 31.0583C6.36702 29.3026 4.93905 27.8743 3.18378 27.8743C1.4285 27.8743 0.000107422 29.3024 0.000107422 31.0581C0.000107422 32.2623 0.672785 33.3127 1.66225 33.8535C0.672785 34.3942 0.000107422 35.4445 0.000107422 36.6492C0.000107422 38.2165 1.13986 39.5199 2.63367 39.7816V42.8998H0.550109C0.404211 42.8998 0.264289 42.9577 0.161123 43.0609C0.0579577 43.1641 0 43.304 0 43.4499C0 43.5958 0.0579577 43.7357 0.161123 43.8389C0.264289 43.942 0.404211 44 0.550109 44H43.4502C43.5961 44 43.736 43.942 43.8392 43.8389C43.9424 43.7357 44.0003 43.5958 44.0003 43.4499C44.0003 43.304 43.9424 43.1641 43.8392 43.0609C43.736 42.9577 43.5961 42.8998 43.4502 42.8998H41.3668V39.7816C42.8601 39.5199 44.0003 38.2165 44.0003 36.6492C44.0003 35.4445 43.3272 34.3942 42.3382 33.8537C43.3272 33.3128 44.0004 32.2625 44.0004 31.0582ZM3.18378 28.9744C4.33223 28.9744 5.26712 29.9093 5.26712 31.0582C5.26712 32.2071 4.33223 33.1417 3.18378 33.1417C2.03479 33.1417 1.0999 32.2071 1.0999 31.0582C1.0999 29.9093 2.03479 28.9744 3.18378 28.9744ZM1.0999 36.6492C1.0999 35.5003 2.03479 34.5653 3.18378 34.5653C4.33223 34.5653 5.26712 35.5003 5.26712 36.6492C5.26712 37.7977 4.33223 38.7326 3.18378 38.7326C2.03479 38.7326 1.0999 37.7977 1.0999 36.6492ZM34.1964 42.8998H31.0924V37.3734C31.0924 37.3012 31.0781 37.2297 31.0505 37.163C31.0228 37.0963 30.9823 37.0357 30.9312 36.9847C30.8802 36.9336 30.8195 36.8932 30.7528 36.8655C30.6861 36.8379 30.6146 36.8237 30.5424 36.8238H24.1553C24.0831 36.8237 24.0116 36.8379 23.9448 36.8655C23.8781 36.8932 23.8175 36.9336 23.7664 36.9847C23.7153 37.0357 23.6748 37.0963 23.6472 37.163C23.6195 37.2297 23.6053 37.3012 23.6053 37.3734V42.8998H20.5008V14.5598L34.1963 8.7375L34.1964 42.8998ZM29.9923 42.8998H24.7055V37.9236H29.9924L29.9923 42.8998ZM25.5913 6.39355V10.5873H15.0497V6.39355H25.5913ZM15.0497 11.6875H24.447L19.7355 13.6903C19.6362 13.7325 19.5514 13.8029 19.4919 13.8929C19.4324 13.9829 19.4007 14.0885 19.4008 14.1964V17.7032H15.0497V11.6875ZM9.80367 18.803H19.4008V42.8999H9.80367V18.803ZM40.8168 38.7327C39.6679 38.7327 38.7333 37.7978 38.7333 36.6493C38.7333 35.5004 39.6679 34.5654 40.8168 34.5654C41.9656 34.5654 42.9001 35.5004 42.9001 36.6493C42.9001 37.7978 41.9656 38.7327 40.8168 38.7327ZM40.8168 33.1418C39.6679 33.1418 38.7333 32.2072 38.7333 31.0583C38.7333 29.9094 39.6679 28.9745 40.8168 28.9745C41.9656 28.9745 42.9001 29.9094 42.9001 31.0583C42.9001 32.2072 41.9656 33.1418 40.8168 33.1418Z" fill="#5E5E5E"/>
</svg>
