<svg width="44" height="44" viewBox="0 0 44 44" fill="none" xmlns="http://www.w3.org/2000/svg">
<circle cx="22" cy="22" r="22" fill="white"/>
<mask id="mask0_791_440" style="mask-type:alpha" maskUnits="userSpaceOnUse" x="6" y="6" width="32" height="32">
<rect x="6" y="6" width="32" height="32" fill="#D9D9D9"/>
</mask>
<g mask="url(#mask0_791_440)">
<path fill-rule="evenodd" clip-rule="evenodd" d="M6 29.0579H12.8975V31.3248H10.749V38H8.14843V31.3248H6V29.0579ZM21.8306 29.0579H28.728V31.3248H26.5798V38H23.979V31.3248H21.8306V29.0579ZM12.6714 38L15.6114 29.0579H18.8906L22.1696 38H19.2298L17.4206 32.2065L15.4982 38H12.6714ZM28.5018 38L31.4418 29.0579H34.7214L38 38H35.0602L33.2512 32.2065L31.3288 38H28.5018ZM21.6871 6C26.926 6 31.4476 8.42867 33.4352 11.8917C30.443 10.984 26.9793 10.2847 23.382 10.4181C22.8083 10.4394 22.3642 10.6047 22.3642 11.2046V25.6458C21.9227 25.6637 21.4807 25.6641 21.0392 25.6469V11.2046C21.0392 10.6045 20.5951 10.4394 20.0214 10.4181C16.4101 10.2841 12.9335 10.9894 9.93313 11.9024C11.9173 8.43347 16.4429 6 21.6871 6ZM34.3037 14.0575C34.4426 14.6356 34.5132 15.2313 34.5136 15.8296C34.5136 20.0922 30.9413 23.7352 25.9747 25.0923L24.5094 14.1969C24.3904 13.3109 24.3978 12.708 25.0781 12.685C28.8947 12.5561 31.1346 13.1846 34.3037 14.0575ZM17.4277 25.0998C12.4462 23.7488 8.8608 20.1003 8.8608 15.8298C8.8608 15.2282 8.93227 14.6387 9.06878 14.0663C12.2541 13.1884 14.496 12.5561 18.3253 12.6854C19.0058 12.7084 19.013 13.3113 18.894 14.1973L17.4277 25.0998Z" fill="#33348E"/>
</g>
</svg>
