<svg width="44" height="44" viewBox="0 0 44 44" fill="none" xmlns="http://www.w3.org/2000/svg">
<mask id="mask0_766_43" style="mask-type:alpha" maskUnits="userSpaceOnUse" x="0" y="0" width="44" height="44">
<rect width="44" height="44" fill="#D9D9D9"/>
</mask>
<g mask="url(#mask0_766_43)">
<mask id="mask1_766_43" style="mask-type:alpha" maskUnits="userSpaceOnUse" x="0" y="0" width="44" height="44">
<rect width="44" height="44" fill="#D9D9D9"/>
</mask>
<g mask="url(#mask1_766_43)">
<path d="M35.7196 40.8458V43.9938H36.6959V41.8979H40.2494V43.9938H41.2251V40.8513L35.7196 40.8458ZM36.5871 39.8275H40.3414C40.8629 39.7204 41.2507 39.2446 41.36 38.7843H35.5687C35.6769 39.2447 36.0704 39.7204 36.5871 39.8275ZM32.7625 43.9958C33.2548 43.7801 33.5196 43.4068 33.6211 42.9701H29.242L29.2447 38.7868L28.2631 38.7897V43.9958H32.7625ZM20.9632 39.8135H24.4304C24.9531 39.6564 25.3921 39.2447 25.4991 38.7883H19.9913V41.8649H24.4992V42.9445L20.9632 42.9474C20.4091 43.1071 19.9392 43.4919 19.7048 44L19.9913 43.9945H25.4678V40.842H20.9632V39.8135ZM12.4038 39.8234H16.1568C16.679 39.7158 17.0671 39.2404 17.1759 38.7797H11.3848C11.4929 39.2404 11.8866 39.7158 12.4038 39.8234ZM12.4038 41.8809H16.1568C16.679 41.7745 17.0671 41.2987 17.1759 40.8377H11.3848C11.4929 41.2988 11.8866 41.7745 12.4038 41.8809ZM12.4038 43.9953H16.1568C16.679 43.8879 17.0671 43.4123 17.1759 42.9518H11.3848C11.4929 43.4124 11.8866 43.8879 12.4038 43.9953ZM2.64001 38.7923C2.75284 39.2473 3.13382 39.7123 3.65653 39.8288H5.23634L5.31692 39.8617V43.9836H6.30343V39.8617L6.39305 39.8288H7.97424C8.50279 39.6881 8.87558 39.2473 8.98645 38.7923V38.7822H2.64001V38.7923Z" fill="#E82127"/>
<path d="M22.0018 33.6738L26.931 7.06585C31.6294 7.06585 33.1114 7.56035 33.3253 9.57875C33.3253 9.57875 36.4772 8.45079 38.0668 6.15993C31.8635 3.40097 25.6306 3.27655 25.6306 3.27655L21.9936 7.52834L22.0018 7.52781L18.3648 3.27588C18.3648 3.27588 12.1317 3.40044 5.9292 6.1594C7.51748 8.45026 10.6705 9.57822 10.6705 9.57822C10.8858 7.55968 12.366 7.06518 17.0328 7.06198L22.0018 33.6738Z" fill="#E82127"/>
<path d="M22 2.04841C27.0145 2.01161 32.7542 2.79296 38.6299 5.25093C39.4152 3.89425 39.6171 3.29467 39.6171 3.29467C33.1941 0.85564 27.179 0.0209376 21.9993 0C16.8199 0.0209376 10.8051 0.855773 4.38293 3.29467C4.38293 3.29467 4.66944 4.03322 5.36944 5.25093C11.244 2.79296 16.9847 2.01161 21.9993 2.04841H22Z" fill="#E82127"/>
</g>
</g>
</svg>
