<svg width="44" height="44" viewBox="0 0 44 44" fill="none" xmlns="http://www.w3.org/2000/svg">
<circle cx="22" cy="22" r="22" fill="white"/>
<mask id="mask0_791_95" style="mask-type:alpha" maskUnits="userSpaceOnUse" x="6" y="6" width="32" height="32">
<rect x="6" y="6" width="32" height="32" fill="#D9D9D9"/>
</mask>
<g mask="url(#mask0_791_95)">
<mask id="mask1_791_95" style="mask-type:alpha" maskUnits="userSpaceOnUse" x="6" y="6" width="32" height="32">
<rect x="6" y="6" width="32" height="32" fill="#D9D9D9"/>
</mask>
<g mask="url(#mask1_791_95)">
<path d="M21.962 33.042C21.9572 31.3622 23.2259 30.007 24.8106 30.0042C26.3565 30.0068 27.6263 31.362 27.6575 33.042C27.6267 34.7031 26.3569 36.0582 24.8106 36.0817C23.2259 36.0582 21.9573 34.7031 21.962 33.042ZM24.8108 34.9619C25.6662 34.9478 26.3745 34.09 26.3833 33.042C26.3745 31.9739 25.6662 31.1161 24.8108 31.1221C23.9183 31.1159 23.2083 31.9737 23.2365 33.042C23.2083 34.0899 23.9183 34.9477 24.8108 34.9619ZM30.8797 31.2822V35.9218H29.6815V31.2822H27.9573V30.2442H32.5288V31.2822H30.8797ZM33.9518 34.6405L33.5032 35.9219H32.0803L34.328 30.2442H35.826L38 35.9219H36.577L36.1274 34.6405H33.9518ZM35.0777 33.682H35.826L35.0777 31.6021L34.328 33.682H35.0777ZM8.84739 31.2822V35.9218H7.6484V31.2822H6V30.2442H10.4966V31.2822H8.84739ZM10.7964 33.042C10.7988 31.3622 12.0669 30.007 13.6428 30.0042C15.1984 30.0068 16.4684 31.362 16.4913 33.042C16.4684 34.7031 15.1984 36.0582 13.6428 36.0817C12.0669 36.0582 10.7987 34.7031 10.7964 33.042ZM13.6428 34.9619C14.5084 34.9478 15.2161 34.09 15.2169 33.042C15.216 31.9739 14.5084 31.1161 13.6428 31.1221C12.7591 31.1159 12.0502 31.9737 12.0708 33.042C12.0502 34.0899 12.7591 34.9477 13.6428 34.9619ZM19.1892 35.9218H19.7881V33.7619L21.8871 30.2442H20.5386L19.1892 32.6421L17.9148 30.2442H16.4914L18.5904 33.7619V35.9218H19.1892Z" fill="#AB002F"/>
<path d="M6.96484 17.7465C6.96484 23.1638 13.5661 27.5714 21.6799 27.5714C29.7935 27.5714 36.3949 23.1638 36.3949 17.7465C36.3948 12.3287 29.7935 7.92163 21.6798 7.92163C13.566 7.92163 6.96484 12.3287 6.96484 17.7465ZM7.4164 17.7465C7.4164 12.5954 13.8148 8.40431 21.6799 8.40431C29.5447 8.40431 35.9434 12.5954 35.9434 17.7465C35.9434 22.8987 29.5447 27.0896 21.6799 27.0896C13.8148 27.0895 7.4164 22.8988 7.4164 17.7465Z" fill="black"/>
<path d="M20.2895 9.70774C16.8455 9.93216 14.344 10.9062 13.9176 12.1895C13.8742 12.3188 13.8518 12.455 13.8515 12.5924C13.8515 12.8089 13.9088 13.0253 14.0226 13.2323C14.5006 14.1013 15.9843 14.8179 18.0956 15.2023L18.3192 15.2413L18.3566 15.0031C18.7032 12.7472 19.464 10.9733 20.4446 10.1357L21.0003 9.66064L20.2895 9.70774ZM14.4124 12.9893C14.3388 12.8557 14.3026 12.7239 14.3026 12.5941C14.3026 12.5122 14.3158 12.4322 14.3431 12.3508C14.6686 11.3705 16.8795 10.5142 19.7039 10.238C18.8982 11.2105 18.2786 12.7776 17.9554 14.6814C16.1201 14.3191 14.8004 13.6951 14.4124 12.9893ZM19.6598 15.1472L19.6157 15.4094L19.8648 15.4296C20.4557 15.4767 21.0665 15.5021 21.6794 15.5021C22.2928 15.5021 22.904 15.4767 23.495 15.4296L23.7437 15.4094L23.6994 15.1472C23.3598 13.1117 22.6041 11.8958 21.6797 11.8958C20.7547 11.8958 19.9994 13.1117 19.6598 15.1472ZM21.6799 12.3776C22.3118 12.3776 22.8952 13.3874 23.2026 14.9638C22.7029 14.9986 22.1938 15.0203 21.6794 15.0203C21.1657 15.0203 20.6564 14.9986 20.1572 14.9638C20.4637 13.3874 21.048 12.3776 21.6799 12.3776ZM22.9146 10.136C23.895 10.9735 24.6565 12.7477 25.0031 15.0033L25.0401 15.2416L25.2633 15.2025C27.3755 14.8181 28.86 14.1013 29.3363 13.2324C29.5216 12.8985 29.5568 12.5378 29.4422 12.1898C29.0159 10.9067 26.5143 9.93264 23.0705 9.70799L22.3607 9.66089L22.9146 10.136ZM23.6568 10.238C26.4803 10.5142 28.6912 11.372 29.0157 12.3508C29.0439 12.4322 29.0571 12.5122 29.0571 12.5941C29.0571 12.7239 29.0201 12.8557 28.9482 12.9893C28.5588 13.695 27.2387 14.3191 25.4043 14.6814C25.0811 12.7777 24.4625 11.2106 23.6568 10.238ZM11.7384 13.1352C10.1906 14.5187 9.37262 16.1622 9.37262 17.889C9.37262 21.9512 14.0146 25.3848 20.1696 25.8741L20.8571 25.9291L20.3337 25.452C18.9852 24.221 18.1478 21.3003 18.1478 17.8293L18.1619 17.0092L17.9732 16.9682C14.7356 16.3491 12.4324 14.8964 12.1044 13.2698L12.026 12.8792L11.7384 13.1352ZM9.82463 17.889C9.82463 16.4083 10.5015 14.9873 11.7724 13.753C12.3645 15.3967 14.5769 16.766 17.7041 17.4031C17.7002 17.5913 17.6967 17.8293 17.6967 17.8293C17.6967 21.0477 18.4124 23.8272 19.5929 25.3268C13.9846 24.6883 9.82463 21.5625 9.82463 17.889ZM19.4759 17.4549L19.4746 17.5424C19.4746 20.7688 20.4226 23.2029 21.6799 23.2029C22.9367 23.2029 23.8848 20.7688 23.8848 17.5424L23.8818 17.1942L23.6393 17.2164C22.9999 17.2761 22.3415 17.3058 21.6801 17.3058C21.0187 17.3058 20.3594 17.2761 19.7217 17.2164L19.4783 17.1929L19.4759 17.4549ZM23.4305 17.7135C23.3966 20.7155 22.5103 22.7214 21.6799 22.7214C20.8487 22.7214 19.9623 20.7155 19.9292 17.7135C20.5033 17.7587 21.0898 17.7869 21.6799 17.7869C22.2708 17.7869 22.8556 17.7587 23.4305 17.7135ZM31.2545 13.2698C30.9269 14.8964 28.6232 16.349 25.3867 16.9682L25.197 17.0058L25.212 17.8292C25.212 21.3002 24.3742 24.221 23.0262 25.4519L22.5027 25.929L23.1893 25.874C29.3449 25.3847 33.987 21.9511 33.987 17.8889C33.987 16.1621 33.1681 14.5186 31.6203 13.1351L31.3337 12.8791L31.2545 13.2698ZM31.5865 13.753C32.8583 14.9873 33.5357 16.4083 33.5357 17.889C33.5357 21.5625 29.3759 24.6883 23.7671 25.3268C24.9475 23.8272 25.6633 21.0477 25.6633 17.8293C25.6633 17.8293 25.6588 17.5911 25.6558 17.4031C28.782 16.766 30.9943 15.3966 31.5865 13.753Z" fill="black"/>
<path d="M31.4145 12.0295C31.4353 12.0907 31.4542 12.1531 31.4691 12.2158C31.5543 12.5767 31.5366 12.9311 31.4264 13.2765C32.8948 14.5687 33.7604 16.1624 33.7604 17.8892C33.7604 22.1992 28.3515 25.694 21.6798 25.694C15.0076 25.694 9.5991 22.1992 9.5991 17.8892C9.5991 16.1638 10.4656 14.5688 11.9323 13.2765C11.8229 12.9311 11.8053 12.5767 11.8904 12.2158C11.908 12.1474 11.9315 12.0808 11.9605 12.0168C9.95673 13.5402 8.74182 15.5366 8.74182 17.723C8.74182 22.4971 14.5339 26.3669 21.6797 26.3669C28.8245 26.3669 34.6175 22.4971 34.6175 17.723C34.6177 15.5411 33.4077 13.5493 31.4145 12.0295Z" fill="url(#paint0_linear_791_95)"/>
<path d="M23.4772 15.1896C22.907 15.2352 22.306 15.2602 21.6793 15.2602C21.0531 15.2602 20.4526 15.2352 19.8824 15.1896H19.8806L19.5079 15.4785C20.1954 15.5424 20.9214 15.5787 21.6797 15.5787C22.4381 15.5787 23.1639 15.5424 23.8519 15.4785L23.4772 15.1896ZM30.0858 12.1611C29.6317 10.5593 25.8878 9.38306 21.6798 9.38306C17.4724 9.38306 13.7287 10.5596 13.2745 12.1611C12.8803 13.5506 15.0322 14.8366 18.4272 15.3467L18.1323 14.9635C15.3859 14.4648 13.7535 13.4014 14.1301 12.2707C14.5865 10.898 17.9016 9.90393 21.6795 9.90393C25.4572 9.90393 28.773 10.8982 29.229 12.2707C29.6051 13.4015 27.9736 14.4649 25.2265 14.9635L24.9326 15.3467C28.3263 14.8366 30.4797 13.5506 30.0858 12.1611Z" fill="url(#paint1_linear_791_95)"/>
<path d="M19.8868 15.1896C20.2021 13.3201 20.8861 12.1517 21.6794 12.1517C22.4736 12.1517 23.157 13.3201 23.4727 15.1896H23.4791L23.8479 15.4752C23.5365 13.0063 22.6838 11.4285 21.6799 11.4285C20.6755 11.4285 19.823 13.0063 19.5121 15.4752L19.8808 15.1896H19.8868Z" fill="url(#paint2_linear_791_95)"/>
<path d="M23.9597 16.8743L23.658 17.4563C23.658 17.4987 23.6598 17.5423 23.6598 17.5865C23.6598 20.6855 22.7717 23.0352 21.6795 23.0352C20.5863 23.0352 19.7 20.6853 19.7 17.5865C19.7 17.5376 19.7009 17.4891 19.7018 17.4422L19.3997 16.8743C19.3909 17.1105 19.3865 17.3469 19.3865 17.5833C19.3865 21.0968 20.4131 23.7582 21.68 23.7582C22.9468 23.7582 23.9743 21.0968 23.9743 17.5833C23.9739 17.3469 23.969 17.1105 23.9597 16.8743Z" fill="url(#paint3_linear_791_95)"/>
<path d="M18.4322 15.3484C18.8662 11.9167 20.156 9.38306 21.68 9.38306C20.0462 9.38306 18.6536 11.6277 18.1368 14.9705L18.4278 15.3484H18.4322Z" fill="url(#paint4_linear_791_95)"/>
<path d="M24.9282 15.3484H24.9312L25.2223 14.9705C24.7064 11.6277 23.3129 9.38306 21.6799 9.38306C23.2039 9.3833 24.4947 11.9167 24.9282 15.3484Z" fill="url(#paint5_linear_791_95)"/>
<path d="M25.425 17.2037L25.0546 16.7317H25.0516C25.0724 17.1067 25.0842 17.4878 25.0842 17.875C25.0842 22.565 23.5598 26.3668 21.6799 26.3668C23.7877 26.3668 25.437 22.8407 25.437 17.875C25.437 17.6478 25.4326 17.4249 25.425 17.2037Z" fill="url(#paint6_linear_791_95)"/>
<path d="M18.2765 17.875C18.2765 17.4878 18.2884 17.1067 18.3087 16.7317H18.3062L17.9349 17.2022C17.927 17.4264 17.9229 17.6507 17.9226 17.875C17.9226 22.8407 19.5732 26.3668 21.6801 26.3668C19.801 26.3668 18.2765 22.5649 18.2765 17.875Z" fill="url(#paint7_linear_791_95)"/>
<path d="M31.4265 13.2765C31.9879 13.7706 32.4615 14.3098 32.8318 14.8825C32.7036 13.9717 32.3641 13.1096 31.8441 12.3745C31.7037 12.2555 31.5605 12.1406 31.4144 12.0297C31.4353 12.0909 31.4543 12.1533 31.4689 12.2161C31.5544 12.5769 31.5368 12.9311 31.4265 13.2765ZM11.9325 13.2765C11.8231 12.9311 11.8055 12.5767 11.8906 12.2158C11.9083 12.1474 11.9317 12.0808 11.9607 12.0168C11.8102 12.1328 11.6618 12.252 11.5159 12.3745C10.9966 13.11 10.6572 13.972 10.5281 14.8825C10.8985 14.3098 11.3711 13.7705 11.9325 13.2765Z" fill="#2D2F34"/>
<path d="M7.19061 17.7467C7.19061 12.4544 13.6772 8.16309 21.6799 8.16309C29.6814 8.16309 36.1681 12.4544 36.1681 17.7467C36.1681 23.04 29.6814 27.3297 21.6799 27.3297C13.6772 27.3296 7.19061 23.0402 7.19061 17.7467ZM21.6798 26.3669C28.8247 26.3669 34.6176 22.4971 34.6176 17.723C34.6176 12.9485 28.8247 9.07738 21.6798 9.07738C14.5339 9.07738 8.74148 12.9487 8.74148 17.723C8.74148 22.4971 14.534 26.3669 21.6798 26.3669Z" fill="url(#paint8_linear_791_95)"/>
<path d="M18.2764 17.8749C18.2764 13.2342 19.8009 9.38306 21.6798 9.38306C23.5596 9.38306 25.0842 13.2342 25.0842 17.8749C25.0842 22.5649 23.5596 26.3667 21.6798 26.3667C19.8 26.3667 18.2764 22.5648 18.2764 17.8749ZM21.6798 23.758C22.9467 23.758 23.9743 21.0966 23.9743 17.5846C23.9743 13.9398 22.9466 11.4286 21.6798 11.4286C20.413 11.4286 19.3864 13.9398 19.3864 17.5846C19.3864 21.0966 20.413 23.758 21.6798 23.758Z" fill="url(#paint9_linear_791_95)"/>
<path d="M11.8904 12.2157C12.2639 10.638 16.7801 8.3418 21.6797 8.3418C26.5788 8.3418 30.94 9.98246 31.4691 12.2157C32.0613 14.7188 27.7089 16.9842 21.6797 16.9842C15.6495 16.9842 11.2973 14.719 11.8904 12.2157ZM21.6797 9.38305C17.4723 9.38305 13.7286 10.5596 13.2745 12.1611C12.7656 13.9554 16.5023 15.5787 21.6797 15.5787C26.8581 15.5787 30.5942 13.9551 30.0857 12.1611C29.6316 10.5593 25.888 9.38305 21.6797 9.38305Z" fill="url(#paint10_linear_791_95)"/>
<path d="M19.3952 16.8696L19.3977 16.8715L19.7086 17.4564C20.3414 17.5141 20.9994 17.5471 21.6798 17.5471C22.3633 17.5471 23.0229 17.5142 23.6599 17.4549L23.9624 16.8713L23.9642 16.8693C23.2366 16.9432 22.4737 16.9841 21.68 16.9841C20.9171 16.9846 20.1546 16.9464 19.3952 16.8696ZM31.5203 12.7571C31.4426 14.5469 28.8644 16.1326 25.0532 16.7302L25.0546 16.7317L25.4263 17.2057C29.1554 16.4904 31.6086 14.7333 31.5203 12.7571ZM11.8394 12.7571C11.7512 14.7353 14.2042 16.4903 17.9326 17.2057L18.3052 16.7317L18.3061 16.7302C14.4943 16.1327 11.9179 14.547 11.8394 12.7571Z" fill="url(#paint11_linear_791_95)"/>
</g>
</g>
<defs>
<linearGradient id="paint0_linear_791_95" x1="21.6797" y1="25.2991" x2="21.6797" y2="14.3788" gradientUnits="userSpaceOnUse">
<stop stop-color="#F0F3F5"/>
<stop offset="0.056" stop-color="#E2E5E8"/>
<stop offset="0.138" stop-color="#D4D8DD"/>
<stop offset="0.242" stop-color="#CCD0D6"/>
<stop offset="0.44" stop-color="#CACED4"/>
<stop offset="0.568" stop-color="#B3B7BD"/>
<stop offset="0.835" stop-color="#797C83"/>
<stop offset="1" stop-color="#52545C"/>
</linearGradient>
<linearGradient id="paint1_linear_791_95" x1="21.6801" y1="16.9784" x2="21.6801" y2="11.0609" gradientUnits="userSpaceOnUse">
<stop stop-color="#F0F3F5"/>
<stop offset="0.056" stop-color="#E2E5E8"/>
<stop offset="0.138" stop-color="#D4D8DD"/>
<stop offset="0.242" stop-color="#CCD0D6"/>
<stop offset="0.44" stop-color="#CACED4"/>
<stop offset="0.568" stop-color="#B3B7BD"/>
<stop offset="0.835" stop-color="#797C83"/>
<stop offset="1" stop-color="#52545C"/>
</linearGradient>
<linearGradient id="paint2_linear_791_95" x1="23.5209" y1="15.8908" x2="19.8749" y2="13.0236" gradientUnits="userSpaceOnUse">
<stop stop-color="#F0F3F5"/>
<stop offset="0.056" stop-color="#E2E5E8"/>
<stop offset="0.138" stop-color="#D4D8DD"/>
<stop offset="0.242" stop-color="#CCD0D6"/>
<stop offset="0.44" stop-color="#CACED4"/>
<stop offset="0.568" stop-color="#B3B7BD"/>
<stop offset="0.835" stop-color="#797C83"/>
<stop offset="1" stop-color="#52545C"/>
</linearGradient>
<linearGradient id="paint3_linear_791_95" x1="23.8732" y1="21.0487" x2="18.6655" y2="18.231" gradientUnits="userSpaceOnUse">
<stop stop-color="#F0F3F5"/>
<stop offset="0.056" stop-color="#E2E5E8"/>
<stop offset="0.138" stop-color="#D4D8DD"/>
<stop offset="0.242" stop-color="#CCD0D6"/>
<stop offset="0.44" stop-color="#CACED4"/>
<stop offset="0.568" stop-color="#B3B7BD"/>
<stop offset="0.835" stop-color="#797C83"/>
<stop offset="1" stop-color="#52545C"/>
</linearGradient>
<linearGradient id="paint4_linear_791_95" x1="19.9085" y1="8.16231" x2="19.9085" y2="17.5481" gradientUnits="userSpaceOnUse">
<stop stop-color="#F0F3F5"/>
<stop offset="0.056" stop-color="#E2E5E8"/>
<stop offset="0.138" stop-color="#D4D8DD"/>
<stop offset="0.242" stop-color="#CCD0D6"/>
<stop offset="0.44" stop-color="#CACED4"/>
<stop offset="0.568" stop-color="#B3B7BD"/>
<stop offset="0.835" stop-color="#797C83"/>
<stop offset="1" stop-color="#52545C"/>
</linearGradient>
<linearGradient id="paint5_linear_791_95" x1="23.4512" y1="8.16231" x2="23.4512" y2="17.5481" gradientUnits="userSpaceOnUse">
<stop stop-color="#F0F3F5"/>
<stop offset="0.056" stop-color="#E2E5E8"/>
<stop offset="0.138" stop-color="#D4D8DD"/>
<stop offset="0.242" stop-color="#CCD0D6"/>
<stop offset="0.44" stop-color="#CACED4"/>
<stop offset="0.568" stop-color="#B3B7BD"/>
<stop offset="0.835" stop-color="#797C83"/>
<stop offset="1" stop-color="#52545C"/>
</linearGradient>
<linearGradient id="paint6_linear_791_95" x1="23.5584" y1="8.08338" x2="23.5584" y2="23.7473" gradientUnits="userSpaceOnUse">
<stop stop-color="#F0F3F5"/>
<stop offset="0.056" stop-color="#E2E5E8"/>
<stop offset="0.138" stop-color="#D4D8DD"/>
<stop offset="0.242" stop-color="#CCD0D6"/>
<stop offset="0.44" stop-color="#CACED4"/>
<stop offset="0.568" stop-color="#B3B7BD"/>
<stop offset="0.835" stop-color="#797C83"/>
<stop offset="1" stop-color="#52545C"/>
</linearGradient>
<linearGradient id="paint7_linear_791_95" x1="19.8013" y1="8.08325" x2="19.8013" y2="23.7472" gradientUnits="userSpaceOnUse">
<stop stop-color="#F0F3F5"/>
<stop offset="0.056" stop-color="#E2E5E8"/>
<stop offset="0.138" stop-color="#D4D8DD"/>
<stop offset="0.242" stop-color="#CCD0D6"/>
<stop offset="0.44" stop-color="#CACED4"/>
<stop offset="0.568" stop-color="#B3B7BD"/>
<stop offset="0.835" stop-color="#797C83"/>
<stop offset="1" stop-color="#52545C"/>
</linearGradient>
<linearGradient id="paint8_linear_791_95" x1="21.6793" y1="8.16309" x2="21.6793" y2="27.3297" gradientUnits="userSpaceOnUse">
<stop stop-color="#F0F3F5"/>
<stop offset="0.253" stop-color="#EDF0F3"/>
<stop offset="0.406" stop-color="#E5E8EA"/>
<stop offset="0.531" stop-color="#D7DADC"/>
<stop offset="0.642" stop-color="#C3C5C9"/>
<stop offset="0.744" stop-color="#A9ABAF"/>
<stop offset="0.839" stop-color="#888B90"/>
<stop offset="0.926" stop-color="#63656B"/>
<stop offset="1" stop-color="#3D3F46"/>
</linearGradient>
<linearGradient id="paint9_linear_791_95" x1="21.6802" y1="8.16195" x2="21.6802" y2="27.3298" gradientUnits="userSpaceOnUse">
<stop stop-color="#F0F3F5"/>
<stop offset="0.253" stop-color="#EDF0F3"/>
<stop offset="0.406" stop-color="#E5E8EA"/>
<stop offset="0.531" stop-color="#D7DADC"/>
<stop offset="0.642" stop-color="#C3C5C9"/>
<stop offset="0.744" stop-color="#A9ABAF"/>
<stop offset="0.839" stop-color="#888B90"/>
<stop offset="0.926" stop-color="#63656B"/>
<stop offset="1" stop-color="#3D3F46"/>
</linearGradient>
<linearGradient id="paint10_linear_791_95" x1="21.6797" y1="8.164" x2="21.6797" y2="27.3314" gradientUnits="userSpaceOnUse">
<stop stop-color="#F0F3F5"/>
<stop offset="0.253" stop-color="#EDF0F3"/>
<stop offset="0.406" stop-color="#E5E8EA"/>
<stop offset="0.531" stop-color="#D7DADC"/>
<stop offset="0.642" stop-color="#C3C5C9"/>
<stop offset="0.744" stop-color="#A9ABAF"/>
<stop offset="0.839" stop-color="#888B90"/>
<stop offset="0.926" stop-color="#63656B"/>
<stop offset="1" stop-color="#3D3F46"/>
</linearGradient>
<linearGradient id="paint11_linear_791_95" x1="21.6799" y1="12.1383" x2="21.6799" y2="17.6009" gradientUnits="userSpaceOnUse">
<stop stop-color="#CACED4"/>
<stop offset="1" stop-color="#52545C"/>
</linearGradient>
</defs>
</svg>
