<svg width="44" height="44" viewBox="0 0 44 44" fill="none" xmlns="http://www.w3.org/2000/svg">
<mask id="mask0_766_51" style="mask-type:alpha" maskUnits="userSpaceOnUse" x="0" y="0" width="44" height="44">
<rect width="44" height="44" fill="#D9D9D9"/>
</mask>
<g mask="url(#mask0_766_51)">
<mask id="mask1_766_51" style="mask-type:alpha" maskUnits="userSpaceOnUse" x="0" y="0" width="44" height="44">
<rect width="44" height="44" fill="#D9D9D9"/>
</mask>
<g mask="url(#mask1_766_51)">
<path d="M21.9478 37.1828C21.9411 34.8731 23.6856 33.0097 25.8646 33.0057C27.9902 33.0094 29.7362 34.8727 29.779 37.1828C29.7367 39.4667 27.9907 41.3301 25.8646 41.3624C23.6856 41.3301 21.9412 39.4667 21.9478 37.1828ZM25.8648 39.8227C27.0411 39.8033 28.0149 38.6238 28.027 37.1828C28.0149 35.7142 27.0411 34.5347 25.8648 34.543C24.6376 34.5344 23.6614 35.7138 23.7002 37.1828C23.6614 38.6237 24.6376 39.8031 25.8648 39.8227ZM34.2095 34.7631V41.1424H32.562V34.7631H30.1913V33.3358H36.4772V34.7631H34.2095ZM38.4337 39.3808L37.8169 41.1426H35.8605L38.9509 33.3358H41.0107L44 41.1426H42.0434L41.4252 39.3808H38.4337ZM39.9818 38.0628H41.0107L39.9818 35.2029L38.9509 38.0628H39.9818ZM3.91516 34.7631V41.1424H2.26655V34.7631H0V33.3358H6.1828V34.7631H3.91516ZM6.59507 37.1828C6.59833 34.8731 8.34194 33.0097 10.5088 33.0057C12.6478 33.0094 14.394 34.8727 14.4256 37.1828C14.394 39.4667 12.6478 41.3301 10.5088 41.3624C8.34194 41.3301 6.59818 39.4667 6.59507 37.1828ZM10.5088 39.8227C11.6991 39.8033 12.6722 38.6238 12.6733 37.1828C12.672 35.7142 11.6991 34.5347 10.5088 34.543C9.29376 34.5344 8.31897 35.7138 8.34737 37.1828C8.31897 38.6237 9.29376 39.8031 10.5088 39.8227ZM18.1352 41.1424H18.9587V38.1726L21.8447 33.3358H19.9906L18.1352 36.6329L16.3829 33.3358H14.4257L17.3118 38.1726V41.1424H18.1352Z" fill="#AB002F"/>
<path d="M1.32666 16.1515C1.32666 23.6003 10.4034 29.6608 21.5598 29.6608C32.7161 29.6608 41.793 23.6003 41.793 16.1515C41.7929 8.702 32.7161 2.64233 21.5597 2.64233C10.4033 2.64233 1.32666 8.702 1.32666 16.1515ZM1.94755 16.1515C1.94755 9.06872 10.7454 3.30602 21.5598 3.30602C32.374 3.30602 41.1721 9.06872 41.1721 16.1515C41.1721 23.2358 32.374 28.9983 21.5598 28.9983C10.7454 28.9981 1.94755 23.2359 1.94755 16.1515Z" fill="black"/>
<path d="M19.6481 5.09821C14.9126 5.40678 11.473 6.74609 10.8867 8.51057C10.827 8.68837 10.7963 8.87575 10.7958 9.06461C10.7958 9.36226 10.8746 9.6599 11.0311 9.94446C11.6883 11.1393 13.7284 12.1247 16.6315 12.6532L16.9388 12.7069L16.9904 12.3793C17.4669 9.27745 18.5129 6.83835 19.8613 5.6867L20.6253 5.03345L19.6481 5.09821ZM11.5671 9.61037C11.4659 9.42669 11.416 9.24549 11.416 9.06693C11.416 8.9543 11.4342 8.84432 11.4718 8.73236C11.9193 7.38444 14.9593 6.20712 18.8428 5.82732C17.735 7.16448 16.8831 9.31919 16.4387 11.937C13.9151 11.4388 12.1006 10.5808 11.5671 9.61037ZM18.7822 12.5775L18.7216 12.9379L19.0641 12.9658C19.8766 13.0305 20.7165 13.0655 21.5592 13.0655C22.4026 13.0655 23.243 13.0305 24.0556 12.9658L24.3976 12.9379L24.3367 12.5775C23.8696 9.77866 22.8306 8.10676 21.5596 8.10676C20.2877 8.10676 19.2492 9.77866 18.7822 12.5775ZM21.5598 8.76929C22.4287 8.76929 23.2309 10.1578 23.6536 12.3253C22.9664 12.3731 22.2665 12.4029 21.5592 12.4029C20.8527 12.4029 20.1525 12.3731 19.4662 12.3253C19.8876 10.1578 20.691 8.76929 21.5598 8.76929ZM23.2576 5.68703C24.6056 6.83868 25.6527 9.27812 26.1292 12.3796L26.1801 12.7072L26.487 12.6535C29.3914 12.125 31.4325 11.1393 32.0874 9.94462C32.3421 9.48549 32.3906 8.98958 32.233 8.51107C31.6469 6.74675 28.2072 5.40745 23.472 5.09854L22.4959 5.03378L23.2576 5.68703ZM24.278 5.82732C28.1604 6.20712 31.2003 7.38659 31.6466 8.73236C31.6854 8.84432 31.7035 8.9543 31.7035 9.06693C31.7035 9.24549 31.6526 9.42669 31.5538 9.61037C31.0184 10.5807 29.2032 11.4388 26.6809 11.937C26.2365 9.31936 25.3859 7.16464 24.278 5.82732ZM7.89032 9.81096C5.76207 11.7132 4.63733 13.9731 4.63733 16.3475C4.63733 21.933 11.0201 26.6541 19.4832 27.3269L20.4285 27.4026L19.7088 26.7466C17.8546 25.054 16.7032 21.038 16.7032 16.2653L16.7226 15.1377L16.4631 15.0814C12.0115 14.23 8.84447 12.2327 8.39355 9.99597L8.28567 9.45899L7.89032 9.81096ZM5.25884 16.3475C5.25884 14.3115 6.18955 12.3576 7.93704 10.6605C8.75118 12.9205 11.7932 14.8033 16.0932 15.6793C16.0877 15.938 16.0829 16.2653 16.0829 16.2653C16.0829 20.6907 17.067 24.5125 18.6902 26.5745C10.9788 25.6965 5.25884 21.3985 5.25884 16.3475ZM18.5294 15.7505L18.5275 15.8708C18.5275 20.3071 19.8311 23.654 21.5598 23.654C23.2879 23.654 24.5916 20.3071 24.5916 15.8708L24.5874 15.3921L24.254 15.4226C23.3748 15.5047 22.4695 15.5455 21.5601 15.5455C20.6506 15.5455 19.7442 15.5047 18.8673 15.4226L18.5326 15.3903L18.5294 15.7505ZM23.967 16.1062C23.9202 20.2339 22.7016 22.992 21.5598 22.992C20.4169 22.992 19.1981 20.2339 19.1526 16.1062C19.9421 16.1683 20.7484 16.207 21.5598 16.207C22.3724 16.207 23.1764 16.1683 23.967 16.1062ZM34.7249 9.99597C34.2745 12.2327 31.1069 14.2299 26.6567 15.0814L26.3959 15.1331L26.4165 16.2652C26.4165 21.0379 25.2645 25.054 23.411 26.7464L22.6912 27.4025L23.6353 27.3268C32.0992 26.654 38.4821 21.9328 38.4821 16.3473C38.4821 13.973 37.3561 11.7131 35.2279 9.81079L34.8337 9.45882L34.7249 9.99597ZM35.1814 10.6605C36.9302 12.3576 37.8615 14.3115 37.8615 16.3475C37.8615 21.3985 32.1419 25.6965 24.4297 26.5745C26.0528 24.5125 27.0369 20.6907 27.0369 16.2653C27.0369 16.2653 27.0309 15.9379 27.0267 15.6793C31.3253 14.8033 34.3671 12.9204 35.1814 10.6605Z" fill="black"/>
<path d="M34.945 8.29071C34.9735 8.37485 34.9996 8.46065 35.0201 8.54694C35.1371 9.04318 35.1129 9.53047 34.9613 10.0053C36.9804 11.7821 38.1706 13.9734 38.1706 16.3477C38.1706 22.2741 30.7333 27.0794 21.5597 27.0794C12.3855 27.0794 4.94878 22.2741 4.94878 16.3477C4.94878 13.9754 6.14026 11.7822 8.1569 10.0053C8.00649 9.53047 7.98228 9.04318 8.09932 8.54694C8.12354 8.45278 8.1558 8.36119 8.19571 8.27332C5.44052 10.3679 3.77002 13.1129 3.77002 16.1193C3.77002 22.6837 11.7341 28.0046 21.5595 28.0046C31.3837 28.0046 39.3491 22.6837 39.3491 16.1193C39.3494 13.1192 37.6856 10.3805 34.945 8.29071Z" fill="url(#paint0_linear_766_51)"/>
<path d="M24.0312 12.6358C23.2471 12.6986 22.4207 12.7329 21.5591 12.7329C20.6981 12.7329 19.8723 12.6986 19.0883 12.6358H19.0858L18.5734 13.033C19.5187 13.121 20.5169 13.1708 21.5596 13.1708C22.6024 13.1708 23.6004 13.121 24.5464 13.033L24.0312 12.6358ZM33.118 8.47168C32.4936 6.26926 27.3458 4.65186 21.5597 4.65186C15.7746 4.65186 10.627 6.26959 10.0025 8.47168C9.46048 10.3822 12.4193 12.1505 17.0875 12.8518L16.6819 12.325C12.9056 11.6392 10.6611 10.177 11.1789 8.6224C11.8065 6.73485 16.3648 5.36805 21.5593 5.36805C26.7536 5.36805 31.3129 6.73518 31.9399 8.6224C32.4571 10.1772 30.2137 11.6394 26.4365 12.325L26.0323 12.8518C30.6987 12.1505 33.6596 10.3822 33.118 8.47168Z" fill="url(#paint1_linear_766_51)"/>
<path d="M19.0944 12.6358C19.5279 10.0652 20.4684 8.45869 21.5592 8.45869C22.6512 8.45869 23.5909 10.0652 24.025 12.6358H24.0337L24.5408 13.0285C24.1127 9.63369 22.9402 7.46423 21.56 7.46423C20.1788 7.46423 19.0067 9.63369 18.5792 13.0285L19.0862 12.6358H19.0944Z" fill="url(#paint2_linear_766_51)"/>
<path d="M24.6945 14.952L24.2798 15.7524C24.2798 15.8107 24.2823 15.8706 24.2823 15.9314C24.2823 20.1925 23.0611 23.4233 21.5594 23.4233C20.0562 23.4233 18.8375 20.1921 18.8375 15.9314C18.8375 15.8642 18.8388 15.7974 18.84 15.733L18.4247 14.952C18.4124 15.2768 18.4064 15.6019 18.4065 15.9269C18.4065 20.7579 19.8181 24.4174 21.56 24.4174C23.3019 24.4174 24.7147 20.7579 24.7147 15.9269C24.7141 15.6019 24.7074 15.2768 24.6945 14.952Z" fill="url(#paint3_linear_766_51)"/>
<path d="M17.0943 12.8539C17.691 8.13536 19.4646 4.65161 21.5601 4.65161C19.3135 4.65161 17.3987 7.73801 16.6881 12.3343L17.0883 12.8539H17.0943Z" fill="url(#paint4_linear_766_51)"/>
<path d="M26.0263 12.8539H26.0305L26.4306 12.3343C25.7213 7.73801 23.8052 4.65161 21.5599 4.65161C23.6554 4.65194 25.4302 8.13536 26.0263 12.8539Z" fill="url(#paint5_linear_766_51)"/>
<path d="M26.7094 15.4049L26.2001 14.756H26.196C26.2245 15.2716 26.2408 15.7957 26.2408 16.328C26.2408 22.7767 24.1447 28.0043 21.5599 28.0043C24.4581 28.0043 26.7259 23.1559 26.7259 16.328C26.7259 16.0156 26.7198 15.7092 26.7094 15.4049Z" fill="url(#paint6_linear_766_51)"/>
<path d="M16.8802 16.3281C16.8802 15.7958 16.8965 15.2717 16.9244 14.7561H16.921L16.4105 15.4031C16.3997 15.7113 16.394 16.0197 16.3936 16.3281C16.3936 23.156 18.6631 28.0044 21.5601 28.0044C18.9763 28.0044 16.8802 22.7767 16.8802 16.3281Z" fill="url(#paint7_linear_766_51)"/>
<path d="M34.9614 10.0051C35.7333 10.6845 36.3845 11.4259 36.8937 12.2133C36.7174 10.961 36.2505 9.77558 35.5356 8.76484C35.3426 8.60123 35.1456 8.44316 34.9448 8.29079C34.9735 8.37494 34.9996 8.46073 35.0198 8.54703C35.1373 9.0431 35.113 9.53022 34.9614 10.0051ZM8.15719 10.0051C8.00678 9.53022 7.98257 9.04293 8.0996 8.5467C8.12382 8.45253 8.15609 8.36094 8.196 8.27307C7.98895 8.4325 7.78499 8.59645 7.58427 8.76484C6.87032 9.77622 6.40356 10.9613 6.22607 12.2133C6.73536 11.4259 7.38527 10.6844 8.15719 10.0051Z" fill="#2D2F34"/>
<path d="M1.63708 16.1516C1.63708 8.87474 10.5561 2.97424 21.5598 2.97424C32.562 2.97424 41.4812 8.87474 41.4812 16.1516C41.4812 23.43 32.562 29.3284 21.5598 29.3284C10.5561 29.3282 1.63708 23.4302 1.63708 16.1516ZM21.5597 28.0045C31.384 28.0045 39.3492 22.6835 39.3492 16.1192C39.3492 9.55417 31.384 4.2314 21.5597 4.2314C11.7341 4.2314 3.76952 9.5545 3.76952 16.1192C3.76952 22.6835 11.7343 28.0045 21.5597 28.0045Z" fill="url(#paint8_linear_766_51)"/>
<path d="M16.8801 16.3281C16.8801 9.94713 18.9762 4.65186 21.5598 4.65186C24.1445 4.65186 26.2408 9.94713 26.2408 16.3281C26.2408 22.7769 24.1445 28.0044 21.5598 28.0044C18.975 28.0044 16.8801 22.7767 16.8801 16.3281ZM21.5598 24.4175C23.3018 24.4175 24.7146 20.758 24.7146 15.929C24.7146 10.9174 23.3017 7.46446 21.5598 7.46446C19.8179 7.46446 18.4063 10.9174 18.4063 15.929C18.4063 20.758 19.8179 24.4175 21.5598 24.4175Z" fill="url(#paint9_linear_766_51)"/>
<path d="M8.09938 8.54667C8.61286 6.37738 14.8227 3.22009 21.5596 3.22009C28.2959 3.22009 34.2925 5.47601 35.02 8.54667C35.8343 11.9885 29.8497 15.1034 21.5596 15.1034C13.2681 15.1034 7.28385 11.9887 8.09938 8.54667ZM21.5596 4.65182C15.7745 4.65182 10.6269 6.26956 10.0024 8.47164C9.30266 10.9387 14.4407 13.1708 21.5596 13.1708C28.68 13.1708 33.817 10.9384 33.1179 8.47164C32.4935 6.26923 27.346 4.65182 21.5596 4.65182Z" fill="url(#paint10_linear_766_51)"/>
<path d="M18.4183 14.9456L18.4219 14.9482L18.8494 15.7524C19.7194 15.8317 20.6242 15.8771 21.5597 15.8771C22.4996 15.8771 23.4065 15.8319 24.2823 15.7504L24.6983 14.9479L24.7008 14.9453C23.7004 15.0468 22.6514 15.1031 21.56 15.1031C20.511 15.1038 19.4626 15.0512 18.4183 14.9456ZM35.0904 9.29089C34.9836 11.7519 31.4385 13.9323 26.1982 14.754L26.2001 14.7559L26.7112 15.4077C31.8387 14.4242 35.2118 12.0083 35.0904 9.29089ZM8.02916 9.29089C7.90794 12.0109 11.2808 14.424 16.4073 15.4077L16.9197 14.7559L16.9209 14.754C11.6797 13.9324 8.13704 11.752 8.02916 9.29089Z" fill="url(#paint11_linear_766_51)"/>
</g>
</g>
<defs>
<linearGradient id="paint0_linear_766_51" x1="21.5595" y1="26.5365" x2="21.5595" y2="11.521" gradientUnits="userSpaceOnUse">
<stop stop-color="#F0F3F5"/>
<stop offset="0.056" stop-color="#E2E5E8"/>
<stop offset="0.138" stop-color="#D4D8DD"/>
<stop offset="0.242" stop-color="#CCD0D6"/>
<stop offset="0.44" stop-color="#CACED4"/>
<stop offset="0.568" stop-color="#B3B7BD"/>
<stop offset="0.835" stop-color="#797C83"/>
<stop offset="1" stop-color="#52545C"/>
</linearGradient>
<linearGradient id="paint1_linear_766_51" x1="21.5602" y1="15.0955" x2="21.5602" y2="6.95895" gradientUnits="userSpaceOnUse">
<stop stop-color="#F0F3F5"/>
<stop offset="0.056" stop-color="#E2E5E8"/>
<stop offset="0.138" stop-color="#D4D8DD"/>
<stop offset="0.242" stop-color="#CCD0D6"/>
<stop offset="0.44" stop-color="#CACED4"/>
<stop offset="0.568" stop-color="#B3B7BD"/>
<stop offset="0.835" stop-color="#797C83"/>
<stop offset="1" stop-color="#52545C"/>
</linearGradient>
<linearGradient id="paint2_linear_766_51" x1="24.0913" y1="13.5999" x2="19.078" y2="9.65761" gradientUnits="userSpaceOnUse">
<stop stop-color="#F0F3F5"/>
<stop offset="0.056" stop-color="#E2E5E8"/>
<stop offset="0.138" stop-color="#D4D8DD"/>
<stop offset="0.242" stop-color="#CCD0D6"/>
<stop offset="0.44" stop-color="#CACED4"/>
<stop offset="0.568" stop-color="#B3B7BD"/>
<stop offset="0.835" stop-color="#797C83"/>
<stop offset="1" stop-color="#52545C"/>
</linearGradient>
<linearGradient id="paint3_linear_766_51" x1="24.5756" y1="20.6919" x2="17.4151" y2="16.8176" gradientUnits="userSpaceOnUse">
<stop stop-color="#F0F3F5"/>
<stop offset="0.056" stop-color="#E2E5E8"/>
<stop offset="0.138" stop-color="#D4D8DD"/>
<stop offset="0.242" stop-color="#CCD0D6"/>
<stop offset="0.44" stop-color="#CACED4"/>
<stop offset="0.568" stop-color="#B3B7BD"/>
<stop offset="0.835" stop-color="#797C83"/>
<stop offset="1" stop-color="#52545C"/>
</linearGradient>
<linearGradient id="paint4_linear_766_51" x1="19.1242" y1="2.97309" x2="19.1242" y2="15.8785" gradientUnits="userSpaceOnUse">
<stop stop-color="#F0F3F5"/>
<stop offset="0.056" stop-color="#E2E5E8"/>
<stop offset="0.138" stop-color="#D4D8DD"/>
<stop offset="0.242" stop-color="#CCD0D6"/>
<stop offset="0.44" stop-color="#CACED4"/>
<stop offset="0.568" stop-color="#B3B7BD"/>
<stop offset="0.835" stop-color="#797C83"/>
<stop offset="1" stop-color="#52545C"/>
</linearGradient>
<linearGradient id="paint5_linear_766_51" x1="23.9954" y1="2.97309" x2="23.9954" y2="15.8785" gradientUnits="userSpaceOnUse">
<stop stop-color="#F0F3F5"/>
<stop offset="0.056" stop-color="#E2E5E8"/>
<stop offset="0.138" stop-color="#D4D8DD"/>
<stop offset="0.242" stop-color="#CCD0D6"/>
<stop offset="0.44" stop-color="#CACED4"/>
<stop offset="0.568" stop-color="#B3B7BD"/>
<stop offset="0.835" stop-color="#797C83"/>
<stop offset="1" stop-color="#52545C"/>
</linearGradient>
<linearGradient id="paint6_linear_766_51" x1="24.1428" y1="2.86455" x2="24.1428" y2="24.4024" gradientUnits="userSpaceOnUse">
<stop stop-color="#F0F3F5"/>
<stop offset="0.056" stop-color="#E2E5E8"/>
<stop offset="0.138" stop-color="#D4D8DD"/>
<stop offset="0.242" stop-color="#CCD0D6"/>
<stop offset="0.44" stop-color="#CACED4"/>
<stop offset="0.568" stop-color="#B3B7BD"/>
<stop offset="0.835" stop-color="#797C83"/>
<stop offset="1" stop-color="#52545C"/>
</linearGradient>
<linearGradient id="paint7_linear_766_51" x1="18.9768" y1="2.86451" x2="18.9768" y2="24.4024" gradientUnits="userSpaceOnUse">
<stop stop-color="#F0F3F5"/>
<stop offset="0.056" stop-color="#E2E5E8"/>
<stop offset="0.138" stop-color="#D4D8DD"/>
<stop offset="0.242" stop-color="#CCD0D6"/>
<stop offset="0.44" stop-color="#CACED4"/>
<stop offset="0.568" stop-color="#B3B7BD"/>
<stop offset="0.835" stop-color="#797C83"/>
<stop offset="1" stop-color="#52545C"/>
</linearGradient>
<linearGradient id="paint8_linear_766_51" x1="21.5591" y1="2.97424" x2="21.5591" y2="29.3284" gradientUnits="userSpaceOnUse">
<stop stop-color="#F0F3F5"/>
<stop offset="0.253" stop-color="#EDF0F3"/>
<stop offset="0.406" stop-color="#E5E8EA"/>
<stop offset="0.531" stop-color="#D7DADC"/>
<stop offset="0.642" stop-color="#C3C5C9"/>
<stop offset="0.744" stop-color="#A9ABAF"/>
<stop offset="0.839" stop-color="#888B90"/>
<stop offset="0.926" stop-color="#63656B"/>
<stop offset="1" stop-color="#3D3F46"/>
</linearGradient>
<linearGradient id="paint9_linear_766_51" x1="21.5604" y1="2.97284" x2="21.5604" y2="29.3286" gradientUnits="userSpaceOnUse">
<stop stop-color="#F0F3F5"/>
<stop offset="0.253" stop-color="#EDF0F3"/>
<stop offset="0.406" stop-color="#E5E8EA"/>
<stop offset="0.531" stop-color="#D7DADC"/>
<stop offset="0.642" stop-color="#C3C5C9"/>
<stop offset="0.744" stop-color="#A9ABAF"/>
<stop offset="0.839" stop-color="#888B90"/>
<stop offset="0.926" stop-color="#63656B"/>
<stop offset="1" stop-color="#3D3F46"/>
</linearGradient>
<linearGradient id="paint10_linear_766_51" x1="21.5596" y1="2.97562" x2="21.5596" y2="29.3308" gradientUnits="userSpaceOnUse">
<stop stop-color="#F0F3F5"/>
<stop offset="0.253" stop-color="#EDF0F3"/>
<stop offset="0.406" stop-color="#E5E8EA"/>
<stop offset="0.531" stop-color="#D7DADC"/>
<stop offset="0.642" stop-color="#C3C5C9"/>
<stop offset="0.744" stop-color="#A9ABAF"/>
<stop offset="0.839" stop-color="#888B90"/>
<stop offset="0.926" stop-color="#63656B"/>
<stop offset="1" stop-color="#3D3F46"/>
</linearGradient>
<linearGradient id="paint11_linear_766_51" x1="21.5599" y1="8.44004" x2="21.5599" y2="15.9511" gradientUnits="userSpaceOnUse">
<stop stop-color="#CACED4"/>
<stop offset="1" stop-color="#52545C"/>
</linearGradient>
</defs>
</svg>
