<svg width="98" height="24" viewBox="0 0 98 24" fill="none" xmlns="http://www.w3.org/2000/svg">
<path d="M25.7577 8.50525H35.672V10.3464H31.7683V20.7253H29.6287V10.3464H25.7413L25.7577 8.50525ZM35.2473 11.878H37.0767V13.5888H37.1093C37.1747 13.3444 37.289 13.1163 37.4523 12.8882C37.6157 12.6601 37.8117 12.4483 38.0567 12.269C38.2853 12.0735 38.5467 11.9269 38.8407 11.8128C39.1183 11.6988 39.4123 11.6336 39.7063 11.6336C39.935 11.6336 40.0983 11.6499 40.18 11.6499C40.2617 11.6662 40.3597 11.6825 40.4413 11.6825V13.5562C40.3107 13.5236 40.1637 13.5073 40.0167 13.491C39.8697 13.4747 39.739 13.4585 39.592 13.4585C39.2653 13.4585 38.955 13.5236 38.661 13.654C38.367 13.7843 38.122 13.9798 37.8933 14.2242C37.681 14.4849 37.5013 14.7945 37.3707 15.1693C37.24 15.544 37.1747 15.9839 37.1747 16.4727V20.6765H35.2147L35.2473 11.878ZM49.4247 20.7253H47.4973V19.487H47.4647C47.2197 19.9432 46.8603 20.2854 46.3867 20.5624C45.913 20.8394 45.423 20.9697 44.933 20.9697C43.7733 20.9697 42.924 20.6927 42.4013 20.1062C41.8787 19.5359 41.6173 18.6561 41.6173 17.4992V11.878H43.5773V17.3037C43.5773 18.0858 43.7243 18.6398 44.0347 18.9493C44.3287 19.2752 44.7533 19.4381 45.2923 19.4381C45.7007 19.4381 46.0437 19.373 46.3213 19.2426C46.599 19.1123 46.8277 18.9493 46.991 18.7375C47.1707 18.5257 47.285 18.265 47.3667 17.9717C47.4483 17.6785 47.481 17.3526 47.481 17.0104V11.878H49.441V20.7253H49.4247ZM52.7567 17.8903C52.822 18.4605 53.0343 18.8516 53.41 19.096C53.7857 19.3241 54.243 19.4381 54.7657 19.4381C54.9453 19.4381 55.1577 19.4219 55.3863 19.3893C55.615 19.3567 55.8437 19.3078 56.0397 19.2263C56.252 19.1449 56.4153 19.0308 56.546 18.8679C56.6767 18.7049 56.742 18.5094 56.7257 18.265C56.7093 18.0206 56.6277 17.8088 56.448 17.6459C56.2683 17.4829 56.056 17.3689 55.7947 17.2548C55.5333 17.1571 55.223 17.0756 54.88 17.0104C54.537 16.9453 54.194 16.8638 53.8347 16.7823C53.4753 16.7009 53.116 16.6031 52.773 16.489C52.43 16.375 52.136 16.2283 51.8583 16.0165C51.597 15.821 51.3683 15.5766 51.2213 15.267C51.058 14.9575 50.9763 14.599 50.9763 14.1428C50.9763 13.654 51.0907 13.2629 51.3357 12.9371C51.5643 12.6112 51.8747 12.3505 52.234 12.155C52.5933 11.9595 53.0017 11.8128 53.4427 11.7313C53.8837 11.6499 54.3083 11.6173 54.7003 11.6173C55.1577 11.6173 55.5987 11.6662 56.007 11.7639C56.4153 11.8617 56.8073 12.0083 57.134 12.2364C57.477 12.4483 57.7547 12.7415 57.967 13.0837C58.1957 13.4259 58.3263 13.8495 58.3917 14.3383H56.35C56.252 13.8658 56.0397 13.5562 55.713 13.3933C55.37 13.2303 54.9943 13.1489 54.5533 13.1489C54.4227 13.1489 54.243 13.1652 54.0633 13.1815C53.8673 13.2141 53.704 13.2466 53.5243 13.3118C53.361 13.377 53.214 13.4747 53.0997 13.5888C52.9853 13.7029 52.92 13.8658 52.92 14.0613C52.92 14.3057 53.0017 14.4849 53.165 14.6316C53.3283 14.7782 53.5407 14.8923 53.8183 15.0063C54.0797 15.1041 54.39 15.1856 54.733 15.2507C55.076 15.3159 55.4353 15.3974 55.7947 15.4788C56.154 15.5603 56.497 15.6581 56.84 15.7721C57.183 15.8862 57.4933 16.0328 57.7547 16.2446C58.016 16.4402 58.2447 16.6846 58.408 16.9778C58.5713 17.2711 58.653 17.6459 58.653 18.0695C58.653 18.5909 58.5387 19.0308 58.2937 19.4056C58.0487 19.764 57.7383 20.0736 57.3627 20.3017C56.987 20.5298 56.546 20.6927 56.0887 20.8068C55.615 20.9046 55.1577 20.9697 54.7003 20.9697C54.145 20.9697 53.6223 20.9046 53.1487 20.7742C52.675 20.6439 52.2503 20.4483 51.9073 20.2039C51.5643 19.9432 51.2867 19.6337 51.0907 19.2426C50.8947 18.8679 50.7803 18.4117 50.764 17.874H52.7403V17.8903H52.7567ZM59.2083 11.878H60.6947V9.20587H62.6547V11.8617H64.4186V13.3118H62.6547V18.0369C62.6547 18.2487 62.671 18.4117 62.6873 18.5746C62.7036 18.7212 62.7527 18.8516 62.8017 18.9493C62.867 19.0471 62.965 19.1286 63.0793 19.1775C63.21 19.2263 63.3733 19.2589 63.602 19.2589C63.7327 19.2589 63.8797 19.2589 64.0103 19.2426C64.141 19.2263 64.288 19.21 64.4186 19.1775V20.6927C64.2063 20.7253 63.994 20.7416 63.7817 20.7579C63.5693 20.7905 63.3733 20.7905 63.1446 20.7905C62.622 20.7905 62.2136 20.7416 61.9033 20.6439C61.593 20.5461 61.348 20.3995 61.1683 20.2202C60.9887 20.0247 60.8743 19.7966 60.809 19.5196C60.7436 19.2426 60.711 18.9005 60.6947 18.542V13.3281H59.2083V11.8454V11.878ZM65.7906 11.878H67.6363V13.0837H67.669C67.9466 12.5623 68.3223 12.2039 68.8123 11.9758C69.3023 11.7476 69.825 11.6336 70.413 11.6336C71.1153 11.6336 71.7196 11.7476 72.2423 12.0083C72.765 12.2527 73.1896 12.5786 73.5326 13.0185C73.8756 13.4422 74.137 13.9473 74.3003 14.5175C74.4636 15.0878 74.5616 15.7069 74.5616 16.3424C74.5616 16.9453 74.48 17.5155 74.333 18.0695C74.1696 18.6235 73.941 19.1286 73.6306 19.5522C73.3203 19.9758 72.9283 20.318 72.4383 20.5787C71.9483 20.8394 71.393 20.9697 70.7396 20.9697C70.462 20.9697 70.168 20.9372 69.8903 20.8883C69.6126 20.8394 69.335 20.7579 69.0736 20.6439C68.8123 20.5298 68.5673 20.3832 68.355 20.2039C68.1263 20.0247 67.9466 19.8129 67.7996 19.5848H67.767V24.0003H65.807V11.878H65.7906ZM72.6343 16.3098C72.6343 15.9188 72.5853 15.5277 72.471 15.153C72.373 14.7782 72.2096 14.4524 71.9973 14.1591C71.785 13.8658 71.5236 13.6377 71.2296 13.4585C70.9193 13.2792 70.56 13.1978 70.168 13.1978C69.3513 13.1978 68.7306 13.4748 68.306 14.045C67.8977 14.6153 67.6853 15.3811 67.6853 16.3261C67.6853 16.7823 67.7343 17.1897 67.8486 17.5644C67.963 17.9392 68.11 18.265 68.3386 18.542C68.551 18.819 68.8123 19.0308 69.1227 19.1937C69.433 19.3567 69.776 19.4381 70.1843 19.4381C70.6416 19.4381 71.001 19.3404 71.3113 19.1612C71.6216 18.9819 71.8666 18.7375 72.079 18.4605C72.275 18.1673 72.422 17.8414 72.5036 17.4666C72.5853 17.0756 72.6343 16.7009 72.6343 16.3098ZM76.0806 8.50525H78.0406V10.3464H76.0806V8.50525ZM76.0806 11.878H78.0406V20.7253H76.0806V11.878ZM79.7883 8.50525H81.7483V20.7253H79.7883V8.50525ZM87.7263 20.9697C87.024 20.9697 86.387 20.8557 85.8316 20.6113C85.2763 20.3669 84.819 20.0573 84.427 19.65C84.0513 19.2426 83.7573 18.7375 83.5613 18.1673C83.3653 17.597 83.251 16.9615 83.251 16.2935C83.251 15.6255 83.349 15.0063 83.5613 14.4361C83.7573 13.8658 84.0513 13.377 84.427 12.9534C84.8026 12.546 85.2763 12.2202 85.8316 11.992C86.387 11.7639 87.024 11.6336 87.7263 11.6336C88.4286 11.6336 89.0656 11.7476 89.621 11.992C90.1763 12.2202 90.6336 12.546 91.0256 12.9534C91.4013 13.3607 91.6953 13.8658 91.8913 14.4361C92.0873 15.0063 92.2016 15.6255 92.2016 16.2935C92.2016 16.9778 92.1036 17.597 91.8913 18.1673C91.679 18.7375 91.4013 19.2263 91.0256 19.65C90.65 20.0573 90.1763 20.3832 89.621 20.6113C89.0656 20.8394 88.445 20.9697 87.7263 20.9697ZM87.7263 19.4219C88.151 19.4219 88.543 19.3241 88.8533 19.1449C89.18 18.9656 89.425 18.7212 89.6373 18.428C89.8496 18.1347 89.9966 17.7925 90.0946 17.4341C90.1926 17.0593 90.2416 16.6846 90.2416 16.2935C90.2416 15.9188 90.1926 15.544 90.0946 15.1693C89.9966 14.7945 89.8496 14.4686 89.6373 14.1754C89.425 13.8821 89.1636 13.654 88.8533 13.4748C88.5266 13.2955 88.151 13.1978 87.7263 13.1978C87.3016 13.1978 86.9096 13.2955 86.5993 13.4748C86.2726 13.654 86.0276 13.8984 85.8153 14.1754C85.603 14.4686 85.456 14.7945 85.358 15.1693C85.26 15.544 85.211 15.9188 85.211 16.2935C85.211 16.6846 85.26 17.0593 85.358 17.4341C85.456 17.8088 85.603 18.1347 85.8153 18.428C86.0276 18.7212 86.289 18.9656 86.5993 19.1449C86.926 19.3404 87.3016 19.4219 87.7263 19.4219ZM92.7896 11.878H94.276V9.20587H96.236V11.8617H98V13.3118H96.236V18.0369C96.236 18.2487 96.2523 18.4117 96.2686 18.5746C96.285 18.7212 96.334 18.8516 96.383 18.9493C96.4483 19.0471 96.5463 19.1286 96.6606 19.1775C96.7913 19.2263 96.9546 19.2589 97.1833 19.2589C97.314 19.2589 97.461 19.2589 97.5916 19.2426C97.7223 19.2263 97.8693 19.21 98 19.1775V20.6927C97.7876 20.7253 97.5753 20.7416 97.363 20.7579C97.1506 20.7905 96.9546 20.7905 96.726 20.7905C96.2033 20.7905 95.795 20.7416 95.4846 20.6439C95.1743 20.5461 94.9293 20.3995 94.7496 20.2202C94.57 20.0247 94.4556 19.7966 94.3903 19.5196C94.325 19.2426 94.2923 18.9005 94.276 18.542V13.3281H92.7896V11.8454V11.878Z" fill="white"/>
<path d="M23.471 8.50518H14.504L11.7437 0L8.967 8.50518L0 8.48889L7.252 13.7517L4.47533 22.2568L11.7273 16.9941L18.9793 22.2568L16.219 13.7517L23.471 8.50518Z" fill="#00B67A"/>
<path d="M16.8396 15.6743L16.219 13.7517L11.7437 16.9941L16.8396 15.6743Z" fill="#005128"/>
</svg>
