<svg width="98" height="24" viewBox="0 0 98 24" fill="none" xmlns="http://www.w3.org/2000/svg">
<path d="M25.7577 8.50537H35.6721V10.3465H31.7684V20.7255H29.6287V10.3465H25.7414L25.7577 8.50537ZM35.2474 11.8781H37.0767V13.5889H37.1094C37.1747 13.3445 37.2891 13.1164 37.4524 12.8883C37.6157 12.6602 37.8117 12.4484 38.0567 12.2692C38.2854 12.0736 38.5467 11.927 38.8407 11.8129C39.1184 11.6989 39.4124 11.6337 39.7064 11.6337C39.9351 11.6337 40.0984 11.65 40.1801 11.65C40.2617 11.6663 40.3597 11.6826 40.4414 11.6826V13.5563C40.3107 13.5238 40.1637 13.5075 40.0167 13.4912C39.8697 13.4749 39.7391 13.4586 39.5921 13.4586C39.2654 13.4586 38.9551 13.5237 38.6611 13.6541C38.3671 13.7844 38.1221 13.98 37.8934 14.2244C37.6811 14.4851 37.5014 14.7946 37.3707 15.1694C37.2401 15.5441 37.1747 15.9841 37.1747 16.4729V20.6766H35.2147L35.2474 11.8781ZM49.4247 20.7255H47.4974V19.4872H47.4647C47.2197 19.9434 46.8604 20.2855 46.3867 20.5625C45.9131 20.8395 45.4231 20.9699 44.9331 20.9699C43.7734 20.9699 42.9241 20.6929 42.4014 20.1063C41.8787 19.536 41.6174 18.6562 41.6174 17.4994V11.8781H43.5774V17.3038C43.5774 18.0859 43.7244 18.6399 44.0347 18.9495C44.3287 19.2753 44.7534 19.4383 45.2924 19.4383C45.7007 19.4383 46.0437 19.3731 46.3214 19.2428C46.5991 19.1124 46.8277 18.9495 46.9911 18.7377C47.1707 18.5258 47.2851 18.2651 47.3667 17.9719C47.4484 17.6786 47.4811 17.3527 47.4811 17.0105V11.8781H49.4411V20.7255H49.4247ZM52.7567 17.8904C52.822 18.4607 53.0344 18.8517 53.41 19.0961C53.7857 19.3242 54.243 19.4383 54.7657 19.4383C54.9454 19.4383 55.1577 19.422 55.3864 19.3894C55.615 19.3568 55.8437 19.3079 56.0397 19.2265C56.252 19.145 56.4154 19.0309 56.546 18.868C56.6767 18.7051 56.742 18.5095 56.7257 18.2651C56.7094 18.0207 56.6277 17.8089 56.448 17.646C56.2684 17.4831 56.056 17.369 55.7947 17.2549C55.5334 17.1572 55.223 17.0757 54.88 17.0105C54.537 16.9454 54.194 16.8639 53.8347 16.7824C53.4754 16.701 53.116 16.6032 52.773 16.4892C52.43 16.3751 52.136 16.2285 51.8584 16.0166C51.597 15.8211 51.3684 15.5767 51.2214 15.2672C51.0581 14.9576 50.9764 14.5991 50.9764 14.1429C50.9764 13.6541 51.0907 13.2631 51.3357 12.9372C51.5644 12.6113 51.8747 12.3506 52.234 12.1551C52.5934 11.9596 53.0017 11.8129 53.4427 11.7315C53.8837 11.65 54.3084 11.6174 54.7004 11.6174C55.1577 11.6174 55.5987 11.6663 56.007 11.7641C56.4154 11.8618 56.8074 12.0085 57.134 12.2366C57.477 12.4484 57.7547 12.7417 57.967 13.0838C58.1957 13.426 58.3264 13.8496 58.3917 14.3384H56.35C56.252 13.8659 56.0397 13.5563 55.713 13.3934C55.37 13.2305 54.9944 13.149 54.5534 13.149C54.4227 13.149 54.243 13.1653 54.0634 13.1816C53.8674 13.2142 53.7041 13.2468 53.5244 13.3119C53.3611 13.3771 53.214 13.4749 53.0997 13.5889C52.9854 13.703 52.92 13.8659 52.92 14.0614C52.92 14.3058 53.0017 14.4851 53.165 14.6317C53.3284 14.7783 53.5407 14.8924 53.8184 15.0065C54.0797 15.1042 54.39 15.1857 54.733 15.2509C55.076 15.316 55.4354 15.3975 55.7947 15.479C56.154 15.5604 56.497 15.6582 56.84 15.7722C57.183 15.8863 57.4934 16.0329 57.7547 16.2448C58.016 16.4403 58.2447 16.6847 58.408 16.978C58.5714 17.2712 58.653 17.646 58.653 18.0696C58.653 18.591 58.5387 19.0309 58.2937 19.4057C58.0487 19.7641 57.7384 20.0737 57.3627 20.3018C56.987 20.5299 56.546 20.6929 56.0887 20.8069C55.615 20.9047 55.1577 20.9699 54.7004 20.9699C54.145 20.9699 53.6224 20.9047 53.1487 20.7743C52.675 20.644 52.2504 20.4485 51.9074 20.2041C51.5644 19.9434 51.2867 19.6338 51.0907 19.2428C50.8947 18.868 50.7804 18.4118 50.764 17.8741H52.7404V17.8904H52.7567ZM59.2084 11.8781H60.6947V9.20599H62.6547V11.8618H64.4187V13.3119H62.6547V18.037C62.6547 18.2489 62.671 18.4118 62.6874 18.5747C62.7037 18.7214 62.7527 18.8517 62.8017 18.9495C62.867 19.0472 62.965 19.1287 63.0794 19.1776C63.21 19.2265 63.3734 19.259 63.602 19.259C63.7327 19.259 63.8797 19.259 64.0104 19.2428C64.141 19.2265 64.288 19.2102 64.4187 19.1776V20.6929C64.2064 20.7255 63.994 20.7417 63.7817 20.758C63.5694 20.7906 63.3734 20.7906 63.1447 20.7906C62.622 20.7906 62.2137 20.7418 61.9034 20.644C61.593 20.5462 61.348 20.3996 61.1684 20.2204C60.9887 20.0248 60.8744 19.7967 60.809 19.5197C60.7437 19.2427 60.711 18.9006 60.6947 18.5421V13.3282H59.2084V11.8455V11.8781ZM65.7907 11.8781H67.6364V13.0838H67.669C67.9467 12.5624 68.3224 12.204 68.8124 11.9759C69.3024 11.7478 69.825 11.6337 70.413 11.6337C71.1154 11.6337 71.7197 11.7478 72.2424 12.0085C72.765 12.2529 73.1897 12.5787 73.5327 13.0187C73.8757 13.4423 74.137 13.9474 74.3004 14.5177C74.4637 15.0879 74.5617 15.7071 74.5617 16.3425C74.5617 16.9454 74.48 17.5156 74.333 18.0696C74.1697 18.6236 73.941 19.1287 73.6307 19.5523C73.3204 19.976 72.9284 20.3181 72.4384 20.5788C71.9484 20.8395 71.393 20.9699 70.7397 20.9699C70.462 20.9699 70.168 20.9373 69.8904 20.8884C69.6127 20.8395 69.335 20.758 69.0737 20.644C68.8124 20.5299 68.5674 20.3833 68.355 20.2041C68.1264 20.0248 67.9467 19.813 67.7997 19.5849H67.767V24.0004H65.807V11.8781H65.7907ZM72.6344 16.3099C72.6344 15.9189 72.5854 15.5278 72.471 15.1531C72.373 14.7783 72.2097 14.4525 71.9974 14.1592C71.785 13.8659 71.5237 13.6378 71.2297 13.4586C70.9194 13.2794 70.56 13.1979 70.168 13.1979C69.3514 13.1979 68.7307 13.4749 68.306 14.0451C67.8977 14.6154 67.6854 15.3812 67.6854 16.3262C67.6854 16.7824 67.7344 17.1898 67.8487 17.5645C67.963 17.9393 68.11 18.2651 68.3387 18.5421C68.551 18.8191 68.8124 19.0309 69.1227 19.1939C69.433 19.3568 69.776 19.4383 70.1844 19.4383C70.6417 19.4383 71.001 19.3405 71.3114 19.1613C71.6217 18.9821 71.8667 18.7377 72.079 18.4607C72.275 18.1674 72.422 17.8415 72.5037 17.4668C72.5854 17.0757 72.6344 16.701 72.6344 16.3099ZM76.0807 8.50537H78.0407V10.3465H76.0807V8.50537ZM76.0807 11.8781H78.0407V20.7255H76.0807V11.8781ZM79.7884 8.50537H81.7484V20.7255H79.7884V8.50537ZM87.7264 20.9699C87.024 20.9699 86.387 20.8558 85.8317 20.6114C85.2764 20.367 84.819 20.0574 84.427 19.6501C84.0514 19.2428 83.7574 18.7377 83.5614 18.1674C83.3654 17.5971 83.251 16.9617 83.251 16.2936C83.251 15.6256 83.349 15.0065 83.5614 14.4362C83.7574 13.8659 84.0514 13.3771 84.427 12.9535C84.8027 12.5461 85.2764 12.2203 85.8317 11.9922C86.387 11.7641 87.024 11.6337 87.7264 11.6337C88.4287 11.6337 89.0657 11.7478 89.621 11.9922C90.1764 12.2203 90.6337 12.5461 91.0257 12.9535C91.4014 13.3608 91.6954 13.8659 91.8914 14.4362C92.0874 15.0065 92.2017 15.6256 92.2017 16.2936C92.2017 16.978 92.1037 17.5971 91.8914 18.1674C91.679 18.7377 91.4014 19.2265 91.0257 19.6501C90.65 20.0574 90.1764 20.3833 89.621 20.6114C89.0657 20.8395 88.445 20.9699 87.7264 20.9699ZM87.7264 19.422C88.151 19.422 88.543 19.3242 88.8534 19.145C89.18 18.9658 89.425 18.7214 89.6374 18.4281C89.8497 18.1348 89.9967 17.7926 90.0947 17.4342C90.1927 17.0594 90.2417 16.6847 90.2417 16.2936C90.2417 15.9189 90.1927 15.5441 90.0947 15.1694C89.9967 14.7946 89.8497 14.4688 89.6374 14.1755C89.425 13.8822 89.1637 13.6541 88.8534 13.4749C88.5267 13.2956 88.151 13.1979 87.7264 13.1979C87.3017 13.1979 86.9097 13.2956 86.5994 13.4749C86.2727 13.6541 86.0277 13.8985 85.8154 14.1755C85.603 14.4688 85.456 14.7946 85.358 15.1694C85.26 15.5441 85.211 15.9189 85.211 16.2936C85.211 16.6847 85.26 17.0594 85.358 17.4342C85.456 17.8089 85.603 18.1348 85.8154 18.4281C86.0277 18.7214 86.289 18.9658 86.5994 19.145C86.926 19.3405 87.3017 19.422 87.7264 19.422ZM92.7897 11.8781H94.276V9.20599H96.236V11.8618H98V13.3119H96.236V18.037C96.236 18.2489 96.2524 18.4118 96.2687 18.5747C96.285 18.7214 96.334 18.8517 96.383 18.9495C96.4484 19.0472 96.5464 19.1287 96.6607 19.1776C96.7914 19.2265 96.9547 19.259 97.1834 19.259C97.314 19.259 97.461 19.259 97.5917 19.2428C97.7224 19.2265 97.8694 19.2102 98 19.1776V20.6929C97.7877 20.7255 97.5754 20.7417 97.363 20.758C97.1507 20.7906 96.9547 20.7906 96.726 20.7906C96.2034 20.7906 95.795 20.7418 95.4847 20.644C95.1744 20.5462 94.9294 20.3996 94.7497 20.2204C94.57 20.0248 94.4557 19.7967 94.3904 19.5197C94.325 19.2427 94.2924 18.9006 94.276 18.5421V13.3282H92.7897V11.8455V11.8781Z" fill="black"/>
<path d="M23.471 8.50518H14.504L11.7437 0L8.967 8.50518L0 8.48889L7.252 13.7517L4.47533 22.2568L11.7273 16.9941L18.9793 22.2568L16.219 13.7517L23.471 8.50518Z" fill="#00B67A"/>
<path d="M16.8396 15.6746L16.219 13.752L11.7437 16.9943L16.8396 15.6746Z" fill="#005128"/>
</svg>
