<svg width="44" height="44" viewBox="0 0 44 44" fill="none" xmlns="http://www.w3.org/2000/svg">
<mask id="mask0_755_9228" style="mask-type:alpha" maskUnits="userSpaceOnUse" x="0" y="0" width="44" height="44">
<rect width="44" height="44" fill="#D9D9D9"/>
</mask>
<g mask="url(#mask0_755_9228)">
<path fill-rule="evenodd" clip-rule="evenodd" d="M22.0091 0C34.1225 0 44 9.87803 44 22.0091C44 34.1041 34.1222 44.0003 22.0091 44.0003C9.89588 44.0003 5.7141e-09 34.1041 5.7141e-09 22.0091C-0.000274582 9.87776 9.89588 0 22.0091 0Z" fill="#295CA7"/>
<path fill-rule="evenodd" clip-rule="evenodd" d="M22.009 2.79395C32.5719 2.79395 41.2066 11.4281 41.2066 22.0093C41.2066 32.5725 32.5721 41.1885 22.009 41.1885C11.4459 41.1885 2.81201 32.5722 2.81201 22.0091C2.81201 11.4281 11.4459 2.79395 22.009 2.79395ZM9.15664 11.6804L16.0425 29.5438L18.566 23.0185H25.1813L27.7045 29.5438L34.6626 11.4641C33.4348 9.98277 31.9587 8.72638 30.3002 7.75108L25.4696 21.0538H18.6557L13.8073 7.69672C12.0228 8.72422 10.4546 10.0763 9.15664 11.6804ZM37.4389 16.1689L29.5975 36.6279C34.8614 33.8699 38.484 28.3543 38.484 22.0093C38.484 19.9543 38.1238 17.9894 37.4389 16.1689ZM26.1726 37.9615L26.119 37.5469L21.8646 26.5153L17.6107 37.5469L17.5928 37.8896C18.9987 38.2858 20.4768 38.4844 22.009 38.4844C23.4509 38.4844 24.8389 38.3042 26.1726 37.9615ZM14.0957 36.4475L6.45305 16.5294C5.84017 18.2417 5.51561 20.0804 5.51561 22.0091C5.51561 28.2098 8.97651 33.6533 14.0957 36.4475ZM22.009 5.51566C23.4509 5.51566 24.8749 5.69607 26.227 6.05633L22.0631 17.5747L17.8811 6.03848C19.2293 5.68964 20.6164 5.51396 22.009 5.51566Z" fill="white"/>
</g>
</svg>
