<svg width="44" height="44" viewBox="0 0 44 44" fill="none" xmlns="http://www.w3.org/2000/svg">
<circle cx="22" cy="22" r="22" fill="white"/>
<mask id="mask0_791_57" style="mask-type:alpha" maskUnits="userSpaceOnUse" x="6" y="6" width="32" height="32">
<rect x="6" y="6" width="32" height="32" fill="#D9D9D9"/>
</mask>
<g mask="url(#mask0_791_57)">
<path fill-rule="evenodd" clip-rule="evenodd" d="M22.0066 6C30.8164 6 38 13.184 38 22.0066C38 30.803 30.8162 38.0002 22.0066 38.0002C13.197 38.0002 6 30.803 6 22.0066C5.9998 13.1838 13.197 6 22.0066 6Z" fill="#295CA7"/>
<path fill-rule="evenodd" clip-rule="evenodd" d="M22.0065 8.03198C29.6886 8.03198 35.9684 14.3114 35.9684 22.0068C35.9684 29.6891 29.6888 35.9553 22.0065 35.9553C14.3242 35.9553 8.04504 29.6889 8.04504 22.0066C8.04504 14.3114 14.3242 8.03198 22.0065 8.03198ZM12.6593 14.4949L17.6672 27.4864L19.5025 22.7407H24.3136L26.1487 27.4864L31.2091 14.3375C30.3162 13.2602 29.2426 12.3465 28.0365 11.6372L24.5233 21.3119H19.5678L16.0416 11.5976C14.7438 12.3449 13.6033 13.3282 12.6593 14.4949ZM33.2283 17.7592L27.5254 32.6385C31.3537 30.6327 33.9883 26.6213 33.9883 22.0068C33.9883 20.5123 33.7263 19.0832 33.2283 17.7592ZM25.0346 33.6084L24.9956 33.3069L21.9015 25.2839L18.8077 33.3069L18.7947 33.5561C19.8172 33.8443 20.8922 33.9886 22.0065 33.9886C23.0551 33.9886 24.0646 33.8576 25.0346 33.6084ZM16.2513 32.5073L10.6931 18.0214C10.2473 19.2667 10.0113 20.6039 10.0113 22.0066C10.0113 26.5163 12.5283 30.4751 16.2513 32.5073ZM22.0065 10.0114C23.0551 10.0114 24.0908 10.1426 25.0741 10.4046L22.0458 18.7817L19.0044 10.3916C19.9849 10.1379 20.9937 10.0102 22.0065 10.0114Z" fill="white"/>
</g>
</svg>
