<svg width="36" height="36" viewBox="0 0 36 36" fill="none" xmlns="http://www.w3.org/2000/svg">
<mask id="mask0_1001_436" style="mask-type:alpha" maskUnits="userSpaceOnUse" x="0" y="0" width="36" height="36">
<rect width="36" height="36" fill="#D9D9D9"/>
</mask>
<g mask="url(#mask0_1001_436)">
<path d="M32.5895 18.4137H26.7266C26.5902 18.4137 26.4594 18.3604 26.363 18.2656C26.2665 18.1707 26.2123 18.0421 26.2123 17.908C26.2123 17.7739 26.2665 17.6452 26.363 17.5504C26.4594 17.4556 26.5902 17.4023 26.7266 17.4023H32.5895C33.1841 17.4016 33.7542 17.169 34.1746 16.7556C34.5951 16.3422 34.8316 15.7816 34.8323 15.1969V14.8996C34.8316 14.3149 34.5951 13.7543 34.1746 13.3409C33.7542 12.9274 33.1841 12.6949 32.5895 12.6942H22.0538C21.9734 12.6942 21.8941 12.6756 21.8223 12.64C21.7505 12.6044 21.6882 12.5527 21.6403 12.4892C21.5925 12.4256 21.5605 12.3518 21.547 12.2739C21.5334 12.1959 21.5386 12.1159 21.5622 12.0403L22.4112 9.32018C22.5473 8.88587 22.6166 8.43402 22.617 7.97957V5.86271C22.6164 5.23484 22.4821 4.61405 22.2225 4.04039C21.963 3.46673 21.584 2.95294 21.1101 2.53217C20.2695 1.77219 19.159 1.36706 18.0177 1.40395V4.03865C18.0219 5.15073 17.8003 6.25245 17.366 7.27928C16.9317 8.3061 16.2934 9.23738 15.4884 10.0185C13.8587 11.607 11.7162 13.8811 10.7627 15.6945C10.4703 16.2694 10.0223 16.7537 9.46795 17.0943C8.91363 17.4348 8.2745 17.6184 7.6209 17.6248H7.1637C7.0273 17.6248 6.89649 17.5715 6.80004 17.4767C6.7036 17.3818 6.64941 17.2532 6.64941 17.1191C6.64941 16.985 6.7036 16.8563 6.80004 16.7615C6.89649 16.6667 7.0273 16.6134 7.1637 16.6134H7.62296C8.08782 16.6066 8.54177 16.4739 8.93485 16.2298C9.32793 15.9857 9.64489 15.6396 9.85084 15.2298C10.866 13.2995 13.0842 10.9399 14.7664 9.30046C15.4742 8.61331 16.0356 7.79425 16.4176 6.8912C16.7996 5.98814 16.9946 5.01923 16.9912 4.04117V0.938705C16.9912 0.814843 17.0374 0.695293 17.1212 0.602732C17.2049 0.510172 17.3202 0.451037 17.4453 0.436545L17.5852 0.420869C18.3458 0.344817 19.1142 0.4266 19.8406 0.660927C20.567 0.895254 21.2353 1.27691 21.8023 1.7812C22.3832 2.2968 22.8476 2.92643 23.1656 3.62946C23.4836 4.33248 23.6482 5.09327 23.6486 5.86271V7.97805C23.6488 8.53307 23.5646 9.085 23.3987 9.61551L22.7538 11.6813H32.5895C33.457 11.6824 34.2887 12.0218 34.902 12.6252C35.5153 13.2285 35.8602 14.0465 35.8608 14.8996V15.1969C35.8599 16.0498 35.5149 16.8674 34.9016 17.4705C34.2883 18.0735 33.4568 18.4127 32.5895 18.4137Z" fill="black"/>
<path d="M31.2583 23.8359H25.6598C25.5234 23.8359 25.3926 23.7826 25.2961 23.6877C25.1997 23.5929 25.1455 23.4643 25.1455 23.3302C25.1455 23.196 25.1997 23.0674 25.2961 22.9726C25.3926 22.8777 25.5234 22.8245 25.6598 22.8245H31.2583C31.8531 22.8245 32.4236 22.5921 32.8442 22.1785C33.2648 21.7649 33.5011 21.204 33.5011 20.6191C33.5011 20.0342 33.2648 19.4733 32.8442 19.0597C32.4236 18.6461 31.8531 18.4137 31.2583 18.4137H26.7249C26.5885 18.4137 26.4577 18.3605 26.3612 18.2656C26.2648 18.1708 26.2106 18.0422 26.2106 17.908C26.2106 17.7739 26.2648 17.6453 26.3612 17.5505C26.4577 17.4556 26.5885 17.4023 26.7249 17.4023H31.2583C32.1259 17.4023 32.958 17.7413 33.5715 18.3445C34.185 18.9478 34.5297 19.766 34.5297 20.6191C34.5297 21.4722 34.185 22.2904 33.5715 22.8937C32.958 23.497 32.1259 23.8359 31.2583 23.8359Z" fill="black"/>
<path d="M30.3926 29.2575H23.5289C23.3925 29.2575 23.2617 29.2042 23.1653 29.1094C23.0688 29.0145 23.0146 28.8859 23.0146 28.7518C23.0146 28.6177 23.0688 28.489 23.1653 28.3942C23.2617 28.2994 23.3925 28.2461 23.5289 28.2461H30.3926C30.6899 28.2505 30.9852 28.1967 31.2612 28.0879C31.5373 27.9791 31.7885 27.8174 32.0004 27.6122C32.2123 27.407 32.3805 27.1624 32.4954 26.8926C32.6102 26.6229 32.6694 26.3334 32.6694 26.041C32.6694 25.7486 32.6102 25.4591 32.4954 25.1893C32.3805 24.9196 32.2123 24.675 32.0004 24.4698C31.7885 24.2646 31.5373 24.1029 31.2612 23.994C30.9852 23.8852 30.6899 23.8314 30.3926 23.8359H25.6612C25.5248 23.8359 25.394 23.7826 25.2975 23.6878C25.2011 23.5929 25.1469 23.4643 25.1469 23.3302C25.1469 23.1961 25.2011 23.0674 25.2975 22.9726C25.394 22.8778 25.5248 22.8245 25.6612 22.8245H30.3926C30.8256 22.8191 31.2554 22.8984 31.657 23.0576C32.0587 23.2169 32.4241 23.453 32.7323 23.7522C33.0404 24.0514 33.285 24.4078 33.452 24.8007C33.619 25.1936 33.705 25.6152 33.705 26.041C33.705 26.4668 33.619 26.8884 33.452 27.2813C33.285 27.6742 33.0404 28.0306 32.7323 28.3298C32.4241 28.629 32.0587 28.8651 31.657 29.0243C31.2554 29.1836 30.8256 29.2628 30.3926 29.2575Z" fill="black"/>
<path d="M28.198 34.679H14.7366C13.7743 34.6813 12.8257 34.4556 11.9711 34.0208C11.1165 33.586 10.3811 32.955 9.82718 32.1813H7.1637C7.0273 32.1813 6.89649 32.128 6.80004 32.0332C6.70359 31.9383 6.64941 31.8097 6.64941 31.6756C6.64941 31.5415 6.70359 31.4129 6.80004 31.318C6.89649 31.2232 7.0273 31.1699 7.1637 31.1699H10.1034C10.1898 31.1699 10.2748 31.1913 10.3505 31.2321C10.4263 31.273 10.4904 31.3319 10.5369 31.4035C10.986 32.0989 11.6069 32.6712 12.3415 33.0671C13.0762 33.463 13.9009 33.6695 14.7386 33.6676H28.198C28.7928 33.6676 29.3633 33.4352 29.7839 33.0216C30.2045 32.608 30.4408 32.0471 30.4408 31.4622C30.4408 30.8773 30.2045 30.3164 29.7839 29.9028C29.3633 29.4892 28.7928 29.2568 28.198 29.2568H23.5288C23.3924 29.2568 23.2616 29.2036 23.1651 29.1087C23.0687 29.0139 23.0145 28.8853 23.0145 28.7511C23.0145 28.617 23.0687 28.4884 23.1651 28.3936C23.2616 28.2987 23.3924 28.2454 23.5288 28.2454H28.198C28.6276 28.2454 29.053 28.3286 29.4499 28.4903C29.8468 28.652 30.2074 28.8889 30.5112 29.1876C30.815 29.4863 31.0559 29.8409 31.2203 30.2312C31.3847 30.6215 31.4694 31.0398 31.4694 31.4622C31.4694 31.8846 31.3847 32.3029 31.2203 32.6932C31.0559 33.0835 30.815 33.4381 30.5112 33.7368C30.2074 34.0355 29.8468 34.2724 29.4499 34.4341C29.053 34.5957 28.6276 34.679 28.198 34.679ZM0.375126 26.4259C0.238728 26.4259 0.107918 26.3726 0.0114706 26.2778C-0.0849767 26.183 -0.13916 26.0543 -0.13916 25.9202V24.4537C-0.13916 24.3196 -0.0849767 24.191 0.0114706 24.0961C0.107918 24.0013 0.238728 23.948 0.375126 23.948C0.511523 23.948 0.642333 24.0013 0.73878 24.0961C0.835228 24.191 0.889411 24.3196 0.889411 24.4537V25.9202C0.889411 26.0543 0.835228 26.183 0.73878 26.2778C0.642333 26.3726 0.511523 26.4259 0.375126 26.4259Z" fill="black"/>
<path d="M6.50541 34.3555H1.02827C0.718772 34.3551 0.422069 34.2341 0.203223 34.0189C-0.0156243 33.8037 -0.138752 33.5119 -0.13916 33.2076V29.4604C-0.13916 29.3262 -0.0849767 29.1976 0.0114706 29.1028C0.107918 29.0079 0.238728 28.9547 0.375126 28.9547C0.511523 28.9547 0.642333 29.0079 0.73878 29.1028C0.835228 29.1976 0.889411 29.3262 0.889411 29.4604V33.2076C0.889411 33.2438 0.904041 33.2785 0.930081 33.3041C0.956122 33.3298 0.991441 33.3441 1.02827 33.3441H6.50541C6.52398 33.3445 6.54244 33.3412 6.55973 33.3345C6.57702 33.3278 6.5928 33.3179 6.60618 33.3052C6.61955 33.2925 6.63025 33.2774 6.63767 33.2606C6.64509 33.2439 6.64908 33.2259 6.64941 33.2076V15.1592C6.64908 15.1409 6.64509 15.1229 6.63767 15.1061C6.63025 15.0894 6.61955 15.0742 6.60618 15.0616C6.5928 15.0489 6.57702 15.0389 6.55973 15.0322C6.54244 15.0256 6.52398 15.0223 6.50541 15.0226H1.02827C1.01003 15.0226 0.991977 15.0262 0.97513 15.033C0.958283 15.0399 0.942976 15.0499 0.930081 15.0626C0.917187 15.0753 0.906959 15.0904 0.899981 15.1069C0.893003 15.1235 0.889411 15.1412 0.889411 15.1592V20.914C0.889411 21.0482 0.835228 21.1768 0.73878 21.2716C0.642333 21.3665 0.511523 21.4197 0.375126 21.4197C0.238728 21.4197 0.107918 21.3665 0.0114706 21.2716C-0.0849767 21.1768 -0.13916 21.0482 -0.13916 20.914V15.1592C-0.138752 14.8548 -0.0156243 14.5631 0.203223 14.3479C0.422069 14.1327 0.718772 14.0116 1.02827 14.0112H6.50541C6.81559 14.011 7.11322 14.1317 7.33303 14.3469C7.55284 14.562 7.67689 14.8542 7.67798 15.1592V33.2076C7.67689 33.5126 7.55284 33.8047 7.33303 34.0199C7.11322 34.2351 6.81559 34.3558 6.50541 34.3555Z" fill="#46D993"/>
</g>
</svg>
