<svg width="36" height="36" viewBox="0 0 36 36" fill="none" xmlns="http://www.w3.org/2000/svg">
<mask id="mask0_1000_102" style="mask-type:alpha" maskUnits="userSpaceOnUse" x="0" y="0" width="36" height="36">
<rect width="36" height="36" fill="#D9D9D9"/>
</mask>
<g mask="url(#mask0_1000_102)">
<path d="M35.6065 18.0002C35.6065 27.7314 27.7315 35.6064 18.0003 35.6064C8.26904 35.6064 0.394043 27.7314 0.394043 18.0002C0.394043 8.26892 8.26904 0.393921 18.0003 0.393921C27.7315 0.393921 35.6065 8.26892 35.6065 18.0002ZM18.0003 1.46267C8.83154 1.46267 1.46279 8.83142 1.46279 18.0002C1.46279 27.1689 8.88779 34.5377 18.0003 34.5377C27.169 34.5377 34.5378 27.1127 34.5378 18.0002C34.5378 8.83142 27.169 1.46267 18.0003 1.46267Z" fill="url(#paint0_linear_1000_102)"/>
<path d="M17.9999 1.46252C8.83115 1.46252 1.4624 8.83127 1.4624 18C1.4624 27.1688 8.8874 34.5375 17.9999 34.5375C27.1687 34.5375 34.5374 27.1125 34.5374 18C34.5374 8.83127 27.1687 1.46252 17.9999 1.46252ZM17.9999 33.4688C9.4499 33.4688 2.53115 26.55 2.53115 18C2.53115 9.45002 9.4499 2.53127 17.9999 2.53127C26.5499 2.53127 33.4687 9.45002 33.4687 18C33.4687 26.55 26.5499 33.4688 17.9999 33.4688Z" fill="url(#paint1_linear_1000_102)"/>
<path opacity="0.4" d="M18 35.6063C27.7312 35.6063 35.6063 27.7312 35.6063 18C35.6063 8.26875 27.7312 0.39375 18 0.39375C8.26875 0.39375 0.39375 8.26875 0.39375 18C0.39375 27.7312 8.26875 35.6063 18 35.6063ZM18 0C27.9 0 36 8.1 36 18C36 27.9 27.9 36 18 36C8.1 36 0 27.9 0 18C0 8.1 8.1 0 18 0Z" fill="url(#paint2_linear_1000_102)"/>
<path d="M1.23779 18.0564C1.23779 8.83142 8.71904 1.23767 18.0003 1.23767C27.2815 1.23767 34.7628 8.77517 34.7628 18.0564C34.7628 27.2814 27.2815 34.7627 18.0003 34.7627C8.71904 34.7627 1.23779 27.2814 1.23779 18.0564ZM6.46904 6.46892C3.48779 9.45017 1.63154 13.5564 1.63154 18.0564C1.63154 22.5564 3.48779 26.6627 6.41279 29.5877C9.39404 32.5127 13.5003 34.3689 18.0003 34.3689C22.5003 34.3689 26.6065 32.5689 29.5315 29.5877C32.5128 26.6627 34.3128 22.5564 34.3128 18.0564C34.3128 13.5564 32.4565 9.45017 29.5315 6.46892C26.6065 3.48767 22.5003 1.63142 18.0003 1.63142C13.5003 1.63142 9.39404 3.48767 6.46904 6.46892Z" fill="white"/>
<path opacity="0.4" d="M18.0001 33.525C13.8376 33.525 9.95635 31.8937 7.03135 28.9687C4.10635 26.0437 2.4751 22.1625 2.4751 18C2.4751 13.8375 4.10635 9.95623 7.03135 7.03123C9.95635 4.10623 13.8376 2.47498 18.0001 2.47498C22.1626 2.47498 26.0438 4.10623 28.9688 7.03123C31.8939 9.95623 33.5251 13.8375 33.5251 18C33.5251 22.1625 31.8939 26.0437 28.9688 28.9687C26.0438 31.8937 22.1626 33.525 18.0001 33.525ZM18.0001 33.075C21.9939 33.075 25.8188 31.5 28.6313 28.6875C31.5001 25.8187 33.0189 22.05 33.0189 18.0562C33.0189 14.0625 31.4439 10.2375 28.6313 7.42498C25.7626 4.55623 21.9939 3.03748 18.0001 3.03748C14.0063 3.03748 10.1813 4.61248 7.36885 7.42498C4.5001 10.1812 2.9251 14.0062 2.9251 18C2.9251 21.9937 4.5001 25.8187 7.3126 28.6312C10.1813 31.5 14.0063 33.075 18.0001 33.075Z" fill="url(#paint3_linear_1000_102)"/>
<path d="M31.6685 25.3125C31.3872 25.0875 20.531 16.4813 20.531 16.4813L17.9997 2.02502C17.831 2.08127 17.606 2.25002 17.4935 2.47502L15.6935 16.5375L4.49971 25.1438C4.49971 25.1438 4.27471 25.425 4.16221 25.5938C4.10596 25.7063 4.10596 25.875 4.10596 26.0438L17.9435 20.3625L31.781 26.0438C31.8935 25.7625 31.781 25.4813 31.6685 25.3125Z" fill="white"/>
<path d="M18.1125 18.45L18 21.0375L30.7125 26.1563C31.1625 26.3813 31.5 26.2688 31.8375 26.0438L18.2812 18.3938C18.225 18.3375 18.1125 18.3938 18.1125 18.45Z" fill="#565F64"/>
<path d="M18.1128 18.45C18.1128 18.45 18.844 19.7438 19.6878 20.6438C20.869 21.9375 22.444 22.8375 22.444 22.8375L30.7128 26.1563C31.1628 26.3813 31.5003 26.2688 31.8378 26.0438L18.2815 18.3938C18.2253 18.3375 18.1128 18.3938 18.1128 18.45Z" fill="url(#paint4_linear_1000_102)"/>
<path d="M31.7813 25.5375C31.7813 25.4812 31.7251 25.425 31.6688 25.3125L20.0813 16.8187L18.5063 17.8312C18.5063 17.8312 18.6188 17.8875 18.6751 17.8312C18.8438 17.775 19.1813 17.7187 19.5188 17.8312C19.8001 17.9437 31.7813 25.5937 31.7813 25.5375C31.7813 25.5937 31.7813 25.5937 31.7813 25.5375Z" fill="#A4AAAE" fill-opacity="0.6"/>
<path d="M31.3878 25.0311L20.5878 16.4811L20.0815 16.8186L31.669 25.3686C31.6128 25.2561 31.5003 25.1436 31.3878 25.0311Z" fill="#333E46"/>
<path d="M18.2813 17.6064L18.2251 17.6627C18.2251 17.6627 18.2251 17.7752 18.3376 17.7189C18.3938 17.6627 20.0251 16.8189 20.5876 16.4814L18.6188 2.98142C18.5626 2.47517 18.3376 2.25017 17.9438 2.08142L18.1688 17.7189L18.2813 17.6064Z" fill="#565F64"/>
<path d="M17.3251 2.98142V3.71267L16.0876 16.1439C16.0876 16.3127 16.1438 16.4814 16.3126 16.5939L17.0438 17.1564L17.5501 3.43142L17.6063 2.36267C17.4376 2.47517 17.3813 2.70017 17.3251 2.98142ZM16.6501 17.3814L15.9751 16.8189L4.55635 25.0877C4.55635 25.0877 4.21885 25.3127 4.1626 25.5377L4.55635 25.3127L16.5376 17.7752C16.7626 17.6627 16.8188 17.5502 16.6501 17.3814Z" fill="#A4AAAE" fill-opacity="0.6"/>
<path d="M17.831 18.45C17.831 18.3938 17.7747 18.3375 17.7185 18.3938L4.10596 26.1C4.44346 26.325 4.78096 26.3813 5.23096 26.2125L17.9435 21.0938L17.831 18.45Z" fill="#565F64"/>
<path d="M18.2251 17.6625C18.2251 17.6625 18.2251 17.7187 18.2813 17.7187H18.3376C18.3938 17.6625 20.0251 16.8187 20.5876 16.4812L20.3626 14.85L18.6188 2.98123C18.6188 2.75623 18.5626 2.58748 18.4501 2.47498C18.4501 2.47498 19.2938 13.8375 19.2938 15.075C19.2938 16.7062 18.2251 17.6625 18.2251 17.6625Z" fill="url(#paint5_linear_1000_102)"/>
<path d="M17.831 18.45C17.831 18.3938 17.7747 18.3375 17.7185 18.3938L4.10596 26.1C4.44346 26.325 4.78096 26.3813 5.23096 26.2125L17.9435 21.0938L17.831 18.45Z" fill="url(#paint6_linear_1000_102)" fill-opacity="0.8"/>
<path opacity="0.8" d="M5.23154 26.1563L17.944 21.0375L17.8315 18.5625C17.6065 19.2375 17.2128 19.9688 16.144 20.5313C15.3565 20.9813 7.81904 24.6938 5.11904 25.9875C4.95029 26.1 4.72529 26.1562 4.61279 26.2125C4.83779 26.325 5.00654 26.2688 5.23154 26.1563Z" fill="url(#paint7_linear_1000_102)"/>
<path d="M18.2813 17.6064L18.2251 17.6627C18.2251 17.6627 18.2251 17.7752 18.3376 17.7189C18.3938 17.6627 20.0251 16.8189 20.5876 16.4814L18.6188 2.98142C18.5626 2.47517 18.3376 2.25017 17.9438 2.08142L18.1688 17.7189L18.2813 17.6064Z" fill="url(#paint8_linear_1000_102)"/>
<path d="M18.2813 17.6064L18.2251 17.6627C18.2251 17.6627 18.2251 17.7752 18.3376 17.7189C18.3938 17.6627 20.0251 16.8189 20.5876 16.4814L18.6188 2.98142C18.5626 2.47517 18.3376 2.25017 17.9438 2.08142L18.1688 17.7189L18.2813 17.6064Z" fill="url(#paint9_linear_1000_102)"/>
<path d="M2.86904 24.975C2.47529 24.075 0.225293 19.6875 2.70029 11.25H1.74404C1.23779 12.9375 0.844043 13.95 0.619043 15.4688C0.619043 15.4688 0.506543 16.0312 0.450293 16.65C0.394043 17.2688 0.394043 17.6062 0.394043 18C0.394043 21.375 1.23779 23.3438 1.23779 23.3438C2.13779 26.1562 3.71279 28.6875 5.85029 30.6C7.70654 32.2313 10.5753 33.4688 12.9378 33.9187C12.544 33.8625 5.79404 30.9938 2.86904 24.975Z" fill="url(#paint10_linear_1000_102)"/>
<path d="M18.225 18.3375H17.7188C17.775 18.3375 17.8313 18.3375 17.8313 18.3938L17.9437 20.9813H18L18.1125 18.3938C18.1125 18.3375 18.1688 18.2813 18.225 18.3375Z" fill="url(#paint11_linear_1000_102)"/>
<path d="M23.625 1.29358C29.5312 3.54358 35.1 9.73108 35.1 17.5498C35.1 26.9998 27.5625 34.7061 18 34.7061V35.6061C27.5625 35.6061 35.6062 27.7311 35.6062 17.9998C35.6062 10.2373 30.6562 3.71233 23.625 1.29358Z" fill="url(#paint12_linear_1000_102)"/>
<path d="M33.075 11.3625C29.1375 2.30627 20.25 1.80002 19.7437 1.74377H19.6875C26.4937 2.98127 30.825 7.42502 32.3437 12.0938V12.15C33.0187 13.95 33.3562 15.8625 33.4125 17.9438C33.4687 19.9125 33.0187 22.1063 32.175 24.1313C32.1187 24.4125 32.0625 24.75 32.0062 24.75H32.9062C35.6062 19.6875 34.425 14.5688 33.075 11.3625Z" fill="url(#paint13_linear_1000_102)"/>
<path d="M1.23779 18.0564C1.23779 8.83142 8.71904 1.23767 18.0003 1.23767C27.2815 1.23767 34.7628 8.77517 34.7628 18.0564C34.7628 27.2814 27.2815 34.7627 18.0003 34.7627C8.71904 34.7627 1.23779 27.2814 1.23779 18.0564ZM6.46904 6.46892C3.48779 9.45017 1.63154 13.5564 1.63154 18.0564C1.63154 22.5564 3.48779 26.6627 6.41279 29.5877C9.39404 32.5127 13.5003 34.3689 18.0003 34.3689C22.5003 34.3689 26.6065 32.5689 29.5315 29.5877C32.5128 26.6627 34.3128 22.5564 34.3128 18.0564C34.3128 13.5564 32.4565 9.45017 29.5315 6.46892C26.6065 3.48767 22.5003 1.63142 18.0003 1.63142C13.5003 1.63142 9.39404 3.48767 6.46904 6.46892Z" fill="#FBFBFB"/>
<path d="M4.44385 25.2L15.9188 16.9312C16.5376 17.2687 17.5501 17.7187 17.6626 17.7187C17.7751 17.775 17.7751 17.6625 17.7751 17.6625L16.3688 16.4812C16.2001 16.3687 16.1438 16.2 16.1438 16.0312L17.4938 2.47498C17.4376 2.53123 17.4376 2.64373 17.3813 2.69998C17.3251 2.81248 17.3251 2.86873 17.3251 2.98123L15.3563 16.5375L4.55635 25.0312C4.5001 25.0875 4.44385 25.1437 4.44385 25.2Z" fill="#333F47"/>
</g>
<defs>
<linearGradient id="paint0_linear_1000_102" x1="4.49917" y1="6.6928" x2="31.5014" y2="29.3075" gradientUnits="userSpaceOnUse">
<stop stop-color="white"/>
<stop offset="0.1" stop-color="#CDD0D0"/>
<stop offset="0.2" stop-color="#A5ACAF"/>
<stop offset="0.3" stop-color="#98A0A4"/>
<stop offset="0.4" stop-color="#828A8F"/>
<stop offset="0.5" stop-color="#667075"/>
<stop offset="0.6" stop-color="#535C63"/>
<stop offset="0.7" stop-color="#475158"/>
<stop offset="0.8" stop-color="#434D54"/>
<stop offset="1" stop-color="#475157"/>
</linearGradient>
<linearGradient id="paint1_linear_1000_102" x1="5.32734" y1="7.34571" x2="30.6398" y2="28.6082" gradientUnits="userSpaceOnUse">
<stop stop-color="#0B1F2A"/>
<stop offset="0.2" stop-color="#333F47"/>
<stop offset="0.5" stop-color="#81898D"/>
<stop offset="0.7" stop-color="#B3B8B8"/>
<stop offset="0.8" stop-color="#DEE0DD"/>
<stop offset="1" stop-color="#FBFBFB"/>
</linearGradient>
<linearGradient id="paint2_linear_1000_102" x1="24.1521" y1="34.9104" x2="11.8333" y2="1.0485" gradientUnits="userSpaceOnUse">
<stop stop-color="#E1E3E1"/>
<stop offset="0.1" stop-color="#C1C5C4"/>
<stop offset="0.3" stop-color="#9BA1A2"/>
<stop offset="0.5" stop-color="#7D8487"/>
<stop offset="0.7" stop-color="#687074" stop-opacity="0"/>
<stop offset="0.8" stop-color="#5B6469" stop-opacity="0"/>
<stop offset="1" stop-color="#576065" stop-opacity="0"/>
</linearGradient>
<linearGradient id="paint3_linear_1000_102" x1="10.2382" y1="4.55679" x2="25.762" y2="31.4432" gradientUnits="userSpaceOnUse">
<stop stop-color="#E1E3E1"/>
<stop offset="0.1" stop-color="#C1C5C4"/>
<stop offset="0.3" stop-color="#9BA1A2"/>
<stop offset="0.5" stop-color="#7D8487"/>
<stop offset="0.7" stop-color="#687074" stop-opacity="0"/>
<stop offset="0.8" stop-color="#5B6469" stop-opacity="0"/>
<stop offset="1" stop-color="#576065" stop-opacity="0"/>
</linearGradient>
<linearGradient id="paint4_linear_1000_102" x1="25.0248" y1="22.1586" x2="24.0685" y2="23.7336" gradientUnits="userSpaceOnUse">
<stop stop-color="#27343C"/>
<stop offset="1" stop-color="#00111E" stop-opacity="0"/>
</linearGradient>
<linearGradient id="paint5_linear_1000_102" x1="22.2638" y1="16.3755" x2="20.6888" y2="13.8442" gradientUnits="userSpaceOnUse">
<stop offset="0.1" stop-color="#02131F"/>
<stop offset="0.9" stop-color="#02131F" stop-opacity="0"/>
</linearGradient>
<linearGradient id="paint6_linear_1000_102" x1="17.9896" y1="20.439" x2="15.6271" y2="21.114" gradientUnits="userSpaceOnUse">
<stop offset="0.2" stop-color="#02131F"/>
<stop offset="0.9" stop-color="#02131F" stop-opacity="0"/>
</linearGradient>
<linearGradient id="paint7_linear_1000_102" x1="11.6952" y1="23.571" x2="11.3577" y2="22.7272" gradientUnits="userSpaceOnUse">
<stop stop-color="#02131F"/>
<stop offset="0.1" stop-color="#02131F"/>
<stop offset="1" stop-color="#02131F" stop-opacity="0"/>
</linearGradient>
<linearGradient id="paint8_linear_1000_102" x1="20.0262" y1="9.68305" x2="18.1137" y2="9.90805" gradientUnits="userSpaceOnUse">
<stop offset="0.3" stop-color="#02131F"/>
<stop offset="0.8" stop-color="#02131F" stop-opacity="0"/>
</linearGradient>
<linearGradient id="paint9_linear_1000_102" x1="20.0858" y1="9.65098" x2="18.7915" y2="9.81973" gradientUnits="userSpaceOnUse">
<stop offset="0.4" stop-color="#27343C"/>
<stop offset="1" stop-color="#3B474E" stop-opacity="0"/>
</linearGradient>
<linearGradient id="paint10_linear_1000_102" x1="-0.202207" y1="18.4674" x2="15.4915" y2="27.5237" gradientUnits="userSpaceOnUse">
<stop stop-color="#25323B" stop-opacity="0"/>
<stop offset="0.1" stop-color="#27343C"/>
</linearGradient>
<linearGradient id="paint11_linear_1000_102" x1="17.9719" y1="21.0375" x2="17.9719" y2="18.3375" gradientUnits="userSpaceOnUse">
<stop offset="0.3" stop-color="#A5ABAF"/>
<stop offset="1" stop-color="#A5ABAF" stop-opacity="0"/>
</linearGradient>
<linearGradient id="paint12_linear_1000_102" x1="26.8031" y1="1.29358" x2="26.8031" y2="35.6061" gradientUnits="userSpaceOnUse">
<stop stop-color="#6B7378"/>
<stop offset="0.2" stop-color="#333F47"/>
<stop offset="0.5" stop-color="#27343C"/>
<stop offset="0.8" stop-color="#333F47"/>
<stop offset="1" stop-color="#434D54"/>
</linearGradient>
<linearGradient id="paint13_linear_1000_102" x1="32.2251" y1="4.55234" x2="24.6313" y2="15.6898" gradientUnits="userSpaceOnUse">
<stop offset="0.7" stop-color="#49545B"/>
<stop offset="0.8" stop-color="white" stop-opacity="0"/>
</linearGradient>
</defs>
</svg>
