<svg width="36" height="36" viewBox="0 0 36 36" fill="none" xmlns="http://www.w3.org/2000/svg">
<mask id="mask0_1001_388" style="mask-type:alpha" maskUnits="userSpaceOnUse" x="0" y="0" width="36" height="36">
<rect width="36" height="36" fill="#D9D9D9"/>
</mask>
<g mask="url(#mask0_1001_388)">
<path d="M27.3028 15.113C27.3028 9.77479 22.9274 5.4375 17.5596 5.4375C12.1919 5.4375 7.81641 9.77479 7.81641 15.113C7.81641 20.4434 12.1841 24.7885 17.5596 24.7885C22.9352 24.7885 27.3028 20.4434 27.3028 15.113ZM17.5596 23.5393C12.8794 23.5393 9.06654 19.7606 9.06654 15.1052C9.06654 10.4498 12.8794 6.67894 17.5596 6.67894C22.2398 6.67894 26.0527 10.4576 26.0527 15.113C26.0527 19.7684 22.2398 23.5393 17.5596 23.5393Z" fill="#46D993"/>
<path d="M29.4985 25.1219C29.8501 24.9434 30.1627 24.7106 30.4049 24.3848C31.0378 23.5235 30.8893 22.3985 30.7487 21.3044C30.6549 20.5984 30.5611 19.8613 30.7252 19.3647C30.8737 18.8991 31.3737 18.3793 31.8503 17.8827C32.5926 17.1068 33.4286 16.23 33.4286 15.1205C33.4286 14.011 32.6004 13.1187 31.8582 12.3428C31.3815 11.8384 30.8815 11.3263 30.733 10.8608C30.569 10.3642 30.6627 9.62711 30.7565 8.92104C30.8971 7.82702 31.0378 6.70197 30.4127 5.84072C29.7798 4.97171 28.6469 4.76221 27.553 4.55272C26.8498 4.42082 26.1232 4.28891 25.7091 3.98631C25.295 3.69147 24.9512 3.05523 24.6152 2.43451C24.1073 1.50343 23.5213 0.448203 22.4822 0.106806C21.4821 -0.219073 20.4585 0.261986 19.4662 0.727527C18.8021 1.03789 18.1223 1.35601 17.5754 1.35601C17.0285 1.35601 16.3487 1.03789 15.6846 0.727527C14.6923 0.261986 13.6687 -0.219073 12.6686 0.106806C11.6217 0.440444 11.0747 1.45687 10.5356 2.43451C10.1996 3.04747 9.84803 3.69147 9.44173 3.98631C9.01981 4.28891 8.30099 4.42858 7.59779 4.55272C6.50392 4.75445 5.37099 4.97171 4.73811 5.84072C4.10523 6.70197 4.25369 7.82702 4.39433 8.92104C4.48809 9.62711 4.58185 10.3642 4.41777 10.8608C4.26931 11.3263 3.76926 11.8462 3.29265 12.3428C2.55038 13.1187 1.71436 13.9954 1.71436 15.105C1.71436 16.2145 2.55819 17.0913 3.29265 17.8672C3.76926 18.3715 4.26931 18.8836 4.41777 19.3492C4.58185 19.8457 4.48809 20.5828 4.39433 21.2889C4.25369 22.3829 4.11305 23.508 4.73811 24.3692C4.98033 24.6951 5.29286 24.9356 5.64446 25.1063L2.23785 30.9644C2.11284 31.1817 2.12846 31.4532 2.28473 31.655C2.44099 31.8567 2.69883 31.942 2.94105 31.88L7.97283 30.5377L9.32453 35.5345C9.38704 35.775 9.598 35.9534 9.84803 35.9922C9.87928 35.9922 9.90272 36 9.92616 36C10.1449 36 10.3559 35.8836 10.4653 35.6896L13.6609 30.1885C14.3407 30.1109 15.0283 29.7928 15.6924 29.4824C16.3565 29.1721 17.0363 28.8539 17.5832 28.8539C18.1301 28.8539 18.8099 29.1721 19.474 29.4824C20.1382 29.7928 20.8257 30.1187 21.5055 30.1885L24.7012 35.6896C24.8105 35.8836 25.0215 36 25.2403 36C25.2637 36 25.295 36 25.3184 35.9922C25.5684 35.9612 25.7716 35.7827 25.8419 35.5345L27.1936 30.5377L32.2254 31.88C32.4676 31.942 32.7254 31.8567 32.8817 31.655C33.038 31.4532 33.0536 31.1817 32.9286 30.9644L29.4985 25.1219ZM10.1137 33.7809L8.99637 29.6298C8.91043 29.2962 8.56664 29.1022 8.23067 29.1876L4.05054 30.2971L6.83208 25.5098C7.0743 25.5641 7.32432 25.6107 7.57435 25.6572C8.27755 25.7891 9.00419 25.921 9.41829 26.2236C9.8324 26.5185 10.1762 27.1547 10.5122 27.7754C10.9653 28.6057 11.4732 29.529 12.317 29.9635L10.1137 33.7809ZM17.5598 27.6203C16.7316 27.6203 15.919 28.0005 15.1376 28.3651C14.3641 28.7298 13.5672 29.1022 13.0437 28.9315C12.4733 28.7453 12.0436 27.9539 11.6217 27.1935C11.2154 26.4564 10.8013 25.696 10.1606 25.2305C9.51205 24.7649 8.64477 24.602 7.80875 24.4468C6.9571 24.2839 6.07419 24.121 5.72259 23.6554C5.38662 23.1976 5.496 22.3131 5.60539 21.4674C5.71478 20.6216 5.82416 19.7526 5.57414 18.9845C5.33192 18.2551 4.73811 17.6267 4.16774 17.0292C3.5583 16.393 2.92542 15.7335 2.92542 15.1205C2.92542 14.5075 3.5583 13.848 4.16774 13.2118C4.74593 12.6066 5.33974 11.9859 5.57414 11.2565C5.82416 10.4884 5.71478 9.61936 5.60539 8.77362C5.496 7.92013 5.38662 7.04336 5.72259 6.58558C6.06638 6.11228 6.94928 5.94934 7.80875 5.79416C8.64477 5.63898 9.51205 5.47604 10.1606 5.0105C10.8013 4.55272 11.2154 3.78458 11.6217 3.04747C12.0436 2.27933 12.4733 1.49567 13.0437 1.30945C13.575 1.13875 14.3719 1.51119 15.1376 1.87586C15.919 2.24053 16.7316 2.62073 17.5598 2.62073C18.388 2.62073 19.2006 2.24053 19.9819 1.87586C20.7554 1.51119 21.5524 1.13875 22.0759 1.30945C22.6462 1.49567 23.076 2.28709 23.4979 3.04747C23.9042 3.78458 24.3183 4.54496 24.959 5.0105C25.6075 5.47604 26.4748 5.63898 27.3108 5.79416C28.1625 5.9571 29.0454 6.12004 29.397 6.58558C29.7329 7.04336 29.6236 7.92789 29.5142 8.77362C29.4048 9.61936 29.2954 10.4884 29.5454 11.2565C29.7876 11.9859 30.3814 12.6143 30.9518 13.2118C31.5613 13.848 32.1941 14.5075 32.1941 15.1205C32.1941 15.7335 31.5613 16.393 30.9518 17.0292C30.3736 17.6344 29.7798 18.2551 29.5454 18.9845C29.2954 19.7526 29.4048 20.6216 29.5142 21.4674C29.6236 22.3209 29.7329 23.1976 29.397 23.6554C29.0532 24.1287 28.1703 24.2916 27.3108 24.4468C26.4748 24.602 25.6075 24.7649 24.959 25.2305C24.3183 25.6883 23.9042 26.4564 23.4979 27.1935C23.076 27.9617 22.6462 28.7453 22.0759 28.9315C21.5446 29.1022 20.7476 28.7298 19.9819 28.3651C19.2006 28.0005 18.388 27.6203 17.5598 27.6203ZM26.8889 29.1876C26.5529 29.1022 26.2091 29.2962 26.1232 29.6298L25.0059 33.7809L22.7947 29.979C23.6307 29.5523 24.123 28.66 24.5996 27.791C24.9356 27.178 25.2872 26.534 25.6934 26.2392C26.1154 25.9366 26.8342 25.7969 27.5374 25.6728C27.7874 25.6262 28.0374 25.5796 28.2797 25.5253L31.0612 30.3126L26.8889 29.1876Z" fill="#13141A"/>
<path d="M23.4197 11.3108C23.1775 11.0702 22.779 11.0702 22.5368 11.3108L16.208 17.5956L12.5904 14.0031C12.3482 13.7626 11.9498 13.7626 11.7075 14.0031C11.4653 14.2437 11.4653 14.6394 11.7075 14.8799L15.7705 18.9146C15.8877 19.031 16.0439 19.0931 16.2158 19.0931C16.3877 19.0931 16.544 19.031 16.6612 18.9146L23.4197 12.1875C23.6619 11.947 23.6619 11.5513 23.4197 11.3108Z" fill="#46D993"/>
</g>
</svg>
