<svg width="36" height="36" viewBox="0 0 36 36" fill="none" xmlns="http://www.w3.org/2000/svg">
<mask id="mask0_993_29" style="mask-type:alpha" maskUnits="userSpaceOnUse" x="0" y="0" width="36" height="36">
<rect width="36" height="36" fill="#D9D9D9"/>
</mask>
<g mask="url(#mask0_993_29)">
<path fill-rule="evenodd" clip-rule="evenodd" d="M0 25.9401H7.75964V28.4904H5.34265V36H2.41698V28.4904H0V25.9401ZM17.8094 25.9401H25.569V28.4904H23.1523V36H20.2264V28.4904H17.8094V25.9401ZM7.50529 36L10.8128 25.9401H14.5019L18.1908 36H14.8835L12.8482 29.4823L10.6855 36H7.50529ZM25.3145 36L28.622 25.9401H32.3115L36 36H32.6927L30.6576 29.4823L28.4949 36H25.3145ZM17.648 0C23.5417 0 28.6286 2.73225 30.8646 6.62821C27.4983 5.60696 23.6018 4.82034 19.5548 4.97033C18.9093 4.99431 18.4097 5.18027 18.4097 5.85522V22.1015C17.913 22.1217 17.4158 22.1221 16.9191 22.1027V5.85522C16.9191 5.18003 16.4195 4.99431 15.774 4.97033C11.7114 4.81964 7.80015 5.61308 4.42477 6.6402C6.657 2.73766 11.7483 0 17.648 0ZM31.8417 9.06471C31.998 9.71509 32.0773 10.3852 32.0778 11.0583C32.0778 15.8537 28.059 19.9521 22.4715 21.4788L20.8231 9.22151C20.6892 8.22472 20.6975 7.54648 21.4629 7.52062C25.7566 7.37557 28.2764 8.08273 31.8417 9.06471ZM12.8562 21.4872C7.25201 19.9674 3.2184 15.8629 3.2184 11.0585C3.2184 10.3817 3.2988 9.7185 3.45238 9.07458C7.03586 8.08696 9.55805 7.37557 13.8659 7.52109C14.6315 7.54695 14.6396 8.22519 14.5057 9.22198L12.8562 21.4872Z" fill="#33348E"/>
</g>
</svg>
