<svg width="36" height="36" viewBox="0 0 36 36" fill="none" xmlns="http://www.w3.org/2000/svg">
<mask id="mask0_1000_314" style="mask-type:alpha" maskUnits="userSpaceOnUse" x="0" y="0" width="36" height="36">
<rect width="36" height="36" fill="#D9D9D9"/>
</mask>
<g mask="url(#mask0_1000_314)">
<path d="M29.2252 33.4193V35.9949H30.0241V34.28H32.9315V35.9949H33.7298V33.4237L29.2252 33.4193ZM29.9351 32.5861H33.0068C33.4334 32.4984 33.7507 32.1091 33.8402 31.7325H29.1018C29.1903 32.1092 29.5123 32.4984 29.9351 32.5861ZM26.8059 35.9965C27.2086 35.82 27.4253 35.5146 27.5083 35.1573H23.9254L23.9277 31.7346L23.1245 31.737V35.9965H26.8059ZM17.1519 32.5746H19.9887C20.4164 32.4461 20.7755 32.1092 20.863 31.7358H16.3567V34.253H20.045V35.1364L17.1519 35.1387C16.6985 35.2694 16.314 35.5842 16.1222 35.9999L16.3567 35.9955H20.8374V33.4161H17.1519V32.5746ZM10.1487 32.5827H13.2194C13.6466 32.4947 13.9641 32.1057 14.0531 31.7288H9.31496C9.40341 32.1057 9.72558 32.4947 10.1487 32.5827ZM10.1487 34.2662H13.2194C13.6466 34.1791 13.9641 33.7898 14.0531 33.4126H9.31496C9.40341 33.7899 9.72558 34.1791 10.1487 34.2662ZM10.1487 35.9961H13.2194C13.6466 35.9083 13.9641 35.5191 14.0531 35.1423H9.31496C9.40341 35.5192 9.72558 35.9083 10.1487 35.9961ZM2.16016 31.7391C2.25247 32.1114 2.56418 32.4919 2.99185 32.5872H4.28442L4.35035 32.6141V35.9865H5.1575V32.6141L5.23082 32.5872H6.52452C6.95697 32.472 7.26198 32.1114 7.3527 31.7391V31.7309H2.16016V31.7391Z" fill="#E82127"/>
<path d="M18.0014 27.5513L22.0343 5.78118C25.8785 5.78118 27.091 6.18577 27.2661 7.83719C27.2661 7.83719 29.8449 6.91432 31.1455 5.03998C26.0701 2.78265 20.9704 2.68084 20.9704 2.68084L17.9947 6.15958L18.0014 6.15915L15.0256 2.6803C15.0256 2.6803 9.92584 2.78221 4.85107 5.03954C6.15057 6.91388 8.73036 7.83676 8.73036 7.83676C8.90645 6.18523 10.1175 5.78063 13.9359 5.77802L18.0014 27.5513Z" fill="#E82127"/>
<path d="M17.9999 1.67598C22.1027 1.64586 26.7988 2.28515 31.6062 4.29621C32.2487 3.18621 32.4139 2.69564 32.4139 2.69564C27.1587 0.700069 22.2373 0.0171307 17.9993 0C13.7616 0.0171307 8.84044 0.700178 3.58594 2.69564C3.58594 2.69564 3.82035 3.2999 4.39308 4.29621C9.19956 2.28515 13.8964 1.64586 17.9993 1.67598H17.9999Z" fill="#E82127"/>
</g>
</svg>
