<svg width="36" height="36" viewBox="0 0 36 36" fill="none" xmlns="http://www.w3.org/2000/svg">
<mask id="mask0_1000_294" style="mask-type:alpha" maskUnits="userSpaceOnUse" x="0" y="0" width="36" height="36">
<rect width="36" height="36" fill="#D9D9D9"/>
</mask>
<g mask="url(#mask0_1000_294)">
<path d="M17.9573 30.4223C17.9518 28.5325 19.3792 27.0079 21.162 27.0046C22.9011 27.0076 24.3296 28.5322 24.3647 30.4223C24.33 32.2909 22.9015 33.8155 21.162 33.8419C19.3792 33.8155 17.9519 32.2909 17.9573 30.4223ZM21.1621 32.5821C22.1245 32.5663 22.9213 31.6013 22.9312 30.4223C22.9213 29.2206 22.1245 28.2556 21.1621 28.2624C20.158 28.2553 19.3593 29.2204 19.3911 30.4223C19.3593 31.6011 20.158 32.5661 21.1621 32.5821ZM27.9896 28.4425V33.6619H26.6416V28.4425H24.702V27.2747H29.845V28.4425H27.9896ZM31.4458 32.2206L30.9411 33.6621H29.3404L31.869 27.2747H33.5542L36 33.6621H34.3992L33.8933 32.2206H31.4458ZM32.7124 31.1423H33.5542L32.7124 28.8023L31.869 31.1423H32.7124ZM3.20332 28.4425V33.6619H1.85445V28.4425H0V27.2747H5.05866V28.4425H3.20332ZM5.39597 30.4223C5.39863 28.5325 6.82522 27.0079 8.59814 27.0046C10.3482 27.0076 11.7769 28.5322 11.8027 30.4223C11.7769 32.2909 10.3482 33.8155 8.59814 33.8419C6.82522 33.8155 5.39851 32.2909 5.39597 30.4223ZM8.59814 32.5821C9.57198 32.5663 10.3681 31.6013 10.369 30.4223C10.368 29.2206 9.57198 28.2556 8.59814 28.2624C7.60399 28.2553 6.80643 29.2204 6.82967 30.4223C6.80643 31.6011 7.60399 32.5661 8.59814 32.5821ZM14.8379 33.6619H15.5116V31.2321L17.8729 27.2747H16.3559L14.8379 29.9723L13.4042 27.2747H11.8029L14.1642 31.2321V33.6619H14.8379Z" fill="#AB002F"/>
<path d="M1.08545 13.2148C1.08545 19.3093 8.51189 24.2679 17.6399 24.2679C26.7677 24.2679 34.1943 19.3093 34.1943 13.2148C34.1942 7.11978 26.7677 2.16187 17.6397 2.16187C8.51176 2.16187 1.08545 7.11978 1.08545 13.2148ZM1.59345 13.2148C1.59345 7.41981 8.79167 2.70488 17.6399 2.70488C26.4878 2.70488 33.6863 7.41981 33.6863 13.2148C33.6863 19.011 26.4878 23.7258 17.6399 23.7258C8.79167 23.7257 1.59345 19.0112 1.59345 13.2148Z" fill="black"/>
<path d="M16.0755 4.17127C12.201 4.42374 9.38676 5.51954 8.90708 6.96321C8.85824 7.10868 8.83307 7.26199 8.83266 7.41651C8.83266 7.66004 8.89718 7.90356 9.02519 8.13638C9.56291 9.11401 11.2321 9.9202 13.6073 10.3526L13.8588 10.3965L13.901 10.1285C14.2909 7.59065 15.1467 5.59502 16.25 4.65277L16.8751 4.11829L16.0755 4.17127ZM9.46372 7.86304C9.38092 7.71276 9.34015 7.5645 9.34015 7.41841C9.34015 7.32626 9.35501 7.23628 9.38575 7.14467C9.75189 6.04182 12.2392 5.07856 15.4166 4.76782C14.5102 5.86186 13.8132 7.62481 13.4496 9.76666C11.3849 9.35902 9.90022 8.65704 9.46372 7.86304ZM15.3671 10.2907L15.3174 10.5856L15.5977 10.6084C16.2624 10.6613 16.9496 10.6899 17.6391 10.6899C18.3292 10.6899 19.0168 10.6613 19.6816 10.6084L19.9614 10.5856L19.9116 10.2907C19.5295 8.00073 18.6793 6.63282 17.6395 6.63282C16.5988 6.63282 15.7491 8.00073 15.3671 10.2907ZM17.6396 7.17489C18.3505 7.17489 19.0069 8.31093 19.3527 10.0843C18.7905 10.1235 18.2178 10.1479 17.6391 10.1479C17.0611 10.1479 16.4882 10.1235 15.9266 10.0843C16.2714 8.31093 16.9288 7.17489 17.6396 7.17489ZM19.0287 4.65304C20.1316 5.59529 20.9883 7.5912 21.3782 10.1288L21.4199 10.3968L21.6709 10.3529C24.0472 9.92047 25.7173 9.11401 26.2531 8.13652C26.4615 7.76086 26.5011 7.35512 26.3722 6.96361C25.8927 5.52008 23.0784 4.42429 19.2041 4.17154L18.4055 4.11856L19.0287 4.65304ZM19.8636 4.76782C23.0401 5.07856 25.5273 6.04359 25.8924 7.14467C25.9242 7.23628 25.939 7.32626 25.939 7.41841C25.939 7.5645 25.8974 7.71276 25.8165 7.86304C25.3785 8.65691 23.8933 9.35902 21.8296 9.76666C21.466 7.62494 20.77 5.86199 19.8636 4.76782ZM6.45548 8.02716C4.71419 9.58358 3.79395 11.4326 3.79395 13.3752C3.79395 17.9452 9.01618 21.8079 15.9406 22.3584L16.714 22.4203L16.1251 21.8836C14.6081 20.4987 13.666 17.2129 13.666 13.308L13.6819 12.3854L13.4696 12.3393C9.82732 11.6428 7.23615 10.0086 6.86721 8.17853L6.77895 7.73918L6.45548 8.02716ZM4.30245 13.3752C4.30245 11.7094 5.06394 10.1107 6.49371 8.72223C7.15982 10.5714 9.64876 12.1118 13.1669 12.8285C13.1625 13.0402 13.1585 13.308 13.1585 13.308C13.1585 16.9288 13.9637 20.0557 15.2917 21.7428C8.98239 21.0244 4.30245 17.5078 4.30245 13.3752ZM15.1602 12.8868L15.1586 12.9852C15.1586 16.6149 16.2252 19.3533 17.6396 19.3533C19.0535 19.3533 20.1201 16.6149 20.1201 12.9852L20.1167 12.5936L19.8439 12.6185C19.1246 12.6857 18.3839 12.719 17.6398 12.719C16.8958 12.719 16.1541 12.6857 15.4367 12.6185L15.1628 12.5921L15.1602 12.8868ZM19.6091 13.1778C19.5709 16.555 18.5738 18.8117 17.6396 18.8117C16.7045 18.8117 15.7073 16.555 15.6701 13.1778C16.316 13.2286 16.9758 13.2603 17.6396 13.2603C18.3044 13.2603 18.9623 13.2286 19.6091 13.1778ZM28.4111 8.17853C28.0425 10.0086 25.4508 11.6426 21.8098 12.3393L21.5964 12.3816L21.6133 13.3079C21.6133 17.2128 20.6707 20.4987 19.1542 21.8834L18.5653 22.4202L19.3377 22.3583C26.2627 21.8078 31.4851 17.945 31.4851 13.3751C31.4851 11.4324 30.5639 9.58344 28.8226 8.02702L28.5001 7.73905L28.4111 8.17853ZM28.7846 8.72223C30.2154 10.1107 30.9774 11.7094 30.9774 13.3752C30.9774 17.5078 26.2977 21.0244 19.9877 21.7428C21.3157 20.0557 22.1209 16.9288 22.1209 13.308C22.1209 13.308 22.116 13.0401 22.1125 12.8285C25.6295 12.1118 28.1183 10.5712 28.7846 8.72223Z" fill="black"/>
<path d="M28.5912 6.78327C28.6146 6.85212 28.6359 6.92231 28.6527 6.99292C28.7485 7.39893 28.7287 7.79762 28.6046 8.18615C30.2566 9.63985 31.2304 11.4327 31.2304 13.3754C31.2304 18.2242 25.1454 22.1559 17.6397 22.1559C10.1335 22.1559 4.04891 18.2242 4.04891 13.3754C4.04891 11.4344 5.02376 9.63998 6.67374 8.18615C6.55068 7.79762 6.53087 7.39893 6.62662 6.99292C6.64644 6.91588 6.67284 6.84094 6.70549 6.76904C4.45124 8.4828 3.08447 10.7287 3.08447 13.1885C3.08447 18.5593 9.60058 22.9129 17.6395 22.9129C25.6775 22.9129 32.1946 18.5593 32.1946 13.1885C32.1949 10.7339 30.8336 8.4931 28.5912 6.78327Z" fill="url(#paint0_linear_1000_294)"/>
<path d="M19.662 10.3384C19.0205 10.3897 18.3444 10.4178 17.6394 10.4178C16.935 10.4178 16.2593 10.3897 15.6178 10.3384H15.6158L15.1966 10.6634C15.97 10.7353 16.7867 10.7761 17.6398 10.7761C18.493 10.7761 19.3096 10.7353 20.0835 10.6634L19.662 10.3384ZM27.0967 6.93134C26.5858 5.12936 22.374 3.80603 17.6399 3.80603C12.9066 3.80603 8.69496 5.12963 8.18403 6.93134C7.74055 8.49453 10.1614 9.94132 13.9808 10.5151L13.649 10.084C10.5593 9.52298 8.72289 8.32663 9.14657 7.05466C9.66003 5.5103 13.3895 4.39201 17.6396 4.39201C21.8895 4.39201 25.6198 5.51057 26.1328 7.05466C26.556 8.32676 24.7204 9.52311 21.63 10.084L21.2993 10.5151C25.1173 9.94132 27.5398 8.49453 27.0967 6.93134Z" fill="url(#paint1_linear_1000_294)"/>
<path d="M15.6227 10.3383C15.9774 8.23509 16.7469 6.9207 17.6393 6.9207C18.5328 6.9207 19.3016 8.23509 19.6568 10.3383H19.6639L20.0789 10.6596C19.7286 7.88207 18.7692 6.10706 17.6399 6.10706C16.5099 6.10706 15.5509 7.88207 15.2012 10.6596L15.616 10.3383H15.6227Z" fill="url(#paint2_linear_1000_294)"/>
<path d="M20.2048 12.2335L19.8655 12.8883C19.8655 12.936 19.8675 12.9851 19.8675 13.0348C19.8675 16.5212 18.8684 19.1646 17.6397 19.1646C16.4098 19.1646 15.4127 16.5209 15.4127 13.0348C15.4127 12.9798 15.4138 12.9252 15.4148 12.8725L15.0749 12.2335C15.0649 12.4993 15.06 12.7652 15.0601 13.0312C15.0601 16.9838 16.215 19.9779 17.6402 19.9779C19.0654 19.9779 20.2213 16.9838 20.2213 13.0312C20.2208 12.7652 20.2153 12.4993 20.2048 12.2335Z" fill="url(#paint3_linear_1000_294)"/>
<path d="M13.9862 10.5169C14.4744 6.65625 15.9255 3.80591 17.64 3.80591C15.8019 3.80591 14.2352 6.33114 13.6538 10.0918L13.9812 10.5169H13.9862Z" fill="url(#paint4_linear_1000_294)"/>
<path d="M21.2944 10.5169H21.2979L21.6253 10.0918C21.0449 6.33114 19.4772 3.80591 17.6401 3.80591C19.3546 3.80618 20.8068 6.65625 21.2944 10.5169Z" fill="url(#paint5_linear_1000_294)"/>
<path d="M21.8534 12.6041L21.4367 12.0731H21.4332C21.4566 12.495 21.4699 12.9238 21.4699 13.3593C21.4699 18.6356 19.7549 22.9126 17.6401 22.9126C20.0114 22.9126 21.8668 18.9458 21.8668 13.3593C21.8668 13.1037 21.8619 12.853 21.8534 12.6041Z" fill="url(#paint6_linear_1000_294)"/>
<path d="M13.8112 13.3593C13.8112 12.9238 13.8246 12.495 13.8474 12.0731H13.8446L13.4269 12.6025C13.4181 12.8546 13.4135 13.107 13.4131 13.3593C13.4131 18.9458 15.2699 22.9126 17.6403 22.9126C15.5262 22.9126 13.8112 18.6354 13.8112 13.3593Z" fill="url(#paint7_linear_1000_294)"/>
<path d="M28.6049 8.18603C29.2365 8.74192 29.7693 9.3485 30.186 9.99275C30.0417 8.96813 29.6597 7.99824 29.0747 7.17127C28.9169 7.03742 28.7557 6.90809 28.5914 6.78342C28.6149 6.85226 28.6362 6.92246 28.6527 6.99307C28.7488 7.39894 28.729 7.7975 28.6049 8.18603ZM6.67424 8.18603C6.55118 7.7975 6.53137 7.39881 6.62713 6.9928C6.64694 6.91575 6.67334 6.84082 6.70599 6.76892C6.53659 6.89936 6.36972 7.03351 6.20549 7.17127C5.62135 7.99877 5.23945 8.96842 5.09424 9.99275C5.51092 9.3485 6.04267 8.74179 6.67424 8.18603Z" fill="#2D2F34"/>
<path d="M1.33936 13.215C1.33936 7.26115 8.63677 2.43347 17.6398 2.43347C26.6415 2.43347 33.9391 7.26115 33.9391 13.215C33.9391 19.17 26.6415 23.996 17.6398 23.996C8.63677 23.9958 1.33936 19.1702 1.33936 13.215ZM17.6397 22.9128C25.6777 22.9128 32.1947 18.5593 32.1947 13.1884C32.1947 7.81705 25.6777 3.46205 17.6397 3.46205C9.60057 3.46205 3.08408 7.81732 3.08408 13.1884C3.08408 18.5593 9.60069 22.9128 17.6397 22.9128Z" fill="url(#paint8_linear_1000_294)"/>
<path d="M13.811 13.3593C13.811 8.13853 15.526 3.80603 17.6398 3.80603C19.7546 3.80603 21.4698 8.13853 21.4698 13.3593C21.4698 18.6356 19.7546 22.9127 17.6398 22.9127C15.525 22.9127 13.811 18.6355 13.811 13.3593ZM17.6398 19.9779C19.0651 19.9779 20.2211 16.9838 20.2211 13.0328C20.2211 8.93239 19.065 6.10726 17.6398 6.10726C16.2146 6.10726 15.0597 8.93239 15.0597 13.0328C15.0597 16.9838 16.2146 19.9779 17.6398 19.9779Z" fill="url(#paint9_linear_1000_294)"/>
<path d="M6.62676 6.99276C7.04687 5.21788 12.1276 2.63464 17.6397 2.63464C23.1512 2.63464 28.0575 4.48039 28.6527 6.99276C29.319 9.80881 24.4225 12.3574 17.6397 12.3574C10.8557 12.3574 5.9595 9.80895 6.62676 6.99276ZM17.6397 3.80606C12.9064 3.80606 8.69469 5.12966 8.18377 6.93137C7.61126 8.9499 11.8151 10.7761 17.6397 10.7761C23.4654 10.7761 27.6685 8.94963 27.0965 6.93137C26.5855 5.12939 22.374 3.80606 17.6397 3.80606Z" fill="url(#paint10_linear_1000_294)"/>
<path d="M15.0692 12.2283L15.0721 12.2304L15.4219 12.8884C16.1337 12.9533 16.874 12.9904 17.6394 12.9904C18.4084 12.9904 19.1505 12.9534 19.867 12.8867L20.2074 12.2302L20.2094 12.228C19.3909 12.3111 18.5326 12.3571 17.6397 12.3571C16.7814 12.3577 15.9236 12.3147 15.0692 12.2283ZM28.71 7.60168C28.6226 9.61521 25.7221 11.3992 21.4346 12.0715L21.4361 12.0731L21.8543 12.6064C26.0495 11.8016 28.8093 9.82499 28.71 7.60168ZM6.56899 7.60168C6.46981 9.82716 9.22939 11.8015 13.4238 12.6064L13.843 12.0731L13.8441 12.0715C9.55578 11.3993 6.65726 9.61534 6.56899 7.60168Z" fill="url(#paint11_linear_1000_294)"/>
</g>
<defs>
<linearGradient id="paint0_linear_1000_294" x1="17.6395" y1="21.7116" x2="17.6395" y2="9.42627" gradientUnits="userSpaceOnUse">
<stop stop-color="#F0F3F5"/>
<stop offset="0.056" stop-color="#E2E5E8"/>
<stop offset="0.138" stop-color="#D4D8DD"/>
<stop offset="0.242" stop-color="#CCD0D6"/>
<stop offset="0.44" stop-color="#CACED4"/>
<stop offset="0.568" stop-color="#B3B7BD"/>
<stop offset="0.835" stop-color="#797C83"/>
<stop offset="1" stop-color="#52545C"/>
</linearGradient>
<linearGradient id="paint1_linear_1000_294" x1="17.6403" y1="12.3508" x2="17.6403" y2="5.69366" gradientUnits="userSpaceOnUse">
<stop stop-color="#F0F3F5"/>
<stop offset="0.056" stop-color="#E2E5E8"/>
<stop offset="0.138" stop-color="#D4D8DD"/>
<stop offset="0.242" stop-color="#CCD0D6"/>
<stop offset="0.44" stop-color="#CACED4"/>
<stop offset="0.568" stop-color="#B3B7BD"/>
<stop offset="0.835" stop-color="#797C83"/>
<stop offset="1" stop-color="#52545C"/>
</linearGradient>
<linearGradient id="paint2_linear_1000_294" x1="19.7111" y1="11.1272" x2="15.6092" y2="7.90163" gradientUnits="userSpaceOnUse">
<stop stop-color="#F0F3F5"/>
<stop offset="0.056" stop-color="#E2E5E8"/>
<stop offset="0.138" stop-color="#D4D8DD"/>
<stop offset="0.242" stop-color="#CCD0D6"/>
<stop offset="0.44" stop-color="#CACED4"/>
<stop offset="0.568" stop-color="#B3B7BD"/>
<stop offset="0.835" stop-color="#797C83"/>
<stop offset="1" stop-color="#52545C"/>
</linearGradient>
<linearGradient id="paint3_linear_1000_294" x1="20.1075" y1="16.9297" x2="14.2489" y2="13.7599" gradientUnits="userSpaceOnUse">
<stop stop-color="#F0F3F5"/>
<stop offset="0.056" stop-color="#E2E5E8"/>
<stop offset="0.138" stop-color="#D4D8DD"/>
<stop offset="0.242" stop-color="#CCD0D6"/>
<stop offset="0.44" stop-color="#CACED4"/>
<stop offset="0.568" stop-color="#B3B7BD"/>
<stop offset="0.835" stop-color="#797C83"/>
<stop offset="1" stop-color="#52545C"/>
</linearGradient>
<linearGradient id="paint4_linear_1000_294" x1="15.6469" y1="2.43257" x2="15.6469" y2="12.9916" gradientUnits="userSpaceOnUse">
<stop stop-color="#F0F3F5"/>
<stop offset="0.056" stop-color="#E2E5E8"/>
<stop offset="0.138" stop-color="#D4D8DD"/>
<stop offset="0.242" stop-color="#CCD0D6"/>
<stop offset="0.44" stop-color="#CACED4"/>
<stop offset="0.568" stop-color="#B3B7BD"/>
<stop offset="0.835" stop-color="#797C83"/>
<stop offset="1" stop-color="#52545C"/>
</linearGradient>
<linearGradient id="paint5_linear_1000_294" x1="19.6328" y1="2.43257" x2="19.6328" y2="12.9916" gradientUnits="userSpaceOnUse">
<stop stop-color="#F0F3F5"/>
<stop offset="0.056" stop-color="#E2E5E8"/>
<stop offset="0.138" stop-color="#D4D8DD"/>
<stop offset="0.242" stop-color="#CCD0D6"/>
<stop offset="0.44" stop-color="#CACED4"/>
<stop offset="0.568" stop-color="#B3B7BD"/>
<stop offset="0.835" stop-color="#797C83"/>
<stop offset="1" stop-color="#52545C"/>
</linearGradient>
<linearGradient id="paint6_linear_1000_294" x1="19.7534" y1="2.34377" x2="19.7534" y2="19.9657" gradientUnits="userSpaceOnUse">
<stop stop-color="#F0F3F5"/>
<stop offset="0.056" stop-color="#E2E5E8"/>
<stop offset="0.138" stop-color="#D4D8DD"/>
<stop offset="0.242" stop-color="#CCD0D6"/>
<stop offset="0.44" stop-color="#CACED4"/>
<stop offset="0.568" stop-color="#B3B7BD"/>
<stop offset="0.835" stop-color="#797C83"/>
<stop offset="1" stop-color="#52545C"/>
</linearGradient>
<linearGradient id="paint7_linear_1000_294" x1="15.5266" y1="2.34363" x2="15.5266" y2="19.9655" gradientUnits="userSpaceOnUse">
<stop stop-color="#F0F3F5"/>
<stop offset="0.056" stop-color="#E2E5E8"/>
<stop offset="0.138" stop-color="#D4D8DD"/>
<stop offset="0.242" stop-color="#CCD0D6"/>
<stop offset="0.44" stop-color="#CACED4"/>
<stop offset="0.568" stop-color="#B3B7BD"/>
<stop offset="0.835" stop-color="#797C83"/>
<stop offset="1" stop-color="#52545C"/>
</linearGradient>
<linearGradient id="paint8_linear_1000_294" x1="17.6391" y1="2.43347" x2="17.6391" y2="23.996" gradientUnits="userSpaceOnUse">
<stop stop-color="#F0F3F5"/>
<stop offset="0.253" stop-color="#EDF0F3"/>
<stop offset="0.406" stop-color="#E5E8EA"/>
<stop offset="0.531" stop-color="#D7DADC"/>
<stop offset="0.642" stop-color="#C3C5C9"/>
<stop offset="0.744" stop-color="#A9ABAF"/>
<stop offset="0.839" stop-color="#888B90"/>
<stop offset="0.926" stop-color="#63656B"/>
<stop offset="1" stop-color="#3D3F46"/>
</linearGradient>
<linearGradient id="paint9_linear_1000_294" x1="17.6403" y1="2.43229" x2="17.6403" y2="23.9961" gradientUnits="userSpaceOnUse">
<stop stop-color="#F0F3F5"/>
<stop offset="0.253" stop-color="#EDF0F3"/>
<stop offset="0.406" stop-color="#E5E8EA"/>
<stop offset="0.531" stop-color="#D7DADC"/>
<stop offset="0.642" stop-color="#C3C5C9"/>
<stop offset="0.744" stop-color="#A9ABAF"/>
<stop offset="0.839" stop-color="#888B90"/>
<stop offset="0.926" stop-color="#63656B"/>
<stop offset="1" stop-color="#3D3F46"/>
</linearGradient>
<linearGradient id="paint10_linear_1000_294" x1="17.6397" y1="2.43462" x2="17.6397" y2="23.9979" gradientUnits="userSpaceOnUse">
<stop stop-color="#F0F3F5"/>
<stop offset="0.253" stop-color="#EDF0F3"/>
<stop offset="0.406" stop-color="#E5E8EA"/>
<stop offset="0.531" stop-color="#D7DADC"/>
<stop offset="0.642" stop-color="#C3C5C9"/>
<stop offset="0.744" stop-color="#A9ABAF"/>
<stop offset="0.839" stop-color="#888B90"/>
<stop offset="0.926" stop-color="#63656B"/>
<stop offset="1" stop-color="#3D3F46"/>
</linearGradient>
<linearGradient id="paint11_linear_1000_294" x1="17.6396" y1="6.90553" x2="17.6396" y2="13.051" gradientUnits="userSpaceOnUse">
<stop stop-color="#CACED4"/>
<stop offset="1" stop-color="#52545C"/>
</linearGradient>
</defs>
</svg>
