<svg width="36" height="36" viewBox="0 0 36 36" fill="none" xmlns="http://www.w3.org/2000/svg">
<mask id="mask0_1001_430" style="mask-type:alpha" maskUnits="userSpaceOnUse" x="0" y="0" width="36" height="36">
<rect width="36" height="36" fill="#D9D9D9"/>
</mask>
<g mask="url(#mask0_1001_430)">
<path d="M33.416 8.30769C33.416 8.00669 33.1113 7.76589 32.8066 7.76589C22.9343 7.76589 18.12 0.301003 18.12 0.240803C18.12 0.180602 18.059 0.180602 18.059 0.180602L17.9981 0.120401C17.9981 0.120401 17.9371 0.120401 17.9371 0.0602008C17.8762 0.0602008 17.8762 0 17.8153 0H17.5715C17.5106 0 17.5106 8.52207e-08 17.4496 0.0602008H17.3887C17.3277 0.0602008 17.3277 0.120401 17.2668 0.120401L17.2059 0.180602C17.023 0.301003 12.2087 7.76589 2.33638 7.76589C2.03168 7.76589 1.72698 8.00669 1.72698 8.30769C1.72698 8.54849 0.690993 31.0635 17.3887 36H17.7543C34.452 31.1237 33.416 8.54849 33.416 8.30769ZM2.94579 8.9699C11.3556 8.7291 16.1089 3.55184 17.5715 1.62542C19.095 3.55184 23.7874 8.7291 32.1972 8.9699C32.2582 12.4013 31.7706 30.5217 17.5715 34.8562C3.37237 30.5217 2.88485 12.4013 2.94579 8.9699Z" fill="#13141A"/>
<path d="M25.4934 18.6022C25.4934 14.2678 21.9589 10.7761 17.5712 10.7761C13.1835 10.7761 9.64893 14.2678 9.64893 18.6022C9.64893 22.9367 13.1835 26.4283 17.5712 26.4283C21.9589 26.4283 25.4934 22.9367 25.4934 18.6022ZM10.8677 18.6022C10.8677 14.93 13.8538 11.9801 17.5712 11.9801C21.2886 11.9801 24.2746 14.93 24.2746 18.6022C24.2746 22.2744 21.2886 25.2243 17.5712 25.2243C13.8538 25.2243 10.8677 22.2744 10.8677 18.6022Z" fill="#46D993"/>
<path d="M21.5324 16.4951C21.2887 16.2543 20.923 16.2543 20.6793 16.4951L16.2306 20.8897L14.2196 18.9031C13.9758 18.6623 13.6102 18.6623 13.3664 18.9031C13.1227 19.1439 13.1227 19.5051 13.3664 19.7459L15.804 22.1539C15.9259 22.2743 16.1087 22.3345 16.2306 22.3345C16.3525 22.3345 16.5353 22.2743 16.6572 22.1539L21.5324 17.3379C21.7762 17.0971 21.7762 16.7359 21.5324 16.4951Z" fill="#46D993"/>
</g>
</svg>
