<svg width="77" height="42" viewBox="0 0 77 42" fill="none" xmlns="http://www.w3.org/2000/svg">
<g filter="url(#filter0_f_1369_1877)">
<path d="M66.7773 26.3999H9.99957V31.4908L38.3885 30.3999L66.7773 31.9999V26.3999Z" fill="#13141A"/>
</g>
<mask id="mask0_1369_1877" style="mask-type:alpha" maskUnits="userSpaceOnUse" x="3" y="0" width="70" height="32">
<rect width="70" height="32" transform="matrix(-1 0 0 1 73 0)" fill="#D9D9D9"/>
</mask>
<g mask="url(#mask0_1369_1877)">
<path d="M57.4037 22.9947C58.5237 22.5743 59.8464 22.9343 60.6079 23.8558C61.3851 24.7975 61.5165 26.1686 60.8818 27.2243C60.2472 28.2822 59.0158 28.8078 57.8156 28.5819C56.4907 28.3314 55.5689 27.137 55.4976 25.8196C55.4954 25.7928 55.4932 25.7637 55.4932 25.7346C55.4932 25.6989 55.4954 25.6653 55.4998 25.6317C55.5622 24.4508 56.2837 23.413 57.4037 22.9947ZM58.3946 27.4546C59.332 27.4524 60.1092 26.6696 60.1069 25.7279C60.1047 24.7863 59.3254 24.0035 58.3879 24.008C57.4326 24.0124 56.6956 24.7908 56.6755 25.7346C56.6978 26.6763 57.4415 27.4569 58.3946 27.4546Z" fill="#272525"/>
<path d="M56.4392 20.1971C58.7839 19.3181 61.5562 20.0741 63.1394 22.0178C64.7449 23.9905 64.992 26.831 63.6627 29.0207C62.3489 31.188 59.8015 32.2952 57.3276 31.8233C54.5242 31.2887 52.509 28.73 52.4756 25.8961C52.4957 23.3575 54.07 21.0851 56.4392 20.1971ZM56.8222 30.4522C58.7639 31.1545 60.926 30.5595 62.2509 28.976C63.5558 27.417 63.6939 25.1066 62.6584 23.3754C61.623 21.6465 59.5477 20.7004 57.5704 21.1052C55.3036 21.5704 53.6781 23.5745 53.658 25.8939C53.6825 27.8957 54.925 29.7678 56.8222 30.4522Z" fill="#272525"/>
<path d="M20.264 23.0646C21.3841 22.6441 22.7068 23.0042 23.4683 23.9257C24.2454 24.8673 24.3768 26.2384 23.7422 27.2941C23.1076 28.352 21.8762 28.8776 20.676 28.6517C19.3511 28.4012 18.4292 27.2068 18.358 25.8895C18.3557 25.8626 18.3535 25.8335 18.3535 25.8045C18.3535 25.7687 18.3557 25.7351 18.3602 25.7016C18.4225 24.5206 19.144 23.4851 20.264 23.0646ZM21.2549 27.5244C22.1924 27.5222 22.9695 26.7394 22.9673 25.7978C22.9651 24.8561 22.1857 24.0733 21.2483 24.0778C20.293 24.0822 19.5559 24.8606 19.5359 25.8045C19.5604 26.7461 20.3019 27.5267 21.2549 27.5244Z" fill="#272525"/>
<path d="M19.2995 20.2665C21.6443 19.3875 24.4166 20.1435 25.9998 22.0871C27.6052 24.0598 27.8524 26.9004 26.523 29.0901C25.2093 31.2574 22.6619 32.3645 20.188 31.8926C17.3846 31.358 15.3694 28.7993 15.336 25.9655C15.3582 23.4269 16.9303 21.1567 19.2995 20.2665ZM19.6825 30.5238C21.6242 31.2261 23.7864 30.6311 25.1113 29.0476C26.4162 27.4886 26.5542 25.1782 25.5188 23.447C24.4834 21.7181 22.408 20.772 20.4307 21.1768C18.1639 21.642 16.5384 23.6461 16.5184 25.9655C16.5428 27.965 17.7854 29.8371 19.6825 30.5238Z" fill="#272525"/>
<path d="M64.6044 12.9566C64.6044 12.8448 64.6935 12.7665 64.8003 12.7576C66.2856 12.648 69.2872 12.7844 69.3339 14.8332C69.3362 14.9405 69.2426 15.0322 69.138 15.0322C67.7129 15.0345 66.2878 15.0367 64.8627 15.0412C64.8026 15.0412 64.758 15.0188 64.7246 14.9853C64.7246 14.9853 64.7224 14.9853 64.7224 14.983C64.5309 14.8287 64.6155 14.2248 64.6111 14.0168C64.6066 13.6634 64.6044 13.31 64.6044 12.9566ZM65.0364 14.737C65.0408 14.7415 65.0431 14.746 65.0453 14.7504C65.0453 14.7482 65.043 14.7415 65.0341 14.7325C65.0341 14.7348 65.0364 14.7348 65.0364 14.737ZM65.003 13.82C65.0052 14.0213 65.0097 14.2203 65.0163 14.4216C65.0186 14.4932 65.0319 14.5715 65.0297 14.6453C66.3256 14.6431 67.6238 14.6408 68.9198 14.6386C68.7595 13.688 67.6127 13.3704 66.7754 13.2384C66.1943 13.1467 65.5908 13.1154 64.9985 13.1445C65.0007 13.3682 65.0007 13.5941 65.003 13.82Z" fill="#272525"/>
<path d="M8.62705 13.2298C9.36409 12.8384 11.0119 12.3397 11.504 13.3708C11.9337 14.2677 10.8293 15.1869 10.1613 15.556C9.39082 15.9832 7.80316 16.473 7.23757 15.471C7.22867 15.4553 7.22199 15.4397 7.21754 15.424C7.21754 15.424 7.21754 15.424 7.21754 15.4218C6.82564 14.498 7.93008 13.6011 8.62705 13.2298ZM7.58273 15.2809C8.03698 16.057 9.45539 15.5068 10.0188 15.1824C10.4752 14.9208 11.4773 14.1759 11.1388 13.5206C10.9651 13.1851 10.4797 13.1516 10.1524 13.1717C9.6469 13.203 9.15033 13.3842 8.71389 13.6347C8.20843 13.9254 7.33333 14.592 7.58273 15.2809Z" fill="#272525"/>
<path d="M40.1991 13.7639L41.8157 13.7617C42.0763 13.7617 42.29 13.9742 42.29 14.2359C42.29 14.4976 42.0785 14.7123 41.818 14.7123L40.2014 14.7145C39.9408 14.7145 39.7271 14.502 39.7271 14.2404C39.7271 13.9787 39.9408 13.7639 40.1991 13.7639Z" fill="#272525"/>
<path d="M29.5739 6.90664C30.7385 5.81068 31.9142 4.73038 33.0766 3.63666C33.7334 3.01934 34.466 2.59437 35.3634 2.44452C36.018 2.33492 36.6772 2.33492 37.3385 2.33268C38.7814 2.33045 40.2243 2.32822 41.6672 2.32374C42.5179 2.32151 43.3084 2.64582 43.5978 3.52706C43.7559 4.00794 43.6824 4.60736 43.6847 5.10614C43.6869 5.92028 43.6869 6.73218 43.6891 7.54632C43.6891 8.03391 43.7403 8.55058 43.6646 9.03593C43.5288 9.92836 42.765 10.492 41.8944 10.5054C41.5715 10.5099 41.2486 10.5076 40.9258 10.5076C39.5452 10.5099 38.1624 10.5121 36.7818 10.5144C34.1431 10.5188 31.5 10.5725 28.8614 10.53C28.8101 10.53 28.7589 10.53 28.7099 10.53C28.6743 10.53 28.6409 10.5278 28.6075 10.5211C28.0865 10.4629 27.6545 10.1408 27.6367 9.56378C27.6189 9.01356 27.9551 8.479 28.3114 8.08982C28.6988 7.67157 29.1575 7.29581 29.5739 6.90664ZM34.8268 9.3334C37.1693 9.32893 39.514 9.31998 41.8565 9.31998C42.2284 9.31998 42.4889 9.1254 42.509 8.72951C42.5357 8.21956 42.5067 7.69841 42.5067 7.18622C42.5045 6.43918 42.5045 5.69213 42.5023 4.94509C42.5023 4.61183 42.6114 3.98781 42.3754 3.70599C42.1215 3.40181 41.527 3.50917 41.1796 3.5114C40.4492 3.51364 39.7189 3.51364 38.9885 3.51588C38.3628 3.51812 37.7393 3.51811 37.1136 3.52034C36.4879 3.52258 35.8533 3.51588 35.2432 3.67915C34.5284 3.86927 34.0585 4.31883 33.5375 4.83997C32.9741 5.40137 32.3662 5.90462 31.7873 6.44813C30.9233 7.26003 29.9992 8.03615 29.1798 8.89502C29.0551 9.02475 28.9415 9.17908 28.8703 9.34459C30.8587 9.34012 32.8427 9.33564 34.8268 9.3334Z" fill="#272525"/>
<path d="M45.9286 4.26982C45.9286 3.80684 45.9286 3.36397 46.1892 2.95019C46.5499 2.37985 47.1489 2.18302 47.7857 2.18302C48.908 2.18079 50.028 2.17854 51.1503 2.17631C52.4284 2.17407 53.6398 2.27025 54.7999 2.88086C56.3341 3.69053 57.4898 5.19803 57.8661 6.89789C58.0153 7.57783 58.1021 8.38525 57.993 9.08085C57.8617 9.91065 57.158 10.4497 56.3453 10.4788C55.6127 10.5056 54.8734 10.481 54.1408 10.4832C51.9831 10.4877 49.8254 10.4922 47.6677 10.4944C47.6454 10.4966 47.6209 10.4966 47.5964 10.4944C47.5541 10.4944 47.5118 10.4899 47.474 10.4832C46.6033 10.3871 45.9732 9.72054 45.9375 8.8214C45.9242 8.4792 45.9353 8.13252 45.9353 7.79031C45.9331 6.6183 45.9309 5.44406 45.9286 4.26982ZM47.592 9.30899C49.2509 9.30675 50.9076 9.30229 52.5665 9.30005C53.5663 9.29781 54.5683 9.29557 55.5681 9.29333C55.8064 9.29333 56.0491 9.30451 56.2896 9.29109C56.6971 9.27096 56.8351 9.02494 56.8351 8.64247C56.8329 7.18194 56.4588 5.84219 55.4011 4.78425C54.4548 3.83815 53.1967 3.3595 51.8695 3.3595C50.9143 3.3595 49.9568 3.36397 49.0015 3.36397C48.574 3.36397 48.1487 3.36621 47.7211 3.36621C47.3938 3.36621 47.1377 3.48251 47.111 3.85603C47.0398 4.84016 47.1155 5.85784 47.1177 6.84644C47.1177 7.38323 47.1199 7.92003 47.1199 8.45683C47.1199 8.82364 47.091 9.28439 47.592 9.30899Z" fill="#272525"/>
<path d="M3.60792 19.9241C3.55448 19.7608 3.52773 19.5819 3.52773 19.394C3.52773 18.8483 3.40305 18.1035 3.67471 17.6047C3.92632 17.1439 4.42511 16.927 4.89941 16.9829C4.89941 16.5781 4.90608 16.1755 4.9239 15.7751C5.05082 13.1515 7.2308 11.0781 9.83384 11.0401C10.5909 11.0379 11.3458 11.0379 12.1029 11.0356C13.243 11.0334 14.3853 11.0312 15.5276 11.0289C15.6055 10.982 15.7013 10.9506 15.8126 10.9439C16.5207 10.9081 17.044 10.8254 17.7231 10.6912C18.9701 10.4474 20.2415 10.0806 21.3081 9.36486C21.8559 8.99581 22.2077 8.54178 22.5551 7.98933C23.025 7.24228 23.5505 6.52879 24.1205 5.85779C25.1626 4.63211 26.3895 3.56298 27.7412 2.69292C30.6448 0.823083 34.025 -0.0223692 37.4452 0.0111805C39.2756 0.0290737 41.106 0 42.9363 0C44.4995 0 46.0649 0.0671045 47.628 0.102891C48.7303 0.127494 49.8414 0.11184 50.9414 0.216962C52.9187 0.409314 54.8961 0.820846 56.7331 1.58802C58.9732 2.52517 61.0975 4.12662 61.7099 6.60706C62.0928 8.16154 62.5538 9.68247 64.0947 10.5056C64.6536 10.8053 65.2771 10.9171 65.9072 10.9216C65.9473 10.9216 65.9874 10.926 66.023 10.9328C66.1366 10.9328 66.2479 10.9328 66.3615 10.9328C67.3435 10.9305 68.301 11.1273 69.1493 11.6485C70.1491 12.2636 70.9062 13.2231 71.2803 14.3392C71.5052 15.0124 71.5253 15.7035 71.5275 16.4036C71.5275 16.6653 71.5297 16.927 71.5297 17.1887C71.9417 17.1104 72.3892 17.2334 72.6898 17.5868C73.1018 18.0721 72.9838 18.8058 72.986 19.3962C72.986 19.7228 72.9994 20.0449 72.8368 20.3423C72.6253 20.7293 72.2066 20.982 71.768 20.982C71.6722 20.9776 71.5809 20.9641 71.4963 20.944C71.4028 21.6732 71.1512 22.3688 70.7726 22.9838C70.8439 23.0129 70.8973 23.08 70.8929 23.1628C70.8216 24.413 70.5811 25.7774 69.3186 26.3299C68.4212 26.7213 67.5238 26.6609 66.5686 26.6631C66.5485 26.6631 66.5307 26.6586 66.5129 26.6542L65.001 26.6564C65.0678 25.3345 64.7605 23.9903 64.0769 22.834C62.6696 20.4519 59.8439 19.1457 57.1562 19.7049C54.7491 20.2037 52.8742 21.9997 52.1527 24.2833C52.0993 24.4913 52.0548 24.7016 52.0214 24.9163C52.0125 24.9767 51.988 25.0326 51.9546 25.0841C51.8789 25.4822 51.8388 25.8915 51.8343 26.3075C51.8366 26.4327 51.841 26.558 51.8499 26.6832L49.9772 26.7526V26.7503C47.8373 26.813 45.6952 26.775 43.5554 26.7794C39.9904 26.7861 36.4254 26.7929 32.8626 26.7996C32.0254 26.8018 31.1859 26.8018 30.3487 26.804C30.3442 26.804 30.3397 26.8018 30.3353 26.8018L29.0705 26.804V26.7906L27.9282 26.7928C27.9616 26.2382 27.9282 25.6812 27.8302 25.1333C27.7946 25.0818 27.7679 25.0237 27.759 24.961C27.7033 24.6278 27.6254 24.3035 27.5229 23.9858C27.3871 23.6123 27.2179 23.25 27.0152 22.9033C25.6191 20.5213 22.8179 19.2151 20.1502 19.7742C17.0907 20.4139 14.8974 23.1807 14.8707 26.3746C14.8729 26.5222 14.8796 26.6698 14.8907 26.8152L13.2919 26.8175C13.2919 26.813 13.2919 26.8085 13.2919 26.804C13.0336 26.8107 12.7753 26.8197 12.517 26.8264C12.5037 26.8309 12.4881 26.8331 12.4747 26.8331C11.348 26.8354 10.2235 26.8398 9.09679 26.8421C7.85205 26.8443 6.31783 26.766 5.57188 25.594C5.0152 24.7195 5.10648 23.5833 5.28239 22.6058C5.28239 22.5857 5.28686 22.5656 5.29354 22.5477C5.30244 22.5074 5.32025 22.4784 5.34475 22.456C5.26459 22.2703 5.19334 22.078 5.13545 21.8834L4.02654 21.8856C3.46318 21.8856 3 21.4249 3 20.859C3.00446 20.4475 3.25387 20.0874 3.60792 19.9241ZM71.7702 20.5884C72.6297 20.5861 72.5963 19.7161 72.5963 19.1077C72.5941 18.4837 72.6587 17.5555 71.7658 17.5532C71.6811 17.5532 71.6054 17.5622 71.5364 17.5779C71.5408 18.5061 71.5475 19.432 71.5386 20.3602C71.5386 20.4251 71.5364 20.49 71.5319 20.5548C71.6032 20.5705 71.6834 20.5839 71.7702 20.5884ZM26.1669 5.42388C25.5746 5.98304 25.0245 6.58918 24.5235 7.2311C24.3454 7.45924 24.1851 7.69632 24.027 7.93787C26.3717 7.04769 28.3669 5.32323 29.4335 3.0754C28.2488 3.71284 27.1488 4.49567 26.1669 5.42388ZM46.1317 23.921C46.7596 23.9188 47.3853 23.9187 48.0133 23.9165C48.6301 20.3379 51.6451 17.7232 55.0119 16.7391C58.7839 15.6364 63.0704 16.4349 66.0163 19.1032C67.3056 20.273 68.2854 21.785 68.7263 23.4714C69.2251 23.1247 69.6414 22.6595 69.9331 22.1115C70.2783 21.4629 70.3585 20.7718 70.3585 20.0493C70.3562 19.3269 70.3562 18.6045 70.354 17.8843C70.3518 16.426 70.5299 14.8961 69.617 13.6458C68.8799 12.6371 67.7153 12.1182 66.4884 12.1182C65.4552 12.1182 64.422 12.1227 63.391 12.1249C61.2356 12.1294 59.0779 12.1338 56.9224 12.1361C54.0143 12.1405 51.1062 12.1473 48.1981 12.1517C47.1649 12.154 46.1295 12.1562 45.0963 12.1584V12.4067C45.0963 12.6125 44.956 12.7869 44.7667 12.8406C44.7689 14.0372 44.7711 15.2338 44.7734 16.4304C44.9426 16.4953 45.0628 16.6586 45.0651 16.8487L45.0673 18.3987C45.0673 18.591 44.9471 18.7543 44.7778 18.8192C44.7801 20.1388 44.7823 21.4584 44.7845 22.7781C44.7845 23.0666 44.7979 23.3551 44.7867 23.6436C44.7823 23.7421 44.7712 23.8338 44.7511 23.9232C45.2098 23.9232 45.6708 23.9232 46.1317 23.921ZM26.4586 12.5834C26.4608 14.1848 26.4652 15.7885 26.4675 17.39C27.4094 17.8194 28.2912 18.3786 29.0772 19.0719C30.5179 20.3424 31.5578 22.0467 31.894 23.9501C33.6887 23.9456 35.4835 23.9434 37.2782 23.9389C39.6274 23.9344 41.9744 23.9299 44.3236 23.9255C44.3904 23.6929 44.3904 23.4356 44.3882 23.1605C44.3859 21.7134 44.3837 20.2641 44.3793 18.8169C44.2167 18.7499 44.0987 18.5888 44.0987 18.4009L44.0965 16.8509C44.0965 16.6631 44.2122 16.502 44.3748 16.4349C44.3726 15.2249 44.3703 14.0171 44.3681 12.8071C44.2256 12.731 44.1276 12.5812 44.1276 12.4112V12.1652C42.1971 12.1696 40.2665 12.1719 38.3359 12.1763C35.0448 12.183 31.7559 12.1898 28.4648 12.1942C27.7968 12.1965 27.1266 12.1965 26.4586 12.1987C26.4586 12.3262 26.4586 12.4559 26.4586 12.5834ZM26.4563 11.0088C26.5365 11.0088 26.6144 11.0088 26.6946 11.0088C30.0102 11.0021 33.3258 10.9954 36.6392 10.9909C39.1353 10.9864 41.6292 10.982 44.1254 10.9775V10.8612C44.1254 10.689 44.2234 10.5391 44.3637 10.4631C44.3614 9.78759 44.3614 9.11213 44.3592 8.43666C44.3592 8.36956 44.3592 8.30021 44.3592 8.23311C44.3592 8.23088 44.3592 8.23087 44.3592 8.22864C44.357 6.70771 44.3525 5.1868 44.3503 3.66587C44.3503 3.44221 44.3703 3.19617 44.3236 2.97698C44.1722 2.26796 43.4596 1.91681 42.796 1.89891C42.1681 1.88326 41.5313 1.86984 40.9056 1.87208C39.3691 1.87431 37.8327 1.87431 36.2962 1.88102C35.1584 1.88549 34.0472 2.06667 33.0697 2.68398C31.943 3.39524 31.0568 4.46659 30.1282 5.40822C29.0104 6.54444 27.8792 7.66501 26.7525 8.79452C26.4764 9.08975 26.463 9.42749 26.463 9.81443C26.463 9.85916 26.4853 10.0224 26.4608 10.1253C26.4741 10.2148 26.4519 10.4698 26.4519 10.5011C26.4563 10.6711 26.4563 10.8411 26.4563 11.0088ZM26.1201 9.94862C26.1067 9.93967 26.0733 9.80324 26.0733 9.75851C26.0733 9.59524 26.0778 9.42972 26.1023 9.26868C26.149 8.97121 26.2737 8.73636 26.4786 8.51717C27.5051 7.48608 28.5339 6.45721 29.5604 5.42612C30.4889 4.49343 31.3618 3.46904 32.4084 2.66832C33.4327 1.8855 34.6195 1.53881 35.8977 1.49184C37.5098 1.43145 39.1309 1.48066 40.7452 1.47618C41.3954 1.47395 42.0456 1.5008 42.7003 1.50304C43.7335 1.50527 44.7177 2.12258 44.7489 3.24314C44.7934 4.9005 44.7556 6.56458 44.7578 8.22417C44.7578 8.22417 44.7578 8.2264 44.7578 8.22864C44.76 8.96226 44.76 9.69365 44.7622 10.4273C44.9515 10.4787 45.0918 10.6532 45.0918 10.8589V10.9753C45.6507 10.9753 46.2096 10.973 46.7708 10.973C49.8013 10.9663 52.8319 10.9618 55.8625 10.9551C58.127 10.9506 60.3916 10.9462 62.6562 10.9417C62.5115 10.8164 62.3712 10.6822 62.2398 10.5369C61.5473 9.77193 61.073 8.82582 60.7858 7.83722C60.6076 7.22662 60.5408 6.60707 60.2625 6.0233C59.7748 4.99668 58.9532 4.18701 58.009 3.5764C56.1898 2.39992 54.0121 1.83181 51.8922 1.51868C51.6272 1.47842 51.6807 1.48738 51.4268 1.45606C51.2554 1.43593 51.0839 1.4158 50.9102 1.40015C50.7009 1.38002 50.4938 1.36212 50.2845 1.35093C49.9015 1.3308 49.5141 1.3308 49.1311 1.32186C45.5683 1.24134 42.0167 1.18767 38.4539 1.19438C37.5655 1.19661 36.6726 1.15634 35.7841 1.22568C34.8823 1.29502 34.1341 1.41579 33.1989 1.64393C32.2837 1.8676 31.3841 2.16732 30.5201 2.54531C29.8476 4.60974 28.2244 6.46392 26.4586 7.61803C25.4988 8.2443 24.4322 8.69833 23.33 8.99804C23.2432 9.12106 23.1563 9.24185 23.0628 9.35816C22.466 10.1097 21.631 10.633 20.747 11.0177C22.5106 11.0155 24.2764 11.011 26.0399 11.0088C26.0444 10.6733 26.0555 10.3378 26.0778 10.0068C26.08 9.98441 26.109 9.96428 26.1201 9.94862ZM6.11076 20.1209C6.30225 20.3088 6.42248 20.5682 6.42248 20.8568C6.42248 21.0737 6.35569 21.275 6.2399 21.4405C6.36237 21.9125 6.57167 22.3598 6.87451 22.7579C7.29981 23.3193 7.87877 23.7443 8.52675 23.9948C8.59355 23.9926 8.66035 23.9926 8.72714 23.9926C9.50204 23.9903 10.2747 23.9903 11.0496 23.9881C11.6686 20.3893 14.7148 17.768 18.1017 16.795C20.6958 16.0502 23.5727 16.1889 26.0733 17.2177C26.0711 16.0927 26.0689 14.9654 26.0667 13.8404C26.0667 13.2969 26.0511 12.7467 26.0422 12.1987C23.9179 12.2032 21.7936 12.2077 19.6693 12.2099C17.5004 12.2144 15.3316 12.2188 13.165 12.2211C12.1029 12.2233 11.0363 12.2434 9.97412 12.2278C9.92736 12.2278 9.88282 12.2278 9.83606 12.2278C7.92108 12.2546 6.22878 13.7666 6.11076 15.7192C6.04395 16.8353 6.1063 17.9715 6.10853 19.0876C6.11076 19.432 6.10853 19.7765 6.11076 20.1209ZM3.9976 19.8346C4.00873 19.8346 4.01762 19.8324 4.02875 19.8324L4.9239 19.8301C4.92612 19.7004 4.92612 19.5729 4.92612 19.4432C4.9239 18.7566 4.90609 18.0632 4.90163 17.3721C4.85265 17.3654 4.80145 17.3609 4.74577 17.3609C3.88625 17.3587 3.91964 18.2354 3.91964 18.8416C3.92187 19.1636 3.9063 19.5349 3.9976 19.8346Z" fill="#272525"/>
</g>
<defs>
<filter id="filter0_f_1369_1877" x="0" y="16.3999" width="76.7773" height="25.6001" filterUnits="userSpaceOnUse" color-interpolation-filters="sRGB">
<feFlood flood-opacity="0" result="BackgroundImageFix"/>
<feBlend mode="normal" in="SourceGraphic" in2="BackgroundImageFix" result="shape"/>
<feGaussianBlur stdDeviation="5" result="effect1_foregroundBlur_1369_1877"/>
</filter>
</defs>
</svg>
