<svg width="74" height="42" viewBox="0 0 74 42" fill="none" xmlns="http://www.w3.org/2000/svg">
<g filter="url(#filter0_f_1357_9121)">
<path d="M63.3584 26.3789H10.2102V31.4895L36.7843 30.3943L63.3584 32.0005V26.3789Z" fill="#13141A"/>
</g>
<mask id="mask0_1357_9121" style="mask-type:alpha" maskUnits="userSpaceOnUse" x="2" y="0" width="70" height="32">
<rect x="2" width="70" height="31.1351" fill="#D9D9D9"/>
</mask>
<g mask="url(#mask0_1357_9121)">
<path d="M53.7376 22.6049C55.8367 21.9663 58.3198 22.5212 59.7356 23.933C61.1625 25.3556 61.3903 27.3969 60.2291 28.9869C59.0634 30.5843 56.7634 31.3993 54.5325 31.0591C52.0136 30.6734 50.2071 28.805 50.1803 26.7419C50.2026 24.8954 51.6117 23.2526 53.7376 22.6049ZM54.0926 29.9857C55.7898 30.4824 57.6923 30.0785 58.8535 28.9487C59.9946 27.8408 60.1331 26.2089 59.2287 24.9718C58.331 23.7438 56.5177 23.0597 54.7849 23.3399C52.7885 23.6637 51.3527 25.0864 51.3326 26.7401C51.3527 28.1592 52.4312 29.5 54.0926 29.9857Z" fill="#272525"/>
<path d="M54.5799 24.7383C55.5379 24.4417 56.6701 24.6819 57.3333 25.3204C58.0099 25.9754 58.1216 26.9378 57.5722 27.6746C57.0318 28.4005 55.9868 28.7662 54.9685 28.6133C53.8207 28.4423 53.0257 27.6109 52.9677 26.6831C52.9654 26.6667 52.9632 26.6485 52.9654 26.6303C52.9654 26.6085 52.9677 26.5867 52.9699 26.5667C53.0235 25.7498 53.6286 25.033 54.5799 24.7383ZM55.4441 27.9457C56.324 27.9475 57.0609 27.3471 57.0586 26.6303C57.0564 25.9117 56.3262 25.315 55.4441 25.315C54.5464 25.315 53.852 25.9135 53.8296 26.6303C53.8542 27.3489 54.5464 27.9439 55.4441 27.9457Z" fill="#272525"/>
<path d="M18.1634 22.6049C20.2624 21.9663 22.7456 22.5212 24.1614 23.933C25.5883 25.3556 25.8161 27.3969 24.6549 28.9869C23.4892 30.5843 21.1892 31.3993 18.9583 31.0591C16.4372 30.6734 14.6329 28.805 14.6061 26.7419C14.6284 24.8954 16.0375 23.2526 18.1634 22.6049ZM18.5184 29.9857C20.2155 30.4824 22.1181 30.0785 23.2793 28.9487C24.4204 27.8408 24.5589 26.2089 23.6545 24.9718C22.7568 23.7438 20.9435 23.0597 19.2107 23.3399C17.2143 23.6637 15.7784 25.0864 15.7583 26.7401C15.7784 28.1592 16.857 29.5 18.5184 29.9857Z" fill="#272525"/>
<path d="M19.0028 24.7383C19.9608 24.4417 21.0929 24.6819 21.7562 25.3204C22.4328 25.9754 22.5444 26.9378 21.9951 27.6746C21.4547 28.4005 20.4096 28.7662 19.3913 28.6133C18.2435 28.4423 17.4486 27.6109 17.3905 26.6831C17.3883 26.6667 17.386 26.6485 17.3883 26.6303C17.3883 26.6085 17.3905 26.5867 17.3927 26.5667C17.4463 25.7498 18.0515 25.033 19.0028 24.7383ZM19.8692 27.9457C20.749 27.9475 21.486 27.3471 21.4837 26.6303C21.4815 25.9117 20.7513 25.315 19.8692 25.315C18.9715 25.315 18.277 25.9135 18.2547 26.6303C18.277 27.3489 18.9715 27.9439 19.8692 27.9457Z" fill="#272525"/>
<path d="M2.00893 19.4099H4.28889C4.28889 19.2462 4.28889 19.0806 4.28889 18.9169C3.715 18.9169 3.14333 18.9169 2.56943 18.9169C2.5136 18.9169 2.46894 18.9005 2.4399 18.875C2.43768 18.8732 2.43545 18.8714 2.43321 18.8696C2.43098 18.8678 2.43098 18.8678 2.42874 18.8659C2.39748 18.8405 2.37739 18.8059 2.37739 18.7586C2.37739 18.1546 2.37739 17.5488 2.37739 16.9448C2.37739 16.8593 2.46671 16.7883 2.56943 16.7883C3.16789 16.7883 3.76635 16.7883 4.36258 16.7883C4.55685 16.1971 5.11736 15.6367 5.67117 15.2801C6.24953 14.9072 6.84798 14.7198 7.5581 14.5943C8.94036 14.3505 10.3539 14.2195 11.7585 14.114C13.9536 13.9502 16.1599 13.8702 18.3639 13.832C19.7417 13.8029 21.1218 13.7938 22.4996 13.8047C23.1003 10.7192 24.2056 7.5482 26.5414 5.02667C26.566 4.9721 26.6039 4.9248 26.6531 4.88295C27.0818 4.26258 27.7763 3.78047 28.5735 3.49302C29.067 3.31473 29.5717 3.20921 30.1054 3.15645C30.427 3.12552 30.9741 3.04184 31.3693 3.12007C32.6846 3.12007 33.9976 3.12007 35.3129 3.12007V2.43784H32.8744C32.4457 2.43784 32.0727 2.24135 31.8941 1.95573C31.6753 1.81746 31.51 1.62279 31.4408 1.38265C31.2398 0.689503 31.8025 0.0382049 32.6801 0C33.7073 0 34.7368 0 35.764 0C38.1712 0 40.5763 0 42.9835 0C45.7503 0 48.5171 0 51.2861 0C53.3896 0 55.4932 0 57.5967 0C58.0924 0 58.5882 0 59.0817 0C59.267 0 59.4479 0.00364211 59.6266 0.0491241C60.455 0.26198 60.761 1.12613 60.3099 1.70467C60.3032 1.71194 60.2965 1.71922 60.292 1.7265C60.2027 2.12856 59.7539 2.43602 59.2179 2.43602H56.5784V3.11825C57.2015 3.11825 57.8223 3.11825 58.4453 3.11825C59.2469 3.11825 60.0486 3.11825 60.8503 3.11825C61.949 3.11825 62.6524 3.83323 63.2084 4.52819C64.3763 5.98907 65.1311 7.70284 65.7898 9.35111C66.0511 10.0024 66.29 10.6592 66.5 11.3232C66.6429 11.2941 66.7925 11.2777 66.9443 11.2777H70.1622C71.1738 11.2777 72 11.9508 72 12.775V20.7125C72 21.5366 71.1738 22.2098 70.1622 22.2098H68.3958C68.3958 22.2826 68.3958 22.3553 68.3936 22.4281C68.3757 23.7543 67.516 24.9714 66.1337 25.67C64.8877 26.3013 63.521 26.265 62.1187 26.265C61.8887 26.265 61.5984 26.1194 61.5604 25.9193C61.5247 25.7355 61.5001 25.5445 61.4688 25.3553C61.4175 25.3062 61.3795 25.248 61.3661 25.1843C61.2433 24.5803 60.9954 24.0018 60.6381 23.4778C59.4792 22.3408 57.753 21.6476 55.9152 21.6203C53.9724 21.593 52.1078 22.3007 50.8863 23.5324C50.203 24.2201 49.7854 25.0497 49.609 25.9175C49.5688 26.1176 49.2852 26.2631 49.0508 26.2631C46.5386 26.2631 44.0264 26.2631 41.5141 26.2631C37.5147 26.2631 33.5175 26.2631 29.5181 26.2631C28.607 26.2631 27.6959 26.2631 26.7848 26.2631C26.5526 26.2631 26.269 26.1176 26.2266 25.9175C25.8447 24.0473 24.2414 22.4627 22.0105 21.8732C19.7641 21.2801 17.2452 21.7604 15.5793 23.1285C14.6503 23.8908 14.072 24.8605 13.8576 25.9175C13.8174 26.1176 13.5338 26.2631 13.2993 26.2631C12.0443 26.2631 10.7871 26.2631 9.53214 26.2631C8.83989 26.2631 8.15433 26.2486 7.4911 26.063C6.38351 25.7537 5.42553 25.1243 4.8494 24.2892C4.31346 23.5106 4.2487 22.6955 4.2487 21.8277C4.2487 21.7786 4.25763 21.7331 4.27103 21.6913C4.2487 21.2983 4.26433 20.9017 4.27326 20.5106H2V19.4099H2.00893ZM26.5414 6.71315C26.1194 7.29896 25.7487 7.91023 25.4316 8.53606C24.8912 9.60034 24.4758 10.7046 24.1498 11.8253C24.2816 11.8271 24.4133 11.8271 24.5406 11.8199C24.7572 11.8053 24.8175 11.6798 24.9202 11.4815C25.0899 11.1467 25.2105 10.7883 25.3579 10.4463C25.7598 9.50756 26.164 8.57063 26.566 7.63188C26.7067 7.30441 26.9188 6.92783 26.5414 6.71315ZM35.9069 0.47483C34.8953 0.47483 33.8838 0.47483 32.8722 0.47483C32.8074 0.47483 32.7427 0.47483 32.6779 0.47483C31.7445 0.516673 31.7668 1.67192 32.6868 1.7174C32.7784 1.72286 32.8699 1.7174 32.9615 1.7174C33.4907 1.7174 34.02 1.7174 34.547 1.7174C35.0003 1.7174 35.4536 1.7174 35.9047 1.7174V0.47483H35.9069ZM40.6924 0.47483C39.4329 0.47483 38.1757 0.47483 36.9163 0.47483C36.7175 0.47483 36.5165 0.47483 36.3178 0.47483V1.7174C37.776 1.7174 39.2342 1.7174 40.6924 1.7174V0.47483ZM36.8336 2.44147V3.1237C40.6209 3.1237 44.4082 3.1237 48.1955 3.1237C50.4844 3.1237 52.7733 3.1237 55.0622 3.1237V2.44147H36.8336ZM45.8485 0.47483C45.2992 0.47483 44.7476 0.47483 44.1961 0.47483C43.1644 0.47483 42.1327 0.47483 41.101 0.47483V1.7174C42.682 1.7174 44.2653 1.7174 45.8463 1.7174V0.47483H45.8485ZM50.634 0.47483C49.1758 0.47483 47.7176 0.47483 46.2594 0.47483V1.7174C47.0656 1.7174 47.8695 1.7174 48.6756 1.7174C49.3277 1.7174 49.9819 1.7174 50.634 1.7174V0.47483ZM55.4172 0.47483C54.3096 0.47483 53.1998 0.47483 52.0922 0.47483C51.7416 0.47483 51.3932 0.47483 51.0427 0.47483V1.7174C52.5008 1.7174 53.959 1.7174 55.4172 1.7174V0.47483ZM59.1934 1.7174C59.7338 1.70285 60.0531 1.3117 59.9102 0.889631C59.8097 0.591269 59.4814 0.478466 59.1375 0.473009C58.7132 0.467551 58.289 0.473009 57.8624 0.473009C57.1836 0.473009 56.5047 0.473009 55.8259 0.473009V1.71558C56.9491 1.71922 58.0746 1.74651 59.1934 1.7174ZM65.1668 10.9139C64.6599 9.45662 64.0614 7.99938 63.2754 6.62037C62.9784 6.61127 62.6546 6.59671 62.3911 6.69131C61.9445 6.85141 61.7212 7.228 61.7123 7.60823C61.6989 8.18676 61.7123 8.76529 61.7123 9.342C61.7123 9.90234 61.6989 10.4645 61.7123 11.0248C61.7212 11.416 61.9691 11.7999 62.4358 11.9472C62.6926 12.0273 63.0052 11.9982 63.2754 11.9982C64.0235 11.9982 64.7693 11.9982 65.5174 11.9982C65.4102 11.6343 65.2919 11.2723 65.1668 10.9139ZM65.8903 13.7265C65.8814 13.6282 65.8747 13.53 65.8613 13.4318C65.8568 13.4008 65.8524 13.3699 65.8479 13.3408C65.8479 13.3371 65.8457 13.3317 65.8457 13.3262C65.83 13.248 65.8166 13.1698 65.7988 13.0915C65.7876 13.0406 65.7764 12.9897 65.7653 12.9405C65.7608 12.9405 65.7563 12.9405 65.7541 12.9405C64.9279 12.9405 64.1039 12.9405 63.2776 12.9405C62.8913 12.9405 62.5028 12.9551 62.1298 12.855C61.3728 12.6513 60.7788 12.1073 60.618 11.4724C60.4595 10.8538 60.5578 10.157 60.5578 9.52939C60.5578 8.88355 60.5377 8.23588 60.5578 7.59003C60.5779 6.91144 60.982 6.25833 61.719 5.91448C62.0361 5.76712 62.3688 5.71254 62.7082 5.69253C62.371 5.17585 62.0093 4.68283 61.5291 4.30988C61.4845 4.27531 61.4376 4.24074 61.3907 4.208C61.3862 4.20436 61.3818 4.20072 61.3773 4.1989C61.3751 4.19708 61.3728 4.19708 61.3706 4.19526C61.3483 4.18253 61.3259 4.16797 61.3014 4.15705C61.2612 4.13704 61.2232 4.11885 61.183 4.10248C61.2053 4.11521 61.1138 4.08428 61.0714 4.06973C61.0647 4.06791 61.0602 4.0661 61.0557 4.06428C61.0468 4.0661 61.0379 4.06609 61.0222 4.06791C61.0044 4.06973 60.9865 4.06791 60.9709 4.06791C60.2987 4.08246 59.6243 4.06791 58.9544 4.06791C55.6852 4.06791 52.4182 4.06791 49.149 4.06791C45.2925 4.06791 41.4338 4.06791 37.5773 4.06791C36.1682 4.06791 34.7591 4.06791 33.3523 4.06791C32.6868 4.06791 32.0147 4.09156 31.3492 4.06791C31.3291 4.06791 31.309 4.0661 31.2889 4.06428C31.2912 4.0661 31.2956 4.06609 31.2979 4.06791C29.8687 3.99878 28.3033 4.34808 27.5977 5.44875C27.5932 5.45784 27.5865 5.46512 27.5798 5.4724C27.4726 5.63068 27.294 5.78167 27.1577 5.93449C27.7964 6.29289 28.1023 6.90053 27.821 7.56275C27.6356 7.99938 27.4458 8.43419 27.2605 8.86899C26.834 9.8605 26.47 10.8975 25.9698 11.8672C25.7531 12.2874 25.4182 12.6604 24.8354 12.7422C24.5339 12.7841 24.2123 12.7677 23.9042 12.7623C23.8037 13.168 23.7144 13.5736 23.634 13.9812C24.4021 13.9812 25.1703 13.9812 25.9385 13.9812C25.934 13.7756 25.9005 13.5464 25.9474 13.3462C25.9966 13.1425 26.1261 12.9314 26.2109 12.735C27.1689 10.5191 28.1247 8.3032 29.0826 6.08732C29.1608 5.90539 29.239 5.72346 29.3194 5.54153C29.6097 4.93753 30.2506 4.58095 31.0455 4.57367C31.3827 4.57004 31.7221 4.57367 32.0593 4.57367C33.5064 4.57367 34.9556 4.57367 36.4027 4.57367C37.9591 4.57367 39.5155 4.57367 41.072 4.57367C41.5454 4.57367 42.0188 4.57367 42.4945 4.57367C42.8093 4.57367 43.1465 4.55002 43.4524 4.60642C44.0866 4.72649 44.5176 5.1322 44.6494 5.62158C44.665 5.59247 44.6829 5.56336 44.703 5.53425C45.0915 4.94116 45.8508 4.58641 46.6681 4.57367C46.8422 4.57004 47.0164 4.57367 47.1884 4.57367C49.5443 4.57367 51.9024 4.57367 54.2583 4.57367C55.2185 4.57367 56.1787 4.57367 57.1389 4.57367C57.3734 4.57367 57.6079 4.56822 57.8401 4.59733C58.6663 4.70103 59.3631 5.19404 59.6199 5.84171C59.794 6.28015 59.7248 6.80411 59.7248 7.25893C59.7248 8.114 59.7248 8.96905 59.7248 9.82229C59.7248 11.2086 59.7248 12.5949 59.7248 13.9794C59.8677 13.9794 60.0107 13.9794 60.1536 13.9794C60.4416 13.9794 60.7297 13.9794 61.0155 13.9794C62.4916 13.9794 63.9766 13.9448 65.4549 13.963C65.6112 13.9593 65.7675 13.9593 65.9238 13.9593C65.9082 13.8829 65.897 13.8047 65.8903 13.7265ZM44.3055 17.3141C44.3055 16.7192 44.3055 16.1243 44.3055 15.5294C44.1134 15.4912 43.9705 15.3511 43.9705 15.1837V14.9217C42.3069 14.9217 40.6432 14.9217 38.9774 14.9217C37.2289 14.9217 35.4804 14.9217 33.7319 14.9217C31.845 14.9217 29.9603 14.9217 28.0733 14.9217C27.4905 14.9217 26.9032 14.9272 26.3181 14.9327C26.3181 15.0618 26.3181 15.1928 26.3181 15.322C26.3181 16.5718 26.3181 17.8199 26.3181 19.0697C26.3181 19.4281 26.3159 19.7883 26.3181 20.1467C26.3226 20.8071 26.8608 21.3292 27.6959 21.3529C29.757 21.4111 31.8316 21.3529 33.8949 21.3529C36.655 21.3529 39.4151 21.3529 42.1751 21.3529C42.4163 21.3529 42.6575 21.3584 42.8964 21.3529C43.6847 21.3365 44.2765 20.8708 44.301 20.2231C44.3122 19.9502 44.31 19.6773 44.3077 19.4044C44.1134 19.3681 43.9683 19.2262 43.9683 19.057V17.6561C43.9705 17.4924 44.1134 17.3523 44.3055 17.3141ZM26.3203 13.4609C26.3203 13.59 26.3203 13.7192 26.3203 13.8502C26.3203 13.8938 26.3203 13.9375 26.3203 13.9812C26.5593 13.9812 26.7982 13.9812 27.0394 13.9812C28.6785 13.9812 30.3175 13.9812 31.9566 13.9812C33.8034 13.9812 35.6501 13.9812 37.4969 13.9812C39.654 13.9812 41.8134 13.9812 43.9705 13.9812V13.7847C43.9705 13.6173 44.1134 13.4772 44.3055 13.439C44.3055 12.7932 44.3055 12.1455 44.3055 11.4997C44.3055 9.6713 44.3055 7.84292 44.3055 6.01454C44.3055 5.55608 44.0822 5.12855 43.5172 4.9539C43.209 4.8593 42.8473 4.89023 42.519 4.89023C41.3846 4.89023 40.2525 4.89023 39.1181 4.89023C36.4719 4.89023 33.8279 4.89023 31.1817 4.89023C30.5275 4.89023 29.9424 5.09398 29.6856 5.62703C28.8884 7.4736 28.0889 9.32018 27.2917 11.1686C26.9724 11.9072 26.5861 12.6495 26.327 13.4045C26.3248 13.4136 26.3226 13.4172 26.3203 13.419C26.3203 13.4245 26.3203 13.4372 26.3203 13.4609ZM59.3363 6.39113C59.3139 5.56336 58.51 4.9066 57.494 4.89023C56.9647 4.88113 56.431 4.89023 55.9018 4.89023C53.4901 4.89023 51.0806 4.89023 48.6689 4.89023C48.0124 4.89023 47.3559 4.88113 46.6993 4.89023C45.556 4.90478 44.8213 5.63249 44.8213 6.52576C44.8213 7.89932 44.8213 9.27288 44.8213 10.6464C44.8213 11.5743 44.8213 12.5021 44.8213 13.4299C45.0424 13.4481 45.2143 13.6009 45.2143 13.7847V13.9812C45.8351 13.9812 46.4559 13.9812 47.0767 13.9812C48.0883 13.9812 49.0999 13.9812 50.1115 13.9812C53.1864 13.9812 56.2613 13.9812 59.3363 13.9812C59.3363 13.1589 59.3363 12.3365 59.3363 11.5142C59.3363 9.90234 59.3363 8.28864 59.3363 6.67676C59.3363 6.58216 59.3385 6.48574 59.3363 6.39113ZM59.3363 17.7507C59.3363 17.5215 59.3363 17.2923 59.3363 17.063C59.3363 16.3481 59.3363 15.6349 59.3363 14.9199C56.7548 14.9199 54.1734 14.9199 51.592 14.9199C50.6787 14.9199 49.7676 14.9199 48.8542 14.9199C47.6417 14.9199 46.4269 14.9199 45.2143 14.9199V15.1819C45.2143 15.3656 45.0402 15.5185 44.8213 15.5367C44.8213 15.9587 44.8213 16.3826 44.8213 16.8047C44.8213 16.9702 44.8191 17.1376 44.8169 17.3032C45.0402 17.3195 45.2143 17.4724 45.2143 17.6579V19.0588C45.2143 19.2498 45.0268 19.4063 44.7945 19.4135C44.8012 19.6155 44.8079 19.8192 44.8236 20.0194C44.8839 20.7998 45.7012 21.4329 46.6636 21.4329C46.8757 21.4111 47.1057 20.9981 47.2196 20.8635C47.3603 20.698 47.5099 20.536 47.664 20.3778C47.9476 20.0903 48.2536 19.8174 48.5863 19.5664C49.1892 19.1097 49.8703 18.7204 50.6072 18.422C51.9493 17.8781 53.4432 17.6361 54.9349 17.6234C56.2479 17.6125 57.5632 17.7726 58.8338 18.0436C59.0348 18.0873 59.2603 18.1109 59.3363 17.9126C59.3541 17.869 59.3363 17.798 59.3363 17.7507ZM5.44563 21.6967C5.44563 21.755 5.45008 21.8132 5.45455 21.8714C5.94806 23.0448 7.2812 23.8453 8.81979 23.8635C10.0792 23.8635 11.3387 23.8635 12.6004 23.8635C13.1653 21.8405 15.0367 20.1667 17.4662 19.5136C20.0767 18.8095 23.0489 19.4117 24.9693 21.0091C25.9162 21.795 26.5816 22.7919 26.8786 23.8635C29.2166 23.8635 31.5524 23.8635 33.8905 23.8635C37.8318 23.8635 41.7732 23.8635 45.7146 23.8635C46.4604 23.8635 47.204 23.8635 47.9476 23.8635C48.4903 21.9205 50.2276 20.3159 52.5165 19.5991C55.0019 18.8205 57.8758 19.2753 59.8834 20.6779C60.991 21.4511 61.7792 22.5027 62.1633 23.6452C62.1901 23.7234 62.1924 23.7962 62.1767 23.8617C62.3621 23.8617 62.5474 23.8617 62.7305 23.8617C64.7269 23.8417 66.366 22.5591 66.3749 20.9217C66.3794 19.8665 66.3749 18.8114 66.3749 17.7544C66.3749 17.2468 66.2677 16.7647 66.1538 16.268C66.1382 16.1989 66.1404 16.1279 66.1561 16.0588C66.0712 15.6786 65.9886 15.3002 65.9037 14.9199C64.6175 14.9199 63.3312 14.9199 62.0472 14.9199C61.8194 14.9199 61.5917 14.9199 61.3639 14.9199C60.8146 14.9199 60.2675 14.9199 59.7181 14.9199C59.7181 15.3074 59.7181 15.6949 59.7181 16.0824C59.7181 16.6628 59.7248 17.2431 59.7181 17.8217C59.7159 18.06 59.6489 18.291 59.3363 18.3857C59.0504 18.473 58.6775 18.3311 58.3917 18.2747C58.0835 18.2146 57.7731 18.1601 57.4605 18.1146C54.2181 17.6397 50.7814 18.0982 48.4411 20.1212C48.1017 20.4141 47.7958 20.7289 47.5166 21.06C47.2866 21.3347 47.1459 21.6604 46.7306 21.7349C46.7105 21.7404 46.6859 21.7459 46.6614 21.7459C46.6413 21.7477 46.6212 21.7477 46.6055 21.744C45.6744 21.7259 44.9441 21.2492 44.6181 20.5997C44.4238 21.1637 43.8455 21.5985 43.0907 21.6567C42.4319 21.7077 41.7464 21.664 41.0876 21.664C39.6227 21.664 38.1556 21.664 36.6907 21.664C33.886 21.664 31.0835 21.664 28.2788 21.664C28.0845 21.664 27.8902 21.6676 27.6959 21.664C26.7178 21.6422 25.9631 21.0272 25.9363 20.2304C25.9072 19.4008 25.9363 18.5658 25.9363 17.7362C25.9363 16.8011 25.9363 15.8659 25.9363 14.9327C24.8823 14.9418 23.826 14.949 22.7765 14.9181C22.7519 14.9181 22.7273 14.9181 22.7005 14.9181C22.0195 14.9181 21.3406 14.9181 20.6595 14.9181C18.5381 14.9181 16.4033 14.9709 14.2841 14.9181C14.2551 14.9181 14.2261 14.9181 14.1993 14.9181C14.1345 14.9217 14.0764 14.9163 14.0228 14.9054C12.3145 14.9836 10.6107 15.1091 8.92697 15.3365C8.3419 15.4148 7.68092 15.473 7.12266 15.644C6.74751 15.7586 6.3835 15.9878 6.10661 16.2207C5.82747 16.4536 5.45454 16.8502 5.45008 17.1886C5.45008 17.9272 5.44338 18.6658 5.44115 19.4044H6.98643V20.5142H5.43892C5.43892 20.9126 5.44115 21.3038 5.44563 21.6967ZM4.29113 17.194C4.29113 17.1722 4.29335 17.1522 4.29559 17.134C4.29559 17.1249 4.29782 17.114 4.29782 17.1049C3.78645 17.1049 3.27508 17.1049 2.76147 17.1049C2.76147 17.6052 2.76147 18.1055 2.76147 18.6058C3.27061 18.6058 3.77975 18.6058 4.28889 18.6058C4.29113 18.1346 4.29113 17.6634 4.29113 17.194Z" fill="#272525"/>
<path d="M8.54555 15.8405C8.55895 15.8369 8.57235 15.8332 8.58798 15.8296C9.11722 15.7513 9.64645 15.6713 10.1757 15.5931C10.4124 15.5585 10.6424 15.5167 10.8813 15.5712C11.2721 15.6604 11.5669 15.9478 11.5803 16.2808C11.6071 16.892 10.9305 17.0485 10.3409 17.1358C10.0015 17.1868 9.65985 17.2377 9.32042 17.2886C9.11051 17.3196 8.88943 17.3687 8.67506 17.3541C7.58309 17.2741 7.56747 16.0752 8.54555 15.8405ZM8.83585 17.0394C9.00556 17.0285 9.17973 16.9903 9.34721 16.9648C9.7916 16.8993 10.2561 16.8575 10.6938 16.7647C11.3748 16.6191 11.3146 15.8369 10.5776 15.8532C10.4102 15.8569 10.2337 15.9005 10.0707 15.926C9.61071 15.9951 9.1507 16.0624 8.69069 16.1316C7.98951 16.2753 8.08554 17.0849 8.83585 17.0394Z" fill="#272525"/>
<path d="M41.6794 16.4446H39.9242C39.6696 16.4446 39.4619 16.2754 39.4619 16.068V16.0153C39.4619 15.8079 39.6696 15.6387 39.9242 15.6387H41.6794C41.9339 15.6387 42.1416 15.8079 42.1416 16.0153V16.068C42.1416 16.2754 41.9317 16.4446 41.6794 16.4446Z" fill="#272525"/>
<path d="M58.5922 11.3153C58.5832 12.1085 58.0004 12.8308 57.0357 13.0473C56.6606 13.131 56.2564 13.1091 55.8723 13.1091C53.1881 13.1091 50.504 13.1091 47.8198 13.1091C47.7484 13.1091 47.6769 13.1091 47.6055 13.1091C47.5809 13.1091 47.5563 13.1073 47.5318 13.1055C46.3884 13.0455 45.5153 12.3178 45.4863 11.3735C45.4729 10.9806 45.4863 10.5876 45.4863 10.1946C45.4863 9.18858 45.4081 8.15888 45.4907 7.15464C45.5667 6.22862 46.4867 5.53729 47.6144 5.51364C47.9337 5.50636 48.2531 5.51364 48.5724 5.51364C50.0708 5.51364 51.5692 5.51364 53.0676 5.51364C54.1841 5.51364 55.3006 5.50272 56.4172 5.51364C57.364 5.52274 58.2192 5.99029 58.5006 6.74348C58.648 7.13644 58.5922 7.59126 58.5922 7.99696C58.5922 9.10309 58.6033 10.211 58.5922 11.3153ZM57.0603 6.61977C56.7588 6.43238 56.4127 6.45603 56.0621 6.45603C55.5485 6.45603 55.0327 6.45603 54.519 6.45603C52.219 6.45603 49.9055 6.39053 47.6077 6.45603C46.9311 6.47604 46.6452 6.91812 46.6452 7.40933C46.6452 7.8878 46.6452 8.36627 46.6452 8.84474C46.6452 9.43783 46.6452 10.0327 46.6452 10.6258C46.6452 10.926 46.5805 11.2953 46.681 11.59C46.7993 11.9339 47.1789 12.1558 47.6099 12.1668C49.9033 12.1668 52.1967 12.1668 54.49 12.1668C55.0148 12.1668 55.5396 12.1668 56.0666 12.1668C56.4194 12.1668 56.7655 12.1904 57.0647 12.003C57.4868 11.7392 57.4399 11.3426 57.4399 10.9624C57.4399 10.4111 57.4399 9.86172 57.4399 9.31048C57.4399 8.75924 57.4399 8.20981 57.4399 7.65857C57.4354 7.28016 57.4823 6.88356 57.0603 6.61977Z" fill="#272525"/>
<path d="M28.5469 9.94925C28.8528 9.28339 29.1587 8.61572 29.4647 7.94986C29.7058 7.42591 29.8957 6.85647 30.215 6.36527C30.5611 5.8304 31.1171 5.61936 31.8273 5.61936C32.3721 5.61936 32.9148 5.61936 33.4596 5.61936C35.2372 5.61936 37.0124 5.61936 38.7877 5.61936C39.5179 5.61936 40.2482 5.61936 40.9761 5.61936C41.3312 5.61936 41.7108 5.59207 42.0636 5.64483C43.1645 5.8122 43.6335 6.7364 43.6357 7.55689C43.638 8.16635 43.6357 8.77582 43.6357 9.38528C43.6357 10.0038 43.6357 10.6206 43.6357 11.2391C43.6357 12.036 43.2405 12.9347 42.1954 13.1676C41.8582 13.244 41.4719 13.2149 41.1235 13.2149C40.4916 13.2149 39.8596 13.2149 39.2277 13.2149C36.146 13.2149 33.0644 13.2149 29.9827 13.2149C29.9158 13.2149 29.8488 13.2149 29.7818 13.2149C29.755 13.2149 29.7282 13.213 29.7036 13.2112C28.5156 13.1403 27.5152 12.2506 27.944 11.2646C28.136 10.8225 28.3459 10.3877 28.5469 9.94925ZM29.7818 12.2707C32.3007 12.2707 34.8196 12.2707 37.3385 12.2707C38.6582 12.2707 39.9802 12.2707 41.2999 12.2707C41.5746 12.2707 41.8872 12.3125 42.1083 12.1597C42.5795 11.834 42.479 11.2409 42.479 10.7898C42.479 9.67454 42.5036 8.55932 42.479 7.4441C42.4701 6.98928 42.2088 6.55993 41.617 6.55993C41.1481 6.55993 40.6814 6.55993 40.2124 6.55993C37.3787 6.55993 34.5427 6.54538 31.7089 6.55993C31.5883 6.55993 31.4834 6.55447 31.3985 6.61268C31.1082 6.80917 30.9966 7.28219 30.8737 7.56236C30.7018 7.94986 30.5209 8.33191 30.3445 8.71759C30.0497 9.3598 29.755 10.0038 29.4602 10.646C29.3575 10.8698 29.2548 11.0936 29.152 11.3192C29.0984 11.4374 28.9935 11.603 28.989 11.7267C28.9756 12.0469 29.4334 12.2616 29.7818 12.2707Z" fill="#272525"/>
</g>
<defs>
<filter id="filter0_f_1357_9121" x="0.209961" y="16.3789" width="73.1484" height="25.6221" filterUnits="userSpaceOnUse" color-interpolation-filters="sRGB">
<feFlood flood-opacity="0" result="BackgroundImageFix"/>
<feBlend mode="normal" in="SourceGraphic" in2="BackgroundImageFix" result="shape"/>
<feGaussianBlur stdDeviation="5" result="effect1_foregroundBlur_1357_9121"/>
</filter>
</defs>
</svg>
