<svg width="9" height="9" viewBox="0 0 9 9" fill="none" xmlns="http://www.w3.org/2000/svg">
<path d="M7.44795 1.23185C7.59579 1.08023 7.79254 0.996407 7.99666 0.998071C8.20078 0.999735 8.39632 1.08675 8.54202 1.24077C8.68772 1.39478 8.77218 1.60374 8.77757 1.82355C8.78297 2.04336 8.70888 2.25684 8.57094 2.41893L4.38334 8.06038C4.31134 8.14393 4.22443 8.21097 4.12782 8.25751C4.03121 8.30405 3.92688 8.32912 3.82106 8.33123C3.71525 8.33335 3.61013 8.31245 3.51198 8.2698C3.41384 8.22714 3.32469 8.16361 3.24986 8.08299L0.47282 5.09155C0.395484 5.01393 0.333455 4.92032 0.290433 4.81631C0.247411 4.7123 0.224277 4.60002 0.222413 4.48617C0.220548 4.37232 0.23999 4.25923 0.279579 4.15365C0.319168 4.04807 0.378093 3.95216 0.452839 3.87164C0.527585 3.79113 0.61662 3.72765 0.714633 3.68501C0.812646 3.64236 0.917629 3.62142 1.02332 3.62343C1.12901 3.62544 1.23324 3.65036 1.3298 3.6967C1.42635 3.74304 1.51325 3.80986 1.58531 3.89317L3.78302 6.25941L7.42801 1.25672C7.43457 1.24802 7.44158 1.23971 7.449 1.23185H7.44795Z" fill="#13141A"/>
</svg>
