<svg width="24" height="24" viewBox="0 0 24 24" fill="none" xmlns="http://www.w3.org/2000/svg">
<mask id="mask0_1673_2618" style="mask-type:alpha" maskUnits="userSpaceOnUse" x="0" y="0" width="24" height="24">
<rect width="24" height="24" fill="#D9D9D9"/>
</mask>
<g mask="url(#mask0_1673_2618)">
<path d="M5.4378 13.5378C4.66712 13.4251 3.89115 13.3518 3.11293 13.3183C2.77169 13.2973 2.32189 13.4743 2.24399 14.3303C2.22946 14.5455 2.25034 14.7617 2.30581 14.9703C2.3575 15.1881 2.47403 15.3853 2.64018 15.5361C2.80632 15.687 3.01435 15.7844 3.23706 15.8158L6.56354 16.2818C6.58015 16.2845 6.59696 16.2858 6.6138 16.2858C6.67877 16.2858 6.74266 16.2692 6.79926 16.2374C6.85586 16.2057 6.90325 16.1599 6.93683 16.1046C6.97041 16.0492 6.98903 15.9862 6.9909 15.9216C6.99277 15.8569 6.97782 15.7929 6.9475 15.7358C5.85342 13.6653 5.57299 13.5793 5.4378 13.5378ZM3.3421 15.0733C3.26902 15.0622 3.20099 15.0295 3.14678 14.9795C3.09257 14.9295 3.0547 14.8644 3.03805 14.7928C3.00298 14.6643 2.9884 14.5312 2.99483 14.3983C2.99602 14.2844 3.0219 14.1722 3.07071 14.0693H3.08127C3.94065 14.1228 4.90709 14.2003 5.16892 14.2463C5.45188 14.623 5.70493 15.021 5.92579 15.4368L3.3421 15.0733ZM20.8871 13.3183C20.1089 13.3518 19.333 13.4251 18.5623 13.5378C18.4271 13.5793 18.1462 13.6653 17.0506 15.7378C17.0202 15.7949 17.0053 15.8589 17.0072 15.9236C17.009 15.9882 17.0277 16.0512 17.0612 16.1066C17.0948 16.1619 17.1422 16.2077 17.1988 16.2394C17.2554 16.2712 17.3193 16.2878 17.3843 16.2878C17.4011 16.2878 17.4179 16.2865 17.4345 16.2838L20.761 15.8178C20.9837 15.7864 21.1917 15.689 21.3579 15.5381C21.524 15.3873 21.6406 15.1901 21.6923 14.9723C21.7476 14.7637 21.7684 14.5475 21.7541 14.3323C21.6777 13.4743 21.2254 13.2978 20.8871 13.3183ZM20.962 14.7928C20.9454 14.8644 20.9075 14.9295 20.8533 14.9795C20.7991 15.0295 20.7311 15.0622 20.658 15.0733L18.0743 15.4353C18.2953 15.0197 18.5482 14.6217 18.8307 14.2448C19.097 14.1983 20.0645 14.1208 20.9233 14.0678C20.9781 14.1693 21.0063 14.283 21.0053 14.3983C21.0117 14.5312 20.9971 14.6643 20.962 14.7928ZM17.2179 13.8868C17.18 13.8328 17.1284 13.7897 17.0684 13.7618C17.0084 13.7339 16.9421 13.7222 16.8762 13.7278C16.8415 13.7308 13.3793 14.0278 12.0013 14.0278C10.6233 14.0278 7.16059 13.7278 7.12641 13.7278C7.06042 13.722 6.99405 13.7336 6.93403 13.7615C6.874 13.7894 6.82244 13.8326 6.78456 13.8867C6.74668 13.9408 6.72381 14.0038 6.71827 14.0695C6.71273 14.1352 6.72471 14.2012 6.75301 14.2608L7.74557 16.3563C7.7746 16.4172 7.81953 16.4692 7.87566 16.5069C7.9318 16.5447 7.99708 16.5667 8.0647 16.5708L11.9993 16.7948L15.9399 16.5708C16.0075 16.5668 16.0729 16.5448 16.129 16.5071C16.1852 16.4693 16.2301 16.4172 16.259 16.3563L17.2516 14.2608C17.2797 14.201 17.2913 14.1349 17.2854 14.0693C17.2795 14.0036 17.2562 13.9406 17.2179 13.8868ZM15.671 15.8368L12.0003 16.0478L8.33157 15.8368L7.71291 14.5308C8.79795 14.6188 10.9489 14.7808 12.0018 14.7808C13.0547 14.7808 15.2062 14.6188 16.2917 14.5308L15.671 15.8368ZM14.1668 2.49477L14.7227 2.70177C14.9044 2.76936 15.0695 2.87495 15.2067 3.0114C15.344 3.14785 15.4502 3.312 15.5182 3.49277L15.7263 4.04777C15.7535 4.11872 15.8016 4.17979 15.8645 4.22288C15.9273 4.26597 16.0018 4.28904 16.0781 4.28904C16.1544 4.28904 16.2289 4.26597 16.2917 4.22288C16.3546 4.17979 16.4028 4.11872 16.4299 4.04777L16.638 3.49477C16.7061 3.31413 16.8123 3.15009 16.9494 3.01366C17.0866 2.87723 17.2515 2.77157 17.433 2.70377L17.9889 2.49677C18.0602 2.46976 18.1216 2.42183 18.1649 2.35932C18.2082 2.29681 18.2314 2.22269 18.2314 2.14677C18.2314 2.07085 18.2082 1.99673 18.1649 1.93422C18.1216 1.87171 18.0602 1.82378 17.9889 1.79677L17.433 1.58977C17.2513 1.52206 17.0863 1.41637 16.9492 1.27983C16.812 1.1433 16.7059 0.979082 16.638 0.79827L16.4319 0.24127C16.4048 0.170318 16.3566 0.10925 16.2938 0.0661618C16.2309 0.0230735 16.1564 0 16.0801 0C16.0038 0 15.9293 0.0230735 15.8665 0.0661618C15.8036 0.10925 15.7555 0.170318 15.7283 0.24127L15.5182 0.79427C15.4503 0.975082 15.3442 1.1393 15.207 1.27583C15.0699 1.41237 14.9049 1.51806 14.7232 1.58577L14.1674 1.79277C14.096 1.81978 14.0347 1.86771 13.9913 1.93022C13.948 1.99273 13.9248 2.06685 13.9248 2.14277C13.9248 2.21869 13.948 2.29281 13.9913 2.35532C14.0347 2.41783 14.096 2.46576 14.1674 2.49277L14.1668 2.49477ZM16.0791 1.36427C16.2655 1.68894 16.5359 1.95807 16.8621 2.14377C16.5358 2.32933 16.2654 2.5985 16.0791 2.92327C15.8924 2.59866 15.6219 2.32955 15.2956 2.14377C15.6219 1.95799 15.8924 1.68888 16.0791 1.36427ZM18.4045 4.82227L18.8256 4.97927C18.9511 5.02614 19.0651 5.09921 19.1598 5.19356C19.2546 5.28791 19.3279 5.40136 19.3749 5.52627L19.5327 5.94527C19.5596 6.01683 19.6079 6.07851 19.6709 6.12206C19.734 6.1656 19.809 6.18894 19.8858 6.18894C19.9626 6.18894 20.0375 6.1656 20.1006 6.12206C20.1637 6.07851 20.2119 6.01683 20.2388 5.94527L20.3961 5.52627C20.4432 5.40133 20.5166 5.28786 20.6115 5.19351C20.7063 5.09916 20.8204 5.02611 20.9459 4.97927L21.3671 4.82227C21.4382 4.79506 21.4994 4.74705 21.5425 4.68457C21.5856 4.62209 21.6087 4.54807 21.6087 4.47227C21.6087 4.39647 21.5856 4.32246 21.5425 4.25997C21.4994 4.19749 21.4382 4.14948 21.3671 4.12227L20.9459 3.96327C20.8205 3.91676 20.7065 3.84393 20.6118 3.74972C20.5171 3.65551 20.4439 3.54213 20.3972 3.41727L20.2388 2.99777C20.2119 2.92621 20.1637 2.86453 20.1006 2.82098C20.0375 2.77744 19.9626 2.7541 19.8858 2.7541C19.809 2.7541 19.734 2.77744 19.6709 2.82098C19.6079 2.86453 19.5596 2.92621 19.5327 2.99777L19.3749 3.41727C19.3279 3.54212 19.2546 3.6555 19.1598 3.74977C19.0651 3.84404 18.9511 3.91701 18.8256 3.96377L18.404 4.12077C18.3327 4.14778 18.2713 4.19571 18.228 4.25822C18.1847 4.32073 18.1615 4.39485 18.1615 4.47077C18.1615 4.54669 18.1847 4.62081 18.228 4.68332C18.2713 4.74583 18.3327 4.79376 18.404 4.82077L18.4045 4.82227ZM19.8855 4.04777C20.0002 4.21238 20.1437 4.35515 20.3092 4.46927C20.1441 4.58361 20.0007 4.72615 19.8855 4.89027C19.7707 4.72605 19.6274 4.58349 19.4624 4.46927C19.6277 4.35514 19.771 4.21237 19.8855 4.04777ZM20.759 2.49477L21.1801 2.65177C21.3056 2.69847 21.4195 2.77137 21.5143 2.86555C21.609 2.95973 21.6824 3.07301 21.7295 3.19777L21.8873 3.61677C21.9141 3.68833 21.9624 3.75001 22.0255 3.79356C22.0886 3.8371 22.1635 3.86044 22.2403 3.86044C22.3171 3.86044 22.3921 3.8371 22.4552 3.79356C22.5182 3.75001 22.5665 3.68833 22.5934 3.61677L22.7512 3.19777C22.798 3.07294 22.8713 2.95956 22.966 2.86529C23.0606 2.77101 23.1745 2.69803 23.3 2.65127L23.7216 2.49427C23.7929 2.46726 23.8543 2.41933 23.8976 2.35682C23.9409 2.29431 23.9641 2.22019 23.9641 2.14427C23.9641 2.06835 23.9409 1.99423 23.8976 1.93172C23.8543 1.86921 23.7929 1.82128 23.7216 1.79427L23.3005 1.63677C23.1751 1.59009 23.0612 1.5172 22.9665 1.42301C22.8719 1.32882 22.7986 1.21553 22.7517 1.09077L22.5939 0.67127C22.567 0.59971 22.5187 0.53803 22.4557 0.494484C22.3926 0.450938 22.3176 0.427603 22.2408 0.427603C22.164 0.427603 22.0891 0.450938 22.026 0.494484C21.9629 0.53803 21.9147 0.59971 21.8878 0.67127L21.73 1.09077C21.683 1.21556 21.6096 1.32887 21.5148 1.42306C21.4201 1.51725 21.3061 1.59012 21.1806 1.63677L20.759 1.79427C20.6877 1.82128 20.6263 1.86921 20.583 1.93172C20.5397 1.99423 20.5165 2.06835 20.5165 2.14427C20.5165 2.22019 20.5397 2.29431 20.583 2.35682C20.6263 2.41933 20.6877 2.46776 20.759 2.49477ZM22.2401 1.72277C22.3551 1.88678 22.4984 2.02929 22.6632 2.14377C22.4984 2.25825 22.3551 2.40076 22.2401 2.56477C22.1252 2.40055 21.982 2.25799 21.8169 2.14377C21.9818 2.02942 22.1251 1.88688 22.2401 1.72277ZM22.9617 21.1833C22.8618 21.1833 22.7659 21.2228 22.6952 21.2931C22.6245 21.3634 22.5848 21.4588 22.5848 21.5583V23.1153C22.5848 23.1504 22.5708 23.1841 22.5458 23.209C22.5208 23.2338 22.487 23.2478 22.4516 23.2478H20.4936C20.4583 23.2478 20.4244 23.2338 20.3995 23.209C20.3745 23.1841 20.3605 23.1504 20.3605 23.1153V22.4733C20.3605 22.3738 20.3208 22.2784 20.2501 22.2081C20.1794 22.1378 20.0835 22.0983 19.9835 22.0983C19.8836 22.0983 19.7877 22.1378 19.717 22.2081C19.6463 22.2784 19.6066 22.3738 19.6066 22.4733V23.1153C19.6069 23.3492 19.7004 23.5736 19.8667 23.739C20.033 23.9044 20.2585 23.9975 20.4936 23.9978H22.4536C22.6888 23.9975 22.9143 23.9044 23.0806 23.739C23.2469 23.5736 23.3404 23.3492 23.3407 23.1153V21.5583C23.3407 21.5089 23.3309 21.4599 23.3118 21.4143C23.2927 21.3687 23.2648 21.3272 23.2296 21.2924C23.1944 21.2576 23.1526 21.23 23.1066 21.2112C23.0606 21.1925 23.0114 21.183 22.9617 21.1833ZM3.99041 22.0978C3.89044 22.0978 3.79457 22.1373 3.72388 22.2076C3.6532 22.2779 3.61348 22.3733 3.61348 22.4728V23.1148C3.61348 23.1498 3.59952 23.1835 3.57465 23.2083C3.54979 23.2331 3.51604 23.2471 3.48081 23.2473H1.5208C1.48557 23.2471 1.45182 23.2331 1.42695 23.2083C1.40209 23.1835 1.38812 23.1498 1.38813 23.1148V21.5583C1.38813 21.4588 1.34841 21.3634 1.27773 21.2931C1.20704 21.2228 1.11117 21.1833 1.0112 21.1833C0.911235 21.1833 0.815363 21.2228 0.744676 21.2931C0.673989 21.3634 0.634277 21.4588 0.634277 21.5583V23.1153C0.63441 23.349 0.7277 23.5732 0.893695 23.7386C1.05969 23.904 1.28485 23.9972 1.5198 23.9978H3.4798C3.71493 23.9975 3.94034 23.9044 4.10655 23.739C4.27277 23.5735 4.36619 23.3492 4.36633 23.1153V22.4733C4.36646 22.3739 4.32694 22.2785 4.25646 22.2081C4.18598 22.1377 4.09029 22.098 3.99041 22.0978Z" fill="#5E5E5E"/>
<path d="M23.2723 9.42543L22.0159 9.20943C21.8323 9.17573 21.6427 9.20526 21.4782 9.29315C21.3138 9.38104 21.1844 9.52205 21.1113 9.69293L21.0434 9.84293L20.1529 7.75293C19.9515 7.27372 19.6303 6.85376 19.2196 6.53307C18.8089 6.21238 18.3226 6.00165 17.8069 5.92093C15.8853 5.6307 13.9439 5.48927 12.0003 5.49793C10.0566 5.48944 8.11523 5.63103 6.19361 5.92143C5.67796 6.0021 5.19164 6.21276 4.78099 6.53336C4.37034 6.85396 4.04902 7.27381 3.84764 7.75293L2.95408 9.84493L2.89075 9.69793C2.81822 9.52632 2.68912 9.38438 2.52469 9.2955C2.36027 9.20662 2.17033 9.17609 1.98614 9.20893L0.729725 9.42543C0.52583 9.45907 0.34056 9.56363 0.206921 9.72049C0.0732821 9.87735 -4.61658e-05 10.0763 2.1806e-08 10.2819V10.5274C0.000188247 10.7254 0.0680586 10.9174 0.192455 11.0718C0.316852 11.2263 0.490372 11.3341 0.684494 11.3774L1.87758 11.6454L1.34888 12.4479C0.890777 13.1413 0.647034 13.9531 0.647806 14.7829V19.0479C0.647806 20.6574 1.77456 21.6979 3.51946 21.6979H20.481C22.2259 21.6979 23.3527 20.6579 23.3527 19.0479V14.7809C23.3535 13.9511 23.1097 13.1393 22.6516 12.4459L22.1229 11.6459L23.312 11.3789C23.5067 11.3361 23.6809 11.2286 23.8059 11.0741C23.931 10.9196 23.9994 10.7273 24 10.5289V10.2834C24.0006 10.0778 23.9277 9.87868 23.7945 9.72153C23.6612 9.56438 23.4761 9.45944 23.2723 9.42543ZM0.846822 10.6434C0.820368 10.6375 0.796735 10.6228 0.77983 10.6017C0.762925 10.5806 0.753759 10.5544 0.753848 10.5274V10.2819C0.753439 10.2536 0.763418 10.2261 0.781919 10.2046C0.800419 10.183 0.826173 10.1689 0.854361 10.1649L2.1163 9.94793C2.134 9.94476 2.15226 9.94808 2.16769 9.95727C2.18312 9.96647 2.19468 9.98091 2.20023 9.99793L2.5083 10.6909L2.32034 10.9759L0.846822 10.6434ZM22.5988 17.8829H2.35703C2.25706 17.8829 2.16119 17.9224 2.09051 17.9928C2.01982 18.0631 1.98011 18.1585 1.98011 18.2579C1.98011 18.3574 2.01982 18.4528 2.09051 18.5231C2.16119 18.5934 2.25706 18.6329 2.35703 18.6329H22.5988V19.0479C22.5988 20.2369 21.8073 20.9479 20.481 20.9479H3.51946C2.19319 20.9479 1.40165 20.2374 1.40165 19.0479V14.7809C1.40113 14.0973 1.60187 13.4284 1.9791 12.8569L3.16717 11.0539H19.6116C19.7116 11.0539 19.8074 11.0144 19.8781 10.9441C19.9488 10.8738 19.9885 10.7784 19.9885 10.6789C19.9885 10.5795 19.9488 10.4841 19.8781 10.4138C19.8074 10.3434 19.7116 10.3039 19.6116 10.3039H3.57877L4.54168 8.04793C4.69323 7.68597 4.93551 7.3687 5.24538 7.12641C5.55526 6.88411 5.92239 6.72489 6.31172 6.66393C8.19417 6.37865 10.0961 6.23957 12.0003 6.24793C13.9044 6.23907 15.8063 6.37766 17.6888 6.66243C18.0783 6.72353 18.4455 6.88298 18.7554 7.12555C19.0653 7.36811 19.3075 7.68569 19.4588 8.04793L20.5604 10.6314C20.569 10.6521 20.5796 10.6719 20.5921 10.6904L22.0214 12.8589C22.3986 13.4304 22.5994 14.0993 22.5988 14.7829V17.8829ZM23.2461 10.5274C23.2461 10.5549 23.2366 10.5816 23.2191 10.6029C23.2016 10.6242 23.1773 10.6389 23.1502 10.6444L21.6817 10.9744L21.4937 10.6894L21.8038 9.98943C21.8108 9.97427 21.8226 9.96184 21.8374 9.95406C21.8522 9.94628 21.8692 9.9436 21.8857 9.94643L23.1451 10.1634C23.1733 10.1674 23.1991 10.1815 23.2176 10.2031C23.2361 10.2246 23.2461 10.2521 23.2456 10.2804L23.2461 10.5274Z" fill="#5E5E5E"/>
</g>
</svg>
