<svg width="24" height="24" viewBox="0 0 24 24" fill="none" xmlns="http://www.w3.org/2000/svg">
<mask id="mask0_1673_2639" style="mask-type:alpha" maskUnits="userSpaceOnUse" x="0" y="0" width="24" height="24">
<rect width="24" height="24" fill="white"/>
</mask>
<g mask="url(#mask0_1673_2639)">
<path d="M15.2996 12.8459H14.4348L14.8528 9.69995C14.8694 9.56745 14.8424 9.43292 14.7763 9.31902C14.7101 9.20513 14.6089 9.11883 14.4896 9.07466C14.2376 8.97777 13.9604 9.07593 13.8392 9.28238L10.5056 13.8562C10.4401 13.9634 10.4034 14.0875 10.3996 14.2151C10.3958 14.3428 10.425 14.4691 10.484 14.5805C10.6064 14.8153 10.8424 14.9608 11.1004 14.9608H11.9652L11.5472 18.1067C11.5305 18.2392 11.5575 18.3738 11.6237 18.4877C11.6898 18.6016 11.7911 18.6879 11.9104 18.732C11.9768 18.7578 12.0452 18.7697 12.112 18.7697C12.2984 18.7697 12.4716 18.6762 12.5608 18.5243L15.8944 13.9505C15.9599 13.8433 15.9965 13.7192 16.0003 13.5915C16.0041 13.4639 15.975 13.3376 15.916 13.2262C15.8548 13.1103 15.7653 13.0139 15.6569 12.947C15.5485 12.8801 15.4251 12.8452 15.2996 12.8459ZM12.466 17.2716L12.8216 14.5974C12.8296 14.5374 12.8253 14.4763 12.8091 14.4183C12.7929 14.3602 12.7651 14.3065 12.7275 14.2608C12.69 14.215 12.6436 14.1784 12.5915 14.1532C12.5394 14.1281 12.4828 14.1151 12.4256 14.1151H11.3252L13.934 10.5355L13.5784 13.2097C13.5704 13.2697 13.5746 13.3308 13.5908 13.3888C13.607 13.4469 13.6349 13.5006 13.6724 13.5464C13.71 13.5921 13.7563 13.6287 13.8084 13.6539C13.8605 13.679 13.9171 13.692 13.9744 13.692H15.0748L12.466 17.2716Z" fill="#5E5E5E"/>
<path d="M22.8 9.03835H22C21.3384 9.03835 20.8 9.6078 20.8 10.3076V11.5768H20V7.76914C20 6.83586 19.2824 6.07687 18.4 6.07687H16.4V5.23074H18.8C19.4616 5.23074 20 4.66129 20 3.96153V3.1154C20 2.41564 19.4616 1.84619 18.8 1.84619H10.8C10.1384 1.84619 9.6 2.41564 9.6 3.1154V3.96153C9.6 4.66129 10.1384 5.23074 10.8 5.23074H13.2V6.07687H10.8344C10.4608 6.07687 10.0972 6.21606 9.8104 6.46906L8.0772 7.99591C7.93362 8.1226 7.75259 8.19206 7.5656 8.19221H5.6C4.7176 8.19221 4 8.9512 4 9.88449V11.5768H3.2V9.03835C3.2 8.33859 2.6616 7.76914 2 7.76914H1.2C0.5384 7.76914 0 8.33859 0 9.03835V17.4997C0 18.1995 0.5384 18.7689 1.2 18.7689H2C2.6616 18.7689 3.2 18.1995 3.2 17.4997V14.9613H4V17.4997C4 18.433 4.7176 19.192 5.6 19.192H6.9036C7.19 19.192 7.4564 19.3553 7.598 19.6184L8.5072 21.3006C8.64722 21.5596 8.84943 21.7749 9.09336 21.9247C9.33729 22.0745 9.61431 22.1536 9.8964 22.1539H17.038C17.2726 22.1542 17.5044 22.0998 17.7168 21.9946C17.9293 21.8893 18.1172 21.7359 18.2672 21.5451L19.6292 19.8164C19.8686 19.5121 19.9998 19.1288 20 18.733V14.9617H20.8V16.2309C20.8 16.9307 21.3384 17.5001 22 17.5001H22.8C23.4616 17.5001 24 16.9307 24 16.2309V10.308C24 9.60822 23.4616 9.03835 22.8 9.03835ZM2.4 17.4997C2.4 17.6119 2.35786 17.7195 2.28284 17.7989C2.20783 17.8782 2.10609 17.9228 2 17.9228H1.2C1.09391 17.9228 0.992172 17.8782 0.917157 17.7989C0.842143 17.7195 0.8 17.6119 0.8 17.4997V9.03835C0.8 8.92614 0.842143 8.81853 0.917157 8.73919C0.992172 8.65985 1.09391 8.61528 1.2 8.61528H2C2.10609 8.61528 2.20783 8.65985 2.28284 8.73919C2.35786 8.81853 2.4 8.92614 2.4 9.03835V17.4997ZM3.2 14.1152V12.4229H4V14.1152H3.2ZM10.4 3.96153V3.1154C10.4 3.00319 10.4421 2.89558 10.5172 2.81624C10.5922 2.7369 10.6939 2.69233 10.8 2.69233H18.8C18.9061 2.69233 19.0078 2.7369 19.0828 2.81624C19.1579 2.89558 19.2 3.00319 19.2 3.1154V3.96153C19.2 4.07374 19.1579 4.18135 19.0828 4.26069C19.0078 4.34003 18.9061 4.3846 18.8 4.3846H10.8C10.6939 4.3846 10.5922 4.34003 10.5172 4.26069C10.4421 4.18135 10.4 4.07374 10.4 3.96153ZM14 5.23074H15.6V6.07687H14V5.23074ZM19.2 18.7325C19.2 18.9301 19.134 19.1222 19.0144 19.2741L17.6528 21.0027C17.5777 21.0981 17.4837 21.1748 17.3775 21.2274C17.2712 21.2801 17.1553 21.3073 17.038 21.3073H9.8964C9.7554 21.3072 9.61692 21.2677 9.49498 21.1929C9.37304 21.118 9.27197 21.0103 9.202 20.8809L8.2928 19.1988C8.15278 18.9397 7.95058 18.7244 7.70664 18.5746C7.46271 18.4248 7.18569 18.3457 6.9036 18.3454H5.6C5.1588 18.3454 4.8 17.9659 4.8 17.4993V9.88406C4.8 9.41742 5.1588 9.03793 5.6 9.03793H7.5656C7.9392 9.03793 8.3028 8.89874 8.5896 8.64574L10.3228 7.11889C10.4664 6.9922 10.6474 6.92274 10.8344 6.92259H18.4C18.8412 6.92259 19.2 7.30208 19.2 7.76872V18.7321V18.7325ZM20 14.1152V12.4229H20.8V14.1152H20ZM23.2 16.2305C23.2 16.3427 23.1579 16.4503 23.0828 16.5297C23.0078 16.609 22.9061 16.6536 22.8 16.6536H22C21.8939 16.6536 21.7922 16.609 21.7172 16.5297C21.6421 16.4503 21.6 16.3427 21.6 16.2305V10.3076C21.6 10.1953 21.6421 10.0877 21.7172 10.0084C21.7922 9.92906 21.8939 9.88449 22 9.88449H22.8C22.9061 9.88449 23.0078 9.92906 23.0828 10.0084C23.1579 10.0877 23.2 10.1953 23.2 10.3076V16.2305Z" fill="#5E5E5E"/>
</g>
</svg>
