<svg width="24" height="24" viewBox="0 0 24 24" fill="none" xmlns="http://www.w3.org/2000/svg">
<mask id="mask0_1673_2627" style="mask-type:alpha" maskUnits="userSpaceOnUse" x="0" y="0" width="24" height="24">
<rect width="24" height="24" fill="white"/>
</mask>
<g mask="url(#mask0_1673_2627)">
<path d="M11.8647 6.37506H20.1008C20.2138 6.37506 20.3221 6.33555 20.402 6.26522C20.4819 6.1949 20.5268 6.09951 20.5268 6.00005V3.37501C20.5268 3.27555 20.4819 3.18016 20.402 3.10984C20.3221 3.03951 20.2138 3 20.1008 3H13.2836C13.203 2.99999 13.1242 3.02006 13.0561 3.05789C12.988 3.09572 12.9335 3.14977 12.8988 3.21375L11.48 5.8388C11.4491 5.89597 11.4351 5.9591 11.4393 6.02231C11.4436 6.08551 11.466 6.14674 11.5044 6.20028C11.5428 6.25382 11.596 6.29792 11.659 6.32849C11.722 6.35905 11.7928 6.37507 11.8647 6.37506ZM13.5529 3.75001H19.6747V5.62505H12.5392L13.5529 3.75001Z" fill="#5E5E5E"/>
<path d="M2.76776 5.9438C2.88152 5.98205 3.02895 5.94343 3.09243 5.91268L3.46397 5.73418L3.994 6.58994C3.31225 6.9931 2.75367 7.53771 2.36751 8.17573C1.98136 8.81376 1.77948 9.5256 1.7797 10.2485V21.375C1.7797 22.8225 3.11757 24 4.76222 24H20.1009C21.7455 24 23.0834 22.8225 23.0834 21.375V2.62499C23.0834 1.5911 22.1277 0.749961 20.953 0.749961H13.7098C12.9897 0.747657 12.2834 0.922937 11.6708 1.25593C11.0581 1.58893 10.5638 2.06632 10.2437 2.634L9.55299 3.85352L8.45458 4.38978L7.95266 3.58051L8.32846 3.40013C8.42757 3.35251 8.50115 3.27219 8.53303 3.17685C8.56491 3.0815 8.55247 2.97891 8.49846 2.89162L7.07069 0.584958C6.90784 0.323904 6.63428 0.130145 6.30971 0.0459759C5.98514 -0.0381933 5.63592 -0.0059383 5.33827 0.135701L1.59265 1.93198C0.979101 2.22711 0.749447 2.91037 1.08221 3.45713L2.51382 5.76343C2.54064 5.80671 2.57692 5.84489 2.62058 5.87579C2.66423 5.90668 2.7144 5.92967 2.76819 5.94343L2.76776 5.9438ZM5.74474 0.794962C5.84456 0.750334 5.95998 0.740969 6.06738 0.768784C6.17479 0.7966 6.26605 0.859492 6.3225 0.94459L7.54619 2.92163L6.61095 3.36976L5.99655 2.38124C5.94096 2.29627 5.84977 2.23385 5.74252 2.20734C5.63526 2.18083 5.52048 2.19235 5.42276 2.23942C5.32504 2.2865 5.25215 2.36539 5.21971 2.45919C5.18728 2.55299 5.19787 2.65424 5.24922 2.74125L5.86277 3.72826L4.73921 4.26677L4.12651 3.28088C4.07092 3.19591 3.97973 3.13349 3.87248 3.10698C3.76522 3.08047 3.65044 3.09199 3.55272 3.13907C3.455 3.18614 3.38211 3.26503 3.34967 3.35883C3.31724 3.45263 3.32783 3.55388 3.37918 3.64089L3.99102 4.62528L3.43116 4.89379L3.42903 4.89454L3.05749 5.07416L1.8321 3.10013C1.77852 3.01261 1.76622 2.91004 1.79787 2.8146C1.82953 2.71916 1.90259 2.63852 2.00125 2.59012L5.74474 0.794962ZM6.65356 6.16206L10.0818 4.45315C10.1572 4.4164 10.2177 4.36015 10.2564 4.29265L11.0059 2.96925C11.2592 2.52903 11.6458 2.15893 12.1229 1.89974C12.6 1.64055 13.1491 1.50234 13.7098 1.50035H20.953C21.6578 1.50035 22.2313 2.00511 22.2313 2.62537V21.3753C22.2313 22.4092 21.2756 23.2504 20.1009 23.2504H4.76222C3.58753 23.2504 2.63184 22.4092 2.63184 21.3753V10.2489C2.63147 9.59667 2.82942 8.95625 3.20516 8.39409C3.58089 7.83193 4.12072 7.36852 4.76861 7.05195C4.86694 7.00394 4.93973 6.92366 4.97109 6.82862C5.00246 6.73357 4.98986 6.63147 4.93605 6.54456L4.21215 5.37567L7.20405 3.94014L7.71235 4.75953L6.22834 5.51255C6.17985 5.53714 6.13734 5.5699 6.10324 5.60895C6.06913 5.64801 6.04411 5.6926 6.02959 5.74017C6.01506 5.78774 6.01133 5.83736 6.01861 5.8862C6.02588 5.93504 6.04401 5.98213 6.07197 6.02481C6.15079 6.14518 6.41794 6.25468 6.65399 6.16243L6.65356 6.16206Z" fill="#5E5E5E"/>
<path d="M17.5444 17.47V12.1554L19.976 10.0152C20.0156 9.98044 20.047 9.93911 20.0685 9.89362C20.0899 9.84813 20.1009 9.79936 20.1009 9.75011C20.1009 9.70086 20.0899 9.65209 20.0685 9.6066C20.047 9.5611 20.0156 9.51977 19.976 9.48498L18.2717 7.98495C18.2322 7.9501 18.1852 7.92244 18.1335 7.90358C18.0818 7.88471 18.0264 7.875 17.9705 7.875C17.9145 7.875 17.8591 7.88471 17.8074 7.90358C17.7557 7.92244 17.7088 7.9501 17.6692 7.98495L15.2376 10.1251H9.62538L7.19378 7.98495C7.15424 7.9501 7.10729 7.92244 7.0556 7.90358C7.00391 7.88471 6.9485 7.875 6.89254 7.875C6.83658 7.875 6.78118 7.88471 6.72949 7.90358C6.6778 7.92244 6.63084 7.9501 6.59131 7.98495L4.88701 9.48498C4.84741 9.51977 4.81599 9.5611 4.79455 9.6066C4.77312 9.65209 4.76208 9.70086 4.76208 9.75011C4.76208 9.79936 4.77312 9.84813 4.79455 9.89362C4.81599 9.93911 4.84741 9.98044 4.88701 10.0152L7.31862 12.1554V17.47L4.88701 19.6102C4.84741 19.645 4.81599 19.6863 4.79455 19.7318C4.77312 19.7773 4.76208 19.826 4.76208 19.8753C4.76208 19.9245 4.77312 19.9733 4.79455 20.0188C4.81599 20.0643 4.84741 20.1056 4.88701 20.1404L6.59131 21.6404C6.63084 21.6753 6.6778 21.703 6.72949 21.7218C6.78118 21.7407 6.83658 21.7504 6.89254 21.7504C6.9485 21.7504 7.00391 21.7407 7.0556 21.7218C7.10729 21.703 7.15424 21.6753 7.19378 21.6404L9.62538 19.5003H15.2376L17.6692 21.6404C17.7087 21.6754 17.7557 21.7031 17.8074 21.722C17.859 21.741 17.9145 21.7507 17.9705 21.7507C18.0265 21.7507 18.0819 21.741 18.1336 21.722C18.1853 21.7031 18.2322 21.6754 18.2717 21.6404L19.976 20.1404C20.0156 20.1056 20.047 20.0643 20.0685 20.0188C20.0899 19.9733 20.1009 19.9245 20.1009 19.8753C20.1009 19.826 20.0899 19.7773 20.0685 19.7318C20.047 19.6863 20.0156 19.645 19.976 19.6102L17.5444 17.47ZM17.9705 20.8451L15.7153 18.8601C15.6354 18.7898 15.527 18.7503 15.414 18.7503H9.44899C9.39303 18.7502 9.33761 18.7599 9.28592 18.7788C9.23422 18.7976 9.18727 18.8253 9.14775 18.8601L6.89254 20.8451L5.79071 19.8753L8.04593 17.8904C8.12584 17.8201 8.17074 17.7247 8.17077 17.6252V12.0001C8.17082 11.9509 8.15982 11.9021 8.1384 11.8566C8.11698 11.8111 8.08555 11.7698 8.04593 11.735L5.79071 9.75011L6.89254 8.78034L9.14775 10.7653C9.22764 10.8356 9.336 10.8751 9.44899 10.8751H15.414C15.5269 10.8751 15.6356 10.8358 15.7153 10.7653L17.9705 8.78034L19.0723 9.75011L16.8171 11.735C16.7372 11.8053 16.6923 11.9007 16.6923 12.0001V17.6252C16.6923 17.7246 16.737 17.8203 16.8171 17.8904L19.0723 19.8753L17.9705 20.8451Z" fill="#5E5E5E"/>
<path d="M14.9881 12H9.87517C9.76217 12 9.6538 12.0395 9.57389 12.1098C9.49399 12.1802 9.4491 12.2755 9.4491 12.375V17.2501C9.4491 17.3496 9.49399 17.4449 9.57389 17.5153C9.6538 17.5856 9.76217 17.6251 9.87517 17.6251H13.2838C13.3968 17.6251 13.5051 17.5856 13.585 17.5153C13.665 17.4449 13.7098 17.3496 13.7098 17.2501C13.7098 17.1506 13.665 17.0553 13.585 16.9849C13.5051 16.9146 13.3968 16.8751 13.2838 16.8751H10.3012V12.75H14.562V15.7501C14.562 15.8495 14.6069 15.9449 14.6868 16.0152C14.7667 16.0856 14.8751 16.1251 14.9881 16.1251C15.1011 16.1251 15.2094 16.0856 15.2893 16.0152C15.3692 15.9449 15.4141 15.8495 15.4141 15.7501V12.375C15.4141 12.2755 15.3692 12.1802 15.2893 12.1098C15.2094 12.0395 15.1011 12 14.9881 12ZM20.527 12C20.414 12 20.3057 12.0395 20.2257 12.1098C20.1458 12.1802 20.101 12.2755 20.101 12.375V15.7501C20.101 15.8495 20.1458 15.9449 20.2257 16.0152C20.3057 16.0856 20.414 16.1251 20.527 16.1251C20.64 16.1251 20.7484 16.0856 20.8283 16.0152C20.9082 15.9449 20.9531 15.8495 20.9531 15.7501V12.375C20.9531 12.2755 20.9082 12.1802 20.8283 12.1098C20.7484 12.0395 20.64 12 20.527 12Z" fill="#5E5E5E"/>
<path d="M20.527 17.625C20.7623 17.625 20.9531 17.4571 20.9531 17.25C20.9531 17.0429 20.7623 16.875 20.527 16.875C20.2917 16.875 20.101 17.0429 20.101 17.25C20.101 17.4571 20.2917 17.625 20.527 17.625Z" fill="#5E5E5E"/>
</g>
</svg>
