<svg width="24" height="24" viewBox="0 0 24 24" fill="none" xmlns="http://www.w3.org/2000/svg">
<mask id="mask0_1673_2648" style="mask-type:alpha" maskUnits="userSpaceOnUse" x="0" y="0" width="24" height="24">
<rect width="24" height="24" fill="white"/>
</mask>
<g mask="url(#mask0_1673_2648)">
<path d="M24 13.5C24 10.2217 22.6781 7.2467 20.5399 5.07875C20.5232 5.05612 20.5049 5.03468 20.4852 5.01462C20.4652 4.99491 20.4438 4.97666 20.4212 4.96001C18.2532 2.82181 15.2782 1.5 12 1.5C8.72176 1.5 5.74678 2.82189 3.57875 4.96001C3.55616 4.97671 3.53476 4.99495 3.5147 5.01462C3.49497 5.03467 3.47669 5.0561 3.46001 5.07875C1.32189 7.2467 0 10.2217 0 13.5C0 16.7049 1.24792 19.7178 3.51384 21.9843L3.51478 21.9853L3.51541 21.9858L3.51635 21.9868C3.57109 22.0416 3.63612 22.0851 3.70772 22.1148C3.77932 22.1444 3.85607 22.1596 3.93356 22.1595C4.08464 22.1595 4.23572 22.1019 4.35092 21.9866C4.36076 21.9768 4.36965 21.9663 4.37862 21.9559L6.19727 20.1372C6.30715 20.0264 6.36866 19.8765 6.36832 19.7205C6.36799 19.5644 6.30584 19.4148 6.19549 19.3044C6.08513 19.1941 5.93555 19.1319 5.77948 19.1316C5.62341 19.1312 5.47355 19.1927 5.3627 19.3026L3.94348 20.7218C2.28858 18.8802 1.3285 16.5626 1.19646 14.0902H3.20357C3.5295 14.0902 3.79373 13.826 3.79373 13.5C3.79373 13.174 3.5295 12.9098 3.20357 12.9098H1.19662C1.33385 10.3704 2.35082 8.06121 3.94733 6.28198L5.3627 7.69735C5.41745 7.75222 5.48249 7.79573 5.5541 7.82539C5.62571 7.85504 5.70248 7.87025 5.77999 7.87015C5.8967 7.87014 6.0108 7.83552 6.10784 7.77068C6.20488 7.70583 6.28052 7.61366 6.32518 7.50583C6.36985 7.39799 6.38153 7.27934 6.35877 7.16486C6.336 7.05039 6.2798 6.94524 6.19727 6.8627L4.78198 5.44725C6.56129 3.85074 8.8704 2.83377 11.4098 2.69662V4.70365C11.4098 5.02965 11.6741 5.29381 12 5.29381C12.3259 5.29381 12.5902 5.02965 12.5902 4.70365V2.69662C15.1296 2.83377 17.4387 3.85082 19.218 5.44733L17.8027 6.8627C17.6928 6.97354 17.6313 7.12339 17.6316 7.27946C17.6319 7.43554 17.6941 7.58512 17.8044 7.69549C17.9148 7.80585 18.0644 7.86801 18.2204 7.86836C18.3765 7.86871 18.5264 7.80722 18.6372 7.69735L20.0526 6.28198C21.6491 8.06129 22.6662 10.3704 22.8033 12.9098H20.7963C20.4703 12.9098 20.2061 13.174 20.2061 13.5C20.2061 13.826 20.4703 14.0902 20.7963 14.0902H22.8034C22.6713 16.5626 21.7113 18.8803 20.0564 20.7219L18.6372 19.3026C18.5259 19.195 18.3768 19.1354 18.222 19.1367C18.0672 19.138 17.9191 19.2001 17.8096 19.3096C17.7001 19.4191 17.6381 19.5672 17.6368 19.722C17.6355 19.8768 17.695 20.0259 17.8027 20.1372L19.6507 21.9852C19.7054 22.0401 19.7704 22.0836 19.8421 22.1133C19.9137 22.1429 19.9904 22.1581 20.0679 22.158C20.1455 22.1581 20.2222 22.1429 20.2938 22.1132C20.3655 22.0836 20.4305 22.0401 20.4853 21.9852C22.7518 19.7187 24 16.7052 24 13.5Z" fill="#5E5E5E"/>
<path d="M14.7112 6.7328C14.6393 6.70396 14.5624 6.68957 14.4849 6.69047C14.4074 6.69136 14.3308 6.70752 14.2596 6.73801C14.1883 6.76851 14.1238 6.81274 14.0696 6.86819C14.0155 6.92364 13.9728 6.98921 13.944 7.06116L12.2385 11.3182C12.1593 11.3092 12.0797 11.3044 12 11.3039C11.1694 11.3039 10.4191 11.764 10.0418 12.5046C9.64741 13.2788 9.74844 14.2039 10.3119 14.979C10.3705 15.0593 10.4413 15.13 10.5216 15.1887C10.9794 15.5214 11.4906 15.6973 12 15.6973C12.8307 15.6973 13.581 15.2372 13.9583 14.4966C14.3527 13.7224 14.2516 12.7974 13.6886 12.0229C13.6299 11.9422 13.559 11.8713 13.4784 11.8125C13.4356 11.7818 13.3919 11.7523 13.3474 11.7241L15.0396 7.50001C15.0978 7.35473 15.0959 7.19228 15.0343 7.04841C14.9727 6.90453 14.8565 6.79101 14.7112 6.7328ZM12.9064 13.9608C12.8217 14.1284 12.6921 14.2692 12.532 14.3674C12.372 14.4655 12.1877 14.5173 12 14.5169C11.7478 14.5169 11.4941 14.4289 11.2454 14.2551C10.9621 13.8484 10.9065 13.4074 11.0935 13.0403C11.1783 12.8727 11.3079 12.7319 11.468 12.6338C11.628 12.5356 11.8122 12.4838 12 12.4842C12.1226 12.4842 12.2455 12.5055 12.3681 12.5468C12.3722 12.5484 12.3759 12.5506 12.3799 12.5522C12.3928 12.5573 12.4058 12.5615 12.4188 12.5657C12.5376 12.6119 12.6504 12.6724 12.7545 12.7459C13.0377 13.1527 13.0934 13.5937 12.9064 13.9608Z" fill="#5E5E5E"/>
</g>
</svg>
