<svg width="46" height="36" viewBox="0 0 46 36" fill="none" xmlns="http://www.w3.org/2000/svg">
<path d="M11.452 29.7721C11.4394 31.3838 10.8941 32.7644 9.81597 33.9138C8.71277 35.0883 7.35258 35.6755 5.73539 35.6755C4.04298 35.6755 2.66398 35.107 1.59839 33.9701C0.532795 32.8331 0 31.4463 0 29.8096C0 28.0604 0.495186 26.6111 1.48556 25.4617C2.55115 24.2123 3.96776 23.5876 5.73539 23.5876C7.55316 23.5876 8.9823 24.1811 10.0228 25.368C11.0007 26.48 11.477 27.948 11.452 29.7721ZM8.93216 29.7346C8.93216 28.5852 8.66263 27.6794 8.12356 27.0172C7.53435 26.305 6.71949 25.949 5.67897 25.949C4.6886 25.949 3.90508 26.3425 3.3284 27.1296C2.80188 27.8418 2.53861 28.7164 2.53861 29.7534C2.53861 30.7154 2.82068 31.54 3.38482 32.2272C3.9991 32.9518 4.78262 33.3141 5.73539 33.3141C6.68815 33.3141 7.4654 32.9518 8.06715 32.2272C8.64382 31.565 8.93216 30.7341 8.93216 29.7346Z" fill="#13141A"/>
<path d="M25.3072 23.7938C25.2822 24.2186 25.2571 24.7995 25.232 25.5367C25.2195 26.2738 25.2132 27.1734 25.2132 28.2354V28.9662C25.2132 29.3411 25.2132 29.8533 25.2132 30.503C25.2132 31.1402 25.2195 31.9273 25.232 32.8644C25.2446 33.7889 25.2508 34.4698 25.2508 34.9071C25.2634 35.3444 25.2696 35.5443 25.2696 35.5068H23.3328C23.3578 34.8321 23.3766 34.02 23.3892 33.0705C23.4017 32.1085 23.408 30.9903 23.408 29.7159H20.3805V29.8283C20.3805 31.4525 20.3805 32.7332 20.3805 33.6702C20.393 34.6073 20.4055 35.2195 20.4181 35.5068H18.5752V35.4881C18.6504 34.8384 18.688 32.9518 18.688 29.8283V29.6971C17.3717 29.7096 16.5004 29.7096 16.0742 29.6971V29.8096C16.0742 31.4338 16.0742 32.7144 16.0742 33.6515C16.0867 34.5885 16.0993 35.2007 16.1118 35.4881H14.269C14.3442 34.8384 14.3818 32.9518 14.3818 29.8283V29.6784C13.7174 29.7034 13.3037 29.7409 13.1407 29.7908V28.1417C13.3413 28.2416 13.755 28.2791 14.3818 28.2541C14.3567 26.6799 14.4382 25.6491 14.6263 25.1618C14.9522 24.3497 15.7295 23.9437 16.958 23.9437C17.3467 23.9437 17.7102 23.9874 18.0487 24.0749C18.2117 24.1124 18.5564 24.256 19.0829 24.5059C19.5719 23.7813 20.4557 23.4189 21.7344 23.4189C22.449 23.4189 23.0883 23.5314 23.6524 23.7563L25.3072 23.7938ZM23.408 28.2166V25.4242C23.0695 25.0869 22.5931 24.9182 21.9788 24.9182C21.0762 24.9182 20.5622 25.318 20.4369 26.1176C20.3993 26.3675 20.3805 27.0609 20.3805 28.1979C20.7189 28.2104 21.1389 28.2166 21.6404 28.2166C22.1418 28.2166 22.731 28.2166 23.408 28.2166ZM18.688 26.1364C18.5376 25.9115 18.2931 25.7366 17.9547 25.6116C17.6162 25.4742 17.3028 25.418 17.0144 25.443C16.5255 25.4929 16.2309 25.7741 16.1306 26.2863C16.093 26.5362 16.0742 27.1734 16.0742 28.1979C16.3625 28.2104 16.7198 28.2166 17.1461 28.2166C17.5848 28.2166 18.0926 28.2229 18.6692 28.2354C18.6567 27.7356 18.6504 27.3171 18.6504 26.9797C18.663 26.6299 18.6755 26.3488 18.688 26.1364Z" fill="#13141A"/>
<path d="M29.2688 25.9302C29.2688 26.1801 29.1623 26.405 28.9492 26.6049C28.7486 26.8048 28.5104 26.9048 28.2346 26.9048C27.9588 26.9172 27.7206 26.8235 27.52 26.6236C27.332 26.4237 27.2379 26.1926 27.2379 25.9302C27.2379 25.6554 27.3382 25.418 27.5388 25.2181C27.7394 25.0057 27.9713 24.8995 28.2346 24.8995C28.5104 24.8995 28.7486 25.0057 28.9492 25.2181C29.1623 25.418 29.2688 25.6554 29.2688 25.9302ZM29.1748 35.563H27.3696C27.4824 32.9268 27.4824 30.4905 27.3696 28.2541H29.1748C29.0745 30.7154 29.0745 33.1517 29.1748 35.563Z" fill="#13141A"/>
<path d="M37.6332 35.4881H35.7339L35.7151 32.2646C35.69 31.4276 35.6274 30.8653 35.5271 30.578C35.339 30.0532 34.9316 29.7908 34.3048 29.7908C33.4147 29.7908 32.8443 30.2719 32.5936 31.2339C32.581 31.7961 32.5748 32.4333 32.5748 33.1455C32.5748 33.8451 32.5748 34.626 32.5748 35.4881H30.6755C30.7006 34.8384 30.7194 33.9826 30.7319 32.9206C30.7444 31.8586 30.7507 30.5905 30.7507 29.1162C30.7382 28.9787 30.7256 28.8413 30.7131 28.7039C30.7006 28.554 30.688 28.3915 30.6755 28.2166H32.6312C32.6186 28.379 32.6061 28.5352 32.5936 28.6851C32.581 28.8351 32.5622 28.9787 32.5371 29.1162C32.9634 28.429 33.7156 28.0854 34.7937 28.0854C36.6616 28.0854 37.5956 29.3286 37.5956 31.8149V34.0263C37.5956 34.4761 37.6018 34.8446 37.6144 35.132C37.6269 35.4069 37.6332 35.5256 37.6332 35.4881Z" fill="#13141A"/>
<path d="M45.9887 32.3958H40.6482C40.6984 33.4828 41.275 34.0263 42.3782 34.0263C42.5161 34.0263 42.6728 34.0076 42.8484 33.9701C43.4626 33.8701 43.9265 33.664 44.2399 33.3516L45.3682 34.8134C44.4029 35.3506 43.519 35.638 42.7167 35.6755C41.4756 35.738 40.4978 35.4381 39.7832 34.7759C39.0686 34.1013 38.7114 33.1205 38.7114 31.8336C38.7114 30.8091 39.0749 29.9345 39.802 29.2099C40.5166 28.4977 41.3879 28.1292 42.4159 28.1042C43.0176 28.1042 43.5441 28.2041 43.9954 28.404C44.4593 28.6039 44.8416 28.8913 45.1425 29.2661C45.4559 29.6409 45.6816 30.097 45.8195 30.6342C45.9699 31.1589 46.0263 31.7461 45.9887 32.3958ZM44.0518 31.009C43.7384 30.2094 43.2119 29.8096 42.4723 29.8096C41.6073 29.8346 41.0995 30.2344 40.9491 31.009H44.0518Z" fill="#13141A"/>
<path d="M18.6372 7.44268C17.5366 7.92966 16.5459 8.62593 15.6925 9.51219C15.5778 9.63139 15.4274 9.69097 15.277 9.69097C15.1267 9.69097 14.9763 9.63139 14.8615 9.51223C14.6321 9.27387 14.632 8.88748 14.8615 8.64916C15.8217 7.65197 16.937 6.86828 18.1765 6.31978C18.4751 6.18769 18.8203 6.33194 18.9475 6.64201C19.0747 6.95208 18.9358 7.31055 18.6372 7.44268ZM17.0375 4.63506C16.8867 4.33662 16.5315 4.2217 16.244 4.37835C15.0811 5.01237 14.0167 5.82689 13.0803 6.79928C12.8508 7.03764 12.8508 7.42403 13.0803 7.66235C13.1348 7.71912 13.1996 7.76413 13.2709 7.79481C13.3422 7.8255 13.4187 7.84124 13.4958 7.84113C13.6462 7.84113 13.7966 7.78151 13.9113 7.66239C14.7638 6.77712 15.7324 6.0358 16.7903 5.45911C17.0777 5.30241 17.1883 4.93349 17.0375 4.63506ZM20.9513 8.77656C20.8675 8.45097 20.5457 8.25746 20.2318 8.34466C18.879 8.72041 17.6379 9.46531 16.6427 10.499C16.4132 10.7373 16.4132 11.1237 16.6427 11.362C16.7574 11.4812 16.9078 11.5408 17.0582 11.5408C17.2085 11.5408 17.3589 11.4812 17.4737 11.362C18.3231 10.4799 19.3819 9.84419 20.5354 9.52379C20.849 9.43675 21.0352 9.10219 20.9513 8.77656ZM31.5406 6.79928C29.7867 4.97781 27.5862 3.71874 25.177 3.15814C22.9309 2.63554 20.5969 2.73639 18.4069 3.44738L15.9179 0.862363C15.6884 0.624004 15.3163 0.624004 15.0868 0.862363C14.8573 1.10068 14.8573 1.48711 15.0868 1.72543L29.1128 16.292C29.2275 16.4112 29.3779 16.4708 29.5283 16.4708C29.6786 16.4708 29.829 16.4112 29.9438 16.292C30.1733 16.0537 30.1733 15.6673 29.9438 15.429L24.3288 9.59756C25.3845 9.93543 26.3523 10.5365 27.1472 11.362C27.262 11.4812 27.4124 11.5408 27.5627 11.5408C27.7131 11.5408 27.8635 11.4812 27.9782 11.362C28.2078 11.1237 28.2078 10.7373 27.9782 10.499C26.6078 9.07572 24.7994 8.22165 22.8693 8.08185L21.5371 6.69827C24.2662 6.46209 26.9647 7.47285 28.9284 9.51223C29.0431 9.63143 29.1935 9.69101 29.3439 9.69101C29.4943 9.69101 29.6446 9.63139 29.7594 9.51227C29.9889 9.27391 29.9889 8.88752 29.7594 8.6492C27.3208 6.11655 23.8759 4.99303 20.4885 5.60928L19.3573 4.43446C23.4243 3.34531 27.7042 4.5413 30.7095 7.66243C30.8243 7.78159 30.9747 7.84117 31.125 7.84117C31.2754 7.84117 31.4258 7.78159 31.5405 7.66239C31.7701 7.42403 31.7701 7.0376 31.5406 6.79928ZM22.8575 11.2823C22.8548 10.9453 22.5907 10.6756 22.265 10.6771C20.8141 10.6895 19.45 11.2832 18.4239 12.3488C18.1944 12.5872 18.1944 12.9736 18.4239 13.2119C18.5386 13.3311 18.689 13.3907 18.8394 13.3907C18.9898 13.3907 19.1401 13.331 19.2549 13.2119C20.0616 12.3741 21.134 11.9074 22.2747 11.8976C22.5992 11.8948 22.8601 11.6194 22.8575 11.2823ZM23.9094 14.0781C24.3365 14.5216 24.5717 15.1113 24.5717 15.7386C24.5717 16.3659 24.3365 16.9556 23.9094 17.3992C23.4686 17.8569 22.8894 18.0858 22.3105 18.0858C21.7314 18.0858 21.1525 17.857 20.7116 17.3991C20.2845 16.9556 20.0493 16.3659 20.0493 15.7386C20.0493 15.1113 20.2845 14.5216 20.7116 14.078C21.5932 13.1624 23.0278 13.1624 23.9094 14.0781ZM23.3964 15.7386C23.3964 15.4374 23.2834 15.1542 23.0783 14.9412C22.8666 14.7213 22.5885 14.6114 22.3105 14.6114C22.0324 14.6114 21.7543 14.7213 21.5426 14.9412C21.3375 15.1541 21.2246 15.4374 21.2246 15.7386C21.2246 16.0399 21.3375 16.323 21.5426 16.536C21.9661 16.9758 22.6549 16.9758 23.0783 16.536C23.2834 16.323 23.3964 16.0398 23.3964 15.7386Z" fill="#6C2EB9"/>
</svg>
