<svg width="46" height="41" viewBox="0 0 46 41" fill="none" xmlns="http://www.w3.org/2000/svg">
<path fill-rule="evenodd" clip-rule="evenodd" d="M5.52027 28.4443H1.94219C1.69734 28.4443 1.4891 28.622 1.45091 28.8633L0.0037535 38.0245C-0.02501 38.2053 0.115201 38.3682 0.298847 38.3682H2.00706C2.25191 38.3682 2.46015 38.1905 2.49834 37.9488L2.88865 35.4779C2.9263 35.2359 3.13506 35.0585 3.3794 35.0585H4.5121C6.86911 35.0585 8.22932 33.9196 8.58475 31.6629C8.74479 30.6756 8.59153 29.8999 8.12836 29.3564C7.61991 28.7601 6.71778 28.4443 5.52027 28.4443ZM5.93308 31.7903C5.73745 33.0723 4.75644 33.0723 3.8079 33.0723H3.26795L3.64675 30.6781C3.66924 30.5335 3.7948 30.4269 3.9413 30.4269H4.18877C4.83491 30.4269 5.44449 30.4269 5.75948 30.7946C5.94713 31.0141 6.00475 31.34 5.93308 31.7903ZM16.216 31.7492H14.5026C14.3566 31.7492 14.2304 31.8558 14.2079 32.0007L14.1321 32.4791L14.0123 32.3057C13.6414 31.7681 12.8143 31.5885 11.9887 31.5885C10.0951 31.5885 8.47798 33.0203 8.16298 35.029C7.99931 36.0308 8.23198 36.9888 8.8012 37.657C9.32345 38.2713 10.0706 38.5273 10.9594 38.5273C12.485 38.5273 13.3312 37.5477 13.3312 37.5477L13.2547 38.0233C13.2259 38.2051 13.3661 38.368 13.5486 38.368H15.0921C15.3376 38.368 15.5446 38.1903 15.5834 37.9486L16.5095 32.093C16.5388 31.9129 16.3991 31.7492 16.216 31.7492ZM13.8276 35.079C13.6622 36.0564 12.8852 36.7125 11.8945 36.7125C11.3969 36.7125 10.9991 36.5532 10.7439 36.2513C10.4907 35.9515 10.3943 35.5246 10.475 35.0493C10.6294 34.0802 11.4195 33.4028 12.3952 33.4028C12.8816 33.4028 13.2772 33.564 13.5377 33.8686C13.7987 34.1764 13.9024 34.6057 13.8276 35.079ZM23.6197 31.749H25.3417C25.5828 31.749 25.7235 32.019 25.5865 32.2165L19.8597 40.4702C19.7669 40.6039 19.6142 40.6834 19.451 40.6834H17.7312C17.4891 40.6834 17.3477 40.4112 17.4879 40.2132L19.2711 37.7L17.3746 32.1428C17.309 31.9496 17.4518 31.749 17.6576 31.749H19.3495C19.5694 31.749 19.7633 31.8931 19.8267 32.1032L20.8332 35.4595L23.2081 31.9668C23.3011 31.8305 23.4556 31.749 23.6197 31.749Z" fill="#253B80"/>
<path fill-rule="evenodd" clip-rule="evenodd" d="M42.286 38.024L43.7545 28.6953C43.777 28.5505 43.9027 28.4438 44.0487 28.4434H45.7018C45.8844 28.4434 46.0246 28.6068 45.9958 28.7876L44.5477 37.9483C44.5099 38.1901 44.3017 38.3677 44.0564 38.3677H42.58C42.3974 38.3677 42.2572 38.2048 42.286 38.024ZM31.0399 28.4438H27.4612C27.2169 28.4438 27.0087 28.6215 26.9704 28.8628L25.5233 38.024C25.4945 38.2048 25.6347 38.3677 25.8175 38.3677H27.6537C27.8244 38.3677 27.9704 38.2435 27.997 38.0743L28.4076 35.4774C28.4454 35.2354 28.6541 35.058 28.8984 35.058H30.0305C32.388 35.058 33.748 33.9191 34.1037 31.6624C34.2642 30.6752 34.11 29.8994 33.6471 29.3559C33.1389 28.7596 32.2374 28.4438 31.0399 28.4438ZM31.4527 31.7898C31.2576 33.0718 30.2765 33.0718 29.3274 33.0718H28.788L29.1674 30.6776C29.1899 30.533 29.3144 30.4264 29.4613 30.4264H29.7088C30.3545 30.4264 30.9646 30.4264 31.2794 30.7941C31.4673 31.0136 31.5244 31.3395 31.4527 31.7898ZM41.7347 31.7487H40.0225C39.8753 31.7487 39.7503 31.8554 39.7283 32.0002L39.6525 32.4786L39.5322 32.3052C39.1613 31.7676 38.3347 31.588 37.5091 31.588C35.6155 31.588 33.9989 33.0198 33.6839 35.0285C33.5207 36.0303 33.7524 36.9883 34.3216 37.6565C34.8448 38.2708 35.591 38.5268 36.4798 38.5268C38.0054 38.5268 38.8514 37.5473 38.8514 37.5473L38.7751 38.0228C38.7463 38.2046 38.8865 38.3675 39.0702 38.3675H40.613C40.8573 38.3675 41.0655 38.1898 41.1038 37.9481L42.0304 32.0925C42.0587 31.9124 41.9185 31.7487 41.7347 31.7487ZM39.3465 35.0785C39.1821 36.0559 38.4042 36.712 37.4132 36.712C36.9166 36.712 36.5181 36.5527 36.2626 36.2508C36.0094 35.951 35.9142 35.5241 35.9939 35.0488C36.1491 34.0797 36.9382 33.4023 37.9139 33.4023C38.4005 33.4023 38.7959 33.5635 39.0567 33.8681C39.3187 34.1759 39.4223 34.6052 39.3465 35.0785Z" fill="#179BD7"/>
<path d="M18.7638 25.1666L19.2037 22.3769L18.2238 22.3542H13.5449L16.7966 1.76803C16.8065 1.70588 16.8394 1.64793 16.8873 1.60679C16.9353 1.56564 16.9968 1.54297 17.0607 1.54297H24.9501C27.5693 1.54297 29.3767 2.08716 30.3205 3.16126C30.7628 3.66516 31.0447 4.1917 31.181 4.77117C31.3238 5.3792 31.3265 6.10562 31.1868 6.99162L31.1766 7.05629V7.62398L31.6192 7.87426C31.9918 8.0716 32.2877 8.29751 32.5148 8.55617C32.8935 8.98699 33.1383 9.53454 33.2416 10.1837C33.3484 10.8514 33.3131 11.6458 33.1383 12.5452C32.9363 13.5799 32.61 14.481 32.1693 15.2183C31.7638 15.8977 31.2473 16.4611 30.6343 16.898C30.0488 17.3128 29.3532 17.6278 28.5668 17.8294C27.8047 18.0274 26.9359 18.1275 25.983 18.1275H25.369C24.93 18.1275 24.5034 18.2853 24.1688 18.5684C23.8332 18.8573 23.6109 19.2518 23.5429 19.6836L23.4967 19.9348L22.7195 24.8516L22.6841 25.0322C22.6749 25.0895 22.6589 25.118 22.6355 25.1374C22.6144 25.1548 22.5841 25.1666 22.5546 25.1666H18.7638Z" fill="#253B80"/>
<path d="M32.0419 7.12109C32.0184 7.27141 31.9916 7.42509 31.9613 7.58297C30.9207 12.9166 27.3613 14.7591 22.8151 14.7591H20.5004C19.9445 14.7591 19.476 15.1622 19.3894 15.7098L18.2042 23.2143L17.8686 25.3414C17.8122 25.7009 18.0899 26.0251 18.4531 26.0251H22.5587C23.0449 26.0251 23.4577 25.6724 23.5342 25.1937L23.5746 24.9854L24.3477 20.0876L24.3973 19.819C24.4729 19.3387 24.8866 18.986 25.3728 18.986H25.9868C29.9643 18.986 33.0782 17.3735 33.9883 12.7075C34.3684 10.7583 34.1716 9.13075 33.1656 7.98608C32.8613 7.64092 32.4835 7.35455 32.0419 7.12109Z" fill="#179BD7"/>
<path d="M30.949 6.68927C30.7902 6.64308 30.626 6.60109 30.4578 6.5633C30.2888 6.52636 30.1154 6.49361 29.9372 6.46506C29.313 6.36427 28.6293 6.31641 27.8966 6.31641H21.713C21.5607 6.31641 21.4161 6.35083 21.2866 6.41298C21.0014 6.54986 20.7895 6.81946 20.7382 7.14949L19.4225 15.4686L19.3848 15.7113C19.4714 15.1637 19.9399 14.7606 20.4958 14.7606H22.8105C27.3567 14.7606 30.9163 12.9173 31.9567 7.58451C31.9877 7.42662 32.0138 7.27294 32.0373 7.12263C31.7741 6.98321 31.4889 6.86396 31.1819 6.76233C31.1064 6.73714 31.0282 6.7128 30.949 6.68927Z" fill="#222D65"/>
<path d="M20.7424 7.14925C20.7938 6.81919 21.0059 6.54962 21.2908 6.41357C21.4213 6.35141 21.5651 6.31699 21.7172 6.31699H27.9011C28.6338 6.31699 29.3175 6.36485 29.9414 6.46564C30.1199 6.49419 30.2932 6.52694 30.4622 6.56388C30.6305 6.60169 30.7944 6.64368 30.9535 6.68986C31.0324 6.71338 31.1106 6.73772 31.1871 6.76209C31.4941 6.8637 31.7793 6.9838 32.0425 7.12236C32.3522 5.15134 32.0401 3.80934 30.9728 2.59413C29.7962 1.25634 27.6723 0.683594 24.9548 0.683594H17.0652C16.51 0.683594 16.0366 1.08668 15.9507 1.63508L12.6647 22.4328C12.5998 22.8443 12.9177 23.2156 13.3332 23.2156H18.2041L19.427 15.4683L20.7424 7.14925Z" fill="#253B80"/>
</svg>
