<svg width="46" height="20" viewBox="0 0 46 20" fill="none" xmlns="http://www.w3.org/2000/svg">
<path fill-rule="evenodd" clip-rule="evenodd" d="M24.9046 3.25829L21.6973 3.94318V1.3558L24.9046 0.683594V3.25829ZM11.8748 2.15452L8.75692 2.81405L8.74414 12.9733C8.74414 14.8504 10.1625 16.2329 12.0537 16.2329C13.1015 16.2329 13.8682 16.0427 14.2898 15.8144V13.2397C13.8809 13.4046 11.862 13.988 11.862 12.1109V7.60831H14.2898V4.90678H11.862L11.8748 2.15452ZM4.31899 7.44355C3.64176 7.44355 3.23286 7.6338 3.23286 8.12845C3.23286 8.66852 3.93658 8.9061 4.80962 9.20083C6.23289 9.68133 8.10616 10.3137 8.11409 12.6564C8.11409 14.9267 6.28682 16.233 3.62898 16.233C2.53006 16.233 1.32892 16.0174 0.140559 15.5101V12.4915C1.21392 13.0749 2.5684 13.5061 3.62898 13.5061C4.34455 13.5061 4.85567 13.3159 4.85567 12.7325C4.85567 12.1342 4.09283 11.8608 3.17186 11.5307C1.76929 11.0279 0 10.3937 0 8.28065C0 6.03571 1.72504 4.69129 4.31899 4.69129C5.37957 4.69129 6.42738 4.85617 7.48796 5.27471V8.25528C6.51682 7.73527 5.29013 7.44355 4.31899 7.44355ZM41.3871 4.69129C44.4155 4.69129 45.9999 7.2533 45.9999 10.5002C45.9999 10.6756 45.9915 10.9687 45.9843 11.2173V11.2174V11.2176L45.9843 11.2179C45.979 11.4006 45.9744 11.5592 45.9744 11.629H39.7259C39.8665 13.1256 40.9654 13.5569 42.2049 13.5569C43.4699 13.5569 44.4666 13.2905 45.3355 12.8593V15.3959C44.4666 15.8779 43.3166 16.2203 41.796 16.2203C38.6781 16.2203 36.5059 14.2925 36.5059 10.4748C36.5059 7.2533 38.3459 4.69129 41.3871 4.69129ZM41.3742 7.26616C40.5692 7.26616 39.6875 7.86227 39.6875 9.29547H42.9842C42.9842 7.86227 42.1537 7.26616 41.3742 7.26616ZM18.2614 5.84534L18.0569 4.90678H15.2969V16.0046H18.4914V8.48345C19.2453 7.50684 20.5231 7.68441 20.9192 7.82393V4.90678C20.5103 4.75458 19.0153 4.47555 18.2614 5.84534ZM21.6973 4.90674H24.9046V16.0046H21.6973V4.90674ZM31.5794 4.69228C30.3272 4.69228 29.5222 5.27571 29.0749 5.68157L28.9088 4.89521H26.0977V19.6839L29.2922 19.0117L29.305 15.4223C29.765 15.7521 30.4422 16.2214 31.5667 16.2214C33.8539 16.2214 35.9368 14.395 35.9368 10.3744C35.924 6.69623 33.8156 4.69228 31.5794 4.69228ZM30.8136 13.4305C30.0597 13.4305 29.6124 13.1642 29.3057 12.8344L29.293 8.12891C29.6252 7.7611 30.0852 7.50744 30.8136 7.50744C31.9764 7.50744 32.7814 8.80113 32.7814 10.4626C32.7814 12.1622 31.9891 13.4305 30.8136 13.4305Z" fill="#6461FC"/>
</svg>
