<svg width="194" height="209" viewBox="0 0 194 209" fill="none" xmlns="http://www.w3.org/2000/svg">
<g filter="url(#filter0_f_1384_2)">
<path d="M136 204.124C136 207.319 120.644 200.749 98 200.749C75.3563 200.749 58 207.319 58 204.124C58 200.929 73.8563 194 96.5 194C119.144 194 136 200.929 136 204.124Z" fill="url(#paint0_linear_1384_2)"/>
</g>
<path d="M103.856 1.84216L116.819 9.31661C118.904 10.5216 121.265 11.1567 123.676 11.1567H138.642C143.544 11.1567 148.071 13.7785 150.53 18.0124L158.005 30.9746C159.21 33.059 160.937 34.7851 163.021 35.9902L175.984 43.4646C180.235 45.9235 182.84 50.4505 182.84 55.3521V70.3173C182.84 72.7274 183.476 75.0886 184.681 77.1729L192.156 90.1352C194.615 94.3854 194.615 99.6126 192.156 103.863L184.681 116.825C183.476 118.909 182.84 121.271 182.84 123.681V138.646C182.84 143.547 180.218 148.074 175.984 150.533L163.021 158.008C160.937 159.213 159.21 160.939 158.005 163.023L150.53 175.969C148.071 180.219 143.544 182.825 138.642 182.825H123.676C121.265 182.825 118.904 183.46 116.819 184.665L103.856 192.156C99.6057 194.615 94.378 194.615 90.1276 192.156L77.1644 184.681C75.0798 183.476 72.7184 182.841 70.3082 182.841H55.3582C50.4563 182.841 45.9289 180.219 43.4698 175.986L35.9948 163.04C34.7897 160.955 33.0635 159.229 30.9789 158.024L18.0157 150.55C13.7652 148.091 11.1596 143.564 11.1596 138.662V123.697C11.1596 121.287 10.5244 118.926 9.31933 116.841L1.84432 103.879C-0.614774 99.6289 -0.614774 94.4016 1.84432 90.1515L9.31933 77.1892C10.5244 75.1049 11.1596 72.7436 11.1596 70.3336V55.3684C11.1596 50.4668 13.7815 45.9398 18.0157 43.4809L30.9789 36.0064C33.0635 34.8014 34.7897 33.0753 35.9948 30.9909L43.4698 18.0287C45.9289 13.7785 50.4563 11.173 55.3582 11.173H70.3245C72.7347 11.173 75.0961 10.5379 77.1807 9.3329L90.1438 1.85844C94.3781 -0.61676 99.6057 -0.61676 103.856 1.84216Z" fill="url(#paint1_linear_1384_2)"/>
<path d="M103.856 7.13423L115.582 13.9085C117.666 15.1135 120.028 15.7486 122.438 15.7486H135.987C140.889 15.7486 145.417 18.3703 147.876 22.6042L154.65 34.3289C155.856 36.4133 157.582 38.1557 159.666 39.3444L171.392 46.1186C175.642 48.5776 178.248 53.1046 178.248 58.0061V71.5546C178.248 73.9647 178.883 76.3259 180.088 78.4102L186.863 90.1349C189.322 94.3851 189.322 99.6123 186.863 103.862L180.088 115.587C178.883 117.672 178.248 120.033 178.248 122.443V135.991C178.248 140.893 175.626 145.42 171.392 147.879L159.666 154.653C157.582 155.858 155.839 157.584 154.65 159.669L147.876 171.393C145.417 175.643 140.889 178.249 135.987 178.249H122.438C120.028 178.249 117.666 178.884 115.582 180.089L103.856 186.863C99.6057 189.322 94.3781 189.322 90.1276 186.863L78.4021 180.089C76.3175 178.884 73.9561 178.249 71.5459 178.249H57.9964C53.0945 178.249 48.5672 175.627 46.1081 171.393L39.3334 159.669C38.1282 157.584 36.402 155.842 34.3175 154.653L22.592 147.879C18.3415 145.42 15.7358 140.893 15.7358 135.991V122.443C15.7358 120.033 15.1007 117.672 13.8955 115.587L7.12081 103.862C4.66171 99.6123 4.66171 94.3851 7.12081 90.1349L13.8955 78.4102C15.1007 76.3259 15.7358 73.9647 15.7358 71.5546V58.0061C15.7358 53.1046 18.3577 48.5776 22.592 46.1186L34.3175 39.3444C36.402 38.1394 38.1445 36.4133 39.3334 34.3289L46.1081 22.6042C48.5672 18.3541 53.0945 15.7486 57.9964 15.7486H71.5459C73.9561 15.7486 76.3175 15.1135 78.4021 13.9085L90.1276 7.13423C94.3781 4.67531 99.6057 4.67531 103.856 7.13423Z" fill="#2E2E33"/>
<defs>
<filter id="filter0_f_1384_2" x="54" y="190" width="86" height="19" filterUnits="userSpaceOnUse" color-interpolation-filters="sRGB">
<feFlood flood-opacity="0" result="BackgroundImageFix"/>
<feBlend mode="normal" in="SourceGraphic" in2="BackgroundImageFix" result="shape"/>
<feGaussianBlur stdDeviation="2" result="effect1_foregroundBlur_1384_2"/>
</filter>
<linearGradient id="paint0_linear_1384_2" x1="96.5" y1="194" x2="96.5" y2="205.57" gradientUnits="userSpaceOnUse">
<stop stop-color="#46D993" stop-opacity="0.4"/>
<stop offset="1" stop-color="#46D993" stop-opacity="0"/>
</linearGradient>
<linearGradient id="paint1_linear_1384_2" x1="97" y1="0" x2="97" y2="194" gradientUnits="userSpaceOnUse">
<stop stop-color="#46D993" stop-opacity="0.7"/>
<stop offset="1" stop-color="#2C455C"/>
</linearGradient>
</defs>
</svg>
