<svg width="42" height="42" viewBox="0 0 42 42" fill="none" xmlns="http://www.w3.org/2000/svg">
<mask id="mask0_967_41" style="mask-type:alpha" maskUnits="userSpaceOnUse" x="0" y="0" width="42" height="42">
<rect width="42" height="42" fill="#D9D9D9"/>
</mask>
<g mask="url(#mask0_967_41)">
<path d="M26.6248 15.4206C26.302 14.8037 25.7491 14.3406 25.0873 14.1331C24.4255 13.9255 23.7089 13.9904 23.0945 14.3134L12.5547 19.875C12.2505 20.0351 11.9806 20.254 11.7606 20.5192C11.5406 20.7843 11.3747 21.0905 11.2725 21.4201C11.1702 21.7498 11.1336 22.0965 11.1647 22.4404C11.1958 22.7843 11.294 23.1187 11.4537 23.4244L17.2318 34.5028C17.5546 35.1197 18.1075 35.5827 18.7693 35.7903C19.4311 35.9978 20.1477 35.933 20.762 35.61L31.3031 30.0497C31.6073 29.8894 31.8771 29.6704 32.0971 29.4051C32.3171 29.1399 32.483 28.8338 32.5852 28.5041C32.6875 28.1744 32.7241 27.8276 32.693 27.4837C32.662 27.1398 32.5638 26.8054 32.4042 26.4996L26.6248 15.4206ZM30.7113 28.9156L20.1708 34.4759C19.8556 34.6421 19.4876 34.6756 19.1478 34.569C18.808 34.4625 18.5243 34.2245 18.3589 33.9076L12.5802 22.8292C12.4982 22.6723 12.4478 22.5007 12.4319 22.3243C12.416 22.1478 12.4348 21.9699 12.4874 21.8008C12.54 21.6316 12.6252 21.4746 12.7382 21.3386C12.8512 21.2026 12.9898 21.0904 13.146 21.0084L23.6858 15.4475C24.001 15.2814 24.3689 15.248 24.7087 15.3546C25.0484 15.4611 25.3322 15.6989 25.4977 16.0158L31.2764 27.0941C31.3585 27.251 31.409 27.4226 31.425 27.5991C31.441 27.7756 31.4222 27.9536 31.3697 28.1228C31.3172 28.292 31.2321 28.4491 31.1191 28.5852C31.0061 28.7212 30.8675 28.8335 30.7113 28.9156Z" fill="#46D993"/>
<path d="M35.3922 20.6994L41.1391 13.1602C41.6101 12.5394 41.6864 11.7202 41.3428 11.0226C41.179 10.6829 40.9229 10.3968 40.6042 10.1975C40.2854 9.99815 39.917 9.89368 39.5417 9.89619H39.1025V3.2338C39.1025 1.83861 37.9761 0.705811 36.5887 0.705811H31.0072C29.6198 0.705811 28.4933 1.83861 28.4933 3.2338V9.89619H28.0542C27.9842 9.89619 27.9206 9.90258 27.8506 9.90898L26.495 7.30419C25.5976 5.5954 23.4847 4.9298 21.7854 5.8322L20.6653 6.421L19.628 4.4242C19.3188 3.83378 18.7892 3.39092 18.1556 3.19292C17.5219 2.99492 16.836 3.05796 16.2485 3.3682L13.9892 4.5586C12.6846 3.2082 10.7498 2.22261 8.59236 1.84501C4.1883 1.06421 0.1661 2.9778 -0.381224 6.1138C-0.934914 9.24979 2.20266 12.4306 6.60035 13.2114C6.88674 13.2626 7.16677 13.2946 7.44679 13.3202L7.47862 13.3778L6.35851 13.9666C4.65289 14.8626 3.99738 16.9874 4.88837 18.7026L15.383 38.8241C16.2944 40.5739 18.4493 41.1908 20.0925 40.3025L35.5258 32.1681C35.9317 31.9535 36.2915 31.6605 36.5847 31.306C36.8779 30.9514 37.0988 30.5423 37.2347 30.1019C37.3707 29.6615 37.419 29.1985 37.3769 28.7393C37.3349 28.2801 37.2033 27.8338 36.9896 27.4257L33.8839 21.4802C34.4757 21.4482 35.0231 21.173 35.3922 20.6994ZM6.43488 11.3874L6.72127 11.9314C3.0682 11.2466 0.446127 8.75059 0.872531 6.3314C1.29894 3.8994 4.65926 2.44661 8.36961 3.1058C10.1198 3.413 11.6981 4.1554 12.8119 5.1794L7.49134 7.98259C6.22359 8.65459 5.81309 10.2015 6.43488 11.3874ZM35.8631 28.0209C36.1369 28.5447 36.1928 29.1563 36.0186 29.7214C35.8444 30.2866 35.4543 30.7591 34.934 31.0353L19.507 39.1697C18.4251 39.7393 17.0823 39.3169 16.5158 38.2289L6.01484 18.1074C5.44842 17.0194 5.86846 15.669 6.95038 15.0994L8.63054 14.2162C8.77604 14.1384 8.88587 14.0069 8.93691 13.8493C8.98795 13.6918 8.97622 13.5204 8.90421 13.3714C10.3298 13.3266 11.6472 13.0002 12.7355 12.4434C13.132 12.7342 13.6019 12.907 14.0914 12.942C14.5809 12.9771 15.0704 12.8731 15.5039 12.6418C16.792 11.9672 17.2904 10.3583 16.6177 9.05779C16.2908 8.43422 15.7316 7.96627 15.0625 7.75637C14.3933 7.54646 13.6688 7.61169 13.0473 7.93779C12.4423 8.25977 11.9849 8.80506 11.7712 9.45908C11.5576 10.1131 11.6044 10.8249 11.9018 11.445C10.8835 11.9122 9.617 12.149 8.24869 12.0978L7.56135 10.7922C7.25714 10.2059 7.46207 9.44179 8.08322 9.11539L16.8341 4.501C17.4387 4.181 18.1833 4.4178 18.5015 5.0194L19.838 7.57939C19.8764 7.65418 19.9292 7.72054 19.9934 7.77463C20.0575 7.82871 20.1317 7.86944 20.2117 7.89445C20.2916 7.91946 20.3757 7.92825 20.459 7.92031C20.5424 7.91237 20.6233 7.88785 20.6971 7.84819L22.3773 6.96499C22.6342 6.82863 22.9153 6.74463 23.2045 6.71781C23.4938 6.69098 23.7854 6.72187 24.0627 6.80869C24.3401 6.8955 24.5976 7.03655 24.8206 7.22372C25.0436 7.41089 25.2276 7.64051 25.3621 7.89939L26.6859 10.4402C25.9667 11.0866 25.7835 12.2693 26.4504 13.1602L31.7073 20.053L35.8631 28.0209ZM13.0028 10.7858C12.7609 10.1394 13.0219 9.39699 13.6392 9.07059C13.8429 8.96179 14.0592 8.91699 14.2693 8.91699C14.0911 9.64659 13.6456 10.2802 13.0028 10.7858ZM15.4148 9.54419C15.4403 9.57619 15.4657 9.60819 15.4912 9.65299C15.8349 10.332 15.5739 11.1698 14.9121 11.509C14.6129 11.669 14.282 11.701 13.9574 11.6242C14.6448 11.0482 15.1475 10.3442 15.4148 9.54419ZM33.2029 19.9186L27.4623 12.3794C27.09 11.8802 27.4343 11.1762 28.0542 11.1762H29.1298C29.4798 11.1762 29.7662 10.8882 29.7662 10.5362V3.2338C29.7662 2.54261 30.3262 1.98581 31.0072 1.98581H36.5887C37.276 1.98581 37.8297 2.54261 37.8297 3.2338V10.5362C37.8297 10.8882 38.1161 11.1762 38.4661 11.1762H39.5417C39.8281 11.1762 40.0763 11.3298 40.2036 11.5922C40.3308 11.8546 40.3054 12.149 40.1272 12.3794L34.3803 19.9186C34.1002 20.2834 33.4829 20.2834 33.2029 19.9186Z" fill="black"/>
<path d="M23.3784 19.9059C23.2135 19.8697 23.0411 19.9007 22.8989 19.9921C22.7567 20.0835 22.6563 20.2279 22.6198 20.3936L20.7411 28.9951C20.7076 29.1598 20.7398 29.3311 20.8309 29.4721C20.9219 29.613 21.0645 29.7123 21.2277 29.7484C21.391 29.7846 21.5618 29.7547 21.7033 29.6652C21.8448 29.5758 21.9456 29.4339 21.984 29.2703L23.8627 20.6688C23.8991 20.503 23.8685 20.3295 23.7777 20.1864C23.6868 20.0434 23.5432 19.9425 23.3784 19.9059ZM20.4018 22.016C20.1461 21.5212 19.7059 21.1484 19.1775 20.9791C18.6492 20.8099 18.0757 20.858 17.5825 21.1129C17.3382 21.2396 17.1211 21.4134 16.9437 21.6245C16.7663 21.8356 16.632 22.0798 16.5486 22.3431C16.4651 22.6065 16.4341 22.8838 16.4573 23.1592C16.4805 23.4346 16.5575 23.7027 16.6838 23.9481C16.9391 24.4434 17.3792 24.8167 17.9078 24.9861C18.4363 25.1555 19.01 25.1072 19.5032 24.8518C19.7476 24.7252 19.9647 24.5514 20.1422 24.3403C20.3196 24.1292 20.454 23.8851 20.5375 23.6217C20.621 23.3584 20.6521 23.0811 20.6289 22.8056C20.6058 22.5302 20.5288 22.2621 20.4025 22.0166L20.4018 22.016ZM18.919 23.7139C18.5155 23.9251 18.0229 23.7651 17.8154 23.3599C17.7659 23.2639 17.7357 23.159 17.7265 23.0512C17.7173 22.9434 17.7294 22.8349 17.7621 22.7318C17.7947 22.6287 17.8472 22.5331 17.9167 22.4504C17.9861 22.3678 18.0711 22.2998 18.1667 22.2502C18.3602 22.1503 18.5851 22.1315 18.7923 22.1979C18.9994 22.2644 19.172 22.4107 19.2722 22.6048C19.3215 22.7008 19.3515 22.8058 19.3605 22.9135C19.3694 23.0213 19.3572 23.1298 19.3244 23.2328C19.2917 23.3358 19.2391 23.4313 19.1696 23.5138C19.1002 23.5964 19.0146 23.6644 18.919 23.7139ZM24.8676 25.0726C24.3753 25.3293 24.0042 25.7718 23.8358 26.3031C23.6673 26.8344 23.7152 27.4113 23.969 27.9071C24.0949 28.1529 24.2677 28.3712 24.4776 28.5497C24.6875 28.7281 24.9303 28.8632 25.1922 28.9472C25.4541 29.0312 25.7298 29.0625 26.0037 29.0392C26.2776 29.0159 26.5442 28.9385 26.7884 28.8115C27.2809 28.5548 27.6521 28.1122 27.8205 27.5807C27.989 27.0492 27.941 26.4722 27.687 25.9763C27.4319 25.4809 26.9917 25.1075 26.4632 24.9381C25.9346 24.7686 25.3608 24.817 24.8676 25.0726ZM26.2041 27.6742C26.1085 27.724 26.0041 27.7543 25.8969 27.7634C25.7896 27.7725 25.6817 27.7602 25.5791 27.7273C25.4766 27.6943 25.3816 27.6414 25.2994 27.5714C25.2173 27.5015 25.1497 27.4159 25.1006 27.3196C25.0014 27.1255 24.9826 26.8998 25.0485 26.6918C25.1143 26.4839 25.2593 26.3106 25.4519 26.2099C25.645 26.1099 25.8696 26.091 26.0765 26.1572C26.2835 26.2234 26.4559 26.3694 26.5561 26.5631C26.7661 26.9727 26.6044 27.4662 26.2041 27.6742Z" fill="#46D993"/>
</g>
</svg>
