<svg width="42" height="42" viewBox="0 0 42 42" fill="none" xmlns="http://www.w3.org/2000/svg">
<mask id="mask0_967_61" style="mask-type:alpha" maskUnits="userSpaceOnUse" x="0" y="0" width="42" height="42">
<rect width="42" height="42" fill="#D9D9D9"/>
</mask>
<g mask="url(#mask0_967_61)">
<path d="M38.9853 9.69231C38.9853 9.34114 38.6298 9.0602 38.2743 9.0602C26.7566 9.0602 21.1399 0.351171 21.1399 0.280936C21.1399 0.210702 21.0688 0.210702 21.0688 0.210702L20.9977 0.140468C20.9977 0.140468 20.9266 0.140468 20.9266 0.0702342C20.8555 0.0702342 20.8555 0 20.7844 0H20.5C20.4289 0 20.4289 9.94241e-08 20.3578 0.0702342H20.2867C20.2156 0.0702342 20.2156 0.140468 20.1445 0.140468L20.0734 0.210702C19.8601 0.351171 14.2434 9.0602 2.7257 9.0602C2.37021 9.0602 2.01473 9.34114 2.01473 9.69231C2.01473 9.97324 0.806077 36.2408 20.2867 42H20.7133C40.1939 36.311 38.9853 9.97324 38.9853 9.69231ZM3.43667 10.4649C13.2481 10.1839 18.7937 4.14381 20.5 1.89632C22.2774 4.14381 27.7519 10.1839 37.5633 10.4649C37.6344 14.4682 37.0656 35.6087 20.5 40.6655C3.93435 35.6087 3.36558 14.4682 3.43667 10.4649Z" fill="#13141A"/>
<path d="M29.7427 21.7025C29.7427 16.6456 25.619 12.572 20.5 12.572C15.381 12.572 11.2574 16.6456 11.2574 21.7025C11.2574 26.7593 15.381 30.8329 20.5 30.8329C25.619 30.8329 29.7427 26.7593 29.7427 21.7025ZM12.6793 21.7025C12.6793 17.4182 16.1631 13.9767 20.5 13.9767C24.8369 13.9767 28.3207 17.4182 28.3207 21.7025C28.3207 25.9867 24.8369 29.4282 20.5 29.4282C16.1631 29.4282 12.6793 25.9867 12.6793 21.7025Z" fill="#46D993"/>
<path d="M25.1213 19.2441C24.8369 18.9632 24.4104 18.9632 24.126 19.2441L18.9359 24.3712L16.5897 22.0535C16.3053 21.7726 15.8787 21.7726 15.5943 22.0535C15.3099 22.3345 15.3099 22.7559 15.5943 23.0368L18.4382 25.8462C18.5804 25.9866 18.7937 26.0569 18.9359 26.0569C19.0781 26.0569 19.2914 25.9866 19.4336 25.8462L25.1213 20.2274C25.4057 19.9465 25.4057 19.5251 25.1213 19.2441Z" fill="#46D993"/>
</g>
</svg>
