<svg width="42" height="42" viewBox="0 0 42 42" fill="none" xmlns="http://www.w3.org/2000/svg">
<mask id="mask0_967_31" style="mask-type:alpha" maskUnits="userSpaceOnUse" x="0" y="0" width="42" height="42">
<rect width="42" height="42" fill="#D9D9D9"/>
</mask>
<g mask="url(#mask0_967_31)">
<path d="M38.0212 21.4827H31.1812C31.0221 21.4827 30.8695 21.4206 30.7569 21.3099C30.6444 21.1993 30.5812 21.0492 30.5812 20.8928C30.5812 20.7363 30.6444 20.5862 30.7569 20.4756C30.8695 20.3649 31.0221 20.3028 31.1812 20.3028H38.0212C38.7149 20.302 39.38 20.0307 39.8705 19.5483C40.3611 19.066 40.637 18.412 40.6378 17.7299V17.3829C40.637 16.7008 40.3611 16.0468 39.8705 15.5645C39.38 15.0821 38.7149 14.8108 38.0212 14.81H25.7296C25.6358 14.81 25.5433 14.7884 25.4595 14.7468C25.3757 14.7053 25.303 14.645 25.2472 14.5708C25.1914 14.4966 25.1541 14.4106 25.1383 14.3197C25.1225 14.2287 25.1285 14.1354 25.156 14.0472L26.1466 10.8737C26.3053 10.367 26.3862 9.83981 26.3866 9.30962V6.83995C26.386 6.10743 26.2293 5.38318 25.9265 4.71391C25.6236 4.04464 25.1815 3.44521 24.6286 2.95432C23.6479 2.06768 22.3524 1.59503 21.0208 1.63806V4.71188C21.0257 6.0093 20.7672 7.29465 20.2605 8.49261C19.7539 9.69057 19.0091 10.7771 18.07 11.6884C16.1686 13.5416 13.669 16.1947 12.5566 18.3104C12.2155 18.981 11.6928 19.5461 11.0461 19.9434C10.3994 20.3408 9.65374 20.5549 8.89121 20.5624H8.35781C8.19868 20.5624 8.04607 20.5002 7.93355 20.3896C7.82103 20.2789 7.75781 20.1289 7.75781 19.9724C7.75781 19.8159 7.82103 19.6658 7.93355 19.5552C8.04607 19.4446 8.19868 19.3824 8.35781 19.3824H8.89361C9.43595 19.3745 9.96556 19.2197 10.4242 18.9349C10.8827 18.6501 11.2525 18.2464 11.4928 17.7682C12.6772 15.5162 15.265 12.7634 17.2276 10.8507C18.0534 10.049 18.7083 9.09341 19.154 8.03985C19.5997 6.98629 19.8272 5.85589 19.8232 4.71483V1.09528C19.8232 0.950772 19.8772 0.811297 19.9748 0.70331C20.0725 0.595322 20.2071 0.526332 20.353 0.509425L20.5162 0.491135C21.4036 0.402409 22.3 0.497822 23.1475 0.771204C23.995 1.04459 24.7747 1.48985 25.4362 2.07819C26.1138 2.67972 26.6557 3.41429 27.0267 4.23449C27.3977 5.05469 27.5897 5.94227 27.5902 6.83995V9.30785C27.5905 9.95537 27.4922 10.5993 27.2986 11.2182L26.5462 13.6283H38.0212C39.0334 13.6295 40.0037 14.0256 40.7192 14.7295C41.4347 15.4334 41.837 16.3877 41.8378 17.3829V17.7299C41.8367 18.7248 41.4342 19.6788 40.7187 20.3823C40.0032 21.0859 39.0331 21.4816 38.0212 21.4827Z" fill="black"/>
<path d="M36.4679 27.8085H29.9363C29.7772 27.8085 29.6246 27.7463 29.512 27.6357C29.3995 27.5251 29.3363 27.375 29.3363 27.2185C29.3363 27.062 29.3995 26.912 29.512 26.8013C29.6246 26.6907 29.7772 26.6285 29.9363 26.6285H36.4679C37.1619 26.6285 37.8274 26.3575 38.3181 25.8749C38.8088 25.3924 39.0845 24.738 39.0845 24.0556C39.0845 23.3732 38.8088 22.7188 38.3181 22.2363C37.8274 21.7538 37.1619 21.4827 36.4679 21.4827H31.1789C31.0198 21.4827 30.8672 21.4205 30.7546 21.3099C30.6421 21.1993 30.5789 21.0492 30.5789 20.8927C30.5789 20.7362 30.6421 20.5862 30.7546 20.4755C30.8672 20.3649 31.0198 20.3027 31.1789 20.3027H36.4679C37.4801 20.3027 38.4509 20.6981 39.1666 21.4019C39.8824 22.1057 40.2845 23.0603 40.2845 24.0556C40.2845 25.0509 39.8824 26.0055 39.1666 26.7093C38.4509 27.4131 37.4801 27.8085 36.4679 27.8085Z" fill="black"/>
<path d="M35.4581 34.1336H27.4505C27.2913 34.1336 27.1387 34.0715 27.0262 33.9608C26.9137 33.8502 26.8505 33.7001 26.8505 33.5437C26.8505 33.3872 26.9137 33.2371 27.0262 33.1265C27.1387 33.0158 27.2913 32.9537 27.4505 32.9537H35.4581C35.805 32.9588 36.1495 32.8961 36.4715 32.7692C36.7935 32.6422 37.0867 32.4535 37.3338 32.2141C37.581 31.9747 37.7773 31.6894 37.9113 31.3747C38.0453 31.06 38.1143 30.7222 38.1143 30.3811C38.1143 30.0399 38.0453 29.7021 37.9113 29.3875C37.7773 29.0728 37.581 28.7874 37.3338 28.548C37.0867 28.3086 36.7935 28.1199 36.4715 27.993C36.1495 27.866 35.805 27.8033 35.4581 27.8084H29.9381C29.7789 27.8084 29.6263 27.7463 29.5138 27.6356C29.4013 27.525 29.3381 27.3749 29.3381 27.2185C29.3381 27.062 29.4013 26.9119 29.5138 26.8013C29.6263 26.6906 29.7789 26.6285 29.9381 26.6285H35.4581C35.9633 26.6222 36.4647 26.7147 36.9332 26.9005C37.4018 27.0863 37.8282 27.3617 38.1877 27.7108C38.5472 28.0599 38.8326 28.4756 39.0274 28.934C39.2222 29.3924 39.3225 29.8843 39.3225 30.3811C39.3225 30.8779 39.2222 31.3697 39.0274 31.8281C38.8326 32.2865 38.5472 32.7023 38.1877 33.0513C37.8282 33.4004 37.4018 33.6758 36.9332 33.8616C36.4647 34.0474 35.9633 34.1399 35.4581 34.1336Z" fill="black"/>
<path d="M32.8979 40.4589H17.1929C16.0703 40.4617 14.9636 40.1983 13.9665 39.691C12.9695 39.1838 12.1115 38.4476 11.4653 37.545H8.35789C8.19876 37.545 8.04615 37.4828 7.93363 37.3722C7.8211 37.2615 7.75789 37.1115 7.75789 36.955C7.75789 36.7985 7.8211 36.6484 7.93363 36.5378C8.04615 36.4272 8.19876 36.365 8.35789 36.365H11.7875C11.8883 36.365 11.9875 36.39 12.0759 36.4376C12.1643 36.4852 12.2391 36.554 12.2933 36.6376C12.8173 37.4489 13.5416 38.1165 14.3987 38.5784C15.2558 39.0402 16.2179 39.2812 17.1953 39.2789H32.8979C33.5919 39.2789 34.2574 39.0079 34.7481 38.5253C35.2388 38.0428 35.5145 37.3884 35.5145 36.706C35.5145 36.0236 35.2388 35.3692 34.7481 34.8867C34.2574 34.4042 33.5919 34.1331 32.8979 34.1331H27.4505C27.2914 34.1331 27.1387 34.0709 27.0262 33.9603C26.9137 33.8497 26.8505 33.6996 26.8505 33.5431C26.8505 33.3866 26.9137 33.2366 27.0262 33.1259C27.1387 33.0153 27.2914 32.9531 27.4505 32.9531H32.8979C33.3991 32.9531 33.8954 33.0502 34.3584 33.2388C34.8215 33.4274 35.2422 33.7038 35.5966 34.0523C35.951 34.4008 36.2322 34.8145 36.424 35.2698C36.6158 35.7252 36.7145 36.2132 36.7145 36.706C36.7145 37.1989 36.6158 37.6869 36.424 38.1422C36.2322 38.5975 35.951 39.0112 35.5966 39.3597C35.2422 39.7082 34.8215 39.9846 34.3584 40.1732C33.8954 40.3618 33.3991 40.4589 32.8979 40.4589ZM0.437891 30.8304C0.278761 30.8304 0.126148 30.7682 0.0136265 30.6576C-0.0988953 30.5469 -0.162109 30.3969 -0.162109 30.2404V28.5294C-0.162109 28.373 -0.0988953 28.2229 0.0136265 28.1123C0.126148 28.0016 0.278761 27.9395 0.437891 27.9395C0.59702 27.9395 0.749633 28.0016 0.862155 28.1123C0.974676 28.2229 1.03789 28.373 1.03789 28.5294V30.2404C1.03789 30.3969 0.974676 30.5469 0.862155 30.6576C0.749633 30.7682 0.59702 30.8304 0.437891 30.8304Z" fill="black"/>
<path d="M7.58989 40.0815H1.19989C0.838812 40.081 0.492659 39.9397 0.237337 39.6887C-0.0179842 39.4376 -0.161633 39.0973 -0.162109 38.7422V34.3704C-0.162109 34.214 -0.0988953 34.0639 0.0136265 33.9532C0.126148 33.8426 0.278761 33.7804 0.437891 33.7804C0.59702 33.7804 0.749633 33.8426 0.862155 33.9532C0.974676 34.0639 1.03789 34.214 1.03789 34.3704V38.7422C1.03789 38.7844 1.05496 38.825 1.08534 38.8548C1.11572 38.8847 1.15693 38.9015 1.19989 38.9015H7.58989C7.61156 38.9019 7.63309 38.8981 7.65327 38.8903C7.67344 38.8825 7.69185 38.8709 7.70745 38.8561C7.72305 38.8413 7.73553 38.8236 7.74419 38.8041C7.75284 38.7845 7.7575 38.7635 7.75789 38.7422V17.6857C7.7575 17.6644 7.75284 17.6434 7.74419 17.6238C7.73553 17.6043 7.72305 17.5866 7.70745 17.5718C7.69185 17.557 7.67344 17.5454 7.65327 17.5376C7.63309 17.5298 7.61156 17.526 7.58989 17.5264H1.19989C1.17862 17.5264 1.15755 17.5305 1.1379 17.5385C1.11824 17.5465 1.10038 17.5583 1.08534 17.5731C1.0703 17.5879 1.05836 17.6054 1.05022 17.6247C1.04208 17.6441 1.03789 17.6648 1.03789 17.6857V24.3997C1.03789 24.5562 0.974676 24.7062 0.862155 24.8169C0.749633 24.9275 0.59702 24.9897 0.437891 24.9897C0.278761 24.9897 0.126148 24.9275 0.0136265 24.8169C-0.0988953 24.7062 -0.162109 24.5562 -0.162109 24.3997V17.6857C-0.161633 17.3306 -0.0179842 16.9903 0.237337 16.7392C0.492659 16.4882 0.838812 16.3469 1.19989 16.3464H7.58989C7.95177 16.3461 8.299 16.4869 8.55545 16.738C8.81189 16.9891 8.95662 17.3299 8.95789 17.6857V38.7422C8.95662 39.098 8.81189 39.4388 8.55545 39.6899C8.299 39.941 7.95177 40.0818 7.58989 40.0815Z" fill="#46D993"/>
</g>
</svg>
