<svg width="146" height="30" viewBox="0 0 146 30" fill="none" xmlns="http://www.w3.org/2000/svg">
<path d="M46.2158 18.3911V2.31898H53.1368C54.3494 2.31898 55.4596 2.51796 56.4674 2.91594C57.4752 3.29861 58.3413 3.84965 59.0657 4.56907C59.8059 5.28849 60.3728 6.13802 60.7665 7.11765C61.1601 8.09728 61.357 9.17641 61.357 10.355C61.357 11.5337 61.1601 12.6204 60.7665 13.6154C60.3728 14.595 59.8059 15.4445 59.0657 16.164C58.3413 16.8681 57.4752 17.4191 56.4674 17.8171C55.4596 18.1998 54.3494 18.3911 53.1368 18.3911H46.2158ZM50.2314 15.7277L49.6881 14.9471H53.0187C53.6801 14.9471 54.2706 14.8399 54.7903 14.6256C55.31 14.396 55.7509 14.0822 56.1131 13.6843C56.491 13.2863 56.7824 12.8041 56.9871 12.2378C57.1918 11.6714 57.2941 11.0438 57.2941 10.355C57.2941 9.66623 57.1918 9.03865 56.9871 8.4723C56.7824 7.90595 56.491 7.42379 56.1131 7.02581C55.7509 6.62783 55.31 6.3217 54.7903 6.1074C54.2706 5.8778 53.6801 5.763 53.0187 5.763H49.6173L50.2314 5.02828V15.7277Z" fill="white"/>
<path d="M64.0607 18.3911V6.19924H67.6511L67.8164 10.1714L67.1078 9.41366C67.2968 8.75547 67.6039 8.16616 68.029 7.64573C68.47 7.1253 68.9818 6.71202 69.5644 6.40588C70.1471 6.09975 70.7691 5.94668 71.4305 5.94668C71.7139 5.94668 71.9738 5.96964 72.21 6.01556C72.4619 6.06148 72.6903 6.11506 72.895 6.17628L71.8557 10.2402C71.6824 10.1331 71.4462 10.0489 71.147 9.98767C70.8636 9.91113 70.5644 9.87287 70.2494 9.87287C69.903 9.87287 69.5802 9.9341 69.281 10.0566C68.9818 10.1637 68.7298 10.3244 68.5251 10.5387C68.3204 10.753 68.155 11.0056 68.029 11.2964C67.9188 11.5872 67.8637 11.9163 67.8637 12.2837V18.3911H64.0607Z" fill="white"/>
<path d="M75.0227 18.3911V6.19924H78.8021V18.3911H75.0227ZM76.9124 3.78843C76.2038 3.78843 75.6448 3.62771 75.2353 3.30626C74.8416 2.96951 74.6448 2.495 74.6448 1.88273C74.6448 1.33169 74.8495 0.880139 75.259 0.528084C75.6684 0.176028 76.2195 0 76.9124 0C77.6211 0 78.1722 0.168375 78.5659 0.505124C78.9596 0.826566 79.1564 1.28577 79.1564 1.88273C79.1564 2.44908 78.9517 2.90829 78.5423 3.26034C78.1486 3.6124 77.6053 3.78843 76.9124 3.78843Z" fill="white"/>
<path d="M86.2035 18.3911L80.9596 6.19924H85.1405L88.2585 15.3144L87.3373 15.4063L90.5498 6.19924H94.6835L89.1797 18.3911H86.2035Z" fill="white"/>
<path d="M101.813 18.6207C100.6 18.6207 99.5137 18.3452 98.5531 17.7941C97.5925 17.2431 96.8288 16.493 96.2618 15.544C95.7107 14.5797 95.4351 13.4929 95.4351 12.2837C95.4351 11.0745 95.7107 9.99532 96.2618 9.0463C96.8288 8.08198 97.5925 7.32429 98.5531 6.77325C99.5137 6.2222 100.6 5.94668 101.813 5.94668C102.931 5.94668 103.954 6.13802 104.884 6.52069C105.828 6.90335 106.576 7.43909 107.128 8.1279L105.073 10.5158C104.852 10.2708 104.592 10.0412 104.293 9.82695C103.994 9.61265 103.663 9.44428 103.301 9.32182C102.939 9.19937 102.561 9.13814 102.167 9.13814C101.569 9.13814 101.041 9.2759 100.585 9.55143C100.128 9.81164 99.7735 10.179 99.5216 10.6535C99.2696 11.128 99.1436 11.6714 99.1436 12.2837C99.1436 12.8653 99.2696 13.3934 99.5216 13.8679C99.7893 14.3424 100.151 14.7175 100.608 14.993C101.065 15.2685 101.584 15.4063 102.167 15.4063C102.577 15.4063 102.955 15.3603 103.301 15.2685C103.647 15.1614 103.962 15.0083 104.246 14.8093C104.545 14.6103 104.821 14.3654 105.073 14.0746L107.104 16.4854C106.569 17.1436 105.821 17.664 104.86 18.0467C103.915 18.4294 102.899 18.6207 101.813 18.6207Z" fill="white"/>
<path d="M115.086 18.6207C113.779 18.6207 112.614 18.3452 111.59 17.7941C110.582 17.2431 109.779 16.493 109.181 15.544C108.598 14.595 108.307 13.5082 108.307 12.2837C108.307 11.0591 108.598 9.97236 109.181 9.02334C109.779 8.07432 110.582 7.32429 111.59 6.77325C112.614 6.2222 113.779 5.94668 115.086 5.94668C116.393 5.94668 117.551 6.2222 118.558 6.77325C119.582 7.32429 120.385 8.07432 120.968 9.02334C121.55 9.97236 121.842 11.0591 121.842 12.2837C121.842 13.5082 121.55 14.595 120.968 15.544C120.385 16.493 119.582 17.2431 118.558 17.7941C117.551 18.3452 116.393 18.6207 115.086 18.6207ZM115.086 15.4522C115.653 15.4522 116.157 15.3144 116.598 15.0389C117.039 14.7634 117.385 14.3884 117.637 13.9139C117.889 13.4393 118.007 12.896 117.991 12.2837C118.007 11.6714 117.889 11.128 117.637 10.6535C117.385 10.1637 117.039 9.78103 116.598 9.50551C116.157 9.22998 115.653 9.09222 115.086 9.09222C114.519 9.09222 114.007 9.22998 113.551 9.50551C113.11 9.78103 112.763 10.1637 112.511 10.6535C112.259 11.128 112.141 11.6714 112.157 12.2837C112.141 12.896 112.259 13.4393 112.511 13.9139C112.763 14.3884 113.11 14.7634 113.551 15.0389C114.007 15.3144 114.519 15.4522 115.086 15.4522Z" fill="white"/>
<path d="M48.9016 29.8334C48.7133 29.8334 48.5696 29.7871 48.4705 29.6946C48.3714 29.602 48.3045 29.484 48.2698 29.3405C48.2351 29.197 48.2128 29.0489 48.2029 28.8961C48.2029 28.8082 48.2079 28.7041 48.2178 28.5837C48.2277 28.4634 48.2401 28.3477 48.255 28.2366C48.2748 28.1209 48.2896 28.0352 48.2996 27.9797H46.5975C46.2804 28.2898 45.9782 28.593 45.6908 28.8892C45.4083 29.1808 45.1309 29.477 44.8583 29.7779H44.1151C44.2439 29.6668 44.4124 29.5187 44.6205 29.3335C44.8336 29.1438 45.0739 28.9285 45.3414 28.6879C45.609 28.4472 45.8865 28.1926 46.1739 27.9241C46.4662 27.6511 46.7586 27.378 47.0509 27.1049C47.3432 26.8272 47.6182 26.561 47.8759 26.3065C48.1385 26.0473 48.3714 25.8135 48.5746 25.6052C48.6737 25.5034 48.7653 25.4016 48.8496 25.2997C48.9388 25.1933 49.0378 25.1054 49.1469 25.0359C49.2559 24.9665 49.3897 24.9318 49.5482 24.9318H50.0833C49.9991 25.0058 49.9149 25.1308 49.8306 25.3067C49.7464 25.4826 49.6696 25.6723 49.6002 25.876C49.5358 26.0797 49.4813 26.2648 49.4367 26.4314C49.3723 26.6814 49.3054 26.9521 49.236 27.2437C49.1716 27.5353 49.1196 27.8246 49.08 28.1116C49.0403 28.3986 49.0279 28.6647 49.0428 28.91C49.0478 28.998 49.0651 29.0905 49.0948 29.1877C49.1295 29.2803 49.1766 29.3613 49.236 29.4307C49.3005 29.4955 49.3797 29.5279 49.4739 29.5279C49.5581 29.5279 49.6498 29.4979 49.7489 29.4377L49.7935 29.5002C49.7291 29.5927 49.6052 29.6714 49.4219 29.7362C49.2435 29.801 49.0701 29.8334 48.9016 29.8334ZM45.9286 26.3134C45.8493 26.2347 45.7899 26.1537 45.7502 26.0704C45.7155 25.9871 45.6982 25.9084 45.6982 25.8343C45.6982 25.7418 45.718 25.6538 45.7577 25.5705C45.8023 25.4826 45.8543 25.4085 45.9137 25.3483C46.0327 25.2234 46.1813 25.1308 46.3597 25.0706C46.5381 25.0105 46.7264 24.9734 46.9246 24.9596C47.1277 24.941 47.321 24.9318 47.5043 24.9318H49.1692C49.0651 25.029 48.9065 25.1054 48.6935 25.1609C48.4854 25.2118 48.2574 25.2511 48.0097 25.2789C47.7619 25.3021 47.5216 25.3252 47.2887 25.3483C47.0608 25.3669 46.8725 25.3923 46.7239 25.4247C46.4613 25.4803 46.2606 25.5867 46.1218 25.7441C45.9881 25.9015 45.9236 26.0912 45.9286 26.3134ZM46.9246 27.6325H48.3516C48.411 27.3271 48.4804 27.0216 48.5597 26.7161C48.6439 26.4106 48.7183 26.1421 48.7827 25.9107C48.4804 26.1792 48.1707 26.4592 47.8536 26.7508C47.5414 27.0378 47.2318 27.3317 46.9246 27.6325Z" fill="white"/>
<path d="M53.8219 29.8334C53.6385 29.8334 53.5122 29.7848 53.4428 29.6876C53.3784 29.5858 53.3462 29.4631 53.3462 29.3197C53.3462 29.2456 53.3512 29.1692 53.3611 29.0905C53.3759 29.0072 53.3933 28.9239 53.4131 28.8406C53.428 28.7665 53.4577 28.667 53.5023 28.5421C53.5518 28.4125 53.6063 28.2736 53.6658 28.1255C53.7302 27.9774 53.7946 27.8339 53.859 27.695C53.9235 27.5515 53.9804 27.4289 54.03 27.3271C53.9507 27.4428 53.8491 27.5839 53.7253 27.7506C53.6063 27.9126 53.4775 28.0815 53.3388 28.2574C53.205 28.4333 53.0737 28.5999 52.9448 28.7573C52.821 28.91 52.712 29.035 52.6178 29.1322C52.3899 29.3636 52.157 29.5372 51.9192 29.6529C51.6813 29.7686 51.4633 29.8265 51.2651 29.8265C50.9975 29.8265 50.7894 29.7686 50.6408 29.6529C50.4921 29.5372 50.4178 29.3382 50.4178 29.0558C50.4178 28.9216 50.4352 28.7665 50.4698 28.5907C50.5045 28.4101 50.5615 28.2065 50.6408 27.9797C50.7349 27.7066 50.8514 27.4196 50.9901 27.1188C51.1288 26.8133 51.275 26.5147 51.4286 26.2231C51.5872 25.9269 51.7408 25.6538 51.8894 25.4039C51.8993 25.3854 51.9192 25.3507 51.9489 25.2997C51.9836 25.2488 52.0108 25.2118 52.0307 25.1887C51.8374 25.1933 51.6293 25.2164 51.4063 25.2581C51.1883 25.2951 50.9777 25.3483 50.7746 25.4178C50.5764 25.4872 50.4054 25.5682 50.2617 25.6608C50.123 25.7533 50.0338 25.8552 49.9942 25.9663C49.9892 25.9801 49.9793 25.9871 49.9644 25.9871C49.9198 25.9871 49.8975 25.9547 49.8975 25.8899C49.8975 25.876 49.9025 25.8552 49.9124 25.8274C49.962 25.7071 50.0189 25.6006 50.0833 25.508C50.1478 25.4155 50.2147 25.3368 50.284 25.272C50.4475 25.1146 50.6309 25.0197 50.834 24.9873C51.0372 24.9503 51.2527 24.9318 51.4807 24.9318H53.1678C53.0638 25.0058 52.9498 25.1262 52.8259 25.2928C52.7021 25.4594 52.5732 25.6492 52.4394 25.8621C52.3106 26.075 52.1867 26.2949 52.0678 26.5217C51.9489 26.7439 51.8424 26.9521 51.7482 27.1465C51.659 27.3363 51.5872 27.4914 51.5327 27.6117C51.5029 27.6811 51.4534 27.7922 51.384 27.945C51.3196 28.0977 51.2602 28.2667 51.2057 28.4518C51.1511 28.6323 51.1239 28.7989 51.1239 28.9517C51.1239 29.0813 51.1536 29.1877 51.2131 29.2711C51.2725 29.3544 51.3741 29.3937 51.5178 29.3891C51.6714 29.3845 51.8473 29.315 52.0455 29.1808C52.2437 29.0466 52.4518 28.8684 52.6698 28.6462C52.8879 28.424 53.1059 28.181 53.3239 27.9172C53.5419 27.6487 53.7476 27.3803 53.9408 27.1118C54.139 26.8387 54.3149 26.5865 54.4685 26.3551C54.6221 26.119 54.741 25.9246 54.8253 25.7719C54.9987 25.4756 55.1548 25.2627 55.2935 25.1331C55.4372 24.9989 55.5958 24.9318 55.7692 24.9318H56.23C56.1259 25.0058 56.012 25.1308 55.8881 25.3067C55.7642 25.4826 55.6428 25.6723 55.5239 25.876C55.405 26.0797 55.3009 26.2648 55.2117 26.4314C55.0829 26.6814 54.9516 26.9521 54.8178 27.2437C54.684 27.5353 54.5651 27.8246 54.4611 28.1116C54.357 28.3986 54.2802 28.6647 54.2307 28.91C54.2158 28.9841 54.2084 29.0628 54.2084 29.1461C54.2084 29.2479 54.2257 29.3382 54.2604 29.4169C54.3 29.4909 54.3694 29.5279 54.4685 29.5279C54.5527 29.5279 54.6518 29.4979 54.7658 29.4377H54.7732C54.7831 29.4377 54.7906 29.4469 54.7955 29.4655C54.8005 29.4793 54.798 29.4909 54.7881 29.5002C54.694 29.5927 54.5527 29.6714 54.3644 29.7362C54.1762 29.801 53.9953 29.8334 53.8219 29.8334Z" fill="white"/>
<path d="M57.6785 29.9306C57.5149 29.9306 57.4059 29.8774 57.3514 29.7709C57.2969 29.6599 57.2697 29.5372 57.2697 29.403C57.2697 29.3104 57.2771 29.2201 57.292 29.1322C57.3068 29.0396 57.3217 28.9633 57.3366 28.9031C57.3762 28.7272 57.4406 28.5189 57.5298 28.2782C57.619 28.0329 57.7206 27.776 57.8345 27.5076C57.9535 27.2345 58.0773 26.966 58.2062 26.7022C58.335 26.4337 58.4589 26.1838 58.5778 25.9524C58.7017 25.7163 58.8107 25.515 58.9048 25.3483C58.7908 25.353 58.6595 25.353 58.5109 25.3483C58.3622 25.3391 58.2086 25.3345 58.0501 25.3345C57.7776 25.3345 57.5075 25.3553 57.2399 25.3969C56.9773 25.434 56.7618 25.5242 56.5933 25.6677C56.514 25.7371 56.4571 25.8112 56.4224 25.8899C56.3877 25.9686 56.3703 26.0473 56.3703 26.1259C56.3703 26.2139 56.3852 26.2995 56.4149 26.3828C56.4199 26.3921 56.4224 26.4037 56.4224 26.4175C56.4224 26.4638 56.3976 26.487 56.348 26.487C56.3183 26.487 56.296 26.4754 56.2812 26.4523C56.2316 26.3782 56.1944 26.3041 56.1697 26.2301C56.1498 26.1514 56.1399 26.075 56.1399 26.001C56.1399 25.8714 56.1647 25.7487 56.2143 25.633C56.2638 25.5173 56.3233 25.4224 56.3926 25.3483C56.5661 25.1586 56.8014 25.0336 57.0987 24.9734C57.396 24.9086 57.7057 24.8762 58.0278 24.8762C58.2755 24.8762 58.5158 24.8855 58.7487 24.904C58.9866 24.9225 59.1972 24.9364 59.3805 24.9457C59.5539 24.9549 59.7695 24.9711 60.0271 24.9943C60.2848 25.0128 60.535 25.022 60.7778 25.022C60.9958 25.022 61.1915 25.0082 61.365 24.9804C61.5384 24.9526 61.6647 24.9017 61.744 24.8276C61.7589 24.8554 61.7663 24.8878 61.7663 24.9248C61.7663 25.022 61.7068 25.1169 61.5879 25.2095C61.469 25.3021 61.308 25.3645 61.1048 25.3969C61.0404 25.4062 60.9661 25.4131 60.8818 25.4178C60.8026 25.4224 60.7183 25.4247 60.6291 25.4247C60.4805 25.4247 60.3318 25.4224 60.1832 25.4178C60.0345 25.4085 59.9032 25.3993 59.7893 25.39C59.6753 25.3807 59.5985 25.3784 59.5589 25.3831C59.5291 25.4247 59.4821 25.5011 59.4177 25.6122C59.3582 25.7233 59.2938 25.8436 59.2244 25.9732C59.155 26.1028 59.0931 26.2208 59.0386 26.3273C58.9445 26.5124 58.8454 26.7207 58.7413 26.9521C58.6372 27.1836 58.5381 27.4173 58.444 27.6534C58.3499 27.8894 58.2681 28.1139 58.1987 28.3268C58.1343 28.5397 58.0922 28.7226 58.0724 28.8753C58.0674 28.8892 58.0649 28.9054 58.0649 28.9239C58.0649 28.9378 58.0649 28.9517 58.0649 28.9656C58.0649 29.0535 58.0823 29.1299 58.117 29.1947C58.1566 29.2549 58.2161 29.2849 58.2953 29.2849C58.3647 29.2849 58.449 29.2502 58.5481 29.1808C58.6472 29.1114 58.7611 28.9957 58.8899 28.8337C58.9147 28.8059 58.937 28.792 58.9568 28.792C58.9866 28.792 59.0014 28.8151 59.0014 28.8614C59.0014 28.8938 58.989 28.9378 58.9643 28.9933C58.9445 29.0489 58.9073 29.1137 58.8528 29.1877C58.8082 29.2479 58.7363 29.3289 58.6372 29.4307C58.5381 29.5279 58.4415 29.6113 58.3474 29.6807C58.2631 29.7455 58.1591 29.8033 58.0352 29.8543C57.9113 29.9052 57.7924 29.9306 57.6785 29.9306Z" fill="white"/>
<path d="M62.3872 30.0001C62.0205 30.0001 61.6984 29.9491 61.4209 29.8473C61.1435 29.7501 60.9279 29.5904 60.7743 29.3683C60.6207 29.1461 60.5439 28.8499 60.5439 28.4796C60.5439 28.1093 60.6083 27.7483 60.7371 27.3965C60.8709 27.0401 61.0543 26.7091 61.2871 26.4037C61.52 26.0982 61.7926 25.8297 62.1047 25.5983C62.4218 25.3669 62.7637 25.1864 63.1304 25.0568C63.4971 24.9272 63.8786 24.8624 64.275 24.8624C64.716 24.8624 65.0752 24.9318 65.3527 25.0706C65.6302 25.2095 65.8333 25.3993 65.9622 25.6399C66.0959 25.876 66.1628 26.1421 66.1628 26.4384C66.1628 26.8318 66.0613 27.2437 65.8581 27.6742C65.65 28.1139 65.3775 28.5097 65.0405 28.8614C64.7036 29.2132 64.3097 29.4909 63.8588 29.6946C63.4128 29.8982 62.9223 30.0001 62.3872 30.0001ZM63.0635 29.6321C63.3558 29.558 63.6432 29.4215 63.9257 29.2225C64.2081 29.0234 64.4633 28.7851 64.6912 28.5073C64.9191 28.2296 65.1 27.938 65.2338 27.6325C65.4419 27.1651 65.5459 26.7253 65.5459 26.3134C65.5459 26.2486 65.541 26.1861 65.5311 26.1259C65.5261 26.0658 65.5187 26.0079 65.5088 25.9524C65.4543 25.67 65.3279 25.471 65.1297 25.3553C64.9315 25.2396 64.7086 25.1817 64.4608 25.1817C64.2031 25.1817 63.9405 25.2303 63.673 25.3275C63.4054 25.4201 63.175 25.5358 62.9817 25.6747C62.7439 25.8505 62.5234 26.0519 62.3203 26.2787C62.1171 26.5055 61.9462 26.7462 61.8074 27.0007C61.6885 27.2229 61.5919 27.4659 61.5176 27.7297C61.4482 27.9889 61.4135 28.2412 61.4135 28.4865C61.4135 28.7087 61.4482 28.9123 61.5176 29.0975C61.5869 29.2826 61.7009 29.4331 61.8594 29.5488C62.018 29.6599 62.2286 29.7154 62.4912 29.7154C62.6597 29.7154 62.8504 29.6876 63.0635 29.6321Z" fill="white"/>
<path d="M71.3376 29.8334C71.1444 29.8334 71.0131 29.7871 70.9437 29.6946C70.8743 29.5974 70.8397 29.477 70.8397 29.3335C70.8397 29.2039 70.8595 29.0581 70.8991 28.8961C70.9437 28.6971 71.023 28.4611 71.137 28.188C71.2559 27.9149 71.3872 27.6302 71.5309 27.334C71.6795 27.0331 71.8257 26.7462 71.9694 26.4731C72.118 26.2 72.2469 25.9663 72.3559 25.7719C72.2915 25.8274 72.2246 25.8853 72.1552 25.9454C72.0908 26.0056 72.0239 26.0727 71.9545 26.1468C71.6671 26.4476 71.4045 26.7346 71.1667 27.0077C70.9338 27.2761 70.7084 27.5423 70.4903 27.8061C70.2773 28.0653 70.0568 28.3315 69.8288 28.6045C69.705 28.7573 69.6059 28.873 69.5315 28.9517C69.4622 29.0257 69.3978 29.0767 69.3383 29.1044C69.2838 29.1276 69.2144 29.1391 69.1302 29.1391C69.0063 29.1391 68.8651 29.1044 68.7065 29.035C68.7759 28.9563 68.823 28.7874 68.8478 28.5282C68.8775 28.269 68.8924 27.9727 68.8924 27.6395C68.8924 27.3016 68.88 26.9521 68.8552 26.5911C68.8304 26.2301 68.7933 25.9107 68.7437 25.633C68.714 25.6793 68.6595 25.7811 68.5802 25.9385C68.5059 26.0959 68.4142 26.2903 68.3052 26.5217C68.2011 26.7485 68.0896 26.9961 67.9707 27.2646C67.8518 27.5284 67.7354 27.7945 67.6214 28.063C67.5124 28.3268 67.4133 28.5768 67.3241 28.8128C67.2399 29.0489 67.1755 29.2525 67.1309 29.4238C67.0863 29.5951 67.0714 29.7131 67.0863 29.7779H66.4025C66.5115 29.5187 66.6354 29.2317 66.7741 28.917C66.9178 28.5976 67.0664 28.2713 67.2201 27.938C67.3737 27.6048 67.5248 27.2808 67.6734 26.966C67.827 26.6513 67.9658 26.3643 68.0897 26.1051C68.2185 25.8413 68.325 25.6237 68.4092 25.4525C68.4935 25.2812 68.548 25.1748 68.5728 25.1331C68.3547 25.1285 68.1318 25.1493 67.9038 25.1956C67.6759 25.2373 67.4628 25.2974 67.2646 25.3761C67.0664 25.4548 66.898 25.5451 66.7592 25.6469C66.6255 25.7487 66.5387 25.8552 66.4991 25.9663C66.4941 25.9801 66.4842 25.9871 66.4694 25.9871C66.4297 25.9871 66.4099 25.957 66.4099 25.8968C66.4099 25.8876 66.4099 25.8783 66.4099 25.8691C66.4149 25.8552 66.4198 25.8413 66.4248 25.8274C66.4694 25.7071 66.5239 25.6006 66.5883 25.508C66.6577 25.4155 66.7246 25.3368 66.789 25.272C66.9525 25.1146 67.1358 25.0197 67.339 24.9873C67.5421 24.9503 67.7577 24.9318 67.9856 24.9318H68.7065C68.8156 24.9318 68.9221 24.9318 69.0261 24.9318C69.1302 24.9318 69.2219 24.9572 69.3011 25.0082C69.3804 25.0544 69.4324 25.147 69.4572 25.2859C69.477 25.3831 69.4944 25.5312 69.5092 25.7302C69.5291 25.9246 69.5439 26.1421 69.5538 26.3828C69.5687 26.6235 69.5811 26.8619 69.591 27.0979C69.6009 27.334 69.6084 27.5377 69.6133 27.7089C69.6133 27.7182 69.6133 27.7459 69.6133 27.7922C69.6183 27.8339 69.6207 27.8871 69.6207 27.9519C69.6207 28.0121 69.6183 28.0815 69.6133 28.1602C69.6133 28.2343 69.6083 28.306 69.5984 28.3754C69.7025 28.2551 69.8313 28.107 69.9849 27.9311C70.1435 27.7506 70.3144 27.5562 70.4978 27.3479C70.6811 27.135 70.8669 26.9221 71.0552 26.7091C71.2435 26.4962 71.4243 26.2926 71.5978 26.0982C71.7712 25.9038 71.9223 25.7348 72.0512 25.5913C72.1849 25.4432 72.284 25.3321 72.3485 25.2581C72.4624 25.1378 72.6061 25.0544 72.7795 25.0082C72.953 24.9572 73.1264 24.9318 73.2998 24.9318H73.7606C73.6566 25.0058 73.5426 25.1308 73.4187 25.3067C73.2949 25.4826 73.1735 25.6723 73.0545 25.876C72.9406 26.0797 72.839 26.2648 72.7498 26.4314C72.621 26.6814 72.4897 26.9521 72.3559 27.2437C72.2221 27.5353 72.1032 27.8246 71.9991 28.1116C71.8951 28.3986 71.8183 28.6647 71.7687 28.91C71.7539 28.9841 71.7464 29.0628 71.7464 29.1461C71.7464 29.2479 71.7638 29.3382 71.7984 29.4169C71.8381 29.4909 71.9075 29.5279 72.0066 29.5279C72.0858 29.5279 72.1825 29.4979 72.2964 29.4377H72.3039C72.3138 29.4377 72.3212 29.4469 72.3262 29.4655C72.3311 29.4793 72.3286 29.4909 72.3187 29.5002C72.2246 29.5927 72.0809 29.6714 71.8876 29.7362C71.6944 29.801 71.5111 29.8334 71.3376 29.8334Z" fill="white"/>
<path d="M74.973 30.0001C74.6063 30.0001 74.2842 29.9491 74.0068 29.8473C73.7293 29.7501 73.5137 29.5904 73.3601 29.3683C73.2065 29.1461 73.1297 28.8499 73.1297 28.4796C73.1297 28.1093 73.1941 27.7483 73.323 27.3965C73.4568 27.0401 73.6401 26.7091 73.873 26.4037C74.1059 26.0982 74.3784 25.8297 74.6905 25.5983C75.0077 25.3669 75.3496 25.1864 75.7162 25.0568C76.0829 24.9272 76.4644 24.8624 76.8608 24.8624C77.3018 24.8624 77.6611 24.9318 77.9385 25.0706C78.216 25.2095 78.4192 25.3993 78.548 25.6399C78.6818 25.876 78.7487 26.1421 78.7487 26.4384C78.7487 26.8318 78.6471 27.2437 78.4439 27.6742C78.2358 28.1139 77.9633 28.5097 77.6264 28.8614C77.2894 29.2132 76.8955 29.4909 76.4446 29.6946C75.9987 29.8982 75.5081 30.0001 74.973 30.0001ZM75.6493 29.6321C75.9417 29.558 76.2291 29.4215 76.5115 29.2225C76.7939 29.0234 77.0491 28.7851 77.277 28.5073C77.505 28.2296 77.6858 27.938 77.8196 27.6325C78.0277 27.1651 78.1318 26.7253 78.1318 26.3134C78.1318 26.2486 78.1268 26.1861 78.1169 26.1259C78.112 26.0658 78.1045 26.0079 78.0946 25.9524C78.0401 25.67 77.9138 25.471 77.7156 25.3553C77.5174 25.2396 77.2944 25.1817 77.0466 25.1817C76.789 25.1817 76.5264 25.2303 76.2588 25.3275C75.9912 25.4201 75.7608 25.5358 75.5676 25.6747C75.3297 25.8505 75.1092 26.0519 74.9061 26.2787C74.7029 26.5055 74.532 26.7462 74.3932 27.0007C74.2743 27.2229 74.1777 27.4659 74.1034 27.7297C74.034 27.9889 73.9993 28.2412 73.9993 28.4865C73.9993 28.7087 74.034 28.9123 74.1034 29.0975C74.1728 29.2826 74.2867 29.4331 74.4453 29.5488C74.6038 29.6599 74.8144 29.7154 75.077 29.7154C75.2455 29.7154 75.4363 29.6876 75.6493 29.6321Z" fill="white"/>
<path d="M80.6146 29.9306C80.4511 29.9306 80.342 29.8774 80.2875 29.7709C80.233 29.6599 80.2058 29.5372 80.2058 29.403C80.2058 29.3104 80.2132 29.2201 80.2281 29.1322C80.2429 29.0396 80.2578 28.9633 80.2727 28.9031C80.3123 28.7272 80.3767 28.5189 80.4659 28.2782C80.5551 28.0329 80.6567 27.776 80.7706 27.5076C80.8896 27.2345 81.0134 26.966 81.1423 26.7022C81.2711 26.4337 81.395 26.1838 81.5139 25.9524C81.6378 25.7163 81.7468 25.515 81.8409 25.3483C81.727 25.353 81.5957 25.353 81.447 25.3483C81.2984 25.3391 81.1447 25.3345 80.9862 25.3345C80.7137 25.3345 80.4436 25.3553 80.1761 25.3969C79.9134 25.434 79.6979 25.5242 79.5294 25.6677C79.4501 25.7371 79.3932 25.8112 79.3585 25.8899C79.3238 25.9686 79.3065 26.0473 79.3065 26.1259C79.3065 26.2139 79.3213 26.2995 79.3511 26.3828C79.356 26.3921 79.3585 26.4037 79.3585 26.4175C79.3585 26.4638 79.3337 26.487 79.2842 26.487C79.2544 26.487 79.2321 26.4754 79.2173 26.4523C79.1677 26.3782 79.1306 26.3041 79.1058 26.2301C79.086 26.1514 79.076 26.075 79.076 26.001C79.076 25.8714 79.1008 25.7487 79.1504 25.633C79.1999 25.5173 79.2594 25.4224 79.3288 25.3483C79.5022 25.1586 79.7375 25.0336 80.0348 24.9734C80.3321 24.9086 80.6418 24.8762 80.9639 24.8762C81.2116 24.8762 81.452 24.8855 81.6848 24.904C81.9227 24.9225 82.1333 24.9364 82.3166 24.9457C82.49 24.9549 82.7056 24.9711 82.9632 24.9943C83.2209 25.0128 83.4711 25.022 83.7139 25.022C83.9319 25.022 84.1276 25.0082 84.3011 24.9804C84.4745 24.9526 84.6008 24.9017 84.6801 24.8276C84.695 24.8554 84.7024 24.8878 84.7024 24.9248C84.7024 25.022 84.643 25.1169 84.524 25.2095C84.4051 25.3021 84.2441 25.3645 84.0409 25.3969C83.9765 25.4062 83.9022 25.4131 83.818 25.4178C83.7387 25.4224 83.6544 25.4247 83.5653 25.4247C83.4166 25.4247 83.268 25.4224 83.1193 25.4178C82.9707 25.4085 82.8394 25.3993 82.7254 25.39C82.6114 25.3807 82.5346 25.3784 82.495 25.3831C82.4653 25.4247 82.4182 25.5011 82.3538 25.6122C82.2943 25.7233 82.2299 25.8436 82.1605 25.9732C82.0911 26.1028 82.0292 26.2208 81.9747 26.3273C81.8806 26.5124 81.7815 26.7207 81.6774 26.9521C81.5734 27.1836 81.4743 27.4173 81.3801 27.6534C81.286 27.8894 81.2042 28.1139 81.1348 28.3268C81.0704 28.5397 81.0283 28.7226 81.0085 28.8753C81.0035 28.8892 81.0011 28.9054 81.0011 28.9239C81.0011 28.9378 81.0011 28.9517 81.0011 28.9656C81.0011 29.0535 81.0184 29.1299 81.0531 29.1947C81.0927 29.2549 81.1522 29.2849 81.2315 29.2849C81.3008 29.2849 81.3851 29.2502 81.4842 29.1808C81.5833 29.1114 81.6972 28.9957 81.8261 28.8337C81.8508 28.8059 81.8731 28.792 81.893 28.792C81.9227 28.792 81.9375 28.8151 81.9375 28.8614C81.9375 28.8938 81.9252 28.9378 81.9004 28.9933C81.8806 29.0489 81.8434 29.1137 81.7889 29.1877C81.7443 29.2479 81.6725 29.3289 81.5734 29.4307C81.4743 29.5279 81.3776 29.6113 81.2835 29.6807C81.1993 29.7455 81.0952 29.8033 80.9713 29.8543C80.8475 29.9052 80.7285 29.9306 80.6146 29.9306Z" fill="white"/>
<path d="M84.4828 29.7779C84.5423 29.5465 84.6216 29.2896 84.7207 29.0072C84.8247 28.7203 84.9412 28.4217 85.07 28.1116C85.2038 27.8015 85.34 27.4937 85.4788 27.1882C85.6175 26.8827 85.7513 26.5911 85.8801 26.3134C86.0089 26.0311 86.1576 25.7464 86.3261 25.4594C86.3608 25.4039 86.3905 25.353 86.4153 25.3067C86.445 25.2604 86.4772 25.2211 86.5119 25.1887C86.3186 25.1933 86.1105 25.2164 85.8876 25.2581C85.6695 25.2951 85.4589 25.3483 85.2558 25.4178C85.0576 25.4872 84.8866 25.5682 84.743 25.6608C84.6042 25.7533 84.515 25.8552 84.4754 25.9663C84.4704 25.9801 84.4605 25.9871 84.4457 25.9871C84.4011 25.9871 84.3788 25.9547 84.3788 25.8899C84.3788 25.876 84.3837 25.8552 84.3936 25.8274C84.4382 25.7071 84.4927 25.6006 84.5571 25.508C84.6265 25.4155 84.6959 25.3368 84.7652 25.272C84.9288 25.1146 85.1121 25.0197 85.3153 24.9873C85.5184 24.9503 85.7339 24.9318 85.9619 24.9318H87.6416C87.5227 25.0151 87.3963 25.1516 87.2626 25.3414C87.1288 25.5265 86.9975 25.7348 86.8686 25.9663C86.7398 26.1977 86.6184 26.4245 86.5044 26.6467C86.3954 26.8688 86.3038 27.0563 86.2294 27.209C86.1948 27.2831 86.1452 27.3965 86.0808 27.5492C86.0164 27.6973 85.9445 27.8663 85.8653 28.0561C85.7909 28.2458 85.7191 28.4425 85.6497 28.6462C85.5803 28.8452 85.5234 29.0304 85.4788 29.2016C85.4342 29.3729 85.4119 29.5141 85.4119 29.6251C85.4119 29.6575 85.4144 29.6876 85.4193 29.7154C85.4292 29.7385 85.4366 29.7594 85.4416 29.7779H84.4828Z" fill="white"/>
<path d="M88.0533 29.7779C88.1128 29.6714 88.1524 29.5372 88.1722 29.3752C88.197 29.2132 88.2119 29.0419 88.2168 28.8614C88.2267 28.6763 88.2366 28.4981 88.2465 28.3268C88.2565 28.1648 88.2639 27.9982 88.2688 27.8269C88.2738 27.6557 88.2763 27.4821 88.2763 27.3062C88.2763 27.0609 88.2664 26.8202 88.2465 26.5842C88.2317 26.3435 88.2019 26.1236 88.1574 25.9246C88.1375 25.8181 88.0979 25.7163 88.0384 25.6191C87.9839 25.5219 87.9146 25.4733 87.8303 25.4733C87.7857 25.4733 87.7362 25.4918 87.6817 25.5289C87.6321 25.5613 87.5751 25.6237 87.5107 25.7163C87.5058 25.7256 87.4959 25.7233 87.481 25.7094C87.4711 25.6955 87.4686 25.6839 87.4736 25.6747C87.5132 25.5589 87.5925 25.434 87.7114 25.2997C87.8303 25.1655 87.9567 25.0544 88.0905 24.9665C88.1598 24.9202 88.2218 24.8878 88.2763 24.8693C88.3357 24.8508 88.3902 24.8415 88.4398 24.8415C88.5884 24.8415 88.7024 24.9133 88.7817 25.0568C88.861 25.1956 88.9179 25.353 88.9526 25.5289C88.9873 25.7047 89.0096 25.9177 89.0195 26.1676C89.0344 26.4129 89.0418 26.6698 89.0418 26.9383C89.0418 27.2206 89.0369 27.5006 89.0269 27.7783C89.017 28.0561 89.0047 28.3037 88.9898 28.5212C88.9749 28.7388 88.9625 28.9008 88.9526 29.0072C89.1211 28.7897 89.3044 28.5328 89.5026 28.2366C89.7008 27.9403 89.9015 27.6302 90.1047 27.3062C90.3128 26.9822 90.5085 26.6675 90.6918 26.362C90.8752 26.0519 91.0362 25.7719 91.1749 25.5219C91.3186 25.272 91.4227 25.0753 91.4871 24.9318H92.156C92.0817 25.0429 91.9628 25.2188 91.7993 25.4594C91.6357 25.6955 91.445 25.9686 91.227 26.2787C91.0139 26.5888 90.7884 26.9151 90.5506 27.2576C90.3128 27.5955 90.0824 27.9265 89.8594 28.2505C89.6364 28.5698 89.4382 28.8545 89.2648 29.1044C89.1706 29.2479 89.0715 29.3891 88.9675 29.5279C88.8684 29.6622 88.7445 29.7432 88.5959 29.7709C88.581 29.7756 88.5587 29.7779 88.529 29.7779H88.0533Z" fill="white"/>
<path d="M92.4545 29.7779C92.3752 29.7779 92.3157 29.7478 92.2761 29.6876C92.2414 29.6275 92.2241 29.5488 92.2241 29.4516C92.2241 29.3173 92.2464 29.16 92.291 28.9795C92.3405 28.7989 92.4 28.6115 92.4693 28.4171C92.5437 28.2227 92.618 28.0375 92.6923 27.8617C92.7666 27.6811 92.8311 27.5284 92.8856 27.4034H92.4768C92.4371 27.4034 92.4173 27.3895 92.4173 27.3618C92.4173 27.334 92.4396 27.297 92.4842 27.2507C92.5288 27.1998 92.5808 27.1558 92.6403 27.1188C92.6997 27.0817 92.7493 27.0632 92.7889 27.0632H93.0416C93.1655 26.7901 93.282 26.5356 93.391 26.2995C93.5 26.0588 93.6362 25.8043 93.7998 25.5358C93.8394 25.471 93.8766 25.4108 93.9112 25.3553C93.9459 25.2951 93.9856 25.2419 94.0302 25.1956C93.7626 25.228 93.4876 25.2766 93.2052 25.3414C92.9277 25.4062 92.6799 25.4895 92.4619 25.5913C92.2439 25.6932 92.0903 25.8135 92.0011 25.9524C91.9961 25.9663 91.9862 25.9732 91.9714 25.9732C91.9615 25.9732 91.954 25.9639 91.9491 25.9454C91.9392 25.9269 91.9367 25.9061 91.9416 25.8829C91.9912 25.7626 92.0531 25.6469 92.1275 25.5358C92.2018 25.4247 92.2736 25.3368 92.343 25.272C92.452 25.1655 92.6006 25.0892 92.7889 25.0429C92.9772 24.9966 93.1705 24.9665 93.3687 24.9526C93.5718 24.9387 93.7452 24.9318 93.8889 24.9318H95.3606C95.534 24.9318 95.6876 24.9272 95.8214 24.9179C95.9601 24.904 96.0766 24.8971 96.1707 24.8971C96.3243 24.8971 96.4135 24.9318 96.4383 25.0012C96.4432 25.0197 96.4457 25.0382 96.4457 25.0568C96.4507 25.0706 96.4531 25.0892 96.4531 25.1123C96.4531 25.2049 96.4308 25.3113 96.3863 25.4317C96.3417 25.5474 96.2921 25.6608 96.2376 25.7719C96.1881 25.8783 96.1484 25.9663 96.1187 26.0357C96.1137 26.0588 96.0989 26.075 96.0741 26.0843C96.0543 26.0935 96.0344 26.0982 96.0146 26.0982C95.9899 26.0982 95.9676 26.0935 95.9477 26.0843C95.9329 26.075 95.9279 26.0449 95.9329 25.994C95.9428 25.9385 95.9552 25.876 95.97 25.8066C95.9849 25.7371 95.9923 25.677 95.9923 25.6261C95.9923 25.4779 95.9279 25.3645 95.7991 25.2859C95.6752 25.2026 95.5191 25.1609 95.3308 25.1609C95.1921 25.1609 95.0781 25.1725 94.9889 25.1956C94.8998 25.2141 94.8279 25.2627 94.7734 25.3414C94.5752 25.6145 94.3944 25.8945 94.2308 26.1815C94.0723 26.4685 93.9236 26.7624 93.7849 27.0632H95.7248C95.7396 27.0632 95.7297 27.091 95.695 27.1465C95.6653 27.2021 95.6257 27.2599 95.5761 27.3201C95.5315 27.3757 95.4919 27.4034 95.4572 27.4034H93.6214C93.5669 27.533 93.5025 27.6904 93.4281 27.8755C93.3538 28.0607 93.2844 28.2435 93.22 28.424C93.1606 28.6045 93.1135 28.7596 93.0788 28.8892C93.0491 29.0003 93.0342 29.0998 93.0342 29.1877C93.0342 29.3035 93.0714 29.3914 93.1457 29.4516C93.225 29.5117 93.3612 29.5418 93.5545 29.5418C93.8221 29.5418 94.0896 29.5326 94.3572 29.5141C94.6248 29.4909 94.8874 29.4446 95.145 29.3752C95.368 29.315 95.5662 29.234 95.7396 29.1322C95.918 29.0304 96.0468 28.9031 96.1261 28.7503C96.136 28.7318 96.1509 28.7226 96.1707 28.7226C96.2054 28.7226 96.2227 28.748 96.2227 28.7989C96.2227 28.8082 96.2203 28.8198 96.2153 28.8337C96.2153 28.8475 96.2128 28.8637 96.2079 28.8823C96.1682 29.0026 96.1212 29.1091 96.0667 29.2016C96.0122 29.2942 95.9552 29.3729 95.8957 29.4377C95.757 29.5951 95.5786 29.6923 95.3606 29.7293C95.1425 29.7617 94.9245 29.7779 94.7065 29.7779H92.4545Z" fill="white"/>
<path d="M100.141 29.9445C99.7243 29.8797 99.4196 29.7108 99.2263 29.4377C99.038 29.1646 98.9439 28.8406 98.9439 28.4657C98.9439 28.1926 98.991 27.9079 99.0851 27.6117C99.1792 27.3109 99.313 27.0169 99.4865 26.73C99.6648 26.443 99.8779 26.1769 100.126 25.9315C100.373 25.6816 100.653 25.4687 100.966 25.2928C101.278 25.1169 101.617 24.9943 101.984 24.9248C102.207 24.8832 102.42 24.8624 102.623 24.8624C103.019 24.8624 103.336 24.9364 103.574 25.0845C103.812 25.228 103.931 25.4131 103.931 25.6399C103.931 25.6862 103.926 25.7325 103.916 25.7788C103.911 25.8205 103.896 25.8667 103.872 25.9177C103.817 26.0519 103.725 26.1722 103.597 26.2787C103.473 26.3805 103.329 26.4592 103.166 26.5147C103.007 26.5703 102.843 26.5934 102.675 26.5842C102.596 26.5749 102.526 26.5495 102.467 26.5078C102.412 26.4615 102.385 26.406 102.385 26.3412C102.385 26.2764 102.415 26.2069 102.474 26.1329C102.529 26.1514 102.591 26.1607 102.66 26.1607C102.784 26.1607 102.905 26.1329 103.024 26.0773C103.143 26.0218 103.242 25.9454 103.322 25.8482C103.401 25.751 103.441 25.6423 103.441 25.5219C103.441 25.3599 103.381 25.2535 103.262 25.2026C103.143 25.147 103.009 25.1192 102.861 25.1192C102.762 25.1192 102.663 25.1285 102.563 25.147C102.469 25.1609 102.393 25.1748 102.333 25.1887C102.051 25.2581 101.761 25.3854 101.463 25.5705C101.171 25.751 100.904 25.9732 100.661 26.237C100.418 26.4962 100.23 26.7809 100.096 27.091C99.9968 27.3178 99.92 27.5469 99.8655 27.7783C99.811 28.0098 99.7838 28.2296 99.7838 28.4379C99.7838 28.7064 99.8308 28.9424 99.925 29.1461C100.024 29.3497 100.18 29.4909 100.393 29.5696C100.586 29.639 100.785 29.6737 100.988 29.6737C101.315 29.6737 101.644 29.5997 101.976 29.4516C102.313 29.3035 102.623 29.116 102.905 28.8892C103.079 28.7457 103.235 28.5976 103.374 28.4449C103.512 28.2921 103.619 28.1301 103.693 27.9589C103.787 28.0144 103.834 28.0954 103.834 28.2019C103.834 28.2852 103.807 28.3754 103.753 28.4726C103.703 28.5698 103.644 28.6601 103.574 28.7434C103.51 28.8267 103.453 28.8915 103.403 28.9378C103.057 29.2757 102.64 29.5349 102.155 29.7154C101.674 29.8959 101.186 29.9862 100.691 29.9862C100.502 29.9862 100.319 29.9723 100.141 29.9445Z" fill="white"/>
<path d="M107.882 29.8334C107.694 29.8334 107.55 29.7871 107.451 29.6946C107.352 29.602 107.285 29.484 107.25 29.3405C107.216 29.197 107.193 29.0489 107.184 28.8961C107.184 28.8082 107.189 28.7041 107.198 28.5837C107.208 28.4634 107.221 28.3477 107.236 28.2366C107.255 28.1209 107.27 28.0352 107.28 27.9797H105.578C105.261 28.2898 104.959 28.593 104.671 28.8892C104.389 29.1808 104.112 29.477 103.839 29.7779H103.096C103.225 29.6668 103.393 29.5187 103.601 29.3335C103.814 29.1438 104.055 28.9285 104.322 28.6879C104.59 28.4472 104.867 28.1926 105.155 27.9241C105.447 27.6511 105.739 27.378 106.032 27.1049C106.324 26.8272 106.599 26.561 106.857 26.3065C107.119 26.0473 107.352 25.8135 107.555 25.6052C107.654 25.5034 107.746 25.4016 107.83 25.2997C107.919 25.1933 108.018 25.1054 108.128 25.0359C108.237 24.9665 108.37 24.9318 108.529 24.9318H109.064C108.98 25.0058 108.896 25.1308 108.811 25.3067C108.727 25.4826 108.65 25.6723 108.581 25.876C108.516 26.0797 108.462 26.2648 108.417 26.4314C108.353 26.6814 108.286 26.9521 108.217 27.2437C108.152 27.5353 108.1 27.8246 108.061 28.1116C108.021 28.3986 108.009 28.6647 108.023 28.91C108.028 28.998 108.046 29.0905 108.075 29.1877C108.11 29.2803 108.157 29.3613 108.217 29.4307C108.281 29.4955 108.36 29.5279 108.455 29.5279C108.539 29.5279 108.63 29.4979 108.73 29.4377L108.774 29.5002C108.71 29.5927 108.586 29.6714 108.403 29.7362C108.224 29.801 108.051 29.8334 107.882 29.8334ZM104.909 26.3134C104.83 26.2347 104.771 26.1537 104.731 26.0704C104.696 25.9871 104.679 25.9084 104.679 25.8343C104.679 25.7418 104.699 25.6538 104.738 25.5705C104.783 25.4826 104.835 25.4085 104.894 25.3483C105.013 25.2234 105.162 25.1308 105.34 25.0706C105.519 25.0105 105.707 24.9734 105.905 24.9596C106.108 24.941 106.302 24.9318 106.485 24.9318H108.15C108.046 25.029 107.887 25.1054 107.674 25.1609C107.466 25.2118 107.238 25.2511 106.99 25.2789C106.743 25.3021 106.502 25.3252 106.269 25.3483C106.041 25.3669 105.853 25.3923 105.705 25.4247C105.442 25.4803 105.241 25.5867 105.102 25.7441C104.969 25.9015 104.904 26.0912 104.909 26.3134ZM105.905 27.6325H107.332C107.392 27.3271 107.461 27.0216 107.54 26.7161C107.625 26.4106 107.699 26.1421 107.763 25.9107C107.461 26.1792 107.151 26.4592 106.834 26.7508C106.522 27.0378 106.212 27.3317 105.905 27.6325Z" fill="white"/>
<path d="M109.085 29.7779C109.144 29.5465 109.224 29.2896 109.323 29.0072C109.427 28.7203 109.543 28.4217 109.672 28.1116C109.806 27.8015 109.942 27.4937 110.081 27.1882C110.22 26.8827 110.353 26.5911 110.482 26.3134C110.611 26.0311 110.76 25.7464 110.928 25.4594C110.963 25.4039 110.993 25.353 111.017 25.3067C111.047 25.2604 111.079 25.2211 111.114 25.1887C110.921 25.1933 110.713 25.2164 110.49 25.2581C110.272 25.2951 110.061 25.3483 109.858 25.4178C109.66 25.4872 109.489 25.5682 109.345 25.6608C109.206 25.7533 109.117 25.8552 109.077 25.9663C109.072 25.9801 109.063 25.9871 109.048 25.9871C109.003 25.9871 108.981 25.9547 108.981 25.8899C108.981 25.876 108.986 25.8552 108.996 25.8274C109.04 25.7071 109.095 25.6006 109.159 25.508C109.229 25.4155 109.298 25.3368 109.367 25.272C109.531 25.1146 109.714 25.0197 109.917 24.9873C110.12 24.9503 110.336 24.9318 110.564 24.9318H112.37C112.578 24.9318 112.764 24.9526 112.927 24.9943C113.091 25.0313 113.227 25.0845 113.336 25.154C113.48 25.2419 113.584 25.3507 113.648 25.4803C113.713 25.6052 113.745 25.7371 113.745 25.876C113.745 26.0889 113.695 26.2787 113.596 26.4453C113.497 26.6119 113.366 26.7554 113.202 26.8758C113.044 26.9961 112.865 27.0933 112.667 27.1674C112.469 27.2414 112.268 27.297 112.065 27.334L111.827 27.3757C111.946 27.7506 112.097 28.0885 112.281 28.3893C112.464 28.6902 112.655 28.954 112.853 29.1808C113.051 29.4076 113.23 29.602 113.388 29.764C113.314 29.7779 113.2 29.7848 113.046 29.7848C112.913 29.7848 112.784 29.7825 112.66 29.7779C112.536 29.7686 112.474 29.764 112.474 29.764C112.35 29.764 112.229 29.7015 112.11 29.5765C111.991 29.4516 111.877 29.2919 111.768 29.0975C111.659 28.8985 111.56 28.6925 111.471 28.4796C111.386 28.262 111.315 28.0607 111.255 27.8755C111.201 27.6904 111.163 27.5469 111.144 27.4451C111.144 27.4312 111.141 27.4173 111.136 27.4034C111.136 27.3895 111.136 27.3733 111.136 27.3548C111.136 27.3271 111.141 27.3039 111.151 27.2854C111.166 27.2623 111.193 27.2484 111.233 27.2437C111.481 27.216 111.706 27.1743 111.909 27.1188C112.112 27.0586 112.298 26.9776 112.467 26.8758C112.635 26.7693 112.771 26.6397 112.875 26.487C112.979 26.3296 113.031 26.1445 113.031 25.9315C113.031 25.7603 112.979 25.6052 112.875 25.4664C112.776 25.3229 112.615 25.228 112.392 25.1817C112.333 25.1678 112.268 25.1586 112.199 25.154C112.135 25.1493 112.068 25.1447 111.998 25.1401C111.889 25.2789 111.775 25.4455 111.656 25.6399C111.538 25.8343 111.421 26.0403 111.307 26.2579C111.193 26.4708 111.084 26.6837 110.98 26.8966C110.881 27.1049 110.792 27.297 110.713 27.4729C110.673 27.5701 110.613 27.7112 110.534 27.8964C110.46 28.0815 110.383 28.2829 110.304 28.5004C110.224 28.7179 110.155 28.9285 110.096 29.1322C110.041 29.3312 110.014 29.4955 110.014 29.6251C110.014 29.6946 110.024 29.7455 110.044 29.7779H109.085Z" fill="white"/>
<path d="M116.845 29.8612C116.702 29.8381 116.568 29.8057 116.444 29.764C116.32 29.7177 116.214 29.6599 116.125 29.5904C116.06 29.5349 116.013 29.4701 115.983 29.396C115.954 29.3173 115.939 29.234 115.939 29.1461C115.939 28.998 115.966 28.8452 116.02 28.6879C116.075 28.5259 116.122 28.387 116.162 28.2713C116.256 28.0121 116.367 27.7367 116.496 27.4451C116.63 27.1535 116.764 26.8711 116.898 26.5981C117.036 26.325 117.16 26.082 117.269 25.8691C117.378 25.6561 117.46 25.5011 117.514 25.4039C117.534 25.3669 117.552 25.3321 117.566 25.2997C117.586 25.2673 117.606 25.2373 117.626 25.2095C117.576 25.2141 117.529 25.2211 117.485 25.2303C117.44 25.2349 117.398 25.2396 117.358 25.2442C117.14 25.272 116.912 25.3183 116.675 25.3831C116.442 25.4432 116.231 25.5196 116.043 25.6122C115.855 25.7047 115.718 25.8181 115.634 25.9524C115.629 25.9663 115.619 25.9732 115.604 25.9732C115.594 25.9732 115.587 25.9639 115.582 25.9454C115.572 25.9269 115.57 25.9061 115.575 25.8829C115.624 25.7626 115.686 25.6469 115.76 25.5358C115.835 25.4247 115.907 25.3368 115.976 25.272C116.085 25.1655 116.234 25.0892 116.422 25.0429C116.61 24.9966 116.803 24.9665 117.002 24.9526C117.205 24.9387 117.378 24.9318 117.522 24.9318H119.046C119.546 24.9318 119.947 25.0197 120.25 25.1956C120.557 25.3715 120.78 25.6029 120.918 25.8899C121.057 26.1769 121.127 26.487 121.127 26.8202C121.127 26.8989 121.124 26.9776 121.119 27.0563C121.114 27.135 121.104 27.2137 121.089 27.2923C121.015 27.7135 120.869 28.0885 120.651 28.4171C120.438 28.7411 120.173 29.0142 119.856 29.2363C119.539 29.4585 119.182 29.6275 118.785 29.7432C118.394 29.8543 117.983 29.9098 117.552 29.9098C117.438 29.9098 117.321 29.9052 117.202 29.8959C117.083 29.8913 116.964 29.8797 116.845 29.8612ZM117.031 29.5904C117.096 29.5951 117.16 29.602 117.225 29.6113C117.289 29.6159 117.353 29.6182 117.418 29.6182C117.77 29.6182 118.102 29.5603 118.414 29.4446C118.731 29.3289 119.016 29.1669 119.268 28.9586C119.526 28.7503 119.744 28.5097 119.923 28.2366C120.101 27.9635 120.23 27.6673 120.309 27.3479C120.364 27.135 120.391 26.9313 120.391 26.7369C120.391 26.5286 120.356 26.3296 120.287 26.1398C120.222 25.9454 120.116 25.7719 119.967 25.6191C119.833 25.4803 119.655 25.3738 119.432 25.2997C119.209 25.2211 119.003 25.1748 118.815 25.1609C118.771 25.1563 118.726 25.154 118.681 25.154C118.637 25.1493 118.592 25.147 118.548 25.147C118.458 25.2581 118.367 25.39 118.273 25.5427C118.178 25.6909 118.087 25.8436 117.998 26.001C117.913 26.1583 117.839 26.3018 117.775 26.4314C117.606 26.7693 117.448 27.1072 117.299 27.4451C117.15 27.783 117.016 28.1278 116.898 28.4796C116.863 28.5814 116.828 28.6971 116.793 28.8267C116.759 28.9563 116.741 29.0767 116.741 29.1877C116.741 29.2896 116.761 29.3798 116.801 29.4585C116.845 29.5326 116.922 29.5765 117.031 29.5904Z" fill="white"/>
<path d="M121.662 29.7779C121.582 29.7779 121.523 29.7478 121.483 29.6876C121.449 29.6275 121.431 29.5488 121.431 29.4516C121.431 29.3173 121.454 29.16 121.498 28.9795C121.548 28.7989 121.607 28.6115 121.677 28.4171C121.751 28.2227 121.825 28.0375 121.9 27.8617C121.974 27.6811 122.038 27.5284 122.093 27.4034H121.684C121.644 27.4034 121.625 27.3895 121.625 27.3618C121.625 27.334 121.647 27.297 121.691 27.2507C121.736 27.1998 121.788 27.1558 121.848 27.1188C121.907 27.0817 121.957 27.0632 121.996 27.0632H122.249C122.373 26.7901 122.489 26.5356 122.598 26.2995C122.707 26.0588 122.843 25.8043 123.007 25.5358C123.047 25.471 123.084 25.4108 123.118 25.3553C123.153 25.2951 123.193 25.2419 123.237 25.1956C122.97 25.228 122.695 25.2766 122.412 25.3414C122.135 25.4062 121.887 25.4895 121.669 25.5913C121.451 25.6932 121.298 25.8135 121.208 25.9524C121.203 25.9663 121.193 25.9732 121.179 25.9732C121.169 25.9732 121.161 25.9639 121.156 25.9454C121.146 25.9269 121.144 25.9061 121.149 25.8829C121.198 25.7626 121.26 25.6469 121.335 25.5358C121.409 25.4247 121.481 25.3368 121.55 25.272C121.659 25.1655 121.808 25.0892 121.996 25.0429C122.184 24.9966 122.378 24.9665 122.576 24.9526C122.779 24.9387 122.952 24.9318 123.096 24.9318H124.568C124.741 24.9318 124.895 24.9272 125.029 24.9179C125.167 24.904 125.284 24.8971 125.378 24.8971C125.532 24.8971 125.621 24.9318 125.646 25.0012C125.65 25.0197 125.653 25.0382 125.653 25.0568C125.658 25.0706 125.66 25.0892 125.66 25.1123C125.66 25.2049 125.638 25.3113 125.594 25.4317C125.549 25.5474 125.499 25.6608 125.445 25.7719C125.395 25.8783 125.356 25.9663 125.326 26.0357C125.321 26.0588 125.306 26.075 125.281 26.0843C125.262 26.0935 125.242 26.0982 125.222 26.0982C125.197 26.0982 125.175 26.0935 125.155 26.0843C125.14 26.075 125.135 26.0449 125.14 25.994C125.15 25.9385 125.162 25.876 125.177 25.8066C125.192 25.7371 125.2 25.677 125.2 25.6261C125.2 25.4779 125.135 25.3645 125.006 25.2859C124.882 25.2026 124.726 25.1609 124.538 25.1609C124.399 25.1609 124.285 25.1725 124.196 25.1956C124.107 25.2141 124.035 25.2627 123.981 25.3414C123.782 25.6145 123.602 25.8945 123.438 26.1815C123.28 26.4685 123.131 26.7624 122.992 27.0632H124.932C124.947 27.0632 124.937 27.091 124.902 27.1465C124.873 27.2021 124.833 27.2599 124.783 27.3201C124.739 27.3757 124.699 27.4034 124.664 27.4034H122.829C122.774 27.533 122.71 27.6904 122.635 27.8755C122.561 28.0607 122.492 28.2435 122.427 28.424C122.368 28.6045 122.321 28.7596 122.286 28.8892C122.256 29.0003 122.241 29.0998 122.241 29.1877C122.241 29.3035 122.279 29.3914 122.353 29.4516C122.432 29.5117 122.568 29.5418 122.762 29.5418C123.029 29.5418 123.297 29.5326 123.564 29.5141C123.832 29.4909 124.095 29.4446 124.352 29.3752C124.575 29.315 124.773 29.234 124.947 29.1322C125.125 29.0304 125.254 28.9031 125.333 28.7503C125.343 28.7318 125.358 28.7226 125.378 28.7226C125.413 28.7226 125.43 28.748 125.43 28.7989C125.43 28.8082 125.428 28.8198 125.423 28.8337C125.423 28.8475 125.42 28.8637 125.415 28.8823C125.375 29.0026 125.328 29.1091 125.274 29.2016C125.219 29.2942 125.162 29.3729 125.103 29.4377C124.964 29.5951 124.786 29.6923 124.568 29.7293C124.35 29.7617 124.132 29.7779 123.914 29.7779H121.662Z" fill="white"/>
<path d="M129.809 29.8334C129.621 29.8334 129.477 29.7871 129.378 29.6946C129.279 29.602 129.212 29.484 129.178 29.3405C129.143 29.197 129.121 29.0489 129.111 28.8961C129.111 28.8082 129.116 28.7041 129.126 28.5837C129.136 28.4634 129.148 28.3477 129.163 28.2366C129.183 28.1209 129.198 28.0352 129.207 27.9797H127.505C127.188 28.2898 126.886 28.593 126.599 28.8892C126.316 29.1808 126.039 29.477 125.766 29.7779H125.023C125.152 29.6668 125.32 29.5187 125.528 29.3335C125.741 29.1438 125.982 28.9285 126.249 28.6879C126.517 28.4472 126.794 28.1926 127.082 27.9241C127.374 27.6511 127.666 27.378 127.959 27.1049C128.251 26.8272 128.526 26.561 128.784 26.3065C129.046 26.0473 129.279 25.8135 129.482 25.6052C129.582 25.5034 129.673 25.4016 129.757 25.2997C129.847 25.1933 129.946 25.1054 130.055 25.0359C130.164 24.9665 130.298 24.9318 130.456 24.9318H130.991C130.907 25.0058 130.823 25.1308 130.739 25.3067C130.654 25.4826 130.577 25.6723 130.508 25.876C130.444 26.0797 130.389 26.2648 130.345 26.4314C130.28 26.6814 130.213 26.9521 130.144 27.2437C130.079 27.5353 130.027 27.8246 129.988 28.1116C129.948 28.3986 129.936 28.6647 129.951 28.91C129.956 28.998 129.973 29.0905 130.003 29.1877C130.037 29.2803 130.084 29.3613 130.144 29.4307C130.208 29.4955 130.288 29.5279 130.382 29.5279C130.466 29.5279 130.558 29.4979 130.657 29.4377L130.701 29.5002C130.637 29.5927 130.513 29.6714 130.33 29.7362C130.151 29.801 129.978 29.8334 129.809 29.8334ZM126.836 26.3134C126.757 26.2347 126.698 26.1537 126.658 26.0704C126.623 25.9871 126.606 25.9084 126.606 25.8343C126.606 25.7418 126.626 25.6538 126.666 25.5705C126.71 25.4826 126.762 25.4085 126.822 25.3483C126.941 25.2234 127.089 25.1308 127.268 25.0706C127.446 25.0105 127.634 24.9734 127.832 24.9596C128.036 24.941 128.229 24.9318 128.412 24.9318H130.077C129.973 25.029 129.814 25.1054 129.601 25.1609C129.393 25.2118 129.165 25.2511 128.918 25.2789C128.67 25.3021 128.429 25.3252 128.197 25.3483C127.969 25.3669 127.78 25.3923 127.632 25.4247C127.369 25.4803 127.168 25.5867 127.03 25.7441C126.896 25.9015 126.832 26.0912 126.836 26.3134ZM127.832 27.6325H129.259C129.319 27.3271 129.388 27.0216 129.468 26.7161C129.552 26.4106 129.626 26.1421 129.691 25.9107C129.388 26.1792 129.079 26.4592 128.761 26.7508C128.449 27.0378 128.14 27.3317 127.832 27.6325Z" fill="white"/>
<path d="M131.542 29.7779C131.438 29.7779 131.361 29.7432 131.311 29.6737C131.267 29.6043 131.244 29.5094 131.244 29.3891C131.244 29.3197 131.252 29.2433 131.267 29.16C131.282 29.0767 131.299 28.9887 131.319 28.8961C131.378 28.6508 131.47 28.3801 131.594 28.0838C131.723 27.783 131.869 27.4752 132.032 27.1604C132.201 26.8411 132.369 26.5309 132.538 26.2301C132.711 25.9292 132.872 25.6538 133.021 25.4039C133.031 25.3854 133.051 25.3507 133.08 25.2997C133.115 25.2488 133.142 25.2118 133.162 25.1887C132.969 25.1933 132.761 25.2164 132.538 25.2581C132.32 25.2951 132.109 25.3483 131.906 25.4178C131.708 25.4872 131.537 25.5682 131.393 25.6608C131.254 25.7533 131.165 25.8552 131.126 25.9663C131.121 25.9801 131.111 25.9871 131.096 25.9871C131.051 25.9871 131.029 25.9547 131.029 25.8899C131.029 25.876 131.034 25.8552 131.044 25.8274C131.093 25.7071 131.15 25.6006 131.215 25.508C131.279 25.4155 131.346 25.3368 131.415 25.272C131.579 25.1146 131.762 25.0197 131.965 24.9873C132.169 24.9503 132.384 24.9318 132.612 24.9318H134.299C134.19 25.0105 134.061 25.154 133.913 25.3622C133.764 25.5659 133.61 25.7973 133.452 26.0565C133.383 26.1722 133.296 26.3227 133.192 26.5078C133.088 26.6929 132.979 26.8989 132.865 27.1257C132.751 27.3479 132.642 27.5724 132.538 27.7992C132.434 28.026 132.345 28.2412 132.27 28.4449C132.196 28.6439 132.149 28.8151 132.129 28.9586C132.124 28.9818 132.122 29.0049 132.122 29.0281C132.122 29.0466 132.122 29.0674 132.122 29.0905C132.122 29.2201 132.159 29.3289 132.233 29.4169C132.307 29.5002 132.446 29.5418 132.649 29.5418C132.912 29.5418 133.177 29.5326 133.445 29.5141C133.717 29.4909 133.982 29.4446 134.24 29.3752C134.458 29.315 134.656 29.234 134.834 29.1322C135.013 29.0304 135.142 28.9031 135.221 28.7503C135.231 28.7318 135.243 28.7226 135.258 28.7226C135.293 28.7226 135.31 28.748 135.31 28.7989C135.31 28.8082 135.308 28.8198 135.303 28.8337C135.303 28.8475 135.3 28.8637 135.295 28.8823C135.256 29.0026 135.208 29.1091 135.154 29.2016C135.099 29.2942 135.045 29.3729 134.99 29.4377C134.852 29.5951 134.671 29.6923 134.448 29.7293C134.23 29.7617 134.012 29.7779 133.794 29.7779H131.542Z" fill="white"/>
<path d="M135.489 29.7779C135.409 29.7779 135.35 29.7478 135.31 29.6876C135.276 29.6275 135.258 29.5488 135.258 29.4516C135.258 29.3173 135.281 29.16 135.325 28.9795C135.375 28.7989 135.434 28.6115 135.504 28.4171C135.578 28.2227 135.652 28.0375 135.727 27.8617C135.801 27.6811 135.865 27.5284 135.92 27.4034H135.511C135.471 27.4034 135.452 27.3895 135.452 27.3618C135.452 27.334 135.474 27.297 135.518 27.2507C135.563 27.1998 135.615 27.1558 135.675 27.1188C135.734 27.0817 135.784 27.0632 135.823 27.0632H136.076C136.2 26.7901 136.316 26.5356 136.425 26.2995C136.534 26.0588 136.67 25.8043 136.834 25.5358C136.874 25.471 136.911 25.4108 136.945 25.3553C136.98 25.2951 137.02 25.2419 137.064 25.1956C136.797 25.228 136.522 25.2766 136.239 25.3414C135.962 25.4062 135.714 25.4895 135.496 25.5913C135.278 25.6932 135.125 25.8135 135.035 25.9524C135.03 25.9663 135.02 25.9732 135.006 25.9732C134.996 25.9732 134.988 25.9639 134.983 25.9454C134.973 25.9269 134.971 25.9061 134.976 25.8829C135.025 25.7626 135.087 25.6469 135.162 25.5358C135.236 25.4247 135.308 25.3368 135.377 25.272C135.486 25.1655 135.635 25.0892 135.823 25.0429C136.011 24.9966 136.205 24.9665 136.403 24.9526C136.606 24.9387 136.779 24.9318 136.923 24.9318H138.395C138.568 24.9318 138.722 24.9272 138.856 24.9179C138.994 24.904 139.111 24.8971 139.205 24.8971C139.359 24.8971 139.448 24.9318 139.473 25.0012C139.477 25.0197 139.48 25.0382 139.48 25.0568C139.485 25.0706 139.487 25.0892 139.487 25.1123C139.487 25.2049 139.465 25.3113 139.42 25.4317C139.376 25.5474 139.326 25.6608 139.272 25.7719C139.222 25.8783 139.183 25.9663 139.153 26.0357C139.148 26.0588 139.133 26.075 139.108 26.0843C139.089 26.0935 139.069 26.0982 139.049 26.0982C139.024 26.0982 139.002 26.0935 138.982 26.0843C138.967 26.075 138.962 26.0449 138.967 25.994C138.977 25.9385 138.989 25.876 139.004 25.8066C139.019 25.7371 139.027 25.677 139.027 25.6261C139.027 25.4779 138.962 25.3645 138.833 25.2859C138.709 25.2026 138.553 25.1609 138.365 25.1609C138.226 25.1609 138.112 25.1725 138.023 25.1956C137.934 25.2141 137.862 25.2627 137.808 25.3414C137.609 25.6145 137.429 25.8945 137.265 26.1815C137.107 26.4685 136.958 26.7624 136.819 27.0632H138.759C138.774 27.0632 138.764 27.091 138.729 27.1465C138.7 27.2021 138.66 27.2599 138.61 27.3201C138.566 27.3757 138.526 27.4034 138.491 27.4034H136.656C136.601 27.533 136.537 27.6904 136.462 27.8755C136.388 28.0607 136.319 28.2435 136.254 28.424C136.195 28.6045 136.148 28.7596 136.113 28.8892C136.083 29.0003 136.068 29.0998 136.068 29.1877C136.068 29.3035 136.106 29.3914 136.18 29.4516C136.259 29.5117 136.395 29.5418 136.589 29.5418C136.856 29.5418 137.124 29.5326 137.391 29.5141C137.659 29.4909 137.922 29.4446 138.179 29.3752C138.402 29.315 138.6 29.234 138.774 29.1322C138.952 29.0304 139.081 28.9031 139.16 28.7503C139.17 28.7318 139.185 28.7226 139.205 28.7226C139.24 28.7226 139.257 28.748 139.257 28.7989C139.257 28.8082 139.255 28.8198 139.25 28.8337C139.25 28.8475 139.247 28.8637 139.242 28.8823C139.202 29.0026 139.155 29.1091 139.101 29.2016C139.046 29.2942 138.989 29.3729 138.93 29.4377C138.791 29.5951 138.613 29.6923 138.395 29.7293C138.177 29.7617 137.959 29.7779 137.741 29.7779H135.489Z" fill="white"/>
<path d="M139.932 29.7779C139.992 29.5465 140.071 29.2896 140.17 29.0072C140.274 28.7203 140.391 28.4217 140.52 28.1116C140.653 27.8015 140.79 27.4937 140.928 27.1882C141.067 26.8827 141.201 26.5911 141.33 26.3134C141.459 26.0311 141.607 25.7464 141.776 25.4594C141.81 25.4039 141.84 25.353 141.865 25.3067C141.895 25.2604 141.927 25.2211 141.962 25.1887C141.768 25.1933 141.56 25.2164 141.337 25.2581C141.119 25.2951 140.909 25.3483 140.705 25.4178C140.507 25.4872 140.336 25.5682 140.193 25.6608C140.054 25.7533 139.965 25.8552 139.925 25.9663C139.92 25.9801 139.91 25.9871 139.895 25.9871C139.851 25.9871 139.828 25.9547 139.828 25.8899C139.828 25.876 139.833 25.8552 139.843 25.8274C139.888 25.7071 139.942 25.6006 140.007 25.508C140.076 25.4155 140.146 25.3368 140.215 25.272C140.378 25.1146 140.562 25.0197 140.765 24.9873C140.968 24.9503 141.184 24.9318 141.412 24.9318H143.218C143.426 24.9318 143.612 24.9526 143.775 24.9943C143.939 25.0313 144.075 25.0845 144.184 25.154C144.328 25.2419 144.432 25.3507 144.496 25.4803C144.56 25.6052 144.593 25.7371 144.593 25.876C144.593 26.0889 144.543 26.2787 144.444 26.4453C144.345 26.6119 144.214 26.7554 144.05 26.8758C143.891 26.9961 143.713 27.0933 143.515 27.1674C143.317 27.2414 143.116 27.297 142.913 27.334L142.675 27.3757C142.794 27.7506 142.945 28.0885 143.128 28.3893C143.312 28.6902 143.503 28.954 143.701 29.1808C143.899 29.4076 144.077 29.602 144.236 29.764C144.162 29.7779 144.048 29.7848 143.894 29.7848C143.76 29.7848 143.631 29.7825 143.507 29.7779C143.384 29.7686 143.322 29.764 143.322 29.764C143.198 29.764 143.076 29.7015 142.957 29.5765C142.839 29.4516 142.725 29.2919 142.616 29.0975C142.507 28.8985 142.407 28.6925 142.318 28.4796C142.234 28.262 142.162 28.0607 142.103 27.8755C142.048 27.6904 142.011 27.5469 141.991 27.4451C141.991 27.4312 141.989 27.4173 141.984 27.4034C141.984 27.3895 141.984 27.3733 141.984 27.3548C141.984 27.3271 141.989 27.3039 141.999 27.2854C142.014 27.2623 142.041 27.2484 142.08 27.2437C142.328 27.216 142.554 27.1743 142.757 27.1188C142.96 27.0586 143.146 26.9776 143.314 26.8758C143.483 26.7693 143.619 26.6397 143.723 26.487C143.827 26.3296 143.879 26.1445 143.879 25.9315C143.879 25.7603 143.827 25.6052 143.723 25.4664C143.624 25.3229 143.463 25.228 143.24 25.1817C143.18 25.1678 143.116 25.1586 143.047 25.154C142.982 25.1493 142.915 25.1447 142.846 25.1401C142.737 25.2789 142.623 25.4455 142.504 25.6399C142.385 25.8343 142.269 26.0403 142.155 26.2579C142.041 26.4708 141.932 26.6837 141.828 26.8966C141.729 27.1049 141.639 27.297 141.56 27.4729C141.521 27.5701 141.461 27.7112 141.382 27.8964C141.307 28.0815 141.231 28.2829 141.151 28.5004C141.072 28.7179 141.003 28.9285 140.943 29.1322C140.889 29.3312 140.862 29.4955 140.862 29.6251C140.862 29.6946 140.871 29.7455 140.891 29.7779H139.932Z" fill="white"/>
<path d="M145.532 29.8334C145.512 29.8242 145.472 29.808 145.413 29.7848C145.358 29.7617 145.306 29.7339 145.257 29.7015C145.197 29.6599 145.168 29.6089 145.168 29.5488C145.168 29.484 145.2 29.4215 145.264 29.3613C145.314 29.3104 145.376 29.2687 145.45 29.2363C145.524 29.2039 145.606 29.1877 145.695 29.1877C145.779 29.1877 145.851 29.2016 145.911 29.2294C145.97 29.2525 146 29.2965 146 29.3613C146 29.3752 145.995 29.4007 145.985 29.4377C145.945 29.4423 145.893 29.4701 145.829 29.521C145.765 29.5719 145.703 29.6275 145.643 29.6876C145.589 29.7478 145.552 29.7964 145.532 29.8334Z" fill="white"/>
<path d="M35.7456 12.538L33.5289 10.8441L33.5023 10.8221L35.566 10.4277C35.6999 10.4022 35.8204 10.3331 35.9069 10.2323C35.9934 10.1314 36.0406 10.005 36.0405 9.87468V8.18189C36.0405 8.03223 35.9782 7.88871 35.8674 7.78289C35.7566 7.67707 35.6063 7.61762 35.4496 7.61762H32.4955C32.3388 7.61762 32.1885 7.67707 32.0777 7.78289C31.9669 7.88871 31.9047 8.03223 31.9047 8.18189V9.17048L31.8639 9.118C31.8264 9.02218 31.7615 8.93832 31.6766 8.87593C31.344 8.42621 31.0592 7.97593 30.8737 7.58659L29.8752 5.48922C29.2389 4.15135 27.5349 3.10352 25.9964 3.10352H11.8165C10.278 3.10352 8.57409 4.15135 7.93776 5.48922L6.93986 7.58602C6.75434 7.97537 6.46956 8.42621 6.13692 8.87593C6.05219 8.93847 5.98734 9.02228 5.94963 9.118L5.90886 9.17048V8.18189C5.90886 8.03223 5.84662 7.88871 5.73581 7.78289C5.62501 7.67707 5.47473 7.61762 5.31804 7.61762H2.36331C2.20661 7.61762 2.05633 7.67707 1.94553 7.78289C1.83473 7.88871 1.77248 8.03223 1.77248 8.18189V9.87468C1.77248 10.1438 1.971 10.3752 2.24751 10.4277L4.31127 10.8221L4.28468 10.8441L2.0673 12.538C0.908101 13.4239 0 15.2284 0 16.6458V26.2383C0 27.1716 0.795253 27.9311 1.77248 27.9311H6.4991C7.47633 27.9311 8.27158 27.1716 8.27158 26.2383V25.1098H29.5414V26.2383C29.5414 27.1716 30.3366 27.9311 31.3138 27.9311H36.0405C37.0177 27.9311 37.8129 27.1716 37.8129 26.2383V16.6458C37.8129 15.2284 36.9048 13.4239 35.7456 12.538ZM30.3768 23.9813L29.022 22.6874C28.4471 22.1384 27.4002 21.7242 26.5872 21.7242H10.9303C10.1173 21.7242 9.07038 22.1384 8.49551 22.6874L7.14074 23.9813H2.95414C1.97691 23.9813 1.18165 23.2218 1.18165 22.2885V19.4672H1.77248V20.0314C1.77248 21.2762 2.83243 22.2885 4.13579 22.2885H5.90827C6.06497 22.2885 6.21525 22.229 6.32605 22.1232C6.43685 22.0174 6.4991 21.8739 6.4991 21.7242C6.4991 21.5746 6.43685 21.431 6.32605 21.3252C6.21525 21.2194 6.06497 21.1599 5.90827 21.1599H4.13579C3.48411 21.1599 2.95414 20.6538 2.95414 20.0314V19.4672H4.13579C4.62618 19.4672 5.38834 19.7685 5.73516 20.0997C5.7899 20.1523 5.85499 20.194 5.92668 20.2225C5.99836 20.2509 6.07524 20.2656 6.15287 20.2656C6.23051 20.2656 6.30739 20.2509 6.37908 20.2225C6.45076 20.194 6.51585 20.1523 6.57059 20.0997C6.6255 20.0473 6.66907 19.9851 6.6988 19.9167C6.72852 19.8482 6.74382 19.7749 6.74382 19.7008C6.74382 19.6267 6.72852 19.5533 6.6988 19.4848C6.66907 19.4164 6.6255 19.3542 6.57059 19.3018C5.99572 18.7528 4.94936 18.3386 4.13579 18.3386H1.18165V16.6458C1.18165 16.4466 1.21474 16.2317 1.26142 16.0122C1.63955 16.3891 2.18961 16.6458 2.95414 16.6458H7.68075C7.83744 16.6458 7.98769 16.5863 8.09847 16.4805L8.86241 15.7509L9.62635 16.4805C9.68114 16.533 9.74625 16.5746 9.81794 16.603C9.88962 16.6313 9.96647 16.6459 10.0441 16.6458H16.8894L18.4888 18.1733C18.5435 18.2259 18.6086 18.2676 18.6803 18.2961C18.752 18.3245 18.8288 18.3392 18.9065 18.3392C18.9841 18.3392 19.061 18.3245 19.1327 18.2961C19.2044 18.2676 19.2694 18.2259 19.3242 18.1733L20.9236 16.6458H27.7689C27.9255 16.6458 28.0761 16.5866 28.1866 16.4805L28.9505 15.7509L29.7145 16.4805C29.7693 16.533 29.8344 16.5746 29.9061 16.603C29.9777 16.6313 30.0546 16.6459 30.1322 16.6458H34.8588C35.6233 16.6458 36.1734 16.3891 36.5515 16.0122C36.5982 16.2317 36.6313 16.4466 36.6313 16.6458V18.3386H33.6772C32.8642 18.3386 31.8172 18.7528 31.2424 19.3018C31.1875 19.3542 31.144 19.4164 31.1143 19.4849C31.0846 19.5533 31.0693 19.6267 31.0693 19.7008C31.0693 19.7748 31.0846 19.8482 31.1143 19.9167C31.144 19.9851 31.1875 20.0473 31.2424 20.0997C31.2972 20.1521 31.3623 20.1936 31.434 20.222C31.5057 20.2503 31.5825 20.2649 31.6601 20.2649C31.7376 20.2649 31.8145 20.2503 31.8861 20.222C31.9578 20.1936 32.0229 20.1521 32.0778 20.0997C32.4246 19.7685 33.1868 19.4672 33.6772 19.4672H34.8588V20.0314C34.8588 20.6538 34.3288 21.1599 33.6772 21.1599H31.9047C31.748 21.1599 31.5977 21.2194 31.4869 21.3252C31.3761 21.431 31.3138 21.5746 31.3138 21.7242C31.3138 21.8739 31.3761 22.0174 31.4869 22.1232C31.5977 22.229 31.748 22.2885 31.9047 22.2885H33.6772C34.9805 22.2885 36.0405 21.2762 36.0405 20.0314V19.4672H36.6313V22.2885C36.6313 23.2218 35.836 23.9813 34.8588 23.9813H30.3768ZM28.7059 23.9813H8.8116L9.33094 23.4853C9.67775 23.154 10.4399 22.8527 10.9303 22.8527H26.5872C27.0776 22.8527 27.8398 23.154 28.1866 23.4853L28.7059 23.9813ZM6.82996 9.87468H30.983C31.5555 10.5975 32.2095 11.2814 32.7903 11.7255L33.5011 12.2683L29.3222 13.8646L29.321 13.8651C29.2473 13.8935 29.1804 13.9357 29.1242 13.9893L28.5334 14.5535L27.5243 15.5173H20.679C20.6014 15.5172 20.5245 15.5318 20.4528 15.5602C20.3811 15.5885 20.316 15.6302 20.2612 15.6826L18.9065 16.9765L17.5517 15.6826C17.4969 15.6302 17.4318 15.5885 17.3601 15.5602C17.2884 15.5318 17.2116 15.5172 17.134 15.5173H10.2887L9.28012 14.5541L8.6893 13.9898C8.6331 13.9363 8.56619 13.8941 8.49255 13.8657L8.49137 13.8651L4.31245 12.2688L5.02321 11.726C5.60341 11.2814 6.25745 10.5975 6.82996 9.87468ZM36.0056 14.6252C35.8868 15.2149 35.504 15.5173 34.8588 15.5173H30.3768L29.786 14.953L29.8734 14.8695L34.5616 13.0786L35.0071 13.4194C35.3817 13.7055 35.7273 14.1405 36.0056 14.6252ZM33.0863 8.74615H34.8588V9.41198L33.0863 9.75054V8.74615ZM8.01457 8.05323L9.01248 5.95643C9.45796 5.02145 10.7418 4.23204 11.8165 4.23204H25.9964C27.0711 4.23204 28.355 5.02145 28.7999 5.95587L29.7984 8.05323C29.9024 8.27104 30.0377 8.50634 30.186 8.74615H7.62699C7.77529 8.50634 7.91118 8.27104 8.01457 8.05323ZM2.95414 8.74615H4.72662V9.75054L2.95414 9.41198V8.74615ZM2.80525 13.4194L3.25073 13.0786L7.93954 14.8695L8.02698 14.953L7.43615 15.5173H2.95414C2.30895 15.5173 1.9261 15.2149 1.80734 14.6252C2.08562 14.1405 2.43066 13.7055 2.80525 13.4194ZM6.4991 26.8026H1.77248C1.44694 26.8026 1.18165 26.5492 1.18165 26.2383V24.5314C1.6902 24.9044 2.31292 25.1076 2.95414 25.1098H7.08993V26.2383C7.08993 26.5492 6.82465 26.8026 6.4991 26.8026ZM36.0405 26.8026H31.3138C30.9883 26.8026 30.723 26.5492 30.723 26.2383V25.1098H34.8588C35.5264 25.1098 36.1362 24.8892 36.6313 24.5314V26.2383C36.6313 26.5492 36.366 26.8026 36.0405 26.8026Z" fill="#46D993"/>
</svg>
