<svg width="15" height="10" viewBox="0 0 15 10" fill="none" xmlns="http://www.w3.org/2000/svg">
<path d="M2.73906 6.71013C1.96789 6.55953 1.27303 6.14561 0.773378 5.53921C0.273725 4.93281 0.000338674 4.17161 0 3.38588C0 1.51699 1.51699 0 3.38588 0C5.25477 0 6.77176 1.51699 6.77176 3.38588C6.77176 5.87641 5.93275 7.42322 4.94793 8.39014C3.44022 9.87068 1.55211 9.99925 1.55211 9.99925C1.45807 10.0062 1.36399 9.98624 1.28088 9.94168C1.19778 9.89711 1.12909 9.8298 1.08285 9.74761C1.03661 9.66543 1.01474 9.57177 1.01979 9.47761C1.02485 9.38344 1.05662 9.29267 1.1114 9.2159C1.1114 9.2159 2.00873 7.95274 2.56807 7.0183C2.62639 6.92021 2.68538 6.81219 2.73906 6.71013ZM10.216 6.71013C9.4448 6.55953 8.74993 6.14561 8.25028 5.53921C7.75063 4.93281 7.47724 4.17161 7.4769 3.38588C7.4769 1.51699 8.99389 0 10.8628 0C12.7317 0 14.2487 1.51699 14.2487 3.38588C14.2487 5.87641 13.4096 7.42322 12.4248 8.39014C10.9171 9.87068 9.02901 9.99925 9.02901 9.99925C8.93497 10.0062 8.84089 9.98624 8.75779 9.94168C8.67468 9.89711 8.60599 9.8298 8.55975 9.74761C8.51351 9.66543 8.49164 9.57177 8.4967 9.47761C8.50175 9.38344 8.53353 9.29267 8.5883 9.2159C8.5883 9.2159 9.48563 7.95274 10.045 7.0183C10.1033 6.92021 10.1623 6.81219 10.216 6.71013Z" fill="#46D993"/>
</svg>
