<svg width="534" height="197" viewBox="0 0 534 197" fill="none" xmlns="http://www.w3.org/2000/svg">
<path d="M277.057 197C418.963 197 534 189.389 534 180C534 170.611 418.963 163 277.057 163C135.151 163 20.1133 170.611 20.1133 180C20.1133 189.389 135.151 197 277.057 197Z" fill="#DBEBF2"/>
<path d="M312.55 114.899C312.55 182.298 274.776 176.509 228.181 176.509C181.587 176.509 143.812 179.861 143.812 114.899C143.812 68.2929 181.587 41.8301 228.181 41.8301C274.776 41.8301 312.55 68.2929 312.55 114.899Z" fill="#13141A"/>
<path opacity="0.28" d="M233.21 48.2596C233.21 48.2596 163.018 41.8304 157.572 127.205C157.572 127.205 152.083 178.066 228.182 176.509C228.182 176.509 293.199 178.997 296.388 136.784C299.341 97.6929 296.13 52.3998 233.21 48.2596Z" fill="#8D8DB1"/>
<path d="M271.732 153.435C295.788 129.375 295.788 90.3656 271.732 66.3056C247.677 42.2456 208.675 42.2456 184.619 66.3056C160.563 90.3656 160.563 129.375 184.619 153.435C208.675 177.495 247.677 177.495 271.732 153.435Z" fill="#8D8DB1"/>
<path d="M268.289 149.994C290.445 127.835 290.445 91.9073 268.289 69.7479C246.134 47.5885 210.213 47.5885 188.057 69.7479C165.902 91.9073 165.902 127.835 188.057 149.994C210.213 172.154 246.134 172.154 268.289 149.994Z" fill="#BDBDD8"/>
<path d="M228.103 61.1152H238.219C239.722 61.1152 240.76 62.6272 240.216 64.0297L234.722 78.2373L230.1 90.1924C229.393 92.0185 226.81 92.0185 226.106 90.1924L221.484 78.2373L215.99 64.0297C215.446 62.6272 216.484 61.1152 217.987 61.1152H228.103Z" fill="#13141A"/>
<path d="M228.103 158.193H217.987C216.484 158.193 215.446 156.681 215.99 155.278L221.484 141.071L226.106 129.116C226.813 127.29 229.396 127.29 230.1 129.116L234.722 141.071L240.216 155.278C240.76 156.681 239.722 158.193 238.219 158.193H228.103Z" fill="#13141A"/>
<path d="M262.418 75.3293L269.572 82.485C270.635 83.5481 270.302 85.3489 268.925 85.9576L254.994 92.1175L243.271 97.3012C241.482 98.0923 239.656 96.2662 240.447 94.4766L245.63 82.7514L251.789 68.8188C252.397 67.4415 254.198 67.1077 255.261 68.1708L262.418 75.3293Z" fill="#13141A"/>
<path d="M193.786 143.971L186.632 136.816C185.569 135.752 185.902 133.952 187.279 133.343L201.21 127.183L212.933 121.999C214.722 121.208 216.548 123.034 215.757 124.824L210.574 136.549L204.415 150.482C203.807 151.859 202.006 152.193 200.943 151.13L193.786 143.971Z" fill="#13141A"/>
<path d="M276.636 109.651V119.769C276.636 121.273 275.125 122.31 273.723 121.766L259.518 116.271L247.565 111.649C245.739 110.942 245.739 108.358 247.565 107.654L259.518 103.031L273.723 97.5363C275.125 96.9921 276.636 98.03 276.636 99.5335V109.651Z" fill="#13141A"/>
<path d="M179.578 109.651V99.5335C179.578 98.03 181.09 96.9921 182.492 97.5363L196.697 103.031L208.65 107.651C210.476 108.358 210.476 110.942 208.65 111.646L196.697 116.268L182.492 121.764C181.09 122.308 179.578 121.27 179.578 119.766V109.651Z" fill="#13141A"/>
<path d="M262.419 143.972L255.265 151.128C254.202 152.191 252.401 151.857 251.793 150.48L245.634 136.547L240.451 124.822C239.66 123.032 241.486 121.206 243.275 121.997L254.998 127.181L268.928 133.341C270.306 133.95 270.639 135.75 269.576 136.814L262.419 143.972Z" fill="#13141A"/>
<path d="M193.785 75.3304L200.939 68.1747C202.002 67.1116 203.803 67.4454 204.411 68.8227L210.57 82.7554L215.753 94.4805C216.544 96.2701 214.718 98.0962 212.929 97.3051L201.206 92.1214L187.276 85.9615C185.899 85.3528 185.565 83.552 186.628 82.4889L193.785 75.3304Z" fill="#13141A"/>
<path d="M240.028 112.687C241.573 106.144 237.522 99.5871 230.98 98.0424C224.438 96.4976 217.882 100.55 216.337 107.093C214.792 113.636 218.843 120.193 225.385 121.737C231.927 123.282 238.483 119.23 240.028 112.687Z" fill="#13141A"/>
<path d="M228.173 114.903C230.95 114.903 233.202 112.651 233.202 109.873C233.202 107.096 230.95 104.844 228.173 104.844C225.396 104.844 223.145 107.096 223.145 109.873C223.145 112.651 225.396 114.903 228.173 114.903Z" fill="#13141A"/>
<path opacity="0.28" d="M181.577 59.2158C181.577 59.2158 145.9 86.8315 152.376 125.191C152.376 125.191 138.558 86.0742 181.577 59.2158Z" fill="#8D8DB1"/>
<path opacity="0.28" d="M292 73.3398C292 73.3398 305.226 95.1575 304.298 133.222C304.298 133.219 310.796 93.3006 292 73.3398Z" fill="#8D8DB1"/>
<path d="M392.58 145.003H326.539V111.693L394.844 21H427.587V111.025H450.214V145.006H427.587V176.635H392.58V145.003ZM392.58 75.9537L366.773 111.025H392.58V75.9537Z" fill="#13141A"/>
<path d="M66.0413 145.003H0L4.64151 111.693L72.9461 21H101.048V111.025H123.675V145.006H101.048V176.635H66.0413V145.003ZM66.0413 75.9537L40.2339 111.025H66.0413V75.9537Z" fill="#13141A"/>
<path d="M485.574 48.9678H481.633V88.4096H485.574V48.9678Z" fill="#BDBDD8"/>
<path d="M504.214 45.3838H462.418V48.9686H504.214V45.3838Z" fill="#1A272E"/>
<path d="M463.358 49.9641H462.452C462.152 49.9641 461.91 49.7201 461.91 49.4228V44.9291C461.91 44.6289 462.154 44.3877 462.452 44.3877H463.358C463.658 44.3877 463.899 44.6317 463.899 44.9291V49.4228C463.899 49.7229 463.658 49.9641 463.358 49.9641Z" fill="#1A272E"/>
<path d="M504.67 49.9641H503.764C503.464 49.9641 503.223 49.7201 503.223 49.4228V44.9291C503.223 44.6289 503.467 44.3877 503.764 44.3877H504.67C504.971 44.3877 505.212 44.6317 505.212 44.9291V49.4228C505.212 49.7229 504.971 49.9641 504.67 49.9641Z" fill="#1A272E"/>
<path d="M488.176 44.7559H478.887V49.6002H488.176V44.7559Z" fill="#BDBDD8"/>
<path opacity="0.33" d="M481.633 49.5996H485.574L481.633 51.7932V49.5996Z" fill="#1A272E"/>
<path d="M492.043 169.172H475.168V88.5609C475.168 85.3239 477.79 82.7012 481.027 82.7012H486.184C489.421 82.7012 492.043 85.3239 492.043 88.5609V169.172V169.172Z" fill="#EA4230"/>
<mask id="mask0_1655_230" style="mask-type:luminance" maskUnits="userSpaceOnUse" x="475" y="82" width="18" height="88">
<path d="M492.055 169.173H475.18V88.5619C475.18 85.3249 477.802 82.7021 481.039 82.7021H486.196C489.433 82.7021 492.055 85.3249 492.055 88.5619V169.173V169.173Z" fill="white"/>
</mask>
<g mask="url(#mask0_1655_230)">
<path d="M495.154 80.2051H483.543V172.429H495.154V80.2051Z" fill="#C1271B"/>
</g>
<path d="M498.161 176.056H469.375C469.375 172.05 472.623 168.802 476.628 168.802H490.906C494.913 168.802 498.161 172.05 498.161 176.056Z" fill="#1A272E"/>
<path d="M499.701 177.666H467.746C467.455 177.666 467.219 177.43 467.219 177.138V176.165C467.219 175.873 467.455 175.638 467.746 175.638H499.701C499.993 175.638 500.228 175.873 500.228 176.165V177.138C500.228 177.43 499.993 177.666 499.701 177.666Z" fill="#1A272E"/>
<path d="M487.585 83.6657H479.637C478.891 83.6657 478.285 83.0598 478.285 82.3136V81.5591C478.285 80.8129 478.891 80.207 479.637 80.207H487.585C488.331 80.207 488.937 80.8129 488.937 81.5591V82.3136C488.937 83.0598 488.331 83.6657 487.585 83.6657Z" fill="#1A272E"/>
<path opacity="0.32" d="M479.217 130.579C478.291 130.579 477.539 129.827 477.539 128.902V117.491C477.539 116.565 478.291 115.813 479.217 115.813C480.142 115.813 480.894 116.565 480.894 117.491V128.902C480.897 129.827 480.145 130.579 479.217 130.579Z" fill="#13141A"/>
<path opacity="0.32" d="M479.217 136.06C478.291 136.06 477.539 135.308 477.539 134.382V133.215C477.539 132.29 478.291 131.538 479.217 131.538C480.142 131.538 480.894 132.29 480.894 133.215V134.382C480.897 135.308 480.145 136.06 479.217 136.06Z" fill="#13141A"/>
<path d="M497.736 103.523C499.001 95.724 493.706 88.3756 485.909 87.1099C478.111 85.8442 470.764 91.1404 469.499 98.9393C468.233 106.738 473.528 114.087 481.326 115.352C489.123 116.618 496.47 111.322 497.736 103.523Z" fill="#1A272E"/>
<path d="M488.418 112.818C494.817 110.167 497.856 102.828 495.205 96.4277C492.555 90.027 485.218 86.9875 478.818 89.6388C472.419 92.2901 469.38 99.6283 472.03 106.029C474.681 112.43 482.018 115.469 488.418 112.818Z" fill="#13141A"/>
<mask id="mask1_1655_230" style="mask-type:luminance" maskUnits="userSpaceOnUse" x="471" y="88" width="26" height="26">
<path d="M488.422 112.818C494.821 110.167 497.86 102.828 495.209 96.4277C492.558 90.027 485.222 86.9875 478.822 89.6388C472.422 92.2901 469.384 99.6283 472.034 106.029C474.685 112.43 482.022 115.469 488.422 112.818Z" fill="white"/>
</mask>
<g mask="url(#mask1_1655_230)">
<path d="M491.314 90.3457C491.314 90.3457 491.774 107.221 476.153 112.295C476.153 112.295 487.36 119.485 496.152 109.849C504.947 100.214 491.314 90.3457 491.314 90.3457Z" fill="#BDBDD8"/>
</g>
<path d="M483.729 103.211C484.82 103.211 485.704 102.327 485.704 101.236C485.704 100.146 484.82 99.2617 483.729 99.2617C482.638 99.2617 481.754 100.146 481.754 101.236C481.754 102.327 482.638 103.211 483.729 103.211Z" fill="#1A272E"/>
<path d="M484.089 90.3467H483.379V93.7408H484.089V90.3467Z" fill="#1A272E"/>
<path d="M484.089 108.902H483.379V112.296H484.089V108.902Z" fill="#1A272E"/>
<path d="M494.703 101.676V100.966H491.309V101.676H494.703Z" fill="#1A272E"/>
<path d="M476.149 101.677V100.968H472.754V101.677H476.149Z" fill="#1A272E"/>
<path d="M491.732 93.8105L491.231 93.3086L488.831 95.7088L489.333 96.2107L491.732 93.8105Z" fill="#1A272E"/>
<path d="M478.611 106.932L478.11 106.43L475.71 108.83L476.212 109.332L478.611 106.932Z" fill="#1A272E"/>
<path d="M491.237 109.33L491.739 108.828L489.339 106.428L488.837 106.93L491.237 109.33Z" fill="#1A272E"/>
<path d="M478.12 96.2099L478.621 95.708L476.222 93.3078L475.72 93.8096L478.12 96.2099Z" fill="#1A272E"/>
<path d="M488.307 96.7432L484.027 100.109L483.727 101.324L484.941 101.024L488.307 96.7432Z" fill="#F1BF46"/>
<path d="M230.906 161.162H225.457V166.612H230.906V161.162Z" fill="#1A272E"/>
<path d="M398.298 169.429C387.237 169.429 376.787 166.363 366.354 160.057C357.125 154.481 349.05 147.216 340.499 139.524C323.986 124.669 306.912 109.308 281.161 107.485C267.239 106.497 255.85 109.995 247.307 117.883C230.528 133.373 230.079 160.904 230.076 161.179L226.293 161.145C226.296 160.845 226.38 153.718 228.665 144.475C230.788 135.892 235.295 123.83 244.727 115.117C254.069 106.483 266.417 102.646 281.433 103.709C308.48 105.625 326.047 121.429 343.035 136.711C359.576 151.591 375.197 165.645 398.304 165.645C425.157 165.645 437.222 160.147 446.915 155.726C454.361 152.332 460.792 149.401 471.255 150.22L470.961 153.993C461.467 153.249 455.741 155.861 448.485 159.171C438.451 163.74 425.973 169.429 398.298 169.429Z" fill="#EA4230"/>
<path d="M475.112 148.097H467.094V156.116H475.112V148.097Z" fill="#1A272E"/>
<path d="M118.698 6.19013C122.526 6.81416 126.442 8.27024 128.964 11.3592C129.978 12.6021 130.727 14.1154 131.065 15.6963C128.262 16.4243 125.656 17.974 123.633 20.0125C122.411 21.245 120.529 23.6319 122.115 25.3168C123.545 26.8353 126.457 26.1853 128.085 25.4C131.351 23.8243 133.015 20.4597 132.906 17.0327C136.379 16.5283 139.91 17.6724 142.407 20.1529C144.419 22.155 145.516 24.8696 145.199 27.6309C142.713 27.7869 140.191 28.5618 137.929 29.5602C136 30.4079 134.315 32.0668 134.689 34.3393C135.084 36.7315 137.555 37.0279 139.531 36.539C141.429 36.071 143.145 34.9166 144.393 33.4241C145.395 32.2344 146.128 30.8417 146.541 29.3418C149.167 29.4822 151.736 30.5119 152.672 33.1745C153.889 36.6378 151.965 40.6629 149.281 42.873C148.6 43.4346 147.836 43.8819 147.035 44.2459C146.057 44.6931 146.905 46.1388 147.882 45.6916C151.824 43.8923 154.653 39.7632 154.695 35.4002C154.721 33.0392 153.764 30.8759 151.876 29.4406C150.431 28.3382 148.657 27.7713 146.858 27.6361C147.05 25.738 146.718 23.7879 145.807 21.9886C143.915 18.2496 139.978 15.7223 135.844 15.3062C134.793 15.2022 133.743 15.2334 132.708 15.379C132.646 15.0618 132.568 14.7446 132.474 14.4326C131.054 9.83553 127.055 6.82456 122.619 5.39968C121.486 5.03566 120.321 4.77564 119.146 4.58323C118.09 4.40122 117.638 6.01852 118.698 6.19013ZM137.929 35.0882C137.107 35.1142 136.421 34.8229 136.322 33.9389C136.234 33.1849 136.587 32.5088 137.123 32.0044C137.809 31.3595 138.73 31.0007 139.598 30.6835C140.67 30.2935 141.762 29.9347 142.875 29.6747C143.483 29.529 144.138 29.425 144.814 29.3678C143.816 32.2696 141.143 34.9894 137.929 35.0882ZM130.118 21.4426C129.203 22.8311 127.778 23.9231 126.161 24.3392C125.391 24.5368 124.445 24.6356 123.68 24.3652C122.843 24.0635 123.347 23.0599 123.68 22.5294C124.616 21.0422 126.239 19.8097 127.721 18.9152C128.825 18.2471 130.015 17.7311 131.257 17.3812C131.278 18.7956 130.935 20.1945 130.118 21.4426Z" fill="url(#paint0_linear_1655_230)"/>
<path d="M110.436 6.43948C113.405 7.86436 116.375 9.28925 119.349 10.7193C120.322 11.1874 121.112 9.70527 120.14 9.24244L112.698 5.66984L120.592 1.53561C120.993 1.3276 121.076 0.734761 120.847 0.375941C120.587 -0.0348825 120.093 -0.0920846 119.687 0.121127C116.583 1.74362 113.483 3.37131 110.379 4.9938C109.828 5.28502 109.9 6.18467 110.436 6.43948Z" fill="url(#paint1_linear_1655_230)"/>
<path d="M372.997 6.19013C369.17 6.81416 365.254 8.27024 362.732 11.3592C361.718 12.6021 360.969 14.1154 360.631 15.6963C363.434 16.4243 366.039 17.974 368.062 20.0125C369.284 21.245 371.166 23.6319 369.58 25.3168C368.15 26.8353 365.238 26.1853 363.61 25.4C360.345 23.8243 358.681 20.4597 358.79 17.0327C355.316 16.5283 351.785 17.6724 349.289 20.1529C347.276 22.155 346.179 24.8696 346.496 27.6309C348.982 27.7869 351.504 28.5618 353.766 29.5602C355.696 30.4079 357.38 32.0668 357.006 34.3393C356.611 36.7315 354.141 37.0279 352.165 36.539C350.266 36.071 348.55 34.9166 347.302 33.4241C346.3 32.2344 345.567 30.8417 345.155 29.3418C342.528 29.4822 339.959 30.5119 339.023 33.1745C337.807 36.6378 339.731 40.6629 342.414 42.873C343.095 43.4346 343.86 43.8819 344.661 44.2459C345.638 44.6931 344.791 46.1388 343.813 45.6916C339.871 43.8923 337.042 39.7632 337.001 35.4002C336.975 33.0392 337.931 30.8759 339.819 29.4406C341.265 28.3382 343.038 27.7713 344.837 27.6361C344.645 25.738 344.978 23.7879 345.888 21.9886C347.781 18.2496 351.717 15.7223 355.852 15.3062C356.902 15.2022 357.952 15.2334 358.987 15.379C359.05 15.0618 359.128 14.7446 359.221 14.4326C360.641 9.83553 364.64 6.82456 369.076 5.39968C370.21 5.03566 371.374 4.77564 372.55 4.58323C373.605 4.40122 374.058 6.01852 372.997 6.19013ZM353.766 35.0882C354.588 35.1142 355.274 34.8229 355.373 33.9389C355.462 33.1849 355.108 32.5088 354.572 32.0044C353.886 31.3595 352.965 31.0007 352.097 30.6835C351.026 30.2935 349.934 29.9347 348.821 29.6747C348.212 29.529 347.557 29.425 346.881 29.3678C347.88 32.2696 350.552 34.9894 353.766 35.0882ZM361.577 21.4426C362.492 22.8311 363.917 23.9231 365.535 24.3392C366.304 24.5368 367.251 24.6356 368.015 24.3652C368.852 24.0635 368.348 23.0599 368.015 22.5294C367.079 21.0422 365.457 19.8097 363.974 18.9152C362.87 18.2471 361.681 17.7311 360.438 17.3812C360.417 18.7956 360.761 20.1945 361.577 21.4426Z" fill="url(#paint2_linear_1655_230)"/>
<path d="M381.259 6.43948C378.29 7.86436 375.32 9.28925 372.346 10.7193C371.373 11.1874 370.583 9.70527 371.555 9.24244L378.997 5.66984L371.103 1.53561C370.703 1.3276 370.619 0.734761 370.848 0.375941C371.108 -0.0348825 371.602 -0.0920846 372.008 0.121127C375.112 1.74362 378.212 3.37131 381.316 4.9938C381.868 5.28502 381.795 6.18467 381.259 6.43948Z" fill="url(#paint3_linear_1655_230)"/>
<defs>
<linearGradient id="paint0_linear_1655_230" x1="121.612" y1="4.41199" x2="150.345" y2="45.7694" gradientUnits="userSpaceOnUse">
<stop stop-color="#46D993"/>
<stop offset="1" stop-color="#46D993" stop-opacity="0"/>
</linearGradient>
<linearGradient id="paint1_linear_1655_230" x1="111.053" y1="-0.0414508" x2="118.193" y2="11.7044" gradientUnits="userSpaceOnUse">
<stop stop-color="#46D993"/>
<stop offset="1" stop-color="#46D993" stop-opacity="0"/>
</linearGradient>
<linearGradient id="paint2_linear_1655_230" x1="370.083" y1="4.41199" x2="341.35" y2="45.7694" gradientUnits="userSpaceOnUse">
<stop stop-color="#46D993"/>
<stop offset="1" stop-color="#46D993" stop-opacity="0"/>
</linearGradient>
<linearGradient id="paint3_linear_1655_230" x1="380.642" y1="-0.0414508" x2="373.502" y2="11.7044" gradientUnits="userSpaceOnUse">
<stop stop-color="#46D993"/>
<stop offset="1" stop-color="#46D993" stop-opacity="0"/>
</linearGradient>
</defs>
</svg>
