<svg width="144" height="42" viewBox="0 0 144 42" fill="none" xmlns="http://www.w3.org/2000/svg">
<path d="M14.97 36.1075C12.0683 38.2467 9.87647 39.1977 8.79685 38.7853C8.39299 38.6306 8.13994 38.2941 8.02611 37.7628C7.96955 37.3796 7.9362 36.9972 7.9043 36.6271C7.84484 35.9396 7.78321 35.2287 7.57222 34.493C7.43083 33.8858 7.07845 33.6683 6.80727 33.5924C6.22795 33.4311 5.42965 33.7646 4.77565 34.4405C4.04478 35.1608 3.58002 36.1381 3.17035 37.0001C2.79912 37.7745 2.23647 38.9437 1.99575 38.9196C1.77533 38.897 1.53751 37.9511 1.20616 36.6395C1.17208 36.2841 0.954559 35.7199 0.526772 35.7199C0.368708 35.7097 0.211369 35.7936 0.10696 35.9491C-0.00687549 36.1192 -0.0322527 36.3257 0.0424289 36.4768C0.0968086 36.5863 0.198318 36.6585 0.333179 36.6855C0.366532 36.849 0.398435 37.0067 0.428888 37.1585C0.652208 38.2701 0.813172 39.0729 1.27721 39.6751C1.51431 39.9612 1.76808 40.1057 2.032 40.1057C2.06463 40.1057 2.09726 40.1035 2.12989 40.0991C2.93906 39.9911 3.646 38.5839 4.30145 37.149C4.90616 35.7243 5.78203 34.6171 6.26058 34.685C6.52812 34.7222 6.63833 35.1514 6.68329 35.5002C6.69924 35.6951 6.71302 35.8892 6.72679 36.0834C6.76885 36.6702 6.81235 37.2767 6.91023 37.8548C7.05452 38.7926 7.46563 39.4079 8.13197 39.6838C10.1585 40.5239 13.881 38.0088 15.3971 36.8804C15.5392 36.7461 15.4841 36.3242 15.3405 36.1498C15.2412 36.0301 15.0991 36.0133 14.97 36.1075Z" fill="#5E5E5E"/>
<path d="M32.6209 36.046C32.5309 36.0234 32.4418 36.0504 32.391 36.1088C30.6117 37.5072 28.1276 38.7326 26.8783 38.1188C26.3599 37.8641 26.0967 37.2984 26.0967 36.4372C26.0967 35.865 26.2265 35.4534 26.3643 35.0176C26.4411 34.7739 26.5209 34.522 26.5753 34.2483C26.6746 33.9681 26.5898 33.6469 26.3694 33.4689C26.191 33.3243 25.9619 33.3046 25.7451 33.4127C25.1106 32.8879 24.1173 32.8879 22.9354 33.4163C21.0394 34.2637 18.8359 36.4737 18.8359 38.0539C18.8359 39.0144 19.3275 39.3581 19.7401 39.4771C19.8887 39.5202 20.0519 39.5406 20.2259 39.5406C21.6144 39.5406 23.7033 38.2356 24.8387 36.6087C24.9548 37.7802 25.4601 38.5918 26.3121 38.9669C28.087 39.7486 30.9278 38.5115 32.8202 36.8824C32.9428 36.7664 32.987 36.5978 32.9406 36.419C32.8935 36.2336 32.7615 36.081 32.6209 36.046ZM24.962 34.5235L24.9577 34.5315C23.7751 36.9795 21.3019 38.7027 20.3723 38.4874C20.1353 38.4327 20.02 38.2502 20.02 37.9312C20.02 37.3349 20.6493 36.3744 21.6231 35.4855C22.6606 34.5381 23.7613 33.9484 24.4762 33.9484C24.5154 33.9484 24.5545 33.9506 24.5915 33.9542C24.7256 33.9666 24.8721 34.079 24.9468 34.2272C25.0026 34.3367 25.0077 34.4447 24.962 34.5235Z" fill="#5E5E5E"/>
<path d="M57.4126 36.0567C57.3162 36.021 57.2205 36.0421 57.1531 36.1129C54.0193 38.3602 50.2606 39.7396 46.8376 39.8966C43.1564 40.0666 40.1395 38.8025 38.3304 36.3377C44.1744 31.8921 49.7284 25.7598 53.2102 19.9049C57.9013 20.0049 63.8374 19.864 68.2908 17.9138H68.2915C69.0267 17.5868 69.3566 17.2693 69.2718 16.9708C69.1906 16.6847 68.7425 16.5694 68.356 16.6241C67.9768 16.6774 67.7296 16.8818 67.694 17.1642C63.4532 18.9794 58.0101 19.1509 53.6887 19.0838C56.1141 14.8155 57.3952 10.7553 57.3952 7.3315C57.3952 3.118 55.6478 0.702148 52.6011 0.702148C48.6568 0.702148 44.9299 2.59979 41.8238 6.19072C39.1026 9.33716 36.9318 13.7185 35.7064 18.5364C32.9461 18.678 30.9145 19.0378 29.3179 19.6677C27.2493 20.4778 26.042 21.3354 25.8252 22.1543C25.7738 22.4119 25.8194 22.6418 25.9572 22.8192C26.1203 23.0294 26.3995 23.1491 26.7613 23.1659C26.9969 23.1863 27.2398 23.0272 27.3138 22.8039C27.3493 22.6966 27.3899 22.4302 27.0477 22.185C27.1485 21.7142 27.9178 21.1602 29.3345 20.5369C30.8499 19.8779 32.8199 19.5042 35.5251 19.364C34.9654 21.7835 34.6819 24.2154 34.6819 26.5992C34.8226 30.7776 35.6876 34.1284 37.253 36.5596C38.627 38.6835 40.8022 40.079 43.5443 40.5958C44.3637 40.7505 45.2178 40.8257 46.0944 40.8257C49.8872 40.8257 54.0911 39.4141 57.5881 36.8837C57.6715 36.8056 57.7186 36.6881 57.7186 36.5618C57.7193 36.3414 57.5845 36.1202 57.4126 36.0567ZM52.1567 19.8976C48.7474 25.4693 43.5509 31.1805 37.8613 35.6057C35.6129 31.39 35.1372 25.4686 36.5547 19.3224C39.5369 19.2494 42.8679 19.4305 46.3931 19.6224C48.2819 19.7253 50.2331 19.8311 52.1567 19.8976ZM36.7701 18.4962C38.8844 10.3685 44.6573 1.67725 52.4075 1.67725C54.9489 1.67725 56.407 3.70481 56.407 7.23881C56.407 10.7969 55.1396 14.7695 52.6388 19.0473C50.6057 18.9903 48.5284 18.8787 46.5178 18.7714C43.6705 18.6188 40.9508 18.4736 38.4131 18.4736C37.8569 18.4736 37.3081 18.4809 36.7701 18.4962Z" fill="#5E5E5E"/>
<path d="M78.8157 36.112C76.8007 37.841 73.4263 39.3832 71.8043 38.8315C71.304 38.6614 70.9915 38.2994 70.8769 37.771C70.7602 36.147 71.259 35.1332 71.7419 34.153L71.8717 33.8874C72.1074 33.31 72.1204 32.9495 71.9116 32.8174C71.6926 32.6787 71.3091 32.8765 70.8878 33.3458C70.0627 34.2136 69.2093 35.1106 68.3 35.9989C66.5613 37.8885 63.846 39.2847 62.8178 38.8176C62.5213 38.6833 62.3937 38.3884 62.4394 37.9308C62.4394 37.6067 62.5923 37.2717 62.7403 36.9477C62.9592 36.4682 63.1854 35.9726 62.7453 35.6456C62.4183 35.4405 61.8731 35.5449 61.6643 35.8536C61.6063 35.939 61.4569 36.2346 61.855 36.5681C61.8158 36.6944 61.7752 36.8097 61.7368 36.9199C61.6179 37.2586 61.5156 37.5505 61.5156 37.9615C61.5156 38.7796 61.8361 39.3526 62.4415 39.6168C63.8221 40.2197 66.3873 39.1322 68.6778 36.9725C68.9664 36.701 69.5544 36.128 69.9923 35.6814C69.7705 36.3725 69.6972 37.1389 69.793 37.8556C69.9401 38.8096 70.4143 39.4438 71.2039 39.7416C71.5425 39.8693 71.9304 39.9277 72.3524 39.9277C74.4254 39.9277 77.3264 38.5132 79.2492 36.8813C79.3914 36.747 79.3362 36.3251 79.1927 36.1507C79.0926 36.0295 78.9505 36.0127 78.8157 36.112Z" fill="#5E5E5E"/>
<path d="M99.1776 36.0692C99.0623 36.0122 98.9369 36.0276 98.8368 36.1064C90.6436 41.9351 89.8997 40.9279 88.5482 39.0981C87.9072 38.2295 87.1089 37.1493 85.3572 36.5202C85.1578 36.445 84.9932 36.4034 84.8337 36.3633C84.7894 36.3523 84.7452 36.3407 84.7003 36.329C86.9857 34.3401 86.6652 32.8227 86.4158 32.2549C86.017 31.3484 84.9917 30.7944 83.9883 30.9368C82.8543 31.0017 81.8363 31.8067 81.5129 32.8942C81.1467 34.1263 81.7333 35.4269 83.1225 36.464C83.6373 36.8472 84.1695 37.0209 84.685 37.1888C84.7996 37.226 84.9134 37.2632 85.0251 37.3019C86.5499 37.8602 87.2699 38.8609 87.905 39.7433C88.5728 40.6709 89.1377 41.4563 90.384 41.4563C91.8893 41.4563 94.3886 40.3097 99.2624 36.8829C99.3748 36.7764 99.4256 36.6589 99.4256 36.4998C99.4249 36.3173 99.3234 36.1407 99.1776 36.0692ZM83.8287 35.8787C82.7085 35.1065 82.2155 34.1328 82.4736 33.1986C82.6788 32.4549 83.3632 31.8498 84.0318 31.8206L84.0455 31.8192C84.1267 31.8046 84.2072 31.7973 84.2863 31.7973C84.7894 31.7973 85.239 32.0848 85.4485 32.5622C85.7719 33.2979 85.5116 34.551 83.8287 35.8787Z" fill="#5E5E5E"/>
<path d="M116.554 36.046C116.465 36.0234 116.375 36.0504 116.325 36.1088C114.545 37.5072 112.061 38.7326 110.812 38.1188C110.294 37.8641 110.03 37.2984 110.03 36.4372C110.03 35.865 110.16 35.4534 110.298 35.0176C110.375 34.7739 110.454 34.522 110.509 34.2483C110.608 33.9681 110.523 33.6469 110.303 33.4689C110.125 33.3243 109.895 33.3046 109.679 33.4127C109.044 32.8879 108.051 32.8879 106.869 33.4163C104.973 34.2637 102.77 36.4737 102.77 38.0539C102.77 39.0144 103.261 39.3581 103.674 39.4771C103.822 39.5202 103.985 39.5406 104.159 39.5406C105.548 39.5406 107.637 38.2356 108.772 36.6087C108.888 37.7802 109.394 38.5918 110.246 38.9669C112.021 39.7486 114.861 38.5115 116.754 36.8824C116.876 36.7664 116.921 36.5978 116.874 36.419C116.826 36.2336 116.695 36.081 116.554 36.046ZM108.895 34.5235L108.891 34.5315C107.708 36.9795 105.235 38.7027 104.305 38.4874C104.068 38.4327 103.953 38.2502 103.953 37.9312C103.953 37.3349 104.582 36.3744 105.556 35.4855C106.594 34.5381 107.694 33.9484 108.409 33.9484C108.448 33.9484 108.487 33.9506 108.524 33.9542C108.658 33.9666 108.805 34.079 108.88 34.2272C108.935 34.3367 108.941 34.4447 108.895 34.5235Z" fill="#5E5E5E"/>
<path d="M143.501 36.0691C143.386 36.0129 143.26 36.0268 143.156 36.1093C139.083 39.2988 134.836 41.0548 131.195 41.0548C127.729 41.0548 124.745 39.5805 122.076 36.5494C124.366 34.9532 129.591 30.6061 134.256 25.4233C138.513 20.6953 143.587 13.8032 143.587 7.8183C143.587 3.28804 140.646 0 136.594 0C126.334 0 117.543 14.4214 117.543 26.2269C117.543 35.0714 123.582 42 131.292 42C134.868 42 139.001 40.2804 143.586 36.8815C143.698 36.7749 143.749 36.6574 143.749 36.4983C143.748 36.3173 143.647 36.1407 143.501 36.0691ZM118.629 26.2269C118.629 15.0294 127.118 0.824016 136.659 0.824016C138.152 0.824016 139.496 1.38747 140.545 2.45307C141.849 3.77777 142.617 5.82869 142.598 7.93946C142.499 19.0757 125.03 33.4701 121.555 35.864C119.667 33.2292 118.629 29.8113 118.629 26.2269Z" fill="#5E5E5E"/>
</svg>
