<svg width="34" height="34" viewBox="0 0 34 34" fill="none" xmlns="http://www.w3.org/2000/svg">
<path d="M27.818 17C27.818 14.8604 27.1835 12.7688 25.9948 10.9897C24.8061 9.21069 23.1165 7.8241 21.1398 7.0053C19.163 6.1865 16.9878 5.97226 14.8893 6.38968C12.7908 6.8071 10.8632 7.83743 9.35022 9.35038C7.83727 10.8633 6.80694 12.7909 6.38951 14.8895C5.97209 16.988 6.18633 19.1632 7.00513 21.1399C7.82393 23.1167 9.21053 24.8063 10.9896 25.995C12.7686 27.1837 14.8602 27.8182 16.9998 27.8182C19.868 27.8149 22.6177 26.6741 24.6458 24.646C26.6739 22.6179 27.8147 19.8681 27.818 17ZM7.21195 17C7.21195 15.0641 7.786 13.1717 8.8615 11.5621C9.93701 9.95253 11.4657 8.69799 13.2542 7.95717C15.0427 7.21635 17.0107 7.02252 18.9093 7.40019C20.808 7.77785 22.552 8.71006 23.9209 10.0789C25.2898 11.4478 26.222 13.1918 26.5996 15.0905C26.9773 16.9891 26.7835 18.9571 26.0426 20.7456C25.3018 22.5341 24.0473 24.0628 22.4377 25.1383C20.8281 26.2138 18.9357 26.7879 16.9998 26.7879C14.4048 26.7849 11.917 25.7527 10.0821 23.9177C8.24713 22.0828 7.21495 19.595 7.21195 17Z" fill="#1D1D1D"/>
<path d="M24.0395 10.9485C23.946 10.8654 23.8255 10.8191 23.7004 10.8182C23.5753 10.8174 23.4542 10.862 23.3595 10.9439L16.0238 17.3019L13.2698 14.0894C13.2215 14.0329 13.1615 13.9875 13.094 13.9564C13.0265 13.9253 12.9531 13.9092 12.8788 13.9091H12.8752C12.8003 13.9096 12.7264 13.9265 12.6587 13.9585C12.591 13.9906 12.5311 14.037 12.4831 14.0945L9.90738 17.1854C9.82248 17.2875 9.78019 17.4183 9.7893 17.5507C9.79842 17.6831 9.85824 17.8069 9.95632 17.8964L15.623 23.0479C15.7179 23.1341 15.8415 23.1818 15.9697 23.1818C15.9898 23.1819 16.01 23.1807 16.03 23.1782C16.1032 23.1696 16.1738 23.1454 16.2369 23.1072C16.3 23.069 16.3542 23.0176 16.3957 22.9567L24.123 11.6234C24.1934 11.5199 24.2238 11.3944 24.2084 11.2702C24.1931 11.146 24.133 11.0317 24.0395 10.9485ZM15.878 21.8867L11.015 17.4657L12.8844 15.2222L15.5787 18.3651C15.6228 18.4167 15.6767 18.4591 15.7373 18.4897C15.7978 18.5204 15.8639 18.5388 15.9316 18.5439C15.9993 18.5495 16.0674 18.5414 16.132 18.52C16.1965 18.4987 16.2561 18.4646 16.3071 18.4197L21.0367 14.3207L15.878 21.8867Z" fill="#1D1D1D"/>
<path d="M17 0C13.6377 0 10.3509 0.997032 7.55531 2.86502C4.75968 4.733 2.58074 7.38804 1.29406 10.4944C0.00736586 13.6007 -0.329291 17.0189 0.326658 20.3165C0.982606 23.6142 2.6017 26.6433 4.97919 29.0208C7.35668 31.3983 10.3858 33.0174 13.6835 33.6733C16.9811 34.3293 20.3993 33.9926 23.5056 32.7059C26.612 31.4193 29.267 29.2403 31.135 26.4447C33.003 23.6491 34 20.3623 34 17C33.995 12.4929 32.2023 8.17178 29.0152 4.98476C25.8282 1.79773 21.5071 0.00504497 17 0ZM32.9625 16.7125L31.4078 17.645C31.4175 17.4312 31.4242 17.2164 31.4242 17C31.4232 16.1295 31.3433 15.2608 31.1857 14.4047L32.4489 12.9535C32.7692 14.1816 32.9416 15.4435 32.9625 16.7125ZM32.0934 11.7928L30.9019 13.1621C30.6133 12.1147 30.2067 11.1035 29.6897 10.148L30.4382 8.38821C31.1235 9.45334 31.6792 10.596 32.0934 11.7928ZM27.1191 4.65542C28.0985 5.45994 28.9795 6.37724 29.7438 7.3883L29.0329 9.05894C28.4336 8.15492 27.735 7.32084 26.9502 6.5723L27.1191 4.65542ZM26.1496 3.92288L25.9899 5.73209C25.141 5.0517 24.218 4.46933 23.2385 3.99603L22.8083 2.12861C23.9895 2.59164 25.1112 3.19399 26.1496 3.92288ZM21.6585 1.72524L22.066 3.49633C21.0493 3.11434 19.9925 2.84939 18.9159 2.70661L17.9268 1.05915C19.1928 1.13136 20.4457 1.35498 21.6585 1.72524ZM16.7131 1.03751L17.6455 2.59224C17.4305 2.58197 17.2153 2.57648 17 2.57576C16.1295 2.57684 15.2608 2.65667 14.4047 2.81427L12.9535 1.55061C14.1816 1.23027 15.4435 1.05784 16.7125 1.037L16.7131 1.03751ZM11.7934 1.90658L13.1621 3.09812C12.1147 3.38664 11.1035 3.79331 10.148 4.31027L8.38822 3.56176C9.45334 2.87646 10.5965 2.3208 11.7934 1.90658ZM7.38882 4.25618L9.05894 4.96709C8.15492 5.56635 7.32085 6.26495 6.57231 7.04985L4.65595 6.88088C5.4603 5.90152 6.37743 5.02053 7.38831 4.25618H7.38882ZM3.92289 7.85039L5.7321 8.01009C5.05171 8.85897 4.46934 9.78196 3.99604 10.7615L2.12861 11.1917C2.59165 10.0105 3.194 8.8888 3.92289 7.85039ZM1.72525 12.3415L3.49634 11.934C3.11435 12.9507 2.8494 14.0075 2.70661 15.0841L1.05916 16.0732C1.13139 14.8072 1.35501 13.5543 1.72525 12.3415ZM1.03752 17.2869L2.59225 16.3545C2.58246 16.5688 2.57576 16.7836 2.57576 17C2.57685 17.8705 2.65668 18.7392 2.81428 19.5953L1.55061 21.0465C1.23028 19.8184 1.05785 18.5565 1.03701 17.2874L1.03752 17.2869ZM1.90658 22.2066L3.09813 20.8379C3.38666 21.8853 3.79332 22.8965 4.31028 23.852L3.56176 25.6118C2.87649 24.5466 2.32083 23.4035 1.90658 22.2066ZM6.88089 29.3446C5.9015 28.5401 5.02051 27.6227 4.25619 26.6117L4.9671 24.9411C5.56636 25.8451 6.26497 26.6791 7.04985 27.4277L6.88089 29.3446ZM3.60607 17C3.60607 14.3509 4.39161 11.7613 5.86335 9.55872C7.3351 7.3561 9.42694 5.63937 11.8744 4.62561C14.3218 3.61186 17.0149 3.34661 19.613 3.86342C22.2112 4.38023 24.5978 5.65588 26.4709 7.52905C28.3441 9.40223 29.6198 11.7888 30.1366 14.387C30.6534 16.9851 30.3881 19.6782 29.3744 22.1256C28.3606 24.5731 26.6439 26.6649 24.4413 28.1366C22.2387 29.6084 19.6491 30.3939 17 30.3939C13.449 30.3898 10.0445 28.9774 7.53358 26.4664C5.02261 23.9555 3.61016 20.551 3.60607 17ZM7.85091 30.0771L8.0101 28.2679C8.85898 28.9483 9.78197 29.5307 10.7615 30.004L11.1917 31.8714C10.0105 31.4083 8.88932 30.806 7.85091 30.0771ZM12.3415 32.2747L11.934 30.5037C12.9507 30.8857 14.0075 31.1506 15.0842 31.2934L16.0732 32.9408C14.8072 32.8686 13.5543 32.645 12.3415 32.2747ZM17.2869 32.9625L16.3545 31.4077C16.5688 31.4175 16.7836 31.4242 17 31.4242C17.8705 31.4232 18.7392 31.3433 19.5953 31.1857L21.0465 32.4489C19.8184 32.7692 18.5559 32.9416 17.2869 32.9625ZM22.2066 32.0934L20.8379 30.9019C21.8853 30.6133 22.8965 30.2067 23.852 29.6897L25.6118 30.4382C24.5467 31.1235 23.4035 31.6792 22.2066 32.0934ZM26.6112 29.7438L24.9411 29.0329C25.8451 28.4336 26.6792 27.735 27.4277 26.9501L29.3441 27.1191C28.5397 28.0985 27.6221 28.9795 26.6112 29.7438ZM30.0771 26.1496L28.2679 25.9899C28.9483 25.141 29.5307 24.218 30.004 23.2385L31.8714 22.8083C31.4084 23.9895 30.806 25.1112 30.0771 26.1496ZM32.2748 21.6585L30.5037 22.066C30.8857 21.0493 31.1506 19.9925 31.2934 18.9158L32.9408 17.9268C32.8686 19.1928 32.645 20.4456 32.2748 21.6585Z" fill="#1D1D1D"/>
</svg>
