<svg width="22" height="22" viewBox="0 0 22 22" fill="none" xmlns="http://www.w3.org/2000/svg">
<mask id="mask0_2597_2438" style="mask-type:alpha" maskUnits="userSpaceOnUse" x="0" y="0" width="22" height="23">
<rect y="0.00012207" width="22" height="22" fill="#D9D9D9"/>
</mask>
<g mask="url(#mask0_2597_2438)">
<path d="M12.8333 8.16702L20.9092 9.77119C21.56 9.90869 22 10.4587 22 11.1095V20.4595C22 21.2204 21.3858 21.8345 20.625 21.8345H12.375C12.6317 21.8345 12.8333 21.6329 12.8333 21.3762V20.9179H20.625C20.8725 20.9179 21.0833 20.7162 21.0833 20.4595V11.1095C21.0833 10.8987 20.9367 10.7062 20.7258 10.6604L12.8333 9.10202V8.16702Z" fill="#5E5E5E"/>
<path d="M17.8753 12.6679C18.132 12.6679 18.3337 12.8695 18.3337 13.1262C18.3337 13.3829 18.132 13.5845 17.8753 13.5845H16.042C15.7853 13.5845 15.5837 13.3829 15.5837 13.1262C15.5837 12.8695 15.7853 12.6679 16.042 12.6679H17.8753ZM17.8753 15.4179C18.132 15.4179 18.3337 15.6195 18.3337 15.8762C18.3337 16.1329 18.132 16.3345 17.8753 16.3345H16.042C15.7853 16.3345 15.5837 16.1329 15.5837 15.8762C15.5837 15.6195 15.7853 15.4179 16.042 15.4179H17.8753ZM17.8753 18.1679C18.132 18.1679 18.3337 18.3695 18.3337 18.6262C18.3337 18.8829 18.132 19.0845 17.8753 19.0845H16.042C15.7853 19.0845 15.5837 18.8829 15.5837 18.6262C15.5837 18.3695 15.7853 18.1679 16.042 18.1679H17.8753ZM12.8337 21.3762C12.8337 21.6329 12.632 21.8345 12.3753 21.8345C12.1187 21.8345 11.917 21.6329 11.917 21.3762V8.54285C11.917 8.40535 11.9812 8.27702 12.082 8.18535C12.192 8.10285 12.3295 8.06618 12.467 8.09368L12.8337 8.16702V20.9179V21.3762Z" fill="#5E5E5E"/>
<path d="M11.9167 20.9178V21.3762C11.9167 21.6328 12.1183 21.8345 12.375 21.8345H8.70833C8.965 21.8345 9.16667 21.6328 9.16667 21.3762V20.9178H11.9167ZM9.625 4.41785C9.88167 4.41785 10.0833 4.61951 10.0833 4.87618C10.0833 5.13285 9.88167 5.33451 9.625 5.33451H7.79167C7.535 5.33451 7.33333 5.13285 7.33333 4.87618C7.33333 4.61951 7.535 4.41785 7.79167 4.41785H9.625ZM10.0833 7.62618C10.0833 7.88285 9.88167 8.08451 9.625 8.08451H7.79167C7.535 8.08451 7.33333 7.88285 7.33333 7.62618C7.33333 7.36951 7.535 7.16785 7.79167 7.16785H9.625C9.88167 7.16785 10.0833 7.36951 10.0833 7.62618ZM9.625 9.91785C9.88167 9.91785 10.0833 10.1195 10.0833 10.3762C10.0833 10.6328 9.88167 10.8345 9.625 10.8345H7.79167C7.535 10.8345 7.33333 10.6328 7.33333 10.3762C7.33333 10.1195 7.535 9.91785 7.79167 9.91785H9.625ZM9.625 12.6678C9.88167 12.6678 10.0833 12.8695 10.0833 13.1262C10.0833 13.3828 9.88167 13.5845 9.625 13.5845H7.79167C7.535 13.5845 7.33333 13.3828 7.33333 13.1262C7.33333 12.8695 7.535 12.6678 7.79167 12.6678H9.625ZM5.5 13.1262C5.5 13.3828 5.29833 13.5845 5.04167 13.5845H3.20833C2.95167 13.5845 2.75 13.3828 2.75 13.1262C2.75 12.8695 2.95167 12.6678 3.20833 12.6678H5.04167C5.29833 12.6678 5.5 12.8695 5.5 13.1262ZM5.04167 4.41785C5.29833 4.41785 5.5 4.61951 5.5 4.87618C5.5 5.13285 5.29833 5.33451 5.04167 5.33451H3.20833C2.95167 5.33451 2.75 5.13285 2.75 4.87618C2.75 4.61951 2.95167 4.41785 3.20833 4.41785H5.04167ZM5.04167 7.16785C5.29833 7.16785 5.5 7.36951 5.5 7.62618C5.5 7.88285 5.29833 8.08451 5.04167 8.08451H3.20833C2.95167 8.08451 2.75 7.88285 2.75 7.62618C2.75 7.36951 2.95167 7.16785 3.20833 7.16785H5.04167ZM5.04167 9.91785C5.29833 9.91785 5.5 10.1195 5.5 10.3762C5.5 10.6328 5.29833 10.8345 5.04167 10.8345H3.20833C2.95167 10.8345 2.75 10.6328 2.75 10.3762C2.75 10.1195 2.95167 9.91785 3.20833 9.91785H5.04167ZM8.25 16.7928C8.25 16.5362 8.03917 16.3345 7.79167 16.3345H5.04167C4.785 16.3345 4.58333 16.5362 4.58333 16.7928V20.9178H3.66667V16.7928C3.66667 16.032 4.28083 15.4178 5.04167 15.4178H7.79167C8.5525 15.4178 9.16667 16.032 9.16667 16.7928V20.9178H8.25V16.7928Z" fill="#5E5E5E"/>
<path d="M4.58366 20.9178H9.16699V21.3762C9.16699 21.6328 8.96533 21.8345 8.70866 21.8345H4.12533C3.86866 21.8345 3.66699 21.6328 3.66699 21.3762V20.9178H4.58366Z" fill="#5E5E5E"/>
<path d="M1.60417 0.0178466L11.6783 1.54868C12.3475 1.65868 12.8333 2.22701 12.8333 2.90535V8.16701L12.4667 8.09368C12.3292 8.06618 12.1917 8.10285 12.0817 8.18535C11.9808 8.27701 11.9167 8.40535 11.9167 8.54285V2.90535C11.9167 2.67618 11.7517 2.48368 11.5317 2.44701L1.4575 0.925347C1.43 0.91618 1.4025 0.91618 1.375 0.91618C1.265 0.91618 1.16417 0.952846 1.08167 1.02618C0.971667 1.11785 0.916667 1.23701 0.916667 1.37451V20.4595C0.916667 20.7162 1.1275 20.9178 1.375 20.9178H3.66667V21.3762C3.66667 21.6328 3.86833 21.8345 4.125 21.8345H1.375C0.614167 21.8345 0 21.2203 0 20.4595V1.37451C0 0.97118 0.174167 0.58618 0.485833 0.329513C0.7975 0.0636799 1.20083 -0.0463201 1.60417 0.0178466Z" fill="#5E5E5E"/>
</g>
</svg>
