<svg width="22" height="22" viewBox="0 0 22 22" fill="none" xmlns="http://www.w3.org/2000/svg">
<mask id="mask0_2597_2468" style="mask-type:alpha" maskUnits="userSpaceOnUse" x="0" y="0" width="22" height="23">
<rect y="0.00012207" width="22" height="22" fill="#D9D9D9"/>
</mask>
<g mask="url(#mask0_2597_2468)">
<path d="M12.6663 14C12.6663 13.6703 12.5686 13.3481 12.3855 13.074C12.2023 12.7999 11.942 12.5863 11.6375 12.4602C11.3329 12.334 10.9978 12.301 10.6745 12.3653C10.3512 12.4296 10.0543 12.5884 9.82116 12.8215C9.58808 13.0546 9.42934 13.3515 9.36503 13.6748C9.30072 13.9981 9.33373 14.3332 9.45988 14.6378C9.58602 14.9423 9.79964 15.2026 10.0737 15.3858C10.3478 15.5689 10.67 15.6666 10.9997 15.6666C11.4415 15.6661 11.8652 15.4904 12.1776 15.1779C12.49 14.8655 12.6658 14.4418 12.6663 14ZM9.99968 14C9.99968 13.8022 10.0583 13.6089 10.1682 13.4444C10.2781 13.28 10.4343 13.1518 10.617 13.0761C10.7997 13.0004 11.0008 12.9806 11.1948 13.0192C11.3887 13.0578 11.5669 13.153 11.7068 13.2929C11.8466 13.4327 11.9419 13.6109 11.9805 13.8049C12.019 13.9989 11.9992 14.1999 11.9236 14.3827C11.8479 14.5654 11.7197 14.7216 11.5552 14.8314C11.3908 14.9413 11.1975 15 10.9997 15C10.7345 14.9997 10.4803 14.8943 10.2929 14.7068C10.1054 14.5193 9.99994 14.2651 9.99968 14Z" fill="#5E5E5E"/>
<path d="M21.8377 1.38067C21.7882 1.35094 21.7319 1.3346 21.6742 1.33325C21.6165 1.33191 21.5595 1.34561 21.5087 1.373L17.1753 3.70633C17.1223 3.73491 17.078 3.77729 17.0472 3.82899C17.0163 3.88069 17 3.93979 17 4V14.5287L11.2357 8.76433C11.1732 8.70184 11.0884 8.66674 11 8.66674C10.9116 8.66674 10.8268 8.70184 10.7643 8.76433L4.431 15.0977C4.36848 15.1602 4.33335 15.2449 4.33333 15.3333V21.3333H0.666667V0.666667H10.6667V7.66667C10.6667 7.75507 10.7018 7.83986 10.7643 7.90237C10.8268 7.96488 10.9116 8 11 8C11.0884 8 11.1732 7.96488 11.2357 7.90237C11.2982 7.83986 11.3333 7.75507 11.3333 7.66667V0.333333C11.3333 0.244928 11.2982 0.160143 11.2357 0.0976311C11.1732 0.0351189 11.0884 0 11 0H0.333333C0.244928 0 0.160143 0.0351189 0.0976311 0.0976311C0.0351189 0.160143 0 0.244928 0 0.333333V21.6667C0 21.7551 0.0351189 21.8399 0.0976311 21.9024C0.160143 21.9649 0.244928 22 0.333333 22H4.66667C4.75507 22 4.83986 21.9649 4.90237 21.9024C4.96488 21.8399 5 21.7551 5 21.6667V15.4713L11 9.47133L17 15.4713V21.6667C17 21.7551 17.0351 21.8399 17.0976 21.9024C17.1601 21.9649 17.2449 22 17.3333 22H21.6667C21.7551 22 21.8399 21.9649 21.9024 21.9024C21.9649 21.8399 22 21.7551 22 21.6667V1.66667C22 1.60903 21.985 1.55238 21.9566 1.50225C21.9281 1.45213 21.8871 1.41024 21.8377 1.38067ZM21.3333 21.3333H17.6667V4.19933L21.3333 2.22467V21.3333Z" fill="#5E5E5E"/>
<path d="M18.3337 5.66667C18.3916 5.66673 18.4485 5.65156 18.4987 5.62267L20.832 4.28933C20.8711 4.26821 20.9056 4.23947 20.9334 4.20483C20.9612 4.17018 20.9818 4.13032 20.994 4.08759C21.0062 4.04486 21.0098 4.00012 21.0044 3.95601C20.9991 3.91189 20.985 3.86929 20.9629 3.83071C20.9409 3.79212 20.9113 3.75834 20.876 3.73134C20.8408 3.70434 20.8004 3.68467 20.7574 3.67348C20.7144 3.6623 20.6696 3.65983 20.6256 3.66621C20.5816 3.6726 20.5394 3.68771 20.5013 3.71067L18.168 5.044C18.1042 5.08048 18.0543 5.13702 18.026 5.20481C17.9976 5.27261 17.9925 5.34786 18.0114 5.41888C18.0302 5.48989 18.072 5.55269 18.1302 5.5975C18.1885 5.64231 18.2602 5.66663 18.3337 5.66667ZM4.66667 2.33333C4.66667 2.24493 4.63155 2.16014 4.56904 2.09763C4.50652 2.03512 4.42174 2 4.33333 2H2.33333C2.24493 2 2.16014 2.03512 2.09763 2.09763C2.03512 2.16014 2 2.24493 2 2.33333V4.33333C2 4.42174 2.03512 4.50652 2.09763 4.56904C2.16014 4.63155 2.24493 4.66667 2.33333 4.66667H4.33333C4.42174 4.66667 4.50652 4.63155 4.56904 4.56904C4.63155 4.50652 4.66667 4.42174 4.66667 4.33333V2.33333ZM4 4H2.66667V2.66667H4V4ZM9.33333 2.33333C9.33333 2.24493 9.29821 2.16014 9.2357 2.09763C9.17319 2.03512 9.08841 2 9 2H7C6.91159 2 6.82681 2.03512 6.7643 2.09763C6.70179 2.16014 6.66667 2.24493 6.66667 2.33333V4.33333C6.66667 4.42174 6.70179 4.50652 6.7643 4.56904C6.82681 4.63155 6.91159 4.66667 7 4.66667H9C9.08841 4.66667 9.17319 4.63155 9.2357 4.56904C9.29821 4.50652 9.33333 4.42174 9.33333 4.33333V2.33333ZM8.66667 4H7.33333V2.66667H8.66667V4ZM4.66667 6.33333C4.66667 6.24493 4.63155 6.16014 4.56904 6.09763C4.50652 6.03512 4.42174 6 4.33333 6H2.33333C2.24493 6 2.16014 6.03512 2.09763 6.09763C2.03512 6.16014 2 6.24493 2 6.33333V8.33333C2 8.42174 2.03512 8.50652 2.09763 8.56904C2.16014 8.63155 2.24493 8.66667 2.33333 8.66667H4.33333C4.42174 8.66667 4.50652 8.63155 4.56904 8.56904C4.63155 8.50652 4.66667 8.42174 4.66667 8.33333V6.33333ZM4 8H2.66667V6.66667H4V8ZM4.33333 10H2.33333C2.24493 10 2.16014 10.0351 2.09763 10.0976C2.03512 10.1601 2 10.2449 2 10.3333V12.3333C2 12.4217 2.03512 12.5065 2.09763 12.569C2.16014 12.6315 2.24493 12.6667 2.33333 12.6667H4.33333C4.42174 12.6667 4.50652 12.6315 4.56904 12.569C4.63155 12.5065 4.66667 12.4217 4.66667 12.3333V10.3333C4.66667 10.2449 4.63155 10.1601 4.56904 10.0976C4.50652 10.0351 4.42174 10 4.33333 10ZM4 12H2.66667V10.6667H4V12ZM9 6H7C6.91159 6 6.82681 6.03512 6.7643 6.09763C6.70179 6.16014 6.66667 6.24493 6.66667 6.33333V8.33333C6.66667 8.42174 6.70179 8.50652 6.7643 8.56904C6.82681 8.63155 6.91159 8.66667 7 8.66667H9C9.08841 8.66667 9.17319 8.63155 9.2357 8.56904C9.29821 8.50652 9.33333 8.42174 9.33333 8.33333V6.33333C9.33333 6.24493 9.29821 6.16014 9.2357 6.09763C9.17319 6.03512 9.08841 6 9 6ZM8.66667 8H7.33333V6.66667H8.66667V8ZM11 16.3333C10.293 16.3342 9.61526 16.6154 9.11536 17.1154C8.61545 17.6153 8.33422 18.293 8.33333 19V21.6667C8.33333 21.7551 8.36845 21.8399 8.43096 21.9024C8.49348 21.9649 8.57826 22 8.66667 22H13.3333C13.4217 22 13.5065 21.9649 13.569 21.9024C13.6315 21.8399 13.6667 21.7551 13.6667 21.6667V19C13.6658 18.293 13.3845 17.6153 12.8846 17.1154C12.3847 16.6154 11.707 16.3342 11 16.3333ZM13 21.3333H9V19C9 18.4696 9.21071 17.9609 9.58579 17.5858C9.96086 17.2107 10.4696 17 11 17C11.5304 17 12.0391 17.2107 12.4142 17.5858C12.7893 17.9609 13 18.4696 13 19V21.3333Z" fill="#5E5E5E"/>
</g>
</svg>
