<svg width="22" height="22" viewBox="0 0 22 22" fill="none" xmlns="http://www.w3.org/2000/svg">
<mask id="mask0_2597_2583" style="mask-type:alpha" maskUnits="userSpaceOnUse" x="0" y="0" width="22" height="23">
<rect y="0.000137329" width="22" height="22" fill="#D9D9D9"/>
</mask>
<g mask="url(#mask0_2597_2583)">
<path fill-rule="evenodd" clip-rule="evenodd" d="M20 1.8633V2.28253L11.2497 0.857111L2.5 2.28253V1.8633L11.2497 0.428497L20 1.8633Z" fill="white"/>
<path fill-rule="evenodd" clip-rule="evenodd" d="M20 1.43457V1.86331L11.2497 0.428501L2.5 1.86331V1.43457L11.2497 0.000137329L20 1.43457Z" fill="#33A457"/>
<path fill-rule="evenodd" clip-rule="evenodd" d="M20 2.28252L11.2497 0.857101L2.5 2.28252L2.50013 3.72884L2.57596 3.68891C2.6068 3.67288 5.71158 2.07284 11.2665 2.07284C16.8218 2.07284 19.8904 3.67326 19.9215 3.68916L19.9965 3.72921L20 2.28252Z" fill="#CC2131"/>
<path fill-rule="evenodd" clip-rule="evenodd" d="M11.2667 2.35237C16.283 2.35237 19.2204 3.6645 19.6965 3.89458V8.05829C19.6965 10.3283 19.1213 12.5897 17.9876 14.7808C15.5061 19.5666 11.7721 21.4458 11.2499 21.6911C10.7272 21.4458 6.99037 19.5666 4.50953 14.7808C3.37584 12.5897 2.80078 10.3283 2.80078 8.05829V3.89508C3.28116 3.66525 6.24939 2.35237 11.2667 2.35237Z" fill="#FFF22D"/>
<path fill-rule="evenodd" clip-rule="evenodd" d="M2.5768 3.6888L2.50098 3.72873V8.05831C2.50098 10.3709 3.08587 12.6733 4.23949 14.9014C6.94766 20.1276 11.1463 21.9558 11.1883 21.9737L11.2505 22.0001L11.3126 21.9737C11.355 21.9558 15.5501 20.1271 18.2582 14.9014C19.4123 12.6733 19.9973 10.3709 19.9973 8.05831V3.72911L19.9223 3.68905C19.8913 3.67316 16.8227 2.07274 11.2673 2.07274C5.71242 2.07274 2.60764 3.67278 2.5768 3.6888ZM11.2673 2.35239C16.2837 2.35239 19.2211 3.66452 19.6971 3.8946V8.05831C19.6971 10.3283 19.122 12.5897 17.9883 14.7808C15.5068 19.5667 11.7728 21.4459 11.2505 21.6911C10.7278 21.4459 6.99102 19.5667 4.51018 14.7808C3.37649 12.5897 2.80144 10.3283 2.80144 8.05831V3.8951C3.28182 3.66527 6.25004 2.35239 11.2673 2.35239Z" fill="#13141A"/>
<path fill-rule="evenodd" clip-rule="evenodd" d="M12.5809 17.6563C12.7266 17.7499 12.6209 17.9126 12.513 17.938C12.4007 17.9664 12.3046 17.8505 12.2502 17.9775C12.2197 18.0457 12.3026 18.5626 12.8715 18.5626C13.4025 18.5626 13.6558 17.929 13.7058 17.8336C13.756 17.7384 13.7883 17.617 13.7381 17.617C13.5051 17.617 13.4372 17.7456 13.4372 17.7456C13.4372 17.7456 13.4196 17.6219 13.5354 17.5285C13.6309 17.4523 13.7562 17.4708 13.8014 17.4708C13.8964 17.4708 13.8814 17.4051 13.9388 17.275C14.0695 16.969 14.1595 16.9552 14.2445 16.8156C14.3149 16.7019 14.1819 16.6574 13.9194 16.6345C13.6561 16.6112 13.5151 16.6211 13.3975 16.637C13.2797 16.6526 13.1624 16.6971 13.0892 16.8646C13.0501 16.9553 13.1218 17.0447 13.2597 17.0215C13.3975 16.9976 13.5302 16.9007 13.5302 16.9007C13.5302 16.9007 13.4681 17.1301 13.2624 17.1775C13.0717 17.2211 12.8466 17.1142 12.8769 16.9348C12.9163 16.7021 13.0894 16.5316 13.4051 16.4741C13.7213 16.4149 14.0364 16.4602 14.3175 16.5244C14.5976 16.5902 14.8038 16.5504 15.0642 16.5362C15.6258 16.5083 15.9738 16.3851 15.9738 16.3851C15.9738 16.3851 15.7208 16.576 15.37 16.6643C15.0191 16.7533 14.7063 16.7163 14.605 16.7533C14.5233 16.7858 14.4077 16.9367 14.3125 17.109C14.225 17.2675 14.1318 17.4501 14.172 17.4501C14.4982 17.4617 14.6177 17.3953 14.6177 17.3953C14.6177 17.3953 14.5532 17.5261 14.3977 17.588C14.2899 17.6285 14.1068 17.6285 14.1068 17.6285C14.1068 17.6285 14.0246 17.8222 13.9319 17.9969C13.8386 18.1716 13.6857 18.4443 13.4106 18.5793C13.1344 18.714 12.6062 18.8819 12.2735 18.4372C11.9216 17.9706 12.2428 17.4399 12.5809 17.6563ZM8.49685 17.7171C8.56177 17.8716 8.42386 17.9521 8.34373 17.9521C8.26333 17.9521 8.16326 17.8967 8.14239 17.99C8.12327 18.0827 8.35585 18.5605 8.89697 18.5605C9.43836 18.5605 9.68926 18.2693 9.65115 18.0084C9.60872 17.7173 9.1111 17.6016 8.71449 17.4077C8.52042 17.3131 8.08179 17.2497 8.08179 16.8681C8.08179 16.0531 9.41601 16.5736 9.41601 16.5736C9.41601 16.5736 9.41883 16.4717 9.48092 16.467C9.51095 16.4644 9.57128 16.4533 9.59135 16.5455C9.61115 16.6384 9.69936 17.1278 9.69936 17.1278C9.69936 17.1278 9.50327 16.7551 8.96512 16.5924C8.8699 16.5614 8.45362 16.4878 8.45605 16.7941C8.46103 16.976 8.69954 17.0576 9.11299 17.2068C9.6564 17.4048 9.93477 17.5892 9.80643 18.1202C9.68428 18.6301 9.148 18.714 8.88727 18.714C8.62708 18.714 8.02832 18.5443 8.02832 17.9849C8.02832 17.5893 8.44581 17.5986 8.49685 17.7171ZM11.3478 14.653L11.5669 14.7495C11.6932 14.795 11.7739 14.7749 11.8028 14.7637C11.8334 14.7514 11.9491 14.636 11.9743 14.5377C11.9861 14.4977 11.9798 14.4629 11.9569 14.4372C11.8717 14.3433 11.7207 13.9121 11.6647 13.679C11.6439 13.5925 11.6691 13.3538 11.6886 13.1616C11.7057 12.9966 11.7162 12.8941 11.7074 12.8677C11.6924 12.8269 11.6268 12.7875 11.5514 12.743L11.4319 12.6674C11.3682 12.619 11.3654 12.553 11.3619 12.4822L11.3493 12.3721C11.3215 12.2697 10.7609 11.7375 10.674 11.7326C10.5481 11.7249 10.5154 11.8534 10.5073 11.9306C10.5023 11.9758 10.5584 12.1776 10.6091 12.3565L10.665 12.5722C10.7223 12.9113 11.1102 13.5085 11.2756 13.7634L11.3541 13.8873C11.388 13.9591 11.3748 14.0158 11.3145 14.0476C11.2559 14.0789 10.7518 14.03 10.511 13.9784C10.4076 13.9564 10.2799 13.9084 10.1554 13.8615C10.0127 13.8087 9.87753 13.7574 9.79942 13.7537C9.70825 13.7493 9.66502 13.7665 9.63148 13.7809L9.57681 13.795L9.5224 13.7789C9.4556 13.7515 9.33076 13.7014 8.9899 13.6727C8.49308 13.6294 8.45578 13.7223 8.43557 13.7725C8.41093 13.8363 8.71462 14.1365 8.76889 14.1767C8.83798 14.2285 9.06141 14.3075 9.19783 14.2865C9.35379 14.2632 9.60805 14.2339 9.63956 14.2398L9.69074 14.2688L9.73828 14.3001C9.78138 14.3165 10.0591 14.3307 10.143 14.3348C10.2398 14.3397 10.4941 14.3886 10.6799 14.4248L10.8876 14.4637C10.9689 14.4776 11.1785 14.5738 11.3478 14.653Z" fill="#13141A"/>
<path fill-rule="evenodd" clip-rule="evenodd" d="M16.4874 8.66404C16.4764 8.6514 16.4672 8.65065 16.4614 8.65203C16.4562 8.65365 16.449 8.65829 16.447 8.67331C16.4378 8.73765 16.351 8.90301 16.282 8.92742C16.1424 8.97762 16.07 9.12984 16.0177 9.24074C15.9909 9.29795 15.9647 9.35253 15.944 9.35328C15.9351 9.35391 15.9253 9.34502 15.9145 9.32649C15.8284 9.18854 15.8767 8.97762 15.9153 8.80762L15.9242 8.76594C15.9557 8.62261 16.1362 8.42182 16.244 8.3014L16.2917 8.24807C16.3651 8.16295 16.3836 7.87454 16.3698 7.85288C16.3654 7.85163 16.3624 7.85401 16.3607 7.85651C16.359 7.85776 16.3576 7.85929 16.3565 7.86102L16.3549 7.86077V7.86227C16.3504 7.86678 16.3467 7.86728 16.343 7.8818C16.3238 7.97193 16.1465 8.15507 15.8438 8.39841C15.7817 8.44836 15.711 8.53861 15.6531 8.61109C15.6158 8.65866 15.572 8.71349 15.5604 8.71612C15.4854 8.34409 15.6212 8.13141 15.6857 8.02863L15.7157 7.97643C15.8438 7.65247 16.1736 7.40712 16.1771 7.40487C16.1816 7.39548 16.1816 7.38546 16.1735 7.37908C16.1608 7.37007 16.1377 7.37395 16.1012 7.39097L16.0812 7.40023C15.9662 7.45218 15.6193 7.60928 15.4065 7.98757C15.2537 8.25996 15.1945 8.5644 15.1945 8.79398C15.1945 8.91115 15.2097 9.00829 15.2356 9.07263C15.3104 9.25789 15.4413 9.7183 15.4815 9.89906C15.5066 10.0111 15.5105 10.3958 15.5105 10.6369C15.5105 10.7547 15.5099 10.8372 15.5099 10.8403C15.5091 10.8403 15.4439 11.0358 15.4439 11.0358C15.4437 11.0378 15.4122 11.1905 15.1436 11.4458C14.8732 11.7025 14.5721 11.7841 14.5694 11.7851C14.4484 11.7939 14.3381 11.7893 14.3342 11.7746C14.3342 11.4812 13.7936 10.7986 13.517 10.5734C13.2347 10.3434 13.0092 10.1787 12.6259 9.9619C12.2356 9.74109 11.8015 8.81538 11.7966 8.80637L11.759 8.68132C11.759 8.68132 11.738 8.43159 11.7322 8.36662C11.7463 8.37413 11.7648 8.38477 11.7648 8.38477L11.8978 8.45675L12.0507 8.51133C12.052 8.5117 12.2508 8.54788 12.2508 8.54788C12.2508 8.54825 12.3621 8.6012 12.3621 8.6012L12.4652 8.66354L12.6256 8.7712L12.7903 8.85169C12.7937 8.85256 12.9882 8.86183 12.9882 8.86183L12.9926 8.84693C12.9926 8.84693 12.7674 8.74866 12.7669 8.74866C12.7669 8.74566 12.6858 8.61673 12.6858 8.61673C12.6543 8.57466 12.6228 8.53256 12.5914 8.49042C12.5883 8.48842 12.4744 8.4252 12.4744 8.4252C12.4261 8.41838 12.3778 8.41203 12.3295 8.40617C12.3295 8.40505 12.3011 8.38239 12.2864 8.37012C12.299 8.36324 12.3229 8.34947 12.3229 8.34947C12.3229 8.3511 12.478 8.36774 12.4786 8.36774C12.4786 8.36925 12.6166 8.4565 12.6166 8.4565L12.7673 8.5644C12.7697 8.56553 12.9099 8.6161 12.9099 8.6161L12.9284 8.62286L12.8668 8.47402C12.8283 8.43975 12.7896 8.40575 12.7506 8.372L12.5798 8.23706C12.5785 8.23593 12.4457 8.17234 12.4457 8.17234C12.4443 8.17209 12.3027 8.12765 12.3027 8.12765C12.3027 8.1274 12.1528 8.03852 12.1528 8.03852C12.1528 8.03852 12.1544 8.02901 12.1555 8.02087C12.1745 8.02763 12.363 8.09798 12.363 8.09798C12.3641 8.09811 12.5437 8.14355 12.5437 8.14355C12.5435 8.14292 12.6944 8.19712 12.6944 8.19712C12.6939 8.19662 12.9111 8.29514 12.9111 8.29514C12.913 8.29602 13.0929 8.33232 13.0929 8.33232C13.096 8.33244 13.3149 8.29602 13.3149 8.29602C13.3177 8.29476 13.5263 8.15982 13.5263 8.15982C13.5287 8.15619 13.5671 8.07595 13.5671 8.07595L13.5753 8.05743L13.5083 8.08321C13.5077 8.08321 13.3189 8.17234 13.3187 8.17234L13.1879 8.1995C13.1879 8.19888 13.0403 8.17196 13.04 8.17196H13.0403C13.0403 8.17034 12.9206 8.06681 12.9206 8.06681L12.7506 7.91384L12.5969 7.84074C12.5948 7.83986 12.4151 7.81282 12.4151 7.81282C12.4151 7.81245 12.3058 7.76075 12.3039 7.75987C12.3044 7.75987 12.3047 7.758 12.3047 7.75537C12.3047 7.7431 12.3013 7.71631 12.3 7.70379L12.526 7.72144L12.7735 7.70292C12.7735 7.70354 12.9129 7.72996 12.9129 7.72996L13.0539 7.78403L13.1983 7.80218L13.2242 7.80544L13.0633 7.66236C13.0617 7.66161 12.901 7.5537 12.901 7.5537C12.8991 7.55283 12.7664 7.50764 12.7664 7.50764C12.7639 7.50714 12.5425 7.48974 12.5381 7.48936C12.54 7.48924 12.5402 7.48573 12.5402 7.4806C12.5402 7.46808 12.5381 7.45031 12.5369 7.44117L12.6415 7.42464C12.6415 7.42527 12.809 7.46032 12.809 7.46032C12.809 7.46082 12.9677 7.54932 12.9677 7.54932L13.1391 7.60378C13.1441 7.6039 13.3895 7.5681 13.3895 7.5681L13.4042 7.56622L13.3294 7.47446C13.3253 7.47146 13.2019 7.43578 13.2016 7.43578C13.2016 7.43516 13.0998 7.36518 13.0998 7.36518L12.948 7.26604C12.9459 7.26491 12.8326 7.22911 12.8326 7.22911C12.8307 7.22849 12.6521 7.20195 12.6516 7.20183C12.6516 7.20007 12.5638 7.12497 12.5619 7.12371C12.5646 7.12321 12.5701 7.09705 12.5722 7.08516L12.6666 7.10969L12.788 7.16352L12.9606 7.21434L12.9224 7.14362L12.8554 7.07852L12.7967 7.00817L12.8221 7.00229C12.8221 7.00442 13.0057 7.09142 13.0057 7.09142L13.1487 7.13673C13.1487 7.13748 13.2591 7.23375 13.2591 7.23375C13.2607 7.235 13.4698 7.34465 13.4698 7.34465L13.4908 7.35567L13.4527 7.26078C13.4516 7.25866 13.3382 7.12384 13.3382 7.12384L13.2438 6.97212C13.243 6.97037 13.0721 6.80876 13.0721 6.80876C13.0704 6.80726 12.8529 6.69923 12.8524 6.69923C12.8524 6.69835 12.7696 6.6111 12.7696 6.6111C12.7189 6.56317 12.6683 6.51514 12.6178 6.46702C12.6178 6.46515 12.6023 6.41582 12.5944 6.39079C12.6201 6.39842 12.7417 6.43598 12.7417 6.43598L12.9119 6.48067C12.9119 6.48104 13.0334 6.55139 13.0334 6.55139C13.0334 6.55214 13.1347 6.66643 13.1347 6.66643C13.1383 6.66906 13.2997 6.73215 13.2997 6.73215L13.7108 6.78172L13.7348 6.78448L13.6219 6.67407C13.6191 6.67207 13.4012 6.58206 13.4012 6.58206L13.2704 6.49344C13.2704 6.49181 13.1973 6.36988 13.1973 6.36988L13.1211 6.2442C13.1197 6.24233 12.9966 6.13455 12.9966 6.13455C12.9948 6.13329 12.8433 6.05243 12.8433 6.05243L12.6934 5.93651C12.6934 5.93539 12.6573 5.86591 12.6342 5.8196L12.7383 5.91285L12.9373 6.07471C12.9397 6.07609 13.0915 6.13905 13.0915 6.13905L13.2214 6.23669L13.3724 6.3799C13.3776 6.38215 13.6136 6.41307 13.6136 6.41307L13.6431 6.41708L13.4035 6.22417C13.4035 6.22067 13.3494 6.06607 13.3494 6.06607C13.3079 6.0286 13.2661 5.9915 13.2238 5.95479L13.1587 5.88356C13.1587 5.88169 13.0937 5.6978 13.0937 5.6978C13.0491 5.65462 13.0041 5.61177 12.9588 5.56924C12.9588 5.56824 12.7424 5.38059 12.7418 5.37984V5.37947C12.7418 5.37659 12.7342 5.34792 12.7297 5.32902C12.7463 5.33678 12.7689 5.34792 12.7689 5.34792L12.9676 5.45545C12.9694 5.45633 13.2059 5.51917 13.2059 5.51917L13.4527 5.57349L13.7378 5.6158L13.6707 5.48975C13.666 5.48574 13.5242 5.43204 13.5242 5.43204L13.3926 5.36069C13.3912 5.36031 13.2306 5.29722 13.2306 5.29722L13.089 5.2434C13.089 5.24214 12.9972 5.13199 12.946 5.07115C12.9952 5.10182 13.071 5.14976 13.071 5.14976C13.0746 5.15089 13.1985 5.16003 13.1985 5.16003L13.5871 5.16015C13.5871 5.16115 13.7444 5.24014 13.7444 5.24039C13.7444 5.24089 13.8785 5.37533 13.8785 5.37533L13.8961 5.39298L13.8798 5.24127C13.8782 5.23689 13.793 5.13787 13.793 5.13787C13.7906 5.13612 13.5628 5.0192 13.5628 5.0192L13.3818 4.95586C13.3805 4.95548 13.1078 4.91067 13.1064 4.91067V4.91029C13.1064 4.90792 13.0543 4.85021 13.0543 4.85021C13.0532 4.84971 12.8547 4.67896 12.8547 4.67896C12.8226 4.66338 12.7904 4.64798 12.7581 4.63277C12.7581 4.63227 12.7278 4.60335 12.709 4.58508H12.8111C12.8111 4.58658 12.9676 4.67396 12.9676 4.67396C12.9689 4.67483 13.1778 4.73742 13.1778 4.73742L13.4443 4.7736H13.444C13.444 4.77623 13.5429 4.87912 13.5429 4.87912L13.687 4.96137C13.7416 4.97074 13.7964 4.9798 13.8512 4.98853L13.874 4.99191L13.5368 4.60786C13.5347 4.60598 13.3735 4.52524 13.3735 4.52524C13.3721 4.52449 13.183 4.47054 13.183 4.47054C13.183 4.46866 13.0166 4.29316 13.0166 4.29316C13.0147 4.29128 12.8062 4.17474 12.8062 4.17474C12.7558 4.16289 12.7053 4.15145 12.6547 4.14044C12.6641 4.1263 12.6955 4.07823 12.6955 4.07798C12.6961 4.07935 12.8625 4.00938 12.8625 4.00938C12.8625 4.00975 13.1065 3.96507 13.1065 3.96507C13.1131 3.95981 13.1316 3.90561 13.1316 3.90561C13.1285 3.89647 13.0243 3.83363 13.0243 3.83363C12.9827 3.82108 12.941 3.80872 12.8993 3.79657C12.8916 3.79745 12.8256 3.83338 12.8256 3.83363C12.8256 3.8325 12.6214 3.84114 12.6214 3.84114C12.6214 3.84101 12.3774 3.78769 12.3774 3.78744C12.3774 3.78631 12.126 3.59153 12.126 3.59153C12.0875 3.57311 12.0489 3.55484 12.0103 3.5367C12.0075 3.5362 11.5921 3.49101 11.591 3.49101C11.591 3.48613 11.4934 3.35069 11.4934 3.35069L11.3598 3.21499C11.3593 3.21424 11.1897 3.07204 11.1897 3.07204L11.1845 3.08243L11.1276 3.19934C11.1279 3.19822 11.0716 3.27908 11.0716 3.27908V3.28109C11.0716 3.29598 11.0796 3.37409 11.0796 3.37409C11.082 3.37898 11.1369 3.4313 11.1381 3.4328C11.1353 3.4328 11.1174 3.51417 11.1174 3.5148C11.1169 3.50916 10.8895 3.5178 10.8891 3.5178C10.8891 3.5168 10.7034 3.43756 10.7034 3.43756C10.7022 3.43681 10.5598 3.39199 10.5598 3.39199C10.557 3.39112 10.2259 3.40063 10.2259 3.40063C10.2186 3.40414 10.1624 3.485 10.1624 3.485L10.1549 3.49564L10.3006 3.51517C10.3006 3.51567 10.3221 3.52844 10.3341 3.53558L10.2968 3.56387C10.2968 3.56211 10.0941 3.55348 10.0941 3.55348C10.0908 3.55398 9.94815 3.60768 9.94815 3.60768L9.93334 3.61356L10.004 3.65775C10.0085 3.65925 10.3114 3.66814 10.3114 3.66814L10.5363 3.72197V3.72222C10.5363 3.7251 10.5791 3.78193 10.5791 3.78193C10.5791 3.78193 10.6095 3.82186 10.621 3.83751L10.5247 3.88683C10.5259 3.8867 10.251 3.99448 10.251 3.99448L9.68285 4.29103C9.68231 4.29053 9.30872 4.34236 9.30872 4.34236C9.30589 4.34323 9.16246 4.41746 9.16246 4.41746C9.15937 4.41947 9.04422 4.5678 9.04422 4.5678C9.04301 4.56968 8.97783 4.75432 8.97783 4.75432C8.97271 5.06802 8.98618 5.07528 8.99102 5.07778C9.0022 5.08429 9.09971 5.13562 9.17512 5.09806C9.26051 5.05488 9.44326 5.01244 9.53821 4.99366C9.58507 4.98478 9.60702 5.00042 9.61093 5.01657C9.61605 5.03422 9.60191 5.05826 9.56689 5.06714L9.54723 5.07253C9.38212 5.11421 9.21364 5.16466 9.21916 5.22387L9.24825 5.26906C9.32192 5.319 9.51343 5.29535 9.6151 5.27394L9.72123 5.24627C9.81281 5.22036 9.91691 5.19145 10.0058 5.20071C10.0571 5.20622 10.1024 5.22675 10.1558 5.25016C10.2283 5.2827 10.3111 5.31963 10.4346 5.32714C10.6405 5.34041 10.7811 5.37909 10.7922 5.39036C10.8198 5.44256 10.802 5.51979 10.7881 5.58188L10.7775 5.63809C10.7198 6.12391 10.1363 6.67319 9.85509 6.9367C9.77914 7.00805 9.7289 7.05511 9.71813 7.07477L9.68581 7.14424C9.65847 7.20871 9.63625 7.26429 9.54709 7.29759C9.49551 7.31624 9.37525 7.40036 9.23573 7.4975C9.03425 7.6372 8.78443 7.81095 8.71561 7.80344C8.60047 7.79079 8.06271 7.44668 8.04009 7.42552C7.51634 6.95447 7.29722 7.05111 7.16605 7.10869L7.14531 7.1177C6.98909 7.1838 6.82506 7.59514 6.81024 7.68339L6.74694 7.93675L6.69833 8.12289C6.68392 8.18586 6.61941 8.34058 6.55786 8.49004L6.43154 8.81551C6.41066 8.89087 6.36002 8.99677 6.31881 9.08239L6.26292 9.2092C6.224 9.35804 6.22333 10.1732 6.29107 10.2453L6.29403 10.2483L6.30737 10.2519C6.37538 10.2454 6.52136 10.1056 6.5914 10.0381L6.60756 10.0225C6.66681 9.96716 6.72971 9.81945 6.72971 9.75736C6.72971 9.69652 6.69913 9.56934 6.68701 9.53466C6.5922 9.26553 6.62803 9.00904 6.64526 8.88611L6.65213 8.83128C6.65712 8.7742 6.71866 8.71099 6.77846 8.6504L6.85401 8.56916C6.89549 8.51783 6.94155 8.50081 6.98262 8.48566L7.0501 8.44986L7.0606 8.43972C7.10531 8.39804 7.18033 8.32769 7.21319 8.23355L7.27729 7.97581L7.2913 7.90696C7.29453 7.89319 7.30207 7.88555 7.3146 7.88305C7.34005 7.87779 7.37816 7.89657 7.39446 7.91672L7.85801 8.41669C7.97679 8.5107 8.09881 8.62286 8.09881 8.64752L8.09867 8.64965C8.09867 8.64927 8.09584 8.64977 8.09584 8.64977C8.03093 8.65603 7.70434 8.59131 7.65007 8.57692C7.20632 8.456 7.00377 8.47728 6.84755 8.65904C6.66951 8.86721 6.72553 9.50475 6.76189 9.5746C6.79529 9.63794 6.95771 10.4147 6.96498 10.5182C6.97225 10.6197 7.01454 10.8012 7.05872 10.8429L7.07084 10.8544C7.12551 10.9048 7.26962 11.0393 7.29507 11.172C7.32254 11.3165 7.65263 11.7033 7.77855 11.7379C7.78799 11.7405 7.79795 11.7409 7.80759 11.7392C7.81724 11.7374 7.82631 11.7336 7.83404 11.7279C7.93006 11.6646 7.97369 11.355 7.97895 11.2243C7.98514 11.0615 7.92225 10.9827 7.85545 10.8985L7.82986 10.8656C7.7807 10.8032 7.69411 10.7806 7.63701 10.7657C7.61263 10.7593 7.57923 10.7518 7.57923 10.7448C7.57923 10.7424 7.5725 10.5038 7.49062 10.4577C7.42692 10.4213 7.36173 10.1911 7.35406 10.1035C7.34665 10.0165 7.31042 9.80643 7.2618 9.71417C7.21265 9.62154 7.1713 9.45079 7.19231 9.31911C7.20107 9.26253 7.24443 9.24475 7.27972 9.23962C7.34059 9.23061 7.41089 9.25501 7.4218 9.27479C7.44604 9.32011 7.91403 9.58248 8.07187 9.63881C8.16991 9.67336 8.30257 9.77751 8.41973 9.8704C8.5031 9.93536 8.57475 9.99132 8.61946 10.0112C8.67979 10.0383 8.85083 10.0414 8.9882 10.0439C9.06105 10.045 9.13674 10.0466 9.14698 10.0523C9.09122 10.0731 9.0919 10.1639 9.09647 10.1932C9.15344 10.5691 10.6248 11.6018 10.7386 11.6597C10.8703 11.7254 11.3427 12.184 11.3841 12.2463C11.4269 12.3079 11.4685 12.3749 11.4605 12.4264C11.4492 12.5027 11.4821 12.5898 11.5478 12.6609C11.6107 12.7271 11.6927 12.767 11.7685 12.767C11.8343 12.767 11.8782 12.7122 11.9106 12.6727L11.9175 12.6644C12.0053 12.5564 12.1355 12.3981 12.1524 12.1507C12.1703 11.8969 12.295 11.7962 12.3357 11.7895C12.3538 11.7864 12.3672 11.7915 12.372 11.8027C12.377 11.8142 12.3709 11.8335 12.3463 11.8486C12.2924 11.8825 12.2588 11.9948 12.2219 12.1149C12.2216 12.1159 12.2081 12.2374 12.2081 12.2374C12.205 12.3282 12.2013 12.4311 12.1038 12.5308C11.9578 12.6778 11.7902 13.0167 11.7469 13.4445C11.7206 13.7023 11.8454 14.0735 12.1178 14.5467L12.1367 14.5805L12.2104 14.6954C12.2849 14.8067 12.4093 14.9917 12.4035 15.035C12.3956 15.0961 12.3894 15.1441 12.276 15.2764C12.1513 15.4218 11.6962 15.9141 11.6518 15.9218C11.5613 15.9218 11.5461 15.9326 11.4732 15.9839L11.3964 16.0382C11.3124 16.0937 11.2977 16.1352 11.2836 16.1719C11.2732 16.1996 11.2634 16.2237 11.2243 16.2509L11.1951 16.2692C11.189 16.2741 11.1726 16.2956 10.9897 16.4657C10.78 16.6584 10.6864 16.8764 10.7188 17.0931C10.7291 17.1608 10.7919 17.1845 10.978 17.1924C11.1639 17.2004 11.59 16.9232 11.609 16.833L11.6156 16.7986C11.6319 16.7172 11.6592 16.58 11.7074 16.5602C11.7656 16.5366 11.8652 16.4297 11.9384 16.3519L11.9525 16.3373C11.9914 16.2955 12.0009 16.2539 12.0102 16.2144C12.0181 16.1831 12.0254 16.1515 12.0475 16.1227C12.0648 16.1017 12.0903 16.0902 12.1198 16.0775C12.1763 16.0524 12.2476 16.0203 12.2989 15.9005C12.3499 15.7831 12.6546 15.5799 12.8771 15.4321C12.9907 15.357 13.0799 15.2969 13.1012 15.2705C13.1304 15.2351 13.1483 15.1669 13.1483 15.0945C13.1483 15.0086 13.1235 14.9172 13.0655 14.8664C12.981 14.7936 12.9016 14.5768 12.8779 14.5088V14.5073C12.8779 14.4791 12.875 14.4275 12.8705 14.3315C12.8699 14.3272 12.8699 14.3225 12.8699 14.3184C12.8699 14.0644 13.2761 13.8159 13.4514 13.7089L13.5314 13.6576C14.1672 13.1363 14.2917 12.74 14.3152 12.6312L14.3282 12.5009C14.3321 12.4107 14.3353 12.3247 14.3939 12.3134C14.4168 12.3093 14.4549 12.3264 14.4781 12.3521C14.4913 12.366 14.5107 12.3949 14.4977 12.4283C14.4688 12.5014 14.4591 13.2363 14.4588 13.2669C14.461 13.272 14.5272 13.3446 14.5272 13.3446L14.5393 13.3578L14.543 13.3406C14.5438 13.3321 14.5803 13.1318 14.5803 13.061C14.5803 12.9817 14.7174 12.6424 14.7505 12.6365C14.7505 12.6375 14.7527 12.6404 14.7527 12.6404C14.7687 12.6873 14.7892 12.8032 14.7892 12.9254C14.7892 13.0454 14.7696 13.1716 14.7069 13.2447C14.6117 13.3543 14.5358 13.5276 14.4864 13.642L14.4406 13.7393C14.4355 13.7528 14.4332 13.7671 14.434 13.7814C14.434 13.8745 14.4856 14.073 14.5195 14.11C14.5284 14.1187 14.5356 14.1187 14.5406 14.1171C14.5516 14.1132 14.5616 14.1 14.5616 14.022C14.5616 13.7249 14.8301 13.5095 14.8333 13.5079C15.0701 13.3332 15.1217 13.0094 15.1217 12.7627C15.1217 12.5759 15.0922 12.4333 15.0914 12.4294C15.0539 12.3778 15.016 12.3265 14.9777 12.2755C14.9832 12.278 15.0141 12.2544 15.0243 12.2468C15.0345 12.2591 15.1424 12.392 15.1424 12.392C15.1606 12.4157 15.2067 12.4846 15.2067 12.5121C15.2067 12.6649 15.232 12.7695 15.25 12.8463L15.2545 12.8644C15.2734 12.9458 15.3918 13.2058 15.3971 13.2169L15.4097 13.2444L15.4136 13.2146C15.4136 13.2133 15.4324 13.0774 15.4136 12.9611C15.4029 12.8959 15.4163 12.8159 15.4299 12.7295L15.4515 12.5312C15.4515 12.3701 15.4267 12.2683 15.3649 12.1757L15.3334 12.1313C15.321 12.1131 15.3089 12.0953 15.3102 12.0917L15.3334 12.0824C15.8334 11.9247 16.0661 11.5825 16.161 11.393C16.2603 11.1922 16.2656 10.883 16.2656 10.8235C16.2656 10.746 16.262 10.3442 16.1894 10.1378C16.1468 10.016 16.1604 9.88517 16.1747 9.74397L16.1902 9.50224C16.1902 9.33688 16.2838 9.21408 16.3745 9.09541L16.4827 8.93969C16.5534 8.81 16.5158 8.69647 16.4874 8.66404Z" fill="#13141A"/>
<path fill-rule="evenodd" clip-rule="evenodd" d="M10.8902 3.48825C10.8985 3.48875 11.0048 3.44181 11.0048 3.44181C11.0095 3.43292 10.9849 3.33941 10.9849 3.33941C10.9082 3.25486 10.8311 3.17061 10.7536 3.08667L10.7422 3.07428L10.7383 3.0898L10.7135 3.19107C10.7136 3.19007 10.6401 3.35355 10.6401 3.35355L10.6367 3.36044L10.7916 3.43405L10.8902 3.48825Z" fill="#13141A"/>
<path fill-rule="evenodd" clip-rule="evenodd" d="M10.9363 4.13703C10.9608 4.14554 10.9978 4.14178 11.0328 4.12726C11.0864 4.10385 11.1181 4.0638 11.1045 4.03513L11.0798 4.01448C11.0556 4.00584 11.0185 4.00972 10.9841 4.02449C10.9381 4.04352 10.9088 4.07519 10.9088 4.1021C10.9088 4.10698 10.9103 4.11224 10.912 4.11637L10.9363 4.13703ZM11.8613 3.78214L11.9055 3.8043C11.909 3.81141 11.9143 3.81768 11.9208 3.82267C11.9273 3.82765 11.9349 3.83121 11.9431 3.83309C11.9525 3.83492 11.9622 3.83474 11.9716 3.83257C11.9809 3.83041 11.9896 3.8263 11.9969 3.82057C12.0088 3.81194 12.0116 3.79579 12.0041 3.77538C11.9922 3.74146 11.9541 3.70441 11.913 3.70441C11.8601 3.70441 11.8118 3.71004 11.8118 3.74634C11.8119 3.76675 11.8371 3.77451 11.8613 3.78214ZM11.9143 3.92723C11.8938 3.94125 11.8848 3.96015 11.8906 3.9793L11.8947 3.9952C11.9 4.01397 11.9019 4.01786 11.9205 4.01986L11.9541 4.02549C11.9972 4.03576 12.0654 4.01085 12.0809 3.9788C12.0861 3.96841 12.0903 3.94826 12.0609 3.92923C12.0104 3.89793 11.9482 3.90469 11.9143 3.92723ZM12.052 4.4844C12.0396 4.47889 12.0449 4.46061 12.0545 4.43408C12.0621 4.41242 12.0691 4.39164 12.0571 4.38025C12.0466 4.37086 12.0279 4.37161 11.9961 4.38263C11.8817 4.42093 11.8642 4.52934 11.8515 4.60858L11.8476 4.63299C11.841 4.66829 11.8605 4.6803 11.8726 4.68431C11.9121 4.69733 11.9833 4.66403 11.9994 4.63862C12.0173 4.6112 12.1161 4.58617 12.1882 4.56789L12.2158 4.56088C12.2492 4.55237 12.2663 4.54048 12.2687 4.52433C12.2724 4.50318 12.2472 4.4839 12.2248 4.4715C12.2041 4.46011 12.1732 4.46825 12.1409 4.47689C12.1089 4.48502 12.0744 4.49341 12.052 4.4844ZM10.8421 4.52508C10.8674 4.5227 10.8872 4.51357 10.8998 4.49679C10.9363 4.44622 10.9381 4.37462 10.9027 4.30965C10.8685 4.24768 10.8099 4.208 10.7501 4.206L10.7509 4.20625L10.7379 4.20462L10.6277 4.21263C10.5695 4.22465 10.5155 4.26458 10.5025 4.30389C10.4959 4.32379 10.4996 4.34194 10.5143 4.35559C10.6027 4.44259 10.7553 4.53122 10.8421 4.52508ZM9.75731 4.44271C9.77051 4.47288 9.83098 4.47626 9.91973 4.45173L9.93926 4.44622L10.0983 4.38839L10.3287 4.24756C10.3355 4.24268 10.3957 4.20062 10.3833 4.1737C10.3745 4.15605 10.3445 4.15918 10.3228 4.16294C10.2592 4.1737 10.1969 4.20212 10.1305 4.23216L10.0368 4.2726L9.99542 4.28837C9.8528 4.3432 9.7359 4.39239 9.75731 4.44271ZM9.27276 4.59944C9.22481 4.59944 9.20326 4.6236 9.18576 4.645L9.16434 4.66754C9.12744 4.69695 9.11613 4.76805 9.12071 4.82213C9.12259 4.84466 9.12946 4.88547 9.1533 4.89849C9.19895 4.92465 9.22077 4.90625 9.26737 4.86507L9.30346 4.83628C9.34925 4.8006 9.40245 4.76017 9.40905 4.69795C9.41228 4.67167 9.40554 4.65001 9.38979 4.63374C9.36177 4.60545 9.3106 4.59944 9.27276 4.59944ZM9.5378 4.61909C9.52406 4.61634 9.51584 4.62034 9.51153 4.62447C9.49766 4.63712 9.50332 4.66416 9.50763 4.68581L9.51032 4.70096L9.50749 4.7101C9.50439 4.71786 9.50089 4.72775 9.50749 4.73613C9.51342 4.74452 9.52783 4.74815 9.55234 4.74815C9.58345 4.7484 9.58655 4.7454 9.59705 4.71961L9.6054 4.69971C9.61294 4.68218 9.61308 4.66641 9.60594 4.65389C9.59315 4.63186 9.56136 4.62347 9.5378 4.61909ZM9.79408 5.00514C9.81035 5.00445 9.82569 4.99795 9.83694 4.987C9.84818 4.97606 9.85446 4.96151 9.85446 4.94637C9.85446 4.93124 9.84818 4.91669 9.83694 4.90574C9.82569 4.8948 9.81035 4.8883 9.79408 4.8876C9.78586 4.88765 9.77773 4.88921 9.77015 4.89219C9.76258 4.89517 9.75572 4.89952 9.74996 4.90497C9.7442 4.91043 9.73966 4.91689 9.7366 4.92399C9.73354 4.93108 9.73202 4.93867 9.73213 4.94631C9.73213 4.97873 9.75974 5.00514 9.79408 5.00514ZM10.9486 4.86194C10.9397 4.8604 10.9306 4.86115 10.9221 4.86411C10.9136 4.86706 10.9062 4.87211 10.9006 4.87871C10.8835 4.89724 10.7794 4.96358 10.7033 5.01215L10.6051 5.077L10.5971 5.08413C10.5849 5.0949 10.5788 5.10153 10.5868 5.12381L10.5988 5.13946L10.6246 5.13458L10.6629 5.12144L10.7179 5.11342C10.7722 5.10692 10.8316 5.0994 10.8596 5.07274L10.8961 5.01729L10.9504 4.9363C10.9764 4.90963 10.9777 4.89136 10.9741 4.88097C10.972 4.87601 10.9685 4.87166 10.9641 4.86832C10.9596 4.86498 10.9543 4.86278 10.9486 4.86194ZM11.0627 5.18916C11.0627 5.21908 11.0787 5.23084 11.0878 5.23497C11.1121 5.24699 11.1472 5.23535 11.168 5.20831L11.2386 5.15123C11.2768 5.12569 11.3195 5.0969 11.3574 5.05221C11.3924 5.01028 11.3773 4.98449 11.3648 4.97347C11.3408 4.95169 11.2915 4.94669 11.2748 4.95945L11.2545 4.97235C11.2083 5.00026 11.0989 5.06623 11.0715 5.14647C11.066 5.16016 11.0631 5.17458 11.0627 5.18916ZM11.5225 5.15686C11.5081 5.13733 11.4833 5.1292 11.4649 5.13758L11.4152 5.17263C11.3801 5.19917 11.3365 5.23285 11.2987 5.24273C11.2068 5.26564 11.0822 5.30382 11.0746 5.36241L11.0744 5.37004C11.0744 5.38619 11.0822 5.39583 11.0898 5.40121C11.1247 5.42762 11.2094 5.41198 11.2707 5.39045C11.3647 5.35815 11.4218 5.31872 11.4956 5.25638C11.5409 5.21795 11.5389 5.17952 11.5225 5.15686ZM11.1653 5.83158L11.1354 5.82845C11.0581 5.8476 10.9262 6.0589 10.8335 6.21638L10.8169 6.24367L10.5392 6.72811L10.4521 6.88233C10.4424 6.89635 10.4458 6.91688 10.4603 6.93028C10.4738 6.94279 10.4974 6.94968 10.5259 6.9329C10.5722 6.90424 10.7412 6.74839 10.8196 6.62597L10.924 6.49215C10.9909 6.41091 11.0672 6.32003 11.1119 6.21175L11.1276 6.17444C11.2336 5.91895 11.2502 5.8799 11.1653 5.83158ZM12.2096 4.90037C12.2017 4.9002 12.1938 4.90149 12.1865 4.90415C12.1791 4.90681 12.1723 4.91079 12.1666 4.91587C12.1609 4.92095 12.1563 4.92703 12.1531 4.93375C12.15 4.94048 12.1482 4.94772 12.1481 4.95507C12.1481 4.98524 12.1757 5.00978 12.2096 5.00978C12.2435 5.00978 12.2706 4.98524 12.2706 4.95507C12.2705 4.94775 12.2688 4.94053 12.2657 4.93381C12.2625 4.92709 12.258 4.92102 12.2523 4.91594C12.2467 4.91085 12.24 4.90686 12.2326 4.90419C12.2253 4.90152 12.2175 4.90022 12.2096 4.90037ZM12.1804 5.12857C12.1804 5.15886 12.208 5.1834 12.2419 5.1834C12.2498 5.18348 12.2575 5.18213 12.2648 5.17942C12.272 5.1767 12.2787 5.17269 12.2843 5.16759C12.2899 5.1625 12.2943 5.15643 12.2974 5.14974C12.3004 5.14304 12.3021 5.13585 12.3021 5.12857C12.3019 5.11389 12.2955 5.09986 12.2842 5.08959C12.2729 5.07931 12.2577 5.07361 12.2419 5.07374C12.226 5.07351 12.2105 5.07913 12.199 5.0894C12.1875 5.09966 12.1808 5.11374 12.1804 5.12857ZM12.2369 5.24987C12.1986 5.24987 12.1668 5.27353 12.1668 5.30182C12.1668 5.33048 12.1986 5.35389 12.2369 5.35389C12.2759 5.35389 12.3074 5.33061 12.3074 5.30182C12.3075 5.27353 12.2759 5.24987 12.2369 5.24987ZM12.2341 5.40159C12.1899 5.40159 12.1547 5.4275 12.1547 5.45942C12.1547 5.49109 12.1899 5.517 12.2341 5.517C12.2783 5.517 12.313 5.49097 12.313 5.45942C12.313 5.4275 12.2783 5.40159 12.2341 5.40159ZM12.2369 5.59411C12.1883 5.59411 12.1481 5.62103 12.1481 5.65495C12.1481 5.68837 12.1883 5.71529 12.2369 5.71529C12.2858 5.71529 12.3253 5.68837 12.3253 5.65495C12.3253 5.62103 12.2858 5.59411 12.2369 5.59411ZM12.2069 5.91682C12.2621 5.91232 12.3027 5.88415 12.2996 5.85161L12.2822 5.82206C12.2632 5.80717 12.2301 5.79966 12.1964 5.80254C12.1431 5.80704 12.1036 5.83383 12.1036 5.8645L12.1039 5.86763L12.1218 5.89705C12.1412 5.91232 12.1728 5.91983 12.2069 5.91682ZM12.2038 6.11949C12.2656 6.11098 12.3093 6.07943 12.3043 6.04689L12.2861 6.01985C12.2645 6.00445 12.2259 5.99832 12.1864 6.0037C12.1257 6.01159 12.081 6.04376 12.086 6.0763L12.1047 6.10322C12.1265 6.11874 12.1644 6.12462 12.2038 6.11949ZM12.0997 6.21725C12.0997 6.25268 12.146 6.28097 12.2068 6.28097C12.2672 6.28097 12.313 6.25268 12.313 6.21725C12.313 6.18183 12.2672 6.15391 12.2068 6.15391C12.1459 6.15404 12.0997 6.18183 12.0997 6.21725ZM12.2891 6.42443C12.2891 6.38687 12.2338 6.35821 12.1633 6.35821C12.0935 6.35821 12.0383 6.38687 12.0383 6.42443C12.0383 6.46173 12.0935 6.4909 12.1633 6.4909C12.2338 6.4909 12.2891 6.46173 12.2891 6.42443ZM12.2088 6.5993C12.2088 6.56262 12.1674 6.53296 12.1175 6.53296C12.0667 6.53296 12.0254 6.56262 12.0254 6.5993C12.0254 6.63598 12.0667 6.66577 12.1175 6.66577C12.1676 6.66577 12.2088 6.63598 12.2088 6.5993ZM12.1657 6.81799C12.1657 6.77681 12.1221 6.74288 12.0678 6.74288C12.0142 6.74288 11.9707 6.77681 11.9707 6.81799C11.9707 6.85955 12.0141 6.89297 12.0678 6.89297C12.1221 6.89297 12.1657 6.85955 12.1657 6.81799ZM12.0862 7.03079C12.0862 6.99374 12.0504 6.96432 12.0068 6.96432C11.9634 6.96432 11.9268 6.99362 11.9268 7.03079C11.9268 7.06722 11.9633 7.09701 12.0068 7.09701C12.0504 7.09714 12.0862 7.06722 12.0862 7.03079ZM11.9486 7.15673C11.9066 7.15673 11.8718 7.18639 11.8718 7.2232C11.8718 7.25962 11.9066 7.28929 11.9486 7.28929C11.9905 7.28929 12.0248 7.2595 12.0248 7.2232C12.025 7.18639 11.9905 7.15673 11.9486 7.15673ZM11.8837 7.47606C11.9268 7.47606 11.9634 7.45027 11.9634 7.41835C11.9634 7.38643 11.9269 7.36102 11.8837 7.36102C11.8403 7.36102 11.8048 7.38655 11.8048 7.41835C11.8048 7.45015 11.8403 7.47606 11.8837 7.47606ZM11.8106 7.61588C11.8506 7.61588 11.8834 7.59423 11.8834 7.56694C11.8834 7.53977 11.8511 7.51824 11.8106 7.51824C11.7687 7.51824 11.7369 7.53965 11.7369 7.56694C11.7369 7.59423 11.7698 7.61588 11.8106 7.61588ZM11.7396 7.75033C11.7777 7.75033 11.81 7.72842 11.81 7.70126C11.81 7.67434 11.7777 7.65244 11.7396 7.65244C11.7004 7.65244 11.6694 7.67434 11.6694 7.70126C11.6693 7.72842 11.7004 7.75033 11.7396 7.75033ZM9.66318 7.63128L9.67584 7.63353L9.77172 7.61751C9.85684 7.59999 9.98505 7.57332 10.1428 7.56944C10.258 7.56656 10.383 7.60399 10.4738 7.63153C10.5562 7.65707 10.5973 7.66808 10.6129 7.65231C10.6227 7.64192 10.6167 7.62677 10.6113 7.61613C10.5865 7.56644 10.478 7.40308 10.1238 7.39557C9.8936 7.39069 9.706 7.53614 9.66587 7.59761C9.65792 7.61012 9.65577 7.61939 9.65981 7.62627L9.66318 7.63128ZM10.9803 8.25017C11.0028 8.23677 11.0125 8.21311 11.011 8.17919C11.0035 8.046 10.9651 8.03085 10.886 8.03085C10.8059 8.03085 10.748 8.10558 10.748 8.14439C10.748 8.18082 10.7768 8.21274 10.8327 8.23877C10.8643 8.2543 10.9372 8.27645 10.9803 8.25017ZM12.067 9.87837C12.1812 9.92794 12.2213 9.94559 12.2384 9.95048C12.239 9.95048 12.2395 9.95198 12.2395 9.95198C12.2395 9.95198 12.2403 9.95135 12.2403 9.9511C12.2483 9.95335 12.2508 9.95248 12.2527 9.94997C12.2516 9.94922 12.2472 9.94296 12.2448 9.94121C12.2461 9.94021 12.2474 9.93758 12.2474 9.93758C12.2474 9.93758 12.2403 9.93483 12.2398 9.9342C12.1642 9.84558 11.7093 9.24434 11.6125 8.84865C11.5972 8.78343 11.5793 8.72272 11.5335 8.69843C11.5078 8.68504 11.4754 8.68404 11.4359 8.6963H11.4356C11.4265 8.69881 11.4199 8.70582 11.4157 8.71608C11.4118 8.72722 11.4101 8.73893 11.4107 8.75063C11.4107 8.89196 11.5727 9.28102 11.6257 9.36101C11.9184 9.80276 12.0615 9.87537 12.067 9.87837ZM15.7856 10.0502L15.7682 10.0534C15.7688 10.0559 15.7727 10.1739 15.7727 10.3255C15.7727 10.5466 15.7645 10.8414 15.7233 10.9738C15.6899 11.0811 15.5367 11.2865 15.4131 11.4509C15.4131 11.4509 15.2693 11.6514 15.2693 11.6517C15.2652 11.6584 15.2631 11.666 15.2632 11.6737C15.2632 11.6935 15.274 11.7121 15.293 11.7238C15.3074 11.733 15.3595 11.7568 15.4321 11.6763L15.5239 11.5861C15.6465 11.4724 15.7988 11.3313 15.9061 11.0199C16.0238 10.678 15.7876 10.0561 15.7856 10.0502ZM11.9543 11.1641C11.9653 11.1744 11.9832 11.1772 12.0019 11.171C12.0163 11.1663 12.029 11.1579 12.0383 11.1467C12.0477 11.1355 12.0533 11.122 12.0546 11.1079C12.059 11.0651 12.0911 11.0076 12.1388 10.9585C12.1636 10.9323 12.1765 10.8981 12.1748 10.8632C12.1731 10.8283 12.1569 10.7953 12.1296 10.7713L12.0686 10.7486C12.0294 10.7499 12.0002 10.779 11.9986 10.7799C11.9781 10.8709 11.9581 10.9619 11.9386 11.0531V11.0528C11.9328 11.068 11.9276 11.1403 11.9543 11.1641ZM13.938 12.1723L13.9349 12.171L13.9318 12.1723C13.9294 12.174 13.8782 12.1962 13.8637 12.2426C13.8537 12.2739 13.8723 12.3011 13.8868 12.3235L13.9039 12.3533L13.9113 12.4128L13.9229 12.5003C13.9258 12.5093 13.9319 12.5172 13.9402 12.5226C13.9485 12.528 13.9586 12.5306 13.9687 12.53C13.9927 12.5293 14.0206 12.5121 14.0297 12.4775C14.0421 12.4305 14.0482 12.3669 14.0482 12.2823C14.0479 12.2051 13.9427 12.1733 13.938 12.1723ZM10.8591 11.4604C10.8522 11.453 10.125 10.7195 9.96781 10.5273C9.80768 10.3304 9.73119 10.3155 9.65281 10.3558C9.64703 10.3589 9.64214 10.3632 9.63855 10.3684C9.63496 10.3736 9.63278 10.3796 9.6322 10.3857C9.62089 10.4657 9.80256 10.6592 9.96161 10.8013C10.184 11.0002 10.8408 11.4678 10.8475 11.4724L10.8591 11.4604ZM8.0087 9.29541C7.86137 9.21042 7.60629 9.16322 7.60374 9.16222L7.597 9.17662L7.87995 9.3749C7.92655 9.41045 8.13247 9.52925 8.199 9.48068C8.2033 9.47766 8.20675 9.47371 8.20905 9.46917C8.21135 9.46464 8.21243 9.45965 8.21219 9.45464C8.21004 9.41896 8.13866 9.37127 8.0087 9.29541ZM7.93961 8.17318L7.95955 8.16529C7.985 8.13863 7.92641 8.0629 7.85517 8.00169C7.79093 7.94661 7.72561 7.91105 7.69141 7.91281L7.67201 7.92057C7.66786 7.92528 7.66574 7.93126 7.66609 7.93734C7.66609 7.97189 7.717 8.03298 7.77612 8.0843C7.84049 8.13938 7.90635 8.17518 7.93961 8.17318ZM8.69567 8.07742L8.66672 8.07905C8.61177 8.10045 8.5245 8.23026 8.45488 8.39462C8.40586 8.51066 8.36882 8.63722 8.36882 8.71345C8.36882 8.74963 8.37717 8.77417 8.39576 8.78143L8.42431 8.7798C8.47925 8.75802 8.56625 8.62796 8.63669 8.4641C8.68558 8.34781 8.72221 8.22125 8.72221 8.14489C8.72221 8.10896 8.71426 8.0843 8.69567 8.07742ZM7.33466 7.27577C7.26368 7.27577 7.20712 7.30707 7.20712 7.34662C7.20712 7.38593 7.26368 7.41685 7.33466 7.41685C7.40671 7.41685 7.46273 7.38593 7.46273 7.34662C7.46273 7.30707 7.40671 7.27577 7.33466 7.27577ZM6.88202 8.15165L6.9041 8.14977C6.94248 8.13225 7.00053 8.03523 7.0443 7.91418C7.09063 7.78538 7.11594 7.64705 7.0711 7.63228L7.04941 7.63441C7.01036 7.65231 6.95245 7.74907 6.90908 7.87C6.86195 7.99893 6.83811 8.13725 6.88202 8.15165ZM7.00053 8.81798C7.03824 8.77104 7.04578 8.71821 7.01777 8.69843L6.98518 8.69192C6.95797 8.69518 6.92551 8.71646 6.90127 8.74788C6.86356 8.79482 6.85602 8.84752 6.8839 8.86692L6.91663 8.87406C6.9437 8.87018 6.97656 8.84915 7.00053 8.81798ZM6.95716 9.54777L6.95407 9.54602L6.93993 9.54464C6.88902 9.55566 6.92484 9.7617 6.9511 9.87011C6.98841 10.0215 7.03891 10.1436 7.07393 10.1639L7.07689 10.1659L7.09076 10.1673C7.14247 10.1563 7.10584 9.94922 7.07972 9.84182C7.04268 9.6896 6.99272 9.56818 6.95716 9.54777ZM6.44432 9.82442C6.40325 9.82442 6.37012 9.85271 6.37012 9.88801C6.37012 9.92156 6.40325 9.94985 6.44432 9.94985C6.48513 9.94985 6.51934 9.92156 6.51934 9.88801C6.51947 9.85271 6.48526 9.82442 6.44432 9.82442ZM7.70434 11.3201C7.68162 11.32 7.65977 11.3282 7.64355 11.343C7.62734 11.3578 7.61806 11.3779 7.61774 11.3991C7.61774 11.4416 7.65666 11.4768 7.70434 11.4768C7.72695 11.4772 7.7488 11.4692 7.76511 11.4546C7.78141 11.44 7.79084 11.4201 7.79134 11.3991C7.79102 11.3779 7.78168 11.3577 7.76538 11.3429C7.74908 11.3281 7.72713 11.3199 7.70434 11.3201ZM11.964 13.4038C11.9666 13.4077 11.9745 13.4207 11.9863 13.4194L11.9913 13.4192L12.0005 13.4064L12.0786 13.1851L12.1396 13.0376L12.1917 12.9255C12.2077 12.8878 12.2077 12.8626 12.192 12.848C12.1669 12.8267 12.1152 12.8449 12.1089 12.847C12.1047 12.8501 11.9621 13.0714 11.9621 13.0714C11.9342 13.111 11.9237 13.1643 11.9237 13.2192C11.9237 13.2973 11.9447 13.3753 11.964 13.4038ZM12.3203 14.5094L12.3231 14.4871C12.325 14.474 12.3678 14.1661 12.266 14.0472C12.2556 14.0343 12.2425 14.0236 12.2273 14.0157C12.2122 14.0079 12.1955 14.003 12.1782 14.0015C12.1477 13.9989 12.1266 14.0072 12.1151 14.0251C12.053 14.1194 12.2966 14.475 12.3074 14.4904L12.3203 14.5094ZM12.8906 15.095C12.879 15.0948 12.8675 15.0968 12.8567 15.1009C12.8459 15.1049 12.8361 15.1108 12.8278 15.1184C12.8195 15.126 12.8128 15.135 12.8083 15.1449C12.8037 15.1548 12.8013 15.1655 12.8012 15.1763C12.8012 15.222 12.8412 15.2575 12.8906 15.2575C12.9138 15.2575 12.9361 15.2489 12.9525 15.2337C12.9688 15.2184 12.9781 15.1978 12.9781 15.1762C12.9781 15.1547 12.9688 15.134 12.9525 15.1188C12.9361 15.1035 12.9138 15.095 12.8906 15.095ZM11.5478 14.1035C11.5059 14.1035 11.4702 14.1338 11.4702 14.1713C11.4702 14.2097 11.5061 14.2392 11.5478 14.2392C11.5906 14.2392 11.6251 14.2097 11.6251 14.1713C11.6251 14.1338 11.5906 14.1035 11.5478 14.1035ZM12.5264 15.304L12.5169 15.302C12.4706 15.302 12.2953 15.4446 12.1458 15.5868C12.1326 15.5998 11.808 15.9093 11.851 15.9496L11.8534 15.9521L11.8639 15.9541C11.9108 15.9541 12.0858 15.811 12.2345 15.6695C12.2485 15.6564 12.5736 15.3481 12.5293 15.3063L12.5264 15.304ZM11.5517 16.1406C11.5246 16.1406 11.4822 16.1641 11.4444 16.1993C11.3991 16.2414 11.3663 16.2996 11.3905 16.3235L11.4145 16.3315C11.4421 16.3315 11.4846 16.3085 11.5224 16.2725C11.5665 16.23 11.6005 16.173 11.5753 16.1489L11.5517 16.1406ZM11.1241 16.7133C11.0909 16.7133 11.0439 16.7387 11.0028 16.7774C10.9598 16.8174 10.9352 16.8617 10.9352 16.8925C10.9352 16.9043 10.9385 16.9138 10.9465 16.9205L10.9768 16.9312C11.0095 16.9312 11.0579 16.9066 11.0981 16.8676C11.1578 16.8109 11.1818 16.7502 11.1547 16.7239L11.1241 16.7133ZM8.88866 13.8288C8.82456 13.8288 8.77244 13.8627 8.77244 13.9055C8.77244 13.9481 8.82469 13.9809 8.88866 13.9809C8.95331 13.9809 9.00489 13.9481 9.00489 13.9055C9.00502 13.8627 8.95331 13.8288 8.88866 13.8288ZM9.83543 13.8904C9.78991 13.8904 9.75449 13.9131 9.75449 13.9432C9.75449 13.9714 9.78991 13.9945 9.83543 13.9945C9.87933 13.9945 9.91569 13.9712 9.91569 13.9432C9.91569 13.9138 9.87933 13.8904 9.83543 13.8904ZM10.9909 14.2498L10.9979 14.2397C11.011 14.1892 10.7384 14.1102 10.5927 14.0759C10.4178 14.0343 10.2098 14.001 10.1639 14.0267L10.1607 14.0287L10.1533 14.0392C10.1401 14.0903 10.4125 14.1683 10.5585 14.2037C10.7333 14.2445 10.9412 14.2768 10.9878 14.2514L10.9909 14.2498Z" fill="white"/>
</g>
</svg>
