<svg width="22" height="22" viewBox="0 0 22 22" fill="none" xmlns="http://www.w3.org/2000/svg">
<mask id="mask0_2597_2448" style="mask-type:alpha" maskUnits="userSpaceOnUse" x="0" y="0" width="22" height="23">
<rect y="0.00012207" width="22" height="22" fill="#D9D9D9"/>
</mask>
<g mask="url(#mask0_2597_2448)">
<path d="M20.0169 9.48569C20.3867 9.48569 20.6876 9.18383 20.6876 8.81277V7.96444H21.3293C21.6991 7.96444 22 7.66258 22 7.29151V5.74899C22 5.37792 21.6991 5.07606 21.3293 5.07606H20.9215L11.3875 0.0952549C11.1449 -0.0310387 10.8552 -0.0317767 10.6131 0.0932144L0.928083 5.07606H0.670705C0.300865 5.07606 0 5.37792 0 5.74899V7.29151C0 7.66258 0.300865 7.96444 0.670705 7.96444H1.31242V8.81277C1.31242 9.18383 1.61328 9.48569 1.98312 9.48569H2.17785V17.5908H1.98312C1.61328 17.5908 1.31242 17.8927 1.31242 18.2637V19.1116H0.670705C0.300865 19.1116 0 19.4135 0 19.7845V21.3271C0 21.6981 0.300865 22 0.670705 22H15.3579C15.5371 22 15.6824 21.8543 15.6824 21.6744C15.6824 21.4945 15.5371 21.3488 15.3579 21.3488H0.670705C0.664992 21.3487 0.659534 21.3464 0.655493 21.3423C0.651453 21.3383 0.649148 21.3328 0.64907 21.3271V19.7845C0.64907 19.773 0.659152 19.7628 0.670705 19.7628H21.3293C21.3408 19.7628 21.3509 19.773 21.3509 19.7845V21.3271C21.3509 21.3388 21.341 21.3488 21.3293 21.3488H16.8724C16.6931 21.3488 16.5478 21.4945 16.5478 21.6744C16.5478 21.8543 16.6931 22 16.8724 22H21.3293C21.6991 22 22 21.6981 22 21.3271V19.7845C22 19.4135 21.6991 19.1116 21.3293 19.1116H20.5794V18.3437C20.5794 17.9726 20.2785 17.6707 19.9087 17.6707H19.8222V9.48569H20.0169ZM20.0385 8.81277C20.0385 8.82471 20.0288 8.83447 20.0169 8.83447H16.5984C16.5927 8.83446 16.5872 8.83217 16.5832 8.8281C16.5791 8.82403 16.5768 8.81852 16.5768 8.81277V7.96444H20.0385V8.81277ZM16.7066 17.6707C16.3368 17.6707 16.0359 17.9726 16.0359 18.3437V19.1116H14.6015V12.9979C14.6015 12.0332 14.2269 11.1259 13.5466 10.4428C12.8659 9.76038 11.9616 9.38454 11 9.38454C9.01415 9.38454 7.39853 11.0055 7.39853 12.9979V19.1116H6.07226V18.2637C6.07226 17.8926 5.7714 17.5908 5.40156 17.5908H5.20684V9.48569H5.40156C5.7714 9.48569 6.07226 9.18383 6.07226 8.81277V7.96444H15.9277V8.81277C15.9277 9.18383 16.2286 9.48569 16.5984 9.48569H16.7932V17.6707H16.7066V17.6707ZM13.9524 19.1116H8.0476V12.9979C8.0476 11.3646 9.37205 10.0358 11 10.0358C11.7883 10.0358 12.5297 10.344 13.0876 10.9033C13.6453 11.4632 13.9524 12.2071 13.9524 12.9979V19.1116ZM0.64907 7.29151V5.74899C0.64907 5.73722 0.658979 5.72728 0.670705 5.72728H4.537C4.71623 5.72728 4.86153 5.58154 4.86153 5.40167C4.86153 5.2218 4.71623 5.07606 4.537 5.07606H2.35058L10.9096 0.672454C10.9373 0.658266 10.9679 0.650918 10.999 0.651024C11.03 0.65113 11.0606 0.658686 11.0881 0.673062L19.5161 5.07606H6.05149C5.87226 5.07606 5.72696 5.2218 5.72696 5.40167C5.72696 5.58154 5.87226 5.72728 6.05149 5.72728H21.3293C21.341 5.72728 21.3509 5.73722 21.3509 5.74899V7.29151C21.3509 7.30328 21.341 7.31322 21.3293 7.31322H0.670705C0.664988 7.31315 0.659524 7.31084 0.655481 7.30679C0.651438 7.30273 0.649137 7.29725 0.64907 7.29151ZM1.96149 8.81277V7.96444H5.42319V8.81277C5.42319 8.81852 5.42091 8.82404 5.41686 8.82811C5.4128 8.83219 5.4073 8.83447 5.40156 8.83447H1.98312C1.97739 8.83447 1.97188 8.83219 1.96783 8.82811C1.96377 8.82404 1.96149 8.81852 1.96149 8.81277ZM2.82691 9.48569H4.55777V17.5908H2.82691V9.48569ZM1.96149 18.2637C1.96149 18.258 1.96377 18.2524 1.96783 18.2484C1.97188 18.2443 1.97739 18.242 1.98312 18.242H5.40156C5.4073 18.242 5.4128 18.2443 5.41686 18.2484C5.42091 18.2524 5.42319 18.258 5.42319 18.2637V19.1116H1.96149V18.2637ZM19.9303 18.3437V19.1116H16.685V18.3437C16.685 18.3317 16.6947 18.3219 16.7066 18.3219H19.9087C19.9144 18.3219 19.9199 18.3242 19.924 18.3283C19.9281 18.3324 19.9303 18.3379 19.9303 18.3437ZM19.1731 17.6707H17.4422V9.48569H19.1731V17.6707Z" fill="#5E5E5E"/>
<path d="M10.9997 4.13194C11.7028 4.13194 12.2748 3.55804 12.2748 2.85264C12.2748 2.14723 11.7028 1.57333 10.9997 1.57333C10.2966 1.57333 9.72461 2.14723 9.72461 2.85264C9.72461 3.55804 10.2966 4.13194 10.9997 4.13194ZM10.9997 2.22456C11.3449 2.22456 11.6257 2.50632 11.6257 2.85264C11.6257 3.19896 11.3449 3.48072 10.9997 3.48072C10.6545 3.48072 10.3737 3.19896 10.3737 2.85264C10.3737 2.50632 10.6545 2.22456 10.9997 2.22456Z" fill="#5E5E5E"/>
</g>
</svg>
