<svg width="22" height="22" viewBox="0 0 22 22" fill="none" xmlns="http://www.w3.org/2000/svg">
<mask id="mask0_2597_2477" style="mask-type:alpha" maskUnits="userSpaceOnUse" x="0" y="0" width="22" height="23">
<rect y="0.000137329" width="22" height="22" fill="#D9D9D9"/>
</mask>
<g mask="url(#mask0_2597_2477)">
<path d="M18.0639 9.11287H14.0078V21.3833H18.2788V9.3331C18.2788 9.21198 18.1821 9.11287 18.0639 9.11287Z" fill="#9EA7AF"/>
<path d="M3.97852 11.3725C3.86035 11.3725 3.76367 11.4716 3.76367 11.5927V21.3833H7.94874V11.3725H3.97852Z" fill="#FCDB67"/>
<path opacity="0.1" d="M4.85499 21.3833V11.5927C4.85499 11.4716 4.95167 11.3725 5.06984 11.3725H3.97852C3.86035 11.3725 3.76367 11.4716 3.76367 11.5927V21.3833H4.85499V21.3833Z" fill="#13141A"/>
<path d="M10.8325 2.15069C10.875 2.12558 10.9349 2.11118 10.9971 2.11118C11.0592 2.11118 11.1192 2.12558 11.1616 2.15069L11.3193 2.24402V1.33035C11.3193 1.24274 11.2854 1.15871 11.2249 1.09676C11.1645 1.0348 11.0825 1 10.9971 1C10.9116 1 10.8296 1.0348 10.7692 1.09676C10.7088 1.15871 10.6748 1.24274 10.6748 1.33035V2.24402L10.8325 2.15069Z" fill="#775436"/>
<path d="M12.8902 3.89644V3.34268C12.8902 3.22155 12.8064 3.07289 12.7041 3.01233L11.1839 2.11253C11.0816 2.05197 10.9141 2.05197 10.8118 2.11253L9.29152 3.01233C9.18921 3.07289 9.10547 3.22155 9.10547 3.34268V3.89644H12.8902Z" fill="#C6A07D"/>
<path opacity="0.1" d="M10.1806 3.89644V3.34268C10.1806 3.22155 10.2644 3.07289 10.3667 3.01233L11.5354 2.32061L11.1839 2.11253C11.0816 2.05197 10.9141 2.05197 10.8118 2.11253L9.29152 3.01233C9.18921 3.07289 9.10547 3.22155 9.10547 3.34268V3.89644H10.1806Z" fill="#13141A"/>
<path d="M13.4549 4.96168V4.07264C13.4549 3.95151 13.3582 3.8524 13.2401 3.8524H8.75391C8.63574 3.8524 8.53906 3.95151 8.53906 4.07264V4.96168H13.4549Z" fill="#775436"/>
<path opacity="0.1" d="M9.62467 4.96168V4.07264C9.62467 3.95151 9.72135 3.8524 9.83951 3.8524H8.75391C8.63574 3.8524 8.53906 3.95151 8.53906 4.07264V4.96168H9.62467Z" fill="#13141A"/>
<path d="M14.0908 21.3833V5.13787C14.0908 5.01674 13.9941 4.91763 13.876 4.91763H8.11816C8 4.91763 7.90332 5.01674 7.90332 5.13787V21.3833H14.0908Z" fill="#C6A07D"/>
<path opacity="0.1" d="M8.98025 21.3833V5.13787C8.98025 5.01674 9.07693 4.91763 9.19509 4.91763H8.11816C8 4.91763 7.90332 5.01674 7.90332 5.13787V21.3833H8.98025Z" fill="#13141A"/>
<path d="M5.32812 19.9549C5.32812 20.0276 5.27012 20.087 5.19922 20.087H4.8125C4.7416 20.087 4.68359 20.0276 4.68359 19.9549V12.6137C4.68359 12.5411 4.7416 12.4816 4.8125 12.4816H5.19922C5.27012 12.4816 5.32812 12.5411 5.32812 12.6137V19.9549ZM6.31641 19.9549C6.31641 20.0276 6.2584 20.087 6.1875 20.087H5.80078C5.72988 20.087 5.67188 20.0276 5.67188 19.9549V12.6137C5.67188 12.5411 5.72988 12.4816 5.80078 12.4816H6.1875C6.2584 12.4816 6.31641 12.5411 6.31641 12.6137V19.9549ZM7.30469 19.9549C7.30469 20.0276 7.24668 20.087 7.17578 20.087H6.78906C6.71816 20.087 6.66016 20.0276 6.66016 19.9549V12.6137C6.66016 12.5411 6.71816 12.4816 6.78906 12.4816H7.17578C7.24668 12.4816 7.30469 12.5411 7.30469 12.6137V19.9549Z" fill="#D19546"/>
<path d="M17.6602 10.382C17.6602 10.4547 17.6021 10.5142 17.5312 10.5142H14.8242C14.7533 10.5142 14.6953 10.4547 14.6953 10.382V9.98561C14.6953 9.91293 14.7533 9.85347 14.8242 9.85347H17.5312C17.6021 9.85347 17.6602 9.91293 17.6602 9.98561V10.382ZM17.6602 11.3951C17.6602 11.4678 17.6021 11.5273 17.5312 11.5273H14.8242C14.7533 11.5273 14.6953 11.4678 14.6953 11.3951V10.9987C14.6953 10.926 14.7533 10.8666 14.8242 10.8666H17.5312C17.6021 10.8666 17.6602 10.926 17.6602 10.9987V11.3951ZM17.6602 12.4082C17.6602 12.4809 17.6021 12.5403 17.5312 12.5403H14.8242C14.7533 12.5403 14.6953 12.4809 14.6953 12.4082V12.0118C14.6953 11.9391 14.7533 11.8796 14.8242 11.8796H17.5312C17.6021 11.8796 17.6602 11.9391 17.6602 12.0118V12.4082ZM17.6602 13.4213C17.6602 13.494 17.6021 13.5534 17.5312 13.5534H14.8242C14.7533 13.5534 14.6953 13.494 14.6953 13.4213V13.0249C14.6953 12.9522 14.7533 12.8927 14.8242 12.8927H17.5312C17.6021 12.8927 17.6602 12.9522 17.6602 13.0249V13.4213ZM17.6602 14.4344C17.6602 14.507 17.6021 14.5665 17.5312 14.5665H14.8242C14.7533 14.5665 14.6953 14.507 14.6953 14.4344V14.0379C14.6953 13.9653 14.7533 13.9058 14.8242 13.9058H17.5312C17.6021 13.9058 17.6602 13.9653 17.6602 14.0379V14.4344ZM17.6602 15.4475C17.6602 15.5201 17.6021 15.5796 17.5312 15.5796H14.8242C14.7533 15.5796 14.6953 15.5201 14.6953 15.4475V15.051C14.6953 14.9784 14.7533 14.9189 14.8242 14.9189H17.5312C17.6021 14.9189 17.6602 14.9784 17.6602 15.051V15.4475Z" fill="#A2F9F9"/>
<path d="M9.32227 6.84004C9.32227 6.91271 9.26426 6.97218 9.19336 6.97218H8.80664C8.73574 6.97218 8.67773 6.91271 8.67773 6.84004V6.03961C8.67773 5.96693 8.73574 5.90747 8.80664 5.90747H9.19336C9.26426 5.90747 9.32227 5.96693 9.32227 6.03961V6.84004ZM10.3212 6.84004C10.3212 6.91271 10.2632 6.97218 10.1923 6.97218H9.80558C9.73468 6.97218 9.67667 6.91271 9.67667 6.84004V6.03961C9.67667 5.96693 9.73468 5.90747 9.80558 5.90747H10.1923C10.2632 5.90747 10.3212 5.96693 10.3212 6.03961V6.84004ZM11.3201 6.84004C11.3201 6.91271 11.2621 6.97218 11.1912 6.97218H10.8045C10.7336 6.97218 10.6756 6.91271 10.6756 6.84004V6.03961C10.6756 5.96693 10.7336 5.90747 10.8045 5.90747H11.1912C11.2621 5.90747 11.3201 5.96693 11.3201 6.03961V6.84004ZM12.319 6.84004C12.319 6.91271 12.261 6.97218 12.1901 6.97218H11.8034C11.7325 6.97218 11.6745 6.91271 11.6745 6.84004V6.03961C11.6745 5.96693 11.7325 5.90747 11.8034 5.90747H12.1901C12.261 5.90747 12.319 5.96693 12.319 6.03961V6.84004ZM13.318 6.84004C13.318 6.91271 13.26 6.97218 13.1891 6.97218H12.8023C12.7314 6.97218 12.6734 6.91271 12.6734 6.84004V6.03961C12.6734 5.96693 12.7314 5.90747 12.8023 5.90747H13.1891C13.26 5.90747 13.318 5.96693 13.318 6.03961V6.84004ZM9.32227 8.42952C9.32227 8.5022 9.26426 8.56166 9.19336 8.56166H8.80664C8.73574 8.56166 8.67773 8.5022 8.67773 8.42952V7.6291C8.67773 7.55642 8.73574 7.49696 8.80664 7.49696H9.19336C9.26426 7.49696 9.32227 7.55642 9.32227 7.6291V8.42952ZM10.3212 8.42952C10.3212 8.5022 10.2632 8.56166 10.1923 8.56166H9.80558C9.73468 8.56166 9.67667 8.5022 9.67667 8.42952V7.6291C9.67667 7.55642 9.73468 7.49696 9.80558 7.49696H10.1923C10.2632 7.49696 10.3212 7.55642 10.3212 7.6291V8.42952ZM11.3201 8.42952C11.3201 8.5022 11.2621 8.56166 11.1912 8.56166H10.8045C10.7336 8.56166 10.6756 8.5022 10.6756 8.42952V7.6291C10.6756 7.55642 10.7336 7.49696 10.8045 7.49696H11.1912C11.2621 7.49696 11.3201 7.55642 11.3201 7.6291V8.42952ZM12.319 8.42952C12.319 8.5022 12.261 8.56166 12.1901 8.56166H11.8034C11.7325 8.56166 11.6745 8.5022 11.6745 8.42952V7.6291C11.6745 7.55642 11.7325 7.49696 11.8034 7.49696H12.1901C12.261 7.49696 12.319 7.55642 12.319 7.6291V8.42952ZM13.318 8.42952C13.318 8.5022 13.26 8.56166 13.1891 8.56166H12.8023C12.7314 8.56166 12.6734 8.5022 12.6734 8.42952V7.6291C12.6734 7.55642 12.7314 7.49696 12.8023 7.49696H13.1891C13.26 7.49696 13.318 7.55642 13.318 7.6291V8.42952ZM9.32227 10.019C9.32227 10.0917 9.26426 10.1511 9.19336 10.1511H8.80664C8.73574 10.1511 8.67773 10.0917 8.67773 10.019V9.21858C8.67773 9.1459 8.73574 9.08644 8.80664 9.08644H9.19336C9.26426 9.08644 9.32227 9.1459 9.32227 9.21858V10.019ZM10.3212 10.019C10.3212 10.0917 10.2632 10.1511 10.1923 10.1511H9.80558C9.73468 10.1511 9.67667 10.0917 9.67667 10.019V9.21858C9.67667 9.1459 9.73468 9.08644 9.80558 9.08644H10.1923C10.2632 9.08644 10.3212 9.1459 10.3212 9.21858V10.019ZM11.3201 10.019C11.3201 10.0917 11.2621 10.1511 11.1912 10.1511H10.8045C10.7336 10.1511 10.6756 10.0917 10.6756 10.019V9.21858C10.6756 9.1459 10.7336 9.08644 10.8045 9.08644H11.1912C11.2621 9.08644 11.3201 9.1459 11.3201 9.21858V10.019ZM12.319 10.019C12.319 10.0917 12.261 10.1511 12.1901 10.1511H11.8034C11.7325 10.1511 11.6745 10.0917 11.6745 10.019V9.21858C11.6745 9.1459 11.7325 9.08644 11.8034 9.08644H12.1901C12.261 9.08644 12.319 9.1459 12.319 9.21858V10.019ZM13.318 10.019C13.318 10.0917 13.26 10.1511 13.1891 10.1511H12.8023C12.7314 10.1511 12.6734 10.0917 12.6734 10.019V9.21858C12.6734 9.1459 12.7314 9.08644 12.8023 9.08644H13.1891C13.26 9.08644 13.318 9.1459 13.318 9.21858V10.019ZM9.32227 11.6085C9.32227 11.6812 9.26426 11.7406 9.19336 11.7406H8.80664C8.73574 11.7406 8.67773 11.6812 8.67773 11.6085V10.8081C8.67773 10.7354 8.73574 10.6759 8.80664 10.6759H9.19336C9.26426 10.6759 9.32227 10.7354 9.32227 10.8081V11.6085ZM10.3212 11.6085C10.3212 11.6812 10.2632 11.7406 10.1923 11.7406H9.80558C9.73468 11.7406 9.67667 11.6812 9.67667 11.6085V10.8081C9.67667 10.7354 9.73468 10.6759 9.80558 10.6759H10.1923C10.2632 10.6759 10.3212 10.7354 10.3212 10.8081V11.6085ZM11.3201 11.6085C11.3201 11.6812 11.2621 11.7406 11.1912 11.7406H10.8045C10.7336 11.7406 10.6756 11.6812 10.6756 11.6085V10.8081C10.6756 10.7354 10.7336 10.6759 10.8045 10.6759H11.1912C11.2621 10.6759 11.3201 10.7354 11.3201 10.8081V11.6085ZM12.319 11.6085C12.319 11.6812 12.261 11.7406 12.1901 11.7406H11.8034C11.7325 11.7406 11.6745 11.6812 11.6745 11.6085V10.8081C11.6745 10.7354 11.7325 10.6759 11.8034 10.6759H12.1901C12.261 10.6759 12.319 10.7354 12.319 10.8081V11.6085ZM13.318 11.6085C13.318 11.6812 13.26 11.7406 13.1891 11.7406H12.8023C12.7314 11.7406 12.6734 11.6812 12.6734 11.6085V10.8081C12.6734 10.7354 12.7314 10.6759 12.8023 10.6759H13.1891C13.26 10.6759 13.318 10.7354 13.318 10.8081V11.6085ZM9.32227 13.198C9.32227 13.2707 9.26426 13.3301 9.19336 13.3301H8.80664C8.73574 13.3301 8.67773 13.2707 8.67773 13.198V12.3976C8.67773 12.3249 8.73574 12.2654 8.80664 12.2654H9.19336C9.26426 12.2654 9.32227 12.3249 9.32227 12.3976V13.198ZM10.3212 13.198C10.3212 13.2707 10.2632 13.3301 10.1923 13.3301H9.80558C9.73468 13.3301 9.67667 13.2707 9.67667 13.198V12.3976C9.67667 12.3249 9.73468 12.2654 9.80558 12.2654H10.1923C10.2632 12.2654 10.3212 12.3249 10.3212 12.3976V13.198ZM11.3201 13.198C11.3201 13.2707 11.2621 13.3301 11.1912 13.3301H10.8045C10.7336 13.3301 10.6756 13.2707 10.6756 13.198V12.3976C10.6756 12.3249 10.7336 12.2654 10.8045 12.2654H11.1912C11.2621 12.2654 11.3201 12.3249 11.3201 12.3976V13.198ZM12.319 13.198C12.319 13.2707 12.261 13.3301 12.1901 13.3301H11.8034C11.7325 13.3301 11.6745 13.2707 11.6745 13.198V12.3976C11.6745 12.3249 11.7325 12.2654 11.8034 12.2654H12.1901C12.261 12.2654 12.319 12.3249 12.319 12.3976V13.198ZM13.318 13.198C13.318 13.2707 13.26 13.3301 13.1891 13.3301H12.8023C12.7314 13.3301 12.6734 13.2707 12.6734 13.198V12.3976C12.6734 12.3249 12.7314 12.2654 12.8023 12.2654H13.1891C13.26 12.2654 13.318 12.3249 13.318 12.3976V13.198ZM9.32227 14.7875C9.32227 14.8601 9.26426 14.9196 9.19336 14.9196H8.80664C8.73574 14.9196 8.67773 14.8601 8.67773 14.7875V13.987C8.67773 13.9144 8.73574 13.8549 8.80664 13.8549H9.19336C9.26426 13.8549 9.32227 13.9144 9.32227 13.987V14.7875ZM10.3212 14.7875C10.3212 14.8601 10.2632 14.9196 10.1923 14.9196H9.80558C9.73468 14.9196 9.67667 14.8601 9.67667 14.7875V13.987C9.67667 13.9144 9.73468 13.8549 9.80558 13.8549H10.1923C10.2632 13.8549 10.3212 13.9144 10.3212 13.987V14.7875ZM11.3201 14.7875C11.3201 14.8601 11.2621 14.9196 11.1912 14.9196H10.8045C10.7336 14.9196 10.6756 14.8601 10.6756 14.7875V13.987C10.6756 13.9144 10.7336 13.8549 10.8045 13.8549H11.1912C11.2621 13.8549 11.3201 13.9144 11.3201 13.987V14.7875ZM12.319 14.7875C12.319 14.8601 12.261 14.9196 12.1901 14.9196H11.8034C11.7325 14.9196 11.6745 14.8601 11.6745 14.7875V13.987C11.6745 13.9144 11.7325 13.8549 11.8034 13.8549H12.1901C12.261 13.8549 12.319 13.9144 12.319 13.987V14.7875ZM13.318 14.7875C13.318 14.8601 13.26 14.9196 13.1891 14.9196H12.8023C12.7314 14.9196 12.6734 14.8601 12.6734 14.7875V13.987C12.6734 13.9144 12.7314 13.8549 12.8023 13.8549H13.1891C13.26 13.8549 13.318 13.9144 13.318 13.987V14.7875ZM9.32227 16.3769C9.32227 16.4496 9.26426 16.5091 9.19336 16.5091H8.80664C8.73574 16.5091 8.67773 16.4496 8.67773 16.3769V15.5765C8.67773 15.5038 8.73574 15.4444 8.80664 15.4444H9.19336C9.26426 15.4444 9.32227 15.5038 9.32227 15.5765V16.3769ZM10.3212 16.3769C10.3212 16.4496 10.2632 16.5091 10.1923 16.5091H9.80558C9.73468 16.5091 9.67667 16.4496 9.67667 16.3769V15.5765C9.67667 15.5038 9.73468 15.4444 9.80558 15.4444H10.1923C10.2632 15.4444 10.3212 15.5038 10.3212 15.5765V16.3769ZM11.3201 16.3769C11.3201 16.4496 11.2621 16.5091 11.1912 16.5091H10.8045C10.7336 16.5091 10.6756 16.4496 10.6756 16.3769V15.5765C10.6756 15.5038 10.7336 15.4444 10.8045 15.4444H11.1912C11.2621 15.4444 11.3201 15.5038 11.3201 15.5765V16.3769ZM12.319 16.3769C12.319 16.4496 12.261 16.5091 12.1901 16.5091H11.8034C11.7325 16.5091 11.6745 16.4496 11.6745 16.3769V15.5765C11.6745 15.5038 11.7325 15.4444 11.8034 15.4444H12.1901C12.261 15.4444 12.319 15.5038 12.319 15.5765V16.3769ZM13.318 16.3769C13.318 16.4496 13.26 16.5091 13.1891 16.5091H12.8023C12.7314 16.5091 12.6734 16.4496 12.6734 16.3769V15.5765C12.6734 15.5038 12.7314 15.4444 12.8023 15.4444H13.1891C13.26 15.4444 13.318 15.5038 13.318 15.5765V16.3769ZM9.32227 17.9664C9.32227 18.0391 9.26426 18.0986 9.19336 18.0986H8.80664C8.73574 18.0986 8.67773 18.0391 8.67773 17.9664V17.166C8.67773 17.0933 8.73574 17.0339 8.80664 17.0339H9.19336C9.26426 17.0339 9.32227 17.0933 9.32227 17.166V17.9664ZM10.3212 17.9664C10.3212 18.0391 10.2632 18.0986 10.1923 18.0986H9.80558C9.73468 18.0986 9.67667 18.0391 9.67667 17.9664V17.166C9.67667 17.0933 9.73468 17.0339 9.80558 17.0339H10.1923C10.2632 17.0339 10.3212 17.0933 10.3212 17.166V17.9664ZM11.3201 17.9664C11.3201 18.0391 11.2621 18.0986 11.1912 18.0986H10.8045C10.7336 18.0986 10.6756 18.0391 10.6756 17.9664V17.166C10.6756 17.0933 10.7336 17.0339 10.8045 17.0339H11.1912C11.2621 17.0339 11.3201 17.0933 11.3201 17.166V17.9664ZM12.319 17.9664C12.319 18.0391 12.261 18.0986 12.1901 18.0986H11.8034C11.7325 18.0986 11.6745 18.0391 11.6745 17.9664V17.166C11.6745 17.0933 11.7325 17.0339 11.8034 17.0339H12.1901C12.261 17.0339 12.319 17.0933 12.319 17.166V17.9664ZM13.318 17.9664C13.318 18.0391 13.26 18.0986 13.1891 18.0986H12.8023C12.7314 18.0986 12.6734 18.0391 12.6734 17.9664V17.166C12.6734 17.0933 12.7314 17.0339 12.8023 17.0339H13.1891C13.26 17.0339 13.318 17.0933 13.318 17.166V17.9664ZM9.32227 19.5559C9.32227 19.6286 9.26426 19.6881 9.19336 19.6881H8.80664C8.73574 19.6881 8.67773 19.6286 8.67773 19.5559V18.7555C8.67773 18.6828 8.73574 18.6233 8.80664 18.6233H9.19336C9.26426 18.6233 9.32227 18.6828 9.32227 18.7555V19.5559ZM10.3212 19.5559C10.3212 19.6286 10.2632 19.6881 10.1923 19.6881H9.80558C9.73468 19.6881 9.67667 19.6286 9.67667 19.5559V18.7555C9.67667 18.6828 9.73468 18.6233 9.80558 18.6233H10.1923C10.2632 18.6233 10.3212 18.6828 10.3212 18.7555V19.5559ZM11.3201 19.5559C11.3201 19.6286 11.2621 19.6881 11.1912 19.6881H10.8045C10.7336 19.6881 10.6756 19.6286 10.6756 19.5559V18.7555C10.6756 18.6828 10.7336 18.6233 10.8045 18.6233H11.1912C11.2621 18.6233 11.3201 18.6828 11.3201 18.7555V19.5559ZM12.319 19.5559C12.319 19.6286 12.261 19.6881 12.1901 19.6881H11.8034C11.7325 19.6881 11.6745 19.6286 11.6745 19.5559V18.7555C11.6745 18.6828 11.7325 18.6233 11.8034 18.6233H12.1901C12.261 18.6233 12.319 18.6828 12.319 18.7555V19.5559ZM13.318 19.5559C13.318 19.6286 13.26 19.6881 13.1891 19.6881H12.8023C12.7314 19.6881 12.6734 19.6286 12.6734 19.5559V18.7555C12.6734 18.6828 12.7314 18.6233 12.8023 18.6233H13.1891C13.26 18.6233 13.318 18.6828 13.318 18.7555V19.5559Z" fill="white"/>
<path d="M16.8438 21.3833V18.8611C16.8438 18.7884 16.7857 18.729 16.7148 18.729H15.5547C15.4838 18.729 15.4258 18.7884 15.4258 18.8611V21.3833H16.8438Z" fill="#E6E9ED"/>
<path d="M1.58464 20.4904C2.45982 20.4904 3.16929 19.7631 3.16929 18.866C3.16929 17.9689 2.45982 17.2416 1.58464 17.2416C0.70947 17.2416 0 17.9689 0 18.866C0 19.7631 0.70947 20.4904 1.58464 20.4904Z" fill="#5DC647"/>
<path opacity="0.1" d="M1.37543 18.8659C1.37543 18.2212 1.74161 17.6645 2.27236 17.402C2.05787 17.296 1.82276 17.2411 1.58464 17.2414C0.7095 17.2414 0 17.9686 0 18.8659C0 19.763 0.7095 20.4903 1.58464 20.4903C1.82276 20.4906 2.05787 20.4358 2.27236 20.3297C1.74161 20.0672 1.37543 19.5104 1.37543 18.8659Z" fill="#13141A"/>
<path d="M1.90625 21.3833V19.5129C1.90625 19.3304 1.76196 19.1825 1.58398 19.1825C1.40601 19.1825 1.26172 19.3304 1.26172 19.5129V21.3833H1.90625Z" fill="#775436"/>
<path d="M20.4147 20.4904C21.2899 20.4904 21.9994 19.7631 21.9994 18.866C21.9994 17.9689 21.2899 17.2416 20.4147 17.2416C19.5395 17.2416 18.8301 17.9689 18.8301 18.866C18.8301 19.7631 19.5395 20.4904 20.4147 20.4904Z" fill="#5DC647"/>
<path opacity="0.1" d="M20.1925 18.8659C20.1925 18.2187 20.5617 17.66 21.0959 17.3989C20.8832 17.2949 20.6504 17.2411 20.4147 17.2414C19.5395 17.2414 18.8301 17.9687 18.8301 18.8659C18.8301 19.763 19.5396 20.4903 20.4147 20.4903C20.6586 20.4903 20.8895 20.4337 21.0959 20.3328C20.5617 20.0717 20.1925 19.513 20.1925 18.8659Z" fill="#13141A"/>
<path d="M20.7383 21.3833V19.5129C20.7383 19.3304 20.594 19.1825 20.416 19.1825C20.238 19.1825 20.0938 19.3304 20.0938 19.5129V21.3833H20.7383Z" fill="#775436"/>
<path d="M21.6777 22H0.322266C0.144289 22 0 21.8521 0 21.6696C0 21.4872 0.144289 21.3393 0.322266 21.3393H21.6777C21.7632 21.3393 21.8452 21.3741 21.9056 21.4361C21.966 21.498 22 21.582 22 21.6696C22 21.7573 21.966 21.8413 21.9056 21.9032C21.8452 21.9652 21.7632 22 21.6777 22Z" fill="#424F59"/>
</g>
</svg>
