<svg width="22" height="24" viewBox="0 0 22 24" fill="none" xmlns="http://www.w3.org/2000/svg">
<mask id="mask0_2597_2455" style="mask-type:alpha" maskUnits="userSpaceOnUse" x="0" y="0" width="22" height="25">
<rect y="0.00012207" width="22" height="24" fill="#D9D9D9"/>
</mask>
<g mask="url(#mask0_2597_2455)">
<path d="M10.9782 13.6041C10.1922 13.6041 9.55273 12.965 9.55273 12.179C9.55273 11.3931 10.1922 10.7535 10.9782 10.7535C11.7642 10.7535 12.4033 11.3931 12.4033 12.179C12.4033 12.965 11.7642 13.6041 10.9782 13.6041ZM10.9782 11.2574C10.47 11.2574 10.0566 11.6708 10.0566 12.179C10.0566 12.6872 10.47 13.1003 10.9782 13.1003C11.4864 13.1003 11.8995 12.6872 11.8995 12.179C11.8995 11.6708 11.4864 11.2574 10.9782 11.2574Z" fill="#5E5E5E"/>
<path d="M21.7078 13.2595C21.8455 13.2595 21.9597 13.1453 21.9597 13.0076V11.167C21.9597 11.0293 21.8455 10.9151 21.7078 10.9151H16.0046C15.8635 10.9151 15.7527 11.0293 15.7527 11.167C15.7527 11.3081 15.8635 11.4189 16.0046 11.4189H21.4559V12.7557H17.1398L14.2143 10.7169V7.35817C14.2143 5.65527 12.8977 4.25802 11.2318 4.13038H11.2304V3.08244H13.5527C13.6904 3.08244 13.8046 2.9716 13.8046 2.83054V1.25191C13.8046 1.1142 13.6904 1 13.5527 1H10.9798C10.9465 0.999874 10.9135 1.0064 10.8828 1.01921C10.8521 1.03201 10.8242 1.05084 10.8008 1.07457C10.7773 1.09793 10.7586 1.12571 10.7459 1.15632C10.7331 1.18693 10.7266 1.21976 10.7266 1.25292V4.13072C9.05795 4.25902 7.74198 5.65594 7.74198 7.35817V10.7169L7.45985 10.9151H0.251908C0.11084 10.9151 0 11.0293 0 11.167V13.0076C0 13.1453 0.11084 13.2595 0.251908 13.2595H1.00427V22.4962H0.251908C0.11084 22.4962 0 22.6104 0 22.7481C0 22.8892 0.11084 23 0.251908 23H21.7078C21.7746 23 21.8387 22.9735 21.8859 22.9262C21.9332 22.879 21.9597 22.8149 21.9597 22.7481C21.9597 22.6813 21.9332 22.6172 21.8859 22.57C21.8387 22.5227 21.7746 22.4962 21.7078 22.4962H20.9521V13.2595H21.7078ZM12.535 9.54809V7.61008H13.7105V10.3676L12.535 9.54809ZM9.92519 7.61008H12.0311V9.19878L11.1209 8.56397C11.0792 8.53445 11.0293 8.51859 10.9782 8.51859C10.927 8.51859 10.8772 8.53445 10.8354 8.56397L9.92519 9.19878V7.61008ZM11.2318 1.50382H13.3008V2.57863H11.2318V1.50382ZM10.9782 4.62412H10.9795C12.4003 4.62412 13.5725 5.71573 13.7001 7.10626H8.25554C8.38351 5.7164 9.55472 4.62513 10.9782 4.62412ZM8.2458 7.61008H9.42137V9.54809L8.2458 10.3676V7.61008ZM0.503817 11.4189H6.73435L4.81649 12.7557H0.503817V11.4189ZM6.53618 22.4962V15.2815H8.05099V22.4962H6.53618ZM10.2208 22.4962V15.2815H11.7356V22.4962H10.2208ZM13.9053 22.4962V15.2815H15.4202V22.4962H13.9053ZM15.924 22.4962V15.0296C15.924 14.8919 15.8098 14.7777 15.6721 14.7777H13.6534C13.5157 14.7777 13.4015 14.8919 13.4015 15.0296V22.4962H12.2394V15.0296C12.2394 14.8919 12.1252 14.7777 11.9875 14.7777H9.96885C9.83114 14.7777 9.71695 14.8919 9.71695 15.0296V22.4962H8.55481V15.0296C8.55481 14.8919 8.44061 14.7777 8.3029 14.7777H6.28427C6.14656 14.7777 6.03237 14.8919 6.03237 15.0296V22.4962H1.50809V13.2595H4.09099L4.02382 13.3066L4.02046 13.3099L3.2916 13.8171C3.1774 13.8977 3.15053 14.0522 3.22779 14.1664C3.3084 14.2806 3.46626 14.3108 3.58046 14.2302L3.91634 13.9951V21.4046C3.91634 21.5456 4.03053 21.6565 4.16824 21.6565C4.30931 21.6565 4.42015 21.5456 4.42015 21.4046V13.6458L10.9798 9.07786L17.5362 13.6424V22.4962H15.924ZM20.4482 22.4962H18.04V13.9951L18.3792 14.2302C18.4342 14.2674 18.5016 14.2816 18.5669 14.2697C18.6322 14.2577 18.6903 14.2207 18.7285 14.1664C18.8092 14.0522 18.7789 13.8977 18.6647 13.8171L17.9359 13.3099L17.9325 13.3066L17.8653 13.2595H20.4482V22.4962Z" fill="#5E5E5E"/>
</g>
</svg>
