<svg width="22" height="22" viewBox="0 0 22 22" fill="none" xmlns="http://www.w3.org/2000/svg">
<mask id="mask0_2597_2462" style="mask-type:alpha" maskUnits="userSpaceOnUse" x="0" y="0" width="22" height="23">
<rect y="0.00012207" width="22" height="22" fill="#D9D9D9"/>
</mask>
<g mask="url(#mask0_2597_2462)">
<path d="M0 6.72409C0 7.63772 0.49018 8.36709 1.14124 8.46654L1.44528 10.4499C1.45343 10.5031 1.48089 10.5516 1.52266 10.5867C1.56442 10.6218 1.61771 10.6411 1.67283 10.6411H1.6732L2.8837 15.0816L2.72089 15.3151C2.69422 15.3533 2.6803 15.3986 2.68105 15.4449C2.68179 15.4911 2.69715 15.536 2.72503 15.5734L5.5293 19.3356L5.53293 19.3403C5.87997 19.7826 6.06846 20.3239 6.06941 20.8809V21.7755C6.06941 21.835 6.09365 21.8921 6.1368 21.9342C6.17995 21.9763 6.23847 22 6.2995 22H19.6084C19.6557 22 19.7018 21.9857 19.7405 21.9592C19.7792 21.9327 19.8086 21.8952 19.8247 21.8518L19.894 21.6649C19.9652 21.6799 20.0379 21.6874 20.1108 21.6874C20.3087 21.6857 20.503 21.6345 20.6749 21.5388C21.0362 21.3421 21.3166 20.9769 21.4442 20.537C21.6425 19.8535 21.4139 19.1704 20.9288 18.8754L21.9862 16.0249C21.9975 15.9947 22.0019 15.9624 21.9992 15.9303C21.9966 15.8982 21.9869 15.8671 21.9708 15.839C21.9547 15.8109 21.9326 15.7865 21.906 15.7674C21.8794 15.7484 21.8489 15.7351 21.8166 15.7286L18.1294 14.9824C18.0749 14.9714 18.018 14.9801 17.9695 15.0068C17.921 15.0336 17.8841 15.0766 17.8656 15.1279L17.5506 16.0031C17.4764 15.8601 17.3862 15.7256 17.2817 15.602C17.1263 15.4266 16.9497 15.2702 16.7557 15.1364L16.9218 15.0767C17.017 15.0437 17.0963 14.9773 17.1442 14.8904C17.1921 14.8035 17.2052 14.7024 17.181 14.6066L16.1588 10.7023C16.2351 10.7055 16.311 10.7156 16.3854 10.7325C16.4252 10.7417 16.4669 10.7404 16.506 10.7286C16.5452 10.7169 16.5804 10.6952 16.6081 10.6657C16.6357 10.6363 16.6549 10.6001 16.6634 10.5611C16.672 10.522 16.6697 10.4814 16.6569 10.4435L16.4973 9.9736L18.7361 9.31952C18.8166 9.29594 18.887 9.24704 18.9361 9.18043C18.9852 9.11382 19.0104 9.03323 19.0077 8.95121C19.0049 8.8692 18.9745 8.79035 18.9211 8.72696C18.8677 8.66356 18.7943 8.61917 18.7124 8.6007L16.0285 7.997C15.9226 7.6501 15.7746 7.3168 15.5876 7.00421L17.2555 4.33936C17.2576 4.3359 17.2597 4.33236 17.2616 4.32881C17.3015 4.25675 17.3158 4.17388 17.3025 4.09305C17.2891 4.01223 17.2488 3.93796 17.1877 3.88178C17.1267 3.82561 17.0484 3.79066 16.9649 3.78237C16.8814 3.77407 16.7974 3.7929 16.726 3.83591L13.9451 5.50052C13.7392 5.40095 13.5255 5.31754 13.3061 5.25106C13.2736 5.24114 13.2408 5.23239 13.2082 5.22318L12.4592 2.11007C12.4582 2.10575 12.457 2.10146 12.4557 2.09723C12.4317 2.01874 12.3819 1.95016 12.3139 1.90217C12.2459 1.85417 12.1635 1.82945 12.0796 1.83183C11.9957 1.83422 11.9149 1.86358 11.8499 1.91536C11.7849 1.96714 11.7392 2.03843 11.72 2.11815L10.9711 5.161C10.8588 5.18605 10.7472 5.21531 10.6363 5.24877C10.414 5.31566 10.1975 5.39991 9.98901 5.5007L7.20954 3.8374C7.13825 3.79385 7.05419 3.77454 6.97047 3.78248C6.88676 3.79042 6.80808 3.82516 6.74672 3.88129C6.68536 3.93741 6.64475 4.01177 6.63122 4.09277C6.6177 4.17377 6.63203 4.25685 6.67196 4.32908C6.67394 4.33267 6.67601 4.33617 6.67817 4.33963L8.34595 7.00438C8.1589 7.317 8.01086 7.65033 7.905 7.99726L5.22121 8.60097C5.13927 8.61945 5.06588 8.66384 5.01248 8.72724C4.95909 8.79064 4.92867 8.86948 4.92597 8.9515C4.92327 9.03352 4.94844 9.1141 4.99756 9.18071C5.04668 9.24732 5.117 9.29622 5.19756 9.31979L7.43217 9.97265L7.27806 10.4264C7.26755 10.4572 7.26402 10.4898 7.2677 10.522C7.27139 10.5543 7.2822 10.5853 7.2994 10.6131C7.3166 10.6408 7.33977 10.6646 7.36731 10.6828C7.39485 10.7009 7.4261 10.713 7.45891 10.7182L6.82078 12.9088L5.3502 12.0733L3.80225 7.03227L4.00381 4.9797H4.05204C4.11306 4.9797 4.17159 4.95605 4.21474 4.91395C4.25789 4.87185 4.28213 4.81475 4.28213 4.75521V3.71114C4.28213 3.6516 4.25789 3.5945 4.21474 3.5524C4.17159 3.5103 4.11306 3.48665 4.05204 3.48665H3.7624C3.9247 3.2589 4.03182 2.99814 4.07566 2.72407C4.11951 2.45 4.09894 2.16979 4.0155 1.90462C4.00268 1.86273 3.97763 1.8254 3.94342 1.79717C3.90921 1.76895 3.86731 1.75106 3.82285 1.74568C3.77838 1.74031 3.73328 1.74769 3.69304 1.76692C3.65281 1.78615 3.61918 1.8164 3.59628 1.85397C3.56515 1.90465 3.51848 1.94449 3.46287 1.96785C3.40726 1.99122 3.34552 1.99693 3.2864 1.98418C3.22503 1.97272 3.16886 1.94286 3.12572 1.89876C3.08258 1.85466 3.05463 1.79852 3.04577 1.73818C2.9328 1.04279 2.58596 0.178547 2.57124 0.14209C2.55703 0.106957 2.53396 0.0758897 2.50418 0.0517645C2.47439 0.0276394 2.43885 0.0112362 2.40084 0.00407366C2.36283 -0.00308886 2.32359 -0.000779202 2.28674 0.0107889C2.24989 0.0223569 2.21662 0.0428094 2.19003 0.0702527C1.16839 1.12393 0.713826 2.05965 0.839224 2.85121C0.87443 3.0794 0.962569 3.29674 1.09692 3.48665H0.512499C0.451476 3.48665 0.392952 3.5103 0.349802 3.5524C0.306652 3.5945 0.28241 3.6516 0.28241 3.71114V4.75521C0.28241 4.81475 0.306652 4.87185 0.349802 4.91395C0.392952 4.95605 0.451476 4.9797 0.512499 4.9797H0.606513L0.640704 5.20266C0.2548 5.50299 0 6.06561 0 6.72409ZM1.60082 8.43022C2.17314 8.24775 2.58725 7.56368 2.58725 6.72409C2.58725 5.80502 2.09123 5.07214 1.43451 4.9797H3.54152L3.34019 7.02993V7.03065L3.02966 10.1922H1.87094L1.60082 8.43022ZM10.7478 21.551L13.7638 16.565L14.5033 16.716C14.6611 16.7482 14.8219 16.7644 14.983 16.7643C15.2603 16.7641 15.5354 16.7167 15.796 16.6242L14.1935 21.551H10.7478ZM9.34122 11.3894V10.4522C9.76117 10.2546 10.2455 9.90135 10.8194 9.27435C10.9263 9.24858 11.0301 9.21178 11.129 9.16457C11.5708 8.9531 11.8963 8.54354 12.1024 7.94258C12.3429 8.76983 12.7742 9.1542 13.1736 9.32747C13.854 10.0683 14.3648 10.4237 14.8127 10.5865V11.3894C14.8127 12.0973 14.5245 12.7762 14.0114 13.2768C13.4984 13.7774 12.8025 14.0586 12.077 14.0586C11.3514 14.0586 10.6556 13.7774 10.1425 13.2768C9.62945 12.7762 9.34122 12.0973 9.34122 11.3894ZM10.0484 13.8016L9.82334 14.6663C9.64042 14.5354 9.45442 14.4166 9.27251 14.3071L9.39593 13.0865C9.57478 13.3559 9.79482 13.5971 10.0484 13.8016ZM9.67158 8.72278C9.87461 8.33047 10.1757 7.99445 10.5471 7.74576C10.9185 7.49707 11.3482 7.34374 11.7964 7.29995C11.6491 8.06219 11.3581 8.55355 10.9285 8.76049C10.4719 8.9804 9.94612 8.8317 9.67158 8.72278ZM12.4359 7.31064C12.8843 7.36927 13.3102 7.53812 13.6734 7.80133C14.0367 8.06455 14.3255 8.4135 14.5126 8.81545C14.3622 8.90925 14.1931 8.97095 14.0165 8.99649C13.8399 9.02202 13.6597 9.01082 13.4879 8.96361C12.9346 8.79942 12.5737 8.22997 12.4357 7.31059L12.4359 7.31064ZM10.4514 14.0775C10.9433 14.3628 11.505 14.5134 12.0773 14.5133C12.6496 14.5132 13.2113 14.3626 13.7032 14.0772L14.2576 16.2071L10.7142 15.4832C10.5643 15.3001 10.3981 15.1302 10.2176 14.9755L10.4514 14.0775ZM14.6509 15.8941L16.2066 15.3343C16.3596 15.4114 16.5034 15.5048 16.6354 15.6127L16.0518 15.9977C15.6715 16.2472 15.212 16.3551 14.757 16.3017L14.6509 15.8941ZM21.0014 20.415C20.9082 20.7363 20.7022 21.0099 20.4506 21.1468C20.3772 21.1898 20.2959 21.2183 20.2112 21.2305C20.1265 21.2427 20.0402 21.2384 19.9573 21.2179C19.5431 21.1031 19.3377 20.5558 19.4995 19.9979C19.5927 19.6766 19.7986 19.403 20.0503 19.2661C20.1532 19.2079 20.2696 19.1762 20.3885 19.1739C20.441 19.1739 20.4932 19.181 20.5437 19.1949C20.9581 19.3098 21.1634 19.8571 21.0015 20.4151L21.0014 20.415ZM17.6713 17.7469C17.7891 17.4187 17.8259 17.068 17.7789 16.7232L18.2328 15.4624L21.4629 16.116L20.4934 18.7307C20.2613 18.7107 20.0285 18.7607 19.8265 18.874C19.4652 19.0707 19.1848 19.4359 19.0572 19.8758C18.8725 20.5125 19.0582 21.1488 19.4767 21.4715L19.447 21.551H16.2994L17.6713 17.7469ZM16.9652 15.9368C17.1482 16.17 17.2689 16.4439 17.3164 16.7338C17.3639 17.0238 17.3367 17.3207 17.2373 17.5979L15.8114 21.551H14.6761L16.3758 16.3258L16.9652 15.9368ZM16.7223 14.6701L14.5368 15.4565L14.1059 13.8011C14.4709 13.5081 14.7649 13.1399 14.9666 12.7229C15.1684 12.3059 15.2729 11.8505 15.2727 11.3894V10.6964C15.41 10.712 15.5483 10.7177 15.6865 10.7134L16.7223 14.6701ZM16.1864 8.72358C16.1768 8.64376 16.1645 8.56426 16.1496 8.48522L18.3186 8.97308L16.3526 9.54747L16.1395 8.9197C16.178 8.86165 16.1946 8.79229 16.1864 8.72358ZM16.1068 10.2515C16.0039 10.2499 15.9043 10.2547 15.8063 10.2596C15.33 10.2827 14.8393 10.3062 13.9364 9.45561C14.337 9.42934 14.6919 9.27026 14.8896 9.09471L15.7032 9.06288L16.1068 10.2515ZM16.6871 4.38641L15.3051 6.59455C15.0509 6.26907 14.744 5.98621 14.3965 5.75711L16.6871 4.38641ZM12.0897 2.53894L12.7088 5.11228C12.2977 5.04441 11.8789 5.03318 11.4646 5.07892L12.0897 2.53894ZM7.2464 4.38641L9.53725 5.75729C9.18963 5.98629 8.88264 6.2691 8.62836 6.59455L7.2464 4.38641ZM10.7726 5.67769C11.5529 5.44029 12.3889 5.44096 13.1688 5.67962C15.1273 6.27676 15.598 7.99035 15.7056 8.61354L14.9381 8.64358C14.69 8.10837 14.2899 7.65377 13.7852 7.33366C13.2804 7.01355 12.6922 6.84135 12.0902 6.83747C11.4882 6.8336 10.8976 6.99821 10.3886 7.3118C9.87954 7.62538 9.47332 8.07479 9.21807 8.60676H8.22892C8.33872 7.97769 8.81408 6.27039 10.7726 5.67769ZM8.22819 9.05583H9.30997C9.57432 9.18588 9.85931 9.27139 10.1529 9.30874C9.16552 10.2623 8.5395 10.2571 7.98029 10.2521C7.92686 10.2517 7.87422 10.2511 7.82222 10.2514L8.22819 9.05583ZM9.01481 12.2825L8.83571 14.0537L8.79706 14.0317L8.19956 13.6923L8.69807 10.6585C8.75756 10.648 8.81855 10.6348 8.88104 10.6189V11.3894C8.881 11.6918 8.92607 11.9927 9.01481 12.2824V12.2825ZM5.61507 8.97322L7.78389 8.4854C7.76887 8.56429 7.75659 8.64366 7.74707 8.72336C7.73909 8.79031 7.75469 8.85792 7.7913 8.91508L7.5769 9.54648L5.61507 8.97322ZM7.94228 10.7009H7.97587C8.0564 10.7016 8.13937 10.7023 8.22501 10.7009L7.7733 13.4501L7.23108 13.142L7.94228 10.7009ZM8.38934 14.3197L6.98557 16.3131C6.96793 16.3374 6.9554 16.3649 6.94873 16.3939C6.94207 16.423 6.94138 16.453 6.94672 16.4823C6.95207 16.5116 6.96333 16.5396 6.97986 16.5646C6.99638 16.5896 7.01784 16.6112 7.04299 16.628C7.06814 16.6449 7.09646 16.6567 7.12633 16.6628C7.15619 16.6688 7.187 16.6691 7.21695 16.6634C7.2469 16.6578 7.2754 16.6464 7.30079 16.6299C7.32618 16.6134 7.34796 16.5921 7.36485 16.5673L8.78781 14.5465C9.69008 15.066 10.7131 15.7373 10.9338 17.0358C10.9438 17.0945 10.9773 17.147 11.0269 17.1816C11.0765 17.2163 11.1382 17.2303 11.1984 17.2205C11.2586 17.2108 11.3124 17.1781 11.3479 17.1297C11.3834 17.0813 11.3978 17.0211 11.3878 16.9623C11.3329 16.6317 11.2247 16.3117 11.0673 16.014L13.2882 16.4677L10.2135 21.551H6.91636L9.58198 19.0681C9.6256 19.0269 9.65073 18.9705 9.65191 18.9113C9.65309 18.852 9.63021 18.7947 9.58827 18.7519C9.54633 18.709 9.48872 18.6841 9.42801 18.6825C9.3673 18.6809 9.30841 18.7028 9.26418 18.7434L6.52945 21.2906V20.8806C6.52912 20.6266 6.49537 20.3736 6.42904 20.128L7.27157 18.9729C7.2891 18.9489 7.3016 18.9217 7.30837 18.893C7.31514 18.8643 7.31605 18.8345 7.31103 18.8055C7.30602 18.7764 7.29518 18.7486 7.27915 18.7236C7.26311 18.6986 7.24219 18.6769 7.21757 18.6598C7.19295 18.6427 7.16513 18.6305 7.13568 18.6239C7.10623 18.6173 7.07573 18.6164 7.04593 18.6213C7.01614 18.6262 6.98762 18.6368 6.962 18.6524C6.93639 18.6681 6.91419 18.6885 6.89667 18.7125L6.23861 19.6146C6.14607 19.4213 6.03238 19.2383 5.89951 19.0688L4.72311 17.491L5.84282 15.886C5.87715 15.8368 5.89004 15.7763 5.87865 15.7178C5.86726 15.6593 5.83252 15.6076 5.78207 15.5741C5.73163 15.5406 5.6696 15.528 5.60965 15.5392C5.5497 15.5503 5.49673 15.5842 5.46239 15.6334L4.43578 17.1052L3.19229 15.437L5.22535 12.522L8.38934 14.3197ZM4.90396 12.1848L3.22593 14.5906L2.14912 10.6411H3.23877C3.29599 10.6411 3.35116 10.6203 3.39351 10.5828C3.43585 10.5452 3.46234 10.4936 3.4678 10.4381L3.68583 8.21763L4.90396 12.1848ZM2.27139 0.650877C2.38013 0.958699 2.52816 1.41989 2.59125 1.80849C2.60912 1.91983 2.65261 2.02578 2.71845 2.11838C2.7843 2.21097 2.87079 2.28781 2.97144 2.34311C3.07208 2.39842 3.18426 2.43075 3.29955 2.4377C3.41484 2.44464 3.53025 2.426 3.6371 2.38319C3.66931 2.9806 3.29694 3.36264 3.15391 3.48665H1.7264C1.60904 3.40204 1.51019 3.2954 1.43566 3.17299C1.36113 3.05058 1.31243 2.91488 1.29241 2.77385C1.20626 2.19987 1.54385 1.47014 2.27139 0.650877ZM0.742587 3.93563H3.82195V4.53072H0.742587V3.93563ZM1.1527 4.9797C1.12619 4.98342 1.10001 4.98845 1.07405 4.99425L1.0718 4.9797H1.1527ZM1.2936 5.41862C1.7454 5.41862 2.12707 6.01644 2.12707 6.72409C2.12707 7.43173 1.7454 8.02955 1.2936 8.02955C0.841801 8.02955 0.460177 7.43173 0.460177 6.72409C0.460177 6.01644 0.841847 5.41862 1.2936 5.41862Z" fill="#5E5E5E"/>
</g>
</svg>
