<svg width="22" height="22" viewBox="0 0 22 22" fill="none" xmlns="http://www.w3.org/2000/svg">
<mask id="mask0_2597_2508" style="mask-type:alpha" maskUnits="userSpaceOnUse" x="0" y="0" width="22" height="22">
<rect width="22" height="22" fill="#D9D9D9"/>
</mask>
<g mask="url(#mask0_2597_2508)">
<path d="M22 18.3241C22 17.4465 21.2858 16.7325 20.4082 16.7325C19.5306 16.7325 18.8164 17.4465 18.8164 18.3241C18.8164 19.108 19.3864 19.7596 20.1331 19.8906V21.4496H18.0843V7.78576C18.0843 7.71282 18.0554 7.64287 18.0038 7.59129C17.9522 7.53971 17.8823 7.51072 17.8093 7.51071H17.6641V5.62617C17.6641 5.59006 17.657 5.55431 17.6432 5.52095C17.6293 5.48759 17.6091 5.45729 17.5835 5.43177C17.558 5.40625 17.5277 5.386 17.4943 5.3722C17.4609 5.3584 17.4252 5.35131 17.3891 5.35133H12.6206C12.5845 5.35131 12.5487 5.3584 12.5153 5.3722C12.482 5.386 12.4517 5.40625 12.4261 5.43177C12.4006 5.45729 12.3803 5.48759 12.3665 5.52095C12.3527 5.55431 12.3455 5.59006 12.3455 5.62617V7.51066H12.1405C12.0676 7.51067 11.9976 7.53965 11.9461 7.59122C11.8945 7.64279 11.8655 7.71272 11.8655 7.78565V21.4496H10.8034V15.0958C10.8034 15.0956 10.8036 15.0954 10.8036 15.0952C10.8036 15.095 10.8034 15.0947 10.8034 15.0945V0.274877C10.8034 0.180884 10.7558 0.0936042 10.6766 0.0430626C10.6377 0.0183318 10.5931 0.00374508 10.547 0.000630606C10.501 -0.00248387 10.4549 0.00597282 10.4129 0.0252307L4.07507 2.95852C4.02744 2.98054 3.9871 3.01572 3.9588 3.05992C3.93051 3.10411 3.91545 3.15548 3.91539 3.20796V21.4497H1.86671V19.8906C2.61361 19.7596 3.18348 19.108 3.18348 18.3241C3.18348 17.4465 2.4695 16.7325 1.59187 16.7325C0.714243 16.7325 5.37105e-05 17.4465 5.37105e-05 18.3241C5.37105e-05 19.108 0.569923 19.7596 1.31682 19.8906V21.4496H0.275052C0.202103 21.4496 0.132143 21.4786 0.0805608 21.5302C0.0289786 21.5818 0 21.6517 0 21.7247C0 21.7976 0.0289786 21.8676 0.0805608 21.9192C0.132143 21.9707 0.202103 21.9997 0.275052 21.9997H21.7249C21.7978 21.9997 21.8678 21.9707 21.9194 21.9192C21.971 21.8676 21.9999 21.7976 21.9999 21.7247C21.9999 21.6517 21.971 21.5818 21.9194 21.5302C21.8678 21.4786 21.7978 21.4496 21.7249 21.4496H20.6832V19.8906C21.4299 19.7597 21.9999 19.1081 21.9999 18.3242L22 18.3241ZM0.549942 18.3241C0.549942 17.7499 1.01739 17.2824 1.59187 17.2824C2.16609 17.2824 2.63354 17.7499 2.63354 18.3241C2.63354 18.8986 2.16609 19.366 1.59187 19.366C1.01739 19.366 0.549942 18.8986 0.549942 18.3241ZM17.5345 8.0606V15.506H12.4156V8.0606H17.5345ZM12.8956 5.90127H17.1142V7.51071H12.8956V5.90127ZM12.4156 16.0559H17.5345V21.4496H16.6643V18.7032C16.6643 18.6303 16.6354 18.5604 16.5838 18.5088C16.5322 18.4572 16.4623 18.4283 16.3893 18.4282H13.6014C13.5285 18.4283 13.4585 18.4572 13.407 18.5088C13.3554 18.5604 13.3264 18.6303 13.3264 18.7032V21.4496H12.4156V16.0559ZM16.1143 21.4496H13.8764V18.9783H16.1143V21.4496ZM10.2535 0.705206V14.8202H4.4656V3.38375L10.2535 0.705206ZM4.4656 15.3701H10.2535V21.4496H9.06623V18.7032C9.06622 18.6303 9.03723 18.5603 8.98565 18.5088C8.93407 18.4572 8.86412 18.4282 8.79118 18.4282H5.92793C5.855 18.4283 5.78506 18.4572 5.73349 18.5088C5.68192 18.5604 5.65294 18.6303 5.65293 18.7032V21.4496H4.46555L4.4656 15.3701ZM8.51613 21.4496H6.20298V18.9783H8.51613V21.4496ZM19.3665 18.3241C19.3665 17.7499 19.8337 17.2824 20.4082 17.2824C20.9826 17.2824 21.4498 17.7499 21.4498 18.3241C21.4498 18.8986 20.9826 19.366 20.4082 19.366C19.8337 19.366 19.3665 18.8986 19.3665 18.3241Z" fill="#5E5E5E"/>
<path d="M5.8815 13.5779C5.95441 13.5779 6.02433 13.5489 6.07586 13.4973C6.1274 13.4457 6.15635 13.3758 6.15633 13.3028V12.3522C6.15491 12.2802 6.12532 12.2116 6.07391 12.1612C6.0225 12.1108 5.95338 12.0826 5.88139 12.0826C5.8094 12.0826 5.74027 12.1108 5.68887 12.1612C5.63746 12.2116 5.60787 12.2802 5.60645 12.3522V13.3028C5.60646 13.3758 5.63544 13.4457 5.68701 13.4973C5.73857 13.5489 5.80851 13.5778 5.88144 13.5778L5.8815 13.5779ZM7.35956 13.5779C7.39567 13.5779 7.43143 13.5708 7.46479 13.557C7.49815 13.5431 7.52846 13.5229 7.55399 13.4973C7.57952 13.4718 7.59976 13.4415 7.61357 13.4081C7.62737 13.3747 7.63447 13.339 7.63445 13.3028V12.3522C7.63445 12.3161 7.62734 12.2803 7.61352 12.247C7.59971 12.2136 7.57946 12.1833 7.55393 12.1578C7.5284 12.1323 7.4981 12.112 7.46475 12.0982C7.4314 12.0844 7.39565 12.0773 7.35956 12.0773C7.28665 12.0773 7.21673 12.1063 7.16516 12.1578C7.11359 12.2094 7.0846 12.2793 7.08456 12.3522V13.3028C7.08457 13.3758 7.11355 13.4457 7.16512 13.4973C7.21669 13.5489 7.28663 13.5778 7.35956 13.5778V13.5779ZM8.83767 13.5779C8.91062 13.5779 8.98058 13.5489 9.03216 13.4973C9.08374 13.4458 9.11272 13.3758 9.11272 13.3028V12.3522C9.11272 12.2005 8.98956 12.0773 8.83767 12.0773C8.68578 12.0773 8.56262 12.2005 8.56262 12.3522V13.3028C8.56263 13.3758 8.59162 13.4457 8.6432 13.4973C8.69478 13.5489 8.76473 13.5778 8.83767 13.5778V13.5779ZM5.8815 11.0568C5.95439 11.0568 6.02429 11.0279 6.07584 10.9763C6.12738 10.9248 6.15633 10.8549 6.15633 10.782V9.83116C6.15491 9.75918 6.12532 9.69063 6.07391 9.64023C6.0225 9.58983 5.95338 9.56159 5.88139 9.56159C5.8094 9.56159 5.74027 9.58983 5.68887 9.64023C5.63746 9.69063 5.60787 9.75918 5.60645 9.83116V10.782C5.60645 10.8181 5.61357 10.8538 5.6274 10.8872C5.64122 10.9206 5.66148 10.9509 5.68702 10.9764C5.71255 11.0019 5.74287 11.0221 5.77623 11.0359C5.80959 11.0497 5.84539 11.0568 5.8815 11.0568ZM7.35956 11.0568C7.39566 11.0569 7.43141 11.0498 7.46477 11.036C7.49812 11.0222 7.52843 11.0019 7.55396 10.9764C7.57949 10.9509 7.59974 10.9206 7.61355 10.8872C7.62736 10.8538 7.63446 10.8181 7.63445 10.782V9.83116C7.63445 9.79506 7.62734 9.75932 7.61352 9.72597C7.59971 9.69262 7.57946 9.66232 7.55393 9.6368C7.5284 9.61128 7.4981 9.59103 7.46475 9.57723C7.4314 9.56342 7.39565 9.55631 7.35956 9.55632C7.28665 9.55632 7.21673 9.58527 7.16516 9.63681C7.11359 9.68835 7.0846 9.75825 7.08456 9.83116V10.782C7.08457 10.8181 7.09169 10.8538 7.10551 10.8872C7.11933 10.9206 7.13959 10.9509 7.16513 10.9764C7.19067 11.0019 7.22098 11.0221 7.25434 11.0359C7.2877 11.0497 7.32345 11.0568 7.35956 11.0568ZM8.83767 11.0568C8.87378 11.0569 8.90954 11.0498 8.9429 11.036C8.97627 11.0222 9.00659 11.0019 9.03213 10.9764C9.05768 10.9509 9.07794 10.9206 9.09177 10.8872C9.1056 10.8539 9.11272 10.8181 9.11272 10.782V9.83116C9.11272 9.67948 8.98956 9.55632 8.83767 9.55632C8.68578 9.55632 8.56262 9.67948 8.56262 9.83116V10.782C8.56263 10.8181 8.56975 10.8539 8.58358 10.8872C8.5974 10.9206 8.61767 10.9509 8.64321 10.9764C8.66875 11.0019 8.69907 11.0222 8.73244 11.036C8.76581 11.0498 8.80156 11.0569 8.83767 11.0568ZM5.8815 8.53604C5.95442 8.53599 6.02434 8.50699 6.07588 8.45539C6.12742 8.4038 6.15636 8.33385 6.15633 8.26093V7.31031C6.15633 7.2374 6.12738 7.16748 6.07585 7.11591C6.02431 7.06434 5.9544 7.03535 5.8815 7.03531C5.80856 7.03531 5.73861 7.06428 5.68703 7.11585C5.63544 7.16742 5.60646 7.23737 5.60645 7.31031V8.26098C5.60646 8.33391 5.63544 8.40385 5.68701 8.45542C5.73857 8.50699 5.80851 8.53597 5.88144 8.53598L5.8815 8.53604ZM7.35956 8.53604C7.39567 8.53604 7.43144 8.52892 7.4648 8.51509C7.49817 8.50126 7.52848 8.48099 7.55401 8.45545C7.57954 8.4299 7.59978 8.39957 7.61358 8.36619C7.62739 8.33282 7.63448 8.29705 7.63445 8.26093V7.31031C7.63445 7.2742 7.62734 7.23844 7.61352 7.20508C7.5997 7.17172 7.57944 7.14141 7.55391 7.11587C7.52838 7.09034 7.49806 7.07008 7.4647 7.05627C7.43134 7.04245 7.39559 7.03534 7.35948 7.03534C7.32337 7.03534 7.28761 7.04245 7.25425 7.05627C7.22089 7.07008 7.19058 7.09034 7.16504 7.11587C7.13951 7.14141 7.11926 7.17172 7.10544 7.20508C7.09162 7.23844 7.08451 7.2742 7.08451 7.31031V8.26098C7.08452 8.33392 7.1135 8.40387 7.16509 8.45544C7.21667 8.50701 7.28662 8.53598 7.35956 8.53598V8.53604ZM8.83767 8.53604C8.8738 8.53604 8.90957 8.52892 8.94294 8.51509C8.97632 8.50127 9.00664 8.481 9.03218 8.45546C9.05772 8.42991 9.07798 8.39958 9.0918 8.3662C9.10562 8.33283 9.11273 8.29705 9.11272 8.26093V7.31031C9.11272 7.23736 9.08374 7.1674 9.03216 7.11582C8.98058 7.06423 8.91062 7.03526 8.83767 7.03526C8.76472 7.03526 8.69476 7.06423 8.64318 7.11582C8.5916 7.1674 8.56262 7.23736 8.56262 7.31031V8.26098C8.56263 8.33392 8.59162 8.40387 8.6432 8.45544C8.69478 8.50701 8.76473 8.53598 8.83767 8.53598V8.53604ZM5.8815 6.01518C5.95441 6.01514 6.02433 5.98614 6.07586 5.93456C6.1274 5.88298 6.15635 5.81305 6.15633 5.74013V4.78946C6.15633 4.71655 6.12738 4.64663 6.07585 4.59506C6.02431 4.54349 5.9544 4.5145 5.8815 4.51446C5.80856 4.51446 5.73861 4.54343 5.68703 4.595C5.63544 4.64657 5.60646 4.71652 5.60645 4.78946V5.74013C5.60645 5.81307 5.63542 5.88302 5.68699 5.9346C5.73856 5.98619 5.80856 6.01517 5.8815 6.01518ZM7.35956 6.01518C7.39567 6.01518 7.43143 6.00807 7.46479 5.99424C7.49815 5.98042 7.52846 5.96016 7.55399 5.93461C7.57952 5.90907 7.59976 5.87875 7.61357 5.84538C7.62737 5.81201 7.63447 5.77625 7.63445 5.74013V4.78946C7.63445 4.75335 7.62734 4.71759 7.61352 4.68423C7.5997 4.65087 7.57944 4.62056 7.55391 4.59502C7.52838 4.56949 7.49806 4.54923 7.4647 4.53542C7.43134 4.5216 7.39559 4.51449 7.35948 4.51449C7.32337 4.51449 7.28761 4.5216 7.25425 4.53542C7.22089 4.54923 7.19058 4.56949 7.16504 4.59502C7.13951 4.62056 7.11926 4.65087 7.10544 4.68423C7.09162 4.71759 7.08451 4.75335 7.08451 4.78946V5.74013C7.08451 5.81308 7.11348 5.88304 7.16507 5.93462C7.21665 5.98621 7.28661 6.01518 7.35956 6.01518ZM8.83767 6.01518C8.91062 6.01518 8.98058 5.98621 9.03216 5.93462C9.08374 5.88304 9.11272 5.81308 9.11272 5.74013V4.78946C9.11272 4.71651 9.08374 4.64655 9.03216 4.59497C8.98058 4.54338 8.91062 4.5144 8.83767 4.5144C8.76472 4.5144 8.69476 4.54338 8.64318 4.59497C8.5916 4.64655 8.56262 4.71651 8.56262 4.78946V5.74013C8.56262 5.81308 8.5916 5.88304 8.64318 5.93462C8.69476 5.98621 8.76472 6.01518 8.83767 6.01518ZM13.5604 13.725C13.6334 13.7249 13.7033 13.696 13.7549 13.6444C13.8065 13.5928 13.8354 13.5228 13.8354 13.4499V12.5402C13.8344 12.4679 13.805 12.3989 13.7535 12.3482C13.7021 12.2974 13.6327 12.2689 13.5604 12.2689C13.4881 12.2689 13.4188 12.2974 13.3673 12.3482C13.3158 12.3989 13.2864 12.4679 13.2854 12.5402V13.4499C13.2854 13.5228 13.3144 13.5928 13.3659 13.6443C13.4175 13.6959 13.4875 13.7249 13.5604 13.7249L13.5604 13.725ZM14.975 13.725C15.0111 13.7249 15.0468 13.7178 15.0802 13.704C15.1135 13.6902 15.1438 13.6699 15.1694 13.6444C15.1949 13.6188 15.2151 13.5885 15.2289 13.5551C15.2427 13.5218 15.2498 13.486 15.2498 13.4499V12.5402C15.2498 12.4672 15.2208 12.3973 15.1693 12.3457C15.1177 12.2942 15.0478 12.2652 14.9749 12.2652C14.9019 12.2652 14.832 12.2942 14.7804 12.3457C14.7289 12.3973 14.6999 12.4672 14.6999 12.5402V13.4499C14.6999 13.5228 14.7289 13.5928 14.7805 13.6443C14.832 13.6959 14.902 13.7249 14.9749 13.7249L14.975 13.725ZM16.3892 13.725C16.4253 13.725 16.4611 13.7179 16.4945 13.704C16.5279 13.6902 16.5582 13.67 16.5837 13.6444C16.6093 13.6189 16.6296 13.5885 16.6434 13.5552C16.6572 13.5218 16.6643 13.486 16.6643 13.4499V12.5402C16.6643 12.4672 16.6353 12.3972 16.5838 12.3457C16.5322 12.2941 16.4622 12.2651 16.3893 12.2651C16.3163 12.2651 16.2464 12.2941 16.1948 12.3457C16.1432 12.3972 16.1142 12.4672 16.1142 12.5402V13.4499C16.1142 13.5228 16.1432 13.5928 16.1948 13.6443C16.2463 13.6959 16.3163 13.7249 16.3892 13.725ZM13.5604 11.3124C13.6333 11.3124 13.7033 11.2834 13.7548 11.2319C13.8064 11.1804 13.8354 11.1105 13.8354 11.0375V10.1278C13.8354 9.97591 13.7123 9.85296 13.5604 9.85296C13.4085 9.85296 13.2854 9.97596 13.2854 10.1278V11.0375C13.2854 11.1105 13.3144 11.1804 13.366 11.2319C13.4176 11.2834 13.4875 11.3124 13.5604 11.3124H13.5604ZM14.975 11.3124C15.0111 11.3124 15.0468 11.3053 15.0801 11.2915C15.1135 11.2777 15.1438 11.2574 15.1693 11.2319C15.1948 11.2064 15.2151 11.1761 15.2289 11.1427C15.2427 11.1094 15.2498 11.0736 15.2498 11.0375V10.1278C15.2498 9.97591 15.1268 9.85296 14.975 9.85296C14.8231 9.85296 14.6999 9.97596 14.6999 10.1278V11.0375C14.7 11.1105 14.7289 11.1804 14.7805 11.2319C14.8321 11.2834 14.9021 11.3124 14.975 11.3124ZM16.3892 11.3124C16.4621 11.3124 16.5321 11.2835 16.5837 11.2319C16.6353 11.1804 16.6643 11.1105 16.6643 11.0375V10.1278C16.6643 9.97591 16.5412 9.85296 16.3893 9.85296C16.2374 9.85296 16.1142 9.97596 16.1142 10.1278V11.0375C16.1143 11.1105 16.1432 11.1804 16.1948 11.2319C16.2464 11.2834 16.3163 11.3124 16.3892 11.3124Z" fill="#5E5E5E"/>
</g>
</svg>
