<svg width="22" height="22" viewBox="0 0 22 22" fill="none" xmlns="http://www.w3.org/2000/svg">
<path d="M11.7071 13.3096H15.641C15.6771 13.3096 15.7129 13.3025 15.7462 13.2887C15.7796 13.2748 15.8099 13.2546 15.8354 13.229C15.8609 13.2035 15.8812 13.1732 15.895 13.1398C15.9088 13.1064 15.9159 13.0707 15.9158 13.0346C15.9159 12.9985 15.9088 12.9627 15.895 12.9293C15.8812 12.896 15.8609 12.8657 15.8354 12.8401C15.8099 12.8146 15.7796 12.7943 15.7462 12.7805C15.7129 12.7666 15.6771 12.7595 15.641 12.7595H11.7071C11.671 12.7595 11.6352 12.7666 11.6019 12.7805C11.5685 12.7943 11.5382 12.8146 11.5127 12.8401C11.4872 12.8656 11.4669 12.8959 11.4531 12.9293C11.4393 12.9627 11.4322 12.9984 11.4323 13.0345C11.4322 13.0706 11.4393 13.1064 11.4531 13.1398C11.4669 13.1732 11.4871 13.2035 11.5126 13.2291C11.5382 13.2546 11.5685 13.2749 11.6018 13.2887C11.6352 13.3025 11.671 13.3096 11.7071 13.3096ZM6.49375 10.725C6.45763 10.725 6.42187 10.7321 6.3885 10.7459C6.35514 10.7597 6.32482 10.78 6.29928 10.8055C6.27374 10.8311 6.25349 10.8614 6.23967 10.8948C6.22585 10.9281 6.21874 10.9639 6.21875 11V11.7157C6.21875 11.7886 6.24772 11.8586 6.29928 11.9101C6.35084 11.9617 6.42078 11.9906 6.4937 11.9906C6.56662 11.9906 6.63655 11.9617 6.68811 11.9101C6.73968 11.8586 6.76864 11.7886 6.76864 11.7157V11.0001C6.76868 10.9639 6.7616 10.9282 6.74781 10.8948C6.73401 10.8614 6.71377 10.8311 6.68823 10.8055C6.6627 10.78 6.63238 10.7597 6.59901 10.7459C6.56564 10.7321 6.52987 10.725 6.49375 10.725ZM8.11539 10.725C8.07927 10.725 8.0435 10.7321 8.01013 10.7459C7.97675 10.7597 7.94643 10.78 7.92089 10.8055C7.89534 10.8311 7.87508 10.8614 7.86126 10.8947C7.84744 10.9281 7.84033 10.9639 7.84034 11V11.7157C7.84034 11.7886 7.86932 11.8586 7.9209 11.9102C7.97248 11.9618 8.04244 11.9908 8.11539 11.9908C8.18834 11.9908 8.2583 11.9618 8.30988 11.9102C8.36147 11.8586 8.39044 11.7886 8.39044 11.7157V11.0001C8.39046 10.9639 8.38335 10.9282 8.36954 10.8948C8.35572 10.8614 8.33546 10.8311 8.30991 10.8055C8.28437 10.78 8.25404 10.7597 8.22067 10.7459C8.18729 10.7321 8.15152 10.725 8.11539 10.725ZM6.49375 12.7595C6.42082 12.7595 6.35088 12.7885 6.29931 12.8401C6.24774 12.8916 6.21876 12.9616 6.21875 13.0345V13.7506C6.21875 13.9025 6.34186 14.0255 6.49375 14.0255C6.64564 14.0255 6.76859 13.9025 6.76859 13.7506V13.0346C6.76861 12.9985 6.76152 12.9627 6.74771 12.9293C6.73391 12.896 6.71367 12.8657 6.68815 12.8401C6.66263 12.8146 6.63232 12.7943 6.59897 12.7805C6.56561 12.7666 6.52986 12.7595 6.49375 12.7595ZM8.11539 12.7595C8.04245 12.7595 7.9725 12.7885 7.92092 12.8401C7.86934 12.8916 7.84035 12.9616 7.84034 13.0345V13.7506C7.84034 13.9025 7.9635 14.0255 8.11534 14.0255C8.26718 14.0255 8.39044 13.9025 8.39044 13.7506V13.0346C8.39044 12.9985 8.38333 12.9627 8.36951 12.9293C8.35568 12.8959 8.33542 12.8656 8.30988 12.8401C8.28434 12.8145 8.25402 12.7943 8.22065 12.7805C8.18728 12.7666 8.15151 12.7595 8.11539 12.7595ZM6.49375 14.7944C6.45763 14.7944 6.42186 14.8015 6.38849 14.8153C6.35512 14.8292 6.3248 14.8494 6.29926 14.875C6.27372 14.9005 6.25347 14.9308 6.23965 14.9642C6.22584 14.9976 6.21874 15.0333 6.21875 15.0695V15.7852C6.21875 15.8581 6.24772 15.928 6.29928 15.9796C6.35084 16.0311 6.42078 16.0601 6.4937 16.0601C6.56662 16.0601 6.63655 16.0311 6.68811 15.9796C6.73968 15.928 6.76864 15.8581 6.76864 15.7852V15.0695C6.76868 15.0334 6.76159 14.9976 6.74779 14.9642C6.73399 14.9308 6.71375 14.9005 6.68821 14.875C6.66268 14.8494 6.63236 14.8292 6.599 14.8154C6.56563 14.8015 6.52986 14.7944 6.49375 14.7945V14.7944ZM8.11539 14.7944C8.07927 14.7944 8.04349 14.8015 8.01012 14.8153C7.97674 14.8291 7.94641 14.8494 7.92087 14.8749C7.89532 14.9005 7.87506 14.9308 7.86124 14.9642C7.84743 14.9976 7.84032 15.0333 7.84034 15.0695V15.7852C7.84034 15.8581 7.86932 15.9281 7.9209 15.9797C7.97248 16.0312 8.04244 16.0602 8.11539 16.0602C8.18834 16.0602 8.2583 16.0312 8.30988 15.9797C8.36147 15.9281 8.39044 15.8581 8.39044 15.7852V15.0695C8.39045 15.0333 8.38334 14.9976 8.36952 14.9642C8.3557 14.9308 8.33544 14.9005 8.3099 14.875C8.28435 14.8494 8.25403 14.8292 8.22065 14.8154C8.18728 14.8016 8.15151 14.7945 8.11539 14.7945V14.7944ZM6.49375 16.8291C6.42081 16.8292 6.35086 16.8581 6.29929 16.9097C6.24772 16.9613 6.21875 17.0313 6.21875 17.1042V17.8198C6.21875 17.972 6.34186 18.0949 6.49375 18.0949C6.64564 18.0949 6.76859 17.972 6.76859 17.8198V17.1043C6.7686 17.0681 6.7615 17.0324 6.7477 16.999C6.73389 16.9657 6.71365 16.9354 6.68813 16.9098C6.66261 16.8843 6.63231 16.864 6.59896 16.8502C6.5656 16.8364 6.52985 16.8293 6.49375 16.8292V16.8291ZM8.11539 16.8291C8.04244 16.8291 7.97248 16.8581 7.9209 16.9097C7.86932 16.9613 7.84034 17.0312 7.84034 17.1042V17.8198C7.84034 17.972 7.9635 18.0949 8.11534 18.0949C8.26718 18.0949 8.39044 17.972 8.39044 17.8198V17.1043C8.39043 17.0313 8.36144 16.9614 8.30986 16.9098C8.25828 16.8582 8.18833 16.8292 8.11539 16.8292V16.8291ZM6.49375 18.8638C6.45764 18.8638 6.42188 18.8709 6.38852 18.8847C6.35516 18.8985 6.32484 18.9188 6.2993 18.9443C6.27376 18.9698 6.25351 19.0001 6.23968 19.0335C6.22586 19.0668 6.21875 19.1026 6.21875 19.1387V19.8548C6.21875 19.9277 6.24772 19.9976 6.29928 20.0492C6.35084 20.1008 6.42078 20.1297 6.4937 20.1297C6.56662 20.1297 6.63655 20.1008 6.68811 20.0492C6.73968 19.9976 6.76864 19.9277 6.76864 19.8548V19.1387C6.76866 19.1026 6.76156 19.0669 6.74775 19.0335C6.73393 19.0002 6.71369 18.9698 6.68816 18.9443C6.66263 18.9188 6.63232 18.8986 6.59896 18.8848C6.5656 18.8709 6.52985 18.8639 6.49375 18.8639V18.8638ZM8.11539 18.8638C8.07928 18.8638 8.04351 18.8709 8.01014 18.8847C7.97677 18.8985 7.94645 18.9187 7.92091 18.9443C7.89536 18.9698 7.8751 19.0001 7.86128 19.0335C7.84745 19.0668 7.84034 19.1026 7.84034 19.1387V19.8548C7.84034 19.9277 7.86932 19.9977 7.9209 20.0493C7.97248 20.1009 8.04244 20.1298 8.11539 20.1298C8.18834 20.1298 8.2583 20.1009 8.30988 20.0493C8.36147 19.9977 8.39044 19.9277 8.39044 19.8548V19.1387C8.39044 19.1026 8.38332 19.0669 8.36949 19.0335C8.35566 19.0001 8.3354 18.9698 8.30985 18.9443C8.28431 18.9188 8.25399 18.8986 8.22062 18.8847C8.18726 18.8709 8.1515 18.8639 8.11539 18.8639V18.8638ZM11.7071 14.9596H15.641C15.6771 14.9596 15.7129 14.9525 15.7462 14.9387C15.7796 14.9248 15.8099 14.9046 15.8355 14.879C15.861 14.8535 15.8812 14.8231 15.895 14.7897C15.9088 14.7564 15.9159 14.7206 15.9158 14.6845C15.9158 14.6484 15.9087 14.6126 15.8949 14.5793C15.8811 14.5459 15.8609 14.5156 15.8354 14.4901C15.8098 14.4646 15.7795 14.4443 15.7462 14.4305C15.7128 14.4167 15.6771 14.4096 15.641 14.4096H11.7071C11.671 14.4096 11.6353 14.4167 11.6019 14.4305C11.5686 14.4443 11.5382 14.4646 11.5127 14.4901C11.4872 14.5156 11.467 14.5459 11.4531 14.5793C11.4393 14.6126 11.4322 14.6484 11.4323 14.6845C11.4322 14.7206 11.4393 14.7564 11.4531 14.7897C11.4669 14.8231 11.4871 14.8535 11.5126 14.879C11.5382 14.9046 11.5685 14.9248 11.6018 14.9387C11.6352 14.9525 11.671 14.9596 11.7071 14.9596ZM11.7071 16.6095H15.641C15.6771 16.6095 15.7128 16.6024 15.7462 16.5886C15.7795 16.5748 15.8098 16.5545 15.8354 16.529C15.8609 16.5035 15.8811 16.4732 15.8949 16.4398C15.9087 16.4065 15.9158 16.3707 15.9158 16.3346C15.9159 16.2985 15.9088 16.2627 15.895 16.2294C15.8812 16.196 15.861 16.1657 15.8354 16.1401C15.8099 16.1146 15.7796 16.0943 15.7462 16.0805C15.7129 16.0667 15.6771 16.0596 15.641 16.0596H11.7071C11.671 16.0596 11.6352 16.0667 11.6019 16.0805C11.5685 16.0943 11.5382 16.1146 11.5126 16.1401C11.4871 16.1657 11.4669 16.196 11.4531 16.2294C11.4393 16.2627 11.4322 16.2985 11.4323 16.3346C11.4322 16.3707 11.4393 16.4065 11.4531 16.4398C11.467 16.4732 11.4872 16.5035 11.5127 16.529C11.5382 16.5545 11.5686 16.5748 11.6019 16.5886C11.6353 16.6024 11.671 16.6095 11.7071 16.6095ZM11.7071 9.98272H15.641C15.6771 9.98273 15.7129 9.97562 15.7462 9.9618C15.7796 9.94797 15.8099 9.92771 15.8355 9.90215C15.861 9.8766 15.8812 9.84627 15.895 9.81288C15.9088 9.7795 15.9159 9.74373 15.9158 9.70761C15.9158 9.67151 15.9087 9.63577 15.8949 9.60242C15.8811 9.56906 15.8609 9.53876 15.8354 9.51324C15.8098 9.48771 15.7795 9.46747 15.7462 9.45366C15.7128 9.43986 15.6771 9.43276 15.641 9.43277H11.7071C11.671 9.43276 11.6353 9.43986 11.6019 9.45366C11.5686 9.46747 11.5382 9.48771 11.5127 9.51324C11.4872 9.53876 11.467 9.56906 11.4531 9.60242C11.4393 9.63577 11.4322 9.67151 11.4323 9.70761C11.4322 9.74372 11.4393 9.77949 11.4531 9.81287C11.4669 9.84624 11.4871 9.87657 11.5126 9.90212C11.5382 9.92767 11.5685 9.94793 11.6019 9.96175C11.6352 9.97557 11.671 9.98268 11.7071 9.98266V9.98272ZM11.7071 11.6326H15.641C15.6771 11.6326 15.7128 11.6255 15.7462 11.6117C15.7795 11.5979 15.8098 11.5777 15.8354 11.5521C15.8609 11.5266 15.8811 11.4963 15.8949 11.463C15.9087 11.4296 15.9158 11.3939 15.9158 11.3578C15.9159 11.3217 15.9088 11.2859 15.895 11.2525C15.8812 11.2191 15.861 11.1888 15.8354 11.1633C15.8099 11.1377 15.7796 11.1174 15.7462 11.1036C15.7129 11.0898 15.6771 11.0827 15.641 11.0827H11.7071C11.671 11.0827 11.6352 11.0898 11.6019 11.1036C11.5685 11.1174 11.5382 11.1377 11.5127 11.1632C11.4871 11.1888 11.4669 11.2191 11.4531 11.2525C11.4393 11.2858 11.4322 11.3216 11.4323 11.3577C11.4322 11.3938 11.4393 11.4296 11.4531 11.4629C11.4669 11.4963 11.4872 11.5266 11.5127 11.5521C11.5382 11.5777 11.5685 11.5979 11.6019 11.6117C11.6352 11.6255 11.671 11.6326 11.7071 11.6326Z" fill="#5E5E5E"/>
<path d="M22.0002 15.5292C22.0002 14.6513 21.286 13.9372 20.4083 13.9372C19.5307 13.9372 18.8165 14.6513 18.8165 15.5292C18.8165 16.1313 19.1531 16.6565 19.6476 16.9269C19.1531 17.1972 18.8165 17.7223 18.8165 18.3247C18.8165 19.1083 19.3865 19.76 20.1333 19.8909V21.45H17.6483V3.95325C17.6483 3.8607 17.6019 3.77493 17.5249 3.72369C17.4479 3.67245 17.3501 3.66391 17.2656 3.70021L13.3456 5.3667V2.92178C13.3456 2.84889 13.3167 2.77898 13.2651 2.72744C13.2136 2.6759 13.1437 2.64694 13.0708 2.64694H10.48V0.275068C10.48 0.202148 10.4511 0.132214 10.3995 0.080652C10.3479 0.0290895 10.278 0.00012207 10.2051 0.00012207C10.1322 0.00012207 10.0622 0.0290895 10.0107 0.080652C9.9591 0.132214 9.93013 0.202148 9.93013 0.275068V2.64694H7.24985C7.21375 2.64692 7.178 2.65402 7.14464 2.66782C7.11128 2.68162 7.08097 2.70187 7.05544 2.72739C7.02991 2.75292 7.00966 2.78322 6.99585 2.81658C6.98204 2.84993 6.97494 2.88568 6.97496 2.92178V8.85163H4.62677C4.59066 8.85163 4.5549 8.85874 4.52155 8.87257C4.48819 8.88639 4.45788 8.90665 4.43235 8.93218C4.40682 8.95772 4.38658 8.98804 4.37277 9.0214C4.35896 9.05476 4.35186 9.09052 4.35188 9.12663V21.45H1.86667V19.8909C2.61363 19.7601 3.1835 19.1084 3.1835 18.3247C3.1835 17.7224 2.84716 17.1972 2.35243 16.927C2.84711 16.6565 3.1835 16.1314 3.1835 15.5292C3.1835 14.6514 2.46952 13.9373 1.59188 13.9373C0.714248 13.9373 5.37109e-05 14.6513 5.37109e-05 15.5291C5.37109e-05 16.1312 0.336392 16.6564 0.831123 16.9269C0.336392 17.1972 5.37109e-05 17.7223 5.37109e-05 18.3247C5.37109e-05 19.1083 0.569927 19.76 1.31683 19.8909V21.45H0.275054C0.202105 21.45 0.132144 21.4789 0.0805614 21.5305C0.0289788 21.5821 0 21.6521 0 21.725C0 21.798 0.0289788 21.8679 0.0805614 21.9195C0.132144 21.9711 0.202105 22.0001 0.275054 22.0001H21.7251C21.798 22.0001 21.868 21.9711 21.9195 21.9195C21.9711 21.8679 22.0001 21.798 22.0001 21.725C22.0001 21.6521 21.9711 21.5821 21.9195 21.5305C21.868 21.4789 21.798 21.45 21.7251 21.45H20.6833V19.8909C21.43 19.76 22.0001 19.1083 22.0001 18.3247C22.0001 17.7223 21.6636 17.1972 21.169 16.9269C21.6636 16.6565 22.0002 16.1313 22.0002 15.5292ZM1.59188 14.4873C2.16611 14.4873 2.63355 14.9548 2.63355 15.5292C2.63355 16.1036 2.16611 16.5709 1.59188 16.5709C1.01739 16.5709 0.549946 16.1036 0.549946 15.5292C0.549946 14.9548 1.01739 14.4873 1.59188 14.4873ZM0.549946 18.3247C0.549946 17.7502 1.01739 17.2827 1.59188 17.2827C2.16611 17.2827 2.63355 17.7502 2.63355 18.3247C2.63355 18.8989 2.16611 19.3664 1.59188 19.3664C1.01739 19.3664 0.549946 18.8989 0.549946 18.3247ZM17.0982 21.45H15.5461V18.6868C15.5461 18.6507 15.539 18.6149 15.5252 18.5816C15.5114 18.5482 15.4911 18.5179 15.4656 18.4924C15.44 18.4669 15.4097 18.4467 15.3764 18.4329C15.343 18.419 15.3073 18.4119 15.2711 18.412H12.0776C12.0415 18.4119 12.0057 18.419 11.9724 18.4329C11.939 18.4467 11.9087 18.4669 11.8832 18.4924C11.8576 18.5179 11.8374 18.5482 11.8236 18.5816C11.8097 18.6149 11.8026 18.6507 11.8026 18.6868V21.45H10.2504V7.27999L17.0981 4.36886L17.0982 21.45ZM14.9961 21.45H12.3527V18.9619H14.9961L14.9961 21.45ZM12.7956 3.19689V5.29376H7.52485V3.19689H12.7956ZM7.52485 5.84387H12.2235L9.86772 6.84526C9.81806 6.86634 9.7757 6.90157 9.74594 6.94657C9.71617 6.99157 9.70032 7.04434 9.70036 7.09829V8.85168H7.52485V5.84387ZM4.90182 9.40158H9.70036V21.45H4.90182V9.40158ZM20.4083 19.3664C19.8339 19.3664 19.3666 18.899 19.3666 18.3247C19.3666 17.7503 19.8339 17.2828 20.4083 17.2828C20.9828 17.2828 21.45 17.7503 21.45 18.3247C21.45 18.899 20.9828 19.3664 20.4083 19.3664ZM20.4083 16.571C19.8339 16.571 19.3666 16.1037 19.3666 15.5292C19.3666 14.9548 19.8339 14.4874 20.4083 14.4874C20.9828 14.4874 21.45 14.9548 21.45 15.5292C21.45 16.1037 20.9828 16.571 20.4083 16.571Z" fill="#5E5E5E"/>
</svg>
