<svg width="42" height="42" viewBox="0 0 42 42" fill="none" xmlns="http://www.w3.org/2000/svg">
<mask id="mask0_672_548" style="mask-type:alpha" maskUnits="userSpaceOnUse" x="0" y="0" width="42" height="42">
<rect width="42" height="42" fill="#D9D9D9"/>
</mask>
<g mask="url(#mask0_672_548)">
<path d="M38.3104 11.6476H36.7613C36.832 11.2516 36.7893 10.8438 36.638 10.4707C36.4867 10.0975 36.2329 9.77385 35.9053 9.53646C35.5778 9.29907 35.1897 9.15744 34.785 9.12766C34.3804 9.09787 33.9754 9.18113 33.6161 9.36797C33.2544 7.41956 30.3764 7.10002 29.594 8.92763C29.3343 8.76983 29.0436 8.66865 28.7413 8.63082C28.439 8.59298 28.1321 8.61936 27.8409 8.7082C27.5497 8.79703 27.2809 8.94629 27.0524 9.14605C26.8239 9.34581 26.6409 9.59149 26.5156 9.86677C26.1932 9.67252 25.8247 9.56611 25.4475 9.5583C25.0703 9.55048 24.6976 9.64153 24.3673 9.82224C24.037 10.003 23.7606 10.2669 23.5662 10.5874C23.3718 10.908 23.2663 11.2737 23.2602 11.6476H18.8293C19.081 9.16534 16.9579 6.5077 17.0601 4.0488H18.1531C18.3095 4.0488 18.4595 3.98722 18.5701 3.8776C18.6807 3.76798 18.7428 3.6193 18.7428 3.46428V0.584524C18.7428 0.429499 18.6807 0.280823 18.5701 0.171203C18.4595 0.0615835 18.3095 0 18.1531 0H5.94158C5.78517 0 5.63517 0.0615835 5.52457 0.171203C5.41397 0.280823 5.35184 0.429499 5.35184 0.584524V3.46428C5.35184 4.28261 6.47234 4.00204 6.98738 4.0488C6.66892 6.83893 3.36245 8.76007 3.28382 11.6476C2.97297 11.6057 2.65668 11.6296 2.3558 11.7176C2.05492 11.8057 1.77627 11.9559 1.53818 12.1583C1.3001 12.3608 1.10798 12.611 0.974487 12.8924C0.840992 13.1738 0.769143 13.48 0.763672 13.7909V28.2091C0.764711 28.7772 0.992866 29.3218 1.39817 29.7235C1.80346 30.1252 2.35287 30.3514 2.92605 30.3524H5.32825C5.08842 32.0904 6.85371 33.4698 8.47353 32.632C8.83523 34.5804 11.7132 34.9 12.4955 33.0724C12.756 33.2336 13.0483 33.3376 13.3528 33.3772C13.6573 33.4169 13.9668 33.3914 14.2605 33.3024C14.5541 33.2133 14.8251 33.0629 15.0551 32.8612C15.2851 32.6595 15.4687 32.4113 15.5936 32.1332C15.9156 32.3226 16.282 32.4251 16.6564 32.4304C17.0308 32.4357 17.4 32.3437 17.7273 32.1636C18.0546 31.9834 18.3286 31.7214 18.522 31.4036C18.7153 31.0858 18.8213 30.7234 18.8293 30.3524H23.2602C23.0126 32.8464 25.1356 35.4845 25.0295 37.9512H23.9365C23.7801 37.9512 23.6301 38.0128 23.5195 38.1224C23.4089 38.232 23.3467 38.3807 23.3467 38.5357V41.4155C23.3467 41.5705 23.4089 41.7192 23.5195 41.8288C23.6301 41.9384 23.7801 42 23.9365 42H36.148C36.3044 42 36.4544 41.9384 36.565 41.8288C36.6756 41.7192 36.7377 41.5705 36.7377 41.4155V38.5357C36.7377 37.7135 35.6172 37.998 35.0983 37.9512C35.4325 35.1416 38.7507 33.2166 38.8136 30.2939C39.286 30.1812 39.7064 29.9143 40.0073 29.5362C40.3082 29.1581 40.4722 28.6907 40.4728 28.2091V13.7909C40.4717 13.2228 40.2436 12.6782 39.8383 12.2765C39.433 11.8748 38.8836 11.6486 38.3104 11.6476ZM34.6304 10.2876C35.4167 10.2876 35.6605 10.9813 35.5819 11.6476H33.6829C33.5925 10.9813 33.8638 10.3032 34.6304 10.2876ZM30.6005 9.80052C30.6005 9.55041 30.7008 9.31055 30.8792 9.13369C31.0576 8.95684 31.2996 8.85749 31.552 8.85749C31.8043 8.85749 32.0463 8.95684 32.2247 9.13369C32.4032 9.31055 32.5034 9.55041 32.5034 9.80052V11.6476H30.6005V9.80052ZM27.5221 10.7046C27.5376 10.4655 27.6444 10.2412 27.8208 10.0773C27.9971 9.91336 28.2298 9.82214 28.4716 9.82214C28.7133 9.82214 28.946 9.91336 29.1224 10.0773C29.2987 10.2412 29.4055 10.4655 29.4211 10.7046V11.6476H27.5221V10.7046ZM25.3912 10.7046C25.6432 10.7056 25.8846 10.8053 26.0628 10.9819C26.241 11.1586 26.3416 11.3978 26.3426 11.6476H24.4397C24.4428 11.3995 24.5444 11.1627 24.7225 10.9883C24.9006 10.814 25.1409 10.7163 25.3912 10.7163V10.7046ZM6.51952 1.15736H17.5634V2.87976H6.53132L6.51952 1.15736ZM7.03063 7.02208C7.66239 6.14067 8.05377 5.11248 8.16686 4.03711H15.9003C15.7155 6.51549 17.8661 9.16534 17.6695 11.6359H11.4104C11.254 11.6359 11.104 11.6975 10.9934 11.8071C10.8828 11.9167 10.8207 12.0654 10.8207 12.2204C10.8793 12.6714 10.8414 13.1295 10.7094 13.565C10.5774 14.0004 10.3542 14.4034 10.0544 14.7476C9.75465 15.0917 9.38504 15.3694 8.9697 15.5624C8.55436 15.7555 8.10262 15.8596 7.64396 15.8679C7.48755 15.8679 7.33755 15.9295 7.22695 16.0391C7.11635 16.1487 7.05422 16.2974 7.05422 16.4524V20.8792C7.05422 21.0486 7.02056 21.2163 6.95516 21.3728C6.88976 21.5293 6.7939 21.6715 6.67306 21.7913C6.55222 21.911 6.40876 22.006 6.25087 22.0709C6.09298 22.1357 5.92376 22.169 5.75286 22.169C5.58197 22.169 5.41274 22.1357 5.25485 22.0709C5.09697 22.006 4.95351 21.911 4.83266 21.7913C4.71182 21.6715 4.61596 21.5293 4.55057 21.3728C4.48517 21.2163 4.45151 21.0486 4.45151 20.8792V12.2477C4.27458 10.3734 6.07132 8.4678 7.04243 7.03377L7.03063 7.02208ZM7.44738 31.7007C6.66106 31.7007 6.4173 31.0071 6.49593 30.3407H8.39489C8.48532 31.0187 8.22584 31.6968 7.45917 31.7124L7.44738 31.7007ZM11.4773 32.1878C11.4773 32.4379 11.377 32.6778 11.1986 32.8546C11.0202 33.0315 10.7782 33.1308 10.5258 33.1308C10.2735 33.1308 10.0315 33.0315 9.85304 32.8546C9.67461 32.6778 9.57437 32.4379 9.57437 32.1878V30.3524H11.4773V32.1878ZM13.6082 32.2268C12.5231 32.18 12.6607 31.1317 12.6685 30.3524H14.5675C14.5793 31.1317 14.7208 32.18 13.62 32.2384L13.6082 32.2268ZM16.6866 31.2837C16.4387 31.2797 16.202 31.1803 16.0267 31.0065C15.8513 30.8327 15.751 30.5981 15.747 30.3524H17.6499C17.6483 30.4762 17.6222 30.5986 17.5729 30.7124C17.5237 30.8262 17.4523 30.9293 17.3629 31.0158C17.2734 31.1023 17.1677 31.1705 17.0516 31.2164C16.9356 31.2624 16.8116 31.2853 16.6866 31.2837ZM35.5583 40.831H24.5262V39.1202H35.5583V40.831ZM37.6617 29.7679C37.7324 32.8853 34.021 34.8649 33.9109 37.9512H26.2089C26.3977 35.4689 24.2431 32.8269 24.4397 30.3524H30.6831C31.3004 30.3251 31.2925 29.764 31.2728 29.2963C31.2739 28.4575 31.6106 27.6532 32.209 27.06C32.8075 26.4669 33.6189 26.1332 34.4653 26.1321C34.6217 26.1321 34.7717 26.0705 34.8823 25.9609C34.9929 25.8513 35.055 25.7026 35.055 25.5476V21.1208C35.0733 20.7905 35.2186 20.4796 35.461 20.2522C35.7035 20.0248 36.0246 19.898 36.3583 19.898C36.6921 19.898 37.0132 20.0248 37.2556 20.2522C37.4981 20.4796 37.6434 20.7905 37.6617 21.1208V29.7679ZM39.2933 28.2091C39.2934 28.3722 39.252 28.5327 39.173 28.6757C39.0939 28.8187 38.9798 28.9397 38.8411 29.0275V21.1208C38.9001 18.9853 36.089 17.8358 34.6029 19.3828C34.3713 19.6101 34.1876 19.8808 34.0627 20.1793C33.9379 20.4777 33.8742 20.7977 33.8755 21.1208V25.0176C32.8498 25.1564 31.907 25.651 31.2145 26.4137C30.522 27.1764 30.1248 28.1578 30.0934 29.1833H2.92605C2.66537 29.1833 2.41536 29.0807 2.23103 28.898C2.0467 28.7153 1.94315 28.4675 1.94315 28.2091V13.7909C1.94315 13.0933 2.59973 12.727 3.25237 12.8167V20.8792C3.18553 23.0147 6.00449 24.1681 7.4867 22.6172C7.71798 22.3896 7.90137 22.1188 8.02623 21.8205C8.15109 21.5221 8.21493 21.2022 8.21404 20.8792V16.9824C9.23975 16.8436 10.1826 16.349 10.8751 15.5863C11.5676 14.8236 11.9648 13.8422 11.9962 12.8167H38.3104C38.5711 12.8167 38.8211 12.9193 39.0054 13.102C39.1897 13.2847 39.2933 13.5325 39.2933 13.7909V28.2091Z" fill="#13141A"/>
<path d="M9.94771 26.8456H5.28484C5.12843 26.8456 4.97843 26.784 4.86783 26.6744C4.75724 26.5648 4.6951 26.4161 4.6951 26.2611V24.8115C4.6951 24.6564 4.63297 24.5078 4.52237 24.3981C4.41177 24.2885 4.26177 24.2269 4.10536 24.2269C3.94896 24.2269 3.79895 24.2885 3.68836 24.3981C3.57776 24.5078 3.51563 24.6564 3.51563 24.8115V26.2611C3.51562 26.7262 3.70202 27.1722 4.03382 27.5011C4.36561 27.8299 4.81562 28.0147 5.28484 28.0147H9.94771C10.1041 28.0147 10.2541 27.9531 10.3647 27.8435C10.4753 27.7338 10.5374 27.5852 10.5374 27.4301C10.5374 27.2751 10.4753 27.1264 10.3647 27.0168C10.2541 26.9072 10.1041 26.8456 9.94771 26.8456ZM35.9513 13.9861H31.2845C31.1281 13.9861 30.9781 14.0477 30.8675 14.1573C30.7569 14.2669 30.6947 14.4156 30.6947 14.5706C30.6947 14.7256 30.7569 14.8743 30.8675 14.9839C30.9781 15.0935 31.1281 15.1551 31.2845 15.1551H35.9513C36.1074 15.1562 36.2568 15.2181 36.3671 15.3275C36.4775 15.4369 36.54 15.5849 36.541 15.7397V17.1932C36.541 17.3482 36.6031 17.4969 36.7137 17.6065C36.8243 17.7161 36.9743 17.7777 37.1307 17.7777C37.2872 17.7777 37.4372 17.7161 37.5478 17.6065C37.6583 17.4969 37.7205 17.3482 37.7205 17.1932V15.7358C37.7184 15.2717 37.5312 14.8272 37.1998 14.4994C36.8683 14.1717 36.4195 13.9871 35.9513 13.9861ZM23.8695 20.8445V21.1679C23.8695 21.323 23.9316 21.4716 24.0422 21.5813C24.1528 21.6909 24.3028 21.7525 24.4592 21.7525C24.6156 21.7525 24.7656 21.6909 24.8762 21.5813C24.9868 21.4716 25.049 21.323 25.049 21.1679V20.8445C25.049 20.6895 24.9868 20.5408 24.8762 20.4312C24.7656 20.3216 24.6156 20.26 24.4592 20.26C24.3028 20.26 24.1528 20.3216 24.0422 20.4312C23.9316 20.5408 23.8695 20.6895 23.8695 20.8445ZM16.7769 20.26C16.6205 20.26 16.4705 20.3216 16.3599 20.4312C16.2493 20.5408 16.1871 20.6895 16.1871 20.8445C16.14 21.2693 16.2658 21.7447 16.7769 21.7525C16.9333 21.7525 17.0833 21.6909 17.1939 21.5813C17.3045 21.4716 17.3666 21.323 17.3666 21.1679C17.4138 20.7432 17.2919 20.2678 16.7769 20.26ZM20.0991 19.052H21.137C21.159 19.052 21.1808 19.0563 21.2011 19.0648C21.2214 19.0732 21.2398 19.0857 21.2552 19.1013C21.2706 19.1169 21.2827 19.1354 21.2907 19.1557C21.2988 19.176 21.3027 19.1977 21.3022 19.2195C21.3022 19.3745 21.3643 19.5232 21.4749 19.6328C21.5855 19.7425 21.7355 19.804 21.8919 19.804C22.0483 19.804 22.1983 19.7425 22.3089 19.6328C22.4195 19.5232 22.4816 19.3745 22.4816 19.2195C22.4831 18.8772 22.3517 18.5475 22.1145 18.2986C21.8773 18.0498 21.5527 17.9009 21.2078 17.8829C21.2078 17.3997 21.3297 16.6242 20.6181 16.6086C19.9064 16.5931 20.0283 17.388 20.0283 17.8829C19.6848 17.9009 19.3613 18.0486 19.1243 18.2958C18.8874 18.543 18.755 18.8708 18.7545 19.2117V20.2444C18.7545 20.5982 18.896 20.9376 19.1481 21.1881C19.4001 21.4387 19.7421 21.58 20.0991 21.581H21.137C21.1808 21.581 21.2228 21.5982 21.2538 21.6289C21.2848 21.6596 21.3022 21.7013 21.3022 21.7447V22.7929C21.3022 22.8363 21.2848 22.8779 21.2538 22.9086C21.2228 22.9393 21.1808 22.9566 21.137 22.9566H20.0991C19.9615 22.9566 19.9182 22.8163 19.934 22.7033C19.934 22.5483 19.8718 22.3996 19.7612 22.29C19.6506 22.1803 19.5006 22.1188 19.3442 22.1188C19.2593 22.1203 19.1757 22.1395 19.0988 22.1752C19.0219 22.2108 18.9535 22.2621 18.8978 22.3256C18.8422 22.3892 18.8007 22.4637 18.776 22.5442C18.7513 22.6247 18.744 22.7094 18.7545 22.7929C18.7551 23.1335 18.8875 23.4608 19.1246 23.7074C19.3616 23.9539 19.6851 24.1009 20.0283 24.1178C20.0283 24.6049 19.9064 25.3765 20.6181 25.396C21.3297 25.4155 21.2078 24.6166 21.2078 24.1178C21.551 24.1009 21.8745 23.9539 22.1115 23.7074C22.3486 23.4608 22.481 23.1335 22.4816 22.7929V21.7564C22.4816 21.4029 22.34 21.0639 22.0878 20.814C21.8356 20.5641 21.4936 20.4236 21.137 20.4236H20.0991C20.0549 20.4226 20.0129 20.4045 19.9821 20.3732C19.9512 20.3419 19.9339 20.2999 19.934 20.2561V19.2234C19.9329 19.2013 19.9364 19.1792 19.9442 19.1584C19.952 19.1376 19.964 19.1187 19.9795 19.1026C19.9949 19.0866 20.0135 19.0738 20.034 19.0651C20.0546 19.0564 20.0767 19.0519 20.0991 19.052Z" fill="#13141A"/>
<path d="M20.618 14.1302C14.5516 14.0523 11.4142 21.655 15.7389 25.8558C17.0334 27.1374 18.7883 27.8574 20.618 27.8574C22.4477 27.8574 24.2026 27.1374 25.4971 25.8558C29.8219 21.655 26.6845 14.0523 20.618 14.1302ZM24.6597 25.0413C23.5872 26.1027 22.1336 26.6987 20.618 26.6987C19.1025 26.6987 17.6489 26.1027 16.5763 25.0413C12.9868 21.5576 15.5816 15.2408 20.618 15.2993C25.6544 15.2369 28.2492 21.5498 24.6597 25.0336V25.0413Z" fill="#13141A"/>
</g>
</svg>
