<svg width="157" height="49" viewBox="0 0 157 49" fill="none" xmlns="http://www.w3.org/2000/svg">
<rect width="157" height="49" rx="5" fill="black"/>
<rect x="0.5" y="0.5" width="156" height="48" rx="4.5" stroke="#00A7AC" stroke-opacity="0.2"/>
<path d="M49.93 37L54.34 27.2H56.132L60.556 37H58.652L54.858 28.166H55.586L51.806 37H49.93ZM51.96 34.732L52.45 33.304H57.742L58.232 34.732H51.96ZM65.7783 37.098C65.1717 37.098 64.6163 36.958 64.1123 36.678C63.6177 36.398 63.221 35.978 62.9223 35.418C62.633 34.8487 62.4883 34.13 62.4883 33.262C62.4883 32.3847 62.6283 31.666 62.9083 31.106C63.1977 30.546 63.5897 30.1307 64.0843 29.86C64.579 29.58 65.1437 29.44 65.7783 29.44C66.5157 29.44 67.1643 29.5987 67.7243 29.916C68.2937 30.2333 68.7417 30.6767 69.0683 31.246C69.4043 31.8153 69.5723 32.4873 69.5723 33.262C69.5723 34.0367 69.4043 34.7133 69.0683 35.292C68.7417 35.8613 68.2937 36.3047 67.7243 36.622C67.1643 36.9393 66.5157 37.098 65.7783 37.098ZM61.6343 39.716V29.524H63.3003V31.288L63.2443 33.276L63.3843 35.264V39.716H61.6343ZM65.5823 35.6C66.0023 35.6 66.3757 35.5067 66.7023 35.32C67.0383 35.1333 67.3043 34.8627 67.5003 34.508C67.6963 34.1533 67.7943 33.738 67.7943 33.262C67.7943 32.7767 67.6963 32.3613 67.5003 32.016C67.3043 31.6613 67.0383 31.3907 66.7023 31.204C66.3757 31.0173 66.0023 30.924 65.5823 30.924C65.1623 30.924 64.7843 31.0173 64.4483 31.204C64.1123 31.3907 63.8463 31.6613 63.6503 32.016C63.4543 32.3613 63.3563 32.7767 63.3563 33.262C63.3563 33.738 63.4543 34.1533 63.6503 34.508C63.8463 34.8627 64.1123 35.1333 64.4483 35.32C64.7843 35.5067 65.1623 35.6 65.5823 35.6ZM75.376 37.098C74.7693 37.098 74.214 36.958 73.71 36.678C73.2153 36.398 72.8187 35.978 72.52 35.418C72.2307 34.8487 72.086 34.13 72.086 33.262C72.086 32.3847 72.226 31.666 72.506 31.106C72.7953 30.546 73.1873 30.1307 73.682 29.86C74.1767 29.58 74.7413 29.44 75.376 29.44C76.1133 29.44 76.762 29.5987 77.322 29.916C77.8913 30.2333 78.3393 30.6767 78.666 31.246C79.002 31.8153 79.17 32.4873 79.17 33.262C79.17 34.0367 79.002 34.7133 78.666 35.292C78.3393 35.8613 77.8913 36.3047 77.322 36.622C76.762 36.9393 76.1133 37.098 75.376 37.098ZM71.232 39.716V29.524H72.898V31.288L72.842 33.276L72.982 35.264V39.716H71.232ZM75.18 35.6C75.6 35.6 75.9733 35.5067 76.3 35.32C76.636 35.1333 76.902 34.8627 77.098 34.508C77.294 34.1533 77.392 33.738 77.392 33.262C77.392 32.7767 77.294 32.3613 77.098 32.016C76.902 31.6613 76.636 31.3907 76.3 31.204C75.9733 31.0173 75.6 30.924 75.18 30.924C74.76 30.924 74.382 31.0173 74.046 31.204C73.71 31.3907 73.444 31.6613 73.248 32.016C73.052 32.3613 72.954 32.7767 72.954 33.262C72.954 33.738 73.052 34.1533 73.248 34.508C73.444 34.8627 73.71 35.1333 74.046 35.32C74.382 35.5067 74.76 35.6 75.18 35.6ZM87.9048 37.14C87.1394 37.14 86.4068 37.0327 85.7068 36.818C85.0068 36.594 84.4514 36.3093 84.0408 35.964L84.6708 34.55C85.0628 34.858 85.5481 35.1147 86.1268 35.32C86.7054 35.5253 87.2981 35.628 87.9048 35.628C88.4181 35.628 88.8334 35.572 89.1508 35.46C89.4681 35.348 89.7014 35.1987 89.8508 35.012C90.0001 34.816 90.0748 34.5967 90.0748 34.354C90.0748 34.0553 89.9674 33.8173 89.7528 33.64C89.5381 33.4533 89.2581 33.3087 88.9128 33.206C88.5768 33.094 88.1988 32.9913 87.7788 32.898C87.3681 32.8047 86.9528 32.6973 86.5328 32.576C86.1221 32.4453 85.7441 32.282 85.3988 32.086C85.0628 31.8807 84.7874 31.61 84.5728 31.274C84.3581 30.938 84.2508 30.5087 84.2508 29.986C84.2508 29.454 84.3908 28.9687 84.6708 28.53C84.9601 28.082 85.3941 27.7273 85.9728 27.466C86.5608 27.1953 87.3028 27.06 88.1988 27.06C88.7868 27.06 89.3701 27.1347 89.9488 27.284C90.5274 27.4333 91.0314 27.648 91.4608 27.928L90.8868 29.342C90.4481 29.0807 89.9954 28.8893 89.5288 28.768C89.0621 28.6373 88.6141 28.572 88.1848 28.572C87.6808 28.572 87.2701 28.6327 86.9528 28.754C86.6448 28.8753 86.4161 29.034 86.2668 29.23C86.1268 29.426 86.0568 29.65 86.0568 29.902C86.0568 30.2007 86.1594 30.4433 86.3648 30.63C86.5794 30.8073 86.8548 30.9473 87.1908 31.05C87.5361 31.1527 87.9188 31.2553 88.3388 31.358C88.7588 31.4513 89.1741 31.5587 89.5848 31.68C90.0048 31.8013 90.3828 31.96 90.7188 32.156C91.0641 32.352 91.3394 32.618 91.5448 32.954C91.7594 33.29 91.8668 33.7147 91.8668 34.228C91.8668 34.7507 91.7221 35.236 91.4328 35.684C91.1528 36.1227 90.7188 36.4773 90.1308 36.748C89.5428 37.0093 88.8008 37.14 87.9048 37.14ZM96.3175 37.098C95.4961 37.098 94.8615 36.888 94.4135 36.468C93.9655 36.0387 93.7415 35.4087 93.7415 34.578V27.872H95.4915V34.536C95.4915 34.8907 95.5801 35.166 95.7575 35.362C95.9441 35.558 96.2008 35.656 96.5275 35.656C96.9195 35.656 97.2461 35.5533 97.5075 35.348L97.9975 36.594C97.7921 36.762 97.5401 36.888 97.2415 36.972C96.9428 37.056 96.6348 37.098 96.3175 37.098ZM92.5095 30.98V29.58H97.4935V30.98H92.5095ZM102.551 37.098C101.786 37.098 101.104 36.9347 100.507 36.608C99.9096 36.272 99.4383 35.8147 99.093 35.236C98.7476 34.6573 98.575 33.9993 98.575 33.262C98.575 32.5153 98.7476 31.8573 99.093 31.288C99.4383 30.7093 99.9096 30.2567 100.507 29.93C101.104 29.6033 101.786 29.44 102.551 29.44C103.326 29.44 104.012 29.6033 104.609 29.93C105.216 30.2567 105.687 30.7047 106.023 31.274C106.368 31.8433 106.541 32.506 106.541 33.262C106.541 33.9993 106.368 34.6573 106.023 35.236C105.687 35.8147 105.216 36.272 104.609 36.608C104.012 36.9347 103.326 37.098 102.551 37.098ZM102.551 35.6C102.98 35.6 103.363 35.5067 103.699 35.32C104.035 35.1333 104.296 34.8627 104.483 34.508C104.679 34.1533 104.777 33.738 104.777 33.262C104.777 32.7767 104.679 32.3613 104.483 32.016C104.296 31.6613 104.035 31.3907 103.699 31.204C103.363 31.0173 102.985 30.924 102.565 30.924C102.136 30.924 101.753 31.0173 101.417 31.204C101.09 31.3907 100.829 31.6613 100.633 32.016C100.437 32.3613 100.339 32.7767 100.339 33.262C100.339 33.738 100.437 34.1533 100.633 34.508C100.829 34.8627 101.09 35.1333 101.417 35.32C101.753 35.5067 102.131 35.6 102.551 35.6ZM108.214 37V29.524H109.88V31.582L109.684 30.98C109.908 30.476 110.258 30.0933 110.734 29.832C111.22 29.5707 111.822 29.44 112.54 29.44V31.106C112.466 31.0873 112.396 31.078 112.33 31.078C112.265 31.0687 112.2 31.064 112.134 31.064C111.472 31.064 110.944 31.26 110.552 31.652C110.16 32.0347 109.964 32.6087 109.964 33.374V37H108.214ZM117.471 37.098C116.64 37.098 115.912 36.9347 115.287 36.608C114.671 36.272 114.19 35.8147 113.845 35.236C113.509 34.6573 113.341 33.9993 113.341 33.262C113.341 32.5153 113.504 31.8573 113.831 31.288C114.167 30.7093 114.624 30.2567 115.203 29.93C115.791 29.6033 116.458 29.44 117.205 29.44C117.933 29.44 118.581 29.5987 119.151 29.916C119.72 30.2333 120.168 30.6813 120.495 31.26C120.821 31.8387 120.985 32.52 120.985 33.304C120.985 33.3787 120.98 33.4627 120.971 33.556C120.971 33.6493 120.966 33.738 120.957 33.822H114.727V32.66H120.033L119.347 33.024C119.356 32.5947 119.267 32.2167 119.081 31.89C118.894 31.5633 118.637 31.3067 118.311 31.12C117.993 30.9333 117.625 30.84 117.205 30.84C116.775 30.84 116.397 30.9333 116.071 31.12C115.753 31.3067 115.501 31.568 115.315 31.904C115.137 32.2307 115.049 32.618 115.049 33.066V33.346C115.049 33.794 115.151 34.1907 115.357 34.536C115.562 34.8813 115.851 35.1473 116.225 35.334C116.598 35.5207 117.027 35.614 117.513 35.614C117.933 35.614 118.311 35.5487 118.647 35.418C118.983 35.2873 119.281 35.082 119.543 34.802L120.481 35.88C120.145 36.272 119.72 36.5753 119.207 36.79C118.703 36.9953 118.124 37.098 117.471 37.098Z" fill="white"/>
<path d="M56.748 15.3623C56.748 16.5407 56.4209 17.4424 55.7666 18.0674C55.1123 18.6891 54.1699 19 52.9395 19H50.9424V11.8613H53.1494C54.2855 11.8613 55.1693 12.1673 55.8008 12.7793C56.4323 13.3913 56.748 14.2523 56.748 15.3623ZM55.5176 15.4014C55.5176 13.6924 54.7184 12.8379 53.1201 12.8379H52.1094V18.0186H52.9395C54.6582 18.0186 55.5176 17.1462 55.5176 15.4014ZM62.9541 16.29C62.9541 17.1722 62.7279 17.8607 62.2754 18.3555C61.8229 18.8503 61.193 19.0977 60.3857 19.0977C59.8812 19.0977 59.4352 18.9837 59.0479 18.7559C58.6605 18.528 58.3626 18.2008 58.1543 17.7744C57.946 17.348 57.8418 16.8532 57.8418 16.29C57.8418 15.4144 58.0664 14.7308 58.5156 14.2393C58.9648 13.7477 59.598 13.502 60.415 13.502C61.1963 13.502 61.8148 13.7542 62.2705 14.2588C62.7262 14.7601 62.9541 15.4372 62.9541 16.29ZM59.0234 16.29C59.0234 17.5368 59.484 18.1602 60.4053 18.1602C61.3167 18.1602 61.7725 17.5368 61.7725 16.29C61.7725 15.0563 61.3135 14.4395 60.3955 14.4395C59.9137 14.4395 59.5638 14.599 59.3457 14.918C59.1309 15.237 59.0234 15.6943 59.0234 16.29ZM68.7061 19L68.0078 16.4805C67.9232 16.2135 67.7702 15.5934 67.5488 14.6201H67.5049C67.3161 15.499 67.1663 16.1224 67.0557 16.4902L66.3379 19H65.0684L63.5547 13.5996H64.7266L65.415 16.2607C65.5713 16.9183 65.682 17.4814 65.7471 17.9502H65.7764C65.8089 17.7126 65.8577 17.4408 65.9229 17.1348C65.9912 16.8255 66.0498 16.5944 66.0986 16.4414L66.9189 13.5996H68.1787L68.9746 16.4414C69.0234 16.6009 69.0837 16.8451 69.1553 17.1738C69.2301 17.5026 69.2741 17.7581 69.2871 17.9404H69.3262C69.375 17.54 69.4889 16.9801 69.668 16.2607L70.3662 13.5996H71.5186L69.9951 19H68.7061ZM77.2021 19H76.0498V15.6797C76.0498 15.263 75.9652 14.9521 75.7959 14.7471C75.6299 14.542 75.3646 14.4395 75 14.4395C74.515 14.4395 74.1602 14.5827 73.9355 14.8691C73.7109 15.1556 73.5986 15.6357 73.5986 16.3096V19H72.4512V13.5996H73.3496L73.5107 14.3076H73.5693C73.7321 14.0505 73.9632 13.8519 74.2627 13.7119C74.5622 13.5719 74.8942 13.502 75.2588 13.502C76.5544 13.502 77.2021 14.1611 77.2021 15.4795V19ZM79.9463 19H78.7988V11.4023H79.9463V19ZM86.3818 16.29C86.3818 17.1722 86.1556 17.8607 85.7031 18.3555C85.2507 18.8503 84.6208 19.0977 83.8135 19.0977C83.3089 19.0977 82.863 18.9837 82.4756 18.7559C82.0882 18.528 81.7904 18.2008 81.582 17.7744C81.3737 17.348 81.2695 16.8532 81.2695 16.29C81.2695 15.4144 81.4941 14.7308 81.9434 14.2393C82.3926 13.7477 83.0257 13.502 83.8428 13.502C84.624 13.502 85.2425 13.7542 85.6982 14.2588C86.154 14.7601 86.3818 15.4372 86.3818 16.29ZM82.4512 16.29C82.4512 17.5368 82.9118 18.1602 83.833 18.1602C84.7445 18.1602 85.2002 17.5368 85.2002 16.29C85.2002 15.0563 84.7412 14.4395 83.8232 14.4395C83.3415 14.4395 82.9915 14.599 82.7734 14.918C82.5586 15.237 82.4512 15.6943 82.4512 16.29ZM91.084 19L90.8545 18.248H90.8154C90.555 18.5768 90.293 18.8014 90.0293 18.9219C89.7656 19.0391 89.4271 19.0977 89.0137 19.0977C88.4831 19.0977 88.068 18.9544 87.7686 18.668C87.4723 18.3815 87.3242 17.9762 87.3242 17.4521C87.3242 16.8955 87.5309 16.4756 87.9443 16.1924C88.3577 15.9092 88.9876 15.7546 89.834 15.7285L90.7666 15.6992V15.4111C90.7666 15.0661 90.6852 14.8089 90.5225 14.6396C90.363 14.4671 90.1139 14.3809 89.7754 14.3809C89.4987 14.3809 89.2334 14.4215 88.9795 14.5029C88.7256 14.5843 88.4814 14.6803 88.2471 14.791L87.876 13.9707C88.1689 13.8177 88.4896 13.7021 88.8379 13.624C89.1862 13.5426 89.515 13.502 89.8242 13.502C90.5111 13.502 91.0286 13.6517 91.377 13.9512C91.7285 14.2507 91.9043 14.721 91.9043 15.3623V19H91.084ZM89.375 18.2188C89.7917 18.2188 90.1253 18.1032 90.376 17.8721C90.6299 17.6377 90.7568 17.3105 90.7568 16.8906V16.4219L90.0635 16.4512C89.5231 16.4707 89.1292 16.5618 88.8818 16.7246C88.6377 16.8841 88.5156 17.1299 88.5156 17.4619C88.5156 17.7028 88.5872 17.89 88.7305 18.0234C88.8737 18.1536 89.0885 18.2188 89.375 18.2188ZM95.3271 19.0977C94.6533 19.0977 94.1276 18.8535 93.75 18.3652C93.3724 17.877 93.1836 17.1917 93.1836 16.3096C93.1836 15.4242 93.374 14.7357 93.7549 14.2441C94.139 13.7493 94.6696 13.502 95.3467 13.502C96.0563 13.502 96.5967 13.764 96.9678 14.2881H97.0264C96.971 13.9007 96.9434 13.5947 96.9434 13.3701V11.4023H98.0957V19H97.1973L96.9971 18.292H96.9434C96.5755 18.8291 96.0368 19.0977 95.3271 19.0977ZM95.6348 18.1699C96.1068 18.1699 96.4502 18.0381 96.665 17.7744C96.8799 17.5075 96.9906 17.0762 96.9971 16.4805V16.3193C96.9971 15.639 96.8864 15.1556 96.665 14.8691C96.4437 14.5827 96.097 14.4395 95.625 14.4395C95.2214 14.4395 94.9105 14.6038 94.6924 14.9326C94.4743 15.2581 94.3652 15.7236 94.3652 16.3291C94.3652 16.9281 94.471 17.3854 94.6826 17.7012C94.8942 18.0137 95.2116 18.1699 95.6348 18.1699ZM107.124 16.29C107.124 17.1722 106.898 17.8607 106.445 18.3555C105.993 18.8503 105.363 19.0977 104.556 19.0977C104.051 19.0977 103.605 18.9837 103.218 18.7559C102.83 18.528 102.533 18.2008 102.324 17.7744C102.116 17.348 102.012 16.8532 102.012 16.29C102.012 15.4144 102.236 14.7308 102.686 14.2393C103.135 13.7477 103.768 13.502 104.585 13.502C105.366 13.502 105.985 13.7542 106.44 14.2588C106.896 14.7601 107.124 15.4372 107.124 16.29ZM103.193 16.29C103.193 17.5368 103.654 18.1602 104.575 18.1602C105.487 18.1602 105.942 17.5368 105.942 16.29C105.942 15.0563 105.483 14.4395 104.565 14.4395C104.084 14.4395 103.734 14.599 103.516 14.918C103.301 15.237 103.193 15.6943 103.193 16.29ZM113.198 19H112.046V15.6797C112.046 15.263 111.961 14.9521 111.792 14.7471C111.626 14.542 111.361 14.4395 110.996 14.4395C110.511 14.4395 110.156 14.5827 109.932 14.8691C109.707 15.1556 109.595 15.6357 109.595 16.3096V19H108.447V13.5996H109.346L109.507 14.3076H109.565C109.728 14.0505 109.959 13.8519 110.259 13.7119C110.558 13.5719 110.89 13.502 111.255 13.502C112.55 13.502 113.198 14.1611 113.198 15.4795V19ZM119.404 18.1699C119.684 18.1699 119.964 18.126 120.244 18.0381V18.9023C120.117 18.9577 119.953 19.0033 119.751 19.0391C119.552 19.0781 119.346 19.0977 119.131 19.0977C118.044 19.0977 117.5 18.5247 117.5 17.3789V14.4688H116.763V13.9609L117.554 13.541L117.944 12.3984H118.652V13.5996H120.19V14.4688H118.652V17.3594C118.652 17.6361 118.721 17.8411 118.857 17.9746C118.997 18.1048 119.18 18.1699 119.404 18.1699ZM126.079 19H124.927V15.6797C124.927 15.263 124.842 14.9521 124.673 14.7471C124.507 14.542 124.242 14.4395 123.877 14.4395C123.395 14.4395 123.04 14.5843 122.812 14.874C122.588 15.1605 122.476 15.6423 122.476 16.3193V19H121.328V11.4023H122.476V13.3311C122.476 13.6403 122.456 13.9707 122.417 14.3223H122.49C122.646 14.0618 122.863 13.86 123.14 13.7168C123.42 13.5736 123.745 13.502 124.116 13.502C125.425 13.502 126.079 14.1611 126.079 15.4795V19ZM130.034 19.0977C129.194 19.0977 128.537 18.8535 128.062 18.3652C127.59 17.8737 127.354 17.1982 127.354 16.3389C127.354 15.4567 127.573 14.7633 128.013 14.2588C128.452 13.7542 129.056 13.502 129.824 13.502C130.537 13.502 131.1 13.7184 131.514 14.1514C131.927 14.5843 132.134 15.18 132.134 15.9385V16.5586H128.535C128.551 17.0827 128.693 17.4863 128.96 17.7695C129.227 18.0495 129.603 18.1895 130.088 18.1895C130.407 18.1895 130.703 18.1602 130.977 18.1016C131.253 18.0397 131.549 17.9388 131.865 17.7988V18.7314C131.585 18.8649 131.302 18.9593 131.016 19.0146C130.729 19.07 130.402 19.0977 130.034 19.0977ZM129.824 14.3711C129.46 14.3711 129.167 14.4867 128.945 14.7178C128.727 14.9489 128.597 15.2858 128.555 15.7285H131.006C130.999 15.2826 130.892 14.9456 130.684 14.7178C130.475 14.4867 130.189 14.3711 129.824 14.3711Z" fill="white"/>
<path d="M31.0351 14.1755C32.647 12.0106 34.8879 12 34.8879 12C34.8879 12 35.2212 14.0354 33.6199 15.9961C31.91 18.0897 29.9666 17.7472 29.9666 17.7472C29.9666 17.7472 29.6016 16.1006 31.0351 14.1755ZM30.1716 19.1729C31.0008 19.1729 32.5399 18.0114 34.5432 18.0114C37.9915 18.0114 39.348 20.5117 39.348 20.5117C39.348 20.5117 36.6948 21.894 36.6948 25.2481C36.6948 29.0318 40 30.3357 40 30.3357C40 30.3357 37.6896 36.9623 34.5688 36.9623C33.1355 36.9623 32.0212 35.978 30.5109 35.978C28.9719 35.978 27.4446 36.999 26.4499 36.999C23.6002 36.9991 20 30.7131 20 25.6602C20 20.6889 23.0473 18.081 25.9056 18.081C27.7637 18.081 29.2056 19.1729 30.1716 19.1729Z" fill="white"/>
</svg>
