<svg width="32" height="32" viewBox="0 0 32 32" fill="none" xmlns="http://www.w3.org/2000/svg">
<mask id="mask0_1332_5232" style="mask-type:alpha" maskUnits="userSpaceOnUse" x="0" y="0" width="32" height="32">
<rect width="32" height="32" fill="#D9D9D9"/>
</mask>
<g mask="url(#mask0_1332_5232)">
<path fill-rule="evenodd" clip-rule="evenodd" d="M30.8212 8.49598L30.738 8.11853L30.6253 7.75182L30.4834 7.38493L30.3054 7.01294C30.0726 6.61323 29.8071 6.22951 29.5112 5.86493C29.331 5.64431 29.1393 5.43147 28.9366 5.2271C28.5584 4.87647 28.1609 4.54303 27.7456 4.22803L27.2534 3.88772L27.2003 3.85585C26.5662 3.46256 25.902 3.11188 25.2209 2.78759C24.5749 2.47933 23.8874 2.24008 23.2057 2.00629L22.5301 1.80436L21.961 1.64468L21.8309 1.61281C20.8532 1.3843 19.8694 1.19822 18.8738 1.0653L18.0796 0.980267L17.2854 0.92182L16.4796 0.884493L15.6617 0.868652C14.6837 0.884493 13.706 0.943123 12.7342 1.03343C12.441 1.06509 12.1486 1.10231 11.8571 1.14505C10.8201 1.29381 9.8008 1.52778 8.79933 1.80418C8.56809 1.86791 8.33706 1.93692 8.11171 2.00611C7.77682 2.1197 7.44487 2.24015 7.11612 2.36735C6.81458 2.48126 6.51619 2.60177 6.22123 2.72878C5.65256 2.99037 5.09692 3.27414 4.55589 3.57928C4.07401 3.87694 3.60919 4.19623 3.16321 4.53592C2.78843 4.84465 2.43237 5.17116 2.09656 5.51406C1.86533 5.75859 1.65805 6.01897 1.45645 6.2848L1.21344 6.65679L1.00617 7.01294L0.828527 7.38493L0.686213 7.75182L0.57354 8.11853L0.490506 8.49598L0.448888 8.87871C0.425135 9.26144 0.448888 9.64418 0.490506 10.0214C0.573135 10.3985 0.686035 10.7698 0.828324 11.1323C1.01155 11.5089 1.22135 11.8747 1.45645 12.2273C1.74088 12.5993 2.05515 12.9555 2.38099 13.2956C2.85748 13.7317 3.36631 14.1383 3.90401 14.5128C4.21219 14.7308 4.55001 14.9221 4.88173 15.1082C5.51007 15.4485 6.15586 15.7568 6.81972 16.0437C6.92042 16.0809 7.02111 16.1182 7.11592 16.1554C7.64924 16.3467 8.18256 16.5326 8.72786 16.6976L9.47456 16.8995C10.2095 17.0696 10.9503 17.2131 11.697 17.33C11.7504 17.3407 11.8035 17.346 11.8569 17.3565C12.3133 17.4257 12.7697 17.4842 13.2318 17.5321C14.0436 17.5905 14.8496 17.6331 15.6615 17.6435C16.6392 17.6277 17.6112 17.5692 18.5831 17.4789C19.3356 17.4044 20.0945 17.2662 20.8353 17.1175C21.2085 17.0377 21.5879 16.9529 21.961 16.8624C22.0384 16.8412 22.1212 16.8201 22.1982 16.7986C22.9627 16.602 23.7037 16.3414 24.4267 16.0545C24.8472 15.8862 25.2622 15.7072 25.6713 15.5177C26.1921 15.2469 26.7021 14.9597 27.2003 14.6567L27.2534 14.6248C27.8462 14.2155 28.4092 13.7745 28.9308 13.296C29.2607 12.9537 29.5693 12.5953 29.8551 12.2224C30.1675 11.7622 30.4257 11.2741 30.6255 10.766C30.7321 10.3993 30.8156 10.0326 30.8627 9.6551L30.8864 9.25653L30.8685 8.88454L30.8212 8.49598ZM11.8569 11.7488H9.91307L9.36777 10.8346H4.81068L4.21219 11.7488H1.81782L5.90717 5.50878L5.47454 4.82853H7.89834L11.8571 11.1642L12.2185 11.7488H11.8569ZM18.0438 9.6653C18.0558 11.0791 16.3606 11.8765 14.7251 11.8765C13.623 11.8765 12.4376 11.3661 11.8569 10.638C11.6259 10.3457 11.4895 10.0267 11.4895 9.6866V6.69393H13.4689V9.06462C13.4689 9.86722 14.0377 10.3297 14.7905 10.3297C15.389 10.3297 16.1061 9.92567 16.1061 9.11778V6.69393H18.0438V9.6653ZM21.961 11.8923C19.9226 11.8923 18.2631 10.6806 18.2631 9.19225C18.2631 7.71467 19.8988 6.50275 21.9137 6.48673L20.7107 4.89225H22.9093L24.9715 7.6189C25.4101 8.06008 25.6651 8.60759 25.6651 9.19225C25.6653 10.6804 24.006 11.8923 21.961 11.8923ZM28.1542 11.7275H26.2459V6.68884H28.1542V11.7275Z" fill="#CC2229"/>
<path fill-rule="evenodd" clip-rule="evenodd" d="M7.11603 7.27906L5.74121 9.38918H8.49694L7.15765 7.21533L7.11603 7.27906Z" fill="#CC2229"/>
<path fill-rule="evenodd" clip-rule="evenodd" d="M31.639 8.82516L31.5858 8.39473L31.4967 7.96429L31.3722 7.54423L31.2065 7.12963L31.011 6.71522C30.5963 5.99236 30.1101 5.3651 29.5059 4.74858C29.0905 4.37073 28.6574 4.00898 28.2076 3.66429L27.71 3.32417C27.5439 3.22311 27.3722 3.11678 27.2004 3.02118C26.6314 2.68634 26.0447 2.38864 25.4403 2.10168L24.8118 1.83585L24.154 1.58603L23.4729 1.34696L22.7674 1.13975L22.0444 0.943107C22.0148 0.932547 21.985 0.927084 21.9612 0.921804C20.9767 0.693965 19.9799 0.511224 18.9747 0.37429L18.1567 0.289259L17.3392 0.230811L16.5092 0.188386L15.6618 0.172363C14.5418 0.193485 13.4514 0.262493 12.3431 0.374108L11.8571 0.438018L11.5548 0.480442L10.7785 0.618641C9.78643 0.812677 8.80708 1.05576 7.84493 1.34678C7.60192 1.43181 7.35891 1.52212 7.1161 1.61262C6.69953 1.76797 6.28657 1.93103 5.87751 2.10168C5.27902 2.37808 4.69819 2.68106 4.12934 2.99988C3.61665 3.31562 3.12214 3.65448 2.64773 4.01516C2.22099 4.37131 1.81801 4.73802 1.44466 5.13131L1.10096 5.51932L0.804756 5.91261L0.532107 6.31665L0.306962 6.71522L0.105368 7.12963L-0.0548117 7.54423L-0.185148 7.96429L-0.274069 8.39473L-0.327462 8.82516C-0.351215 9.27162 -0.327462 9.68094 -0.274069 10.1274C-0.185148 10.5526 -0.0548118 10.9671 0.105368 11.3817C0.305249 11.8022 0.538997 12.209 0.804756 12.599C1.11293 13.0083 1.45075 13.3908 1.80623 13.7683C2.3681 14.2774 2.96805 14.7515 3.6019 15.1874C4.53233 15.7615 5.47472 16.2398 6.49995 16.6755C6.70723 16.7553 6.91471 16.8298 7.11631 16.9042C7.58915 17.0696 8.0653 17.2274 8.54452 17.3773L9.26766 17.5739C10.1329 17.7706 10.9864 17.9353 11.8575 18.063C12.2843 18.1269 12.7167 18.1801 13.1554 18.2278C13.991 18.2862 14.8266 18.3288 15.6622 18.3392C16.7696 18.3224 17.8753 18.255 18.9751 18.1375C19.9942 18.0047 20.9778 17.8185 21.9616 17.5794C22.2284 17.5155 22.5012 17.4466 22.7678 17.3775C23.8944 17.0373 24.99 16.6197 26.0451 16.1286C26.4358 15.9259 26.8212 15.715 27.2008 15.496C27.3726 15.395 27.5441 15.2888 27.7104 15.1878C28.3455 14.7532 28.9456 14.279 29.5063 13.7686C29.8636 13.3955 30.1978 13.0052 30.5076 12.5993C30.86 12.0846 31.15 11.5375 31.3728 10.9675C31.4972 10.5489 31.5864 10.1225 31.6396 9.69186L31.6633 9.25596L31.639 8.82516ZM31.2482 9.69168C31.2007 10.0903 31.1117 10.4783 30.9991 10.8663C30.8094 11.3393 30.5843 11.7912 30.3056 12.227C30.122 12.5034 29.9087 12.7637 29.6894 13.019C29.5351 13.1891 29.3812 13.3644 29.2211 13.5292C28.6758 14.0288 28.0949 14.4806 27.4847 14.9059C27.3899 14.9643 27.295 15.0228 27.2004 15.076C26.7632 15.3371 26.3164 15.5853 25.8609 15.8201C25.0489 16.1974 24.2252 16.527 23.372 16.8139C23.1348 16.8937 22.8918 16.9681 22.6488 17.0426C22.4212 17.106 22.192 17.1645 21.9612 17.218C21.1545 17.4155 20.3378 17.5787 19.5139 17.707C19.318 17.7389 19.1224 17.7655 18.9269 17.7922C17.8365 17.9037 16.7579 17.9729 15.6616 17.9889C14.8378 17.9781 14.0142 17.9357 13.1962 17.8773C12.7459 17.8294 12.3013 17.7762 11.8569 17.707C11.2998 17.6273 10.7487 17.5264 10.1977 17.4148C9.99885 17.3773 9.80124 17.3348 9.60508 17.2873C9.17834 17.1917 8.76358 17.0747 8.34881 16.9472C7.93462 16.8151 7.52362 16.675 7.1161 16.5271C6.9679 16.474 6.81381 16.4157 6.65973 16.3571C5.98278 16.0695 5.32217 15.752 4.68032 15.4057C4.33662 15.2089 3.98682 15.0122 3.66098 14.7892C3.10916 14.4006 2.58649 13.9798 2.09634 13.5296C1.75124 13.1741 1.42874 12.8014 1.13039 12.4134C0.882274 12.0419 0.660612 11.6567 0.466735 11.2601C0.318737 10.8721 0.194086 10.4786 0.111255 10.075C0.0637496 9.67092 0.0399966 9.26161 0.057862 8.85247L0.111255 8.44862L0.194288 8.03931L0.312646 7.64601L0.466735 7.258L0.656352 6.86471L0.875609 6.48726L1.13039 6.09924L1.41482 5.72726L1.7703 5.3234C2.12598 4.95141 2.50521 4.61111 2.90231 4.27644C3.36399 3.92596 3.84457 3.59599 4.3423 3.28775C4.89922 2.97864 5.46851 2.68785 6.04905 2.41595C6.40129 2.26763 6.75691 2.12588 7.1157 1.9908C7.40012 1.87918 7.69064 1.77813 7.97506 1.67725C8.18234 1.61353 8.38982 1.55508 8.59731 1.49645C9.66395 1.19875 10.7485 0.949116 11.8567 0.789614C12.1353 0.752288 12.4138 0.715143 12.6923 0.68856C13.682 0.598066 14.6717 0.539618 15.6614 0.523777L16.491 0.53452L17.3089 0.576945L18.1206 0.635392L19.0155 0.730984C19.9993 0.869183 20.9711 1.05509 21.9375 1.2785L21.9608 1.28378L22.6484 1.46986L23.3419 1.67707L24.0117 1.91104C24.4796 2.09167 24.9539 2.26719 25.4042 2.47968C25.6709 2.60732 25.9316 2.73477 26.1866 2.87315C26.5325 3.0489 26.8706 3.23683 27.2 3.43651C27.5337 3.6378 27.8542 3.85604 28.1601 4.09018C28.5265 4.37712 28.8804 4.67674 29.2208 4.98838C29.4164 5.18502 29.6003 5.39241 29.7779 5.59962C30.1068 6.00001 30.4001 6.42301 30.655 6.86471L30.8446 7.258L30.9989 7.64601L31.1174 8.03931L31.2003 8.44862L31.2538 8.85247L31.2772 9.25651L31.2482 9.69168Z" fill="#CC2229"/>
<path fill-rule="evenodd" clip-rule="evenodd" d="M21.9616 7.95361C21.0255 7.95361 20.2668 8.50641 20.2668 9.19212C20.2668 9.87237 21.0253 10.4304 21.9616 10.4304C22.8981 10.4304 23.6568 9.87237 23.6568 9.19212C23.6568 8.50641 22.8983 7.95361 21.9616 7.95361Z" fill="#CC2229"/>
<path fill-rule="evenodd" clip-rule="evenodd" d="M8.97666 29.8023C8.79353 29.5572 8.6443 29.2931 8.53226 29.0157L8.49064 29.021L8.21211 29.0263C8.04071 28.5799 7.95257 28.1111 7.95123 27.639C7.95123 26.9269 8.14674 26.2625 8.49064 25.6831C8.62889 25.4484 8.79162 25.226 8.97666 25.0189C8.98844 25.0028 9.00021 24.9868 9.01808 24.971L9.32017 24.9602L9.46248 24.955L9.56318 24.8647C9.48623 24.7955 9.4032 24.7265 9.32017 24.6573C9.21111 24.5731 9.0964 24.495 8.97666 24.4235C8.82067 24.3295 8.65836 24.2443 8.49064 24.1684C7.9691 23.9399 7.38827 23.8175 6.74816 23.7964H6.51104C4.19971 23.8548 2.33887 25.5556 2.33887 27.639V27.7399C2.34475 27.7665 2.34475 27.7983 2.34475 27.8302V27.8355C2.34475 27.8675 2.35064 27.8994 2.35064 27.9258V27.9365C2.35653 27.9631 2.35653 27.995 2.36262 28.0216V28.0323C2.36851 28.0643 2.36851 28.0907 2.3746 28.1175V28.1333C2.38049 28.1599 2.38049 28.1812 2.38658 28.2078C2.38658 28.2184 2.39246 28.2237 2.39246 28.2344C2.39855 28.2557 2.39855 28.2768 2.40444 28.3036C2.40444 28.3089 2.41033 28.3194 2.41033 28.3302C2.41622 28.3513 2.41622 28.3726 2.42231 28.3884C2.42819 28.4045 2.42819 28.415 2.43428 28.4309C2.43428 28.4469 2.44017 28.4629 2.44626 28.4789C2.44626 28.4948 2.45215 28.5108 2.45804 28.5266C2.45804 28.5374 2.46392 28.5532 2.46981 28.5692C2.4757 28.5851 2.4757 28.6064 2.48179 28.6224C2.48768 28.633 2.48768 28.6435 2.49377 28.6543C2.49966 28.6809 2.51143 28.7022 2.51752 28.7286C2.55305 28.8296 2.58858 28.9201 2.6241 29.0155C3.13976 30.2061 4.29533 31.1151 5.71177 31.3915L5.90747 31.1098C6.10298 31.1417 6.30437 31.163 6.51185 31.1681H6.62453C7.26443 31.1681 7.92829 31.014 8.49125 30.7642C8.63946 30.7003 8.78157 30.626 8.9121 30.5463L8.97727 30.5412L9.32078 30.5199L9.47486 30.5091L9.5579 30.4401C9.47584 30.3665 9.39674 30.2902 9.32078 30.2114C9.19404 30.0835 9.07896 29.9467 8.97666 29.8023ZM8.49064 30.387C8.38995 30.4403 8.28316 30.4933 8.17658 30.5414C8.0166 30.6051 7.85663 30.6635 7.69056 30.7167C7.51272 30.7591 7.34686 30.7964 7.16922 30.823C6.98549 30.8442 6.80765 30.8549 6.62392 30.8602C6.5823 30.8602 6.54677 30.8602 6.51124 30.8549C6.36304 30.8496 6.22093 30.8389 6.07862 30.823C5.9027 30.7963 5.72859 30.7608 5.55707 30.7167C5.38512 30.6635 5.23123 30.6051 5.06516 30.5414C4.91053 30.4705 4.76016 30.3924 4.61467 30.3074C4.47298 30.2181 4.33651 30.1223 4.2058 30.0204C4.08128 29.914 3.96258 29.8023 3.85012 29.6856C3.74418 29.5632 3.64334 29.4374 3.54782 29.3083C3.46061 29.1722 3.38152 29.0319 3.31091 28.8883C3.24741 28.7414 3.19005 28.5925 3.13895 28.4418C3.09883 28.2856 3.06719 28.1277 3.04414 27.9687C3.03217 27.7985 3.02628 27.639 3.03217 27.4691C3.04414 27.3096 3.06769 27.1501 3.10342 26.9908C3.14484 26.8313 3.18625 26.6825 3.24554 26.5336C3.3107 26.3848 3.38176 26.2466 3.46479 26.1032C3.54782 25.9648 3.64263 25.8373 3.74333 25.7099C3.84991 25.5875 3.96259 25.4759 4.08115 25.359C4.21148 25.2527 4.33593 25.1516 4.47216 25.056C4.62036 24.9657 4.75658 24.8807 4.91087 24.8062C5.06689 24.7331 5.22709 24.6675 5.3908 24.6096C5.55702 24.5559 5.7274 24.5133 5.90057 24.4821L6.25605 24.4289C6.33909 24.4237 6.42192 24.4237 6.51084 24.4182H6.80704C6.99077 24.4289 7.16252 24.4501 7.34645 24.4821C7.5184 24.514 7.68427 24.5566 7.85602 24.6096C8.01599 24.668 8.17597 24.7319 8.33006 24.8062C8.38345 24.8328 8.43685 24.8594 8.49024 24.8912L8.52577 24.9073L8.56718 24.9391C8.54343 24.9712 8.51379 25.003 8.49024 25.0347C7.90352 25.7789 7.60712 26.6558 7.60712 27.6392C7.60617 28.5503 7.91417 29.4402 8.49024 30.1907C8.52577 30.2386 8.5613 30.281 8.59682 30.3289C8.56021 30.3464 8.52475 30.3658 8.49064 30.387Z" fill="#D0D1D3"/>
<path fill-rule="evenodd" clip-rule="evenodd" d="M24.6872 23.0996C24.6515 23.0996 24.6157 23.0996 24.5745 23.1049C23.49 23.126 22.494 23.4558 21.6765 23.9976C21.5722 23.9274 21.4655 23.8601 21.3565 23.7959C21.0903 23.6459 20.8085 23.5195 20.515 23.4184C19.946 23.2112 19.3176 23.0996 18.6662 23.0996C18.6304 23.0996 18.5888 23.0996 18.5535 23.1049C17.5117 23.1236 16.5026 23.434 15.6672 23.9925C15.5633 23.9233 15.4565 23.8578 15.3471 23.7959C15.2326 23.7324 15.116 23.6721 14.9975 23.6151C14.836 23.5392 14.6698 23.4718 14.4997 23.4132C13.9149 23.2054 13.2914 23.099 12.6624 23.0996C12.6269 23.0996 12.5854 23.0996 12.5499 23.1049C12.3603 23.1049 12.1766 23.1207 11.9928 23.142C11.1215 23.2431 10.3157 23.5514 9.64009 24.0031C9.53675 23.9316 9.42993 23.8642 9.31993 23.8012C9.20873 23.7377 9.09408 23.6792 8.97643 23.6258C8.25172 23.2811 7.44401 23.1005 6.62368 23.0998C6.58206 23.0998 6.54653 23.0998 6.51101 23.1051C3.77314 23.1582 1.5625 25.1726 1.5625 27.6387C1.5625 30.0997 3.77293 32.114 6.51101 32.1725H6.62368C7.28145 32.1725 7.90958 32.0554 8.49041 31.8484C8.65613 31.7905 8.81836 31.7248 8.97643 31.6517C9.0929 31.5946 9.20745 31.5343 9.31993 31.4711C9.4326 31.4072 9.53919 31.3382 9.64009 31.269C10.3157 31.7207 11.1215 32.0292 11.9928 32.13C12.1766 32.1566 12.3603 32.1672 12.5499 32.1725H12.6624C13.2914 32.1733 13.915 32.0668 14.4997 31.8587C14.6714 31.8005 14.8375 31.7313 14.9975 31.6568C15.1172 31.6037 15.2339 31.5452 15.3471 31.4815C15.4538 31.4177 15.5604 31.3487 15.6672 31.2797C16.4793 31.8218 17.4745 32.1513 18.5535 32.1725H18.6662C19.3176 32.1725 19.9462 32.061 20.515 31.8587C20.8076 31.7537 21.0892 31.6256 21.3565 31.476C21.4631 31.4123 21.5758 31.3486 21.6765 31.2741C22.494 31.8216 23.4902 32.1512 24.5745 32.1725H24.6872C27.4724 32.1725 29.748 30.1368 29.748 27.6387C29.748 25.1405 27.4724 23.0996 24.6872 23.0996ZM29.102 27.6387C29.102 29.818 27.1167 31.5933 24.6872 31.5933H24.5747C24.539 31.5933 24.5033 31.588 24.4681 31.588H24.4562C24.4265 31.588 24.3908 31.5827 24.3555 31.5827H24.3435C24.3139 31.5774 24.2781 31.5774 24.2487 31.5722H24.2308C24.2012 31.5667 24.1713 31.5667 24.1419 31.5612H24.1181C24.0885 31.5561 24.0587 31.5507 24.0353 31.5507C24.0229 31.5454 24.0175 31.5454 24.0057 31.5454C23.9819 31.5401 23.9521 31.5401 23.9287 31.5346C23.9168 31.5294 23.905 31.5294 23.893 31.5294C23.8693 31.5241 23.8456 31.5188 23.8219 31.5135C23.8096 31.5135 23.7982 31.5135 23.7862 31.5082C23.7566 31.503 23.7326 31.4975 23.7034 31.4922C22.921 31.3327 22.2394 31.0139 21.6765 30.5303L21.6645 30.5195C21.6113 30.5727 21.4988 30.663 21.3563 30.7641C21.2968 30.8065 21.2378 30.8491 21.1728 30.8915C20.9644 31.0196 20.7444 31.1316 20.515 31.2264C19.9358 31.4677 19.3048 31.5929 18.6662 31.5933H18.5535H18.5476C18.5119 31.5933 18.4761 31.588 18.4406 31.588H18.4351C18.3994 31.588 18.3698 31.5827 18.334 31.5827H18.3225C18.2928 31.5774 18.2571 31.5774 18.2218 31.5722H18.2039C18.1743 31.5667 18.1444 31.5667 18.1148 31.5612H18.0973C18.0677 31.5561 18.0378 31.5507 18.0082 31.5507C18.0027 31.5454 17.9907 31.5454 17.9848 31.5454C17.9552 31.5401 17.9312 31.5401 17.9016 31.5346C17.89 31.5294 17.8841 31.5294 17.8722 31.5294C17.8484 31.5241 17.8186 31.5188 17.7948 31.5135C17.7832 31.5135 17.7715 31.5135 17.7595 31.5082C17.7357 31.503 17.7059 31.4975 17.6821 31.4922C17.1293 31.3773 16.6062 31.1679 16.1417 30.8755C15.9815 30.7586 15.8331 30.6523 15.6733 30.5303C15.5549 30.6206 15.4482 30.7004 15.3475 30.7748C15.2823 30.8172 15.223 30.8599 15.1637 30.897C15.1103 30.929 15.0511 30.9609 14.9979 30.9926C14.8385 31.0828 14.6721 31.1627 14.5001 31.2317C13.943 31.4655 13.3206 31.5931 12.6628 31.5931H12.5503C12.5148 31.5931 12.4793 31.5878 12.4435 31.5878H12.4318C12.4021 31.5878 12.3666 31.5825 12.3309 31.5825H12.3191C12.2894 31.5772 12.2539 31.5772 12.2243 31.572H12.2066C12.177 31.5665 12.1473 31.5665 12.1118 31.561H12.0939C12.0643 31.5559 12.0347 31.5505 12.005 31.5505C12.005 31.5505 11.9989 31.5452 11.993 31.5452H11.9811C11.9573 31.5399 11.9277 31.5399 11.898 31.5345C11.8921 31.5292 11.8804 31.5292 11.8684 31.5292C11.8446 31.5239 11.8209 31.5186 11.7912 31.5133C11.7795 31.5133 11.7675 31.5133 11.7616 31.5081C11.732 31.5028 11.7082 31.4973 11.6786 31.492C10.9022 31.3325 10.2028 30.9871 9.63988 30.5141V30.5088C9.54507 30.5831 9.50955 30.6204 9.31973 30.7586C9.27242 30.7907 9.21314 30.8331 9.136 30.8808C9.0826 30.9181 9.02941 30.95 8.97602 30.9818C8.81584 31.0671 8.65587 31.1466 8.49 31.2211C7.90576 31.4665 7.26842 31.5935 6.62327 31.5931H6.50471C6.46918 31.5931 6.43345 31.5878 6.39793 31.5878H6.39204C6.35631 31.5878 6.32078 31.5825 6.28546 31.5825H6.27937C6.24384 31.5772 6.2142 31.5772 6.17867 31.572H6.16101C6.13137 31.5665 6.10173 31.5665 6.07209 31.561H6.04833C6.0212 31.5547 5.99334 31.5511 5.9653 31.5505C5.95332 31.5452 5.94764 31.5452 5.94155 31.5452C5.91191 31.5399 5.88227 31.5399 5.85851 31.5345C5.84674 31.5292 5.83476 31.5292 5.82887 31.5292C5.80308 31.5245 5.77742 31.5192 5.75193 31.5133C5.73995 31.5133 5.72818 31.5133 5.7164 31.5081C5.69265 31.5028 5.66301 31.4973 5.63926 31.492C4.18749 31.1943 3.00208 30.2484 2.48663 29.015L2.17256 29.0258C1.99631 28.5803 1.9061 28.1112 1.9058 27.6385C1.9058 25.3425 3.96214 23.4663 6.5106 23.413H6.57577L6.70631 23.6788C7.35819 23.6896 7.95079 23.817 8.4902 24.0402C8.65607 24.1092 8.81605 24.1837 8.97622 24.274C9.09458 24.3379 9.20726 24.4122 9.31973 24.4865C9.4324 24.5663 9.53898 24.646 9.63988 24.7365C9.65596 24.7421 9.6702 24.7513 9.6813 24.7631L9.74647 24.7152L9.75844 24.3219C10.4517 23.8702 11.1806 23.5619 11.9926 23.4556C12.1764 23.429 12.3601 23.4183 12.5497 23.413H12.6149L12.7452 23.6788C13.3851 23.6896 13.9718 23.8115 14.4995 24.0242C14.6712 24.0934 14.8373 24.173 14.9973 24.2633C15.0565 24.2951 15.1158 24.3325 15.1751 24.3643C15.1751 24.3696 15.1692 24.3696 15.1692 24.3696C15.1751 24.3696 15.1751 24.3696 15.1869 24.3749C15.2403 24.4068 15.2935 24.4441 15.3469 24.476C15.3765 24.4971 15.4061 24.5238 15.4417 24.545C15.4476 24.5502 15.4536 24.5559 15.4475 24.561C15.4475 24.5559 15.4534 24.5559 15.4534 24.5559C15.5482 24.6196 15.6372 24.6939 15.72 24.7631L15.8091 24.6992C15.8386 24.6726 15.7795 24.3059 15.8091 24.2848C16.5956 23.7373 17.5578 23.4317 18.5531 23.413H18.618L18.7486 23.6788C19.3946 23.6896 19.9874 23.817 20.5146 24.0297C20.8167 24.152 21.095 24.3061 21.3561 24.4814C21.4627 24.5612 21.5754 24.6409 21.6761 24.7259C21.6939 24.7418 21.7057 24.7525 21.7236 24.7631L21.7946 24.6833L21.8125 24.2953C22.6033 23.7423 23.5718 23.4329 24.5743 23.413H24.6393L24.7698 23.6788C26.5832 23.7107 28.1299 24.7259 28.7757 26.1558C28.7877 26.1824 28.7995 26.2037 28.8115 26.2301C28.8115 26.2354 28.8173 26.2409 28.8173 26.2409C28.8293 26.2674 28.8352 26.294 28.847 26.3153C28.847 26.3204 28.8529 26.3312 28.8529 26.3364C28.8644 26.3577 28.8703 26.3789 28.8823 26.4056C28.8823 26.4107 28.8882 26.4215 28.8882 26.4268C28.8941 26.4481 28.9061 26.4692 28.912 26.4907C28.9178 26.5014 28.9178 26.5173 28.9239 26.5331L28.9418 26.581C28.9477 26.597 28.9477 26.613 28.9538 26.6234C28.9604 26.6387 28.9643 26.6549 28.9653 26.6713C28.9712 26.6924 28.9773 26.7086 28.9832 26.7245C28.9832 26.7352 28.9891 26.751 28.9891 26.7669C28.995 26.7829 29.0011 26.8042 29.007 26.8253C29.007 26.8359 29.0128 26.8466 29.0128 26.8572L29.0307 26.9211C29.0307 26.9318 29.0307 26.9424 29.0366 26.953C29.0366 26.9743 29.0425 27.001 29.0486 27.0222V27.0487C29.0545 27.07 29.0606 27.0968 29.0606 27.1232C29.0664 27.1285 29.0664 27.1392 29.0664 27.1443C29.0719 27.1709 29.0719 27.1977 29.078 27.2241V27.2399C29.0839 27.2665 29.0839 27.2986 29.09 27.3251V27.3359C29.09 27.3677 29.09 27.3996 29.0959 27.4315V27.4366C29.0959 27.4686 29.0959 27.5005 29.1018 27.5323V27.5374L29.102 27.6387Z" fill="#D0D1D3"/>
<path fill-rule="evenodd" clip-rule="evenodd" d="M24.8181 23.7964H24.5753C23.4492 23.823 22.4298 24.2428 21.6772 24.9125C21.5645 25.0137 21.4577 25.1202 21.3573 25.2314C20.9604 25.6778 20.6638 26.1987 20.5158 26.7728C20.4438 27.0571 20.408 27.3477 20.4092 27.6392V27.7401C20.4092 27.7666 20.4092 27.7985 20.4151 27.8304V27.8356C20.4151 27.8677 20.4151 27.8996 20.421 27.926V27.9367C20.421 27.9633 20.4265 27.9952 20.4326 28.0217V28.0325C20.4326 28.0645 20.4384 28.0909 20.4384 28.1177C20.4443 28.123 20.4443 28.1283 20.4443 28.1335C20.4502 28.1601 20.4502 28.1814 20.4563 28.208C20.4563 28.2186 20.4563 28.2238 20.4622 28.2346C20.4622 28.2559 20.4681 28.277 20.4742 28.3038C20.4742 28.3091 20.4742 28.3196 20.4801 28.3304C20.4801 28.3515 20.4859 28.3728 20.492 28.3886C20.492 28.4046 20.4979 28.4152 20.4979 28.431L20.5158 28.4791V28.5057C20.5217 28.511 20.5217 28.5163 20.5217 28.5268C20.529 28.5401 20.5329 28.5546 20.5333 28.5694C20.5391 28.5853 20.5452 28.6066 20.5511 28.6226C20.557 28.6332 20.557 28.6437 20.5631 28.6545C20.569 28.681 20.5751 28.7023 20.5868 28.7287C20.6165 28.8298 20.6518 28.9203 20.6934 29.0157C20.8535 29.3868 21.0775 29.733 21.3573 30.0417C21.4521 30.1481 21.5528 30.2491 21.6655 30.3498C21.6655 30.3447 21.6714 30.3392 21.6774 30.3338C21.7071 30.3019 21.7544 30.2384 21.7664 30.2276C21.7723 30.0628 21.82 29.8715 21.8259 29.712L21.9087 29.6377C22.3354 29.0743 22.6022 28.3781 22.6022 27.639C22.6039 27.237 22.5278 26.8377 22.377 26.4591L22.6554 26.2359C22.5248 25.9382 22.3354 25.6512 22.1162 25.3907L22.1519 25.3588C22.1752 25.3375 22.199 25.3217 22.223 25.3004C22.4408 25.564 22.62 25.8516 22.7563 26.1561C22.7683 26.1827 22.78 26.204 22.792 26.2304C22.792 26.2357 22.792 26.2412 22.7979 26.2412C22.8038 26.2678 22.8158 26.2943 22.8273 26.3156C22.8273 26.3207 22.8273 26.3315 22.8336 26.3368C22.8391 26.3581 22.8511 26.3792 22.857 26.406C22.8629 26.4111 22.8629 26.4218 22.8689 26.4271L22.8868 26.491C22.8927 26.5017 22.8988 26.5176 22.9047 26.5334C22.9106 26.5494 22.9106 26.5653 22.9167 26.5813C22.9227 26.5973 22.9286 26.6133 22.9341 26.6237C22.9341 26.6397 22.94 26.6556 22.9465 26.6716C22.952 26.6927 22.952 26.7089 22.9581 26.7248C22.964 26.7355 22.964 26.7514 22.97 26.7672C22.9759 26.7832 22.982 26.8045 22.9879 26.8257C22.9879 26.8362 22.9879 26.847 22.9938 26.8575C22.9997 26.8788 22.9997 26.9001 23.0058 26.9214C23.0058 26.9322 23.0117 26.9427 23.0117 26.9533C23.0176 26.9746 23.0236 27.0014 23.0236 27.0225C23.0295 27.0332 23.0295 27.0385 23.0295 27.0491C23.0354 27.0704 23.0354 27.0971 23.0415 27.1235C23.0415 27.1288 23.0415 27.1396 23.0474 27.1447C23.0474 27.1712 23.0529 27.198 23.0529 27.2244C23.0529 27.2297 23.0592 27.2351 23.0592 27.2402C23.0592 27.2668 23.0647 27.2989 23.0647 27.3255V27.3362C23.0705 27.3681 23.0705 27.3999 23.0705 27.4318V27.4369C23.0764 27.4689 23.0764 27.5008 23.0764 27.5327V27.6388C23.0764 28.5106 22.7624 29.3185 22.2232 29.9722C22.0396 30.1581 21.915 30.3283 21.8025 30.4347C22.3596 30.913 22.9995 31.2371 23.7819 31.3913L23.9774 31.1096C24.1729 31.1415 24.3743 31.1628 24.5761 31.1679H24.6888C26.8578 31.1679 28.6297 29.5842 28.6297 27.6386C28.6297 27.2242 28.5465 26.8255 28.4046 26.4588L28.677 26.2355C28.0659 24.8433 26.5722 23.8441 24.8181 23.7964ZM22.1872 26.9908C22.2167 27.1501 22.2404 27.3096 22.2583 27.4691C22.2583 27.6392 22.2583 27.7987 22.2404 27.9687C22.2175 28.1277 22.1858 28.2856 22.1456 28.4418C22.0992 28.5932 22.0438 28.7422 21.9795 28.8883C21.9046 29.031 21.8235 29.1711 21.7365 29.3083C21.719 29.3361 21.6993 29.3628 21.6774 29.3881C21.6596 29.3615 21.6358 29.3349 21.6184 29.3083C21.531 29.1722 21.4519 29.032 21.3812 28.8883C21.3693 28.8722 21.3634 28.8511 21.3575 28.8351C21.3001 28.7065 21.2506 28.5752 21.2093 28.4418C21.1693 28.2856 21.1376 28.1277 21.1145 27.9687C21.1025 27.7985 21.0966 27.639 21.1025 27.4691C21.1145 27.3096 21.1382 27.1501 21.1679 26.9908C21.2091 26.8313 21.2568 26.6825 21.3159 26.5336C21.3279 26.5017 21.3396 26.4697 21.3575 26.4433C21.4086 26.3275 21.4659 26.214 21.5292 26.1032C21.5768 26.0287 21.6299 25.9597 21.6774 25.8905C21.731 25.9597 21.7781 26.0287 21.8256 26.1032C21.9085 26.2466 21.9736 26.3848 22.039 26.5336C22.0979 26.6825 22.1456 26.8313 22.1872 26.9908ZM28.2673 27.9687C28.2442 28.1277 28.2125 28.2856 28.1725 28.4418C28.1214 28.5925 28.064 28.7414 28.0004 28.8883C27.9293 29.0317 27.8524 29.1701 27.7637 29.3083C27.6684 29.4358 27.5677 29.5634 27.4612 29.6856C27.3487 29.8022 27.2302 29.9139 27.1059 30.0204C26.975 30.1223 26.8384 30.2181 26.6966 30.3074C26.5486 30.3924 26.4004 30.4722 26.2461 30.5414C26.0805 30.6051 25.9262 30.6635 25.7544 30.7167C25.5846 30.7602 25.4125 30.7957 25.2385 30.823C25.0489 30.8442 24.8774 30.8549 24.6878 30.8602C24.652 30.8602 24.6163 30.8602 24.5751 30.8549C24.4305 30.8493 24.2862 30.8387 24.1425 30.823C23.9644 30.7964 23.7988 30.7591 23.6207 30.7167C23.4564 30.6637 23.2943 30.6052 23.1349 30.5414C22.9953 30.4774 22.8587 30.4081 22.7256 30.3338C23.3736 29.5557 23.7229 28.6102 23.7212 27.639C23.7212 26.6133 23.3718 25.6937 22.7374 24.9389C22.8147 24.8911 22.8976 24.8486 22.9804 24.8062C23.135 24.7342 23.2933 24.6685 23.4546 24.6096C23.6213 24.5573 23.7915 24.5147 23.9642 24.4821L24.3258 24.4289C24.4086 24.4237 24.4914 24.4237 24.5749 24.4182H24.877C25.0546 24.4289 25.2327 24.4501 25.4103 24.4821C25.5834 24.5134 25.7537 24.556 25.9199 24.6096C26.0859 24.668 26.2398 24.7319 26.4 24.8062C26.5539 24.8807 26.6962 24.9657 26.8385 25.056C26.9749 25.1516 27.099 25.2527 27.2295 25.359C27.3481 25.4759 27.4608 25.5875 27.5673 25.7099C27.668 25.8373 27.7632 25.9648 27.8461 26.1032C27.9289 26.2466 28 26.3848 28.0653 26.5336C28.1244 26.6824 28.1719 26.8313 28.2072 26.9908C28.243 27.1501 28.2667 27.3096 28.2787 27.4691C28.2852 27.6392 28.2793 27.7987 28.2673 27.9687Z" fill="#D0D1D3"/>
<path fill-rule="evenodd" clip-rule="evenodd" d="M20.5565 29.0151L20.5153 29.0204L20.2365 29.0257C20.0654 28.5792 19.9774 28.1105 19.9761 27.6384C19.9761 26.9316 20.1716 26.2619 20.5153 25.6717C20.6555 25.4382 20.818 25.2159 21.0011 25.0075L21.3568 24.9596L21.5285 24.933L21.6118 24.8639C21.5285 24.7894 21.4457 24.7204 21.3568 24.6512C21.0959 24.4545 20.8176 24.2898 20.5153 24.1621C19.9994 23.9389 19.4249 23.8167 18.7905 23.7954H18.5537C17.2555 23.8273 16.106 24.3801 15.3475 25.2253C15.2172 25.3633 15.1047 25.5122 14.9979 25.6663C14.7708 26.0065 14.603 26.3757 14.5001 26.7613C14.4262 27.0489 14.3884 27.3431 14.3875 27.6382C14.3875 27.6703 14.3933 27.7021 14.3933 27.7338V27.8347C14.3992 27.8667 14.3992 27.8986 14.4053 27.925V27.9357C14.4053 27.9623 14.4112 27.9942 14.4112 28.0208V28.0315C14.4171 28.0635 14.4171 28.0899 14.4232 28.1167V28.1326C14.4291 28.1591 14.4352 28.1804 14.4352 28.207C14.441 28.2176 14.441 28.2229 14.441 28.2336C14.4469 28.2549 14.4528 28.276 14.4528 28.3028C14.4587 28.3081 14.4587 28.3186 14.4587 28.3294C14.4646 28.3505 14.4705 28.3718 14.4705 28.3876C14.4764 28.4037 14.4764 28.4142 14.4825 28.4301C14.4886 28.4459 14.4883 28.4621 14.4944 28.4781C14.5003 28.4887 14.5003 28.4993 14.5003 28.51C14.5062 28.5151 14.5062 28.5207 14.5062 28.5258C14.5121 28.5366 14.5121 28.5524 14.5182 28.5685C14.5241 28.5843 14.53 28.6056 14.5359 28.6216C14.5359 28.6322 14.5417 28.6427 14.5417 28.6535C14.5537 28.6801 14.5596 28.7014 14.5655 28.7278C14.601 28.8288 14.6366 28.9193 14.6782 29.0147C14.7655 29.2193 14.8726 29.4167 14.9981 29.6047C15.1038 29.7601 15.2206 29.9092 15.3477 30.0511C15.4366 30.1522 15.5375 30.248 15.6382 30.3435C15.6679 30.3222 15.7389 30.2796 15.7509 30.2691C15.7566 30.1096 15.7925 29.9237 15.7984 29.7587L15.8932 29.6524C16.3258 29.0837 16.5983 28.382 16.6042 27.638C16.6032 27.2362 16.5271 26.8374 16.379 26.4581L16.6519 26.2349C16.5213 25.9372 16.326 25.645 16.1066 25.3844L16.1362 25.3578C16.1596 25.3365 16.1894 25.3154 16.2132 25.2939C16.4349 25.5581 16.6163 25.8477 16.7524 26.155C16.7644 26.1816 16.7761 26.2029 16.7881 26.2293C16.7881 26.2346 16.7881 26.24 16.794 26.24C16.7999 26.2666 16.806 26.2932 16.8173 26.3145C16.8173 26.3196 16.8232 26.3303 16.8232 26.3356C16.8352 26.3569 16.8411 26.378 16.847 26.4048C16.8529 26.4099 16.8529 26.4206 16.859 26.4259C16.8648 26.4472 16.8709 26.4683 16.8827 26.4898C16.8827 26.5006 16.8886 26.5164 16.8947 26.5323C16.9006 26.5483 16.9063 26.5641 16.9126 26.5801C16.9127 26.5949 16.9167 26.6094 16.9241 26.6226C16.93 26.6386 16.93 26.6544 16.9361 26.6705C16.942 26.6916 16.9481 26.7078 16.9481 26.7236C16.9555 26.7368 16.9596 26.7513 16.9601 26.766C16.966 26.7821 16.972 26.8034 16.9779 26.8245C16.9779 26.8351 16.9838 26.8458 16.9838 26.8564C16.9897 26.8777 16.9958 26.899 16.9958 26.9203C17.0006 26.9303 17.0026 26.9412 17.0017 26.9521C17.0076 26.9734 17.0137 27.0002 17.0195 27.0213V27.0479C17.0254 27.0692 17.0311 27.096 17.0311 27.1224C17.0311 27.1277 17.037 27.1384 17.037 27.1435C17.037 27.1701 17.0429 27.1968 17.049 27.2232V27.2391C17.049 27.2657 17.0549 27.2977 17.0549 27.3243V27.335C17.0608 27.3669 17.0608 27.3988 17.0669 27.4306V27.5366C17.0727 27.5687 17.0727 27.6005 17.0727 27.6377C17.0727 28.5146 16.7528 29.3226 16.2136 29.9818C16.0534 30.1518 16.107 30.12 15.7868 30.4229C16.3441 30.9013 16.972 31.2361 17.7545 31.3901L17.9559 31.1085C18.1514 31.1403 18.3469 31.1616 18.5545 31.1667H18.6672C19.3366 31.1667 19.9651 31.0182 20.5161 30.7523C20.6109 30.7099 20.6937 30.662 20.7824 30.6141L20.901 30.5557L21.3574 30.5346L21.4402 30.5293C21.4938 30.4814 21.5117 30.4708 21.5647 30.4229C21.4936 30.359 21.4223 30.29 21.3574 30.221C21.0099 29.8667 20.7384 29.4579 20.5565 29.0151ZM16.1829 26.9902C16.2187 27.1495 16.2365 27.309 16.2544 27.4685C16.2603 27.6386 16.2544 27.7981 16.2365 27.9681C16.2187 28.1275 16.1829 28.2817 16.1417 28.4412C16.0953 28.5926 16.0399 28.7416 15.9756 28.8876C15.9046 29.0311 15.8276 29.1695 15.7387 29.3077C15.715 29.3343 15.6914 29.3661 15.6677 29.398C15.6452 29.3683 15.6235 29.3382 15.6025 29.3077C15.5157 29.1704 15.4346 29.0303 15.3595 28.8876C15.3536 28.8771 15.3536 28.8611 15.3475 28.8505C15.2882 28.7166 15.2367 28.58 15.1934 28.4412C15.1533 28.285 15.1217 28.1271 15.0986 27.9681C15.0807 27.7979 15.0807 27.6384 15.0807 27.4685C15.0986 27.309 15.1163 27.1495 15.152 26.9902C15.1934 26.8307 15.2409 26.6819 15.2941 26.533C15.312 26.4958 15.3296 26.4585 15.3475 26.4266C15.395 26.3152 15.4543 26.2089 15.5136 26.1025C15.5609 26.0228 15.6143 25.9483 15.6677 25.8739C15.7209 25.9483 15.7745 26.0228 15.8216 26.1025C15.9048 26.246 15.9758 26.3842 16.0412 26.533C16.0942 26.6819 16.1417 26.8307 16.1829 26.9902ZM20.5153 30.3918C20.4205 30.445 20.3253 30.4929 20.2187 30.5407C20.0592 30.6047 19.8972 30.6631 19.7329 30.7161C19.5607 30.7585 19.3891 30.7958 19.2115 30.8224C19.0276 30.8435 18.8499 30.8543 18.6662 30.8596C18.6305 30.8596 18.5889 30.8596 18.5535 30.8543C18.4088 30.8489 18.2643 30.8383 18.1205 30.8224C17.9448 30.7951 17.7708 30.7596 17.5992 30.7161C17.4348 30.6631 17.2728 30.6046 17.1133 30.5407C16.9783 30.4808 16.8476 30.4134 16.7219 30.3388C17.3444 29.5839 17.7175 28.6486 17.7175 27.6386C17.7175 26.6076 17.3618 25.6879 16.7278 24.9334C16.7992 24.8859 16.8745 24.8432 16.953 24.8058C17.109 24.7327 17.2693 24.6671 17.4331 24.6091C17.5997 24.5569 17.7699 24.5143 17.9427 24.4817L18.2983 24.4285C18.3873 24.4232 18.4701 24.4232 18.5533 24.4178H18.8495C19.0331 24.4285 19.2048 24.4496 19.3887 24.4817C19.5605 24.5135 19.7266 24.5561 19.8983 24.6091C20.0606 24.6661 20.219 24.7317 20.3726 24.8058C20.4257 24.8271 20.4732 24.8537 20.5149 24.8802C20.5323 24.8908 20.5502 24.8961 20.5681 24.9068L20.6275 24.9228C20.5918 24.9707 20.5502 25.0132 20.5149 25.061C19.9458 25.7945 19.6317 26.6715 19.6317 27.6388C19.6306 28.5515 19.9386 29.443 20.5149 30.1953C20.5561 30.2434 20.5918 30.2858 20.6275 30.3335C20.5922 30.356 20.5546 30.3755 20.5153 30.3918Z" fill="#D0D1D3"/>
<path fill-rule="evenodd" clip-rule="evenodd" d="M15.3475 30.2224L15.1995 30.0736C15.1282 29.9938 15.0633 29.9088 14.9979 29.8238C14.8119 29.5709 14.6588 29.2998 14.5415 29.0157L14.5001 29.021L14.2216 29.0263C14.0473 28.5805 13.959 28.1114 13.9607 27.639C13.9607 26.9216 14.1562 26.2572 14.5001 25.6724C14.6422 25.4386 14.8083 25.2153 14.992 25.0081H14.9979L15.3475 24.9602L15.5253 24.9337L15.6084 24.8645C15.5243 24.7891 15.4373 24.7164 15.3475 24.6465C15.2364 24.5623 15.1196 24.4842 14.9979 24.4127C14.8403 24.3153 14.6737 24.23 14.5001 24.1576C13.9903 23.9344 13.4156 23.8175 12.7934 23.7964H12.5503C12.3637 23.8014 12.1776 23.8173 11.9933 23.8441C11.0866 23.9717 10.2686 24.3597 9.64052 24.9178C9.52908 25.022 9.42228 25.1301 9.32036 25.2419C9.19591 25.3854 9.07735 25.5343 8.97686 25.6937C8.75151 26.0285 8.59154 26.3954 8.49084 26.7832C8.41885 27.0638 8.38302 27.3509 8.38405 27.6388V27.7397C8.38405 27.7663 8.38406 27.7981 8.39015 27.83V27.8353C8.39015 27.8673 8.39015 27.8992 8.39603 27.9256V27.9363C8.39603 27.9629 8.40192 27.9948 8.40192 28.0214C8.40192 28.0267 8.40192 28.0321 8.40781 28.0321C8.40781 28.0642 8.4137 28.0906 8.4137 28.1173C8.4137 28.1226 8.41958 28.1279 8.41958 28.1332C8.41958 28.1598 8.42547 28.1811 8.43156 28.2076V28.2342C8.43745 28.2555 8.44334 28.2766 8.44922 28.3034C8.44922 28.3087 8.44922 28.3193 8.45511 28.33C8.45511 28.3511 8.461 28.3724 8.46709 28.3883C8.46709 28.4043 8.47298 28.4148 8.47298 28.4307C8.47886 28.4467 8.48475 28.4627 8.48475 28.4788C8.48475 28.4839 8.49064 28.4893 8.49064 28.4893C8.49064 28.5001 8.49653 28.5106 8.49653 28.5265C8.50395 28.5397 8.50804 28.5542 8.5085 28.5691C8.51439 28.5849 8.52048 28.6062 8.52637 28.6222C8.53226 28.6328 8.53226 28.6434 8.53814 28.6541C8.54403 28.6807 8.55012 28.702 8.55581 28.7284H8.56169C8.59095 28.8258 8.62654 28.9216 8.66828 29.0153C8.75424 29.2136 8.85735 29.4056 8.97666 29.5894C9.07817 29.7459 9.19301 29.8951 9.32016 30.0357C9.42052 30.1471 9.52739 30.2535 9.64032 30.3547C9.6462 30.3547 9.6462 30.36 9.65209 30.36C9.67584 30.3813 9.69371 30.2961 9.71726 30.3121L9.7469 29.7857C9.78852 29.7167 9.81207 29.6796 9.85348 29.6424C10.3055 29.0522 10.5511 28.3545 10.5588 27.6385C10.5588 27.224 10.4818 26.8253 10.3336 26.4586L10.6063 26.2353C10.4818 25.9431 10.2922 25.6614 10.0788 25.4009C10.0965 25.3901 10.1085 25.3743 10.1261 25.3585C10.144 25.3424 10.1678 25.3264 10.1854 25.3106C10.4 25.5714 10.5771 25.8554 10.7128 26.1558C10.7248 26.1824 10.7307 26.2037 10.7425 26.2301C10.7484 26.2353 10.7484 26.2408 10.7484 26.2408C10.7604 26.2674 10.7721 26.294 10.778 26.3153C10.7839 26.3204 10.7839 26.3311 10.7839 26.3364C10.7959 26.3577 10.8016 26.3788 10.8135 26.4056C10.8135 26.4107 10.8194 26.4214 10.8194 26.4267C10.8312 26.448 10.8371 26.4691 10.8432 26.4906C10.8505 26.5038 10.8545 26.5183 10.855 26.533L10.8728 26.5809C10.8787 26.597 10.8848 26.613 10.8848 26.6234L10.9025 26.6712C10.903 26.6894 10.9069 26.7074 10.9142 26.7244C10.9201 26.7352 10.9201 26.751 10.9262 26.7668C10.9321 26.7829 10.9321 26.8042 10.9382 26.8253C10.9441 26.8358 10.9441 26.8466 10.9441 26.8572L10.9617 26.9211C10.9617 26.9318 10.9676 26.9424 10.9676 26.9529C10.9735 26.9742 10.9735 27.001 10.9796 27.0221C10.9796 27.0329 10.9855 27.0381 10.9855 27.0487C10.9855 27.07 10.9914 27.0968 10.9975 27.1232V27.1443C11.0034 27.1709 11.0034 27.1976 11.0093 27.224V27.2399C11.0151 27.2665 11.0151 27.2985 11.021 27.3251V27.3358C11.021 27.3677 11.0269 27.3996 11.0269 27.4314V27.4365C11.0269 27.4686 11.0328 27.5004 11.0328 27.5323V27.6385C11.0328 28.505 10.7187 29.3127 10.1854 29.9665C10.0195 30.1632 9.88921 30.3174 9.7469 30.4449C10.3086 30.9177 11.003 31.2447 11.7559 31.3909L11.9514 31.1093C11.9647 31.1136 11.9788 31.1154 11.9929 31.1145C12.1766 31.1464 12.3603 31.1624 12.5499 31.1675H12.6624C13.3263 31.1675 13.9544 31.019 14.4997 30.7584C14.5708 30.7265 14.6359 30.6892 14.7011 30.6573L14.867 30.5617L14.9973 30.551L15.3469 30.5244L15.412 30.5191C15.4654 30.466 15.4831 30.4713 15.5424 30.4235L15.5069 30.3915L15.3475 30.2224ZM10.1442 26.9908C10.1738 27.1501 10.1976 27.3096 10.2094 27.4691C10.2153 27.6392 10.2094 27.7987 10.1976 27.9687C10.1745 28.1277 10.1429 28.2856 10.1028 28.4418C10.0555 28.596 9.9962 28.7395 9.93083 28.8883C9.85978 29.0317 9.78283 29.1701 9.69391 29.3083C9.67625 29.3294 9.65838 29.3507 9.64052 29.3773C9.62825 29.3525 9.61227 29.3293 9.59301 29.3083C9.5058 29.1722 9.42671 29.0319 9.35609 28.8883L9.32057 28.8085C9.26885 28.6882 9.22339 28.5659 9.18434 28.4418C9.14403 28.2856 9.11238 28.1277 9.08953 27.9687C9.07756 27.7985 9.07187 27.639 9.07756 27.4691C9.08953 27.3096 9.11308 27.1501 9.14272 26.9908C9.18434 26.8313 9.23164 26.6825 9.29093 26.5336C9.29681 26.507 9.30859 26.4857 9.32057 26.4644C9.37396 26.3422 9.43913 26.2253 9.5043 26.1032C9.5516 26.034 9.59322 25.9648 9.64052 25.9012C9.68782 25.965 9.73533 26.034 9.78283 26.1032C9.85978 26.2466 9.93083 26.3848 9.9962 26.5336C10.0553 26.6825 10.1028 26.8313 10.1442 26.9908ZM14.5001 30.403C14.4092 30.4522 14.3163 30.4983 14.2216 30.5414C14.0557 30.6051 13.9016 30.6635 13.7297 30.7167C13.5579 30.7591 13.386 30.7964 13.2081 30.823C13.0244 30.8442 12.8526 30.8549 12.6628 30.8602C12.6273 30.8602 12.5859 30.8602 12.5503 30.8549C12.4057 30.8493 12.2614 30.8387 12.1177 30.823C12.0763 30.8178 12.0347 30.807 11.9933 30.8017C11.8629 30.7751 11.7324 30.7486 11.5962 30.7167C11.4318 30.6637 11.2697 30.6052 11.1101 30.5414C10.9622 30.4722 10.8257 30.403 10.6893 30.3287C11.3327 29.5508 11.6797 28.6078 11.679 27.6392C11.679 26.6135 11.3294 25.6993 10.6952 24.9444C10.7801 24.8952 10.8671 24.8491 10.9561 24.8062C11.1095 24.7322 11.2678 24.6665 11.4301 24.6096C11.5967 24.5573 11.7669 24.5148 11.9397 24.4821L11.9931 24.4714L12.2954 24.4289C12.3843 24.4237 12.4673 24.4237 12.5501 24.4182H12.8463C13.0301 24.4289 13.2077 24.4501 13.3855 24.4821C13.5634 24.514 13.7293 24.5566 13.8953 24.6096C14.059 24.6675 14.2192 24.7331 14.3752 24.8062C14.4167 24.8275 14.4583 24.8486 14.4997 24.8701C14.5235 24.886 14.547 24.8967 14.5649 24.9073L14.5886 24.9338C14.559 24.971 14.5293 25.0028 14.4997 25.04C13.9189 25.7789 13.6166 26.6611 13.6166 27.639C13.6163 28.5533 13.9242 29.4463 14.4997 30.2009C14.5411 30.2489 14.5766 30.2912 14.6122 30.3392C14.5758 30.3618 14.5384 30.3831 14.5001 30.403Z" fill="#D0D1D3"/>
</g>
</svg>
