<svg width="50" height="50" viewBox="0 0 50 50" fill="none" xmlns="http://www.w3.org/2000/svg">
<mask id="mask0_677_742" style="mask-type:alpha" maskUnits="userSpaceOnUse" x="0" y="0" width="50" height="50">
<rect width="50" height="50" fill="#D9D9D9"/>
</mask>
<g mask="url(#mask0_677_742)">
<path d="M47.2664 20.92L44.3352 18.6003L44.3 18.5701L47.0289 18.03C47.2059 17.9951 47.3652 17.9006 47.4796 17.7625C47.5941 17.6244 47.6565 17.4513 47.6562 17.2727V14.9545C47.6562 14.7496 47.5739 14.5531 47.4274 14.4081C47.2809 14.2632 47.0822 14.1818 46.875 14.1818H42.9688C42.7616 14.1818 42.5628 14.2632 42.4163 14.4081C42.2698 14.5531 42.1875 14.7496 42.1875 14.9545V16.3084L42.1336 16.2365C42.084 16.1053 41.9982 15.9904 41.8859 15.905C41.4461 15.2891 41.0695 14.6725 40.8242 14.1393L39.5039 11.2671C38.6625 9.43495 36.4094 8 34.375 8H15.625C13.5906 8 11.3375 9.43495 10.4961 11.2671L9.17656 14.1385C8.93125 14.6717 8.55469 15.2891 8.11484 15.905C8.0028 15.9906 7.91705 16.1054 7.86719 16.2365L7.81328 16.3084V14.9545C7.81328 14.7496 7.73097 14.5531 7.58446 14.4081C7.43795 14.2632 7.23923 14.1818 7.03203 14.1818H3.125C2.9178 14.1818 2.71909 14.2632 2.57257 14.4081C2.42606 14.5531 2.34375 14.7496 2.34375 14.9545V17.2727C2.34375 17.6413 2.60625 17.9581 2.97187 18.03L5.70078 18.5701L5.66563 18.6003L2.73359 20.92C1.20078 22.1332 0 24.6044 0 26.5455V39.6818C0 40.9599 1.05156 42 2.34375 42H8.59375C9.88594 42 10.9375 40.9599 10.9375 39.6818V38.1364H39.0625V39.6818C39.0625 40.9599 40.1141 42 41.4062 42H47.6562C48.9484 42 50 40.9599 50 39.6818V26.5455C50 24.6044 48.7992 22.1332 47.2664 20.92ZM40.1672 36.5909L38.3758 34.819C37.6156 34.0672 36.2313 33.5 35.1562 33.5H14.4531C13.3781 33.5 11.9937 34.0672 11.2336 34.819L9.44219 36.5909H3.90625C2.61406 36.5909 1.5625 35.5508 1.5625 34.2727V30.4091H2.34375V31.1818C2.34375 32.8865 3.74531 34.2727 5.46875 34.2727H7.8125C8.0197 34.2727 8.21841 34.1913 8.36493 34.0464C8.51144 33.9015 8.59375 33.7049 8.59375 33.5C8.59375 33.2951 8.51144 33.0985 8.36493 32.9536C8.21841 32.8087 8.0197 32.7273 7.8125 32.7273H5.46875C4.60703 32.7273 3.90625 32.0341 3.90625 31.1818V30.4091H5.46875C6.11719 30.4091 7.125 30.8217 7.58359 31.2753C7.65598 31.3473 7.74204 31.4045 7.83683 31.4435C7.93162 31.4825 8.03327 31.5025 8.13594 31.5025C8.2386 31.5025 8.34025 31.4825 8.43504 31.4435C8.52983 31.4045 8.6159 31.3473 8.68828 31.2753C8.7609 31.2036 8.8185 31.1185 8.85781 31.0247C8.89711 30.931 8.91734 30.8305 8.91734 30.729C8.91734 30.6275 8.89711 30.527 8.85781 30.4333C8.8185 30.3395 8.7609 30.2544 8.68828 30.1827C7.92813 29.4308 6.54453 28.8636 5.46875 28.8636H1.5625V26.5455C1.5625 26.2727 1.60625 25.9783 1.66797 25.6777C2.16797 26.1939 2.89531 26.5455 3.90625 26.5455H10.1562C10.3634 26.5454 10.5621 26.464 10.7086 26.319L11.7188 25.3199L12.7289 26.319C12.8014 26.3909 12.8875 26.4479 12.9822 26.4868C13.077 26.5256 13.1786 26.5456 13.2812 26.5455H22.3328L24.4477 28.6372C24.52 28.7092 24.6061 28.7664 24.7009 28.8054C24.7957 28.8444 24.8973 28.8644 25 28.8644C25.1027 28.8644 25.2043 28.8444 25.2991 28.8054C25.3939 28.7664 25.48 28.7092 25.5523 28.6372L27.6672 26.5455H36.7188C36.9258 26.5455 37.125 26.4643 37.2711 26.319L38.2812 25.3199L39.2914 26.319C39.3639 26.3909 39.45 26.4479 39.5447 26.4868C39.6395 26.5256 39.7411 26.5456 39.8438 26.5455H46.0938C47.1047 26.5455 47.832 26.1939 48.332 25.6777C48.3938 25.9783 48.4375 26.2727 48.4375 26.5455V28.8636H44.5312C43.4562 28.8636 42.0719 29.4308 41.3117 30.1827C41.2392 30.2544 41.1816 30.3396 41.1424 30.4333C41.1031 30.5271 41.0829 30.6275 41.0829 30.729C41.0829 30.8305 41.1031 30.9309 41.1424 31.0247C41.1816 31.1184 41.2392 31.2036 41.3117 31.2753C41.3843 31.3471 41.4704 31.404 41.5651 31.4428C41.6599 31.4816 41.7615 31.5016 41.8641 31.5016C41.9666 31.5016 42.0682 31.4816 42.163 31.4428C42.2578 31.404 42.3439 31.3471 42.4164 31.2753C42.875 30.8217 43.8828 30.4091 44.5312 30.4091H46.0938V31.1818C46.0938 32.0341 45.393 32.7273 44.5312 32.7273H42.1875C41.9803 32.7273 41.7816 32.8087 41.6351 32.9536C41.4886 33.0985 41.4062 33.2951 41.4062 33.5C41.4062 33.7049 41.4886 33.9015 41.6351 34.0464C41.7816 34.1913 41.9803 34.2727 42.1875 34.2727H44.5312C46.2547 34.2727 47.6562 32.8865 47.6562 31.1818V30.4091H48.4375V34.2727C48.4375 35.5508 47.3859 36.5909 46.0938 36.5909H40.1672ZM37.9578 36.5909H11.6516L12.3383 35.9117C12.7969 35.4581 13.8047 35.0455 14.4531 35.0455H35.1562C35.8047 35.0455 36.8125 35.4581 37.2711 35.9117L37.9578 36.5909ZM9.03125 17.2727H40.9688C41.7258 18.2626 42.5906 19.1991 43.3586 19.8073L44.2984 20.5506L38.7727 22.7367L38.7711 22.7375C38.6737 22.7763 38.5852 22.8341 38.5109 22.9075L37.7297 23.6802L36.3953 25H27.3438C27.2411 24.9999 27.1395 25.0198 27.0447 25.0587C26.95 25.0976 26.8639 25.1545 26.7914 25.2264L25 26.9983L23.2086 25.2264C23.1361 25.1545 23.05 25.0976 22.9553 25.0587C22.8605 25.0198 22.7589 24.9999 22.6562 25H13.6047L12.2711 23.681L11.4898 22.9082C11.4155 22.8349 11.3271 22.777 11.2297 22.7382L11.2281 22.7375L5.70234 20.5514L6.64219 19.808C7.40937 19.1991 8.27422 18.2626 9.03125 17.2727ZM47.6102 23.7783C47.4531 24.5858 46.9469 25 46.0938 25H40.1672L39.3859 24.2273L39.5016 24.1129L45.7008 21.6603L46.2898 22.127C46.7852 22.5188 47.2422 23.1145 47.6102 23.7783ZM43.75 15.7273H46.0938V16.6391L43.75 17.1027V15.7273ZM10.5977 14.7784L11.9172 11.9069C12.5062 10.6265 14.2039 9.54545 15.625 9.54545H34.375C35.7961 9.54545 37.4937 10.6265 38.082 11.9061L39.4023 14.7784C39.5398 15.0766 39.7188 15.3989 39.9148 15.7273H10.0852C10.2812 15.3989 10.4609 15.0766 10.5977 14.7784ZM3.90625 15.7273H6.25V17.1027L3.90625 16.6391V15.7273ZM3.70938 22.127L4.29844 21.6603L10.4984 24.1129L10.6141 24.2273L9.83281 25H3.90625C3.05312 25 2.54688 24.5858 2.38984 23.7783C2.75781 23.1145 3.21406 22.5188 3.70938 22.127ZM8.59375 40.4545H2.34375C1.91328 40.4545 1.5625 40.1076 1.5625 39.6818V37.3443C2.23494 37.8551 3.05838 38.1334 3.90625 38.1364H9.375V39.6818C9.375 40.1076 9.02422 40.4545 8.59375 40.4545ZM47.6562 40.4545H41.4062C40.9758 40.4545 40.625 40.1076 40.625 39.6818V38.1364H46.0938C46.9766 38.1364 47.7828 37.8342 48.4375 37.3443V39.6818C48.4375 40.1076 48.0867 40.4545 47.6562 40.4545Z" fill="#13141A"/>
</g>
</svg>
