<svg width="32" height="32" viewBox="0 0 32 32" fill="none" xmlns="http://www.w3.org/2000/svg">
<mask id="mask0_1199_1253" style="mask-type:alpha" maskUnits="userSpaceOnUse" x="0" y="0" width="32" height="32">
<rect width="32" height="32" fill="#D9D9D9"/>
</mask>
<g mask="url(#mask0_1199_1253)">
<mask id="mask1_1199_1253" style="mask-type:alpha" maskUnits="userSpaceOnUse" x="0" y="0" width="32" height="32">
<rect width="32" height="32" fill="#D9D9D9"/>
</mask>
<g mask="url(#mask1_1199_1253)">
<path fill-rule="evenodd" clip-rule="evenodd" d="M16.0001 0C24.8126 0 32.0001 7.18748 32.0001 16C32.0001 24.8126 24.8126 32 16.0001 32C7.18755 32 0 24.8126 0 16C0 7.18748 7.18755 0 16.0001 0Z" fill="black"/>
<path d="M6.7042 11.2016L2.92871 7.95425L4.34247 6.3105C4.63019 5.97604 4.89949 5.74111 5.14877 5.60424C5.39965 5.46715 5.65344 5.41029 5.9108 5.43293C6.16714 5.45485 6.38336 5.53966 6.55743 5.68934C6.71826 5.82767 6.82644 6.00946 6.88112 6.23391C6.93681 6.45734 6.91941 6.71041 6.8311 6.99092C7.12588 6.78328 7.41476 6.67867 7.69833 6.6743C7.98284 6.67066 8.23496 6.76334 8.45475 6.95233C8.62845 7.10035 8.75989 7.2917 8.83573 7.50695C8.91319 7.72434 8.93795 7.93204 8.91101 8.13058C8.88407 8.32911 8.80785 8.54213 8.68518 8.77008C8.56243 8.9981 8.381 9.25182 8.14068 9.53123L6.7042 11.2016ZM5.01445 8.73877L5.82911 7.79161C6.04927 7.53556 6.19305 7.33819 6.26054 7.2011C6.34893 7.02179 6.3822 6.85689 6.35832 6.70684C6.33436 6.55687 6.25698 6.42465 6.12506 6.31115C6.00027 6.20377 5.85969 6.1432 5.70506 6.13089C5.54882 6.11888 5.39775 6.16278 5.25215 6.26107C5.10567 6.36037 4.89687 6.56742 4.62575 6.88259L3.87333 7.75746L5.01445 8.73877ZM6.75757 10.238L7.69505 9.14807C7.85638 8.96046 7.96341 8.82359 8.01684 8.73819C8.11061 8.58654 8.17191 8.44581 8.20074 8.31462C8.23052 8.18401 8.22339 8.05013 8.18196 7.9134C8.13879 7.7769 8.0587 7.65663 7.93829 7.55303C7.79771 7.43203 7.63951 7.36869 7.46296 7.36243C7.28736 7.35683 7.11438 7.41026 6.94409 7.52296C6.7757 7.63522 6.57039 7.83121 6.33094 8.10961L5.46015 9.12208L6.75757 10.238ZM12.9816 5.62317V1.35254H14.1075L15.4439 4.37627C15.5675 4.65772 15.6583 4.86849 15.7136 5.00871C15.778 4.85356 15.878 4.62482 16.0147 4.32363L17.3669 1.35254H18.3731V5.62317H17.6523V2.04854L16.0108 5.62317H15.336L13.7023 1.98782V5.62317H12.9816ZM23.1948 8.11689L25.8079 4.57371L26.1645 5.0138L24.3948 7.26568C24.2126 7.49975 24.0236 7.7284 23.828 7.95134C24.249 7.7477 24.4917 7.63115 24.5586 7.60181L27.2936 6.40718L27.7132 6.92503L26.4137 8.74707C26.0924 9.19991 25.7696 9.6004 25.4465 9.94854C25.6884 9.82004 25.9729 9.67953 26.2973 9.52665L28.8362 8.31076L29.1861 8.74249L25.1552 10.5361L24.82 10.1223L26.7884 7.39556C26.9531 7.16703 27.0551 7.02819 27.0943 6.9789C26.9148 7.06794 26.7597 7.14111 26.6287 7.19855L23.5495 8.55458L23.1948 8.11689Z" fill="white"/>
<path fill-rule="evenodd" clip-rule="evenodd" d="M25.4515 16.1584C25.4515 21.2769 21.2769 25.4515 16.1584 25.4515V16.1584H25.4515Z" fill="#00ACEC"/>
<path fill-rule="evenodd" clip-rule="evenodd" d="M25.4515 15.8416C25.4515 10.7232 21.2769 6.54858 16.1584 6.54858V15.8416H25.4515Z" fill="white"/>
<path fill-rule="evenodd" clip-rule="evenodd" d="M6.54858 15.8416C6.54858 10.7232 10.7231 6.54858 15.8416 6.54858V15.8416H6.54858Z" fill="#00ACEC"/>
<path fill-rule="evenodd" clip-rule="evenodd" d="M6.54858 16.1584C6.54858 21.2769 10.7231 25.4515 15.8416 25.4515V16.1584H6.54858Z" fill="white"/>
</g>
</g>
</svg>
