<svg width="90" height="40" viewBox="0 0 90 40" fill="none" xmlns="http://www.w3.org/2000/svg">
<mask id="mask0_1199_38" style="mask-type:alpha" maskUnits="userSpaceOnUse" x="0" y="0" width="90" height="40">
<rect width="90" height="40" fill="#D9D9D9"/>
</mask>
<g mask="url(#mask0_1199_38)">
<path d="M33.3279 8.91503C34.8567 6.89121 37.2009 5.52856 39.7777 4.6685C42.584 3.73319 45.5732 3.47517 48.5562 3.47517C50.1377 3.47517 53.0121 3.23059 53.0245 5.21141C53.0339 6.57406 53.009 7.93672 53.0028 9.29937C52.9997 10.0009 52.9935 10.7023 52.9904 11.4065C52.9873 11.9494 53.0152 12.452 52.5408 12.8874C52.0075 13.3766 51.2105 13.5378 50.4632 13.5593C47.812 13.5593 45.1608 13.5593 42.5096 13.5593C40.7359 13.5593 38.9622 13.5593 37.1885 13.5593C36.2551 13.5593 35.2722 13.6292 34.345 13.511C33.0241 13.3443 31.6256 12.5031 32.0845 11.2076C32.3667 10.404 32.7977 9.6192 33.3279 8.91503ZM33.6876 11.7962C33.914 12.1026 34.6427 12.1349 34.9993 12.1402C37.4087 12.1806 39.8242 12.1402 42.2336 12.1402C44.9747 12.1402 47.7159 12.1402 50.457 12.1402C50.7826 12.1322 50.9997 12.0301 51.2912 11.9548C51.3222 11.9467 51.3408 11.9306 51.3532 11.9225C51.3687 11.8177 51.3439 11.686 51.3439 11.5893C51.347 10.9926 51.3501 10.3986 51.3532 9.80197C51.3625 8.42319 51.3687 7.04172 51.378 5.66294C51.3811 5.29742 51.5051 5.1254 51.0958 4.98564C50.457 4.77063 49.5299 4.89964 48.8632 4.89964C46.2895 4.89964 43.7623 5.04477 41.2878 5.71669C38.8878 6.36711 36.5125 7.50131 35.0086 9.29668C34.5249 9.87454 34.1001 10.5384 33.8272 11.17C33.7373 11.3904 33.5605 11.6215 33.6876 11.7962Z" fill="#272525"/>
<path d="M68.0699 8.47699C68.904 9.11666 69.6854 9.80739 70.3986 10.5492C70.7459 10.912 71.1087 11.2668 71.1118 11.7667C71.1149 12.229 70.8327 12.6456 70.4141 12.917C69.7381 13.3498 68.8234 13.2503 68.0295 13.2503C66.7892 13.2503 65.5489 13.2503 64.3085 13.2503C62.0511 13.2503 59.7937 13.2503 57.5363 13.2503C57.5022 13.253 57.4649 13.253 57.4277 13.2503C57.3657 13.2503 57.3099 13.2449 57.2541 13.2369C56.3393 13.1374 55.6013 12.6241 55.5455 11.7721C55.5269 11.4953 55.5393 11.213 55.5362 10.9335C55.5238 9.7617 55.5114 8.59256 55.5021 7.42073C55.4959 6.93964 55.4928 6.46123 55.4866 5.98014C55.4835 5.63074 55.4587 5.29209 55.6385 4.96151C56.2122 3.916 57.5394 4.04769 58.6309 4.23046C59.8185 4.43203 60.9689 4.75724 62.0821 5.16577C64.2775 5.97476 66.2869 7.11434 68.0699 8.47699ZM58.3735 5.63611C58.0882 5.58505 57.4091 5.35928 57.1487 5.54473C57.0928 5.58505 57.1487 5.52323 57.127 5.63611C57.0742 5.90757 57.1332 6.23009 57.1363 6.50423C57.1487 7.67069 57.1611 8.83445 57.1704 10.0009C57.1735 10.4686 57.1797 10.9362 57.1859 11.4039C57.189 11.713 57.0959 11.8124 57.4308 11.8312C61.1829 11.8312 64.9349 11.8312 68.69 11.8312C68.8637 11.8312 69.0497 11.8473 69.2203 11.8312C69.2513 11.8285 69.2823 11.8312 69.3133 11.8258C69.3722 11.8205 69.4063 11.7963 69.4497 11.7748C69.3939 11.6968 69.3102 11.6243 69.242 11.5544C69.0869 11.3931 68.9257 11.2319 68.7644 11.076C67.4094 9.7617 65.8465 8.61406 64.1194 7.68144C62.3488 6.72731 60.4201 6.00433 58.3735 5.63611Z" fill="#272525"/>
<path d="M69.273 27.3553C72.1971 26.4119 75.6669 27.2397 77.6298 29.3388C79.6081 31.4567 79.9244 34.4803 78.2902 36.8347C76.653 39.1972 73.4436 40.4012 70.3335 39.8798C66.8388 39.2939 64.3426 36.5337 64.3054 33.4885C64.3426 30.7471 66.3086 28.3121 69.273 27.3553ZM69.7784 38.2753C72.1351 39.0144 74.7708 38.3962 76.3801 36.7326C77.9647 35.0958 78.1352 32.6795 76.8763 30.8627C75.6204 29.0512 73.0963 28.0567 70.6963 28.4814C67.9427 28.9705 65.9768 31.0616 65.9426 33.4912C65.9737 35.5876 67.4714 37.5523 69.7784 38.2753Z" fill="#272525"/>
<path d="M70.4731 30.5052C71.8064 30.0805 73.3693 30.446 74.2809 31.3867C75.2174 32.357 75.3724 33.7653 74.622 34.8565C73.884 35.9262 72.4483 36.4826 71.0343 36.2756C69.4064 36.0364 68.2715 34.8001 68.1877 33.4052C68.1846 33.3783 68.1815 33.3514 68.1846 33.3245C68.1846 33.2896 68.1877 33.2574 68.1908 33.2251C68.2683 32.0049 69.1273 30.9325 70.4731 30.5052ZM71.6421 35.2597C72.8576 35.2624 73.8778 34.3781 73.8747 33.3245C73.8716 32.2683 72.8638 31.3894 71.6421 31.3894C70.3986 31.3894 69.4436 32.2683 69.4095 33.3245C69.4436 34.3835 70.4017 35.257 71.6421 35.2597Z" fill="#272525"/>
<path d="M21.8796 27.3553C24.8037 26.4119 28.2736 27.2397 30.2364 29.3388C32.2179 31.4567 32.5311 34.4803 30.8969 36.8347C29.2597 39.1972 26.0503 40.4012 22.9401 39.8798C19.4455 39.2939 16.9493 36.5337 16.9121 33.4885C16.9493 30.7471 18.9152 28.3121 21.8796 27.3553ZM22.3851 38.2753C24.7417 39.0144 27.3775 38.3962 28.9868 36.7326C30.5713 35.0958 30.7419 32.6795 29.4829 30.8627C28.2271 29.0512 25.703 28.0567 23.3029 28.4814C20.5494 28.9705 18.5834 31.0616 18.5493 33.4912C18.5803 35.5876 20.078 37.5523 22.3851 38.2753Z" fill="#272525"/>
<path d="M23.0795 30.5052C24.4129 30.0805 25.9757 30.446 26.8874 31.3867C27.8238 32.357 27.9788 33.7653 27.2284 34.8565C26.4904 35.9262 25.0547 36.4826 23.6408 36.2756C22.0128 36.0364 20.8779 34.8001 20.7942 33.4052C20.7911 33.3783 20.788 33.3514 20.7911 33.3245C20.7911 33.2896 20.7942 33.2574 20.7973 33.2251C20.8748 32.0049 21.7337 30.9325 23.0795 30.5052ZM24.2485 35.2597C25.4641 35.2624 26.4842 34.3781 26.4811 33.3245C26.478 32.2683 25.4703 31.3894 24.2485 31.3894C23.0051 31.3894 22.05 32.2683 22.0159 33.3245C22.05 34.3835 23.0082 35.257 24.2485 35.2597Z" fill="#272525"/>
<path d="M42.091 2.6903C42.9251 2.51561 43.6228 2.41616 44.4569 2.41347C45.4895 2.41079 46.519 2.4081 47.5516 2.40541C49.6788 2.40003 51.8059 2.39197 53.9362 2.3866C54.0665 2.3866 54.1967 2.3866 54.33 2.3866C56.2092 2.43766 58.1193 2.8005 59.9178 3.24128C63.9179 4.22228 67.6947 5.93433 70.7614 8.38012C71.701 9.1273 72.5692 9.94435 73.3538 10.8125C74.1104 11.651 75.1119 12.6078 75.1522 13.7205C75.1926 14.9139 75.1522 16.1126 75.1522 17.3032C75.1522 17.9483 75.0437 18.5476 74.5476 19.0637C73.8344 19.8001 72.8855 19.8404 71.8653 19.87C69.9056 19.9291 67.9428 20.1629 66.0637 20.6574C63.8962 21.2299 61.8186 22.1867 60.3271 23.6945C59.9333 24.095 59.586 24.5277 59.2914 24.9873C58.9968 25.4496 58.7736 25.9307 58.3859 26.3473C57.6231 27.167 56.4851 27.6589 55.2758 27.718C54.9595 27.7341 54.6432 27.7368 54.3269 27.7449C52.6184 27.7449 50.9098 27.7449 49.2012 27.7449C47.4461 27.7449 45.6476 27.8443 43.8957 27.7287C42.0755 27.6078 40.339 26.866 39.1514 25.6565C37.9172 24.3987 36.6862 23.2054 35.0985 22.2647C33.5605 21.3562 31.6163 20.9907 30.4628 19.6523C29.6938 18.7626 29.4581 17.744 29.4581 16.6582C29.4581 14.4328 29.148 12.2262 30.162 10.1325C32.1931 5.94777 37.2381 3.70087 42.091 2.6903ZM54.6029 11.0571C54.6029 12.1079 54.6029 13.1561 54.6029 14.207C54.8541 14.2876 55.0339 14.4973 55.0339 14.7392V17.2495C55.0339 17.494 54.8541 17.7037 54.6029 17.7816C54.6029 18.6497 54.6029 19.5179 54.6029 20.386C54.8541 20.4666 55.0339 20.6736 55.0339 20.9182V23.4284C55.0339 23.673 54.8541 23.8827 54.6029 23.9606C54.6029 24.1165 54.6029 24.2751 54.6029 24.431C54.6029 25.3743 54.6029 26.315 54.6029 27.2584C55.4836 27.2315 56.3208 27.1616 57.096 26.7262C58.2123 26.0973 58.5534 25.0249 59.2666 24.1165C60.4604 22.5953 62.2062 21.4879 64.138 20.7623C65.9489 20.0796 67.8932 19.706 69.8529 19.5179C70.6777 19.4372 71.5057 19.3942 72.3367 19.3808C73.5646 19.362 74.5631 18.7519 74.6096 17.6177C74.6561 16.4674 74.6096 15.309 74.6096 14.1586C74.6096 14.0135 74.6158 13.863 74.6096 13.7179C74.5786 13.0594 74.16 12.5756 73.7445 12.0515C73.0096 11.135 72.1878 10.2723 71.2886 9.47401C68.3614 6.87502 64.6497 5.02052 60.6682 3.92395C58.7301 3.39179 56.6557 2.95101 54.606 2.865C54.6029 5.59837 54.6029 8.32906 54.6029 11.0571ZM30.007 15.1235C30.007 15.8331 29.9729 16.548 30.0132 17.2575C30.0597 18.0611 30.407 18.8486 30.9868 19.4749C31.5977 20.1333 32.3729 20.4935 33.2473 20.8268C35.0179 21.5041 36.587 22.5361 37.9358 23.7295C39.2196 24.8637 40.1561 26.1914 41.9142 26.8364C43.6848 27.4868 45.8275 27.2745 47.7128 27.2745C49.778 27.2745 51.8432 27.2745 53.9114 27.2745C53.961 27.2745 54.0106 27.2745 54.0572 27.2745C54.0572 26.1833 54.0572 25.0894 54.0572 23.9982C53.7316 23.9633 53.4804 23.7241 53.4804 23.4338V20.9235C53.4804 20.6333 53.7347 20.3941 54.0572 20.3591C54.0572 19.9318 54.0572 19.5044 54.0572 19.0771C54.0572 18.6578 54.0572 18.2358 54.0572 17.8166C53.7316 17.7816 53.4804 17.5424 53.4804 17.2522V14.7419C53.4804 14.4516 53.7347 14.2124 54.0572 14.1775C54.0572 11.35 54.0572 8.52257 54.0572 5.69513C54.0572 4.74907 54.0572 3.80569 54.0572 2.85963C50.6431 2.87038 47.2291 2.87844 43.815 2.88919C43.4522 2.88919 43.1112 2.9752 42.7577 3.04239C41.8274 3.22247 40.9033 3.43748 40.001 3.69818C38.5095 4.12821 37.0645 4.68188 35.7311 5.40486C33.8799 6.40468 32.252 7.74314 31.1822 9.40413C30.6209 10.2776 30.193 11.2479 30.0411 12.245C29.9077 13.0889 30.007 14.2097 30.007 15.1235Z" fill="#272525"/>
<path d="M1.09461 24.2886H2.74426C2.74117 23.9849 2.74116 23.6838 2.74116 23.3801C1.57834 23.106 0.319389 22.3857 0.660484 21.2085C1.03259 19.9238 2.83108 19.3728 4.16754 19.2223C4.32259 19.2088 4.47763 19.2035 4.63268 19.1981C5.77379 17.693 7.49167 16.591 9.31187 15.7552C13.1786 13.9813 17.5942 13.1213 21.892 12.5757C22.7634 12.4655 23.6347 12.366 24.5122 12.2881C24.8006 12.2612 25.089 12.237 25.3774 12.2155C25.4022 12.2128 25.427 12.2128 25.4518 12.2101C25.4549 12.1886 25.458 12.1671 25.4642 12.1456C25.4921 12.0112 25.5293 11.8769 25.5696 11.7425C25.672 11.4038 25.8022 11.0732 25.951 10.748C26.3014 9.97398 26.7293 9.22949 27.2193 8.51726C28.4255 6.76489 29.9728 5.16841 31.762 3.84069C33.945 2.22002 36.4877 0.954126 39.3033 0.389714C40.9343 0.0645043 42.584 0 44.2491 0C47.2818 0 50.3113 0 53.3439 0C54.8138 0 55.9859 0.198888 57.4929 0.454218C59.8371 0.851995 62.1535 1.38416 64.4047 2.07489C71.394 4.21966 77.636 7.95553 81.8253 13.3121C84.3711 16.5669 86.0951 20.3135 86.9355 24.1784C87.382 24.1784 87.8254 24.1784 88.2719 24.1784C89.0533 24.1784 89.8255 24.4041 89.9743 25.1728C90.1293 25.9603 89.5712 26.6833 88.6192 26.7209C88.2037 26.737 87.7851 26.729 87.3665 26.7263C87.444 27.3633 87.4936 28.0003 87.5091 28.6399C87.5122 28.8066 87.5215 28.9759 87.5122 29.1425H88.734C89.4875 29.1425 89.965 29.8413 89.6053 30.4165L88.4735 32.2065C88.2998 32.4833 87.9649 32.6526 87.6021 32.6526H81.6888C80.9694 32.6526 80.3368 32.2387 80.1384 31.6367L79.4469 29.5161C76.898 25.7587 69.7785 25.2239 66.0047 28.0379C65.0217 28.7689 64.2931 29.6774 63.9054 30.7282L63.7225 31.7872C63.6388 32.2817 63.1488 32.6446 62.5721 32.6446H33.4675C32.9124 32.6446 32.4349 32.3032 32.3264 31.8302L32.0938 30.7981C30.4286 25.9039 22.1804 24.9282 18.0128 28.0352C17.2841 28.5781 16.6919 29.2205 16.2764 29.9434L15.6903 31.7845C15.526 32.2952 14.9895 32.6499 14.3756 32.6499H3.52877C3.17527 32.6499 2.84969 32.4779 2.67914 32.2038L1.57523 30.4138C1.0884 29.465 1.33027 29.2205 3.39233 29.1586C3.26209 28.9598 3.14737 28.7501 3.05125 28.5324C2.80318 27.9653 2.74426 27.3767 2.74426 26.7774C2.74426 26.5785 2.74116 26.3823 2.73495 26.1861H1.09461C0.493042 26.1861 0 25.7587 0 25.2373C0 24.7159 0.493042 24.2886 1.09461 24.2886ZM87.1184 25.111C87.1866 25.4873 87.2455 25.8662 87.3014 26.2452C87.6301 26.2452 87.9556 26.2452 88.2843 26.2452C88.5386 26.2452 88.8084 26.2667 89.0378 26.1484C89.4534 25.9334 89.5743 25.3663 89.3324 25.0062C89.0192 24.5412 88.275 24.6541 87.751 24.6541C87.5091 24.6541 87.2704 24.6541 87.0285 24.6541C87.0595 24.8046 87.0905 24.9578 87.1184 25.111ZM6.77847 26.1834H4.3815C4.3815 26.264 4.38461 26.342 4.38461 26.4226C4.38461 26.8096 4.3536 27.2128 4.44042 27.5944C4.57686 28.1884 4.92726 28.7098 5.39859 29.1371C5.97225 29.1371 6.61722 29.1398 7.34592 29.1398H12.1367C14.2949 24.4579 17.1756 21.2811 23.7525 21.2811C30.1 21.2811 35.6505 24.2402 38.6676 28.6534C38.6769 28.8469 38.68 29.0081 38.68 29.1398H59.5612C61.2852 24.3558 65.245 21.2811 71.8467 21.2811C77.5678 21.2811 82.6377 23.6838 85.7913 27.3875C85.785 27.3256 85.782 27.2611 85.7757 27.1993C85.7354 26.8069 85.6858 26.4172 85.63 26.0248C85.63 26.0194 85.63 26.0167 85.6269 26.0114C85.6176 25.9603 85.6114 25.9092 85.6021 25.8582C85.5804 25.7345 85.5618 25.6109 85.537 25.4873C85.4936 25.2427 85.444 24.9981 85.3943 24.7562C85.1587 23.6408 84.8517 22.5362 84.4734 21.4531C83.5183 18.7224 82.1633 16.2309 80.2469 13.8281C77.9616 10.9604 74.9135 8.47157 71.4746 6.58213C66.8606 4.04765 61.6108 2.53448 56.2587 1.69324C55.8556 1.62873 55.4494 1.5696 55.0432 1.51316C54.8199 1.4836 54.4572 1.48091 54.1843 1.41641C50.9377 1.41641 47.6942 1.41641 44.4476 1.41641C42.1158 1.41641 39.8459 1.56961 37.6412 2.3114C34.6055 3.33272 31.9419 5.30548 29.9697 7.52282C29.086 8.51726 28.3139 9.60039 27.7154 10.7427C27.5014 11.1512 27.3185 11.5758 27.1821 12.0112C27.12 12.1994 27.0735 12.3902 27.0301 12.5837C27.0208 12.624 27.0146 12.6643 27.0084 12.7074C27.0394 12.5327 27.0022 12.7853 26.9898 12.8256C26.9309 13.0433 26.8007 13.2368 26.6022 13.382C26.4317 13.5083 26.2487 13.5674 26.0751 13.5755C25.7061 13.6373 25.3092 13.6373 24.937 13.6695C24.2952 13.7233 23.6564 13.7878 23.0176 13.8604C22.3509 13.9356 21.34 14.0727 20.5431 14.1936C19.5323 14.3495 18.5276 14.5242 17.5291 14.7285C15.4205 15.1585 13.3119 15.6961 11.3336 16.4701C9.54131 17.1743 7.77383 18.0666 6.49008 19.3836C6.09627 19.7867 5.8017 20.2705 5.4389 20.7059C4.91796 21.3294 4.43422 21.9073 4.38461 22.7055C4.3536 23.2296 4.36909 23.7591 4.3784 24.2859H6.77537C7.37694 24.2859 7.86996 24.7132 7.86996 25.2346C7.86996 25.7587 7.38004 26.1834 6.77847 26.1834ZM2.74426 22.8802C2.75667 22.2056 2.93341 21.5633 3.2776 20.9585C3.53187 20.5097 3.89468 20.1012 4.23577 19.6899C4.21097 19.6926 4.18925 19.6926 4.16444 19.6953C3.09775 19.8163 1.59385 20.2463 1.21555 21.2407C0.877556 22.133 1.84811 22.6545 2.74116 22.891C2.74426 22.8856 2.74426 22.8829 2.74426 22.8802Z" fill="#272525"/>
<path d="M12.7909 16.583C13.6901 16.282 16.1088 15.7095 16.6112 16.8598C17.0608 17.8892 15.1817 18.7412 14.3661 19.0315C13.4297 19.3674 10.98 19.999 10.3846 18.846C10.3722 18.8299 10.3629 18.8111 10.3567 18.7869C10.0032 17.6903 11.8917 16.884 12.7909 16.583ZM10.8808 18.6445C11.3335 19.3863 13.2188 18.8971 13.8669 18.6955C14.4623 18.5101 15.0607 18.2547 15.5414 17.8946C15.7801 17.7145 16.2235 17.3651 16.1088 17.048C15.9724 16.6798 15.2499 16.6717 14.8964 16.6744C14.2607 16.6824 13.6219 16.8168 13.0297 17.0103C12.4281 17.2065 10.6606 17.8677 10.8808 18.6445Z" fill="#272525"/>
<path d="M32.7946 16.2363H35.6908C36.0505 16.2363 36.3481 16.4917 36.3481 16.8061C36.3481 17.1206 36.0536 17.3759 35.6908 17.3759H32.7946C32.4349 17.3759 32.1372 17.1206 32.1372 16.8061C32.1372 16.4917 32.4318 16.2363 32.7946 16.2363Z" fill="#272525"/>
<path d="M68.8112 16.2363H71.7074C72.0671 16.2363 72.3647 16.4917 72.3647 16.8061C72.3647 17.1206 72.0702 17.3759 71.7074 17.3759H68.8112C68.4515 17.3759 68.1538 17.1206 68.1538 16.8061C68.1538 16.4917 68.4515 16.2363 68.8112 16.2363Z" fill="#272525"/>
</g>
</svg>
