<svg width="50" height="50" viewBox="0 0 50 50" fill="none" xmlns="http://www.w3.org/2000/svg">
<mask id="mask0_611_1658" style="mask-type:alpha" maskUnits="userSpaceOnUse" x="0" y="0" width="50" height="50">
<rect width="50" height="50" fill="#D9D9D9"/>
</mask>
<g mask="url(#mask0_611_1658)">
<mask id="mask1_611_1658" style="mask-type:alpha" maskUnits="userSpaceOnUse" x="0" y="0" width="50" height="50">
<rect width="50" height="50" fill="#D9D9D9"/>
</mask>
<g mask="url(#mask1_611_1658)">
<path fill-rule="evenodd" clip-rule="evenodd" d="M25.0001 0C38.7697 0 50.0001 11.2304 50.0001 25C50.0001 38.7697 38.7697 50 25.0001 50C11.2306 50 0 38.7697 0 25C0 11.2304 11.2306 0 25.0001 0Z" fill="black"/>
<path d="M10.4754 17.5024L4.57617 12.4284L6.78518 9.86009C7.23473 9.3375 7.65551 8.97042 8.04501 8.75656C8.43701 8.54236 8.83356 8.45352 9.23568 8.48889C9.63621 8.52313 9.97406 8.65566 10.2461 8.88954C10.4973 9.10567 10.6664 9.38972 10.7518 9.74042C10.8388 10.0895 10.8116 10.485 10.6737 10.9232C11.1342 10.5988 11.5856 10.4354 12.0287 10.4285C12.4733 10.4228 12.8672 10.5676 13.2106 10.863C13.482 11.0942 13.6874 11.3932 13.8059 11.7295C13.9269 12.0692 13.9656 12.3938 13.9235 12.704C13.8814 13.0142 13.7623 13.347 13.5706 13.7032C13.3789 14.0595 13.0954 14.4559 12.7199 14.8925L10.4754 17.5024ZM7.83513 13.6543L9.10805 12.1743C9.45204 11.7742 9.67671 11.4659 9.78216 11.2517C9.92026 10.9715 9.97224 10.7138 9.93493 10.4794C9.89751 10.245 9.77659 10.0385 9.57046 9.86112C9.37549 9.69333 9.15582 9.59869 8.91421 9.57946C8.67009 9.56069 8.43405 9.62929 8.20654 9.78285C7.97767 9.93802 7.65142 10.2615 7.2278 10.754L6.05214 12.121L7.83513 13.6543ZM10.5588 15.9968L12.0236 14.2938C12.2757 14.0007 12.4429 13.7868 12.5264 13.6534C12.6729 13.4164 12.7687 13.1965 12.8137 12.9915C12.8602 12.7875 12.8491 12.5783 12.7844 12.3646C12.7169 12.1513 12.5918 11.9634 12.4036 11.8015C12.184 11.6125 11.9368 11.5135 11.6609 11.5037C11.3866 11.495 11.1163 11.5785 10.8502 11.7546C10.5871 11.93 10.2663 12.2362 9.89216 12.6712L8.53154 14.2532L10.5588 15.9968ZM20.2838 8.78614V2.11328H22.043L24.1312 6.83786C24.3243 7.27763 24.4662 7.60695 24.5525 7.82605C24.6532 7.58363 24.8094 7.22622 25.023 6.75561L27.1358 2.11328H28.708V8.78614H27.5818V3.20078L25.0169 8.78614H23.9626L21.4099 3.10591V8.78614H20.2838ZM36.2419 12.6826L40.3249 7.14636L40.882 7.83401L38.1169 11.3526C37.8323 11.7183 37.537 12.0756 37.2313 12.4239C37.8891 12.1057 38.2683 11.9236 38.3729 11.8778L42.6463 10.0112L43.3019 10.8203L41.2714 13.6672C40.7694 14.3748 40.265 15.0006 39.7602 15.5445C40.1382 15.3438 40.5827 15.1242 41.0895 14.8853L45.0566 12.9855L45.6033 13.6601L39.305 16.4625L38.7813 15.8161L41.8569 11.5555C42.1143 11.1984 42.2736 10.9815 42.3349 10.9045C42.0544 11.0436 41.8121 11.1579 41.6073 11.2477L36.7962 13.3665L36.2419 12.6826Z" fill="white"/>
<path fill-rule="evenodd" clip-rule="evenodd" d="M39.7679 25.2476C39.7679 33.2452 33.2452 39.7679 25.2476 39.7679V25.2476H39.7679Z" fill="#00ACEC"/>
<path fill-rule="evenodd" clip-rule="evenodd" d="M39.7679 24.7525C39.7679 16.755 33.2452 10.2322 25.2476 10.2322V24.7525H39.7679Z" fill="white"/>
<path fill-rule="evenodd" clip-rule="evenodd" d="M10.2322 24.7525C10.2322 16.755 16.7549 10.2322 24.7525 10.2322V24.7525H10.2322Z" fill="#00ACEC"/>
<path fill-rule="evenodd" clip-rule="evenodd" d="M10.2322 25.2476C10.2322 33.2452 16.7549 39.7679 24.7525 39.7679V25.2476H10.2322Z" fill="white"/>
</g>
</g>
</svg>
