<svg width="37" height="17" viewBox="0 0 37 17" fill="none" xmlns="http://www.w3.org/2000/svg">
<mask id="mask0_1199_3" style="mask-type:alpha" maskUnits="userSpaceOnUse" x="0" y="0" width="37" height="18">
<rect x="0.00415039" y="0.000610352" width="36" height="17" fill="#D9D9D9"/>
</mask>
<g mask="url(#mask0_1199_3)">
<path fill-rule="evenodd" clip-rule="evenodd" d="M0.396569 9.38405C0.197505 9.38405 0.031619 9.23053 0.00673611 9.02583C-0.0181468 8.80407 0.139445 8.6079 0.355097 8.58231C1.67389 8.42879 2.37891 7.62704 2.56968 6.04914C2.59456 5.82738 2.79362 5.67386 3.00928 5.69944C3.22493 5.72503 3.37422 5.92973 3.34934 6.15149C3.05075 8.58231 1.59924 9.25612 0.43804 9.38405H0.396569ZM35.0253 9.67405C33.3913 9.67405 32.7112 9.10259 32.4292 8.59084C32.0228 7.85733 32.1886 6.86794 32.902 5.81885C33.0264 5.63121 33.2669 5.58856 33.4494 5.7165C33.6236 5.84444 33.6733 6.09179 33.5489 6.27943C33.0264 7.04706 32.8688 7.74645 33.1093 8.18997C33.3996 8.71025 34.2705 8.94054 35.5727 8.83819C35.7884 8.82113 35.9791 8.99171 35.9957 9.21347V9.25612C35.9874 9.46082 35.8298 9.6314 35.6308 9.64846C35.4151 9.66552 35.2161 9.67405 35.0253 9.67405Z" fill="#46D993"/>
<path fill-rule="evenodd" clip-rule="evenodd" d="M26.2666 13.5889L9.73606 13.5633V12.7531L26.2666 12.7701V13.5889ZM34.4531 13.5975H32.9352V12.7872H34.4531C34.6605 12.7872 34.8512 12.7104 34.9922 12.5569C35.1332 12.4119 35.2162 12.2157 35.2162 12.0025V9.28169C34.8097 7.47351 34.3702 5.76767 26.4823 4.9574C26.4076 4.94887 26.333 4.92328 26.2749 4.8721C19.2496 -0.833926 11.6603 -0.475701 5.43961 5.86149C5.34837 5.95531 5.34837 5.95531 4.84242 6.06619C4.07934 6.23677 2.29606 6.62059 0.91921 7.08969C0.844561 7.11528 0.794795 7.18351 0.794795 7.26881V11.576L1.98918 12.736H3.06744V13.5463H1.83158C1.73205 13.5463 1.63252 13.5036 1.56617 13.4354L0.131251 12.0452C0.0483075 11.9684 0.00683594 11.866 0.00683594 11.7552V7.26881C0.00683594 6.83382 0.263959 6.45853 0.670381 6.32207C2.08871 5.8359 3.90516 5.43503 4.67653 5.27297C4.78436 5.24739 4.89218 5.2218 4.96683 5.20474C8.32603 1.81012 12.0087 0.0616389 15.9319 0.00193459C19.5233 -0.0492406 23.2392 1.38366 26.673 4.15565C34.4946 4.97445 35.4401 6.6547 35.9958 9.1367C36.0041 9.16229 36.0041 9.1964 36.0041 9.23052V11.994C36.0041 12.4204 35.8465 12.8213 35.5562 13.1198C35.2576 13.4354 34.8678 13.5975 34.4531 13.5975Z" fill="#369FFF"/>
<path fill-rule="evenodd" clip-rule="evenodd" d="M6.40188 10.1431C4.77619 10.1431 3.4574 11.4993 3.4574 13.171C3.4574 14.8427 4.77619 16.1989 6.40188 16.1989C8.02756 16.1989 9.34636 14.8427 9.34636 13.171C9.34636 11.4993 8.02756 10.1431 6.40188 10.1431ZM6.40188 17.0006C4.34489 17.0006 2.67773 15.2777 2.67773 13.171C2.67773 11.0558 4.35318 9.3414 6.40188 9.3414C8.45887 9.3414 10.126 11.0643 10.126 13.171C10.1343 15.2777 8.45887 17.0006 6.40188 17.0006ZM29.6011 10.1431C27.9754 10.1431 26.6566 11.4993 26.6566 13.171C26.6566 14.8427 27.9754 16.1989 29.6011 16.1989C31.2267 16.1989 32.5455 14.8427 32.5455 13.171C32.5455 11.4993 31.2184 10.1431 29.6011 10.1431ZM29.6011 17.0006C27.5441 17.0006 25.8769 15.2777 25.8769 13.171C25.8769 11.0558 27.5524 9.3414 29.6011 9.3414C31.658 9.3414 33.3252 11.0643 33.3252 13.171C33.3252 15.2777 31.658 17.0006 29.6011 17.0006ZM13.6843 4.90622C14.8704 4.90622 15.6583 5.11092 16.5375 5.34121C17.9807 5.72502 19.7806 6.19413 24.3839 5.82737C24.4918 5.81884 24.5332 5.73355 24.5498 5.69091C24.5581 5.63973 24.5664 5.55444 24.4752 5.48621C18.7604 1.39219 13.311 1.35808 8.29298 5.38386C8.19345 5.46062 8.21833 5.56297 8.24322 5.61414C8.2681 5.66532 8.32616 5.74208 8.45057 5.71649C10.914 5.11945 12.4982 4.90622 13.6843 4.90622ZM21.3482 6.77411C18.7853 6.77411 17.4582 6.42442 16.3385 6.13442C14.6132 5.68238 13.3691 5.35827 8.61646 6.50971C8.16027 6.62059 7.72067 6.39883 7.52161 5.97237C7.32255 5.53738 7.43037 5.05122 7.79532 4.7527C10.4744 2.60334 13.3193 1.54572 16.2638 1.59689C19.0922 1.64807 22.0035 2.73981 24.9148 4.82093C25.2548 5.06828 25.4041 5.48621 25.2963 5.89561C25.1885 6.30501 24.8484 6.595 24.4337 6.62912C23.2393 6.73147 22.2274 6.77411 21.3482 6.77411Z" fill="#46D993"/>
<path fill-rule="evenodd" clip-rule="evenodd" d="M16.0483 6.0406C15.8908 6.0406 15.7415 5.93825 15.6751 5.7762L14.4061 2.21099C14.3314 1.99776 14.4393 1.76748 14.6383 1.69071C14.8457 1.61395 15.0696 1.72483 15.1443 1.92953L16.4133 5.49473C16.4879 5.70796 16.3801 5.93825 16.1811 6.01501C16.1396 6.03207 16.0898 6.0406 16.0483 6.0406Z" fill="#46D993"/>
<path fill-rule="evenodd" clip-rule="evenodd" d="M24.2843 11.5334H11.7516C11.5857 11.5334 11.4364 11.431 11.3866 11.269C11.0714 10.3905 10.5323 9.60578 9.83558 9.00021C9.66969 8.85522 9.6531 8.59934 9.79411 8.42876C9.93511 8.25817 10.1839 8.24111 10.3498 8.38611C11.0797 9.0258 11.652 9.82754 12.0253 10.7316H24.2843C24.4999 10.7316 24.6741 10.9108 24.6741 11.1325C24.6741 11.3543 24.4999 11.5334 24.2843 11.5334ZM18.0884 8.66757H16.9438C16.7281 8.66757 16.554 8.48846 16.554 8.2667C16.554 8.04494 16.7281 7.86583 16.9438 7.86583H18.0967C18.3124 7.86583 18.4865 8.04494 18.4865 8.2667C18.4865 8.48846 18.3041 8.66757 18.0884 8.66757ZM25.6611 9.54608C25.5616 9.54608 25.4621 9.50343 25.3874 9.42667C25.2298 9.27315 25.2298 9.01727 25.3874 8.85522C26.5154 7.68672 28.0084 7.04703 29.6092 7.04703C29.8249 7.04703 29.999 7.22614 29.999 7.4479C29.999 7.66966 29.8249 7.84877 29.6092 7.84877C28.2241 7.84877 26.9219 8.40317 25.9431 9.41814C25.8602 9.51196 25.7606 9.54608 25.6611 9.54608Z" fill="#369FFF"/>
<path fill-rule="evenodd" clip-rule="evenodd" d="M6.40155 11.9599C5.75459 11.9599 5.22376 12.4972 5.22376 13.171C5.22376 13.8363 5.75459 14.3821 6.40155 14.3821C7.0485 14.3821 7.57934 13.8363 7.57934 13.171C7.57934 12.4972 7.0485 11.9599 6.40155 11.9599ZM6.40155 15.1839C5.32329 15.1839 4.44409 14.2798 4.44409 13.171C4.44409 12.0622 5.32329 11.1581 6.40155 11.1581C7.47981 11.1581 8.359 12.0622 8.359 13.171C8.359 14.2798 7.47981 15.1839 6.40155 15.1839ZM29.6007 11.9599C28.9538 11.9599 28.4229 12.4972 28.4229 13.171C28.4229 13.8363 28.9538 14.3821 29.6007 14.3821C30.2477 14.3821 30.7785 13.8363 30.7785 13.171C30.7702 12.4972 30.2477 11.9599 29.6007 11.9599ZM29.6007 15.1839C28.5225 15.1839 27.6433 14.2798 27.6433 13.171C27.6433 12.0622 28.5225 11.1581 29.6007 11.1581C30.679 11.1581 31.5582 12.0622 31.5582 13.171C31.5582 14.2798 30.679 15.1839 29.6007 15.1839Z" fill="#46D993"/>
</g>
</svg>
