<svg width="9" height="15" viewBox="0 0 9 15" fill="none" xmlns="http://www.w3.org/2000/svg">
<path d="M2.84176 8.46873C2.78731 8.46873 1.6451 8.46911 1.11829 8.46855C0.847088 8.46836 0.750328 8.36298 0.750328 8.06786C0.749982 7.3098 0.749808 6.55174 0.750328 5.79367C0.750502 5.5023 0.852811 5.39111 1.12055 5.39092C1.64735 5.39055 2.78333 5.39074 2.84176 5.39074C2.84176 5.3388 2.84159 4.24436 2.84176 3.74036C2.84211 2.99524 2.96505 2.28199 3.31516 1.62893C3.67359 0.96049 4.19519 0.502615 4.86366 0.237865C5.2918 0.0681781 5.73624 0.000490696 6.19056 0.000115696C6.75898 -0.000259303 7.3274 0.000303191 7.89599 0.00142819C8.14032 0.00180319 8.2487 0.118616 8.24922 0.384678C8.25026 1.09774 8.25026 1.8108 8.24922 2.52368C8.24887 2.79255 8.145 2.90055 7.89513 2.90355C7.42919 2.90899 6.9629 2.90561 6.49748 2.92586C6.02738 2.92586 5.78011 3.17411 5.78011 3.70024C5.76884 4.25674 5.77543 4.8138 5.77543 5.39055C5.81947 5.39055 7.15729 5.39036 7.78259 5.39055C8.06662 5.39055 8.16373 5.49611 8.16373 5.80492C8.16373 6.55886 8.16356 7.31298 8.16304 8.06692C8.16286 8.37123 8.07165 8.46836 7.78588 8.46855C7.16058 8.46892 5.82797 8.46873 5.7697 8.46873V14.5709C5.7697 14.8962 5.67502 14.9999 5.37816 14.9999C4.65436 14.9999 3.9304 15.0001 3.20661 14.9999C2.94425 14.9999 2.84194 14.8897 2.84194 14.606C2.84176 12.6187 2.84176 8.53848 2.84176 8.46873Z" fill="#3D6AD6"/>
</svg>
