<svg width="14" height="14" viewBox="0 0 14 14" fill="none" xmlns="http://www.w3.org/2000/svg">
<mask id="mask0_611_1476" style="mask-type:alpha" maskUnits="userSpaceOnUse" x="0" y="0" width="14" height="14">
<rect width="14" height="14" fill="#D9D9D9"/>
</mask>
<g mask="url(#mask0_611_1476)">
<path d="M3.93815 8.00082C4.28629 8.00082 4.62017 7.86252 4.86635 7.61635C5.11252 7.37017 5.25082 7.03629 5.25082 6.68815C5.25082 6.34001 5.11252 6.00613 4.86635 5.75996C4.62017 5.51379 4.28629 5.37549 3.93815 5.37549C3.59001 5.37549 3.25613 5.51379 3.00996 5.75996C2.76379 6.00613 2.62549 6.34001 2.62549 6.68815C2.62549 7.03629 2.76379 7.37017 3.00996 7.61635C3.25613 7.86252 3.59001 8.00082 3.93815 8.00082Z" fill="white"/>
<path d="M12.2515 11.5013C12.2515 11.9655 12.0671 12.4107 11.7389 12.7389C11.4107 13.0671 10.9655 13.2515 10.5013 13.2515H1.75022C1.28603 13.2515 0.840857 13.0671 0.512627 12.7389C0.184398 12.4107 0 11.9655 0 11.5013V4.50044C-2.31942e-07 4.03655 0.184157 3.59164 0.512008 3.26346C0.83986 2.93528 1.28458 2.75068 1.74847 2.75022C1.74847 2.28603 1.93287 1.84086 2.2611 1.51263C2.58933 1.1844 3.0345 1 3.49869 1H12.2498C12.714 1 13.1591 1.1844 13.4874 1.51263C13.8156 1.84086 14 2.28603 14 2.75022V9.75109C14 10.215 13.8158 10.6599 13.488 10.9881C13.1601 11.3162 12.7154 11.5008 12.2515 11.5013ZM12.2498 1.87511H3.49869C3.26659 1.87511 3.04401 1.96731 2.87989 2.13142C2.71578 2.29554 2.62358 2.51813 2.62358 2.75022H10.5013C10.9655 2.75022 11.4107 2.93462 11.7389 3.26285C12.0671 3.59108 12.2515 4.03625 12.2515 4.50044V10.6262C12.4833 10.6257 12.7055 10.5333 12.8692 10.3693C13.0329 10.2052 13.1249 9.98288 13.1249 9.75109V2.75022C13.1249 2.51813 13.0327 2.29554 12.8686 2.13142C12.7045 1.96731 12.4819 1.87511 12.2498 1.87511ZM1.75022 3.62533C1.51813 3.62533 1.29554 3.71753 1.13142 3.88164C0.967308 4.04576 0.875109 4.26834 0.875109 4.50044V11.5013L3.19065 9.44131C3.26217 9.37004 3.35615 9.3257 3.45663 9.31581C3.55711 9.30593 3.65792 9.33109 3.74197 9.38705L6.06976 10.9386L9.31641 7.69196C9.38131 7.62701 9.46499 7.58411 9.55561 7.56935C9.64623 7.55458 9.7392 7.5687 9.82135 7.6097L11.3764 9.31354V4.50044C11.3764 4.26834 11.2842 4.04576 11.1201 3.88164C10.956 3.71753 10.7334 3.62533 10.5013 3.62533H1.75022Z" fill="white"/>
</g>
</svg>
