<svg width="157" height="49" viewBox="0 0 157 49" fill="none" xmlns="http://www.w3.org/2000/svg">
<rect width="157" height="49" rx="5" fill="black"/>
<rect x="0.5" y="0.5" width="156" height="48" rx="4.5" stroke="#00A7AC" stroke-opacity="0.2"/>
<path d="M56.894 37.14C56.1287 37.14 55.424 37.0187 54.78 36.776C54.1453 36.524 53.59 36.174 53.114 35.726C52.638 35.2687 52.2693 34.732 52.008 34.116C51.7467 33.5 51.616 32.828 51.616 32.1C51.616 31.372 51.7467 30.7 52.008 30.084C52.2693 29.468 52.638 28.936 53.114 28.488C53.5993 28.0307 54.164 27.6807 54.808 27.438C55.452 27.186 56.1567 27.06 56.922 27.06C57.7527 27.06 58.4993 27.1953 59.162 27.466C59.834 27.7367 60.3987 28.1333 60.856 28.656L59.708 29.776C59.3253 29.3933 58.91 29.1133 58.462 28.936C58.0233 28.7493 57.538 28.656 57.006 28.656C56.4927 28.656 56.0167 28.74 55.578 28.908C55.1393 29.076 54.7613 29.314 54.444 29.622C54.1267 29.93 53.8793 30.294 53.702 30.714C53.534 31.134 53.45 31.596 53.45 32.1C53.45 32.5947 53.534 33.052 53.702 33.472C53.8793 33.892 54.1267 34.2607 54.444 34.578C54.7613 34.886 55.1347 35.124 55.564 35.292C55.9933 35.46 56.4693 35.544 56.992 35.544C57.4773 35.544 57.944 35.4693 58.392 35.32C58.8493 35.1613 59.2833 34.9 59.694 34.536L60.73 35.894C60.2167 36.3047 59.6193 36.6173 58.938 36.832C58.266 37.0373 57.5847 37.14 56.894 37.14ZM59.008 35.656V31.988H60.73V35.894L59.008 35.656ZM66.3225 37.098C65.5571 37.098 64.8758 36.9347 64.2785 36.608C63.6811 36.272 63.2098 35.8147 62.8645 35.236C62.5191 34.6573 62.3465 33.9993 62.3465 33.262C62.3465 32.5153 62.5191 31.8573 62.8645 31.288C63.2098 30.7093 63.6811 30.2567 64.2785 29.93C64.8758 29.6033 65.5571 29.44 66.3225 29.44C67.0971 29.44 67.7831 29.6033 68.3805 29.93C68.9871 30.2567 69.4585 30.7047 69.7945 31.274C70.1398 31.8433 70.3125 32.506 70.3125 33.262C70.3125 33.9993 70.1398 34.6573 69.7945 35.236C69.4585 35.8147 68.9871 36.272 68.3805 36.608C67.7831 36.9347 67.0971 37.098 66.3225 37.098ZM66.3225 35.6C66.7518 35.6 67.1345 35.5067 67.4705 35.32C67.8065 35.1333 68.0678 34.8627 68.2545 34.508C68.4505 34.1533 68.5485 33.738 68.5485 33.262C68.5485 32.7767 68.4505 32.3613 68.2545 32.016C68.0678 31.6613 67.8065 31.3907 67.4705 31.204C67.1345 31.0173 66.7565 30.924 66.3365 30.924C65.9071 30.924 65.5245 31.0173 65.1885 31.204C64.8618 31.3907 64.6005 31.6613 64.4045 32.016C64.2085 32.3613 64.1105 32.7767 64.1105 33.262C64.1105 33.738 64.2085 34.1533 64.4045 34.508C64.6005 34.8627 64.8618 35.1333 65.1885 35.32C65.5245 35.5067 65.9025 35.6 66.3225 35.6ZM75.3459 37.098C74.5806 37.098 73.8992 36.9347 73.3019 36.608C72.7046 36.272 72.2332 35.8147 71.8879 35.236C71.5426 34.6573 71.3699 33.9993 71.3699 33.262C71.3699 32.5153 71.5426 31.8573 71.8879 31.288C72.2332 30.7093 72.7046 30.2567 73.3019 29.93C73.8992 29.6033 74.5806 29.44 75.3459 29.44C76.1206 29.44 76.8066 29.6033 77.4039 29.93C78.0106 30.2567 78.4819 30.7047 78.8179 31.274C79.1632 31.8433 79.3359 32.506 79.3359 33.262C79.3359 33.9993 79.1632 34.6573 78.8179 35.236C78.4819 35.8147 78.0106 36.272 77.4039 36.608C76.8066 36.9347 76.1206 37.098 75.3459 37.098ZM75.3459 35.6C75.7752 35.6 76.1579 35.5067 76.4939 35.32C76.8299 35.1333 77.0912 34.8627 77.2779 34.508C77.4739 34.1533 77.5719 33.738 77.5719 33.262C77.5719 32.7767 77.4739 32.3613 77.2779 32.016C77.0912 31.6613 76.8299 31.3907 76.4939 31.204C76.1579 31.0173 75.7799 30.924 75.3599 30.924C74.9306 30.924 74.5479 31.0173 74.2119 31.204C73.8852 31.3907 73.6239 31.6613 73.4279 32.016C73.2319 32.3613 73.1339 32.7767 73.1339 33.262C73.1339 33.738 73.2319 34.1533 73.4279 34.508C73.6239 34.8627 73.8852 35.1333 74.2119 35.32C74.5479 35.5067 74.9259 35.6 75.3459 35.6ZM84.3973 39.814C83.7067 39.814 83.03 39.7207 82.3673 39.534C81.714 39.3567 81.1773 39.0953 80.7573 38.75L81.5413 37.434C81.868 37.7047 82.2787 37.9193 82.7733 38.078C83.2773 38.246 83.786 38.33 84.2993 38.33C85.1207 38.33 85.7227 38.1387 86.1053 37.756C86.488 37.3827 86.6793 36.818 86.6793 36.062V34.732L86.8193 33.038L86.7633 31.344V29.524H88.4293V35.866C88.4293 37.2193 88.084 38.2133 87.3933 38.848C86.7027 39.492 85.704 39.814 84.3973 39.814ZM84.1733 36.664C83.464 36.664 82.82 36.5147 82.2413 36.216C81.672 35.908 81.2193 35.4833 80.8833 34.942C80.5567 34.4007 80.3933 33.766 80.3933 33.038C80.3933 32.3193 80.5567 31.6893 80.8833 31.148C81.2193 30.6067 81.672 30.1867 82.2413 29.888C82.82 29.5893 83.464 29.44 84.1733 29.44C84.808 29.44 85.3773 29.566 85.8813 29.818C86.3853 30.07 86.7867 30.462 87.0853 30.994C87.3933 31.526 87.5473 32.2073 87.5473 33.038C87.5473 33.8687 87.3933 34.5547 87.0853 35.096C86.7867 35.628 86.3853 36.0247 85.8813 36.286C85.3773 36.538 84.808 36.664 84.1733 36.664ZM84.4393 35.18C84.878 35.18 85.27 35.0913 85.6153 34.914C85.9607 34.7273 86.2267 34.4753 86.4133 34.158C86.6093 33.8313 86.7073 33.458 86.7073 33.038C86.7073 32.618 86.6093 32.2493 86.4133 31.932C86.2267 31.6053 85.9607 31.358 85.6153 31.19C85.27 31.0127 84.878 30.924 84.4393 30.924C84.0007 30.924 83.604 31.0127 83.2493 31.19C82.904 31.358 82.6333 31.6053 82.4373 31.932C82.2507 32.2493 82.1573 32.618 82.1573 33.038C82.1573 33.458 82.2507 33.8313 82.4373 34.158C82.6333 34.4753 82.904 34.7273 83.2493 34.914C83.604 35.0913 84.0007 35.18 84.4393 35.18ZM90.73 37V26.612H92.48V37H90.73ZM98.2909 37.098C97.4602 37.098 96.7322 36.9347 96.1069 36.608C95.4909 36.272 95.0102 35.8147 94.6649 35.236C94.3289 34.6573 94.1609 33.9993 94.1609 33.262C94.1609 32.5153 94.3242 31.8573 94.6509 31.288C94.9869 30.7093 95.4442 30.2567 96.0229 29.93C96.6109 29.6033 97.2782 29.44 98.0249 29.44C98.7529 29.44 99.4016 29.5987 99.9709 29.916C100.54 30.2333 100.988 30.6813 101.315 31.26C101.642 31.8387 101.805 32.52 101.805 33.304C101.805 33.3787 101.8 33.4627 101.791 33.556C101.791 33.6493 101.786 33.738 101.777 33.822H95.5469V32.66H100.853L100.167 33.024C100.176 32.5947 100.088 32.2167 99.9009 31.89C99.7142 31.5633 99.4576 31.3067 99.1309 31.12C98.8136 30.9333 98.4449 30.84 98.0249 30.84C97.5956 30.84 97.2176 30.9333 96.8909 31.12C96.5736 31.3067 96.3216 31.568 96.1349 31.904C95.9576 32.2307 95.8689 32.618 95.8689 33.066V33.346C95.8689 33.794 95.9716 34.1907 96.1769 34.536C96.3822 34.8813 96.6716 35.1473 97.0449 35.334C97.4182 35.5207 97.8476 35.614 98.3329 35.614C98.7529 35.614 99.1309 35.5487 99.4669 35.418C99.8029 35.2873 100.102 35.082 100.363 34.802L101.301 35.88C100.965 36.272 100.54 36.5753 100.027 36.79C99.5229 36.9953 98.9442 37.098 98.2909 37.098ZM107.523 37V27.2H111.555C112.423 27.2 113.165 27.34 113.781 27.62C114.406 27.9 114.887 28.3013 115.223 28.824C115.559 29.3467 115.727 29.9673 115.727 30.686C115.727 31.4047 115.559 32.0253 115.223 32.548C114.887 33.0707 114.406 33.472 113.781 33.752C113.165 34.032 112.423 34.172 111.555 34.172H108.531L109.343 33.318V37H107.523ZM109.343 33.514L108.531 32.632H111.471C112.274 32.632 112.876 32.464 113.277 32.128C113.688 31.7827 113.893 31.302 113.893 30.686C113.893 30.0607 113.688 29.58 113.277 29.244C112.876 28.908 112.274 28.74 111.471 28.74H108.531L109.343 27.844V33.514ZM117.513 37V26.612H119.263V37H117.513ZM126.166 37V35.488L126.068 35.166V32.52C126.068 32.0067 125.914 31.61 125.606 31.33C125.298 31.0407 124.831 30.896 124.206 30.896C123.786 30.896 123.371 30.9613 122.96 31.092C122.559 31.2227 122.218 31.4047 121.938 31.638L121.252 30.364C121.653 30.056 122.129 29.8273 122.68 29.678C123.24 29.5193 123.819 29.44 124.416 29.44C125.499 29.44 126.334 29.7013 126.922 30.224C127.519 30.7373 127.818 31.5353 127.818 32.618V37H126.166ZM123.814 37.098C123.254 37.098 122.764 37.0047 122.344 36.818C121.924 36.622 121.597 36.356 121.364 36.02C121.14 35.6747 121.028 35.2873 121.028 34.858C121.028 34.438 121.126 34.06 121.322 33.724C121.527 33.388 121.859 33.122 122.316 32.926C122.773 32.73 123.38 32.632 124.136 32.632H126.306V33.794H124.262C123.665 33.794 123.263 33.892 123.058 34.088C122.853 34.2747 122.75 34.508 122.75 34.788C122.75 35.1053 122.876 35.3573 123.128 35.544C123.38 35.7307 123.73 35.824 124.178 35.824C124.607 35.824 124.99 35.726 125.326 35.53C125.671 35.334 125.919 35.0447 126.068 34.662L126.362 35.712C126.194 36.1507 125.891 36.4913 125.452 36.734C125.023 36.9767 124.477 37.098 123.814 37.098ZM130.543 39.814C130.179 39.814 129.815 39.7533 129.451 39.632C129.087 39.5107 128.784 39.3427 128.541 39.128L129.241 37.84C129.419 37.9987 129.619 38.1247 129.843 38.218C130.067 38.3113 130.296 38.358 130.529 38.358C130.847 38.358 131.103 38.2787 131.299 38.12C131.495 37.9613 131.677 37.6953 131.845 37.322L132.279 36.342L132.419 36.132L135.247 29.524H136.927L133.427 37.602C133.194 38.162 132.933 38.6053 132.643 38.932C132.363 39.2587 132.046 39.4873 131.691 39.618C131.346 39.7487 130.963 39.814 130.543 39.814ZM132.083 37.266L128.709 29.524H130.529L133.273 35.978L132.083 37.266Z" fill="white"/>
<path d="M54.8184 15.123H57.4844V18.707C57.11 18.8307 56.7227 18.9268 56.3223 18.9951C55.9219 19.0635 55.4727 19.0977 54.9746 19.0977C54.2487 19.0977 53.6335 18.9544 53.1289 18.668C52.6276 18.3783 52.2467 17.96 51.9863 17.4131C51.7259 16.863 51.5957 16.2005 51.5957 15.4258C51.5957 14.6803 51.7406 14.0342 52.0303 13.4873C52.32 12.9372 52.7415 12.5124 53.2949 12.2129C53.8483 11.9102 54.5189 11.7588 55.3066 11.7588C55.694 11.7588 56.0684 11.7979 56.4297 11.876C56.7943 11.9508 57.1279 12.055 57.4307 12.1885L57.0205 13.1553C56.7796 13.0413 56.5094 12.9453 56.21 12.8672C55.9105 12.7891 55.5996 12.75 55.2773 12.75C54.7663 12.75 54.3252 12.8607 53.9541 13.082C53.5863 13.3034 53.3031 13.6159 53.1045 14.0195C52.9059 14.4199 52.8066 14.8936 52.8066 15.4404C52.8066 15.971 52.8864 16.4365 53.0459 16.8369C53.2054 17.2373 53.4544 17.5498 53.793 17.7744C54.1348 17.9958 54.5758 18.1064 55.1162 18.1064C55.3864 18.1064 55.6159 18.0918 55.8047 18.0625C55.9935 18.0332 56.1676 18.0007 56.3271 17.9648V16.124H54.8184V15.123ZM63.2363 19H59.1934V11.8613H63.2363V12.8477H60.3652V14.7861H63.0557V15.7676H60.3652V18.0088H63.2363V19ZM67.2549 19H66.0781V12.8574H63.9883V11.8613H69.3398V12.8574H67.2549V19ZM73.0312 19V11.8613H74.2031V19H73.0312ZM82.0449 19H80.6045L77.1084 13.3018H77.0645C77.0775 13.4938 77.0889 13.6973 77.0986 13.9121C77.1117 14.127 77.1214 14.3483 77.1279 14.5762C77.1377 14.804 77.1458 15.0352 77.1523 15.2695V19H76.0879V11.8613H77.5186L81.0098 17.5205H81.0439C81.0374 17.3545 81.0293 17.1641 81.0195 16.9492C81.0098 16.7344 81 16.513 80.9902 16.2852C80.9837 16.054 80.9788 15.8311 80.9756 15.6162V11.8613H82.0449V19Z" fill="white"/>
<path fill-rule="evenodd" clip-rule="evenodd" d="M20.4537 12.3837C20.1656 12.6857 20 13.1506 20 13.7547V35.2417C20 35.8458 20.1656 36.3107 20.4645 36.6022L20.5426 36.6665L32.8861 24.6269V24.3564L20.5318 12.3193L20.4537 12.3837Z" fill="url(#paint0_linear_1322_672)"/>
<path fill-rule="evenodd" clip-rule="evenodd" d="M36.9922 28.6552L32.875 24.638V24.357L36.9935 20.3398L37.0824 20.3937L41.9536 23.0937C43.3484 23.8606 43.3484 25.1239 41.9536 25.9014L37.0824 28.6013C37.0811 28.6013 36.9922 28.6552 36.9922 28.6552Z" fill="url(#paint1_linear_1322_672)"/>
<path fill-rule="evenodd" clip-rule="evenodd" d="M37.0808 28.6019L32.8747 24.498L20.4531 36.6139C20.9069 37.0893 21.6702 37.1431 22.5238 36.6782L37.0808 28.6019Z" fill="url(#paint2_linear_1322_672)"/>
<path fill-rule="evenodd" clip-rule="evenodd" d="M37.0808 20.3957L22.5238 12.3299C21.6716 11.8545 20.9069 11.9189 20.4531 12.3942L32.8734 24.4982L37.0808 20.3957Z" fill="url(#paint3_linear_1322_672)"/>
<path opacity="0.2" fill-rule="evenodd" clip-rule="evenodd" d="M36.9919 28.5156L22.5346 36.5276C21.7268 36.9807 21.0065 36.9492 20.542 36.5381L20.4639 36.6143L20.542 36.6786C21.0065 37.0884 21.7268 37.1212 22.5346 36.6681L37.0915 28.6023L36.9919 28.5156Z" fill="black"/>
<path opacity="0.12" fill-rule="evenodd" clip-rule="evenodd" d="M41.9522 25.7614L36.9814 28.5152L37.0703 28.6019L41.9415 25.9019C42.6389 25.5132 42.9822 25.0063 42.9822 24.498C42.9378 24.9629 42.5837 25.4055 41.9522 25.7614Z" fill="black"/>
<path opacity="0.25" fill-rule="evenodd" clip-rule="evenodd" d="M22.5244 12.47L41.9525 23.2358C42.584 23.5812 42.9381 24.0343 42.9933 24.4992C42.9933 23.9923 42.6499 23.484 41.9525 23.0953L22.5244 12.3295C21.1296 11.5521 20 12.1995 20 13.7544V13.8949C20 12.34 21.1296 11.7031 22.5244 12.47Z" fill="white"/>
<defs>
<linearGradient id="paint0_linear_1322_672" x1="31.7777" y1="13.5237" x2="12.0723" y2="18.9068" gradientUnits="userSpaceOnUse">
<stop stop-color="#00A0FF"/>
<stop offset="0.007" stop-color="#00A1FF"/>
<stop offset="0.26" stop-color="#00BEFF"/>
<stop offset="0.512" stop-color="#00D2FF"/>
<stop offset="0.76" stop-color="#00DFFF"/>
<stop offset="1" stop-color="#00E3FF"/>
</linearGradient>
<linearGradient id="paint1_linear_1322_672" x1="43.7686" y1="24.4981" x2="19.6607" y2="24.4981" gradientUnits="userSpaceOnUse">
<stop stop-color="#FFE000"/>
<stop offset="0.409" stop-color="#FFBD00"/>
<stop offset="0.775" stop-color="#FFA500"/>
<stop offset="1" stop-color="#FF9C00"/>
</linearGradient>
<linearGradient id="paint2_linear_1322_672" x1="34.7936" y1="26.7306" x2="19.4983" y2="53.1233" gradientUnits="userSpaceOnUse">
<stop stop-color="#FF3A44"/>
<stop offset="1" stop-color="#C31162"/>
</linearGradient>
<linearGradient id="paint3_linear_1322_672" x1="17.3263" y1="5.23611" x2="24.1499" y2="17.0233" gradientUnits="userSpaceOnUse">
<stop stop-color="#32A071"/>
<stop offset="0.069" stop-color="#2DA771"/>
<stop offset="0.476" stop-color="#15CF74"/>
<stop offset="0.801" stop-color="#06E775"/>
<stop offset="1" stop-color="#00F076"/>
</linearGradient>
</defs>
</svg>
