<svg width="82" height="28" viewBox="0 0 82 28" fill="none" xmlns="http://www.w3.org/2000/svg">
<path d="M12.6802 13.6055H16.2065V18.5418C15.1062 18.8942 13.717 19.0874 12.2728 19.0874C6.41996 19.0874 2.98004 14.0921 2.98004 9.21363C2.98004 4.42885 6.09151 1.0726 10.4324 1.0726C13.1793 1.0726 14.7776 2.00006 16.2075 3.29198V4.90251L18.8887 2.2303C17.1928 1.08677 14.7372 0 11.2272 0C3.52198 0 0 5.49403 0 10.0091C0 16.4358 4.69673 20.3073 10.5989 20.3073C13.4608 20.3073 16.0018 19.8719 18.937 19.0579V13.9579C18.937 13.6971 19.0519 13.5182 19.2238 13.3611L20.15 12.438H13.8604L12.6802 13.6055Z" fill="url(#paint0_linear_1713_2222)"/>
<path d="M28.4799 6.89697C24.0448 6.89697 21.2969 10.1269 21.2969 13.5553C21.2969 16.5144 23.5107 20.0278 27.996 20.0278C32.3106 20.0278 34.9579 16.7916 34.9579 13.3032C34.9579 10.0538 32.3708 6.89817 28.4799 6.89817V6.89697ZM27.7441 7.83865C30.8709 7.83865 32.2634 11.8988 32.2634 14.7947C32.2634 19.1015 29.0217 19.1866 28.6342 19.1866C27.1507 19.1866 26.1139 18.293 25.3378 17.121C24.6546 16.0409 23.9868 14.0342 23.9868 12.0734C23.9868 10.1202 24.6283 9.16657 25.6378 8.46496C26.4633 7.93903 27.2362 7.83865 27.743 7.83865H27.7441Z" fill="url(#paint1_linear_1713_2222)"/>
<path d="M57.4674 6.896C53.5938 6.896 51.4984 9.34018 51.4984 12.0691C51.4984 14.1467 52.9917 16.4905 56.0725 16.4905H56.8519C56.8519 16.4905 56.6396 17.0044 56.6385 17.5009C56.6385 18.2331 56.9024 18.6444 57.4628 19.2772C52.1617 19.5991 50.0312 21.7301 50.0312 24.0205C50.0312 26.0261 51.9582 28 56.0078 28C60.802 28 63.285 25.3473 63.285 22.7439C63.285 20.9086 62.3675 19.9026 60.0444 18.1676C59.3612 17.6384 59.2287 17.3014 59.2287 16.9053C59.2287 16.3379 59.5692 15.9624 59.694 15.8207C59.9141 15.5894 60.295 15.3253 60.4374 15.1987C61.218 14.5397 62.3205 13.5643 62.3205 11.6176C62.3205 10.282 61.7631 9.13307 60.4932 8.0572H62.0435L63.2083 6.89624H57.4674V6.896ZM56.3989 7.76454C57.1017 7.76454 57.6885 8.01226 58.3081 8.52619C58.9955 9.14378 60.0938 10.8034 60.0938 12.8569C60.0938 15.0731 58.3662 15.6797 57.4313 15.6797C56.9736 15.6797 56.4253 15.5521 55.961 15.2356C54.9297 14.5691 53.9059 12.7947 53.9059 10.6834C53.9059 8.77822 55.0445 7.76454 56.3989 7.76454ZM57.9327 20.1185C58.2282 20.1185 58.4407 20.1426 58.4407 20.1426C58.4407 20.1426 59.1381 20.6391 59.6252 21.01C60.7595 21.9036 61.4666 22.5867 61.4666 23.8034C61.4666 25.4762 59.9098 26.7877 57.3884 26.7877C54.6209 26.7877 52.5056 25.5034 52.5056 23.4063C52.5056 21.6691 53.9551 20.1741 57.9327 20.1185Z" fill="url(#paint2_linear_1713_2222)"/>
<path d="M64.0462 19.6445H69.3636L70.1737 18.8372L68.6486 18.6473C68.2381 18.5971 67.994 18.2436 67.994 17.901V1.89278C67.994 1.57744 68.1407 1.41594 68.2479 1.31327L69.2071 0.357422H64.6724L63.4922 1.53368H65.2548V18.1158C65.2548 18.3515 65.1804 18.5119 65.0205 18.6767L64.0462 19.6445Z" fill="url(#paint3_linear_1713_2222)"/>
<path d="M76.5686 6.89697C73.5994 6.89697 70.4453 9.15237 70.4453 13.2016C70.4453 16.5459 72.7083 20.0278 76.9364 20.0278C77.9907 20.0278 78.8589 19.8926 79.6724 19.5206C80.5449 19.1201 81.3846 18.4698 81.9976 17.6525C80.8405 18.2341 79.8968 18.616 78.6431 18.616C76.2608 18.616 73.9639 16.9029 73.1603 13.7538L81.5761 10.3637C81.09 8.63637 79.7193 6.89697 76.5697 6.89697H76.5686ZM76.0189 7.82335C77.6119 7.82335 78.7636 9.12947 78.7636 10.1519C78.7636 10.4825 78.5556 10.6571 78.1439 10.8186L72.9709 12.9037C72.9709 12.9037 72.8309 12.2545 72.8309 11.5529C72.8309 8.61009 74.9658 7.82335 76.0189 7.82335Z" fill="url(#paint4_linear_1713_2222)"/>
<path d="M43.5268 6.89697C39.0917 6.89697 36.3438 10.1269 36.3438 13.5553C36.3438 16.5144 38.5576 20.0278 43.0429 20.0278C47.3575 20.0278 50.0047 16.7916 50.0047 13.3032C50.0047 10.0538 47.4177 6.89817 43.5268 6.89817V6.89697ZM42.791 7.83865C45.9179 7.83865 47.3103 11.8988 47.3103 14.7947C47.3103 19.1015 44.0686 19.1866 43.681 19.1866C42.1976 19.1866 41.1608 18.293 40.3847 17.121C39.7015 16.0409 39.0337 14.0342 39.0337 12.0734C39.0337 10.1202 39.6751 9.16657 40.6847 8.46496C41.5101 7.93903 42.2831 7.83865 42.7899 7.83865H42.791Z" fill="url(#paint5_linear_1713_2222)"/>
<defs>
<linearGradient id="paint0_linear_1713_2222" x1="10.0249" y1="-0.0574845" x2="10.0249" y2="20.3062" gradientUnits="userSpaceOnUse">
<stop stop-color="#196EEF"/>
<stop offset="0.5" stop-color="#186DEE"/>
<stop offset="1" stop-color="#1065E7"/>
</linearGradient>
<linearGradient id="paint1_linear_1713_2222" x1="28.0777" y1="6.86587" x2="28.0777" y2="20.0334" gradientUnits="userSpaceOnUse">
<stop stop-color="#DE5744"/>
<stop offset="0.5" stop-color="#DB4632"/>
<stop offset="1" stop-color="#D13D29"/>
</linearGradient>
<linearGradient id="paint2_linear_1713_2222" x1="56.6094" y1="6.86598" x2="56.6094" y2="28.008" gradientUnits="userSpaceOnUse">
<stop stop-color="#1A6FEF"/>
<stop offset="0.25" stop-color="#1E72EF"/>
<stop offset="0.5" stop-color="#166BEC"/>
<stop offset="0.75" stop-color="#1267E9"/>
<stop offset="1" stop-color="#1063E5" stop-opacity="0.87"/>
</linearGradient>
<linearGradient id="paint3_linear_1713_2222" x1="66.7844" y1="0.312023" x2="66.7844" y2="19.6631" gradientUnits="userSpaceOnUse">
<stop stop-color="#0AA561"/>
<stop offset="0.5" stop-color="#009B58"/>
<stop offset="1" stop-color="#00914B"/>
</linearGradient>
<linearGradient id="paint4_linear_1713_2222" x1="76.1733" y1="6.86587" x2="76.1733" y2="19.9971" gradientUnits="userSpaceOnUse">
<stop stop-color="#DE5644"/>
<stop offset="0.5" stop-color="#DA4531"/>
<stop offset="1" stop-color="#CE3A28"/>
</linearGradient>
<linearGradient id="paint5_linear_1713_2222" x1="43.1249" y1="6.89447" x2="43.1249" y2="20.0073" gradientUnits="userSpaceOnUse">
<stop stop-color="#FFC01A"/>
<stop offset="0.5" stop-color="#FFBA03"/>
<stop offset="1" stop-color="#FFB300"/>
</linearGradient>
</defs>
</svg>
