<svg width="15" height="15" viewBox="0 0 15 15" fill="none" xmlns="http://www.w3.org/2000/svg">
<g clip-path="url(#clip0_2606_6761)">
<path d="M14.4337 6.19597L8.31534 6.19568C8.04517 6.19568 7.82617 6.41464 7.82617 6.68482V8.63936C7.82617 8.90948 8.04517 9.1285 8.31531 9.1285H11.7608C11.3835 10.1076 10.6793 10.9276 9.78092 11.4486L11.2501 13.9919C13.6068 12.6289 15.0001 10.2374 15.0001 7.56033C15.0001 7.17915 14.972 6.90666 14.9158 6.59983C14.8731 6.36671 14.6707 6.19597 14.4337 6.19597Z" fill="#167EE6"/>
<path d="M7.49968 12.0652C5.81353 12.0652 4.34153 11.1439 3.55096 9.78064L1.00781 11.2465C2.302 13.4895 4.72644 15 7.49968 15C8.86014 15 10.1438 14.6337 11.2497 13.9953V13.9918L9.78053 11.4486C9.10851 11.8383 8.33086 12.0652 7.49968 12.0652Z" fill="#12B347"/>
<path d="M11.25 13.9954V13.9919L9.78085 11.4486C9.10884 11.8383 8.33124 12.0652 7.5 12.0652V15C8.86046 15 10.1442 14.6337 11.25 13.9954Z" fill="#0F993E"/>
<path d="M2.93479 7.50005C2.93479 6.66893 3.1616 5.89136 3.55128 5.21938L1.00813 3.75354C0.366269 4.85589 0 6.13611 0 7.50005C0 8.864 0.366269 10.1442 1.00813 11.2466L3.55128 9.78073C3.1616 9.10874 2.93479 8.33118 2.93479 7.50005Z" fill="#FFD500"/>
<path d="M7.49968 2.93479C8.59922 2.93479 9.6092 3.32549 10.3981 3.97538C10.5927 4.13569 10.8756 4.12412 11.0538 3.94585L12.4387 2.56099C12.641 2.35872 12.6265 2.02764 12.4105 1.8402C11.0887 0.693545 9.36902 0 7.49968 0C4.72644 0 2.302 1.51046 1.00781 3.75349L3.55096 5.21933C4.34153 3.85605 5.81353 2.93479 7.49968 2.93479Z" fill="#FF4B26"/>
<path d="M10.3984 3.97538C10.593 4.13569 10.8759 4.12412 11.0542 3.94585L12.439 2.56099C12.6412 2.35872 12.6268 2.02764 12.4108 1.8402C11.0891 0.693516 9.36935 0 7.5 0V2.93479C8.59951 2.93479 9.60952 3.32549 10.3984 3.97538Z" fill="#D93F21"/>
</g>
<defs>
<clipPath id="clip0_2606_6761">
<rect width="15" height="15" fill="white"/>
</clipPath>
</defs>
</svg>
