<svg width="42" height="42" viewBox="0 0 42 42" fill="none" xmlns="http://www.w3.org/2000/svg">
<mask id="mask0_672_645" style="mask-type:alpha" maskUnits="userSpaceOnUse" x="0" y="0" width="42" height="42">
<rect width="42" height="42" fill="#D9D9D9"/>
</mask>
<g mask="url(#mask0_672_645)">
<path d="M31.8533 17.6318C31.8533 11.4039 26.7486 6.34375 20.4862 6.34375C14.2238 6.34375 9.11914 11.4039 9.11914 17.6318C9.11914 23.8507 14.2147 28.9199 20.4862 28.9199C26.7577 28.9199 31.8533 23.8507 31.8533 17.6318ZM20.4862 27.4625C15.026 27.4625 10.5776 23.0541 10.5776 17.6228C10.5776 12.1915 15.026 7.7921 20.4862 7.7921C25.9464 7.7921 30.3948 12.2005 30.3948 17.6318C30.3948 23.0631 25.9464 27.4625 20.4862 27.4625Z" fill="#13141A"/>
<path d="M34.4149 29.3088C34.8251 29.1006 35.1897 28.8291 35.4723 28.4489C36.2106 27.4441 36.0374 26.1315 35.8734 24.8552C35.764 24.0314 35.6546 23.1715 35.846 22.5921C36.0192 22.049 36.6026 21.4425 37.1587 20.8632C38.0246 19.9579 39 18.935 39 17.6406C39 16.3461 38.0338 15.3051 37.1678 14.3999C36.6117 13.8115 36.0283 13.2141 35.8551 12.6709C35.6637 12.0916 35.7731 11.2316 35.8825 10.4079C36.0466 9.13153 36.2106 7.81896 35.4814 6.81417C34.743 5.80032 33.4213 5.55592 32.1451 5.31151C31.3247 5.15762 30.477 5.00373 29.9938 4.6507C29.5107 4.30672 29.1096 3.56444 28.7177 2.84026C28.1252 1.754 27.4415 0.522903 26.2291 0.124607C25.0623 -0.255585 23.8682 0.305651 22.7105 0.848782C21.9357 1.21087 21.1426 1.58201 20.5046 1.58201C19.8665 1.58201 19.0734 1.21087 18.2986 0.848782C17.1409 0.305651 15.9468 -0.255585 14.78 0.124607C13.5585 0.513851 12.9204 1.69969 12.2915 2.84026C11.8995 3.55538 11.4893 4.30672 11.0153 4.6507C10.523 5.00373 9.68441 5.16667 8.86401 5.31151C7.58783 5.54686 6.26608 5.80032 5.52772 6.81417C4.78936 7.81896 4.96255 9.13153 5.12663 10.4079C5.23602 11.2316 5.34541 12.0916 5.15398 12.6709C4.98078 13.2141 4.39739 13.8206 3.84134 14.3999C2.97536 15.3051 2 16.328 2 17.6225C2 18.9169 2.98448 19.9398 3.84134 20.8451C4.39739 21.4334 4.98078 22.0309 5.15398 22.574C5.34541 23.1534 5.23602 24.0133 5.12663 24.8371C4.96255 26.1134 4.79847 27.426 5.52772 28.4308C5.8103 28.811 6.17492 29.0916 6.58512 29.2907L2.61074 36.1251C2.46489 36.3786 2.48312 36.6954 2.66543 36.9308C2.84775 37.1661 3.14856 37.2657 3.43114 37.1933L9.30155 35.6273L10.8785 41.4569C10.9515 41.7375 11.1976 41.9457 11.4893 41.9909C11.5257 41.9909 11.5531 42 11.5804 42C11.8357 42 12.0818 41.8642 12.2094 41.6379L15.9377 35.2199C16.7307 35.1294 17.5329 34.7583 18.3077 34.3962C19.0825 34.0341 19.8756 33.6629 20.5137 33.6629C21.1518 33.6629 21.9448 34.0341 22.7196 34.3962C23.4945 34.7583 24.2966 35.1384 25.0897 35.2199L28.8179 41.6379C28.9456 41.8642 29.1917 42 29.4469 42C29.4743 42 29.5107 42 29.5381 41.9909C29.8298 41.9547 30.0668 41.7465 30.1488 41.4569L31.7258 35.6273L37.5962 37.1933C37.8788 37.2657 38.1796 37.1661 38.3619 36.9308C38.5442 36.6954 38.5625 36.3786 38.4166 36.1251L34.4149 29.3088ZM11.7992 39.4111L10.4957 34.5682C10.3954 34.1789 9.99433 33.9526 9.60237 34.0522L4.72555 35.3466L7.97068 29.7615C8.25326 29.8248 8.54496 29.8791 8.83666 29.9334C9.65706 30.0873 10.5048 30.2412 10.9879 30.5943C11.4711 30.9382 11.8721 31.6805 12.2641 32.4047C12.7928 33.3733 13.3853 34.4505 14.3698 34.9574L11.7992 39.4111ZM20.4863 32.2236C19.5201 32.2236 18.5721 32.6672 17.6605 33.0927C16.7581 33.5181 15.8283 33.9526 15.2175 33.7535C14.5521 33.5362 14.0508 32.6129 13.5585 31.7258C13.0845 30.8658 12.6014 29.9787 11.8539 29.4356C11.0973 28.8924 10.0855 28.7023 9.11013 28.5213C8.11653 28.3312 7.08647 28.1411 6.67628 27.598C6.28431 27.0639 6.41192 26.032 6.53954 25.0453C6.66716 24.0586 6.79478 23.0447 6.50308 22.1486C6.2205 21.2977 5.52772 20.5644 4.86228 19.8674C4.15127 19.1251 3.41291 18.3557 3.41291 17.6406C3.41291 16.9255 4.15127 16.156 4.86228 15.4137C5.53683 14.7077 6.22961 13.9835 6.50308 13.1326C6.79478 12.2364 6.66716 11.2226 6.53954 10.2359C6.41192 9.24015 6.28431 8.21726 6.67628 7.68318C7.07736 7.131 8.10742 6.9409 9.11013 6.75986C10.0855 6.57881 11.0973 6.38872 11.8539 5.84559C12.6014 5.31151 13.0845 4.41534 13.5585 3.55538C14.0508 2.65922 14.5521 1.74495 15.2175 1.5277C15.8374 1.32855 16.7672 1.76305 17.6605 2.1885C18.5721 2.61396 19.5201 3.05751 20.4863 3.05751C21.4526 3.05751 22.4006 2.61396 23.3121 2.1885C24.2146 1.76305 25.1444 1.32855 25.7551 1.5277C26.4205 1.74495 26.9219 2.66827 27.4141 3.55538C27.8881 4.41534 28.3713 5.30245 29.1187 5.84559C29.8753 6.38872 30.8872 6.57881 31.8625 6.75986C32.8561 6.94995 33.8862 7.14005 34.2964 7.68318C34.6883 8.21726 34.5607 9.24921 34.4331 10.2359C34.3055 11.2226 34.1779 12.2364 34.4696 13.1326C34.7522 13.9835 35.4449 14.7167 36.1104 15.4137C36.8214 16.156 37.5597 16.9255 37.5597 17.6406C37.5597 18.3557 36.8214 19.1251 36.1104 19.8674C35.4358 20.5735 34.743 21.2977 34.4696 22.1486C34.1779 23.0447 34.3055 24.0586 34.4331 25.0453C34.5607 26.041 34.6883 27.0639 34.2964 27.598C33.8953 28.1502 32.8652 28.3403 31.8625 28.5213C30.8872 28.7023 29.8753 28.8924 29.1187 29.4356C28.3713 29.9697 27.8881 30.8658 27.4141 31.7258C26.9219 32.6219 26.4205 33.5362 25.7551 33.7535C25.1353 33.9526 24.2055 33.5181 23.3121 33.0927C22.4006 32.6672 21.4526 32.2236 20.4863 32.2236ZM31.3703 34.0522C30.9783 33.9526 30.5772 34.1789 30.477 34.5682L29.1734 39.4111L26.5937 34.9755C27.5691 34.4776 28.1434 33.4366 28.6994 32.4228C29.0914 31.7077 29.5016 30.9563 29.9756 30.6124C30.4678 30.2593 31.3065 30.0964 32.1269 29.9515C32.4186 29.8972 32.7103 29.8429 32.9929 29.7796L36.238 35.3647L31.3703 34.0522Z" fill="#13141A"/>
<path d="M27.3229 13.1958C27.0403 12.9152 26.5754 12.9152 26.2929 13.1958L18.9093 20.5281L14.6888 16.3369C14.4062 16.0563 13.9413 16.0563 13.6587 16.3369C13.3761 16.6175 13.3761 17.0792 13.6587 17.3598L18.3988 22.067C18.5355 22.2027 18.7178 22.2752 18.9184 22.2752C19.1189 22.2752 19.3012 22.2027 19.438 22.067L27.3229 14.2187C27.6055 13.9381 27.6055 13.4764 27.3229 13.1958Z" fill="#13141A"/>
</g>
</svg>
