<svg width="50" height="50" viewBox="0 0 50 50" fill="none" xmlns="http://www.w3.org/2000/svg">
<mask id="mask0_677_740" style="mask-type:alpha" maskUnits="userSpaceOnUse" x="0" y="0" width="50" height="50">
<rect width="50" height="50" fill="#D9D9D9"/>
</mask>
<g mask="url(#mask0_677_740)">
<path d="M22.1943 36.4058L18.4805 35.4083C18.4549 35.4003 18.4333 35.3829 18.4201 35.3596C18.4069 35.3362 18.4031 35.3087 18.4094 35.2826L19.4752 31.2966C19.6314 30.7056 19.548 30.0765 19.2433 29.5469C18.9385 29.0174 18.4371 28.6304 17.8488 28.4708L16.6227 28.1403C16.3579 28.0691 16.0757 28.1063 15.8381 28.2437C15.6005 28.381 15.427 28.6074 15.3556 28.873L14.6524 31.5139C14.1581 33.3658 12.9008 33.9328 10.1063 33.4867L10.1599 33.2864C10.2569 32.922 10.206 32.5338 10.0184 32.2069C9.83079 31.88 9.52173 31.641 9.15888 31.5423L5.26269 30.4953C4.89946 30.398 4.5126 30.449 4.1868 30.6373C3.861 30.8255 3.62281 31.1356 3.5244 31.4997L0.0483303 44.5238C-0.0489232 44.888 0.00183154 45.276 0.18945 45.6027C0.377069 45.9293 0.686217 46.1679 1.04901 46.2661L4.9455 47.313C5.1258 47.3622 5.31406 47.3749 5.4993 47.3503C5.68454 47.3257 5.86305 47.2644 6.0244 47.1698C6.18528 47.0772 6.32617 46.9533 6.43887 46.8055C6.55157 46.6576 6.63383 46.4888 6.68085 46.3087L6.8371 45.7252C7.75507 46.1063 8.52274 46.5385 9.04237 46.9707C9.95274 47.743 11.0254 48.2988 12.1801 48.5964L17.1054 49.9214C17.494 50.0252 17.903 50.0251 18.2917 49.9212C18.6803 49.8172 19.0351 49.613 19.3207 49.3289C19.6063 49.0447 19.8128 48.6905 19.9198 48.3015C20.0267 47.9124 20.0303 47.5021 19.9302 47.1112C20.2571 47.0604 20.5692 46.9394 20.8453 46.7566C21.1215 46.5738 21.3551 46.3334 21.5302 46.0518C21.7054 45.7702 21.818 45.454 21.8604 45.1248C21.9028 44.7956 21.8739 44.4611 21.7759 44.1441C22.1217 44.0573 22.4426 43.8911 22.7134 43.6585C22.9842 43.426 23.1974 43.1334 23.3363 42.804C23.4752 42.4746 23.5358 42.1174 23.5135 41.7604C23.4912 41.4035 23.3866 41.0566 23.2078 40.7472C23.1502 40.6469 23.0854 40.5511 23.0138 40.4604C23.3524 40.1966 23.6108 39.8431 23.7599 39.4399C23.909 39.0366 23.9429 38.5996 23.8577 38.178C23.7725 37.7565 23.5716 37.3672 23.2777 37.0541C22.9838 36.7409 22.6086 36.5164 22.1943 36.4058ZM5.33886 45.9832C5.33321 45.9867 5.32688 45.989 5.32029 45.9898C5.31371 45.9907 5.30702 45.9901 5.30067 45.9881L1.40526 44.9413C1.39292 44.9375 1.38242 44.9292 1.37573 44.9181C1.36904 44.9069 1.36663 44.8938 1.36894 44.881L4.8455 31.8568C4.84911 31.846 4.85596 31.8365 4.86514 31.8297C4.87431 31.8228 4.88535 31.819 4.89677 31.8187C4.90037 31.8187 4.90395 31.8192 4.90741 31.8202H4.90839L8.8037 32.8667C8.81642 32.8708 8.82716 32.8796 8.83386 32.8912C8.84056 32.9028 8.84276 32.9165 8.84003 32.9297L5.35956 45.9568C5.35813 45.9624 5.3555 45.9676 5.35186 45.9722C5.34822 45.9767 5.34365 45.9803 5.33847 45.9829L5.33886 45.9832ZM22.5038 38.881C22.439 39.1216 22.282 39.3267 22.067 39.4516C21.852 39.5764 21.5965 39.6108 21.3563 39.5473L18.0342 38.6526C17.859 38.6054 17.6724 38.63 17.5153 38.7209C17.3582 38.8119 17.2436 38.9617 17.1966 39.1374C17.1496 39.3131 17.1741 39.5004 17.2647 39.658C17.3553 39.8156 17.5046 39.9307 17.6798 39.9778L21.4564 40.9946C21.6956 41.0605 21.8992 41.2184 22.0231 41.4341C22.147 41.6497 22.1812 41.9056 22.1182 42.1463C22.0536 42.3868 21.8966 42.5918 21.6816 42.7163C21.4666 42.8408 21.2112 42.8747 20.9714 42.8106L20.2378 42.6127C20.2157 42.6062 20.1935 42.5998 20.1712 42.5938L17.1595 41.7828C17.0727 41.7594 16.9823 41.7534 16.8933 41.7651C16.8042 41.7769 16.7184 41.806 16.6406 41.851C16.4835 41.9419 16.3688 42.0917 16.3218 42.2674C16.2747 42.4432 16.2992 42.6304 16.3898 42.7881C16.4804 42.9457 16.6296 43.0608 16.8048 43.108L19.8589 43.931C20.0877 44.0057 20.2795 44.1653 20.3948 44.3771C20.5102 44.589 20.5404 44.8371 20.4794 45.0707C20.4148 45.3112 20.2578 45.5162 20.0428 45.6407C19.8277 45.7652 19.5723 45.7991 19.3324 45.7348L18.3785 45.478C18.3514 45.4696 18.3241 45.4616 18.2967 45.4542L16.3253 44.9251L16.3201 44.9238C16.2334 44.9005 16.1429 44.8945 16.0538 44.9062C15.9648 44.918 15.8789 44.9472 15.8011 44.9922C15.7234 45.0373 15.6552 45.0973 15.6005 45.1687C15.5458 45.2402 15.5057 45.3218 15.4824 45.4088C15.4591 45.4959 15.4532 45.5866 15.4649 45.676C15.4766 45.7653 15.5057 45.8515 15.5506 45.9295C15.5955 46.0076 15.6553 46.076 15.7265 46.1309C15.7978 46.1857 15.8791 46.226 15.9658 46.2493L17.994 46.7955C18.2246 46.873 18.4161 47.0374 18.5281 47.254C18.64 47.4705 18.6637 47.7223 18.5941 47.956C18.5245 48.1898 18.3671 48.3872 18.1551 48.5066C17.943 48.6261 17.693 48.6581 17.4579 48.596L12.5334 47.271C11.5694 47.0227 10.6739 46.5588 9.91386 45.9141C9.12011 45.2538 8.07646 44.7443 7.19355 44.3894L9.75058 34.8184C11.2418 35.069 12.34 35.0628 13.2552 34.8046C14.6433 34.4127 15.558 33.4251 15.9736 31.8676L16.5901 29.5515L17.4946 29.7953C17.7327 29.8606 17.9356 30.0176 18.0591 30.232C18.1826 30.4465 18.2169 30.7011 18.1544 30.9408L17.0881 34.9288C16.9881 35.3065 17.0415 35.7087 17.2366 36.047C17.4316 36.3854 17.7524 36.6324 18.1286 36.7338L21.8395 37.7304C22.0791 37.7955 22.2833 37.9529 22.4076 38.1684C22.532 38.3838 22.5664 38.6399 22.5034 38.8807L22.5038 38.881ZM7.08886 34.0158V34.0436C7.08886 34.2255 7.01684 34.3999 6.88864 34.5286C6.76044 34.6572 6.58656 34.7295 6.40526 34.7295C6.22396 34.7295 6.05009 34.6572 5.92189 34.5286C5.79369 34.3999 5.72167 34.2255 5.72167 34.0436V34.0158C5.72167 33.8339 5.79369 33.6595 5.92189 33.5308C6.05009 33.4022 6.22396 33.3299 6.40526 33.3299C6.58656 33.3299 6.76044 33.4022 6.88864 33.5308C7.01684 33.6595 7.08886 33.8339 7.08886 34.0158ZM49.9502 44.526L46.4724 31.4974C46.3736 31.1341 46.1355 30.8247 45.8102 30.6369C45.4848 30.4491 45.0986 30.3981 44.7359 30.4951L40.8402 31.5424C40.478 31.6418 40.1695 31.8806 39.9817 32.2069C39.7939 32.5332 39.742 32.9207 39.8373 33.2852L39.8911 33.4865C37.0987 33.9324 35.8411 33.3661 35.3452 31.514L34.6421 28.8717C34.5704 28.6063 34.3968 28.3802 34.1592 28.2431C33.9217 28.1059 33.6396 28.0689 33.3749 28.1401L32.1529 28.4702C31.5637 28.6289 31.0612 29.0155 30.7556 29.5453C30.45 30.0752 30.3663 30.705 30.5227 31.2966L31.5879 35.2803C31.5914 35.2938 31.5923 35.3079 31.5903 35.3218C31.5884 35.3356 31.5837 35.349 31.5766 35.361C31.5701 35.3726 31.5614 35.3828 31.551 35.391C31.5405 35.3991 31.5285 35.4051 31.5157 35.4085L27.8017 36.4058C27.3877 36.5168 27.0128 36.7415 26.7192 37.0548C26.4256 37.3681 26.225 37.7574 26.14 38.1789C26.0551 38.6003 26.0891 39.0373 26.2383 39.4404C26.3875 39.8435 26.6459 40.1968 26.9845 40.4605C26.9129 40.5511 26.8481 40.6469 26.7905 40.7471C26.6118 41.0565 26.5071 41.4034 26.4848 41.7603C26.4625 42.1173 26.5232 42.4745 26.6621 42.8039C26.801 43.1333 27.0142 43.4258 27.285 43.6583C27.5559 43.8909 27.8768 44.0571 28.2226 44.1438C28.0929 44.5604 28.0842 45.0053 28.1975 45.4267C28.3143 45.8584 28.553 46.2471 28.8849 46.5458C29.2168 46.8445 29.6277 47.0406 30.0682 47.1103C29.9672 47.5014 29.9701 47.9122 30.0768 48.3017C30.1834 48.6912 30.39 49.0459 30.6759 49.3303C30.9617 49.6147 31.317 49.8189 31.7061 49.9226C32.0952 50.0263 32.5046 50.0258 32.8934 49.9211L37.818 48.5963C38.9729 48.2985 40.0457 47.7424 40.9561 46.9697C41.4756 46.5375 42.2436 46.1056 43.1609 45.7253L43.3158 46.3048C43.3958 46.6073 43.573 46.8749 43.82 47.066C44.067 47.2572 44.3699 47.3612 44.6818 47.3621C44.8064 47.3621 44.9305 47.3456 45.0509 47.3131L48.9495 46.2656C49.3118 46.1676 49.6207 45.9295 49.8083 45.6034C49.9958 45.2772 50.0469 44.8898 49.9502 44.526ZM40.0839 45.9137C39.3237 46.5586 38.428 47.0226 37.4639 47.271L32.5396 48.5959C32.2998 48.6587 32.0449 48.6239 31.8305 48.4991C31.616 48.3743 31.4594 48.1697 31.3945 47.9296C31.3329 47.6968 31.3626 47.4491 31.4776 47.2377C31.5925 47.0262 31.7839 46.867 32.0124 46.793L34.0327 46.2494H34.034C34.2091 46.2024 34.3585 46.0874 34.4492 45.9299C34.5399 45.7723 34.5645 45.5851 34.5176 45.4093C34.4707 45.2336 34.3561 45.0837 34.1991 44.9927C34.042 44.9017 33.8554 44.877 33.6803 44.9241L31.702 45.4551C31.679 45.4613 31.6561 45.4679 31.6337 45.4747L30.6669 45.7349C30.4879 45.7836 30.2986 45.7778 30.1229 45.7182C29.9473 45.6586 29.7933 45.5479 29.6804 45.4003C29.5676 45.2526 29.5012 45.0746 29.4894 44.889C29.4777 44.7033 29.5213 44.5183 29.6146 44.3576C29.7296 44.1552 29.916 44.0034 30.137 43.9322L33.1963 43.108C33.3714 43.0608 33.5207 42.9457 33.6113 42.7881C33.7019 42.6305 33.7264 42.4433 33.6794 42.2675C33.6324 42.0918 33.5177 41.942 33.3606 41.8511C33.2036 41.7602 33.0169 41.7356 32.8418 41.7828L29.8281 42.5936C29.8041 42.6002 29.7802 42.607 29.7564 42.614L29.0281 42.81C28.9093 42.842 28.7853 42.8501 28.6634 42.834C28.5414 42.818 28.4237 42.7779 28.3172 42.7162C28.2106 42.6545 28.1172 42.5724 28.0423 42.4745C27.9674 42.3765 27.9124 42.2648 27.8806 42.1455C27.8487 42.0263 27.8405 41.9019 27.8566 41.7796C27.8726 41.6572 27.9125 41.5391 27.974 41.4322C28.0355 41.3253 28.1174 41.2316 28.215 41.1564C28.3125 41.0812 28.4239 41.0261 28.5428 40.9941L32.3212 39.9775C32.4963 39.9304 32.6456 39.8154 32.7363 39.6578C32.8269 39.5002 32.8515 39.3129 32.8045 39.1372C32.7575 38.9615 32.6429 38.8116 32.4858 38.7207C32.3288 38.6298 32.1421 38.6052 31.967 38.6523L28.6432 39.5464C28.5243 39.5784 28.4004 39.5866 28.2784 39.5705C28.1564 39.5544 28.0388 39.5144 27.9322 39.4527C27.8257 39.391 27.7323 39.3089 27.6573 39.211C27.5824 39.1131 27.5274 39.0013 27.4955 38.8821C27.4637 38.7629 27.4555 38.6385 27.4715 38.5161C27.4875 38.3937 27.5274 38.2757 27.5889 38.1688C27.6504 38.0619 27.7322 37.9681 27.8298 37.893C27.9274 37.8178 28.0388 37.7626 28.1576 37.7306L31.868 36.734C32.2446 36.6325 32.5658 36.3852 32.7609 36.0464C32.9561 35.7076 33.0094 35.305 32.9092 34.9268L31.8435 30.9415C31.7809 30.7012 31.8155 30.4459 31.9397 30.2311C32.064 30.0163 32.2678 29.8596 32.5068 29.795L33.4077 29.5517L34.0243 31.8691C34.4412 33.4258 35.3563 34.4135 36.7445 34.805C37.6597 35.0631 38.7572 35.0696 40.2471 34.8188L42.8042 44.3901C41.9212 44.7443 40.8779 45.2531 40.0839 45.9137ZM48.6241 44.9169C48.6211 44.9227 48.6169 44.9277 48.6119 44.9318C48.6068 44.9359 48.601 44.9389 48.5948 44.9407L44.6963 45.9881C44.6901 45.9898 44.6836 45.9902 44.6772 45.9893C44.6708 45.9884 44.6647 45.9862 44.6592 45.9828C44.6536 45.9798 44.6488 45.9757 44.6451 45.9706C44.6414 45.9655 44.6389 45.9596 44.6377 45.9534L44.2922 44.66C44.2892 44.6473 44.2855 44.6346 44.2819 44.6218L41.1591 32.9334C41.1559 32.9199 41.1578 32.9057 41.1644 32.8935C41.171 32.8813 41.1819 32.872 41.195 32.8674L45.0898 31.8201H45.0908C45.0943 31.8191 45.0979 31.8186 45.1015 31.8186C45.1125 31.8188 45.1233 31.8223 45.1324 31.8287C45.1414 31.8351 45.1483 31.8441 45.1521 31.8546L48.6295 44.8831C48.6309 44.8889 48.6311 44.8948 48.6302 44.9006C48.6293 44.9064 48.6272 44.912 48.6241 44.9169ZM44.2764 34.0158V34.0436C44.2764 34.1336 44.2587 34.2228 44.2243 34.306C44.19 34.3893 44.1396 34.4649 44.0761 34.5286C44.0127 34.5923 43.9373 34.6428 43.8544 34.6772C43.7714 34.7117 43.6825 34.7295 43.5928 34.7295C43.503 34.7295 43.4141 34.7117 43.3312 34.6772C43.2482 34.6428 43.1729 34.5923 43.1094 34.5286C43.0459 34.4649 42.9956 34.3893 42.9612 34.306C42.9268 34.2228 42.9092 34.1336 42.9092 34.0436V34.0158C42.9092 33.9258 42.9268 33.8366 42.9612 33.7533C42.9956 33.6701 43.0459 33.5945 43.1094 33.5308C43.1729 33.4671 43.2482 33.4166 43.3312 33.3821C43.4141 33.3477 43.503 33.3299 43.5928 33.3299C43.6825 33.3299 43.7714 33.3477 43.8544 33.3821C43.9373 33.4166 44.0127 33.4671 44.0761 33.5308C44.1396 33.5945 44.19 33.6701 44.2243 33.7533C44.2587 33.8366 44.2764 33.9258 44.2764 34.0158ZM30.9307 27.3774C31.0772 27.2704 31.1861 27.1195 31.2417 26.9465C31.2974 26.7734 31.2968 26.5871 31.2402 26.4144L29.3471 20.6106L34.2838 17.0266C34.4297 16.9187 34.5379 16.7673 34.593 16.5941C34.648 16.4208 34.6472 16.2345 34.5905 16.0618C34.5338 15.8891 34.4242 15.7387 34.2773 15.6322C34.1304 15.5257 33.9537 15.4685 33.7724 15.4687L27.6858 15.4815L25.8163 9.67196C25.7619 9.49902 25.6542 9.34787 25.5087 9.24033C25.3632 9.13278 25.1874 9.07438 25.0066 9.07357H24.9997C24.8181 9.07318 24.641 9.13069 24.494 9.2378C24.3471 9.3449 24.2378 9.49608 24.182 9.66951L22.3118 15.4815L16.2237 15.4687C16.042 15.4686 15.865 15.5264 15.7181 15.6337C15.5712 15.7409 15.4619 15.8921 15.406 16.0655C15.3501 16.239 15.3504 16.4257 15.4069 16.599C15.4634 16.7723 15.5731 16.9231 15.7204 17.0298L20.6508 20.6106L18.7601 26.4145C18.7032 26.5876 18.7025 26.7745 18.7581 26.9481C18.8138 27.1217 18.923 27.2731 19.07 27.3805C19.2169 27.4878 19.394 27.5456 19.5758 27.5454C19.7576 27.5452 19.9346 27.4871 20.0813 27.3795L24.999 23.78L29.9199 27.3817C30.0672 27.4883 30.2443 27.5454 30.426 27.5446C30.6076 27.5439 30.7843 27.4853 30.9307 27.3774ZM25.4017 22.3767C25.2847 22.291 25.1437 22.2449 24.9988 22.2449C24.854 22.2449 24.7129 22.291 24.5959 22.3767L20.5492 25.3384L22.1055 20.5609C22.1505 20.4228 22.1506 20.274 22.1059 20.1358C22.0611 19.9977 21.9738 19.8773 21.8565 19.7921L17.7967 16.8428L22.8078 16.8534H22.8092C22.9538 16.8534 23.0947 16.8074 23.2116 16.722C23.3285 16.6366 23.4154 16.5162 23.4599 16.3781L24.999 11.596L26.538 16.3784C26.5825 16.5168 26.6696 16.6373 26.7868 16.7227C26.904 16.8081 27.0452 16.854 27.19 16.8537L32.2033 16.8431L28.1414 19.7918C28.024 19.877 27.9366 19.9974 27.8919 20.1357C27.8471 20.2739 27.8473 20.4229 27.8924 20.561L29.4514 25.3402L25.4017 22.3767ZM34.0988 19.5147C34.0457 19.6781 34.0458 19.8541 34.099 20.0174C34.1521 20.1807 34.2557 20.3228 34.3946 20.4232L37.8632 22.9408L36.5341 27.0236C36.4806 27.187 36.4802 27.3633 36.5328 27.5269C36.5854 27.6906 36.6884 27.8334 36.827 27.9346C36.9656 28.0359 37.1326 28.0905 37.304 28.0905C37.4754 28.0906 37.6424 28.0361 37.781 27.9349L41.2392 25.4021L44.7005 27.9364C44.8394 28.037 45.0066 28.091 45.178 28.0905C45.3494 28.09 45.5162 28.0351 45.6546 27.9336C45.793 27.8322 45.8959 27.6894 45.9484 27.5257C46.001 27.362 46.0005 27.1858 45.9472 27.0224L44.6162 22.9407L48.0839 20.4237C48.223 20.323 48.3268 20.1805 48.3801 20.0169C48.4335 19.8533 48.4337 19.6769 48.3808 19.5132C48.3279 19.3494 48.2245 19.2067 48.0856 19.1057C47.9468 19.0046 47.7795 18.9503 47.6079 18.9507L43.3261 18.9582L42.0121 14.8711L42.0099 14.8648C41.9555 14.7012 41.8508 14.5593 41.7108 14.4593C41.5708 14.3593 41.4029 14.3064 41.231 14.3083C41.0612 14.3093 40.896 14.3642 40.7593 14.4653C40.6225 14.5663 40.5212 14.7083 40.4699 14.8707L39.1534 18.9582L34.87 18.9507C34.6985 18.9505 34.5313 19.005 34.3927 19.1064C34.254 19.2078 34.1511 19.3508 34.0988 19.5147ZM39.6495 20.3313H39.6507C39.7953 20.3314 39.9363 20.2854 40.0533 20.2001C40.1703 20.1147 40.2573 19.9943 40.3018 19.8561L41.2409 16.9402L42.1784 19.8557C42.2228 19.9939 42.3097 20.1144 42.4266 20.1998C42.5436 20.2853 42.6845 20.3313 42.8292 20.3313H42.8304L45.8862 20.3259L43.4111 22.1224C43.2937 22.2076 43.2063 22.328 43.1615 22.4662C43.1168 22.6045 43.1169 22.7534 43.162 22.8916L44.1129 25.807L41.6426 23.9988C41.5255 23.9131 41.3844 23.8669 41.2395 23.8669C41.0947 23.8669 40.9535 23.9131 40.8365 23.9988L38.3692 25.8055L39.318 22.8912C39.3629 22.7531 39.363 22.6042 39.3182 22.466C39.2734 22.3279 39.186 22.2075 39.0686 22.1224L36.5935 20.3259L39.6495 20.3313ZM1.91308 20.4232L5.38144 22.9407L4.05009 27.0225C4.04853 27.0275 4.04696 27.0323 4.0455 27.0375C3.9958 27.2009 3.99853 27.3758 4.05331 27.5376C4.10808 27.6993 4.21213 27.8397 4.35076 27.9389C4.48938 28.038 4.65555 28.091 4.8258 28.0902C4.99605 28.0895 5.16176 28.0351 5.2995 27.9347L8.758 25.4021L12.2192 27.9364C12.3571 28.036 12.5227 28.0897 12.6927 28.09C12.8626 28.0902 13.0284 28.037 13.1666 27.9377C13.3048 27.8385 13.4084 27.6982 13.463 27.5367C13.5176 27.3752 13.5203 27.2007 13.4708 27.0375C13.4692 27.0324 13.4676 27.0277 13.466 27.0224L12.1347 22.9407L15.6023 20.4237C15.7415 20.3229 15.8453 20.1805 15.8986 20.0168C15.952 19.8532 15.9522 19.6768 15.8992 19.513C15.8462 19.3492 15.7428 19.2065 15.6039 19.1055C15.4649 19.0044 15.2976 18.9503 15.126 18.9507L10.8441 18.9582L9.53026 14.8711L9.52821 14.865C9.47406 14.7023 9.37012 14.5609 9.2312 14.4609C9.09228 14.3609 8.92546 14.3074 8.7545 14.3081C8.58354 14.3088 8.41716 14.3636 8.27904 14.4647C8.14092 14.5658 8.03811 14.708 7.98524 14.8711L6.67157 18.9582L2.38856 18.9507C2.21716 18.9506 2.05012 19.005 1.91145 19.1061C1.77278 19.2071 1.66962 19.3497 1.61678 19.5133C1.56395 19.6769 1.56417 19.8531 1.61741 20.0166C1.67064 20.1801 1.77416 20.3224 1.91308 20.4232ZM7.16796 20.3313H7.16913C7.31378 20.3313 7.45471 20.2852 7.57163 20.1998C7.68855 20.1143 7.77545 19.9939 7.81982 19.8557L8.758 16.9375L9.69628 19.8561C9.74065 19.9943 9.82754 20.1147 9.94447 20.2002C10.0614 20.2856 10.2023 20.3317 10.347 20.3316H10.3481L13.4041 20.3263L10.9289 22.1228C10.8115 22.208 10.7241 22.3284 10.6794 22.4667C10.6346 22.6049 10.6348 22.7538 10.6799 22.892L11.6308 25.8074L9.16112 23.9988C9.0441 23.9131 8.90294 23.8669 8.75805 23.8669C8.61315 23.8669 8.472 23.9131 8.35497 23.9988L5.88534 25.807L6.83622 22.8916C6.88129 22.7534 6.88145 22.6045 6.83667 22.4662C6.7919 22.328 6.7045 22.2076 6.5871 22.1224L4.112 20.3259L7.16796 20.3313ZM33.291 10.8215L38.0162 8.08294C38.0939 8.0379 38.1798 8.00867 38.2688 7.99692C38.3578 7.98516 38.4482 7.99111 38.5349 8.01443C38.6217 8.03774 38.7029 8.07797 38.7742 8.1328C38.8454 8.18764 38.9052 8.25602 38.95 8.33403C38.9949 8.41204 39.0241 8.49815 39.0358 8.58746C39.0475 8.67676 39.0416 8.76751 39.0183 8.85452C38.9951 8.94152 38.955 9.02309 38.9003 9.09455C38.8457 9.16601 38.7775 9.22597 38.6998 9.27101L33.9746 12.0096C33.8969 12.0546 33.811 12.0839 33.722 12.0956C33.633 12.1074 33.5426 12.1014 33.4559 12.0781C33.3691 12.0548 33.2878 12.0146 33.2166 11.9597C33.1454 11.9049 33.0856 11.8365 33.0408 11.7585C32.9959 11.6805 32.9667 11.5944 32.955 11.5051C32.9433 11.4158 32.9492 11.325 32.9725 11.238C32.9957 11.151 33.0358 11.0694 33.0905 10.998C33.1451 10.9265 33.2133 10.8666 33.291 10.8215ZM16.9658 4.37597C16.8752 4.2184 16.8506 4.03115 16.8976 3.85541C16.9445 3.67968 17.0591 3.52985 17.2162 3.43889C17.3732 3.34794 17.5598 3.3233 17.735 3.37041C17.9101 3.41752 18.0594 3.53251 18.1501 3.69008L20.8795 8.43392C20.9701 8.59148 20.9947 8.77872 20.9478 8.95445C20.9008 9.13018 20.7862 9.28 20.6292 9.37095C20.4722 9.46191 20.2855 9.48655 20.1104 9.43945C19.9353 9.39235 19.786 9.27738 19.6953 9.11982L16.9658 4.37597ZM29.2923 7.78702L32.0188 3.04318C32.0637 2.96513 32.1235 2.89672 32.1947 2.84185C32.266 2.78698 32.3473 2.74672 32.434 2.72338C32.5208 2.70003 32.6112 2.69406 32.7003 2.7058C32.7893 2.71754 32.8752 2.74677 32.953 2.7918C33.0308 2.83684 33.0989 2.89681 33.1536 2.96828C33.2083 3.03976 33.2484 3.12134 33.2717 3.20838C33.295 3.29541 33.3009 3.38619 33.2892 3.47553C33.2775 3.56487 33.2484 3.65103 33.2035 3.72908L30.4769 8.47292C30.3863 8.63054 30.2369 8.74558 30.0618 8.79273C29.8866 8.83987 29.6999 8.81526 29.5428 8.7243C29.3857 8.63335 29.2711 8.4835 29.2241 8.30773C29.1771 8.13195 29.2016 7.94465 29.2923 7.78702ZM11.6926 9.4559C11.7375 9.37787 11.7972 9.30948 11.8685 9.25463C11.9397 9.19979 12.0211 9.15957 12.1078 9.13626C12.1945 9.11296 12.285 9.10703 12.374 9.11882C12.4631 9.13061 12.5489 9.15988 12.6267 9.20496L17.3519 11.9436C17.4297 11.9887 17.4978 12.0486 17.5525 12.1201C17.6071 12.1916 17.6472 12.2731 17.6705 12.3601C17.6937 12.4471 17.6996 12.5379 17.6879 12.6272C17.6762 12.7165 17.6471 12.8026 17.6022 12.8806C17.5573 12.9586 17.4975 13.027 17.4263 13.0818C17.3551 13.1367 17.2738 13.1769 17.1871 13.2002C17.1004 13.2235 17.0099 13.2295 16.9209 13.2177C16.8319 13.206 16.7461 13.1767 16.6684 13.1317L11.9424 10.393C11.8646 10.348 11.7965 10.288 11.7419 10.2165C11.6873 10.145 11.6472 10.0634 11.624 9.97638C11.6008 9.88936 11.5949 9.79861 11.6067 9.7093C11.6185 9.62 11.6476 9.53389 11.6926 9.4559ZM24.3154 7.16325V1.68589C24.3154 1.50398 24.3874 1.32952 24.5156 1.20089C24.6438 1.07226 24.8177 1 24.999 1C25.1803 1 25.3542 1.07226 25.4824 1.20089C25.6106 1.32952 25.6826 1.50398 25.6826 1.68589V7.16325C25.6826 7.34516 25.6106 7.51962 25.4824 7.64825C25.3542 7.77688 25.1803 7.84915 24.999 7.84915C24.8177 7.84915 24.6438 7.77688 24.5156 7.64825C24.3874 7.51962 24.3154 7.34516 24.3154 7.16325Z" fill="#13141A"/>
</g>
</svg>
