<svg width="50" height="50" viewBox="0 0 50 50" fill="none" xmlns="http://www.w3.org/2000/svg">
<mask id="mask0_611_1569" style="mask-type:alpha" maskUnits="userSpaceOnUse" x="0" y="0" width="50" height="50">
<rect width="50" height="50" fill="#D9D9D9"/>
</mask>
<g mask="url(#mask0_611_1569)">
<mask id="mask1_611_1569" style="mask-type:alpha" maskUnits="userSpaceOnUse" x="0" y="0" width="50" height="50">
<path fill-rule="evenodd" clip-rule="evenodd" d="M0 0H50V50H0V0Z" fill="white"/>
</mask>
<g mask="url(#mask1_611_1569)">
<path fill-rule="evenodd" clip-rule="evenodd" d="M5.9988 40.0534L6.74844 40.1324C7.10365 40.1723 7.10365 40.4484 7.10365 40.6458V41.5533H3.63095V40.6458C3.63095 40.4487 3.67049 40.1723 4.02569 40.1324L4.77534 40.0534V39.3037H0.276855V40.0534L1.02681 40.1324C1.34248 40.1723 1.38171 40.4484 1.38171 40.6458V43.5659C1.38171 43.7636 1.34248 44.04 1.02681 44.0792L0.276855 44.1583V44.908H4.77564V44.1583L4.026 44.0792C3.67079 44.04 3.63125 43.7639 3.63125 43.5659V42.6979H7.10395V43.5659C7.10395 43.7636 7.10395 44.04 6.74875 44.0792L5.9991 44.1583V44.908H10.4976V44.1583L9.74794 44.0792C9.43227 44.04 9.39273 43.7639 9.39273 43.5659V40.6458C9.39273 40.4487 9.43227 40.1723 9.74794 40.1324L10.4976 40.0534V39.3037H5.9988V40.0534ZM36.109 39.3037H30.5446V40.0534L31.2158 40.1324C31.4521 40.1723 31.6102 40.2513 31.6102 40.6065V43.5656C31.6102 43.7633 31.571 44.0397 31.2158 44.0789L30.4655 44.158V44.9077H36.109C38.1213 44.9077 39.7791 44.1188 39.7791 42.1058C39.7794 40.0932 38.1213 39.3037 36.109 39.3037ZM35.7146 43.8417H33.8202V40.3693H35.7146C36.8194 40.3693 37.1746 40.8827 37.1746 42.1055C37.1746 43.329 36.8194 43.8417 35.7146 43.8417Z" fill="#C23C40"/>
<path fill-rule="evenodd" clip-rule="evenodd" d="M49.2899 44.0785C48.9347 44.0392 48.8158 43.8023 48.6978 43.6442L46.0933 39.6588C45.8962 39.3826 45.7773 39.3036 45.5012 39.3036H41.2393V40.0532L42.2259 40.1721C42.384 40.1721 42.5811 40.3692 42.4229 40.6456L40.4897 43.7634C40.4106 43.8817 40.3315 44.0395 40.0946 44.0788L39.345 44.1579V44.9075H42.9363V44.1579L42.3442 44.1186C42.068 44.0788 41.9099 43.8817 42.068 43.6843L42.3442 43.2102H45.8172L46.0541 43.6053C46.2904 43.9206 46.0142 44.0788 45.7381 44.0788L45.1068 44.1579V44.9075H50V44.1579L49.2899 44.0785ZM42.936 42.1844L44.0016 40.4875L45.1457 42.1844H42.936ZM26.48 40.0532L27.2694 40.1323C27.5848 40.1721 27.6247 40.4482 27.6247 40.6456V43.4474L24.6647 39.5408C24.5069 39.3431 24.3886 39.3039 24.0729 39.3039H20.2054V40.0535L20.9551 40.1326C21.3103 40.1724 21.3498 40.4485 21.3498 40.6459V43.566C21.3498 43.7637 21.3103 44.0402 20.9551 44.0794L20.2054 44.1585V44.9081H23.7964V44.1585L23.0465 44.0794C22.7308 44.0402 22.6913 43.764 22.6913 43.566V40.7642L25.6512 44.6715C25.8094 44.8686 25.9274 44.9078 26.2428 44.9078H28.9661V40.6459C28.9661 40.4489 29.0053 40.1724 29.3606 40.1326L30.1102 40.0535V39.3039H26.4797V40.0532H26.48ZM15.3515 39.1065C11.6814 39.1065 10.7344 40.7244 10.7344 42.1054C10.7344 43.5262 11.6814 45.1049 15.3515 45.1049C19.0215 45.1049 19.9688 43.5262 19.9688 42.1054C19.9685 40.7244 19.0215 39.1065 15.3515 39.1065ZM15.3515 44.0392C13.9309 44.0392 13.3388 43.4471 13.3388 42.1054C13.3388 40.7636 13.9306 40.1721 15.3515 40.1721C16.7723 40.1721 17.3641 40.7636 17.3641 42.1054C17.3641 43.4471 16.7723 44.0392 15.3515 44.0392ZM13.3783 38.2379L10.6553 35.7122L24.3886 34.1342L31.0186 38.2379H13.3783ZM36.5033 27.4643L7.61656 32.8712L10.1027 35.1989L23.4412 33.5418C23.2043 33.4235 23.1651 33.3049 23.1651 33.1473C23.1651 32.9892 23.2834 32.8314 23.52 32.7921C23.6386 32.7921 30.8997 31.7265 31.4127 31.6474C31.649 31.6076 32.2414 31.4893 32.8728 31.1739C33.5041 30.8978 33.8986 30.5818 34.1355 30.3446C34.3325 30.1871 34.8851 29.595 35.2802 29.1607C35.5042 28.9363 35.715 28.6991 35.9115 28.4503C36.0697 28.2532 36.4249 27.8189 36.5821 27.6215C36.6222 27.5434 36.5824 27.4643 36.5033 27.4643ZM41.042 21.1506L4.93335 30.4243L7.10382 32.4372L18.2323 30.306C18.0353 30.1877 17.9167 30.1089 17.9167 29.9115C17.9182 29.8244 17.9509 29.7407 18.0088 29.6755C18.0667 29.6104 18.146 29.5681 18.2323 29.5563L36.3063 26.0441C36.5432 26.0046 37.1745 25.886 37.7663 25.4915C38.3584 25.1363 38.6744 24.7419 38.8718 24.5442C39.1081 24.2681 39.5424 23.7155 39.8583 23.321C40.0946 23.0054 40.2926 22.6897 40.4498 22.4531C40.608 22.2165 40.9632 21.5848 41.1603 21.3087C41.1998 21.2293 41.121 21.111 41.042 21.1506Z" fill="#C23C40"/>
<path fill-rule="evenodd" clip-rule="evenodd" d="M36.267 10.6535C36.7405 10.4561 39.1479 9.43 39.6604 9.15356C40.2132 8.91696 41.7916 8.20654 42.3837 7.93041C43.0543 7.65427 44.9486 6.74648 45.2248 6.62818C46.5665 5.99684 48.2243 5.20766 48.5396 5.01029C48.6187 4.97075 48.7765 5.04982 48.7367 5.16812C48.4542 6.079 48.1249 6.9747 47.7501 7.85164C47.5139 8.40422 47.1586 9.1934 46.8427 9.70644C46.4482 10.3381 46.0538 10.7718 45.7378 11.0482C45.0672 11.6799 44.5144 11.9955 43.9225 12.2324C43.5673 12.3507 42.8177 12.6664 42.3047 12.8638C42.1864 12.9033 40.1734 13.653 39.7391 13.7713L4.14388 26.3598C3.31517 26.636 2.36815 27.1882 2.36815 28.2539C2.36815 28.728 2.64459 29.3593 3.19687 29.8718L12.1944 38.238H8.01132C7.93256 38.0017 7.81395 37.6465 7.65612 37.4093C7.49828 37.1721 7.41952 36.9358 6.9457 36.5018C6.5908 36.1067 6.23559 35.7521 6.11699 35.6335L1.38129 30.8985C0.473813 30.0302 0 28.8855 0 27.8597C0 26.4389 0.789181 25.0579 3.15703 24.1106L36.267 10.6535Z" fill="#C23C40"/>
<path fill-rule="evenodd" clip-rule="evenodd" d="M40.1734 15.4284C40.6469 15.2706 41.555 14.9549 41.7912 14.8761C42.0282 14.7974 42.9752 14.4422 43.133 14.4026C43.7644 14.1265 44.3957 13.8896 45.0669 13.6134C45.1453 13.5739 45.264 13.653 45.2244 13.7713C45.1453 13.9686 44.7117 14.8366 44.5931 15.034C44.3169 15.5865 44.0408 16.0996 43.7644 16.5336C43.4882 16.9678 43.133 17.5596 42.8964 17.8361C42.5014 18.3096 42.1462 18.6253 41.5939 19.02C40.8835 19.4935 40.2521 19.6514 39.976 19.77L13.7335 26.7938C13.5364 26.833 13.4574 27.07 13.4574 27.149C13.4574 27.3072 13.5757 27.4644 13.7335 27.5435L4.42027 29.9508L3.67062 29.2404C3.39448 29.0041 3.27588 28.6489 3.27588 28.3725C3.27588 27.7013 3.78892 27.3859 4.61794 27.1098L40.1734 15.4284Z" fill="#C23C40"/>
</g>
</g>
</svg>
