<svg width="32" height="32" viewBox="0 0 32 32" fill="none" xmlns="http://www.w3.org/2000/svg">
<mask id="mask0_1199_1145" style="mask-type:alpha" maskUnits="userSpaceOnUse" x="0" y="0" width="32" height="32">
<rect width="32" height="32" fill="#D9D9D9"/>
</mask>
<g mask="url(#mask0_1199_1145)">
<mask id="mask1_1199_1145" style="mask-type:alpha" maskUnits="userSpaceOnUse" x="0" y="0" width="32" height="32">
<rect width="32" height="32" fill="#D9D9D9"/>
</mask>
<g mask="url(#mask1_1199_1145)">
<path fill-rule="evenodd" clip-rule="evenodd" d="M0.411865 21.9693H1.65055V24.3291H3.86335V21.9693H5.08656V28.5922H3.86335V25.8036H1.63471V28.5657H0.411865V21.9693ZM5.22567 21.9693H6.43267L7.70194 24.5168L8.95574 21.9693H10.1474L8.30553 26.0182V28.5922H7.08287V25.8305L5.22567 21.9693ZM10.3022 21.9693H11.5251V27.0908H13.4906C13.8001 27.0908 14.0013 26.5554 14.0013 25.9917V21.9693H15.2238V27.252C15.2238 28.083 14.6823 28.5657 14.3726 28.5657H10.3022V21.9693ZM15.4869 21.9693H19.5578C20.0376 21.9693 20.4245 22.4782 20.4245 23.5117V28.5789L19.2019 28.5922V24.5701C19.2019 24.0079 19.0933 23.6726 18.6755 23.6726H16.8337V28.607H15.4869V21.9693ZM20.7961 21.9693H24.3556C25.0679 21.9693 25.6174 22.9612 25.6174 23.7253V26.769C25.6096 27.305 25.176 28.5919 24.6345 28.5919H20.7963L20.7961 21.9693ZM22.0419 27.1179H23.9206C24.1912 27.1179 24.4004 26.7693 24.4004 26.3397V24.4092C24.4004 23.9398 24.1777 23.6593 23.8918 23.6593H22.0419V27.1179ZM27.1267 21.9412H30.9418V28.5922H29.5794V26.8769H27.2345V28.5922H25.8572V24.2745C25.8261 22.8271 26.5693 21.9412 27.1267 21.9412ZM27.219 24.3029V25.3743H29.5718V23.6842H27.5902C27.3584 23.6846 27.219 23.9265 27.219 24.3029ZM31.1892 21.9561H32.4119V28.7935H31.1892V21.9561ZM16.4863 2.79346C11.4125 2.79346 7.29918 6.31233 7.29918 10.6518C7.29918 14.9915 11.4125 18.5107 16.4863 18.5107C21.5598 18.5107 25.6733 14.9918 25.6733 10.6518C25.6731 6.31264 21.5596 2.79346 16.4863 2.79346ZM15.6147 4.54248C16.6633 3.90016 19.7787 4.54248 20.9888 5.54949C21.3761 6.19307 19.2619 8.26073 16.7447 9.15701C13.1457 10.4145 14.8562 5.60502 15.6147 4.54248ZM9.43406 13.8539C8.64292 12.8765 7.0938 10.0795 9.66002 7.17169C11.0156 5.80188 11.774 5.49334 12.7098 5.1583C13.1619 4.98983 13.4846 5.18606 13.0811 5.77349C12.2259 7.31145 10.4506 12.3995 10.2895 13.5188C10.16 14.2744 9.902 14.4691 9.43406 13.8539ZM16.8248 17.0983C15.3081 17.3772 11.9355 16.5109 11.8706 15.7569C11.9355 13.9381 17.2285 10.9183 18.1804 12.5961C18.5842 13.91 17.8097 17.0141 16.8248 17.0983ZM24.5391 11.8121C24.1515 13.3504 22.8445 15.0849 20.1013 16.2594C19.6813 16.426 19.5362 15.9793 19.8104 15.5597C20.2627 15.0846 22.4412 8.7655 22.7154 7.50642C22.8769 6.86284 23.1834 7.11554 23.3773 7.36666C24.2489 8.34496 24.9104 9.93909 24.5391 11.8121Z" fill="#295BA7"/>
</g>
</g>
</svg>
