<svg width="32" height="32" viewBox="0 0 32 32" fill="none" xmlns="http://www.w3.org/2000/svg">
<mask id="mask0_1199_1247" style="mask-type:alpha" maskUnits="userSpaceOnUse" x="0" y="0" width="32" height="32">
<rect width="32" height="32" fill="#D9D9D9"/>
</mask>
<g mask="url(#mask0_1199_1247)">
<path fill-rule="evenodd" clip-rule="evenodd" d="M8.29981 20.9989C8.29981 22.674 7.04164 24.0269 5.48832 24.0269C3.93482 24.0269 2.67847 22.674 2.67847 20.9989C2.67847 19.3269 3.93482 17.9727 5.48832 17.9727C7.04164 17.9727 8.29981 19.3267 8.29981 20.9989ZM30.2568 20.9989C30.2568 22.674 28.9968 24.0269 27.4453 24.0269C25.892 24.0269 24.632 22.674 24.632 20.9989C24.632 19.3269 25.892 17.9727 27.4453 17.9727C28.9968 17.9727 30.2568 19.3267 30.2568 20.9989ZM9.76245 18.4988C9.39775 18.4988 9.10405 18.8247 9.10405 19.07V27.2671C9.10405 27.5123 9.39775 27.8411 9.76245 27.8411C10.1273 27.8411 10.4227 27.5123 10.4227 27.2671V19.07C10.4227 18.8247 10.1273 18.4988 9.76245 18.4988ZM11.994 18.4988C11.6328 18.4988 11.3374 18.8247 11.3374 19.07V27.2671C11.3374 27.5123 11.633 27.8411 11.994 27.8411C12.3587 27.8411 12.6542 27.5123 12.6542 27.2671V19.07C12.6542 18.8247 12.3587 18.4988 11.994 18.4988ZM14.2272 18.4988C13.8607 18.4988 13.5672 18.8247 13.5672 19.07V27.2671C13.5672 27.5123 13.8607 27.8411 14.2272 27.8411C14.5903 27.8411 14.8856 27.5123 14.8856 27.2671V19.07C14.8856 18.8247 14.5903 18.4988 14.2272 18.4988ZM16.4568 18.4988C16.0939 18.4988 15.8002 18.8247 15.8002 19.07V27.2671C15.8002 27.5123 16.0939 27.8411 16.4568 27.8411C16.8251 27.8411 17.1225 27.5123 17.1225 27.2671V19.07C17.1225 18.8247 16.8251 18.4988 16.4568 18.4988ZM18.6973 18.4988C18.3324 18.4988 18.0354 18.8247 18.0354 19.07V27.2671C18.0354 27.5123 18.3324 27.8411 18.6973 27.8411C19.0603 27.8411 19.3559 27.5123 19.3559 27.2671V19.07C19.3559 18.8247 19.0603 18.4988 18.6973 18.4988ZM20.927 18.4988C20.5621 18.4988 20.2688 18.8247 20.2688 19.07V27.2671C20.2688 27.5123 20.5621 27.8411 20.927 27.8411C21.2919 27.8411 21.5856 27.5123 21.5856 27.2671V19.07C21.5856 18.8247 21.2919 18.4988 20.927 18.4988ZM23.1602 18.4988C22.7953 18.4988 22.4998 18.8247 22.4998 19.07V27.2671C22.4998 27.5123 22.7953 27.8411 23.1602 27.8411C23.5233 27.8411 23.8184 27.5123 23.8184 27.2671V19.07C23.8186 18.8247 23.5235 18.4988 23.1602 18.4988Z" fill="#505E31"/>
<path fill-rule="evenodd" clip-rule="evenodd" d="M31.5522 3.84131L1.27074 3.84523C0.33995 3.84523 0.412964 4.76907 0.412964 4.76907V20.499C0.792053 18.1111 2.71918 16.2915 5.04325 16.2915H27.8205C30.0733 16.2915 31.9508 17.997 32.4116 20.271V4.77103C32.4118 4.77083 32.4118 3.84131 31.5522 3.84131Z" fill="#505E31"/>
<path fill-rule="evenodd" clip-rule="evenodd" d="M19.3628 8.83187C18.7931 8.83187 18.373 9.26683 18.2703 9.96064L18.2647 10.0075H20.3717V9.96535C20.3397 9.32272 19.9054 8.83187 19.3628 8.83187ZM13.6898 8.83187C13.1167 8.83187 12.6985 9.26683 12.5989 9.96064L12.5918 10.0075H14.6968L14.695 9.96535C14.665 9.32272 14.2325 8.83187 13.6898 8.83187ZM25.4663 13.3185C24.872 13.3185 24.4059 13.0742 24.0765 12.5988L24.0657 12.5835H23.9874V14.9591H22.4338V7.88038H23.911V8.50046H23.9874L24.0013 8.48418C24.3092 7.98687 24.7722 7.72429 25.3416 7.72429C26.9553 7.72429 27.5283 9.29389 27.5283 10.6403C27.5287 11.9713 26.8918 13.3185 25.4663 13.3185ZM21.9268 10.9104H18.2681L18.2703 10.9525C18.3038 11.7403 18.7344 12.2097 19.4214 12.2097C19.8592 12.2097 20.2169 11.9836 20.3717 11.6195H21.8254C21.5463 12.6821 20.6476 13.3185 19.4036 13.3185C17.7432 13.3185 16.713 12.2403 16.713 10.506C16.713 8.94777 17.8767 7.72409 19.3628 7.72409C20.1188 7.72409 20.7526 7.99334 21.1993 8.49634C21.6727 9.03013 21.9321 9.82258 21.9321 10.735C21.9321 10.7962 21.9287 10.8509 21.9268 10.9104ZM16.252 10.9104H12.5953V10.9525C12.6255 11.7403 13.0579 12.2097 13.7466 12.2097C14.1826 12.2097 14.5421 11.9836 14.6968 11.6195H16.1507C15.8712 12.6821 14.971 13.3185 13.7289 13.3185C12.0722 13.3185 11.0399 12.2403 11.0399 10.506C11.0399 8.94777 12.2038 7.72409 13.6896 7.72409C14.4441 7.72409 15.0757 7.99334 15.526 8.49634C15.9992 9.03013 16.2556 9.82258 16.2556 10.735C16.2556 10.7962 16.254 10.8509 16.252 10.9104ZM10.5134 10.8674C10.5134 12.5155 9.74282 13.3187 8.15545 13.3187C6.54149 13.3187 5.79224 12.4486 5.79224 10.5886V10.3087H7.39563V10.9498C7.39563 11.4577 7.66256 11.7442 8.12522 11.7442C8.59499 11.7442 8.80492 11.4365 8.80492 10.7447V5.86523H10.5134V10.8674ZM24.9663 8.98719C24.4663 8.98719 23.9304 9.37723 23.9304 10.4648C23.9304 11.5361 24.2669 12.0536 24.9592 12.0536C25.7046 12.0536 25.9734 11.2343 25.9734 10.4648C25.9736 9.75179 25.7083 8.98719 24.9663 8.98719ZM28.2903 14.7799C28.0034 14.7798 27.7283 14.657 27.5254 14.4385C27.3226 14.22 27.2086 13.9236 27.2086 13.6146C27.2086 12.9736 27.6944 12.4484 28.2903 12.4484C28.8863 12.4484 29.3721 12.9736 29.3721 13.6146C29.3721 13.7676 29.3441 13.9191 29.2898 14.0605C29.2354 14.2019 29.1558 14.3303 29.0553 14.4386C28.9549 14.5468 28.8356 14.6326 28.7043 14.6912C28.5731 14.7497 28.4324 14.7799 28.2903 14.7799ZM28.2903 12.7406C28.0753 12.7413 27.8692 12.8336 27.7172 12.9973C27.5651 13.1611 27.4794 13.383 27.4788 13.6146C27.4788 14.0949 27.8437 14.4857 28.2903 14.4857C28.737 14.4857 29.1019 14.0947 29.1019 13.6146C29.1012 13.383 29.0155 13.1611 28.8634 12.9974C28.7114 12.8336 28.5054 12.7413 28.2903 12.7406ZM28.4628 14.2423L28.2867 13.7556H28.0979V14.2423H27.8259V13.0118H28.3295C28.4772 13.0118 28.5556 13.0357 28.6268 13.0951C28.698 13.1622 28.7459 13.2724 28.7459 13.3816C28.7459 13.4966 28.6944 13.605 28.6143 13.6615C28.6001 13.676 28.58 13.6836 28.5463 13.6989L28.7583 14.2423H28.4628ZM28.2567 13.2303H28.0981V13.5446H28.2603C28.4096 13.5446 28.4701 13.4995 28.4701 13.3846C28.4701 13.2724 28.4131 13.2303 28.2567 13.2303Z" fill="white"/>
</g>
</svg>
