<svg width="32" height="32" viewBox="0 0 32 32" fill="none" xmlns="http://www.w3.org/2000/svg">
<mask id="mask0_1332_5178" style="mask-type:alpha" maskUnits="userSpaceOnUse" x="0" y="0" width="32" height="32">
<rect width="32" height="32" fill="#D9D9D9"/>
</mask>
<g mask="url(#mask0_1332_5178)">
<path fill-rule="evenodd" clip-rule="evenodd" d="M7.88794 21.5214C7.88794 23.1965 6.62977 24.5494 5.07645 24.5494C3.52295 24.5494 2.2666 23.1965 2.2666 21.5214C2.2666 19.8494 3.52295 18.4951 5.07645 18.4951C6.62977 18.4951 7.88794 19.8492 7.88794 21.5214ZM29.8449 21.5214C29.8449 23.1965 28.5849 24.5494 27.0334 24.5494C25.4801 24.5494 24.2201 23.1965 24.2201 21.5214C24.2201 19.8494 25.4801 18.4951 27.0334 18.4951C28.5849 18.4951 29.8449 19.8492 29.8449 21.5214ZM9.35059 19.0213C8.98588 19.0213 8.69219 19.3472 8.69219 19.5925V27.7896C8.69219 28.0347 8.98588 28.3636 9.35059 28.3636C9.71547 28.3636 10.0108 28.0347 10.0108 27.7896V19.5925C10.0108 19.3472 9.71547 19.0213 9.35059 19.0213ZM11.5822 19.0213C11.2209 19.0213 10.9256 19.3472 10.9256 19.5925V27.7896C10.9256 28.0347 11.2211 28.3636 11.5822 28.3636C11.9469 28.3636 12.2424 28.0347 12.2424 27.7896V19.5925C12.2424 19.3472 11.9469 19.0213 11.5822 19.0213ZM13.8154 19.0213C13.4488 19.0213 13.1553 19.3472 13.1553 19.5925V27.7896C13.1553 28.0347 13.4488 28.3636 13.8154 28.3636C14.1784 28.3636 14.4738 28.0347 14.4738 27.7896V19.5925C14.4738 19.3472 14.1784 19.0213 13.8154 19.0213ZM16.0449 19.0213C15.682 19.0213 15.3883 19.3472 15.3883 19.5925V27.7896C15.3883 28.0347 15.682 28.3636 16.0449 28.3636C16.4133 28.3636 16.7106 28.0347 16.7106 27.7896V19.5925C16.7106 19.3472 16.4133 19.0213 16.0449 19.0213ZM18.2854 19.0213C17.9205 19.0213 17.6235 19.3472 17.6235 19.5925V27.7896C17.6235 28.0347 17.9205 28.3636 18.2854 28.3636C18.6485 28.3636 18.944 28.0347 18.944 27.7896V19.5925C18.944 19.3472 18.6485 19.0213 18.2854 19.0213ZM20.5152 19.0213C20.1503 19.0213 19.8569 19.3472 19.8569 19.5925V27.7896C19.8569 28.0347 20.1503 28.3636 20.5152 28.3636C20.88 28.3636 21.1737 28.0347 21.1737 27.7896V19.5925C21.1737 19.3472 20.88 19.0213 20.5152 19.0213ZM22.7484 19.0213C22.3835 19.0213 22.088 19.3472 22.088 19.5925V27.7896C22.088 28.0347 22.3835 28.3636 22.7484 28.3636C23.1114 28.3636 23.4066 28.0347 23.4066 27.7896V19.5925C23.4068 19.3472 23.1116 19.0213 22.7484 19.0213Z" fill="#505E31"/>
<path fill-rule="evenodd" clip-rule="evenodd" d="M31.1406 4.36377L0.859119 4.36769C-0.0716711 4.36769 0.00134273 5.29153 0.00134273 5.29153V21.0215C0.380432 18.6336 2.30756 16.8139 4.63162 16.8139H27.4089C29.6617 16.8139 31.5392 18.5194 32 20.7934V5.29349C32.0002 5.29329 32.0002 4.36377 31.1406 4.36377Z" fill="#505E31"/>
<path fill-rule="evenodd" clip-rule="evenodd" d="M18.9512 9.35385C18.3815 9.35385 17.9614 9.7888 17.8587 10.4826L17.8531 10.5295H19.9601V10.4873C19.928 9.84469 19.4938 9.35385 18.9512 9.35385ZM13.2781 9.35385C12.7051 9.35385 12.2869 9.7888 12.1873 10.4826L12.1802 10.5295H14.2852L14.2834 10.4873C14.2533 9.84469 13.8209 9.35385 13.2781 9.35385ZM25.0547 13.8405C24.4604 13.8405 23.9942 13.5961 23.6649 13.1208L23.6541 13.1055H23.5758V15.4811H22.0221V8.40236H23.4993V9.02243H23.5758L23.5897 9.00616C23.8976 8.50884 24.3606 8.24626 24.9299 8.24626C26.5437 8.24626 27.1167 9.81586 27.1167 11.1623C27.1171 12.4933 26.4802 13.8405 25.0547 13.8405ZM21.5152 11.4323H17.8565L17.8587 11.4745C17.8922 12.2622 18.3228 12.7317 19.0098 12.7317C19.4475 12.7317 19.8053 12.5056 19.9601 12.1414H21.4138C21.1347 13.2041 20.2359 13.8405 18.992 13.8405C17.3316 13.8405 16.3014 12.7623 16.3014 11.028C16.3014 9.46974 17.465 8.24606 18.9512 8.24606C19.7072 8.24606 20.341 8.51531 20.7876 9.01831C21.261 9.5521 21.5205 10.3446 21.5205 11.257C21.5205 11.3182 21.517 11.3729 21.5152 11.4323ZM15.8404 11.4323H12.1837V11.4745C12.2139 12.2622 12.6463 12.7317 13.3349 12.7317C13.771 12.7317 14.1304 12.5056 14.2852 12.1414H15.7391C15.4596 13.2041 14.5594 13.8405 13.3173 13.8405C11.6605 13.8405 10.6283 12.7623 10.6283 11.028C10.6283 9.46974 11.7922 8.24606 13.2779 8.24606C14.0325 8.24606 14.6641 8.51531 15.1144 9.01831C15.5876 9.5521 15.844 10.3446 15.844 11.257C15.844 11.3182 15.8424 11.3729 15.8404 11.4323ZM10.1018 11.3894C10.1018 13.0374 9.33119 13.8407 7.74382 13.8407C6.12987 13.8407 5.38062 12.9706 5.38062 11.1105V10.8307H6.98401V11.4718C6.98401 11.9797 7.25094 12.2662 7.7136 12.2662C8.18336 12.2662 8.3933 11.9585 8.3933 11.2666V6.38721H10.1018V11.3894ZM24.5547 9.50916C24.0547 9.50916 23.5188 9.89921 23.5188 10.9868C23.5188 12.0581 23.8553 12.5756 24.5476 12.5756C25.293 12.5756 25.5618 11.7563 25.5618 10.9868C25.5619 10.2738 25.2967 9.50916 24.5547 9.50916ZM27.8787 15.3018C27.5918 15.3018 27.3167 15.179 27.1138 14.9605C26.9109 14.742 26.797 14.4456 26.797 14.1366C26.797 13.4955 27.2828 12.9704 27.8787 12.9704C28.4747 12.9704 28.9605 13.4955 28.9605 14.1366C28.9605 14.2896 28.9325 14.4411 28.8782 14.5825C28.8238 14.7239 28.7441 14.8523 28.6437 14.9605C28.5432 15.0687 28.424 15.1546 28.2927 15.2131C28.1615 15.2717 28.0208 15.3018 27.8787 15.3018ZM27.8787 13.2626C27.6637 13.2632 27.4576 13.3555 27.3056 13.5193C27.1535 13.6831 27.0678 13.905 27.0672 14.1366C27.0672 14.6168 27.4321 15.0077 27.8787 15.0077C28.3254 15.0077 28.6903 14.6166 28.6903 14.1366C28.6896 13.905 28.6039 13.6831 28.4518 13.5194C28.2998 13.3556 28.0937 13.2633 27.8787 13.2626ZM28.0511 14.7643L27.8751 14.2776H27.6863V14.7643H27.4142V13.5338H27.9179C28.0655 13.5338 28.144 13.5577 28.2152 13.6171C28.2864 13.6842 28.3343 13.7944 28.3343 13.9036C28.3343 14.0185 28.2828 14.127 28.2026 14.1835C28.1884 14.198 28.1684 14.2056 28.1347 14.2209L28.3467 14.7643H28.0511ZM27.845 13.7522H27.6864V14.0666H27.8487C27.998 14.0666 28.0584 14.0215 28.0584 13.9066C28.0584 13.7944 28.0014 13.7522 27.845 13.7522Z" fill="white"/>
</g>
</svg>
