<svg width="32" height="32" viewBox="0 0 32 32" fill="none" xmlns="http://www.w3.org/2000/svg">
<path d="M31.6501 16.0001C31.6501 24.6501 24.6501 31.6501 16.0001 31.6501C7.3501 31.6501 0.350098 24.6501 0.350098 16.0001C0.350098 7.3501 7.3501 0.350098 16.0001 0.350098C24.6501 0.350098 31.6501 7.3501 31.6501 16.0001ZM16.0001 1.3001C7.8501 1.3001 1.3001 7.8501 1.3001 16.0001C1.3001 24.1501 7.9001 30.7001 16.0001 30.7001C24.1501 30.7001 30.7001 24.1001 30.7001 16.0001C30.7001 7.8501 24.1501 1.3001 16.0001 1.3001Z" fill="url(#paint0_linear_711_311)"/>
<path d="M16 1.30005C7.85005 1.30005 1.30005 7.85005 1.30005 16C1.30005 24.15 7.90005 30.7 16 30.7C24.15 30.7 30.7 24.1 30.7 16C30.7 7.85005 24.15 1.30005 16 1.30005ZM16 29.75C8.40005 29.75 2.25005 23.6 2.25005 16C2.25005 8.40005 8.40005 2.25005 16 2.25005C23.6 2.25005 29.75 8.40005 29.75 16C29.75 23.6 23.6 29.75 16 29.75Z" fill="url(#paint1_linear_711_311)"/>
<path opacity="0.4" d="M16 31.65C24.65 31.65 31.65 24.65 31.65 16C31.65 7.35 24.65 0.35 16 0.35C7.35 0.35 0.35 7.35 0.35 16C0.35 24.65 7.35 31.65 16 31.65ZM16 0C24.8 0 32 7.2 32 16C32 24.8 24.8 32 16 32C7.2 32 0 24.8 0 16C0 7.2 7.2 0 16 0Z" fill="url(#paint2_linear_711_311)"/>
<path d="M1.1001 16.0501C1.1001 7.8501 7.7501 1.1001 16.0001 1.1001C24.2501 1.1001 30.9001 7.8001 30.9001 16.0501C30.9001 24.2501 24.2501 30.9001 16.0001 30.9001C7.7501 30.9001 1.1001 24.2501 1.1001 16.0501ZM5.7501 5.7501C3.1001 8.4001 1.4501 12.0501 1.4501 16.0501C1.4501 20.0501 3.1001 23.7001 5.7001 26.3001C8.3501 28.9001 12.0001 30.5501 16.0001 30.5501C20.0001 30.5501 23.6501 28.9501 26.2501 26.3001C28.9001 23.7001 30.5001 20.0501 30.5001 16.0501C30.5001 12.0501 28.8501 8.4001 26.2501 5.7501C23.6501 3.1001 20.0001 1.4501 16.0001 1.4501C12.0001 1.4501 8.3501 3.1001 5.7501 5.7501Z" fill="white"/>
<path opacity="0.4" d="M16 29.8C12.3 29.8 8.84995 28.35 6.24995 25.75C3.64995 23.15 2.19995 19.7 2.19995 16C2.19995 12.3 3.64995 8.84995 6.24995 6.24995C8.84995 3.64995 12.3 2.19995 16 2.19995C19.7 2.19995 23.15 3.64995 25.75 6.24995C28.35 8.84995 29.8 12.3 29.8 16C29.8 19.7 28.35 23.15 25.75 25.75C23.15 28.35 19.7 29.8 16 29.8ZM16 29.4C19.55 29.4 22.95 28 25.45 25.5C28 22.95 29.35 19.6 29.35 16.05C29.35 12.5 27.95 9.09995 25.45 6.59995C22.9 4.04995 19.55 2.69995 16 2.69995C12.45 2.69995 9.04995 4.09995 6.54995 6.59995C3.99995 9.04995 2.59995 12.45 2.59995 16C2.59995 19.55 3.99995 22.95 6.49995 25.45C9.04995 28 12.45 29.4 16 29.4Z" fill="url(#paint3_linear_711_311)"/>
<path d="M28.1499 22.5C27.8999 22.3 18.2499 14.65 18.2499 14.65L15.9999 1.80005C15.8499 1.85005 15.6499 2.00005 15.5499 2.20005L13.9499 14.7L3.9999 22.35C3.9999 22.35 3.7999 22.6 3.6999 22.75C3.6499 22.85 3.6499 23 3.6499 23.15L15.9499 18.1L28.2499 23.15C28.3499 22.9 28.2499 22.65 28.1499 22.5Z" fill="white"/>
<path d="M16.1 16.4001L16 18.7001L27.3 23.2501C27.7 23.4501 28 23.3501 28.3 23.1501L16.25 16.3501C16.2 16.3001 16.1 16.3501 16.1 16.4001Z" fill="#565F64"/>
<path d="M16.1001 16.4001C16.1001 16.4001 16.7501 17.5501 17.5001 18.3501C18.5501 19.5001 19.9501 20.3001 19.9501 20.3001L27.3001 23.2501C27.7001 23.4501 28.0001 23.3501 28.3001 23.1501L16.2501 16.3501C16.2001 16.3001 16.1001 16.3501 16.1001 16.4001Z" fill="url(#paint4_linear_711_311)"/>
<path d="M28.25 22.7C28.25 22.65 28.2 22.6 28.15 22.5L17.85 14.95L16.45 15.85C16.45 15.85 16.55 15.9 16.6 15.85C16.75 15.8 17.05 15.75 17.35 15.85C17.6 15.95 28.25 22.75 28.25 22.7C28.25 22.75 28.25 22.75 28.25 22.7Z" fill="#A4AAAE" fill-opacity="0.6"/>
<path d="M27.9001 22.2499L18.3001 14.6499L17.8501 14.9499L28.1501 22.5499C28.1001 22.4499 28.0001 22.3499 27.9001 22.2499Z" fill="#333E46"/>
<path d="M16.25 15.6501L16.2 15.7001C16.2 15.7001 16.2 15.8001 16.3 15.7501C16.35 15.7001 17.8 14.9501 18.3 14.6501L16.55 2.6501C16.5 2.2001 16.3 2.0001 15.95 1.8501L16.15 15.7501L16.25 15.6501Z" fill="#565F64"/>
<path d="M15.4 2.6501V3.3001L14.3 14.3501C14.3 14.5001 14.35 14.6501 14.5 14.7501L15.15 15.2501L15.6 3.0501L15.65 2.1001C15.5 2.2001 15.45 2.4001 15.4 2.6501ZM14.8 15.4501L14.2 14.9501L4.04995 22.3001C4.04995 22.3001 3.74995 22.5001 3.69995 22.7001L4.04995 22.5001L14.7 15.8001C14.9 15.7001 14.95 15.6001 14.8 15.4501Z" fill="#A4AAAE" fill-opacity="0.6"/>
<path d="M15.8499 16.4001C15.8499 16.3501 15.7999 16.3001 15.7499 16.3501L3.6499 23.2001C3.9499 23.4001 4.2499 23.4501 4.6499 23.3001L15.9499 18.7501L15.8499 16.4001Z" fill="#565F64"/>
<path d="M16.2 15.7C16.2 15.7 16.2 15.75 16.25 15.75H16.2999C16.3499 15.7 17.7999 14.95 18.2999 14.65L18.1 13.2L16.5499 2.64995C16.5499 2.44995 16.5 2.29995 16.4 2.19995C16.4 2.19995 17.15 12.3 17.15 13.4C17.15 14.85 16.2 15.7 16.2 15.7Z" fill="url(#paint5_linear_711_311)"/>
<path d="M15.8499 16.4001C15.8499 16.3501 15.7999 16.3001 15.7499 16.3501L3.6499 23.2001C3.9499 23.4001 4.2499 23.4501 4.6499 23.3001L15.9499 18.7501L15.8499 16.4001Z" fill="url(#paint6_linear_711_311)" fill-opacity="0.8"/>
<path opacity="0.8" d="M4.6501 23.25L15.9501 18.7L15.8501 16.5C15.6501 17.1 15.3001 17.75 14.3501 18.25C13.6501 18.65 6.9501 21.95 4.5501 23.1C4.4001 23.2 4.2001 23.25 4.1001 23.3C4.3001 23.4 4.4501 23.35 4.6501 23.25Z" fill="url(#paint7_linear_711_311)"/>
<path d="M16.25 15.6501L16.2 15.7001C16.2 15.7001 16.2 15.8001 16.3 15.7501C16.35 15.7001 17.8 14.9501 18.3 14.6501L16.55 2.6501C16.5 2.2001 16.3 2.0001 15.95 1.8501L16.15 15.7501L16.25 15.6501Z" fill="url(#paint8_linear_711_311)"/>
<path d="M16.25 15.6501L16.2 15.7001C16.2 15.7001 16.2 15.8001 16.3 15.7501C16.35 15.7001 17.8 14.9501 18.3 14.6501L16.55 2.6501C16.5 2.2001 16.3 2.0001 15.95 1.8501L16.15 15.7501L16.25 15.6501Z" fill="url(#paint9_linear_711_311)"/>
<path d="M2.5501 22.2C2.2001 21.4 0.200098 17.5 2.4001 10H1.5501C1.1001 11.5 0.750098 12.4 0.550098 13.75C0.550098 13.75 0.450098 14.25 0.400098 14.8C0.350098 15.35 0.350098 15.65 0.350098 16C0.350098 19 1.1001 20.75 1.1001 20.75C1.9001 23.25 3.3001 25.5 5.2001 27.2C6.8501 28.65 9.4001 29.75 11.5001 30.15C11.1501 30.1 5.1501 27.55 2.5501 22.2Z" fill="url(#paint10_linear_711_311)"/>
<path d="M16.2 16.3H15.75C15.8 16.3 15.85 16.3 15.85 16.35L15.95 18.65H16L16.1 16.35C16.1 16.3 16.15 16.25 16.2 16.3Z" fill="url(#paint11_linear_711_311)"/>
<path d="M21 1.1499C26.25 3.1499 31.2 8.6499 31.2 15.5999C31.2 23.9999 24.5 30.8499 16 30.8499V31.6499C24.5 31.6499 31.65 24.6499 31.65 15.9999C31.65 9.0999 27.25 3.2999 21 1.1499Z" fill="url(#paint12_linear_711_311)"/>
<path d="M29.4 10.1C25.9 2.05005 18 1.60005 17.55 1.55005H17.5C23.55 2.65005 27.4 6.60005 28.75 10.75V10.8C29.35 12.4 29.65 14.1 29.7 15.95C29.75 17.7 29.35 19.6501 28.6 21.4501C28.55 21.7001 28.5 22 28.45 22H29.25C31.65 17.5 30.6 12.95 29.4 10.1Z" fill="url(#paint13_linear_711_311)"/>
<path d="M1.1001 16.0501C1.1001 7.8501 7.7501 1.1001 16.0001 1.1001C24.2501 1.1001 30.9001 7.8001 30.9001 16.0501C30.9001 24.2501 24.2501 30.9001 16.0001 30.9001C7.7501 30.9001 1.1001 24.2501 1.1001 16.0501ZM5.7501 5.7501C3.1001 8.4001 1.4501 12.0501 1.4501 16.0501C1.4501 20.0501 3.1001 23.7001 5.7001 26.3001C8.3501 28.9001 12.0001 30.5501 16.0001 30.5501C20.0001 30.5501 23.6501 28.9501 26.2501 26.3001C28.9001 23.7001 30.5001 20.0501 30.5001 16.0501C30.5001 12.0501 28.8501 8.4001 26.2501 5.7501C23.6501 3.1001 20.0001 1.4501 16.0001 1.4501C12.0001 1.4501 8.3501 3.1001 5.7501 5.7501Z" fill="#FBFBFB"/>
<path d="M3.94995 22.4L14.15 15.05C14.7 15.35 15.6 15.75 15.7 15.75C15.8 15.8 15.8 15.7 15.8 15.7L14.55 14.65C14.4 14.55 14.35 14.4 14.35 14.25L15.55 2.19995C15.5 2.24995 15.5 2.34995 15.45 2.39995C15.4 2.49995 15.4 2.54995 15.4 2.64995L13.65 14.7L4.04995 22.25C3.99995 22.2999 3.94995 22.35 3.94995 22.4Z" fill="#333F47"/>
<defs>
<linearGradient id="paint0_linear_711_311" x1="3.9991" y1="5.9491" x2="28.0011" y2="26.0511" gradientUnits="userSpaceOnUse">
<stop stop-color="white"/>
<stop offset="0.1" stop-color="#CDD0D0"/>
<stop offset="0.2" stop-color="#A5ACAF"/>
<stop offset="0.3" stop-color="#98A0A4"/>
<stop offset="0.4" stop-color="#828A8F"/>
<stop offset="0.5" stop-color="#667075"/>
<stop offset="0.6" stop-color="#535C63"/>
<stop offset="0.7" stop-color="#475158"/>
<stop offset="0.8" stop-color="#434D54"/>
<stop offset="1" stop-color="#475157"/>
</linearGradient>
<linearGradient id="paint1_linear_711_311" x1="4.73555" y1="6.52955" x2="27.2355" y2="25.4295" gradientUnits="userSpaceOnUse">
<stop stop-color="#0B1F2A"/>
<stop offset="0.2" stop-color="#333F47"/>
<stop offset="0.5" stop-color="#81898D"/>
<stop offset="0.7" stop-color="#B3B8B8"/>
<stop offset="0.8" stop-color="#DEE0DD"/>
<stop offset="1" stop-color="#FBFBFB"/>
</linearGradient>
<linearGradient id="paint2_linear_711_311" x1="21.4685" y1="31.0315" x2="10.5185" y2="0.932001" gradientUnits="userSpaceOnUse">
<stop stop-color="#E1E3E1"/>
<stop offset="0.1" stop-color="#C1C5C4"/>
<stop offset="0.3" stop-color="#9BA1A2"/>
<stop offset="0.5" stop-color="#7D8487"/>
<stop offset="0.7" stop-color="#687074" stop-opacity="0"/>
<stop offset="0.8" stop-color="#5B6469" stop-opacity="0"/>
<stop offset="1" stop-color="#576065" stop-opacity="0"/>
</linearGradient>
<linearGradient id="paint3_linear_711_311" x1="9.10045" y1="4.05045" x2="22.8995" y2="27.9495" gradientUnits="userSpaceOnUse">
<stop stop-color="#E1E3E1"/>
<stop offset="0.1" stop-color="#C1C5C4"/>
<stop offset="0.3" stop-color="#9BA1A2"/>
<stop offset="0.5" stop-color="#7D8487"/>
<stop offset="0.7" stop-color="#687074" stop-opacity="0"/>
<stop offset="0.8" stop-color="#5B6469" stop-opacity="0"/>
<stop offset="1" stop-color="#576065" stop-opacity="0"/>
</linearGradient>
<linearGradient id="paint4_linear_711_311" x1="22.2441" y1="19.6966" x2="21.3941" y2="21.0966" gradientUnits="userSpaceOnUse">
<stop stop-color="#27343C"/>
<stop offset="1" stop-color="#00111E" stop-opacity="0"/>
</linearGradient>
<linearGradient id="paint5_linear_711_311" x1="19.7899" y1="14.556" x2="18.3899" y2="12.306" gradientUnits="userSpaceOnUse">
<stop offset="0.1" stop-color="#02131F"/>
<stop offset="0.9" stop-color="#02131F" stop-opacity="0"/>
</linearGradient>
<linearGradient id="paint6_linear_711_311" x1="15.9909" y1="18.1681" x2="13.8909" y2="18.7681" gradientUnits="userSpaceOnUse">
<stop offset="0.2" stop-color="#02131F"/>
<stop offset="0.9" stop-color="#02131F" stop-opacity="0"/>
</linearGradient>
<linearGradient id="paint7_linear_711_311" x1="10.3956" y1="20.952" x2="10.0956" y2="20.202" gradientUnits="userSpaceOnUse">
<stop stop-color="#02131F"/>
<stop offset="0.1" stop-color="#02131F"/>
<stop offset="1" stop-color="#02131F" stop-opacity="0"/>
</linearGradient>
<linearGradient id="paint8_linear_711_311" x1="17.801" y1="8.6071" x2="16.101" y2="8.8071" gradientUnits="userSpaceOnUse">
<stop offset="0.3" stop-color="#02131F"/>
<stop offset="0.8" stop-color="#02131F" stop-opacity="0"/>
</linearGradient>
<linearGradient id="paint9_linear_711_311" x1="17.854" y1="8.5786" x2="16.7035" y2="8.7286" gradientUnits="userSpaceOnUse">
<stop offset="0.4" stop-color="#27343C"/>
<stop offset="1" stop-color="#3B474E" stop-opacity="0"/>
</linearGradient>
<linearGradient id="paint10_linear_711_311" x1="-0.179902" y1="16.4155" x2="13.7701" y2="24.4655" gradientUnits="userSpaceOnUse">
<stop stop-color="#25323B" stop-opacity="0"/>
<stop offset="0.1" stop-color="#27343C"/>
</linearGradient>
<linearGradient id="paint11_linear_711_311" x1="15.975" y1="18.7" x2="15.975" y2="16.3" gradientUnits="userSpaceOnUse">
<stop offset="0.3" stop-color="#A5ABAF"/>
<stop offset="1" stop-color="#A5ABAF" stop-opacity="0"/>
</linearGradient>
<linearGradient id="paint12_linear_711_311" x1="23.825" y1="1.1499" x2="23.825" y2="31.6499" gradientUnits="userSpaceOnUse">
<stop stop-color="#6B7378"/>
<stop offset="0.2" stop-color="#333F47"/>
<stop offset="0.5" stop-color="#27343C"/>
<stop offset="0.8" stop-color="#333F47"/>
<stop offset="1" stop-color="#434D54"/>
</linearGradient>
<linearGradient id="paint13_linear_711_311" x1="28.6445" y1="4.04655" x2="21.8945" y2="13.9465" gradientUnits="userSpaceOnUse">
<stop offset="0.7" stop-color="#49545B"/>
<stop offset="0.8" stop-color="white" stop-opacity="0"/>
</linearGradient>
</defs>
</svg>
