<svg width="32" height="32" viewBox="0 0 32 32" fill="none" xmlns="http://www.w3.org/2000/svg">
<mask id="mask0_1332_5184" style="mask-type:alpha" maskUnits="userSpaceOnUse" x="0" y="0" width="32" height="32">
<rect width="32" height="32" fill="#D9D9D9"/>
</mask>
<g mask="url(#mask0_1332_5184)">
<path d="M30.899 12.4777C30.6034 12.39 30.2741 12.3486 29.5805 12.2577C26.7098 12.1327 19.6154 11.8398 16.0002 11.8398C12.3851 11.8398 5.29056 12.1325 2.42016 12.2577C1.72624 12.3486 1.39664 12.39 1.10112 12.4777C0.19856 12.7036 0 13.0476 0 13.7338V18.4371C0 19.1235 0.69264 19.5861 1.17008 19.6793C1.64784 19.7733 1.95008 19.8108 2.45264 19.8616C5.02016 20.0304 10.977 20.3824 16 20.388C21.0232 20.3829 26.9797 20.0306 29.5474 19.8616C30.0498 19.8108 30.3522 19.7731 30.8301 19.6793C31.3074 19.5859 32 19.1235 32 18.4371V13.7338C32 13.0476 31.8016 12.7036 30.899 12.4777Z" fill="url(#paint0_linear_1332_5184)"/>
<path d="M4.48784 12.6628C5.90032 7.4463 10.5414 3.6188 16.0507 3.6188C21.5442 3.6188 26.1758 7.42524 27.6021 12.6208C27.6066 12.6392 27.6096 12.6487 27.6146 12.6663C28.4334 12.5687 29.167 12.4178 29.6854 12.2709C29.676 12.2374 29.6736 12.2306 29.6654 12.1977C28.0445 6.00876 22.5632 1.45459 16.0507 1.45459C9.51632 1.45459 4.02064 6.03832 2.41968 12.2578C3.13984 12.4673 3.66736 12.5551 4.48784 12.6628Z" fill="url(#paint1_radial_1332_5184)"/>
<path d="M27.5687 19.4995C27.5545 19.5459 27.5386 19.597 27.5313 19.6223C26.0294 24.693 21.4582 28.3811 16.0513 28.3811C10.6017 28.3811 6.00168 24.6361 4.53624 19.5044C3.64056 19.6728 3.338 19.7368 2.45288 19.8618C4.09288 26.0205 9.55912 30.5453 16.0513 30.5453C22.5462 30.5453 28.0143 26.0158 29.6513 19.852C28.8714 19.7497 28.4121 19.6724 27.5687 19.4995Z" fill="url(#paint2_radial_1332_5184)"/>
<path d="M4.77605 12.6513C5.11605 12.5022 5.44501 12.2644 5.95781 12.1113C7.48661 7.89448 11.428 4.89166 16.0504 4.89166C20.6584 4.89166 24.5901 7.87597 26.1285 12.0724C26.134 12.0867 26.1396 12.104 26.1439 12.1147C26.4085 12.212 27.1882 12.5477 27.4308 12.66C27.4652 12.6608 27.5386 12.6635 27.6144 12.6657C27.61 12.6507 27.6058 12.6355 27.602 12.6202C26.1751 7.42634 21.5436 3.62109 16.0504 3.62109C10.5426 3.62109 5.90149 7.4469 4.48853 12.6623C4.57013 12.6625 4.72549 12.655 4.77605 12.6513Z" fill="url(#paint3_radial_1332_5184)"/>
<path d="M15.963 3.97405C21.1171 3.97405 25.6859 7.23676 27.4164 12.6148L27.4305 12.6605C27.4574 12.6605 27.5555 12.6642 27.6142 12.6662C27.6096 12.6467 27.6048 12.6353 27.6017 12.6207C26.1748 7.42683 21.5433 3.62158 16.0502 3.62158C10.5424 3.62158 5.90124 7.44739 4.48828 12.6628C4.59836 12.661 4.65132 12.661 4.77612 12.6516C6.32332 7.54591 10.8468 3.97405 15.963 3.97405Z" fill="white"/>
<path d="M27.2763 19.5141C26.906 19.7338 26.4451 19.9451 26.0766 20.0685C26.0716 20.0811 26.0507 20.1368 26.0462 20.1499C24.4523 24.2303 20.5776 27.1107 16.0508 27.1107C11.4956 27.1107 7.60108 24.1953 6.02572 20.0745C5.60188 19.9496 4.96828 19.6429 4.72844 19.5148C4.63868 19.5102 4.59036 19.5075 4.53516 19.5044C6.0006 24.6355 10.6014 28.3811 16.051 28.3811C21.476 28.3811 26.059 24.6698 27.5459 19.5749C27.5491 19.5651 27.5656 19.509 27.5691 19.4995C27.4832 19.5031 27.3518 19.5141 27.2763 19.5141Z" fill="url(#paint4_radial_1332_5184)"/>
<path d="M30.6426 12.818C29.8822 12.7198 29.3638 12.7303 27.5117 12.6626C27.4275 12.6593 27.3419 12.6566 27.255 12.6534C23.8966 12.5311 18.8518 12.3677 16 12.3677C13.1483 12.3677 8.10368 12.5311 4.7448 12.6534C4.65808 12.6566 4.5728 12.6593 4.4888 12.6626C2.63632 12.7303 2.11808 12.7198 1.3576 12.818C0.59728 12.917 0 13.2705 0 13.8716V18.2332C0 18.8347 0.71952 19.3217 1.35744 19.3217C1.35744 19.3217 9.4768 19.8538 16 19.8601C22.5234 19.8538 30.6426 19.3217 30.6426 19.3217C31.2805 19.3217 32 18.8347 32 18.2332V13.8716C32 13.2705 31.4029 12.917 30.6426 12.818Z" fill="url(#paint5_radial_1332_5184)"/>
<path d="M27.2763 19.5148C25.6829 24.533 21.2016 28.0288 16.1397 28.0288C11.0262 28.0288 6.48893 24.8174 4.72797 19.5148C4.66333 19.5112 4.59933 19.5085 4.53613 19.5046C6.00125 24.6358 10.6029 28.3814 16.0526 28.3814C21.5041 28.3814 26.1062 24.6334 27.5701 19.4995C27.4737 19.5043 27.376 19.5099 27.2763 19.5148Z" fill="white"/>
<path d="M27.2856 19.5142L27.2759 19.5145C26.9056 19.7341 26.445 19.9454 26.0762 20.0689C26.0712 20.0815 26.0503 20.1372 26.046 20.1503C25.5416 21.4416 24.8088 22.6126 23.8984 23.6106C25.3234 22.5046 26.4856 21.1073 27.2856 19.5142Z" fill="#8C8C8C"/>
<path d="M8.51035 23.9353C7.43867 22.8516 6.58555 21.5397 6.02555 20.0747C5.60171 19.9497 4.96827 19.6427 4.72827 19.5146C4.98474 20.0791 5.28711 20.6187 5.63195 21.1273C6.33739 22.1027 7.19243 22.972 8.16571 23.7077C8.27899 23.7865 8.39387 23.8623 8.51035 23.9353Z" fill="#4D4D4D"/>
<path d="M4.53559 19.5047V19.5044L4.53191 19.5051C3.63911 19.6731 3.33623 19.7374 2.45239 19.8618C2.52359 20.1302 2.60247 20.3946 2.68839 20.6564L4.53559 19.5047Z" fill="#252525"/>
<path d="M22.5018 14.7501C22.2349 14.1169 22.3297 14.1833 21.7487 14.167C21.7015 14.15 21.5756 14.15 21.4031 14.15C21.2309 14.15 21.1993 14.15 21.0578 14.167C20.5087 14.167 20.6028 14.1337 20.4146 14.5502C20.4146 14.5502 19.4721 16.7995 19.0644 17.7326L19.0487 17.7658C18.9703 17.9321 19.0175 17.9321 19.1428 17.9321H19.9906C20.0537 17.9321 20.0847 17.8995 20.1004 17.8656C20.1004 17.8656 20.226 17.5822 20.3829 17.1825H22.4548C22.6119 17.5659 22.7217 17.8489 22.7217 17.8656C22.7373 17.9157 22.7845 17.9321 22.8314 17.9321H23.7105C23.8361 17.9321 23.8676 17.9496 23.8205 17.8323C23.6633 17.4326 22.6431 15.0995 22.5018 14.7501ZM20.6965 16.3828C20.9634 15.7165 21.2306 15.0667 21.2306 15.0499C21.2465 15.0165 21.2778 14.9998 21.3247 14.9998C21.3405 14.9828 21.3879 14.9828 21.4348 14.9828C21.4663 14.9828 21.513 14.9828 21.5289 14.9998C21.5601 14.9998 21.5921 15.0165 21.6071 15.0666C21.6705 15.2495 21.9053 15.8163 22.125 16.3828H20.6965ZM9.39541 14.1167C9.47381 14.1167 9.48965 14.1498 9.48965 14.2166V17.7828C9.48965 17.8657 9.47381 17.8997 9.37989 17.8997H8.56357C8.46965 17.8997 8.45397 17.8827 8.45397 17.7828V14.2166C8.45397 14.1498 8.46965 14.1167 8.53221 14.1167H9.39541ZM7.65317 14.1498C7.74709 14.1498 7.76325 14.1829 7.76325 14.2667V17.8161C7.76325 17.9163 7.74709 17.933 7.65317 17.933H6.69557C6.13077 17.933 6.08357 17.933 5.89541 17.6001C5.50293 16.9503 4.32549 15.034 4.32549 15.034V17.8165C4.32549 17.9169 4.30981 17.9332 4.21589 17.9332H3.50933C3.41525 17.9332 3.39941 17.9169 3.39941 17.8165V14.2667C3.39941 14.1833 3.41525 14.1498 3.50933 14.1498H4.32549C4.93765 14.1498 5.01605 14.1333 5.23621 14.4666C5.40869 14.7668 6.83701 17.0995 6.83701 17.0995V14.2667C6.83701 14.1833 6.85269 14.1498 6.94709 14.1498H7.65317ZM28.6074 14.1498C28.7021 14.1498 28.7175 14.1829 28.7175 14.2667V17.8161C28.7175 17.9163 28.7018 17.933 28.6074 17.933H27.6508C27.0852 17.933 27.038 17.933 26.8498 17.6001C26.457 16.9498 25.2799 15.0336 25.2799 15.0336V17.8163C25.2799 17.9165 25.2642 17.9328 25.1698 17.9328H24.4639C24.3698 17.9328 24.3537 17.9165 24.3537 17.8163V14.2667C24.3537 14.1833 24.37 14.1498 24.4639 14.1498H25.2799C25.8921 14.1498 25.9708 14.1333 26.1901 14.4666C26.3786 14.7668 27.7914 17.0995 27.7914 17.0995V14.2667C27.7914 14.1833 27.8073 14.1498 27.9015 14.1498H28.6074ZM12.99 15.6001C13.618 15.6665 14.0733 15.783 14.1988 16.4165C14.1988 16.4661 14.2146 16.6329 14.2146 16.8163C14.2146 16.9332 14.2146 17.0827 14.1831 17.2162C14.0735 17.816 13.6493 17.9325 12.9905 17.9325H10.353C10.2588 17.9325 10.2429 17.9162 10.2429 17.816V17.2162C10.2429 17.116 10.2588 17.0993 10.353 17.0993H13.021C13.1311 17.0993 13.1625 17.0662 13.178 16.9824V16.8325V16.7326C13.1621 16.6656 13.1466 16.5658 13.0055 16.5495C12.7071 16.5328 11.8284 16.4492 11.2316 16.3828C10.4625 16.2994 10.2743 15.9499 10.2428 15.6497C10.2271 15.5495 10.2271 15.4163 10.2271 15.2996C10.2271 15.1996 10.2271 15.0498 10.2428 14.9329C10.3529 14.3993 10.7297 14.1498 11.3885 14.1498H13.9469C14.0415 14.1498 14.073 14.1668 14.073 14.2499V14.8666C14.073 14.9494 14.0415 14.983 13.9469 14.9663H11.4357C11.3258 14.9663 11.2789 15.0163 11.2629 15.1328V15.2828C11.2629 15.3662 11.3101 15.433 11.4199 15.4491C11.7188 15.4831 12.6445 15.5663 12.99 15.6001ZM17.5258 15.6001C18.1543 15.6665 18.6092 15.783 18.7349 16.4165C18.7349 16.4661 18.7506 16.6329 18.7506 16.8163C18.7506 16.9332 18.7506 17.0827 18.7193 17.2162C18.6097 17.816 18.186 17.9325 17.5265 17.9325H14.8892C14.7949 17.9325 14.7791 17.9162 14.7791 17.816V17.2162C14.7791 17.116 14.7949 17.0993 14.8892 17.0993H17.5577C17.6674 17.0993 17.6983 17.0662 17.7145 16.9824V16.8325V16.7326C17.6981 16.6656 17.6671 16.5658 17.5417 16.5495C17.2436 16.5328 16.3645 16.4492 15.7682 16.3828C14.9988 16.2994 14.8265 15.9499 14.7791 15.6497C14.7634 15.5495 14.7634 15.4163 14.7634 15.2996C14.7634 15.1996 14.7634 15.0498 14.7791 14.9329C14.8892 14.3993 15.2658 14.1498 15.9249 14.1498H18.4837C18.5775 14.1498 18.6093 14.1668 18.6093 14.2499V14.8666C18.6093 14.9494 18.5775 14.983 18.4837 14.9663H15.9721C15.8623 14.9663 15.8154 15.0163 15.7994 15.1328V15.2828C15.7994 15.3662 15.8309 15.433 15.9567 15.4491C16.2549 15.4831 17.1807 15.5663 17.5258 15.6001Z" fill="url(#paint6_radial_1332_5184)"/>
</g>
<defs>
<linearGradient id="paint0_linear_1332_5184" x1="16" y1="1.88389" x2="16" y2="25.5628" gradientUnits="userSpaceOnUse">
<stop offset="0.194" stop-color="white"/>
<stop offset="0.208" stop-color="#F8F8F8"/>
<stop offset="0.366" stop-color="#AEAEAE"/>
<stop offset="0.513" stop-color="#707070"/>
<stop offset="0.647" stop-color="#404040"/>
<stop offset="0.764" stop-color="#1D1D1D"/>
<stop offset="0.86" stop-color="#080808"/>
<stop offset="0.922"/>
</linearGradient>
<radialGradient id="paint1_radial_1332_5184" cx="0" cy="0" r="1" gradientUnits="userSpaceOnUse" gradientTransform="translate(7.01696 -4.39359) scale(22.3141 23.6895)">
<stop offset="0.202" stop-color="white"/>
<stop offset="0.382" stop-color="#FDFDFD"/>
<stop offset="0.487" stop-color="#F4F4F4"/>
<stop offset="0.573" stop-color="#E6E6E6"/>
<stop offset="0.648" stop-color="#D2D2D2"/>
<stop offset="0.689" stop-color="#C4C4C4"/>
<stop offset="1" stop-color="#333333"/>
</radialGradient>
<radialGradient id="paint2_radial_1332_5184" cx="0" cy="0" r="1" gradientUnits="userSpaceOnUse" gradientTransform="translate(61.0188 33.5507) scale(46.472 49.3364)">
<stop offset="0.202" stop-color="white"/>
<stop offset="0.368" stop-color="#E4E4E4"/>
<stop offset="0.594" stop-color="#C4C4C4"/>
<stop offset="1" stop-color="#333333"/>
</radialGradient>
<radialGradient id="paint3_radial_1332_5184" cx="0" cy="0" r="1" gradientUnits="userSpaceOnUse" gradientTransform="translate(12.3765 22.6633) scale(14.267 15.1464)">
<stop offset="0.202" stop-color="white"/>
<stop offset="0.368" stop-color="#E4E4E4"/>
<stop offset="0.594" stop-color="#C4C4C4"/>
<stop offset="1" stop-color="#333333"/>
</radialGradient>
<radialGradient id="paint4_radial_1332_5184" cx="0" cy="0" r="1" gradientUnits="userSpaceOnUse" gradientTransform="translate(23.8899 38.1509) scale(27.071 28.7396)">
<stop offset="0.202" stop-color="white"/>
<stop offset="0.368" stop-color="#E4E4E4"/>
<stop offset="0.594" stop-color="#C4C4C4"/>
<stop offset="1" stop-color="#333333"/>
</radialGradient>
<radialGradient id="paint5_radial_1332_5184" cx="0" cy="0" r="1" gradientUnits="userSpaceOnUse" gradientTransform="translate(15.7856 4.45109) scale(21.5123 22.8383)">
<stop offset="0.202" stop-color="white"/>
<stop offset="0.397" stop-color="#FDFDFD"/>
<stop offset="0.51" stop-color="#F4F4F4"/>
<stop offset="0.603" stop-color="#E6E6E6"/>
<stop offset="0.684" stop-color="#D2D2D2"/>
<stop offset="0.728" stop-color="#C4C4C4"/>
<stop offset="1" stop-color="#4D4D4D"/>
</radialGradient>
<radialGradient id="paint6_radial_1332_5184" cx="0" cy="0" r="1" gradientUnits="userSpaceOnUse" gradientTransform="translate(16.2837 6.73857) scale(14.4898 15.3829)">
<stop offset="0.111" stop-color="#4D4D4D"/>
<stop offset="0.248" stop-color="#494949"/>
<stop offset="0.355" stop-color="#404040"/>
<stop offset="0.451" stop-color="#2F2F2F"/>
<stop offset="0.541" stop-color="#181818"/>
<stop offset="0.611"/>
</radialGradient>
</defs>
</svg>
