<svg width="50" height="50" viewBox="0 0 50 50" fill="none" xmlns="http://www.w3.org/2000/svg">
<mask id="mask0_677_744" style="mask-type:alpha" maskUnits="userSpaceOnUse" x="0" y="0" width="50" height="50">
<rect width="50" height="50" fill="#D9D9D9"/>
</mask>
<g mask="url(#mask0_677_744)">
<path d="M46.347 19.2339L29.3774 4.03077C29.2032 1.77926 27.3155 0 25.0183 0C22.7211 0 20.8334 1.77926 20.6592 4.03077L3.68966 19.2339C1.64014 19.3847 0.0183105 21.098 0.0183105 23.1839V46.0379C0.0183105 48.2226 1.79702 50 3.98331 50H46.0533C48.2396 50 50.0183 48.2226 50.0183 46.0379V23.1839C50.0183 21.098 48.3965 19.3847 46.347 19.2339ZM25.0183 1.46329C26.6224 1.46329 27.9275 2.76746 27.9275 4.37045C27.9275 5.97343 26.6224 7.27751 25.0183 7.27751C23.4141 7.27751 22.1091 5.97343 22.1091 4.37045C22.1091 2.76746 23.4141 1.46329 25.0183 1.46329ZM48.554 46.0379C48.554 47.4157 47.4322 48.5367 46.0533 48.5367H3.98331C2.60447 48.5367 1.48267 47.4157 1.48267 46.0379V23.1839C1.48267 21.8061 2.60447 20.6851 3.98331 20.6851H11.12C11.3142 20.6851 11.5004 20.608 11.6377 20.4708C11.7751 20.3336 11.8522 20.1475 11.8522 19.9535C11.8522 19.7594 11.7751 19.5733 11.6377 19.4361C11.5004 19.2989 11.3142 19.2218 11.12 19.2218H5.89674L20.8844 5.79442C21.4769 7.50705 23.1056 8.74079 25.0184 8.74079C26.9311 8.74079 28.5599 7.50695 29.1523 5.79442L44.14 19.2219H14.2403C14.0461 19.2219 13.8599 19.299 13.7225 19.4362C13.5852 19.5734 13.5081 19.7595 13.5081 19.9536C13.5081 20.1476 13.5852 20.3337 13.7225 20.4709C13.8599 20.6081 14.0461 20.6852 14.2403 20.6852H46.0534C47.4323 20.6852 48.5541 21.8062 48.5541 23.184V46.0379H48.554Z" fill="#13141A"/>
<path d="M46.3575 31.8387C46.1633 31.8387 45.9771 31.9158 45.8398 32.053C45.7025 32.1902 45.6253 32.3763 45.6253 32.5704V42.1565C43.8858 42.4687 42.5249 43.8774 42.256 45.6101H7.87918C7.60671 43.8277 6.19439 42.4149 4.41148 42.1402V38.6533C4.41148 38.4593 4.33434 38.2732 4.19703 38.136C4.05972 37.9988 3.87349 37.9217 3.6793 37.9217C3.48511 37.9217 3.29888 37.9988 3.16157 38.136C3.02426 38.2732 2.94712 38.4593 2.94712 38.6533V42.8259C2.94711 42.9237 2.96672 43.0206 3.0048 43.1106C3.04287 43.2007 3.09864 43.2823 3.16881 43.3505C3.23897 43.4187 3.32211 43.4721 3.41329 43.5076C3.50448 43.5431 3.60187 43.56 3.6997 43.5573L3.73319 43.5562C3.74773 43.5557 3.76218 43.555 3.77692 43.555C5.25768 43.555 6.46236 44.7588 6.46236 46.2385C6.46236 46.2561 6.46168 46.2733 6.461 46.2908L6.46002 46.3194C6.45704 46.4173 6.47377 46.5148 6.5092 46.6061C6.54463 46.6974 6.59806 46.7807 6.66631 46.851C6.73455 46.9213 6.81623 46.9772 6.9065 47.0154C6.99677 47.0536 7.09379 47.0733 7.19181 47.0733H42.9423C43.0403 47.0733 43.1374 47.0536 43.2277 47.0155C43.3179 46.9773 43.3996 46.9214 43.4679 46.8511C43.5361 46.7808 43.5896 46.6975 43.625 46.6062C43.6604 46.5148 43.6771 46.4173 43.6741 46.3194L43.6731 46.2908C43.6725 46.2734 43.6718 46.2561 43.6718 46.2385C43.6718 44.8492 44.7557 43.6743 46.1395 43.5637C46.6722 43.521 47.0894 43.0714 47.0894 42.5398V32.5704C47.0894 32.4743 47.0705 32.3791 47.0338 32.2904C46.997 32.2016 46.9431 32.1209 46.8752 32.053C46.8072 31.9851 46.7265 31.9312 46.6377 31.8944C46.5488 31.8576 46.4536 31.8387 46.3575 31.8387ZM46.1396 25.8587C44.7559 25.7481 43.672 24.5732 43.672 23.1817C43.6726 23.0457 43.6462 22.9109 43.5943 22.7851C43.5424 22.6594 43.466 22.5452 43.3696 22.4491C43.2746 22.3535 43.1614 22.2777 43.0369 22.2261C42.9123 22.1745 42.7787 22.1481 42.6438 22.1484H7.49054C7.21632 22.1484 6.95849 22.2553 6.76471 22.4491C6.56946 22.6444 6.46207 22.9046 6.46236 23.184C6.46236 24.6636 5.25768 25.8674 3.77692 25.8674C3.7615 25.8674 3.74617 25.8667 3.73084 25.8663L3.70068 25.8653C3.60274 25.8622 3.50519 25.8789 3.41386 25.9144C3.32252 25.9499 3.23928 26.0034 3.16912 26.0717C3.09885 26.1399 3.04298 26.2215 3.00484 26.3116C2.96669 26.4018 2.94703 26.4987 2.94702 26.5965V35.5353C2.94702 35.7293 3.02416 35.9154 3.16147 36.0526C3.29878 36.1898 3.48502 36.2669 3.6792 36.2669C3.87339 36.2669 4.05962 36.1898 4.19693 36.0526C4.33424 35.9154 4.41138 35.7293 4.41138 35.5353V27.2822C6.2597 26.9976 7.70971 25.4893 7.90437 23.6116H42.2299C42.421 25.4355 43.8189 26.9419 45.6252 27.2658V29.4523C45.6252 29.6463 45.7024 29.8324 45.8397 29.9696C45.977 30.1068 46.1632 30.1839 46.3574 30.1839C46.5516 30.1839 46.7378 30.1068 46.8751 29.9696C47.0124 29.8324 47.0896 29.6463 47.0896 29.4523V26.8826C47.0897 26.3511 46.6724 25.9014 46.1396 25.8587Z" fill="#13141A"/>
<path d="M29.1723 29.6699C28.9781 29.6699 28.7919 29.747 28.6546 29.8842C28.5173 30.0215 28.4401 30.2075 28.4401 30.4016V37.7448C28.4401 37.9174 28.5012 38.0844 28.6125 38.2164C28.7237 38.3483 28.8781 38.4367 29.0483 38.466C29.1007 38.4749 29.148 38.4831 29.9553 38.4831C30.3465 38.4831 30.9166 38.4812 31.7518 38.4766C31.946 38.4761 32.132 38.3985 32.269 38.2609C32.4059 38.1233 32.4825 37.937 32.482 37.7429C32.4815 37.5489 32.4038 37.363 32.2661 37.2262C32.1285 37.0893 31.942 37.0128 31.7478 37.0133H31.7436C31.0982 37.0169 30.403 37.0193 29.9045 37.0195V30.4017C29.9045 30.3056 29.8856 30.2104 29.8488 30.1217C29.812 30.0329 29.7581 29.9522 29.6901 29.8843C29.6221 29.8163 29.5414 29.7624 29.4525 29.7256C29.3637 29.6889 29.2685 29.6699 29.1723 29.6699ZM34.9974 37.5266C34.9974 37.5792 35.0032 37.6303 35.0137 37.6798C35.0227 37.8615 35.0992 38.0334 35.2282 38.1618C35.3654 38.2978 35.5508 38.3742 35.7441 38.3742H35.7468C35.8078 38.374 37.2482 38.3684 37.823 38.3584C39.8756 38.3226 41.3656 36.5217 41.3656 34.0765C41.3656 31.5059 39.913 29.7788 37.7511 29.7788H35.7296C35.6333 29.7788 35.538 29.7977 35.4491 29.8346C35.3601 29.8714 35.2793 29.9254 35.2113 29.9935C35.1433 30.0616 35.0894 30.1424 35.0527 30.2314C35.016 30.3203 34.9972 30.4156 34.9974 30.5118V30.5179V37.5266ZM37.751 31.242C39.3363 31.242 39.9011 32.7062 39.9011 34.0764C39.9011 35.4164 39.2427 36.87 37.7973 36.8952C37.4956 36.9004 36.9339 36.9045 36.4737 36.9073C36.471 36.067 36.4645 32.1152 36.4631 31.242H37.751ZM12.1588 36.9949C11.3758 36.9949 10.6205 36.6774 10.1383 36.1458C10.0079 36.002 9.82564 35.9158 9.63169 35.9063C9.43773 35.8968 9.24793 35.9646 9.10404 36.0949C8.96015 36.2252 8.87395 36.4073 8.86441 36.6012C8.85487 36.795 8.92277 36.9846 9.05317 37.1284C9.8083 37.961 10.9692 38.4581 12.1587 38.4581C13.5944 38.4581 14.8456 37.5141 15.0694 36.2622C15.2391 35.3121 14.798 34.0673 13.0508 33.4233C12.117 33.0791 11.25 32.7036 11.017 32.6015C10.8097 32.446 10.7095 32.2002 10.7476 31.9344C10.797 31.5904 11.0648 31.3132 11.4639 31.193C12.6022 30.8499 13.6379 31.6766 13.6606 31.695C13.8097 31.8188 14.0018 31.8784 14.1948 31.8609C14.3877 31.8433 14.5659 31.7501 14.6902 31.6015C14.8145 31.4529 14.8748 31.2612 14.8578 31.0683C14.8409 30.8754 14.7482 30.6971 14.5999 30.5724C14.5337 30.5168 12.9549 29.2157 11.0415 29.7919C10.0967 30.0763 9.42864 30.8176 9.29811 31.7264C9.17618 32.5747 9.54393 33.3905 10.2578 33.8555C10.2902 33.8766 10.324 33.895 10.3594 33.9107C10.4018 33.9297 11.409 34.3777 12.5439 34.796C13.319 35.0817 13.7139 35.5223 13.6277 36.005C13.541 36.4916 12.9677 36.9949 12.1588 36.9949ZM26.3059 34.0764C26.3059 31.6467 24.3277 29.67 21.8963 29.67C19.4649 29.67 17.4867 31.6467 17.4867 34.0764C17.4867 36.506 19.4649 38.4827 21.8963 38.4827C24.3277 38.4827 26.3059 36.5061 26.3059 34.0764ZM18.951 34.0764C18.951 32.4536 20.2722 31.1333 21.8962 31.1333C23.5202 31.1333 24.8414 32.4536 24.8414 34.0764C24.8414 35.6992 23.5202 37.0194 21.8962 37.0194C20.2722 37.0194 18.951 35.6992 18.951 34.0764Z" fill="#13141A"/>
</g>
</svg>
