<svg width="50" height="50" viewBox="0 0 50 50" fill="none" xmlns="http://www.w3.org/2000/svg">
<mask id="mask0_611_1687" style="mask-type:alpha" maskUnits="userSpaceOnUse" x="0" y="0" width="50" height="50">
<rect width="50" height="50" fill="#D9D9D9"/>
</mask>
<g mask="url(#mask0_611_1687)">
<path d="M19.4508 10.5774C19.8222 9.31955 20.7626 9.96142 20.7626 9.96142C20.7626 9.96142 23.1998 11.8865 29.8844 16.2988C36.569 20.7111 44.9028 14.588 44.9028 14.588L25.1095 0C16.4281 9.54513 5.31633 12.9671 5.31633 12.9671L5.34785 12.9798L30.6485 31.3825C30.2771 32.6403 29.3367 31.9987 29.3367 31.9987C29.3367 31.9987 26.8995 30.0734 20.2149 25.6608C13.5303 21.2485 5.19653 27.3719 5.19653 27.3719L24.9897 41.9599C33.6712 32.4145 44.783 28.9928 44.783 28.9928L44.7509 28.9798L19.4508 10.5774Z" fill="#FF0016"/>
<path d="M5 47.7516L8.04503 47.7684C8.09738 48.0655 8.01508 48.0645 8.17525 48.2195C8.42605 48.4616 8.81514 48.5167 9.14173 48.457C9.4092 48.4084 9.82381 48.3235 9.84361 47.9791C9.86522 47.6052 9.61573 47.475 9.30268 47.4323C8.86983 47.3737 8.43308 47.3583 8.00154 47.2867C6.88973 47.0973 6.29854 47.0125 5.82506 46.6994C5.34742 46.386 5.30627 45.7036 5.30627 45.2179C5.30627 44.8986 5.42842 44.5974 5.67271 44.3129C5.917 44.0295 6.28448 43.8064 6.77488 43.6435C7.26554 43.4811 7.93773 43.4006 8.79222 43.4006C9.84022 43.4006 10.64 43.5479 11.1898 43.8423C11.7404 44.1368 12.0677 44.7935 12.1722 45.4351H9.58317C9.60244 45.397 9.53239 45.2252 9.52119 45.1823C9.42196 44.8097 9.07532 44.7011 8.74326 44.6249C8.4711 44.5625 8.16014 44.5571 7.91481 44.7127C7.76558 44.8078 7.64969 44.9081 7.64969 45.0442C7.64969 45.1428 7.71115 45.2317 7.8346 45.3108C7.95466 45.3924 8.23827 45.4689 8.68597 45.5391C9.79412 45.7207 10.5877 45.9033 11.0674 46.0878C11.5466 46.2737 11.8953 46.5025 12.1138 46.7761C12.3318 47.0498 12.4412 47.3561 12.4412 47.6949C12.4412 48.0931 12.2956 48.46 12.0045 48.7955C11.7138 49.131 11.3073 49.3866 10.7851 49.56C10.2627 49.7337 9.60453 49.8202 8.81019 49.8202C7.41555 49.8202 6.44907 49.617 5.91231 49.2107C5.37477 48.8049 5.07084 48.3789 5 47.7516ZM17.3549 43.5173H19.6053V47.9062C19.6053 48.8068 19.0659 49.4447 17.987 49.8215C17.4877 49.9933 16.8892 49.9998 16.2116 49.9998C15.604 49.9998 15.0589 50.0114 14.5547 49.8753C13.3671 49.3831 12.7735 48.7266 12.7735 47.9062V43.5173H15.0398V47.2759C15.0398 47.9602 15.1274 48.4694 16.2118 48.4694C17.3181 48.4694 17.3403 47.938 17.3403 47.2538L17.3549 43.5173ZM32.0693 43.5173H34.32V47.9062C34.32 48.8068 33.7806 49.4447 32.7016 49.8215C32.2026 49.9933 31.6039 49.9998 30.9262 49.9998C30.3186 49.9998 29.7733 50.0114 29.2693 49.8753C28.0815 49.3831 27.488 48.7266 27.488 47.9062V43.5173H29.7543V47.2759C29.7543 47.9602 29.842 48.4694 30.9262 48.4694C32.0326 48.4694 32.0547 47.938 32.0547 47.2538L32.0693 43.5173ZM20.0684 43.5627H27.0392V44.9118L23.634 48.0863H27.0395V49.8534H20.0684V48.3343L23.3952 45.205H20.0746L20.0684 43.5627ZM34.8773 49.8423V43.5519H37.1116L37.1111 45.8803L39.5209 43.5519H42.3172L39.1084 46.6005L42.4508 49.8423H39.4339L37.1332 47.5914L37.1551 49.8423H34.8773ZM45 43.5511V49.8423H42.7701V43.5519H45V43.5511Z" fill="#015CD0"/>
</g>
</svg>
