<svg width="32" height="32" viewBox="0 0 32 32" fill="none" xmlns="http://www.w3.org/2000/svg">
<mask id="mask0_611_779" style="mask-type:alpha" maskUnits="userSpaceOnUse" x="0" y="0" width="32" height="32">
<rect width="32" height="32" fill="#D9D9D9"/>
</mask>
<g mask="url(#mask0_611_779)">
<mask id="mask1_611_779" style="mask-type:alpha" maskUnits="userSpaceOnUse" x="0" y="0" width="32" height="32">
<rect width="32" height="32" fill="#D9D9D9"/>
</mask>
<g mask="url(#mask1_611_779)">
<path d="M12.4484 6.76951C12.6861 5.96451 13.288 6.37531 13.288 6.37531C13.288 6.37531 14.8478 7.60736 19.1259 10.4312C23.4041 13.2551 28.7377 9.3363 28.7377 9.3363L16.07 0C10.5139 6.10888 3.40236 8.29894 3.40236 8.29894L3.42252 8.30706L19.615 20.0848C19.3773 20.8898 18.7754 20.4792 18.7754 20.4792C18.7754 20.4792 17.2156 19.247 12.9374 16.4229C8.65927 13.599 3.32568 17.518 3.32568 17.518L15.9933 26.8543C21.5494 20.7453 28.661 18.5554 28.661 18.5554L28.6405 18.5471L12.4484 6.76951Z" fill="#FF0016"/>
<path d="M3.19995 30.561L5.14877 30.5717C5.18227 30.7619 5.1296 30.7612 5.23211 30.8605C5.39262 31.0154 5.64164 31.0506 5.85066 31.0124C6.02184 30.9813 6.28719 30.927 6.29986 30.7066C6.31369 30.4673 6.15402 30.384 5.95367 30.3566C5.67664 30.3191 5.39712 30.3093 5.12093 30.2635C4.40938 30.1423 4.03102 30.088 3.72799 29.8876C3.4223 29.687 3.39597 29.2503 3.39597 28.9394C3.39597 28.7351 3.47414 28.5423 3.63048 28.3602C3.78683 28.1789 4.02202 28.0361 4.33587 27.9318C4.6499 27.8279 5.0801 27.7764 5.62697 27.7764C6.29769 27.7764 6.80957 27.8706 7.16143 28.059C7.51379 28.2475 7.7233 28.6678 7.79014 29.0784H6.13318C6.14551 29.0541 6.10068 28.9441 6.09351 28.9166C6.03001 28.6782 5.80816 28.6087 5.59564 28.5599C5.42146 28.52 5.22244 28.5165 5.06543 28.6161C4.96992 28.677 4.89575 28.7411 4.89575 28.8283C4.89575 28.8914 4.93509 28.9482 5.01409 28.9989C5.09093 29.0511 5.27245 29.1 5.55897 29.145C6.26819 29.2612 6.77606 29.3781 7.08309 29.4962C7.38978 29.6151 7.61296 29.7615 7.75281 29.9367C7.89232 30.1118 7.96232 30.3079 7.96232 30.5247C7.96232 30.7795 7.86915 31.0143 7.6828 31.2291C7.49679 31.4438 7.2366 31.6074 6.90241 31.7184C6.56805 31.8295 6.14685 31.8849 5.63848 31.8849C4.74591 31.8849 4.12736 31.7548 3.78383 31.4948C3.4398 31.2351 3.24529 30.9625 3.19995 30.561ZM11.1071 27.8511H12.5473V30.6599C12.5473 31.2363 12.2022 31.6445 11.5116 31.8857C11.1921 31.9957 10.809 31.9998 10.3753 31.9998C9.98648 31.9998 9.63762 32.0073 9.31493 31.9201C8.55487 31.6051 8.17501 31.185 8.17501 30.6599V27.8511H9.62545V30.2565C9.62545 30.6945 9.68146 31.0204 10.3755 31.0204C11.0836 31.0204 11.0977 30.6803 11.0977 30.2424L11.1071 27.8511ZM20.5243 27.8511H21.9648V30.6599C21.9648 31.2363 21.6196 31.6445 20.929 31.8857C20.6096 31.9957 20.2264 31.9998 19.7927 31.9998C19.4039 31.9998 19.0549 32.0073 18.7323 31.9201C17.9721 31.6051 17.5922 31.185 17.5922 30.6599V27.8511H19.0427V30.2565C19.0427 30.6945 19.0989 31.0204 19.7927 31.0204C20.5008 31.0204 20.515 30.6803 20.515 30.2424L20.5243 27.8511ZM12.8437 27.8801H17.3051V28.7435L15.1257 30.7752H17.3052V31.9061H12.8437V30.9339L14.9729 28.9311H12.8477L12.8437 27.8801ZM22.3214 31.899V27.8732H23.7514L23.7511 29.3634L25.2933 27.8732H27.083L25.0293 29.8243L27.1685 31.899H25.2377L23.7652 30.4585L23.7792 31.899H22.3214ZM28.8 27.8727V31.899H27.3728V27.8732H28.8V27.8727Z" fill="#015CD0"/>
</g>
</g>
</svg>
