<svg width="90" height="40" viewBox="0 0 90 40" fill="none" xmlns="http://www.w3.org/2000/svg">
<mask id="mask0_1199_40" style="mask-type:alpha" maskUnits="userSpaceOnUse" x="0" y="0" width="90" height="40">
<rect width="90" height="40" fill="#D9D9D9"/>
</mask>
<g mask="url(#mask0_1199_40)">
<path d="M66.5203 29.0406C69.2191 28.2203 72.4118 28.9331 74.232 30.7468C76.0667 32.5746 76.3595 35.197 74.8665 37.2398C73.3678 39.2919 70.4106 40.339 67.5424 39.9019C64.3038 39.4064 61.9811 37.0061 61.9466 34.3556C61.9754 31.9833 63.787 29.8727 66.5203 29.0406ZM66.9768 38.523C69.1588 39.161 71.605 38.6421 73.098 37.1907C74.5651 35.7673 74.7431 33.6708 73.5803 32.0814C72.4261 30.5038 70.0948 29.625 67.8668 29.9849C65.3001 30.4009 63.454 32.2287 63.4281 34.3533C63.454 36.1763 64.8407 37.8989 66.9768 38.523Z" fill="#272525"/>
<path d="M67.6026 31.7822C68.8343 31.4012 70.29 31.7097 71.1427 32.5301C72.0126 33.3715 72.1562 34.608 71.4499 35.5546C70.7551 36.4871 69.4114 36.9569 68.1022 36.7606C66.6265 36.5409 65.6044 35.4728 65.5297 34.2807C65.5268 34.2597 65.524 34.2363 65.5268 34.213C65.5268 34.1849 65.5297 34.1569 65.5326 34.1312C65.6015 33.0817 66.3796 32.1608 67.6026 31.7822ZM68.7137 35.9028C69.845 35.9051 70.7924 35.1339 70.7895 34.213C70.7867 33.2897 69.8478 32.5231 68.7137 32.5231C67.5596 32.5231 66.6667 33.2921 66.6379 34.213C66.6695 35.1362 67.5596 35.9005 68.7137 35.9028Z" fill="#272525"/>
<path d="M20.781 29.0406C23.4799 28.2203 26.6725 28.9331 28.4928 30.7468C30.3274 32.5746 30.6203 35.197 29.1273 37.2398C27.6286 39.2919 24.6714 40.339 21.8032 39.9019C18.5617 39.4064 16.2418 37.0061 16.2074 34.3556C16.2361 31.9833 18.0478 29.8727 20.781 29.0406ZM21.2375 38.523C23.4196 39.161 25.8657 38.6421 27.3587 37.1907C28.8258 35.7673 29.0038 33.6708 27.841 32.0814C26.6869 30.5038 24.3556 29.625 22.1276 29.9849C19.5608 30.4009 17.7147 32.2287 17.6889 34.3533C17.7147 36.1763 19.1015 37.8989 21.2375 38.523Z" fill="#272525"/>
<path d="M21.8604 31.7822C23.0921 31.4012 24.5478 31.7097 25.4005 32.5301C26.2704 33.3715 26.414 34.608 25.7077 35.5546C25.0129 36.4871 23.6692 36.9569 22.36 36.7606C20.8843 36.5409 19.8622 35.4728 19.7875 34.2807C19.7847 34.2597 19.7818 34.2363 19.7846 34.213C19.7846 34.1849 19.7875 34.1569 19.7904 34.1312C19.8593 33.0817 20.6374 32.1608 21.8604 31.7822ZM22.9744 35.9028C24.1056 35.9051 25.0531 35.1339 25.0502 34.213C25.0474 33.2897 24.1085 32.5231 22.9744 32.5231C21.8202 32.5231 20.9273 33.2921 20.8986 34.213C20.9273 35.1362 21.8202 35.9005 22.9744 35.9028Z" fill="#272525"/>
<path d="M0.0114822 24.9363H2.94286C2.94286 24.726 2.94286 24.5133 2.94286 24.3029C2.20499 24.3029 1.46999 24.3029 0.732124 24.3029C0.660347 24.3029 0.602921 24.2819 0.565598 24.2492C0.562729 24.2468 0.55986 24.2445 0.556992 24.2422C0.554123 24.2398 0.554115 24.2398 0.551247 24.2375C0.511047 24.2048 0.485214 24.1604 0.485214 24.0996C0.485214 23.3236 0.485214 22.5453 0.485214 21.7693C0.485214 21.6595 0.600052 21.5683 0.732124 21.5683C1.50158 21.5683 2.27102 21.5683 3.0376 21.5683C3.28738 20.8087 4.00804 20.0888 4.72007 19.6307C5.46368 19.1516 6.23312 18.9109 7.14613 18.7496C8.92333 18.4364 10.7407 18.2681 12.5466 18.1326C15.3689 17.9222 18.2056 17.8193 21.0393 17.7703C22.8108 17.7329 24.5851 17.7212 26.3566 17.7352C27.1289 13.7712 28.5501 9.69734 31.5533 6.45788C31.5848 6.38776 31.6336 6.327 31.6968 6.27324C32.2481 5.47623 33.141 4.85685 34.166 4.48756C34.8005 4.25851 35.4493 4.12294 36.1355 4.05516C36.549 4.01543 37.2524 3.90792 37.7605 4.00843C39.4516 4.00843 41.1398 4.00843 42.8309 4.00843V3.13195H39.6957C39.1444 3.13195 38.6649 2.87952 38.4353 2.51257C38.1539 2.33493 37.9414 2.08484 37.8524 1.77632C37.594 0.88582 38.3175 0.0490827 39.4459 0C40.7666 0 42.0901 0 43.4108 0C46.5059 0 49.598 0 52.6931 0C56.2504 0 59.8076 0 63.3678 0C66.0724 0 68.7769 0 71.4815 0C72.1189 0 72.7563 0 73.3908 0C73.6291 0 73.8616 0.00467911 74.0913 0.0631109C75.1565 0.336572 75.5498 1.44677 74.9699 2.19002C74.9612 2.19937 74.9526 2.20872 74.9469 2.21807C74.832 2.7346 74.255 3.12961 73.5659 3.12961H70.1723V4.00609C70.9733 4.00609 71.7715 4.00609 72.5725 4.00609C73.6032 4.00609 74.6339 4.00609 75.6647 4.00609C77.0772 4.00609 77.9816 4.92463 78.6965 5.81747C80.1981 7.6943 81.1685 9.89601 82.0155 12.0136C82.3514 12.8503 82.6586 13.6941 82.9285 14.5472C83.1123 14.5098 83.3046 14.4887 83.4999 14.4887H87.6371C88.9377 14.4887 90 15.3535 90 16.4123V26.6098C90 27.6686 88.9377 28.5334 87.6371 28.5334H85.3661C85.3661 28.6269 85.3661 28.7204 85.3632 28.8139C85.3402 30.5177 84.2349 32.0814 82.4577 32.9789C80.8556 33.7899 79.0985 33.7432 77.2954 33.7432C76.9997 33.7432 76.6265 33.5562 76.5777 33.2991C76.5317 33.063 76.5001 32.8176 76.4599 32.5745C76.3939 32.5114 76.3451 32.4366 76.3279 32.3548C76.17 31.5789 75.8513 30.8356 75.3919 30.1625C73.9018 28.7017 71.6825 27.8112 69.3196 27.7761C66.8217 27.7411 64.4243 28.6503 62.8539 30.2326C61.9753 31.1161 61.4384 32.1819 61.2116 33.2968C61.1599 33.5539 60.7953 33.7408 60.4938 33.7408C57.2639 33.7408 54.0339 33.7408 50.8039 33.7408C45.6618 33.7408 40.5225 33.7408 35.3804 33.7408C34.209 33.7408 33.0376 33.7408 31.8662 33.7408C31.5676 33.7408 31.203 33.5539 31.1484 33.2968C30.6575 30.8941 28.596 28.8583 25.7278 28.101C22.8395 27.3391 19.6009 27.9561 17.4591 29.7137C16.2647 30.693 15.5211 31.9388 15.2455 33.2968C15.1938 33.5539 14.8292 33.7408 14.5277 33.7408C12.9141 33.7408 11.2977 33.7408 9.68417 33.7408C8.79414 33.7408 7.91271 33.7221 7.06 33.4837C5.63594 33.0864 4.40425 32.2777 3.66351 31.2049C2.97445 30.2046 2.89119 29.1575 2.89119 28.0426C2.89119 27.9795 2.90266 27.921 2.91989 27.8673C2.89118 27.3624 2.91129 26.8529 2.92277 26.3504H0V24.9363H0.0114822ZM31.5533 8.62454C31.0106 9.37714 30.534 10.1624 30.1263 10.9665C29.4315 12.3338 28.8975 13.7525 28.4783 15.1923C28.6477 15.1946 28.8171 15.1946 28.9808 15.1852C29.2593 15.1665 29.3368 15.0053 29.4688 14.7505C29.687 14.3205 29.8421 13.86 30.0316 13.4206C30.5484 12.2146 31.0681 11.0109 31.5848 9.80485C31.7657 9.38415 32.0385 8.90033 31.5533 8.62454ZM43.5946 0.610024C42.294 0.610024 40.9934 0.610024 39.6928 0.610024C39.6095 0.610024 39.5263 0.610024 39.443 0.610024C38.2429 0.663782 38.2716 2.14795 39.4545 2.20638C39.5722 2.2134 39.6899 2.20638 39.8076 2.20638C40.4881 2.20638 41.1685 2.20638 41.8461 2.20638C42.4289 2.20638 43.0118 2.20638 43.5917 2.20638V0.610024H43.5946ZM49.7473 0.610024C48.1281 0.610024 46.5116 0.610024 44.8923 0.610024C44.6368 0.610024 44.3784 0.610024 44.1229 0.610024V2.20638C45.9977 2.20638 47.8725 2.20638 49.7473 2.20638V0.610024ZM44.7861 3.13661V4.01309C49.6555 4.01309 54.5248 4.01309 59.3942 4.01309C62.3371 4.01309 65.2799 4.01309 68.2228 4.01309V3.13661H44.7861ZM56.3767 0.610024C55.6704 0.610024 54.9612 0.610024 54.2521 0.610024C52.9256 0.610024 51.5992 0.610024 50.2728 0.610024V2.20638C52.3055 2.20638 54.3411 2.20638 56.3738 2.20638V0.610024H56.3767ZM62.5294 0.610024C60.6546 0.610024 58.7798 0.610024 56.905 0.610024V2.20638C57.9414 2.20638 58.975 2.20638 60.0115 2.20638C60.8498 2.20638 61.6911 2.20638 62.5294 2.20638V0.610024ZM68.6793 0.610024C67.2552 0.610024 65.8283 0.610024 64.4042 0.610024C63.9535 0.610024 63.5056 0.610024 63.0548 0.610024V2.20638C64.9297 2.20638 66.8045 2.20638 68.6793 2.20638V0.610024ZM73.5343 2.20638C74.2291 2.18769 74.6397 1.68518 74.4559 1.14293C74.3267 0.759616 73.9047 0.614697 73.4625 0.607685C72.917 0.600673 72.3715 0.607685 71.8231 0.607685C70.9503 0.607685 70.0775 0.607685 69.2047 0.607685V2.20404C70.6489 2.20872 72.0959 2.24378 73.5343 2.20638ZM81.2145 14.0213C80.5627 12.1491 79.7933 10.277 78.7827 8.50533C78.4008 8.49365 77.9845 8.47494 77.6457 8.59648C77.0715 8.80216 76.7844 9.28598 76.7729 9.77447C76.7557 10.5177 76.7729 11.261 76.7729 12.0019C76.7729 12.7218 76.7557 13.444 76.7729 14.1639C76.7844 14.6664 77.1031 15.1595 77.7031 15.3489C78.0333 15.4517 78.4353 15.4143 78.7827 15.4143C79.7445 15.4143 80.7034 15.4143 81.6652 15.4143C81.5274 14.9469 81.3753 14.4817 81.2145 14.0213ZM82.1447 17.6347C82.1332 17.5085 82.1246 17.3823 82.1074 17.2561C82.1016 17.2163 82.0959 17.1766 82.0902 17.1392C82.0902 17.1345 82.0873 17.1275 82.0873 17.1205C82.0672 17.02 82.05 16.9195 82.027 16.819C82.0126 16.7536 81.9983 16.6881 81.9839 16.625C81.9782 16.625 81.9724 16.625 81.9696 16.625C80.9073 16.625 79.8478 16.625 78.7855 16.625C78.2888 16.625 77.7893 16.6437 77.3098 16.5152C76.3365 16.2534 75.5728 15.5545 75.3661 14.7388C75.1622 13.9442 75.2885 13.049 75.2885 12.2426C75.2885 11.4129 75.2627 10.5808 75.2885 9.75109C75.3144 8.87929 75.8341 8.04021 76.7815 7.59847C77.1892 7.40915 77.617 7.33903 78.0534 7.31332C77.6199 6.64953 77.1548 6.01614 76.5375 5.537C76.48 5.49259 76.4198 5.44818 76.3595 5.40611C76.3537 5.40143 76.348 5.39676 76.3422 5.39443C76.3394 5.39209 76.3365 5.39208 76.3336 5.38975C76.3049 5.37339 76.2762 5.35468 76.2446 5.34066C76.1929 5.31495 76.1441 5.29158 76.0924 5.27054C76.1212 5.2869 76.0034 5.24717 75.9489 5.22847C75.9403 5.22614 75.9345 5.22381 75.9288 5.22147C75.9173 5.22381 75.9058 5.2238 75.8857 5.22613C75.8628 5.22847 75.8398 5.22613 75.8197 5.22613C74.9555 5.24483 74.0884 5.22613 73.2271 5.22613C69.0238 5.22613 64.8234 5.22613 60.6202 5.22613C55.6618 5.22613 50.7006 5.22613 45.7422 5.22613C43.9305 5.22613 42.1189 5.22613 40.3101 5.22613C39.4545 5.22613 38.5903 5.25652 37.7347 5.22613C37.7089 5.22613 37.683 5.22381 37.6572 5.22147C37.6601 5.22381 37.6658 5.2238 37.6687 5.22613C35.8312 5.13732 33.8186 5.58608 32.9113 7.00013C32.9055 7.01182 32.8969 7.02117 32.8883 7.03052C32.7505 7.23386 32.5208 7.42785 32.3457 7.62418C33.1668 8.08462 33.5602 8.86527 33.1984 9.71604C32.9601 10.277 32.7161 10.8356 32.4778 11.3942C31.9294 12.668 31.4614 14.0002 30.8183 15.246C30.5398 15.7859 30.1091 16.2651 29.3598 16.3702C28.9722 16.424 28.5587 16.403 28.1625 16.396C28.0333 16.9172 27.9185 17.4384 27.8151 17.9619C28.8028 17.9619 29.7904 17.9619 30.7781 17.9619C30.7723 17.6978 30.7293 17.4033 30.7896 17.1462C30.8527 16.8844 31.0192 16.6133 31.1283 16.3609C32.36 13.5141 33.5889 10.6673 34.8206 7.82051C34.921 7.58679 35.0215 7.35306 35.1249 7.11933C35.4981 6.34336 36.3221 5.88525 37.3442 5.8759C37.7778 5.87123 38.2142 5.8759 38.6477 5.8759C40.5082 5.8759 42.3715 5.8759 44.232 5.8759C46.2331 5.8759 48.2343 5.8759 50.2354 5.8759C50.8441 5.8759 51.4528 5.8759 52.0643 5.8759C52.4691 5.8759 52.9027 5.84552 53.296 5.91797C54.1114 6.07223 54.6655 6.59345 54.8349 7.22217C54.855 7.18478 54.878 7.14737 54.9038 7.10997C55.4034 6.34802 56.3796 5.89226 57.4304 5.8759C57.6543 5.87123 57.8783 5.8759 58.0993 5.8759C61.1283 5.8759 64.1602 5.8759 67.1892 5.8759C68.4238 5.8759 69.6583 5.8759 70.8929 5.8759C71.1944 5.8759 71.4958 5.86889 71.7944 5.90629C72.8567 6.03951 73.7525 6.67291 74.0827 7.50497C74.3066 8.06826 74.2176 8.7414 74.2176 9.32572C74.2176 10.4242 74.2176 11.5227 74.2176 12.6189C74.2176 14.3999 74.2176 16.1809 74.2176 17.9596C74.4014 17.9596 74.5851 17.9596 74.7689 17.9596C75.1392 17.9596 75.5096 17.9596 75.8771 17.9596C77.7749 17.9596 79.6842 17.9152 81.5848 17.9386C81.7858 17.9339 81.9868 17.9339 82.1878 17.9339C82.1677 17.8357 82.1533 17.7352 82.1447 17.6347ZM54.3928 22.2438C54.3928 21.4795 54.3928 20.7152 54.3928 19.9509C54.1459 19.9019 53.9621 19.7219 53.9621 19.5069V19.1703C51.8231 19.1703 49.6842 19.1703 47.5423 19.1703C45.2943 19.1703 43.0462 19.1703 40.7982 19.1703C38.3721 19.1703 35.9489 19.1703 33.5228 19.1703C32.7735 19.1703 32.0184 19.1773 31.2661 19.1843C31.2661 19.3503 31.2661 19.5185 31.2661 19.6845C31.2661 21.2902 31.2661 22.8936 31.2661 24.4993C31.2661 24.9597 31.2633 25.4225 31.2661 25.8829C31.2719 26.7314 31.9638 27.4022 33.0376 27.4325C35.6876 27.5073 38.3549 27.4325 41.0077 27.4325C44.5564 27.4325 48.1051 27.4325 51.6537 27.4325C51.9638 27.4325 52.2739 27.4396 52.5811 27.4325C53.5946 27.4115 54.3554 26.8132 54.387 25.9811C54.4014 25.6305 54.3985 25.2799 54.3956 24.9293C54.1459 24.8826 53.9592 24.7003 53.9592 24.4829V22.6832C53.9621 22.4729 54.1459 22.2929 54.3928 22.2438ZM31.269 17.2935C31.269 17.4594 31.269 17.6254 31.269 17.7936C31.269 17.8497 31.269 17.9058 31.269 17.9619C31.5762 17.9619 31.8834 17.9619 32.1935 17.9619C34.3009 17.9619 36.4083 17.9619 38.5156 17.9619C40.89 17.9619 43.2644 17.9619 45.6388 17.9619C48.4123 17.9619 51.1886 17.9619 53.9621 17.9619V17.7095C53.9621 17.4945 54.1459 17.3145 54.3928 17.2654C54.3928 16.4357 54.3928 15.6036 54.3928 14.7739C54.3928 12.4249 54.3928 10.076 54.3928 7.72702C54.3928 7.13802 54.1057 6.58876 53.3793 6.36438C52.9831 6.24285 52.5179 6.28259 52.0959 6.28259C50.6374 6.28259 49.1817 6.28259 47.7232 6.28259C44.321 6.28259 40.9216 6.28259 37.5194 6.28259C36.6782 6.28259 35.9259 6.54436 35.5957 7.22918C34.5708 9.60151 33.5429 11.9738 32.518 14.3485C32.1074 15.2974 31.6107 16.251 31.2776 17.221C31.2748 17.2327 31.2719 17.2374 31.269 17.2397C31.269 17.2467 31.269 17.2631 31.269 17.2935ZM73.7181 8.21083C73.6894 7.14738 72.6558 6.30362 71.3494 6.28259C70.669 6.2709 69.9828 6.28259 69.3023 6.28259C66.2015 6.28259 63.1036 6.28259 60.0029 6.28259C59.1588 6.28259 58.3147 6.2709 57.4706 6.28259C56.0006 6.30128 55.056 7.23619 55.056 8.38379C55.056 10.1484 55.056 11.9131 55.056 13.6777C55.056 14.8697 55.056 16.0617 55.056 17.2537C55.3402 17.2771 55.5613 17.4734 55.5613 17.7095V17.9619C56.3595 17.9619 57.1576 17.9619 57.9558 17.9619C59.2564 17.9619 60.557 17.9619 61.8576 17.9619C65.8111 17.9619 69.7646 17.9619 73.7181 17.9619C73.7181 16.9055 73.7181 15.849 73.7181 14.7926C73.7181 12.7218 73.7181 10.6486 73.7181 8.57779C73.7181 8.45625 73.7209 8.33237 73.7181 8.21083ZM73.7181 22.8048C73.7181 22.5103 73.7181 22.2158 73.7181 21.9213C73.7181 21.0027 73.7181 20.0865 73.7181 19.168C70.3991 19.168 67.0801 19.168 63.7611 19.168C62.5869 19.168 61.4154 19.168 60.2412 19.168C58.6822 19.168 57.1203 19.168 55.5613 19.168V19.5045C55.5613 19.7406 55.3374 19.9369 55.056 19.9603C55.056 20.5025 55.056 21.0471 55.056 21.5894C55.056 21.8021 55.0531 22.0171 55.0502 22.2298C55.3374 22.2508 55.5613 22.4471 55.5613 22.6856V24.4853C55.5613 24.7307 55.3201 24.9317 55.0215 24.941C55.0301 25.2005 55.0388 25.4622 55.0589 25.7193C55.1364 26.722 56.1872 27.5354 57.4246 27.5354C57.6974 27.5073 57.9931 26.9768 58.1395 26.8038C58.3204 26.5911 58.5128 26.3831 58.7109 26.1798C59.0755 25.8105 59.4689 25.4599 59.8966 25.1373C60.6718 24.5507 61.5475 24.0505 62.495 23.6672C64.2205 22.9684 66.1413 22.6575 68.0591 22.6411C69.7473 22.6271 71.4384 22.8328 73.0721 23.1811C73.3305 23.2371 73.6204 23.2675 73.7181 23.0128C73.741 22.9567 73.7181 22.8655 73.7181 22.8048ZM4.43009 27.8743C4.43009 27.9491 4.43582 28.0239 4.44157 28.0987C5.07608 29.6062 6.79012 30.6346 8.7683 30.658C10.3876 30.658 12.0069 30.658 13.6291 30.658C14.3554 28.0589 16.7614 25.9087 19.8852 25.0696C23.2415 24.165 27.0629 24.9387 29.532 26.9908C30.7494 28.0005 31.6049 29.2813 31.9868 30.658C34.9928 30.658 37.996 30.658 41.002 30.658C46.0695 30.658 51.137 30.658 56.2044 30.658C57.1634 30.658 58.1194 30.658 59.0755 30.658C59.7732 28.1618 62.0069 26.1003 64.9498 25.1794C68.1453 24.1791 71.8404 24.7634 74.4215 26.5654C75.8455 27.5588 76.859 28.9097 77.3529 30.3775C77.3873 30.478 77.3902 30.5715 77.3701 30.6556C77.6084 30.6556 77.8467 30.6556 78.0821 30.6556C80.6489 30.6299 82.7562 28.9822 82.7677 26.8786C82.7735 25.523 82.7677 24.1674 82.7677 22.8094C82.7677 22.1573 82.6299 21.5379 82.4835 20.8999C82.4634 20.8111 82.4663 20.7199 82.4864 20.6311C82.3773 20.1426 82.271 19.6565 82.1619 19.168C80.5082 19.168 78.8544 19.168 77.2036 19.168C76.9107 19.168 76.6179 19.168 76.325 19.168C75.6187 19.168 74.9153 19.168 74.209 19.168C74.209 19.6658 74.209 20.1636 74.209 20.6615C74.209 21.4071 74.2176 22.1527 74.209 22.8959C74.2061 23.2021 74.12 23.4989 73.7181 23.6205C73.3506 23.7326 72.8711 23.5503 72.5036 23.4779C72.1074 23.4008 71.7083 23.3306 71.3063 23.2722C67.1375 22.6622 62.7189 23.2512 59.71 25.8502C59.2736 26.2265 58.8803 26.6309 58.5214 27.0563C58.2257 27.4092 58.0448 27.8275 57.5108 27.9234C57.4849 27.9304 57.4533 27.9374 57.4218 27.9374C57.3959 27.9397 57.3701 27.9397 57.35 27.9351C56.1527 27.9117 55.2139 27.2993 54.7947 26.4649C54.5449 27.1895 53.8013 27.7481 52.8309 27.8229C51.9839 27.8883 51.1025 27.8322 50.2555 27.8322C48.3721 27.8322 46.4858 27.8322 44.6024 27.8322C40.9963 27.8322 37.3931 27.8322 33.787 27.8322C33.5372 27.8322 33.2874 27.8369 33.0376 27.8322C31.7801 27.8042 30.8097 27.0142 30.7752 25.9905C30.7379 24.9247 30.7752 23.8518 30.7752 22.7861C30.7752 21.5847 30.7752 20.3833 30.7752 19.1843C29.42 19.196 28.062 19.2054 26.7126 19.1656C26.681 19.1656 26.6494 19.1656 26.615 19.1656C25.7393 19.1656 24.8665 19.1656 23.9908 19.1656C21.2633 19.1656 18.5185 19.2334 15.7939 19.1656C15.7565 19.1656 15.7192 19.1656 15.6848 19.1656C15.6015 19.1703 15.5268 19.1633 15.4579 19.1493C13.2616 19.2498 11.0709 19.411 8.90611 19.7032C8.15388 19.8037 7.30405 19.8785 6.58628 20.0982C6.10394 20.2454 5.63593 20.5399 5.27992 20.8391C4.92104 21.1383 4.44156 21.6478 4.43582 22.0825C4.43582 23.0315 4.42721 23.9804 4.42434 24.9293H6.41113V26.3551H4.42146C4.42146 26.8669 4.42435 27.3694 4.43009 27.8743ZM2.94574 22.0896C2.94574 22.0615 2.9486 22.0358 2.95147 22.0124C2.95147 22.0007 2.95435 21.9867 2.95435 21.975C2.29687 21.975 1.63938 21.975 0.979034 21.975C0.979034 22.6178 0.979034 23.2605 0.979034 23.9033C1.63364 23.9033 2.28826 23.9033 2.94286 23.9033C2.94574 23.2979 2.94574 22.6926 2.94574 22.0896Z" fill="#272525"/>
<path d="M8.41508 20.3505C8.43231 20.3459 8.44953 20.3412 8.46963 20.3365C9.15008 20.236 9.83052 20.1332 10.511 20.0327C10.8153 19.9883 11.111 19.9345 11.4182 20.0046C11.9207 20.1192 12.2997 20.4884 12.3169 20.9162C12.3513 21.7015 11.4814 21.9025 10.7234 22.0147C10.287 22.0801 9.84774 22.1456 9.41134 22.211C9.14146 22.2507 8.85721 22.3139 8.58159 22.2952C7.17763 22.1923 7.15754 20.6521 8.41508 20.3505ZM8.78832 21.8908C9.00652 21.8768 9.23046 21.8277 9.44579 21.795C10.0171 21.7108 10.6143 21.6571 11.1771 21.5379C12.0527 21.3509 11.9752 20.3459 11.0278 20.3669C10.8124 20.3716 10.5856 20.4277 10.376 20.4604C9.78458 20.5492 9.19313 20.6357 8.60169 20.7245C7.70017 20.9092 7.82363 21.9492 8.78832 21.8908Z" fill="#272525"/>
<path d="M51.0165 21.1266H48.7599C48.4325 21.1266 48.1655 20.9092 48.1655 20.6428V20.575C48.1655 20.3085 48.4325 20.0912 48.7599 20.0912H51.0165C51.3438 20.0912 51.6108 20.3085 51.6108 20.575V20.6428C51.6108 20.9092 51.341 21.1266 51.0165 21.1266Z" fill="#272525"/>
<path d="M72.7621 14.5378C72.7506 15.5568 72.0012 16.4847 70.7609 16.7629C70.2786 16.8704 69.7589 16.8423 69.2651 16.8423C65.814 16.8423 62.363 16.8423 58.9119 16.8423C58.82 16.8423 58.7282 16.8423 58.6363 16.8423C58.6047 16.8423 58.5731 16.84 58.5416 16.8377C57.0716 16.7605 55.949 15.8256 55.9116 14.6126C55.8944 14.1077 55.9116 13.6029 55.9116 13.098C55.9116 11.8055 55.8111 10.4826 55.9174 9.19246C56.015 8.00279 57.1979 7.11462 58.6478 7.08424C59.0583 7.07489 59.4689 7.08424 59.8795 7.08424C61.806 7.08424 63.7325 7.08424 65.659 7.08424C67.0945 7.08424 68.5301 7.07021 69.9656 7.08424C71.183 7.09592 72.2826 7.6966 72.6443 8.66423C72.8338 9.16908 72.7621 9.7534 72.7621 10.2746C72.7621 11.6957 72.7764 13.1191 72.7621 14.5378ZM70.7925 8.5053C70.4049 8.26456 69.9599 8.29494 69.5091 8.29494C68.8488 8.29494 68.1855 8.29494 67.5252 8.29494C64.568 8.29494 61.5935 8.2108 58.6392 8.29494C57.7692 8.32065 57.4017 8.8886 57.4017 9.51967C57.4017 10.1344 57.4017 10.7491 57.4017 11.3638C57.4017 12.1257 57.4017 12.89 57.4017 13.652C57.4017 14.0376 57.3185 14.5121 57.4477 14.8907C57.5998 15.3325 58.0879 15.6176 58.642 15.6316C61.5906 15.6316 64.5393 15.6316 67.4879 15.6316C68.1626 15.6316 68.8373 15.6316 69.5149 15.6316C69.9685 15.6316 70.4135 15.662 70.7982 15.4213C71.3409 15.0824 71.2806 14.5729 71.2806 14.0844C71.2806 13.3762 71.2806 12.6703 71.2806 11.9621C71.2806 11.2539 71.2806 10.5481 71.2806 9.83987C71.2748 9.35372 71.3351 8.8442 70.7925 8.5053Z" fill="#272525"/>
<path d="M34.1315 12.7826C34.5248 11.9271 34.9182 11.0694 35.3115 10.2139C35.6216 9.5408 35.8656 8.80922 36.2762 8.17816C36.7212 7.491 37.4361 7.21989 38.3491 7.21989C39.0497 7.21989 39.7473 7.21989 40.4479 7.21989C42.7333 7.21989 45.0158 7.21989 47.2983 7.21989C48.2372 7.21989 49.176 7.21989 50.112 7.21989C50.5685 7.21989 51.0566 7.18482 51.5102 7.2526C52.9256 7.46763 53.5286 8.65496 53.5314 9.70907C53.5343 10.4921 53.5314 11.2751 53.5314 12.058C53.5314 12.8527 53.5314 13.645 53.5314 14.4397C53.5314 15.4634 53.0233 16.6181 51.6796 16.9172C51.246 17.0154 50.7494 16.978 50.3015 16.978C49.4889 16.978 48.6764 16.978 47.8639 16.978C43.9018 16.978 39.9397 16.978 35.9776 16.978C35.8915 16.978 35.8053 16.978 35.7192 16.978C35.6848 16.978 35.6503 16.9757 35.6187 16.9733C34.0913 16.8822 32.8051 15.7392 33.3563 14.4724C33.6032 13.9045 33.8731 13.3459 34.1315 12.7826ZM35.7192 15.7649C38.9578 15.7649 42.1964 15.7649 45.435 15.7649C47.1318 15.7649 48.8315 15.7649 50.5283 15.7649C50.8814 15.7649 51.2834 15.8187 51.5676 15.6224C52.1734 15.204 52.0442 14.442 52.0442 13.8624C52.0442 12.4297 52.0758 10.9969 52.0442 9.56416C52.0327 8.97984 51.6968 8.42825 50.936 8.42825C50.333 8.42825 49.733 8.42825 49.1301 8.42825C45.4867 8.42825 41.8404 8.40955 38.197 8.42825C38.0419 8.42825 37.907 8.42123 37.7979 8.49603C37.4246 8.74845 37.2811 9.35615 37.1232 9.71609C36.9021 10.2139 36.6695 10.7047 36.4427 11.2003C36.0637 12.0253 35.6847 12.8527 35.3058 13.6778C35.1737 13.9653 35.0416 14.2527 34.9096 14.5425C34.8406 14.6945 34.7057 14.9072 34.7 15.0661C34.6827 15.4775 35.2713 15.7533 35.7192 15.7649Z" fill="#272525"/>
</g>
</svg>
