<svg width="90" height="40" viewBox="0 0 90 40" fill="none" xmlns="http://www.w3.org/2000/svg">
<mask id="mask0_611_1582" style="mask-type:alpha" maskUnits="userSpaceOnUse" x="0" y="0" width="90" height="40">
<rect width="90" height="40" transform="matrix(-1 0 0 1 90 0)" fill="#D9D9D9"/>
</mask>
<g mask="url(#mask0_611_1582)">
<path d="M69.9473 28.7438C71.3873 28.2182 73.0879 28.6683 74.067 29.8202C75.0662 30.9972 75.2351 32.7111 74.4192 34.0307C73.6033 35.3531 72.02 36.0101 70.4769 35.7277C68.7735 35.4146 67.5882 33.9216 67.4966 32.2749C67.4938 32.2414 67.4909 32.205 67.4909 32.1687C67.4909 32.1239 67.4937 32.082 67.4995 32.0401C67.5796 30.5639 68.5072 29.2666 69.9473 28.7438ZM71.2213 34.3186C72.4266 34.3159 73.4257 33.3373 73.4229 32.1603C73.42 30.9833 72.418 30.0047 71.2127 30.0103C69.9845 30.0159 69.0369 30.9888 69.0111 32.1687C69.0397 33.3457 69.9959 34.3214 71.2213 34.3186Z" fill="#272525"/>
<path d="M68.7076 25.2462C71.7223 24.1474 75.2867 25.0924 77.3222 27.522C79.3864 29.9879 79.7042 33.5386 77.995 36.2757C76.3059 38.9848 73.0307 40.3687 69.8499 39.7788C66.2455 39.1106 63.6546 35.9122 63.6116 32.3699C63.6374 29.1967 65.6615 26.3561 68.7076 25.2462ZM69.2 38.065C71.6965 38.9429 74.4764 38.1992 76.1799 36.2197C77.8576 34.2711 78.0351 31.383 76.7038 29.219C75.3725 27.0579 72.7043 25.8752 70.162 26.3813C67.2475 26.9628 65.1576 29.4679 65.1318 32.3671C65.1633 34.8694 66.7608 37.2095 69.2 38.065Z" fill="#272525"/>
<path d="M22.1963 28.8305C23.6364 28.3048 25.3369 28.755 26.3161 29.9069C27.3152 31.0839 27.4841 32.7977 26.6682 34.1174C25.8523 35.4398 24.2691 36.0968 22.726 35.8144C21.0225 35.5013 19.8373 34.0083 19.7456 32.3616C19.7428 32.328 19.7399 32.2917 19.7399 32.2553C19.7399 32.2106 19.7428 32.1687 19.7485 32.1267C19.8287 30.6505 20.7563 29.3561 22.1963 28.8305ZM23.4703 34.4053C24.6756 34.4025 25.6748 33.424 25.6719 32.247C25.669 31.0699 24.667 30.0914 23.4617 30.097C22.2335 30.1026 21.2859 31.0755 21.2601 32.2553C21.2916 33.4324 22.245 34.4081 23.4703 34.4053Z" fill="#272525"/>
<path d="M20.9569 25.3331C23.9716 24.2343 27.5359 25.1793 29.5715 27.6089C31.6356 30.0748 31.9534 33.6255 30.2443 36.3626C28.5551 39.0717 25.2799 40.4557 22.0992 39.8657C18.4948 39.1975 15.9038 35.9991 15.8609 32.4568C15.8895 29.2836 17.9107 26.4458 20.9569 25.3331ZM21.4493 38.1547C23.9458 39.0326 26.7257 38.2889 28.4292 36.3095C30.1068 34.3608 30.2843 31.4727 28.9531 29.3087C27.6218 27.1476 24.9535 25.9649 22.4113 26.471C19.4968 27.0525 17.4069 29.5576 17.3811 32.4568C17.4126 34.9563 19.0101 37.2964 21.4493 38.1547Z" fill="#272525"/>
<path d="M79.2059 16.196C79.2059 16.0562 79.3205 15.9584 79.4579 15.9472C81.3675 15.8102 85.2267 15.9808 85.2868 18.5417C85.2897 18.6759 85.1694 18.7905 85.0349 18.7905C83.2026 18.7933 81.3703 18.7961 79.5381 18.8017C79.4608 18.8017 79.4035 18.7738 79.3606 18.7318C79.3606 18.7318 79.3577 18.7318 79.3577 18.729C79.1115 18.5361 79.2203 17.7812 79.2145 17.5212C79.2088 17.0795 79.2059 16.6378 79.2059 16.196ZM79.7614 18.4215C79.7671 18.4271 79.77 18.4327 79.7728 18.4383C79.7728 18.4355 79.7699 18.4271 79.7585 18.4159C79.7585 18.4187 79.7614 18.4187 79.7614 18.4215ZM79.7184 17.2752C79.7213 17.5268 79.727 17.7757 79.7356 18.0273C79.7385 18.1167 79.7556 18.2146 79.7528 18.3069C81.419 18.3041 83.0881 18.3013 84.7543 18.2985C84.5482 17.1103 83.0738 16.7133 81.9973 16.5483C81.2501 16.4337 80.4742 16.3945 79.7127 16.4309C79.7156 16.7105 79.7156 16.9928 79.7184 17.2752Z" fill="#272525"/>
<path d="M7.23474 16.5372C8.18237 16.0479 10.301 15.4245 10.9337 16.7133C11.4862 17.8344 10.0662 18.9835 9.20731 19.4448C8.21673 19.9788 6.17546 20.5911 5.44828 19.3386C5.43682 19.319 5.42824 19.2994 5.42252 19.2799C5.42252 19.2799 5.42252 19.2799 5.42252 19.2771C4.91864 18.1224 6.33864 17.0013 7.23474 16.5372ZM5.89204 19.1009C6.47608 20.0711 8.29975 19.3833 9.02408 18.9779C9.61098 18.6508 10.8993 17.7198 10.4641 16.9006C10.2408 16.4813 9.61671 16.4393 9.19586 16.4645C8.54598 16.5036 7.90754 16.7301 7.3464 17.0432C6.69652 17.4067 5.5714 18.2398 5.89204 19.1009Z" fill="#272525"/>
<path d="M47.8278 17.2053L49.9063 17.2025C50.2413 17.2025 50.5161 17.4681 50.5161 17.7952C50.5161 18.1223 50.2441 18.3907 49.9092 18.3907L47.8307 18.3935C47.4957 18.3935 47.2209 18.1279 47.2209 17.8008C47.2209 17.4737 47.4957 17.2053 47.8278 17.2053Z" fill="#272525"/>
<path d="M34.1668 8.6333C35.6641 7.26335 37.1757 5.91297 38.6702 4.54582C39.5147 3.77417 40.4566 3.24296 41.6104 3.05565C42.4521 2.91865 43.2995 2.91865 44.1498 2.91585C46.005 2.91306 47.8602 2.91027 49.7153 2.90468C50.809 2.90188 51.8253 3.30728 52.1975 4.40883C52.4008 5.00993 52.3063 5.7592 52.3092 6.38267C52.312 7.40035 52.312 8.41522 52.3149 9.4329C52.3149 10.0424 52.3807 10.6882 52.2834 11.2949C52.1088 12.4104 51.1268 13.115 50.0074 13.1318C49.5922 13.1374 49.1771 13.1346 48.762 13.1346C46.987 13.1373 45.2091 13.1401 43.4341 13.1429C40.0415 13.1485 36.6432 13.2156 33.2506 13.1625C33.1848 13.1625 33.1189 13.1625 33.0559 13.1625C33.0101 13.1625 32.9672 13.1597 32.9243 13.1513C32.2543 13.0786 31.6989 12.676 31.676 11.9547C31.6531 11.267 32.0854 10.5987 32.5435 10.1123C33.0416 9.58946 33.6314 9.11977 34.1668 8.6333ZM40.9204 11.6667C43.9322 11.6612 46.9469 11.65 49.9587 11.65C50.4368 11.65 50.7718 11.4068 50.7975 10.9119C50.8319 10.2744 50.7947 9.62301 50.7947 8.98277C50.7918 8.04897 50.7918 7.11516 50.7889 6.18136C50.7889 5.76479 50.9292 4.98476 50.6258 4.63249C50.2994 4.25226 49.535 4.38646 49.0884 4.38925C48.1493 4.39205 47.2103 4.39206 46.2712 4.39485C45.4668 4.39765 44.6651 4.39764 43.8607 4.40043C43.0562 4.40323 42.2402 4.39485 41.4558 4.59894C40.5368 4.83658 39.9327 5.39854 39.2628 6.04997C38.5385 6.75172 37.7569 7.38078 37.0125 8.06016C35.9017 9.07504 34.7136 10.0452 33.66 11.1188C33.4997 11.2809 33.3537 11.4739 33.2621 11.6807C35.8187 11.6751 38.3696 11.6695 40.9204 11.6667Z" fill="#272525"/>
<path d="M55.1945 5.33728C55.1945 4.75855 55.1945 4.20497 55.5294 3.68774C55.9932 2.97481 56.7634 2.72878 57.5822 2.72878C59.0251 2.72598 60.4651 2.72318 61.9081 2.72038C63.5514 2.71759 65.1088 2.83781 66.6004 3.60107C68.573 4.61316 70.0588 6.49754 70.5427 8.62236C70.7345 9.47229 70.8461 10.4816 70.7059 11.3511C70.5369 12.3883 69.6323 13.0621 68.5873 13.0984C67.6454 13.132 66.6949 13.1012 65.753 13.104C62.9788 13.1096 60.2046 13.1152 57.4304 13.118C57.4018 13.1208 57.3703 13.1208 57.3388 13.118C57.2844 13.118 57.23 13.1124 57.1814 13.104C56.0619 12.9838 55.2517 12.1507 55.2059 11.0268C55.1888 10.599 55.2031 10.1656 55.2031 9.73789C55.2002 8.27288 55.1973 6.80508 55.1945 5.33728ZM57.3331 11.6362C59.466 11.6334 61.596 11.6279 63.7289 11.6251C65.0143 11.6223 66.3027 11.6195 67.5881 11.6167C67.8945 11.6167 68.2065 11.6306 68.5157 11.6139C69.0396 11.5887 69.2171 11.2812 69.2171 10.8031C69.2143 8.97743 68.7333 7.30273 67.3734 5.98031C66.1567 4.79768 64.5391 4.19938 62.8328 4.19938C61.6046 4.19938 60.3735 4.20496 59.1453 4.20496C58.5956 4.20496 58.0488 4.20776 57.4991 4.20776C57.0783 4.20776 56.7491 4.35314 56.7147 4.82004C56.6231 6.0502 56.7204 7.3223 56.7233 8.55805C56.7233 9.22904 56.7262 9.90004 56.7262 10.571C56.7262 11.0295 56.6889 11.6055 57.3331 11.6362Z" fill="#272525"/>
<path d="M0.781609 24.9051C0.712898 24.701 0.678513 24.4774 0.678513 24.2425C0.678513 23.5603 0.518196 22.6293 0.86747 22.0059C1.19099 21.4299 1.83228 21.1587 2.44209 21.2286C2.44209 20.7226 2.45067 20.2193 2.47357 19.7189C2.63676 16.4394 5.43958 13.8477 8.78635 13.8001C9.75975 13.7973 10.7303 13.7974 11.7037 13.7946C13.1695 13.7918 14.6382 13.789 16.1069 13.7862C16.2071 13.7274 16.3302 13.6883 16.4733 13.6799C17.3837 13.6352 18.0565 13.5317 18.9297 13.364C20.533 13.0592 22.1677 12.6007 23.539 11.7061C24.2433 11.2448 24.6957 10.6772 25.1423 9.98666C25.7464 9.05286 26.422 8.16098 27.1549 7.32224C28.4948 5.79013 30.0723 4.45373 31.8101 3.36615C35.5433 1.02885 39.8893 -0.0279616 44.2867 0.0139757C46.64 0.0363422 48.9934 0 51.3467 0C53.3565 0 55.3691 0.0838806 57.3789 0.128614C58.7961 0.159368 60.2247 0.1398 61.639 0.271203C64.1812 0.511643 66.7235 1.02606 69.0854 1.98502C71.9656 3.15647 74.6968 5.15827 75.4841 8.25883C75.9765 10.2019 76.5691 12.1031 78.5503 13.1319C79.2689 13.5066 80.0705 13.6464 80.8807 13.652C80.9323 13.652 80.9838 13.6576 81.0296 13.6659C81.1756 13.6659 81.3188 13.6659 81.4648 13.6659C82.7273 13.6631 83.9584 13.9092 85.0492 14.5606C86.3346 15.3295 87.308 16.5289 87.789 17.924C88.0781 18.7655 88.1039 19.6294 88.1068 20.5045C88.1068 20.8316 88.1096 21.1587 88.1096 21.4858C88.6393 21.388 89.2147 21.5417 89.6012 21.9835C90.1309 22.5902 89.9791 23.5072 89.982 24.2453C89.982 24.6535 89.9992 25.0561 89.7902 25.4279C89.5182 25.9116 88.98 26.2275 88.416 26.2275C88.2929 26.2219 88.1755 26.2052 88.0667 26.18C87.9464 27.0914 87.6229 27.9609 87.1362 28.7298C87.2278 28.7661 87.2966 28.85 87.2908 28.9535C87.1992 30.5163 86.89 32.2218 85.2667 32.9123C84.113 33.4016 82.9592 33.3261 81.731 33.3289C81.7052 33.3289 81.6823 33.3233 81.6594 33.3177L79.7155 33.3205C79.8014 31.6682 79.4063 29.9879 78.5274 28.5425C76.718 25.5649 73.085 23.9322 69.6294 24.6311C66.5346 25.2546 64.124 27.4996 63.1964 30.3542C63.1277 30.6142 63.0704 30.877 63.0275 31.1454C63.016 31.2209 62.9845 31.2908 62.9416 31.3551C62.8442 31.8527 62.7927 32.3643 62.787 32.8844C62.7899 33.0409 62.7956 33.1975 62.807 33.3541L60.3993 33.4407V33.4379C57.648 33.5162 54.8939 33.4687 52.1426 33.4743C47.5591 33.4827 42.9755 33.4911 38.3948 33.4994C37.3183 33.5022 36.239 33.5023 35.1626 33.505C35.1568 33.505 35.1511 33.5022 35.1454 33.5022L33.5192 33.505V33.4883L32.0505 33.4911C32.0935 32.7977 32.0505 32.1015 31.9246 31.4166C31.8788 31.3523 31.8444 31.2796 31.833 31.2013C31.7614 30.7847 31.6612 30.3793 31.5295 29.9823C31.3549 29.5154 31.1373 29.0625 30.8767 28.6291C29.0817 25.6516 25.4801 24.0188 22.0503 24.7178C18.1166 25.5174 15.2967 28.9758 15.2623 32.9682C15.2652 33.1528 15.2738 33.3373 15.2881 33.519L13.2325 33.5218C13.2325 33.5162 13.2325 33.5106 13.2325 33.505C12.9004 33.5134 12.5683 33.5246 12.2362 33.533C12.219 33.5386 12.199 33.5414 12.1818 33.5414C10.7331 33.5442 9.28737 33.5498 7.83872 33.5526C6.23834 33.5554 4.26578 33.4575 3.30669 31.9925C2.59097 30.8993 2.70833 29.4791 2.9345 28.2573C2.9345 28.2321 2.94024 28.207 2.94883 28.1846C2.96028 28.1343 2.98318 28.0979 3.01467 28.07C2.91161 27.8379 2.82001 27.5975 2.74557 27.3543L1.31984 27.357C0.59552 27.357 -7.62939e-06 26.7811 -7.62939e-06 26.0738C0.00572205 25.5593 0.326401 25.1092 0.781609 24.9051ZM88.4188 25.7355C89.5239 25.7327 89.481 24.6451 89.481 23.8846C89.4781 23.1046 89.5611 21.9443 88.4131 21.9415C88.3043 21.9415 88.207 21.9527 88.1182 21.9723C88.1239 23.1326 88.1325 24.29 88.1211 25.4503C88.1211 25.5314 88.1182 25.6125 88.1125 25.6935C88.2041 25.7131 88.3072 25.7299 88.4188 25.7355ZM29.786 6.77985C29.0244 7.4788 28.3173 8.23647 27.6731 9.03887C27.4441 9.32405 27.2379 9.62039 27.0347 9.92234C30.0494 8.80961 32.6145 6.65404 33.9859 3.84424C32.4628 4.64105 31.0485 5.61959 29.786 6.77985ZM55.455 29.9012C56.2624 29.8984 57.0668 29.8984 57.8742 29.8956C58.6672 25.4223 62.5436 22.154 66.8724 20.9239C71.7222 19.5455 77.2334 20.5436 81.021 23.879C82.6787 25.3413 83.9383 27.2312 84.5052 29.3393C85.1465 28.9059 85.6819 28.3244 86.0569 27.6394C86.5007 26.8286 86.6037 25.9647 86.6037 25.0617C86.6009 24.1586 86.6009 23.2556 86.598 22.3553C86.5951 20.5325 86.8242 18.6201 85.6504 17.0573C84.7027 15.7964 83.2054 15.1477 81.628 15.1477C80.2996 15.1477 78.9711 15.1533 77.6456 15.1561C74.8743 15.1617 72.1001 15.1673 69.3288 15.1701C65.5898 15.1757 61.8508 15.1841 58.1118 15.1897C56.7834 15.1925 55.4522 15.1952 54.1238 15.198V15.5084C54.1238 15.7656 53.9434 15.9837 53.7 16.0508C53.7029 17.5465 53.7058 19.0423 53.7086 20.5381C53.9262 20.6191 54.0808 20.8232 54.0837 21.0609L54.0865 22.9984C54.0865 23.2388 53.9319 23.4429 53.7144 23.524C53.7172 25.1735 53.7201 26.823 53.7229 28.4726C53.7229 28.8332 53.7401 29.1939 53.7258 29.5546C53.7201 29.6776 53.7058 29.7922 53.68 29.904C54.2698 29.904 54.8624 29.904 55.455 29.9012ZM30.161 15.7293C30.1639 17.7311 30.1696 19.7357 30.1725 21.7375C31.3835 22.2743 32.5172 22.9732 33.5278 23.8399C35.3801 25.4279 36.7171 27.5583 37.1494 29.9376C39.457 29.932 41.7645 29.9292 44.072 29.9236C47.0924 29.918 50.1099 29.9124 53.1303 29.9068C53.2162 29.6161 53.2162 29.2945 53.2133 28.9507C53.2105 27.1418 53.2076 25.3301 53.2019 23.5212C52.9929 23.4373 52.8412 23.236 52.8412 23.0012L52.8383 21.0637C52.8383 20.8288 52.9872 20.6275 53.1962 20.5436C53.1933 19.0311 53.1904 17.5214 53.1876 16.0088C53.0043 15.9138 52.8784 15.7265 52.8784 15.514V15.2064C50.3962 15.212 47.9141 15.2148 45.4319 15.2204C41.2005 15.2288 36.9719 15.2372 32.7405 15.2428C31.8816 15.2456 31.0199 15.2456 30.161 15.2484C30.161 15.4077 30.161 15.5699 30.161 15.7293ZM30.1581 13.761C30.2612 13.761 30.3614 13.761 30.4645 13.761C34.7274 13.7526 38.9903 13.7442 43.2503 13.7386C46.4597 13.733 49.6662 13.7275 52.8755 13.7219V13.5765C52.8755 13.3612 53.0015 13.1739 53.1819 13.0788C53.179 12.2345 53.179 11.3902 53.1761 10.5458C53.1761 10.4619 53.1761 10.3753 53.1761 10.2914C53.1761 10.2886 53.1761 10.2886 53.1761 10.2858C53.1733 8.38464 53.1675 6.4835 53.1647 4.58234C53.1647 4.30276 53.1904 3.99522 53.1303 3.72123C52.9356 2.83495 52.0195 2.39601 51.1663 2.37364C50.359 2.35407 49.5402 2.3373 48.7357 2.3401C46.7603 2.34289 44.7849 2.34288 42.8094 2.35127C41.3465 2.35686 39.9179 2.58333 38.661 3.35498C37.2124 4.24405 36.073 5.58324 34.8791 6.76028C33.4419 8.18055 31.9876 9.58126 30.5389 10.9931C30.1839 11.3622 30.1667 11.7844 30.1667 12.268C30.1667 12.324 30.1954 12.528 30.1639 12.6567C30.181 12.7685 30.1524 13.0872 30.1524 13.1264C30.1581 13.3388 30.1581 13.5513 30.1581 13.761ZM29.7258 12.4358C29.7087 12.4246 29.6657 12.2541 29.6657 12.1981C29.6657 11.994 29.6714 11.7872 29.7029 11.5859C29.7631 11.214 29.9234 10.9205 30.1868 10.6465C31.5066 9.3576 32.8293 8.07152 34.1491 6.78265C35.3429 5.61679 36.4652 4.33631 37.8108 3.3354C39.1277 2.35687 40.6537 1.92352 42.297 1.8648C44.3697 1.78932 46.454 1.85082 48.5296 1.84523C49.3656 1.84243 50.2015 1.876 51.0432 1.8788C52.3716 1.88159 53.6371 2.65323 53.6771 4.05393C53.7344 6.12563 53.6857 8.20572 53.6886 10.2802C53.6886 10.2802 53.6886 10.283 53.6886 10.2858C53.6914 11.2028 53.6915 12.1171 53.6943 13.0341C53.9377 13.0984 54.118 13.3165 54.118 13.5737V13.7191C54.8366 13.7191 55.5552 13.7163 56.2767 13.7163C60.1731 13.7079 64.0696 13.7023 67.966 13.6939C70.8776 13.6883 73.7892 13.6827 76.7008 13.6771C76.5147 13.5206 76.3344 13.3528 76.1655 13.1711C75.2751 12.2149 74.6653 11.0323 74.296 9.79653C74.067 9.03327 73.9811 8.25883 73.6232 7.52913C72.9962 6.24585 71.9398 5.23376 70.7259 4.4705C68.3869 2.99991 65.5869 2.28977 62.8614 1.89835C62.5207 1.84803 62.5894 1.85922 62.2631 1.82008C62.0426 1.79492 61.8222 1.76975 61.5989 1.75018C61.3298 1.72502 61.0635 1.70264 60.7944 1.68867C60.302 1.6635 59.8038 1.6635 59.3114 1.65232C54.7307 1.55167 50.1643 1.48458 45.5836 1.49297C44.4413 1.49577 43.2933 1.44543 42.151 1.5321C40.9915 1.61877 40.0295 1.76974 38.8271 2.05492C37.6504 2.3345 36.4938 2.70915 35.383 3.18164C34.5184 5.76217 32.4313 8.0799 30.161 9.52254C28.9271 10.3054 27.5557 10.8729 26.1386 11.2476C26.0269 11.4013 25.9153 11.5523 25.795 11.6977C25.0278 12.6371 23.9542 13.2913 22.8176 13.7722C25.085 13.7694 27.3553 13.7638 29.6228 13.761C29.6285 13.3416 29.6428 12.9223 29.6715 12.5085C29.6743 12.4805 29.7115 12.4553 29.7258 12.4358ZM3.99954 25.1512C4.24575 25.386 4.40032 25.7103 4.40032 26.071C4.40032 26.3422 4.31445 26.5938 4.16558 26.8007C4.32304 27.3906 4.59215 27.9498 4.98151 28.4474C5.52833 29.1492 6.2727 29.6804 7.10581 29.9935C7.1917 29.9907 7.27758 29.9907 7.36347 29.9907C8.35977 29.9879 9.3532 29.9879 10.3495 29.9851C11.1454 25.4866 15.0619 22.21 19.4164 20.9938C22.7517 20.0628 26.4506 20.2361 29.6657 21.5222C29.6629 20.1159 29.66 18.7068 29.6571 17.3005C29.6571 16.6211 29.6371 15.9333 29.6256 15.2484C26.8944 15.254 24.1632 15.2596 21.4319 15.2624C18.6434 15.2679 15.8549 15.2735 13.0693 15.2763C11.7037 15.2791 10.3323 15.3043 8.96672 15.2847C8.9066 15.2847 8.84934 15.2847 8.78922 15.2847C6.3271 15.3183 4.15128 17.2082 3.99954 19.649C3.91365 21.0441 3.99381 22.4644 3.99667 23.8595C3.99953 24.29 3.99667 24.7206 3.99954 25.1512ZM1.28262 24.7933C1.29694 24.7933 1.30836 24.7905 1.32267 24.7905L2.47357 24.7877C2.47644 24.6255 2.47644 24.4662 2.47644 24.304C2.47358 23.4457 2.45068 22.579 2.44495 21.7151C2.38197 21.7067 2.31613 21.7011 2.24456 21.7011C1.13947 21.6983 1.18239 22.7943 1.18239 23.5519C1.18525 23.9545 1.16524 24.4186 1.28262 24.7933Z" fill="#272525"/>
</g>
</svg>
