<svg width="32" height="32" viewBox="0 0 32 32" fill="none" xmlns="http://www.w3.org/2000/svg">
<mask id="mask0_1199_990" style="mask-type:alpha" maskUnits="userSpaceOnUse" x="0" y="0" width="32" height="32">
<rect width="32" height="32" fill="#D9D9D9"/>
</mask>
<g mask="url(#mask0_1199_990)">
<mask id="mask1_1199_990" style="mask-type:alpha" maskUnits="userSpaceOnUse" x="0" y="0" width="32" height="32">
<rect width="32" height="32" fill="#D9D9D9"/>
</mask>
<g mask="url(#mask1_1199_990)">
<path d="M25.9778 29.706V31.9955H26.6879V30.4712H29.2722V31.9955H29.9818V29.71L25.9778 29.706ZM26.6087 28.9655H29.3391C29.7184 28.8875 30.0004 28.5415 30.0799 28.2067H25.868C25.9467 28.5416 26.2329 28.8875 26.6087 28.9655ZM23.8272 31.9969C24.1852 31.84 24.3778 31.5686 24.4516 31.2509H21.2668L21.2688 28.2086L20.5549 28.2107V31.9969H23.8272ZM15.2459 28.9552H17.7675C18.1477 28.841 18.4669 28.5416 18.5447 28.2096H14.539V30.4471H17.8175V31.2323L15.2459 31.2344C14.8429 31.3506 14.5011 31.6304 14.3307 32L14.539 31.996H18.5219V29.7032H15.2459V28.9552ZM9.02086 28.9624H11.7503C12.1301 28.8842 12.4123 28.5384 12.4914 28.2034H8.27975C8.35837 28.5384 8.64475 28.8842 9.02086 28.9624ZM9.02086 30.4588H11.7503C12.1301 30.3814 12.4123 30.0354 12.4914 29.7001H8.27975C8.35837 30.0355 8.64475 30.3814 9.02086 30.4588ZM9.02086 31.9965H11.7503C12.1301 31.9185 12.4123 31.5725 12.4914 31.2377H8.27975C8.35837 31.5726 8.64475 31.9185 9.02086 31.9965ZM1.91992 28.2126C2.00198 28.5435 2.27906 28.8817 2.65921 28.9664H3.80816L3.86676 28.9903V31.9881H4.58422V28.9903L4.6494 28.9664H5.79936C6.18376 28.864 6.45487 28.5435 6.53551 28.2126V28.2052H1.91992V28.2126Z" fill="#E82127"/>
<path d="M16.0014 24.4901L19.5863 5.13891C23.0033 5.13891 24.0811 5.49854 24.2367 6.96648C24.2367 6.96648 26.529 6.14614 27.6851 4.48006C23.1736 2.47354 18.6405 2.38305 18.6405 2.38305L15.9954 5.47527L16.0014 5.47488L13.3563 2.38257C13.3563 2.38257 8.82316 2.47316 4.31226 4.47967C5.46737 6.14575 7.76051 6.96609 7.76051 6.96609C7.91704 5.49806 8.99353 5.13842 12.3876 5.1361L16.0014 24.4901Z" fill="#E82127"/>
<path d="M15.9999 1.48976C19.6468 1.46299 23.8211 2.03125 28.0944 3.81886C28.6655 2.83218 28.8123 2.39612 28.8123 2.39612C24.1411 0.622283 19.7665 0.0152273 15.9994 0C12.2325 0.0152273 7.85817 0.62238 3.1875 2.39612C3.1875 2.39612 3.39587 2.93325 3.90496 3.81886C8.17738 2.03125 12.3524 1.46299 15.9994 1.48976H15.9999Z" fill="#E82127"/>
</g>
</g>
</svg>
