<svg width="50" height="50" viewBox="0 0 50 50" fill="none" xmlns="http://www.w3.org/2000/svg">
<mask id="mask0_611_1595" style="mask-type:alpha" maskUnits="userSpaceOnUse" x="0" y="0" width="50" height="50">
<rect width="50" height="50" fill="#D9D9D9"/>
</mask>
<g mask="url(#mask0_611_1595)">
<mask id="mask1_611_1595" style="mask-type:alpha" maskUnits="userSpaceOnUse" x="0" y="0" width="50" height="50">
<rect width="50" height="50" fill="#D9D9D9"/>
</mask>
<g mask="url(#mask1_611_1595)">
<path d="M40.5904 46.4157V49.9929H41.6999V47.6112H45.738V49.9929H46.8467V46.4219L40.5904 46.4157ZM41.5763 45.2585H45.8425C46.4351 45.1367 46.8757 44.596 47 44.073H40.4189C40.5419 44.5962 40.9891 45.1367 41.5763 45.2585ZM37.2301 49.9952C37.7895 49.75 38.0905 49.3259 38.2057 48.8296H33.2295L33.2326 44.0759L32.1171 44.0792V49.9952H37.2301ZM23.8218 45.2425H27.7618C28.3558 45.0641 28.8546 44.5962 28.9762 44.0775H22.7174V47.5737H27.84V48.8005L23.8218 48.8038C23.1921 48.9853 22.6582 49.4225 22.3918 50L22.7174 49.9937H28.9407V46.4113H23.8218V45.2425ZM14.0952 45.2538H18.36C18.9534 45.1315 19.3944 44.5913 19.518 44.0677H12.9372C13.0601 44.5913 13.5075 45.1315 14.0952 45.2538ZM14.0952 47.5919H18.36C18.9534 47.471 19.3944 46.9303 19.518 46.4064H12.9372C13.0601 46.9304 13.5075 47.471 14.0952 47.5919ZM14.0952 49.9946H18.36C18.9534 49.8726 19.3944 49.3321 19.518 48.8088H12.9372C13.0601 49.3322 13.5075 49.8726 14.0952 49.9946ZM3 44.0821C3.12821 44.5991 3.56115 45.1276 4.15514 45.26H5.95036L6.04194 45.2974V49.9813H7.16297V45.2974L7.26481 45.26H9.06162C9.66224 45.1 10.0859 44.5991 10.2119 44.0821V44.0707H3V44.0821Z" fill="#E82127"/>
<path d="M25.0021 38.2656L30.6034 8.02931C35.9426 8.02931 37.6266 8.59125 37.8698 10.8849C37.8698 10.8849 41.4514 9.60312 43.2578 6.99986C36.2086 3.86468 29.1257 3.72329 29.1257 3.72329L24.9928 8.55488L25.0021 8.55427L20.8691 3.72253C20.8691 3.72253 13.7861 3.86408 6.73779 6.99926C8.54265 9.60251 12.1257 10.8843 12.1257 10.8843C12.3703 8.59049 14.0523 8.02856 19.3556 8.02492L25.0021 38.2656Z" fill="#E82127"/>
<path d="M24.9999 2.32774C30.6982 2.28592 37.2205 3.17382 43.8975 5.96696C44.7899 4.42529 45.0193 3.74394 45.0193 3.74394C37.7204 0.972318 30.8851 0.0237927 24.9991 0C19.1134 0.0237927 12.2784 0.972469 4.98047 3.74394C4.98047 3.74394 5.30604 4.5832 6.1015 5.96696C12.7772 3.17382 19.3006 2.28592 24.9991 2.32774H24.9999Z" fill="#E82127"/>
</g>
</g>
</svg>
