<svg width="52" height="52" viewBox="0 0 52 52" fill="none" xmlns="http://www.w3.org/2000/svg">
<path d="M1.58632 27.5817H20.292L4.24546 37.2005C3.49356 37.6498 3.25516 38.6218 3.70446 39.3737C4.15376 40.1255 5.12573 40.364 5.87762 39.9147L21.5666 30.5068L12.4063 46.3424C11.9661 47.0943 12.2229 48.0663 12.984 48.5064C13.7358 48.9466 14.7078 48.6898 15.1479 47.9288L24.4274 31.8914V50.4137C24.4274 51.2848 25.1335 52 26.0138 52C26.8849 52 27.6001 51.294 27.6001 50.4137V31.708L37.2188 47.7454C37.6681 48.4973 38.6401 48.7357 39.392 48.2864C40.1439 47.8371 40.3823 46.8651 39.933 46.1132L30.5068 30.4334L46.3424 39.5937C47.0943 40.0339 48.0663 39.7771 48.5064 39.016C48.9466 38.2641 48.6898 37.2922 47.9288 36.8521L31.8914 27.5817H50.4137C51.2848 27.5817 52 26.8757 52 25.9954C52 25.1243 51.294 24.4091 50.4137 24.4091H31.708L47.7454 14.7903C48.4973 14.341 48.7357 13.3691 48.2864 12.6172C47.8371 11.8653 46.8651 11.6269 46.1132 12.0762L30.4334 21.4932L39.5937 5.65756C40.0339 4.90566 39.7771 3.9337 39.016 3.49356C38.2641 3.05343 37.2922 3.31017 36.8521 4.07124L27.5817 20.1086V1.58632C27.5817 0.715218 26.8757 0 25.9954 0C25.1243 0 24.4091 0.706048 24.4091 1.58632V20.292L14.7995 4.24546C14.3502 3.49356 13.3782 3.25516 12.6263 3.70446C11.8744 4.15376 11.636 5.12573 12.0853 5.87762L21.4932 21.5666L5.65756 12.4063C4.90566 11.9661 3.9337 12.2229 3.49356 12.984C3.05343 13.7358 3.31017 14.7078 4.07124 15.1479L20.1086 24.4274H1.58632C0.706048 24.4183 0 25.1243 0 25.9954C0 26.8757 0.706048 27.5817 1.58632 27.5817Z" fill="url(#paint0_linear_611_413)"/>
<defs>
<linearGradient id="paint0_linear_611_413" x1="26" y1="0" x2="26" y2="52" gradientUnits="userSpaceOnUse">
<stop stop-color="#E2E2E2"/>
<stop offset="1" stop-color="#E7E6E6" stop-opacity="0"/>
</linearGradient>
</defs>
</svg>
