<svg width="32" height="32" viewBox="0 0 32 32" fill="none" xmlns="http://www.w3.org/2000/svg">
<mask id="mask0_1199_998" style="mask-type:alpha" maskUnits="userSpaceOnUse" x="0" y="0" width="32" height="32">
<rect width="32" height="32" fill="#D9D9D9"/>
</mask>
<g mask="url(#mask0_1199_998)">
<path d="M15.962 27.0423C15.9572 25.3625 17.2259 24.0073 18.8106 24.0044C20.3565 24.007 21.6263 25.3622 21.6575 27.0423C21.6267 28.7033 20.3569 30.0585 18.8106 30.082C17.2259 30.0585 15.9573 28.7033 15.962 27.0423ZM18.8108 28.9622C19.6662 28.9481 20.3745 28.0903 20.3833 27.0423C20.3745 25.9742 19.6662 25.1164 18.8108 25.1224C17.9183 25.1161 17.2083 25.9739 17.2365 27.0423C17.2083 28.0902 17.9183 28.948 18.8108 28.9622ZM24.8797 25.2825V29.922H23.6815V25.2825H21.9573V24.2445H26.5288V25.2825H24.8797ZM27.9518 28.6408L27.5032 29.9221H26.0803L28.328 24.2445H29.826L32 29.9221H30.577L30.1274 28.6408H27.9518ZM29.0777 27.6823H29.826L29.0777 25.6023L28.328 27.6823H29.0777ZM2.84739 25.2825V29.922H1.6484V25.2825H0V24.2445H4.49658V25.2825H2.84739ZM4.79642 27.0423C4.79879 25.3625 6.06687 24.0073 7.64279 24.0044C9.1984 24.007 10.4684 25.3622 10.4913 27.0423C10.4684 28.7033 9.1984 30.0585 7.64279 30.082C6.06687 30.0585 4.79867 28.7033 4.79642 27.0423ZM7.64279 28.9622C8.50842 28.9481 9.21612 28.0903 9.21691 27.0423C9.21601 25.9742 8.50842 25.1164 7.64279 25.1224C6.7591 25.1161 6.05016 25.9739 6.07082 27.0423C6.05016 28.0902 6.7591 28.948 7.64279 28.9622ZM13.1892 29.922H13.7881V27.7621L15.8871 24.2445H14.5386L13.1892 26.6424L11.9148 24.2445H10.4914L12.5904 27.7621V29.922H13.1892Z" fill="#AB002F"/>
<path d="M0.964844 11.7467C0.964844 17.1641 7.56612 21.5717 15.6799 21.5717C23.7935 21.5717 30.3949 17.1641 30.3949 11.7467C30.3948 6.32891 23.7935 1.92188 15.6798 1.92188C7.56601 1.92188 0.964844 6.32891 0.964844 11.7467ZM1.4164 11.7467C1.4164 6.59561 7.81482 2.40456 15.6799 2.40456C23.5447 2.40456 29.9434 6.59561 29.9434 11.7467C29.9434 16.8989 23.5447 21.0899 15.6799 21.0899C7.81482 21.0897 1.4164 16.899 1.4164 11.7467Z" fill="#13141A"/>
<path d="M14.2895 3.70774C10.8455 3.93216 8.34395 4.9062 7.91757 6.18946C7.87415 6.31877 7.85178 6.45505 7.85142 6.5924C7.85142 6.80887 7.90877 7.02534 8.02256 7.23229C8.50053 8.10129 9.98423 8.8179 12.0956 9.20229L12.3191 9.24132L12.3566 9.00305C12.7032 6.74719 13.4639 4.9733 14.4446 4.13574L15.0002 3.66064L14.2895 3.70774ZM8.41236 6.98932C8.33876 6.85573 8.30252 6.72395 8.30252 6.59409C8.30252 6.51218 8.31573 6.43219 8.34305 6.35076C8.66851 5.37046 10.8794 4.51423 13.7038 4.23801C12.8981 5.21048 12.2786 6.77755 11.9554 8.68142C10.12 8.31908 8.80036 7.6951 8.41236 6.98932ZM13.6598 9.14724L13.6156 9.40936L13.8648 9.4296C14.4556 9.4767 15.0665 9.50212 15.6793 9.50212C16.2928 9.50212 16.904 9.4767 17.4949 9.4296L17.7436 9.40936L17.6994 9.14724C17.3597 7.11171 16.604 5.89578 15.6797 5.89578C14.7547 5.89578 13.9993 7.11171 13.6598 9.14724ZM15.6798 6.37762C16.3118 6.37762 16.8952 7.38744 17.2026 8.96378C16.7028 8.99859 16.1938 9.02028 15.6793 9.02028C15.1656 9.02028 14.6564 8.99859 14.1572 8.96378C14.4636 7.38744 15.048 6.37762 15.6798 6.37762ZM16.9146 4.13598C17.8949 4.97354 18.6565 6.74768 19.003 9.00329L19.04 9.24156L19.2632 9.20253C21.3755 8.81815 22.86 8.10129 23.3363 7.23241C23.5215 6.89849 23.5567 6.53783 23.4421 6.18983C23.0159 4.90668 20.5143 3.93264 17.0705 3.70799L16.3606 3.66089L16.9146 4.13598ZM17.6567 4.23801C20.4803 4.51423 22.6911 5.37202 23.0156 6.35076C23.0439 6.43219 23.0571 6.51218 23.0571 6.59409C23.0571 6.72395 23.0201 6.85573 22.9481 6.98932C22.5588 7.69497 21.2387 8.31908 19.4042 8.68142C19.081 6.77767 18.4624 5.21061 17.6567 4.23801ZM5.73837 7.1352C4.19055 8.51868 3.37256 10.1622 3.37256 11.889C3.37256 15.9512 8.01454 19.3848 14.1696 19.8741L14.8571 19.9291L14.3336 19.452C12.9851 18.221 12.1477 15.3003 12.1477 11.8293L12.1618 11.0092L11.9731 10.9682C8.73556 10.3491 6.43229 8.89644 6.10435 7.26975L6.0259 6.87922L5.73837 7.1352ZM3.82457 11.889C3.82457 10.4083 4.50145 8.98727 5.77235 7.75304C6.36445 9.39672 8.57684 10.766 11.7041 11.4031C11.7001 11.5913 11.6966 11.8293 11.6966 11.8293C11.6966 15.0477 12.4123 17.8272 13.5928 19.3268C7.98451 18.6883 3.82457 15.5625 3.82457 11.889ZM13.4759 11.4549L13.4745 11.5424C13.4745 14.7688 14.4226 17.2029 15.6798 17.2029C16.9366 17.2029 17.8847 14.7688 17.8847 11.5424L17.8817 11.1942L17.6392 11.2164C16.9998 11.2761 16.3414 11.3058 15.68 11.3058C15.0186 11.3058 14.3593 11.2761 13.7216 11.2164L13.4782 11.1929L13.4759 11.4549ZM17.4305 11.7135C17.3965 14.7155 16.5102 16.7214 15.6798 16.7214C14.8486 16.7214 13.9622 14.7155 13.9291 11.7135C14.5033 11.7587 15.0897 11.7869 15.6798 11.7869C16.2708 11.7869 16.8555 11.7587 17.4305 11.7135ZM25.2545 7.26975C24.9269 8.89644 22.6231 10.349 19.3866 10.9682L19.197 11.0058L19.212 11.8292C19.212 15.3002 18.3741 18.221 17.0261 19.4519L16.5026 19.929L17.1892 19.874C23.3448 19.3847 27.9869 15.9511 27.9869 11.8889C27.9869 10.1621 27.168 8.51856 25.6202 7.13508L25.3336 6.8791L25.2545 7.26975ZM25.5865 7.75304C26.8583 8.98727 27.5356 10.4083 27.5356 11.889C27.5356 15.5625 23.3759 18.6883 17.767 19.3268C18.9475 17.8272 19.6632 15.0477 19.6632 11.8293C19.6632 11.8293 19.6588 11.5911 19.6557 11.4031C22.782 10.766 24.9942 9.39659 25.5865 7.75304Z" fill="#13141A"/>
<path d="M25.4144 6.02949C25.4352 6.09069 25.4541 6.15309 25.469 6.21585C25.5541 6.57674 25.5365 6.93114 25.4262 7.2765C26.8947 8.56867 27.7603 10.1624 27.7603 11.8892C27.7603 16.1992 22.3514 19.694 15.6796 19.694C9.00747 19.694 3.59898 16.1992 3.59898 11.8892C3.59898 10.1638 4.46551 8.56879 5.93216 7.2765C5.82277 6.93114 5.80516 6.57674 5.89028 6.21585C5.90789 6.14736 5.93136 6.08075 5.96038 6.01685C3.95661 7.54018 2.7417 9.53657 2.7417 11.723C2.7417 16.4971 8.53379 20.3669 15.6795 20.3669C22.8244 20.3669 28.6174 16.4971 28.6174 11.723C28.6176 9.54115 27.4075 7.54934 25.4144 6.02949Z" fill="url(#paint0_linear_1199_998)"/>
<path d="M17.4771 9.18984C16.9069 9.23549 16.3059 9.26043 15.6792 9.26043C15.053 9.26043 14.4525 9.23549 13.8823 9.18984H13.8804L13.5078 9.4787C14.1953 9.54267 14.9213 9.57893 15.6796 9.57893C16.4379 9.57893 17.1638 9.54267 17.8518 9.4787L17.4771 9.18984ZM24.0857 6.16135C23.6315 4.55959 19.8877 3.3833 15.6797 3.3833C11.4723 3.3833 7.72858 4.55983 7.27443 6.16135C6.88022 7.55086 9.0321 8.83689 12.4271 9.34692L12.1321 8.96374C9.38578 8.46503 7.75341 7.40161 8.13001 6.27097C8.58642 4.89821 11.9015 3.90417 15.6793 3.90417C19.457 3.90417 22.7729 4.89845 23.2289 6.27097C23.605 7.40173 21.9734 8.46515 19.2264 8.96374L18.9324 9.34692C22.3262 8.83689 24.4796 7.55086 24.0857 6.16135Z" fill="url(#paint1_linear_1199_998)"/>
<path d="M13.8869 9.18959C14.2022 7.32005 14.8862 6.15171 15.6794 6.15171C16.4736 6.15171 17.157 7.32005 17.4728 9.18959H17.4791L17.8479 9.4752C17.5366 7.00625 16.6838 5.42847 15.68 5.42847C14.6755 5.42847 13.8231 7.00625 13.5122 9.4752L13.8809 9.18959H13.8869Z" fill="url(#paint2_linear_1199_998)"/>
<path d="M17.9596 10.8743L17.658 11.4563C17.658 11.4987 17.6598 11.5423 17.6598 11.5865C17.6598 14.6855 16.7717 17.0352 15.6795 17.0352C14.5863 17.0352 13.7 14.6853 13.7 11.5865C13.7 11.5376 13.7009 11.4891 13.7018 11.4422L13.3997 10.8743C13.3908 11.1105 13.3864 11.3469 13.3865 11.5833C13.3865 15.0968 14.4131 17.7582 15.6799 17.7582C16.9468 17.7582 17.9743 15.0968 17.9743 11.5833C17.9738 11.3469 17.9689 11.1105 17.9596 10.8743Z" fill="url(#paint3_linear_1199_998)"/>
<path d="M12.4321 9.34812C12.8661 5.91645 14.156 3.38281 15.68 3.38281C14.0461 3.38281 12.6535 5.62747 12.1367 8.97023L12.4277 9.34812H12.4321Z" fill="url(#paint4_linear_1199_998)"/>
<path d="M18.9282 9.34812H18.9312L19.2223 8.97023C18.7064 5.62747 17.3129 3.38281 15.6799 3.38281C17.2039 3.38305 18.4947 5.91645 18.9282 9.34812Z" fill="url(#paint5_linear_1199_998)"/>
<path d="M19.425 11.2037L19.0546 10.7317H19.0516C19.0724 11.1067 19.0842 11.4878 19.0842 11.875C19.0842 16.565 17.5598 20.3668 15.6799 20.3668C17.7877 20.3668 19.437 16.8407 19.437 11.875C19.437 11.6478 19.4326 11.4249 19.425 11.2037Z" fill="url(#paint6_linear_1199_998)"/>
<path d="M12.2765 11.875C12.2765 11.4878 12.2884 11.1067 12.3087 10.7317H12.3062L11.9349 11.2022C11.927 11.4264 11.9229 11.6507 11.9226 11.875C11.9226 16.8407 13.5732 20.3668 15.6801 20.3668C13.801 20.3668 12.2765 16.5649 12.2765 11.875Z" fill="url(#paint7_linear_1199_998)"/>
<path d="M25.4265 7.2765C25.9879 7.77062 26.4615 8.3098 26.8318 8.88247C26.7036 7.9717 26.3641 7.10958 25.8441 6.37449C25.7037 6.25551 25.5605 6.14055 25.4144 6.02974C25.4353 6.09093 25.4543 6.15333 25.4689 6.21609C25.5544 6.57686 25.5368 6.93114 25.4265 7.2765ZM5.93252 7.2765C5.82314 6.93114 5.80552 6.57674 5.89064 6.21585C5.90826 6.14736 5.93172 6.08075 5.96075 6.01685C5.81016 6.13279 5.66184 6.25203 5.51585 6.37449C4.99662 7.11004 4.65716 7.97195 4.52808 8.88247C4.89846 8.3098 5.37113 7.7705 5.93252 7.2765Z" fill="#2D2F34"/>
<path d="M1.19067 11.7469C1.19067 6.4546 7.67726 2.16333 15.6799 2.16333C23.6815 2.16333 30.1682 6.4546 30.1682 11.7469C30.1682 17.0403 23.6815 21.33 15.6799 21.33C7.67726 21.3299 1.19067 17.0404 1.19067 11.7469ZM15.6798 20.3671C22.8248 20.3671 28.6177 16.4974 28.6177 11.7233C28.6177 6.94873 22.8248 3.07762 15.6798 3.07762C8.53397 3.07762 2.74154 6.94897 2.74154 11.7233C2.74154 16.4974 8.53409 20.3671 15.6798 20.3671Z" fill="url(#paint8_linear_1199_998)"/>
<path d="M12.2766 11.8751C12.2766 7.23441 13.8011 3.3833 15.68 3.3833C17.5598 3.3833 19.0844 7.23441 19.0844 11.8751C19.0844 16.5651 17.5598 20.367 15.68 20.367C13.8002 20.367 12.2766 16.565 12.2766 11.8751ZM15.68 17.7583C16.9469 17.7583 17.9744 15.0968 17.9744 11.5848C17.9744 7.94007 16.9468 5.42883 15.68 5.42883C14.4131 5.42883 13.3865 7.94007 13.3865 11.5848C13.3865 15.0968 14.4131 17.7583 15.68 17.7583Z" fill="url(#paint9_linear_1199_998)"/>
<path d="M5.8905 6.21567C6.26394 4.63801 10.7802 2.3418 15.6798 2.3418C20.5789 2.3418 24.94 3.98246 25.4691 6.21567C26.0613 8.71884 21.7089 10.9842 15.6798 10.9842C9.64959 10.9842 5.29739 8.71896 5.8905 6.21567ZM15.6798 3.38305C11.4724 3.38305 7.72867 4.55959 7.27452 6.16111C6.76562 7.95536 10.5023 9.57868 15.6798 9.57868C20.8582 9.57868 24.5942 7.95512 24.0858 6.16111C23.6316 4.55935 19.888 3.38305 15.6798 3.38305Z" fill="url(#paint10_linear_1199_998)"/>
<path d="M13.3952 10.8696L13.3978 10.8715L13.7087 11.4564C14.3414 11.5141 14.9995 11.5471 15.6799 11.5471C16.3634 11.5471 17.023 11.5142 17.6599 11.4549L17.9625 10.8713L17.9643 10.8693C17.2367 10.9432 16.4738 10.9841 15.6801 10.9841C14.9172 10.9846 14.1547 10.9464 13.3952 10.8696ZM25.5204 6.75708C25.4427 8.54688 22.8644 10.1326 19.0533 10.7302L19.0547 10.7317L19.4264 11.2057C23.1555 10.4904 25.6086 8.73335 25.5204 6.75708ZM5.83946 6.75708C5.75129 8.73528 8.20425 10.4903 11.9326 11.2057L12.3053 10.7317L12.3062 10.7302C8.49438 10.1327 5.91792 8.547 5.83946 6.75708Z" fill="url(#paint11_linear_1199_998)"/>
</g>
<defs>
<linearGradient id="paint0_linear_1199_998" x1="15.6795" y1="19.2991" x2="15.6795" y2="8.37883" gradientUnits="userSpaceOnUse">
<stop stop-color="#F0F3F5"/>
<stop offset="0.056" stop-color="#E2E5E8"/>
<stop offset="0.138" stop-color="#D4D8DD"/>
<stop offset="0.242" stop-color="#CCD0D6"/>
<stop offset="0.44" stop-color="#CACED4"/>
<stop offset="0.568" stop-color="#B3B7BD"/>
<stop offset="0.835" stop-color="#797C83"/>
<stop offset="1" stop-color="#52545C"/>
</linearGradient>
<linearGradient id="paint1_linear_1199_998" x1="15.68" y1="10.9787" x2="15.68" y2="5.06119" gradientUnits="userSpaceOnUse">
<stop stop-color="#F0F3F5"/>
<stop offset="0.056" stop-color="#E2E5E8"/>
<stop offset="0.138" stop-color="#D4D8DD"/>
<stop offset="0.242" stop-color="#CCD0D6"/>
<stop offset="0.44" stop-color="#CACED4"/>
<stop offset="0.568" stop-color="#B3B7BD"/>
<stop offset="0.835" stop-color="#797C83"/>
<stop offset="1" stop-color="#52545C"/>
</linearGradient>
<linearGradient id="paint2_linear_1199_998" x1="17.521" y1="9.89079" x2="13.8749" y2="7.02365" gradientUnits="userSpaceOnUse">
<stop stop-color="#F0F3F5"/>
<stop offset="0.056" stop-color="#E2E5E8"/>
<stop offset="0.138" stop-color="#D4D8DD"/>
<stop offset="0.242" stop-color="#CCD0D6"/>
<stop offset="0.44" stop-color="#CACED4"/>
<stop offset="0.568" stop-color="#B3B7BD"/>
<stop offset="0.835" stop-color="#797C83"/>
<stop offset="1" stop-color="#52545C"/>
</linearGradient>
<linearGradient id="paint3_linear_1199_998" x1="17.8731" y1="15.0487" x2="12.6654" y2="12.231" gradientUnits="userSpaceOnUse">
<stop stop-color="#F0F3F5"/>
<stop offset="0.056" stop-color="#E2E5E8"/>
<stop offset="0.138" stop-color="#D4D8DD"/>
<stop offset="0.242" stop-color="#CCD0D6"/>
<stop offset="0.44" stop-color="#CACED4"/>
<stop offset="0.568" stop-color="#B3B7BD"/>
<stop offset="0.835" stop-color="#797C83"/>
<stop offset="1" stop-color="#52545C"/>
</linearGradient>
<linearGradient id="paint4_linear_1199_998" x1="13.9084" y1="2.16207" x2="13.9084" y2="11.5478" gradientUnits="userSpaceOnUse">
<stop stop-color="#F0F3F5"/>
<stop offset="0.056" stop-color="#E2E5E8"/>
<stop offset="0.138" stop-color="#D4D8DD"/>
<stop offset="0.242" stop-color="#CCD0D6"/>
<stop offset="0.44" stop-color="#CACED4"/>
<stop offset="0.568" stop-color="#B3B7BD"/>
<stop offset="0.835" stop-color="#797C83"/>
<stop offset="1" stop-color="#52545C"/>
</linearGradient>
<linearGradient id="paint5_linear_1199_998" x1="17.4512" y1="2.16207" x2="17.4512" y2="11.5478" gradientUnits="userSpaceOnUse">
<stop stop-color="#F0F3F5"/>
<stop offset="0.056" stop-color="#E2E5E8"/>
<stop offset="0.138" stop-color="#D4D8DD"/>
<stop offset="0.242" stop-color="#CCD0D6"/>
<stop offset="0.44" stop-color="#CACED4"/>
<stop offset="0.568" stop-color="#B3B7BD"/>
<stop offset="0.835" stop-color="#797C83"/>
<stop offset="1" stop-color="#52545C"/>
</linearGradient>
<linearGradient id="paint6_linear_1199_998" x1="17.5584" y1="2.08338" x2="17.5584" y2="17.7473" gradientUnits="userSpaceOnUse">
<stop stop-color="#F0F3F5"/>
<stop offset="0.056" stop-color="#E2E5E8"/>
<stop offset="0.138" stop-color="#D4D8DD"/>
<stop offset="0.242" stop-color="#CCD0D6"/>
<stop offset="0.44" stop-color="#CACED4"/>
<stop offset="0.568" stop-color="#B3B7BD"/>
<stop offset="0.835" stop-color="#797C83"/>
<stop offset="1" stop-color="#52545C"/>
</linearGradient>
<linearGradient id="paint7_linear_1199_998" x1="13.8013" y1="2.08325" x2="13.8013" y2="17.7472" gradientUnits="userSpaceOnUse">
<stop stop-color="#F0F3F5"/>
<stop offset="0.056" stop-color="#E2E5E8"/>
<stop offset="0.138" stop-color="#D4D8DD"/>
<stop offset="0.242" stop-color="#CCD0D6"/>
<stop offset="0.44" stop-color="#CACED4"/>
<stop offset="0.568" stop-color="#B3B7BD"/>
<stop offset="0.835" stop-color="#797C83"/>
<stop offset="1" stop-color="#52545C"/>
</linearGradient>
<linearGradient id="paint8_linear_1199_998" x1="15.6794" y1="2.16333" x2="15.6794" y2="21.33" gradientUnits="userSpaceOnUse">
<stop stop-color="#F0F3F5"/>
<stop offset="0.253" stop-color="#EDF0F3"/>
<stop offset="0.406" stop-color="#E5E8EA"/>
<stop offset="0.531" stop-color="#D7DADC"/>
<stop offset="0.642" stop-color="#C3C5C9"/>
<stop offset="0.744" stop-color="#A9ABAF"/>
<stop offset="0.839" stop-color="#888B90"/>
<stop offset="0.926" stop-color="#63656B"/>
<stop offset="1" stop-color="#3D3F46"/>
</linearGradient>
<linearGradient id="paint9_linear_1199_998" x1="15.6804" y1="2.1622" x2="15.6804" y2="21.3301" gradientUnits="userSpaceOnUse">
<stop stop-color="#F0F3F5"/>
<stop offset="0.253" stop-color="#EDF0F3"/>
<stop offset="0.406" stop-color="#E5E8EA"/>
<stop offset="0.531" stop-color="#D7DADC"/>
<stop offset="0.642" stop-color="#C3C5C9"/>
<stop offset="0.744" stop-color="#A9ABAF"/>
<stop offset="0.839" stop-color="#888B90"/>
<stop offset="0.926" stop-color="#63656B"/>
<stop offset="1" stop-color="#3D3F46"/>
</linearGradient>
<linearGradient id="paint10_linear_1199_998" x1="15.6798" y1="2.164" x2="15.6798" y2="21.3314" gradientUnits="userSpaceOnUse">
<stop stop-color="#F0F3F5"/>
<stop offset="0.253" stop-color="#EDF0F3"/>
<stop offset="0.406" stop-color="#E5E8EA"/>
<stop offset="0.531" stop-color="#D7DADC"/>
<stop offset="0.642" stop-color="#C3C5C9"/>
<stop offset="0.744" stop-color="#A9ABAF"/>
<stop offset="0.839" stop-color="#888B90"/>
<stop offset="0.926" stop-color="#63656B"/>
<stop offset="1" stop-color="#3D3F46"/>
</linearGradient>
<linearGradient id="paint11_linear_1199_998" x1="15.68" y1="6.13828" x2="15.68" y2="11.6009" gradientUnits="userSpaceOnUse">
<stop stop-color="#CACED4"/>
<stop offset="1" stop-color="#52545C"/>
</linearGradient>
</defs>
</svg>
