<svg width="50" height="50" viewBox="0 0 50 50" fill="none" xmlns="http://www.w3.org/2000/svg">
<mask id="mask0_611_1620" style="mask-type:alpha" maskUnits="userSpaceOnUse" x="0" y="0" width="50" height="50">
<rect width="50" height="50" fill="#D9D9D9"/>
</mask>
<g mask="url(#mask0_611_1620)">
<mask id="mask1_611_1620" style="mask-type:alpha" maskUnits="userSpaceOnUse" x="0" y="0" width="50" height="50">
<rect width="50" height="50" fill="#D9D9D9"/>
</mask>
<g mask="url(#mask1_611_1620)">
<path d="M24.9406 42.2532C24.9331 39.6284 26.9155 37.511 29.3916 37.5065C31.8071 37.5106 33.7911 39.6281 33.8398 42.2532C33.7917 44.8485 31.8076 46.966 29.3916 47.0027C26.9155 46.966 24.9332 44.8485 24.9406 42.2532ZM29.3918 45.253C30.7285 45.231 31.8351 43.8907 31.8489 42.2532C31.8351 40.5842 30.7285 39.2439 29.3918 39.2533C27.9973 39.2435 26.888 40.5838 26.9321 42.2532C26.888 43.8905 27.9973 45.2308 29.3918 45.253ZM38.8745 39.5035V46.7527H37.0023V39.5035H34.3083V37.8816H41.4513V39.5035H38.8745ZM43.6747 44.7508L42.9737 46.7529H40.7505L44.2624 37.8816H46.6031L50 46.7529H47.7766L47.0741 44.7508H43.6747ZM45.4338 43.2532H46.6031L45.4338 40.0032L44.2624 43.2532H45.4338ZM4.44905 39.5035V46.7527H2.57563V39.5035H0V37.8816H7.02591V39.5035H4.44905ZM7.4944 42.2532C7.4981 39.6284 9.47948 37.511 11.9419 37.5065C14.3725 37.5106 16.3569 39.6281 16.3927 42.2532C16.3569 44.8485 14.3725 46.966 11.9419 47.0027C9.47948 46.966 7.49793 44.8485 7.4944 42.2532ZM11.9419 45.253C13.2944 45.231 14.4002 43.8907 14.4014 42.2532C14.4 40.5842 13.2944 39.2439 11.9419 39.2533C10.5611 39.2435 9.45337 40.5838 9.48565 42.2532C9.45337 43.8905 10.5611 45.2308 11.9419 45.253ZM20.6082 46.7527H21.5439V43.378L24.8235 37.8816H22.7166L20.6082 41.6283L18.6169 37.8816H16.3929L19.6724 43.378V46.7527H20.6082Z" fill="#AB002F"/>
<path d="M1.50757 18.354C1.50757 26.8186 11.8221 33.7055 24.4998 33.7055C37.1774 33.7055 47.4921 26.8186 47.4921 18.354C47.4919 9.88868 37.1774 3.00269 24.4996 3.00269C11.8219 3.00269 1.50757 9.88868 1.50757 18.354ZM2.21312 18.354C2.21312 10.3054 12.2107 3.75688 24.4998 3.75688C36.7886 3.75688 46.7865 10.3054 46.7865 18.354C46.7865 26.4043 36.7886 32.9527 24.4998 32.9527C12.2107 32.9525 2.21312 26.4045 2.21312 18.354Z" fill="black"/>
<path d="M22.3272 5.79344C16.9459 6.14409 13.0373 7.66603 12.3711 9.67113C12.3033 9.87317 12.2683 10.0861 12.2678 10.3007C12.2678 10.639 12.3574 10.9772 12.5352 11.3005C13.282 12.6584 15.6003 13.7781 18.8993 14.3787L19.2485 14.4397L19.3071 14.0674C19.8486 10.5426 21.0373 7.77087 22.5696 6.46218L23.4377 5.71985L22.3272 5.79344ZM13.1442 10.9209C13.0292 10.7122 12.9726 10.5063 12.9726 10.3034C12.9726 10.1754 12.9932 10.0504 13.0359 9.92315C13.5445 8.39143 16.999 7.05357 21.4121 6.62198C20.1532 8.14147 19.1852 10.59 18.6802 13.5648C15.8125 12.9987 13.7505 12.0237 13.1442 10.9209ZM21.3433 14.2927L21.2743 14.7022L21.6636 14.7338C22.5868 14.8074 23.5413 14.8471 24.4989 14.8471C25.4574 14.8471 26.4124 14.8074 27.3358 14.7338L27.7243 14.7022L27.6552 14.2927C27.1244 11.1121 25.9437 9.21225 24.4994 9.21225C23.0541 9.21225 21.8739 11.1121 21.3433 14.2927ZM24.4996 9.96513C25.487 9.96513 26.3986 11.543 26.8789 14.006C26.098 14.0604 25.3027 14.0943 24.4989 14.0943C23.6961 14.0943 22.9005 14.0604 22.1205 14.006C22.5994 11.543 23.5123 9.96513 24.4996 9.96513ZM26.4289 6.46256C27.9607 7.77125 29.1506 10.5433 29.6921 14.0677L29.75 14.44L30.0987 14.3791C33.3991 13.7784 35.7186 12.6584 36.4628 11.3007C36.7523 10.779 36.8073 10.2155 36.6283 9.67169C35.9622 7.66679 32.0534 6.14485 26.6725 5.79382L25.5634 5.72023L26.4289 6.46256ZM27.5885 6.62198C32.0003 7.05357 35.4547 8.39388 35.9619 9.92315C36.006 10.0504 36.0266 10.1754 36.0266 10.3034C36.0266 10.5063 35.9687 10.7122 35.8564 10.9209C35.248 12.0235 33.1853 12.9987 30.319 13.5648C29.814 10.5902 28.8474 8.14166 27.5885 6.62198ZM8.96611 11.1488C6.54764 13.3105 5.26953 15.8786 5.26953 18.5767C5.26953 24.9238 12.5226 30.2888 22.1399 31.0534L23.2141 31.1394L22.3962 30.3938C20.2892 28.4704 18.9807 23.9069 18.9807 18.4834L19.0028 17.202L18.7079 17.138C13.6492 16.1705 10.0504 13.9008 9.53796 11.3591L9.41537 10.7489L8.96611 11.1488ZM5.97579 18.5767C5.97579 16.2631 7.03342 14.0427 9.0192 12.1142C9.94436 14.6825 13.4012 16.8219 18.2875 17.8174C18.2814 18.1114 18.2759 18.4834 18.2759 18.4834C18.2759 23.5122 19.3942 27.8551 21.2387 30.1983C12.4757 29.2005 5.97579 24.3164 5.97579 18.5767ZM21.056 17.8984L21.0538 18.035C21.0538 23.0763 22.5352 26.8796 24.4996 26.8796C26.4633 26.8796 27.9448 23.0763 27.9448 18.035L27.9401 17.4911L27.5612 17.5257C26.5621 17.6191 25.5334 17.6654 24.4999 17.6654C23.4665 17.6654 22.4364 17.6191 21.44 17.5257L21.0597 17.489L21.056 17.8984ZM27.235 18.3025C27.1819 22.9931 25.7971 26.1273 24.4996 26.1273C23.2008 26.1273 21.8158 22.9931 21.7642 18.3025C22.6613 18.3731 23.5776 18.4171 24.4996 18.4171C25.423 18.4171 26.3367 18.3731 27.235 18.3025ZM39.46 11.3591C38.9481 13.9008 35.3486 16.1703 30.2915 17.138L29.9952 17.1967L30.0186 18.4832C30.0186 23.9067 28.7095 28.4704 26.6032 30.3937L25.7853 31.1392L26.8581 31.0532C36.4762 30.2886 43.7295 24.9236 43.7295 18.5765C43.7295 15.8784 42.45 13.3103 40.0315 11.1486L39.5836 10.7487L39.46 11.3591ZM39.9788 12.1142C41.966 14.0427 43.0243 16.2631 43.0243 18.5767C43.0243 24.3164 36.5247 29.2005 27.7608 30.1983C29.6053 27.8551 30.7236 23.5122 30.7236 18.4834C30.7236 18.4834 30.7168 18.1112 30.712 17.8174C35.5967 16.8219 39.0534 14.6823 39.9788 12.1142Z" fill="black"/>
<path d="M39.7102 9.42125C39.7427 9.51687 39.7723 9.61436 39.7956 9.71243C39.9286 10.2763 39.9011 10.8301 39.7288 11.3697C42.0232 13.3887 43.3758 15.8789 43.3758 18.577C43.3758 25.3115 34.9243 30.7721 24.4997 30.7721C14.0745 30.7721 5.62367 25.3115 5.62367 18.577C5.62367 15.8811 6.97763 13.3889 9.26927 11.3697C9.09835 10.8301 9.07084 10.2763 9.20383 9.71243C9.23136 9.60542 9.26802 9.50134 9.31337 9.40149C6.18247 11.7817 4.28418 14.9011 4.28418 18.3174C4.28418 25.7769 13.3343 31.8234 24.4995 31.8234C35.6634 31.8234 44.7149 25.7769 44.7149 18.3174C44.7153 14.9082 42.8246 11.796 39.7102 9.42125Z" fill="url(#paint0_linear_611_1620)"/>
<path d="M27.3081 14.359C26.4172 14.4303 25.4781 14.4693 24.4989 14.4693C23.5205 14.4693 22.5821 14.4303 21.6912 14.359H21.6884L21.1061 14.8103C22.1803 14.9103 23.3147 14.9669 24.4995 14.9669C25.6844 14.9669 26.8186 14.9103 27.8935 14.8103L27.3081 14.359ZM37.6341 9.62696C36.9244 7.12421 31.0747 5.28625 24.4996 5.28625C17.9256 5.28625 12.0761 7.12459 11.3664 9.62696C10.7505 11.7981 14.1128 13.8075 19.4175 14.6044L18.9566 14.0057C14.6654 13.2265 12.1149 11.5649 12.7033 9.79824C13.4164 7.6533 18.5963 6.10011 24.4991 6.10011C30.4018 6.10011 35.5828 7.65367 36.2953 9.79824C36.883 11.5651 34.3337 13.2266 30.0414 14.0057L29.5821 14.6044C34.8849 13.8075 38.2495 11.7981 37.6341 9.62696Z" fill="url(#paint1_linear_611_1620)"/>
<path d="M21.6982 14.3588C22.1909 11.4377 23.2596 9.61212 24.4991 9.61212C25.74 9.61212 26.8079 11.4377 27.3012 14.3588H27.3111L27.8874 14.8051C27.4009 10.9473 26.0684 8.48206 24.5 8.48206C22.9305 8.48206 21.5986 10.9473 21.1128 14.8051L21.6889 14.3588H21.6982Z" fill="url(#paint2_linear_611_1620)"/>
<path d="M28.062 16.991L27.5907 17.9004C27.5907 17.9667 27.5935 18.0348 27.5935 18.1039C27.5935 22.946 26.2059 26.6174 24.4993 26.6174C22.7912 26.6174 21.4063 22.9457 21.4063 18.1039C21.4063 18.0275 21.4077 17.9516 21.4092 17.8784L20.9371 16.991C20.9233 17.3601 20.9164 17.7294 20.9165 18.0988C20.9165 23.5886 22.5206 27.7471 24.5 27.7471C26.4794 27.7471 28.0849 23.5886 28.0849 18.0988C28.0842 17.7294 28.0766 17.3601 28.062 16.991Z" fill="url(#paint3_linear_611_1620)"/>
<path d="M19.4252 14.6067C20.1033 9.2447 22.1187 5.28589 24.4999 5.28589C21.9471 5.28589 19.7711 8.79316 18.9636 14.0162L19.4184 14.6067H19.4252Z" fill="url(#paint4_linear_611_1620)"/>
<path d="M29.5752 14.6067H29.5799L30.0347 14.0162C29.2286 8.79316 27.0512 5.28589 24.4998 5.28589C26.881 5.28627 28.8978 9.2447 29.5752 14.6067Z" fill="url(#paint5_linear_611_1620)"/>
<path d="M30.3514 17.5056L29.7727 16.7682H29.768C29.8004 17.3541 29.8189 17.9496 29.8189 18.5546C29.8189 25.8827 27.437 31.8231 24.4998 31.8231C27.7931 31.8231 30.3701 26.3135 30.3701 18.5546C30.3701 18.1996 30.3633 17.8514 30.3514 17.5056Z" fill="url(#paint6_linear_611_1620)"/>
<path d="M19.1819 18.5547C19.1819 17.9498 19.2004 17.3542 19.2322 16.7683H19.2283L18.6481 17.5035C18.6358 17.8537 18.6294 18.2042 18.6289 18.5547C18.6289 26.3136 21.2079 31.8232 24.5 31.8232C21.5638 31.8232 19.1819 25.8826 19.1819 18.5547Z" fill="url(#paint7_linear_611_1620)"/>
<path d="M39.7287 11.3695C40.6059 12.1415 41.3458 12.984 41.9246 13.8788C41.7242 12.4557 41.1937 11.1086 40.3812 9.96007C40.1619 9.77416 39.9381 9.59453 39.7098 9.42138C39.7425 9.517 39.7721 9.6145 39.795 9.71256C39.9286 10.2763 39.9011 10.8298 39.7287 11.3695ZM9.2694 11.3695C9.09848 10.8298 9.07096 10.2761 9.20396 9.71218C9.23149 9.60518 9.26815 9.5011 9.3135 9.40125C9.07821 9.58241 8.84645 9.76872 8.61835 9.96007C7.80705 11.1094 7.27664 12.4561 7.07495 13.8788C7.65368 12.984 8.39222 12.1413 9.2694 11.3695Z" fill="#2D2F34"/>
<path d="M1.86035 18.3541C1.86035 10.0849 11.9956 3.37976 24.4998 3.37976C37.0023 3.37976 47.1377 10.0849 47.1377 18.3541C47.1377 26.625 37.0023 33.3277 24.4998 33.3277C11.9956 33.3275 1.86035 26.6252 1.86035 18.3541ZM24.4997 31.8232C35.6636 31.8232 44.715 25.7767 44.715 18.3172C44.715 10.8569 35.6636 4.80834 24.4997 4.80834C13.3343 4.80834 4.28358 10.8573 4.28358 18.3172C4.28358 25.7767 13.3344 31.8232 24.4997 31.8232Z" fill="url(#paint8_linear_611_1620)"/>
<path d="M19.1819 18.5548C19.1819 11.3036 21.5638 5.28625 24.4996 5.28625C27.4369 5.28625 29.819 11.3036 29.819 18.5548C29.819 25.8829 27.4369 31.8232 24.4996 31.8232C21.5624 31.8232 19.1819 25.8827 19.1819 18.5548ZM24.4996 27.7472C26.4793 27.7472 28.0847 23.5887 28.0847 18.1011C28.0847 12.4062 26.4791 8.4824 24.4996 8.4824C22.5202 8.4824 20.9161 12.4062 20.9161 18.1011C20.9161 23.5887 22.5202 27.7472 24.4996 27.7472Z" fill="url(#paint9_linear_611_1620)"/>
<path d="M9.20388 9.71211C9.78738 7.24701 16.844 3.65918 24.4996 3.65918C32.1545 3.65918 38.9688 6.22272 39.7955 9.71211C40.7208 13.6233 33.9202 17.1629 24.4996 17.1629C15.0774 17.1629 8.27714 13.6235 9.20388 9.71211ZM24.4996 5.28614C17.9256 5.28614 12.076 7.12448 11.3664 9.62685C10.5712 12.4304 16.4099 14.9668 24.4996 14.9668C32.5909 14.9668 38.4285 12.43 37.634 9.62685C36.9244 7.1241 31.075 5.28614 24.4996 5.28614Z" fill="url(#paint10_linear_611_1620)"/>
<path d="M20.9298 16.9837L20.9339 16.9867L21.4197 17.9005C22.4083 17.9906 23.4365 18.0422 24.4996 18.0422C25.5676 18.0422 26.5982 17.9908 27.5934 17.8982L28.0662 16.9863L28.069 16.9833C26.9321 17.0987 25.7401 17.1627 24.4999 17.1627C23.3079 17.1634 22.1165 17.1036 20.9298 16.9837ZM39.8754 10.5579C39.754 13.3544 35.7255 15.8321 29.7706 16.7659L29.7727 16.7681L30.3536 17.5088C36.1802 16.3911 40.0133 13.6458 39.8754 10.5579ZM9.12396 10.5579C8.9862 13.6488 12.8189 16.391 18.6445 17.5088L19.2268 16.7681L19.2282 16.7659C13.2723 15.8323 9.24655 13.3546 9.12396 10.5579Z" fill="url(#paint11_linear_611_1620)"/>
</g>
</g>
<defs>
<linearGradient id="paint0_linear_611_1620" x1="24.4995" y1="30.1551" x2="24.4995" y2="13.0921" gradientUnits="userSpaceOnUse">
<stop stop-color="#F0F3F5"/>
<stop offset="0.056" stop-color="#E2E5E8"/>
<stop offset="0.138" stop-color="#D4D8DD"/>
<stop offset="0.242" stop-color="#CCD0D6"/>
<stop offset="0.44" stop-color="#CACED4"/>
<stop offset="0.568" stop-color="#B3B7BD"/>
<stop offset="0.835" stop-color="#797C83"/>
<stop offset="1" stop-color="#52545C"/>
</linearGradient>
<linearGradient id="paint1_linear_611_1620" x1="24.5002" y1="17.154" x2="24.5002" y2="7.90796" gradientUnits="userSpaceOnUse">
<stop stop-color="#F0F3F5"/>
<stop offset="0.056" stop-color="#E2E5E8"/>
<stop offset="0.138" stop-color="#D4D8DD"/>
<stop offset="0.242" stop-color="#CCD0D6"/>
<stop offset="0.44" stop-color="#CACED4"/>
<stop offset="0.568" stop-color="#B3B7BD"/>
<stop offset="0.835" stop-color="#797C83"/>
<stop offset="1" stop-color="#52545C"/>
</linearGradient>
<linearGradient id="paint2_linear_611_1620" x1="27.3765" y1="15.4544" x2="21.6796" y2="10.9745" gradientUnits="userSpaceOnUse">
<stop stop-color="#F0F3F5"/>
<stop offset="0.056" stop-color="#E2E5E8"/>
<stop offset="0.138" stop-color="#D4D8DD"/>
<stop offset="0.242" stop-color="#CCD0D6"/>
<stop offset="0.44" stop-color="#CACED4"/>
<stop offset="0.568" stop-color="#B3B7BD"/>
<stop offset="0.835" stop-color="#797C83"/>
<stop offset="1" stop-color="#52545C"/>
</linearGradient>
<linearGradient id="paint3_linear_611_1620" x1="27.9269" y1="23.5135" x2="19.7899" y2="19.1109" gradientUnits="userSpaceOnUse">
<stop stop-color="#F0F3F5"/>
<stop offset="0.056" stop-color="#E2E5E8"/>
<stop offset="0.138" stop-color="#D4D8DD"/>
<stop offset="0.242" stop-color="#CCD0D6"/>
<stop offset="0.44" stop-color="#CACED4"/>
<stop offset="0.568" stop-color="#B3B7BD"/>
<stop offset="0.835" stop-color="#797C83"/>
<stop offset="1" stop-color="#52545C"/>
</linearGradient>
<linearGradient id="paint4_linear_611_1620" x1="21.7319" y1="3.37848" x2="21.7319" y2="18.0437" gradientUnits="userSpaceOnUse">
<stop stop-color="#F0F3F5"/>
<stop offset="0.056" stop-color="#E2E5E8"/>
<stop offset="0.138" stop-color="#D4D8DD"/>
<stop offset="0.242" stop-color="#CCD0D6"/>
<stop offset="0.44" stop-color="#CACED4"/>
<stop offset="0.568" stop-color="#B3B7BD"/>
<stop offset="0.835" stop-color="#797C83"/>
<stop offset="1" stop-color="#52545C"/>
</linearGradient>
<linearGradient id="paint5_linear_611_1620" x1="27.2673" y1="3.37848" x2="27.2673" y2="18.0437" gradientUnits="userSpaceOnUse">
<stop stop-color="#F0F3F5"/>
<stop offset="0.056" stop-color="#E2E5E8"/>
<stop offset="0.138" stop-color="#D4D8DD"/>
<stop offset="0.242" stop-color="#CCD0D6"/>
<stop offset="0.44" stop-color="#CACED4"/>
<stop offset="0.568" stop-color="#B3B7BD"/>
<stop offset="0.835" stop-color="#797C83"/>
<stop offset="1" stop-color="#52545C"/>
</linearGradient>
<linearGradient id="paint6_linear_611_1620" x1="27.4349" y1="3.2552" x2="27.4349" y2="27.7301" gradientUnits="userSpaceOnUse">
<stop stop-color="#F0F3F5"/>
<stop offset="0.056" stop-color="#E2E5E8"/>
<stop offset="0.138" stop-color="#D4D8DD"/>
<stop offset="0.242" stop-color="#CCD0D6"/>
<stop offset="0.44" stop-color="#CACED4"/>
<stop offset="0.568" stop-color="#B3B7BD"/>
<stop offset="0.835" stop-color="#797C83"/>
<stop offset="1" stop-color="#52545C"/>
</linearGradient>
<linearGradient id="paint7_linear_611_1620" x1="21.5644" y1="3.25513" x2="21.5644" y2="27.73" gradientUnits="userSpaceOnUse">
<stop stop-color="#F0F3F5"/>
<stop offset="0.056" stop-color="#E2E5E8"/>
<stop offset="0.138" stop-color="#D4D8DD"/>
<stop offset="0.242" stop-color="#CCD0D6"/>
<stop offset="0.44" stop-color="#CACED4"/>
<stop offset="0.568" stop-color="#B3B7BD"/>
<stop offset="0.835" stop-color="#797C83"/>
<stop offset="1" stop-color="#52545C"/>
</linearGradient>
<linearGradient id="paint8_linear_611_1620" x1="24.499" y1="3.37976" x2="24.499" y2="33.3277" gradientUnits="userSpaceOnUse">
<stop stop-color="#F0F3F5"/>
<stop offset="0.253" stop-color="#EDF0F3"/>
<stop offset="0.406" stop-color="#E5E8EA"/>
<stop offset="0.531" stop-color="#D7DADC"/>
<stop offset="0.642" stop-color="#C3C5C9"/>
<stop offset="0.744" stop-color="#A9ABAF"/>
<stop offset="0.839" stop-color="#888B90"/>
<stop offset="0.926" stop-color="#63656B"/>
<stop offset="1" stop-color="#3D3F46"/>
</linearGradient>
<linearGradient id="paint9_linear_611_1620" x1="24.5004" y1="3.37828" x2="24.5004" y2="33.3281" gradientUnits="userSpaceOnUse">
<stop stop-color="#F0F3F5"/>
<stop offset="0.253" stop-color="#EDF0F3"/>
<stop offset="0.406" stop-color="#E5E8EA"/>
<stop offset="0.531" stop-color="#D7DADC"/>
<stop offset="0.642" stop-color="#C3C5C9"/>
<stop offset="0.744" stop-color="#A9ABAF"/>
<stop offset="0.839" stop-color="#888B90"/>
<stop offset="0.926" stop-color="#63656B"/>
<stop offset="1" stop-color="#3D3F46"/>
</linearGradient>
<linearGradient id="paint10_linear_611_1620" x1="24.4996" y1="3.38137" x2="24.4996" y2="33.3304" gradientUnits="userSpaceOnUse">
<stop stop-color="#F0F3F5"/>
<stop offset="0.253" stop-color="#EDF0F3"/>
<stop offset="0.406" stop-color="#E5E8EA"/>
<stop offset="0.531" stop-color="#D7DADC"/>
<stop offset="0.642" stop-color="#C3C5C9"/>
<stop offset="0.744" stop-color="#A9ABAF"/>
<stop offset="0.839" stop-color="#888B90"/>
<stop offset="0.926" stop-color="#63656B"/>
<stop offset="1" stop-color="#3D3F46"/>
</linearGradient>
<linearGradient id="paint11_linear_611_1620" x1="24.4998" y1="9.59098" x2="24.4998" y2="18.1263" gradientUnits="userSpaceOnUse">
<stop stop-color="#CACED4"/>
<stop offset="1" stop-color="#52545C"/>
</linearGradient>
</defs>
</svg>
