<svg width="98" height="28" viewBox="0 0 98 28" fill="none" xmlns="http://www.w3.org/2000/svg">
<mask id="mask0_1898_3" style="mask-type:alpha" maskUnits="userSpaceOnUse" x="0" y="0" width="98" height="28">
<rect width="98" height="28" fill="#D9D9D9"/>
</mask>
<g mask="url(#mask0_1898_3)">
<path d="M25.7578 10.5049H35.6721V12.3461H31.7685V22.725H29.6288V12.3461H25.7415L25.7578 10.5049ZM35.2475 13.8777H37.0768V15.5885H37.1094C37.1748 15.3441 37.2891 15.116 37.4524 14.8879C37.6158 14.6598 37.8118 14.448 38.0568 14.2687C38.2854 14.0732 38.5468 13.9266 38.8408 13.8125C39.1184 13.6985 39.4124 13.6333 39.7064 13.6333C39.9351 13.6333 40.0984 13.6496 40.1801 13.6496C40.2618 13.6659 40.3598 13.6822 40.4414 13.6822V15.5559C40.3108 15.5233 40.1638 15.507 40.0168 15.4907C39.8698 15.4744 39.7391 15.4582 39.5921 15.4582C39.2654 15.4582 38.9551 15.5233 38.6611 15.6537C38.3671 15.784 38.1221 15.9795 37.8934 16.2239C37.6811 16.4846 37.5014 16.7942 37.3708 17.169C37.2401 17.5437 37.1748 17.9836 37.1748 18.4724V22.6761H35.2148L35.2475 13.8777ZM49.4248 22.725H47.4974V21.4867H47.4648C47.2198 21.9429 46.8604 22.2851 46.3868 22.5621C45.9131 22.8391 45.4231 22.9694 44.9331 22.9694C43.7734 22.9694 42.9241 22.6924 42.4014 22.1059C41.8788 21.5356 41.6174 20.6558 41.6174 19.4989V13.8777H43.5774V19.3034C43.5774 20.0855 43.7244 20.6395 44.0348 20.949C44.3288 21.2749 44.7534 21.4378 45.2924 21.4378C45.7008 21.4378 46.0438 21.3727 46.3214 21.2423C46.5991 21.112 46.8278 20.949 46.9911 20.7372C47.1708 20.5254 47.2851 20.2647 47.3668 19.9714C47.4484 19.6782 47.4811 19.3523 47.4811 19.0101V13.8777H49.4411V22.725H49.4248ZM52.7568 19.89C52.8221 20.4602 53.0344 20.8513 53.4101 21.0957C53.7858 21.3238 54.2431 21.4378 54.7658 21.4378C54.9454 21.4378 55.1578 21.4216 55.3864 21.389C55.6151 21.3564 55.8438 21.3075 56.0398 21.226C56.2521 21.1446 56.4154 21.0305 56.5461 20.8676C56.6768 20.7046 56.7421 20.5091 56.7258 20.2647C56.7094 20.0203 56.6278 19.8085 56.4481 19.6456C56.2684 19.4826 56.0561 19.3686 55.7948 19.2545C55.5334 19.1568 55.2231 19.0753 54.8801 19.0101C54.5371 18.9449 54.1941 18.8635 53.8348 18.782C53.4754 18.7005 53.1161 18.6028 52.7731 18.4887C52.4301 18.3747 52.1361 18.228 51.8584 18.0162C51.5971 17.8207 51.3684 17.5763 51.2214 17.2667C51.0581 16.9571 50.9764 16.5987 50.9764 16.1425C50.9764 15.6537 51.0908 15.2626 51.3358 14.9368C51.5644 14.6109 51.8748 14.3502 52.2341 14.1547C52.5934 13.9592 53.0018 13.8125 53.4428 13.731C53.8838 13.6496 54.3084 13.617 54.7004 13.617C55.1578 13.617 55.5988 13.6659 56.0071 13.7636C56.4154 13.8614 56.8074 14.008 57.1341 14.2361C57.4771 14.448 57.7548 14.7412 57.9671 15.0834C58.1958 15.4256 58.3264 15.8492 58.3918 16.338H56.3501C56.2521 15.8655 56.0398 15.5559 55.7131 15.393C55.3701 15.23 54.9944 15.1486 54.5534 15.1486C54.4228 15.1486 54.2431 15.1649 54.0634 15.1812C53.8674 15.2137 53.7041 15.2463 53.5244 15.3115C53.3611 15.3767 53.2141 15.4744 53.0998 15.5885C52.9854 15.7026 52.9201 15.8655 52.9201 16.061C52.9201 16.3054 53.0018 16.4846 53.1651 16.6313C53.3284 16.7779 53.5408 16.892 53.8184 17.006C54.0798 17.1038 54.3901 17.1853 54.7331 17.2504C55.0761 17.3156 55.4354 17.3971 55.7948 17.4785C56.1541 17.56 56.4971 17.6578 56.8401 17.7718C57.1831 17.8859 57.4934 18.0325 57.7548 18.2443C58.0161 18.4399 58.2448 18.6843 58.4081 18.9775C58.5714 19.2708 58.6531 19.6456 58.6531 20.0692C58.6531 20.5906 58.5388 21.0305 58.2938 21.4053C58.0488 21.7637 57.7384 22.0733 57.3628 22.3014C56.9871 22.5295 56.5461 22.6924 56.0888 22.8065C55.6151 22.9043 55.1578 22.9694 54.7004 22.9694C54.1451 22.9694 53.6224 22.9043 53.1488 22.7739C52.6751 22.6436 52.2504 22.448 51.9074 22.2036C51.5644 21.9429 51.2868 21.6334 51.0908 21.2423C50.8948 20.8676 50.7804 20.4114 50.7641 19.8737H52.7404V19.89H52.7568ZM59.2084 13.8777H60.6948V11.2056H62.6548V13.8614H64.4188V15.3115H62.6548V20.0366C62.6548 20.2484 62.6711 20.4114 62.6874 20.5743C62.7038 20.7209 62.7528 20.8513 62.8018 20.949C62.8671 21.0468 62.9651 21.1283 63.0794 21.1772C63.2101 21.226 63.3734 21.2586 63.6021 21.2586C63.7328 21.2586 63.8798 21.2586 64.0104 21.2423C64.1411 21.226 64.2881 21.2097 64.4188 21.1772V22.6924C64.2064 22.725 63.9941 22.7413 63.7818 22.7576C63.5694 22.7902 63.3734 22.7902 63.1448 22.7902C62.6221 22.7902 62.2138 22.7413 61.9034 22.6436C61.5931 22.5458 61.3481 22.3992 61.1684 22.2199C60.9888 22.0244 60.8744 21.7963 60.8091 21.5193C60.7438 21.2423 60.7111 20.9002 60.6948 20.5417V15.3278H59.2084V13.8451V13.8777ZM65.7908 13.8777H67.6364V15.0834H67.6691C67.9468 14.562 68.3224 14.2036 68.8124 13.9754C69.3024 13.7473 69.8251 13.6333 70.4131 13.6333C71.1154 13.6333 71.7198 13.7473 72.2424 14.008C72.7651 14.2524 73.1898 14.5783 73.5328 15.0182C73.8758 15.4419 74.1371 15.947 74.3004 16.5172C74.4638 17.0875 74.5618 17.7066 74.5618 18.3421C74.5618 18.9449 74.4801 19.5152 74.3331 20.0692C74.1698 20.6232 73.9411 21.1283 73.6308 21.5519C73.3204 21.9755 72.9284 22.3177 72.4384 22.5784C71.9484 22.8391 71.3931 22.9694 70.7398 22.9694C70.4621 22.9694 70.1681 22.9368 69.8904 22.888C69.6128 22.8391 69.3351 22.7576 69.0738 22.6436C68.8124 22.5295 68.5674 22.3829 68.3551 22.2036C68.1264 22.0244 67.9468 21.8126 67.7998 21.5845H67.7671V26H65.8071V13.8777H65.7908ZM72.6344 18.3095C72.6344 17.9185 72.5854 17.5274 72.4711 17.1527C72.3731 16.7779 72.2098 16.452 71.9974 16.1588C71.7851 15.8655 71.5238 15.6374 71.2298 15.4582C70.9194 15.2789 70.5601 15.1975 70.1681 15.1975C69.3514 15.1975 68.7308 15.4744 68.3061 16.0447C67.8978 16.615 67.6854 17.3808 67.6854 18.3258C67.6854 18.782 67.7344 19.1893 67.8488 19.5641C67.9631 19.9388 68.1101 20.2647 68.3388 20.5417C68.5511 20.8187 68.8124 21.0305 69.1228 21.1934C69.4331 21.3564 69.7761 21.4378 70.1844 21.4378C70.6418 21.4378 71.0011 21.3401 71.3114 21.1609C71.6218 20.9816 71.8668 20.7372 72.0791 20.4602C72.2751 20.167 72.4221 19.8411 72.5038 19.4663C72.5854 19.0753 72.6344 18.7005 72.6344 18.3095ZM76.0808 10.5049H78.0408V12.3461H76.0808V10.5049ZM76.0808 13.8777H78.0408V22.725H76.0808V13.8777ZM79.7884 10.5049H81.7484V22.725H79.7884V10.5049ZM87.7264 22.9694C87.0241 22.9694 86.3871 22.8554 85.8318 22.611C85.2764 22.3666 84.8191 22.057 84.4271 21.6497C84.0514 21.2423 83.7574 20.7372 83.5614 20.167C83.3654 19.5967 83.2511 18.9612 83.2511 18.2932C83.2511 17.6252 83.3491 17.006 83.5614 16.4358C83.7574 15.8655 84.0514 15.3767 84.4271 14.9531C84.8028 14.5457 85.2764 14.2198 85.8318 13.9917C86.3871 13.7636 87.0241 13.6333 87.7264 13.6333C88.4288 13.6333 89.0658 13.7473 89.6211 13.9917C90.1764 14.2198 90.6338 14.5457 91.0258 14.9531C91.4014 15.3604 91.6954 15.8655 91.8914 16.4358C92.0874 17.006 92.2018 17.6252 92.2018 18.2932C92.2018 18.9775 92.1038 19.5967 91.8914 20.167C91.6791 20.7372 91.4014 21.226 91.0258 21.6497C90.6501 22.057 90.1764 22.3829 89.6211 22.611C89.0658 22.8391 88.4451 22.9694 87.7264 22.9694ZM87.7264 21.4216C88.1511 21.4216 88.5431 21.3238 88.8534 21.1446C89.1801 20.9653 89.4251 20.7209 89.6374 20.4277C89.8498 20.1344 89.9968 19.7922 90.0948 19.4338C90.1928 19.059 90.2418 18.6843 90.2418 18.2932C90.2418 17.9185 90.1928 17.5437 90.0948 17.169C89.9968 16.7942 89.8498 16.4683 89.6374 16.1751C89.4251 15.8818 89.1638 15.6537 88.8534 15.4744C88.5268 15.2952 88.1511 15.1975 87.7264 15.1975C87.3018 15.1975 86.9098 15.2952 86.5994 15.4744C86.2728 15.6537 86.0278 15.8981 85.8154 16.1751C85.6031 16.4683 85.4561 16.7942 85.3581 17.169C85.2601 17.5437 85.2111 17.9185 85.2111 18.2932C85.2111 18.6843 85.2601 19.059 85.3581 19.4338C85.4561 19.8085 85.6031 20.1344 85.8154 20.4277C86.0278 20.7209 86.2891 20.9653 86.5994 21.1446C86.9261 21.3401 87.3018 21.4216 87.7264 21.4216ZM92.7898 13.8777H94.2761V11.2056H96.2361V13.8614H98.0001V15.3115H96.2361V20.0366C96.2361 20.2484 96.2524 20.4114 96.2688 20.5743C96.2851 20.7209 96.3341 20.8513 96.3831 20.949C96.4484 21.0468 96.5464 21.1283 96.6608 21.1772C96.7914 21.226 96.9548 21.2586 97.1834 21.2586C97.3141 21.2586 97.4611 21.2586 97.5918 21.2423C97.7224 21.226 97.8694 21.2097 98.0001 21.1772V22.6924C97.7878 22.725 97.5754 22.7413 97.3631 22.7576C97.1508 22.7902 96.9548 22.7902 96.7261 22.7902C96.2034 22.7902 95.7951 22.7413 95.4848 22.6436C95.1744 22.5458 94.9294 22.3992 94.7498 22.2199C94.5701 22.0244 94.4558 21.7963 94.3904 21.5193C94.3251 21.2423 94.2924 20.9002 94.2761 20.5417V15.3278H92.7898V13.8451V13.8777Z" fill="black"/>
<path d="M23.471 10.5049H14.504L11.7437 1.99969L8.967 10.5049L0 10.4886L7.252 15.7514L4.47533 24.2565L11.7273 18.9938L18.9793 24.2565L16.219 15.7514L23.471 10.5049Z" fill="#00B67A"/>
<path d="M16.8396 17.674L16.219 15.7514L11.7437 18.9938L16.8396 17.674Z" fill="#005128"/>
</g>
</svg>
