<svg width="118" height="22" viewBox="0 0 118 22" fill="none" xmlns="http://www.w3.org/2000/svg">
<g clip-path="url(#clip0_1713_2236)">
<path d="M0 0.00585938H22.125V21.9941H0V0.00585938ZM23.9688 0.00585938H46.0938V21.9941H23.9688V0.00585938ZM47.9375 0.00585938H70.0625V21.9941H47.9375V0.00585938ZM71.9062 0.00585938H94.0312V21.9941H71.9062V0.00585938ZM95.875 0.00585938H118V21.9941H95.875V0.00585938Z" fill="#00B67A"/>
<path d="M11.0641 14.825L14.4289 13.9775L15.8348 18.2835L11.0641 14.825ZM18.8078 9.25919H12.8848L11.0641 3.71631L9.24336 9.25919H3.32031L8.11406 12.6949L6.29336 18.2377L11.0871 14.8021L14.0371 12.6949L18.8078 9.25919ZM35.0328 14.825L38.3977 13.9775L39.8035 18.2835L35.0328 14.825ZM42.7766 9.25919H36.8535L35.0328 3.71631L33.2121 9.25919H27.2891L32.0828 12.6949L30.2621 18.2377L35.0559 14.8021L38.0059 12.6949L42.7766 9.25919ZM59.0016 14.825L62.3664 13.9775L63.7723 18.2835L59.0016 14.825ZM66.7453 9.25919H60.8223L59.0016 3.71631L57.1809 9.25919H51.2578L56.0516 12.6949L54.2309 18.2377L59.0246 14.8021L61.9746 12.6949L66.7453 9.25919ZM82.9703 14.825L86.3352 13.9775L87.741 18.2835L82.9703 14.825ZM90.7141 9.25919H84.791L82.9703 3.71631L81.1496 9.25919H75.2266L80.0203 12.6949L78.1996 18.2377L82.9934 14.8021L85.9434 12.6949L90.7141 9.25919ZM106.939 14.825L110.304 13.9775L111.71 18.2835L106.939 14.825ZM114.683 9.25919H108.76L106.939 3.71631L105.118 9.25919H99.1953L103.989 12.6949L102.168 18.2377L106.962 14.8021L109.912 12.6949L114.683 9.25919Z" fill="white"/>
</g>
<defs>
<clipPath id="clip0_1713_2236">
<rect width="118" height="22" fill="white"/>
</clipPath>
</defs>
</svg>
