<svg width="86" height="16" viewBox="0 0 86 16" fill="none" xmlns="http://www.w3.org/2000/svg">
<path d="M0 0H16.125V15.9915H0V0ZM17.4688 0H33.5938V15.9915H17.4688V0ZM34.9375 0H51.0625V15.9915H34.9375V0ZM52.4062 0H68.5312V15.9915H52.4062V0ZM69.875 0H86V15.9915H69.875V0Z" fill="#00B67A"/>
<path d="M8.06245 10.7776L10.5148 10.1612L11.5394 13.2929L8.06245 10.7776ZM13.7062 6.72973H9.3894L8.06245 2.69855L6.7355 6.72973H2.4187L5.91245 9.2284L4.5855 13.2596L8.07925 10.7609L10.2292 9.2284L13.7062 6.72973ZM25.5312 10.7776L27.9835 10.1612L29.0082 13.2929L25.5312 10.7776ZM31.175 6.72973H26.8582L25.5312 2.69855L24.2043 6.72973H19.8875L23.3812 9.2284L22.0542 13.2596L25.548 10.7609L27.698 9.2284L31.175 6.72973ZM43 10.7776L45.4523 10.1612L46.4769 13.2929L43 10.7776ZM48.6437 6.72973H44.3269L43 2.69855L41.673 6.72973H37.3562L40.85 9.2284L39.523 13.2596L43.0168 10.7609L45.1667 9.2284L48.6437 6.72973ZM60.4687 10.7776L62.921 10.1612L63.9457 13.2929L60.4687 10.7776ZM66.1125 6.72973H61.7957L60.4687 2.69855L59.1418 6.72973H54.825L58.3187 9.2284L56.9917 13.2596L60.4855 10.7609L62.6355 9.2284L66.1125 6.72973ZM77.9375 10.7776L80.3898 10.1612L81.4144 13.2929L77.9375 10.7776ZM83.5812 6.72973H79.2644L77.9375 2.69855L76.6105 6.72973H72.2937L75.7875 9.2284L74.4605 13.2596L77.9542 10.7609L80.1042 9.2284L83.5812 6.72973Z" fill="white"/>
</svg>
