<svg width="90" height="22" viewBox="0 0 90 22" fill="none" xmlns="http://www.w3.org/2000/svg">
<path d="M23.9405 7.79639H33.0063V9.48409H29.4367V18.998H27.4802V9.48409H23.9255L23.9405 7.79639ZM32.618 10.888H34.2907V12.4562H34.3206C34.3803 12.2322 34.4849 12.0231 34.6343 11.814C34.7836 11.6049 34.9628 11.4108 35.1869 11.2465C35.396 11.0672 35.6349 10.9328 35.9038 10.8283C36.1577 10.7237 36.4265 10.664 36.6953 10.664C36.9044 10.664 37.0538 10.6789 37.1285 10.6789C37.2031 10.6939 37.2928 10.7088 37.3674 10.7088V12.4264C37.248 12.3965 37.1135 12.3816 36.9791 12.3666C36.8447 12.3517 36.7252 12.3368 36.5908 12.3368C36.2921 12.3368 36.0083 12.3965 35.7395 12.516C35.4706 12.6355 35.2466 12.8147 35.0375 13.0387C34.8433 13.2777 34.6791 13.5615 34.5596 13.905C34.4401 14.2485 34.3803 14.6518 34.3803 15.0998V18.9532H32.5881L32.618 10.888ZM45.5819 18.998H43.8195V17.8629H43.7897C43.5656 18.2811 43.2371 18.5947 42.8039 18.8486C42.3708 19.1025 41.9227 19.222 41.4747 19.222C40.4143 19.222 39.6376 18.9681 39.1597 18.4304C38.6818 17.9077 38.4428 17.1012 38.4428 16.0407V10.888H40.235V15.8615C40.235 16.5784 40.3695 17.0862 40.6532 17.37C40.9221 17.6687 41.3104 17.8181 41.8033 17.8181C42.1766 17.8181 42.4903 17.7583 42.7442 17.6388C42.9981 17.5194 43.2072 17.37 43.3566 17.1758C43.5208 16.9817 43.6254 16.7427 43.7001 16.4739C43.7747 16.205 43.8046 15.9063 43.8046 15.5927V10.888H45.5969V18.998H45.5819ZM48.6288 16.3992C48.6885 16.9219 48.8827 17.2804 49.2262 17.5044C49.5697 17.7135 49.9879 17.8181 50.4658 17.8181C50.6301 17.8181 50.8243 17.8031 51.0334 17.7733C51.2425 17.7434 51.4516 17.6986 51.6308 17.6239C51.8249 17.5492 51.9743 17.4447 52.0938 17.2953C52.2133 17.146 52.273 16.9667 52.2581 16.7427C52.2431 16.5187 52.1685 16.3245 52.0042 16.1752C51.8399 16.0258 51.6457 15.9213 51.4068 15.8167C51.1678 15.7271 50.884 15.6524 50.5704 15.5927C50.2567 15.5329 49.9431 15.4583 49.6145 15.3836C49.2859 15.3089 48.9573 15.2193 48.6437 15.1148C48.3301 15.0102 48.0612 14.8758 47.8073 14.6816C47.5683 14.5024 47.3593 14.2784 47.2248 13.9946C47.0755 13.7108 47.0008 13.3822 47.0008 12.964C47.0008 12.516 47.1053 12.1575 47.3294 11.8588C47.5385 11.5601 47.8222 11.3212 48.1508 11.1419C48.4794 10.9627 48.8528 10.8283 49.2561 10.7536C49.6593 10.6789 50.0476 10.6491 50.4061 10.6491C50.8243 10.6491 51.2275 10.6939 51.6009 10.7835C51.9743 10.8731 52.3328 11.0075 52.6315 11.2166C52.9451 11.4108 53.199 11.6796 53.3932 11.9932C53.6023 12.3069 53.7218 12.6952 53.7815 13.1433H51.9146C51.8249 12.7101 51.6308 12.4264 51.3321 12.277C51.0184 12.1277 50.6749 12.053 50.2717 12.053C50.1522 12.053 49.9879 12.0679 49.8236 12.0829C49.6444 12.1127 49.495 12.1426 49.3307 12.2023C49.1814 12.2621 49.047 12.3517 48.9424 12.4562C48.8379 12.5608 48.7781 12.7101 48.7781 12.8894C48.7781 13.1134 48.8528 13.2777 49.0021 13.4121C49.1515 13.5465 49.3457 13.6511 49.5996 13.7556C49.8385 13.8452 50.1223 13.9199 50.436 13.9797C50.7496 14.0394 51.0782 14.1141 51.4068 14.1888C51.7353 14.2634 52.049 14.353 52.3626 14.4576C52.6763 14.5621 52.96 14.6966 53.199 14.8907C53.438 15.0699 53.6471 15.294 53.7964 15.5628C53.9458 15.8317 54.0205 16.1752 54.0205 16.5635C54.0205 17.0414 53.9159 17.4447 53.6919 17.7882C53.4678 18.1168 53.1841 18.4006 52.8406 18.6096C52.497 18.8187 52.0938 18.9681 51.6756 19.0726C51.2425 19.1623 50.8243 19.222 50.4061 19.222C49.8983 19.222 49.4203 19.1623 48.9872 19.0428C48.5541 18.9233 48.1658 18.7441 47.8521 18.52C47.5385 18.2811 47.2846 17.9973 47.1053 17.6388C46.9261 17.2953 46.8216 16.8771 46.8066 16.3843H48.6138V16.3992H48.6288ZM54.5283 10.888H55.8874V8.43861H57.6796V10.8731H59.2927V12.2023H57.6796V16.5336C57.6796 16.7278 57.6946 16.8771 57.7095 17.0265C57.7244 17.1609 57.7693 17.2804 57.8141 17.37C57.8738 17.4596 57.9634 17.5343 58.068 17.5791C58.1875 17.6239 58.3368 17.6538 58.5459 17.6538C58.6654 17.6538 58.7998 17.6538 58.9193 17.6388C59.0388 17.6239 59.1732 17.609 59.2927 17.5791V18.9681C59.0985 18.998 58.9044 19.0129 58.7102 19.0278C58.516 19.0577 58.3368 19.0577 58.1277 19.0577C57.6498 19.0577 57.2764 19.0129 56.9926 18.9233C56.7088 18.8337 56.4848 18.6993 56.3205 18.535C56.1562 18.3557 56.0517 18.1466 55.9919 17.8927C55.9322 17.6388 55.9023 17.3252 55.8874 16.9966V12.2173H54.5283V10.8582V10.888ZM60.5472 10.888H62.235V11.9932H62.2648C62.5187 11.5153 62.8622 11.1867 63.3103 10.9776C63.7584 10.7685 64.2363 10.664 64.774 10.664C65.4162 10.664 65.9688 10.7685 66.4467 11.0075C66.9247 11.2315 67.313 11.5302 67.6267 11.9335C67.9403 12.3218 68.1793 12.7848 68.3286 13.3076C68.478 13.8303 68.5676 14.3978 68.5676 14.9803C68.5676 15.5329 68.4929 16.0557 68.3585 16.5635C68.2091 17.0713 68 17.5343 67.7163 17.9226C67.4325 18.3109 67.074 18.6246 66.626 18.8635C66.1779 19.1025 65.6701 19.222 65.0727 19.222C64.8188 19.222 64.5499 19.1921 64.296 19.1473C64.0421 19.1025 63.7882 19.0278 63.5493 18.9233C63.3103 18.8187 63.0863 18.6843 62.8921 18.52C62.683 18.3557 62.5187 18.1616 62.3843 17.9525H62.3544V22H60.5622V10.888H60.5472ZM66.8052 14.9505C66.8052 14.592 66.7604 14.2336 66.6558 13.89C66.5662 13.5465 66.4169 13.2478 66.2227 12.979C66.0286 12.7101 65.7896 12.5011 65.5208 12.3368C65.237 12.1725 64.9084 12.0978 64.5499 12.0978C63.8032 12.0978 63.2356 12.3517 62.8473 12.8744C62.4739 13.3972 62.2798 14.0991 62.2798 14.9654C62.2798 15.3836 62.3246 15.757 62.4291 16.1005C62.5337 16.444 62.6681 16.7427 62.8772 16.9966C63.0713 17.2505 63.3103 17.4447 63.5941 17.594C63.8779 17.7434 64.1915 17.8181 64.5649 17.8181C64.9831 17.8181 65.3117 17.7285 65.5954 17.5642C65.8792 17.3999 66.1032 17.1758 66.2974 16.9219C66.4766 16.6531 66.611 16.3544 66.6857 16.0109C66.7604 15.6524 66.8052 15.3089 66.8052 14.9505ZM69.9566 7.79639H71.7488V9.48409H69.9566V7.79639ZM69.9566 10.888H71.7488V18.998H69.9566V10.888ZM73.3469 7.79639H75.1392V18.998H73.3469V7.79639ZM80.6055 19.222C79.9633 19.222 79.3808 19.1175 78.873 18.8934C78.3652 18.6694 77.947 18.3856 77.5886 18.0122C77.2451 17.6388 76.9762 17.1758 76.797 16.6531C76.6178 16.1304 76.5132 15.5479 76.5132 14.9355C76.5132 14.3232 76.6028 13.7556 76.797 13.2329C76.9762 12.7101 77.2451 12.2621 77.5886 11.8738C77.9321 11.5004 78.3652 11.2017 78.873 10.9926C79.3808 10.7835 79.9633 10.664 80.6055 10.664C81.2478 10.664 81.8303 10.7685 82.3381 10.9926C82.8459 11.2017 83.2641 11.5004 83.6225 11.8738C83.966 12.2471 84.2349 12.7101 84.4141 13.2329C84.5933 13.7556 84.6979 14.3232 84.6979 14.9355C84.6979 15.5628 84.6082 16.1304 84.4141 16.6531C84.2199 17.1758 83.966 17.6239 83.6225 18.0122C83.279 18.3856 82.8459 18.6843 82.3381 18.8934C81.8303 19.1025 81.2627 19.222 80.6055 19.222ZM80.6055 17.8031C80.9939 17.8031 81.3523 17.7135 81.6361 17.5492C81.9348 17.3849 82.1588 17.1609 82.353 16.8921C82.5472 16.6232 82.6816 16.3096 82.7712 15.981C82.8608 15.6375 82.9056 15.294 82.9056 14.9355C82.9056 14.592 82.8608 14.2485 82.7712 13.905C82.6816 13.5615 82.5472 13.2628 82.353 12.9939C82.1588 12.7251 81.9199 12.516 81.6361 12.3517C81.3374 12.1874 80.9939 12.0978 80.6055 12.0978C80.2172 12.0978 79.8588 12.1874 79.575 12.3517C79.2763 12.516 79.0523 12.74 78.8581 12.9939C78.6639 13.2628 78.5295 13.5615 78.4399 13.905C78.3503 14.2485 78.3055 14.592 78.3055 14.9355C78.3055 15.294 78.3503 15.6375 78.4399 15.981C78.5295 16.3245 78.6639 16.6232 78.8581 16.8921C79.0523 17.1609 79.2912 17.3849 79.575 17.5492C79.8737 17.7285 80.2172 17.8031 80.6055 17.8031ZM85.2355 10.888H86.5947V8.43861H88.3869V10.8731H89.9999V12.2023H88.3869V16.5336C88.3869 16.7278 88.4019 16.8771 88.4168 17.0265C88.4317 17.1609 88.4765 17.2804 88.5213 17.37C88.5811 17.4596 88.6707 17.5343 88.7752 17.5791C88.8947 17.6239 89.0441 17.6538 89.2532 17.6538C89.3727 17.6538 89.5071 17.6538 89.6266 17.6388C89.746 17.6239 89.8805 17.609 89.9999 17.5791V18.9681C89.8058 18.998 89.6116 19.0129 89.4175 19.0278C89.2233 19.0577 89.0441 19.0577 88.835 19.0577C88.357 19.0577 87.9837 19.0129 87.6999 18.9233C87.4161 18.8337 87.1921 18.6993 87.0278 18.535C86.8635 18.3557 86.759 18.1466 86.6992 17.8927C86.6395 17.6388 86.6096 17.3252 86.5947 16.9966V12.2173H85.2355V10.8582V10.888Z" fill="black"/>
<path d="M21.849 7.7963H13.6494L11.1253 0L8.58628 7.7963L0.386719 7.78137L7.01806 12.6055L4.47903 20.4018L11.1104 15.5777L17.7417 20.4018L15.2176 12.6055L21.849 7.7963Z" fill="#00B67A"/>
<path d="M15.7849 14.3679L15.2173 12.6055L11.125 15.5776L15.7849 14.3679Z" fill="#005128"/>
</svg>
