<svg width="98" height="24" viewBox="0 0 98 24" fill="none" xmlns="http://www.w3.org/2000/svg">
<path d="M25.7578 8.50537H35.6721V10.3465H31.7685V20.7255H29.6288V10.3465H25.7415L25.7578 8.50537ZM35.2475 11.8781H37.0768V13.5889H37.1094C37.1748 13.3445 37.2891 13.1164 37.4524 12.8883C37.6158 12.6602 37.8118 12.4484 38.0568 12.2692C38.2854 12.0736 38.5468 11.927 38.8408 11.8129C39.1184 11.6989 39.4124 11.6337 39.7064 11.6337C39.9351 11.6337 40.0984 11.65 40.1801 11.65C40.2618 11.6663 40.3598 11.6826 40.4414 11.6826V13.5563C40.3108 13.5238 40.1638 13.5075 40.0168 13.4912C39.8698 13.4749 39.7391 13.4586 39.5921 13.4586C39.2654 13.4586 38.9551 13.5237 38.6611 13.6541C38.3671 13.7844 38.1221 13.98 37.8934 14.2244C37.6811 14.4851 37.5014 14.7946 37.3708 15.1694C37.2401 15.5441 37.1748 15.9841 37.1748 16.4729V20.6766H35.2148L35.2475 11.8781ZM49.4248 20.7255H47.4974V19.4872H47.4648C47.2198 19.9434 46.8604 20.2855 46.3868 20.5625C45.9131 20.8395 45.4231 20.9699 44.9331 20.9699C43.7734 20.9699 42.9241 20.6929 42.4014 20.1063C41.8788 19.536 41.6174 18.6562 41.6174 17.4994V11.8781H43.5774V17.3038C43.5774 18.0859 43.7244 18.6399 44.0348 18.9495C44.3288 19.2753 44.7534 19.4383 45.2924 19.4383C45.7008 19.4383 46.0438 19.3731 46.3214 19.2428C46.5991 19.1124 46.8278 18.9495 46.9911 18.7377C47.1708 18.5258 47.2851 18.2651 47.3668 17.9719C47.4484 17.6786 47.4811 17.3527 47.4811 17.0105V11.8781H49.4411V20.7255H49.4248ZM52.7568 17.8904C52.8221 18.4607 53.0344 18.8517 53.4101 19.0961C53.7858 19.3242 54.2431 19.4383 54.7658 19.4383C54.9454 19.4383 55.1578 19.422 55.3864 19.3894C55.6151 19.3568 55.8438 19.3079 56.0398 19.2265C56.2521 19.145 56.4154 19.0309 56.5461 18.868C56.6768 18.7051 56.7421 18.5095 56.7258 18.2651C56.7094 18.0207 56.6278 17.8089 56.4481 17.646C56.2684 17.4831 56.0561 17.369 55.7948 17.2549C55.5334 17.1572 55.2231 17.0757 54.8801 17.0105C54.5371 16.9454 54.1941 16.8639 53.8348 16.7824C53.4754 16.701 53.1161 16.6032 52.7731 16.4892C52.4301 16.3751 52.1361 16.2285 51.8584 16.0166C51.5971 15.8211 51.3684 15.5767 51.2214 15.2672C51.0581 14.9576 50.9764 14.5991 50.9764 14.1429C50.9764 13.6541 51.0908 13.2631 51.3358 12.9372C51.5644 12.6113 51.8748 12.3506 52.2341 12.1551C52.5934 11.9596 53.0018 11.8129 53.4428 11.7315C53.8838 11.65 54.3084 11.6174 54.7004 11.6174C55.1578 11.6174 55.5988 11.6663 56.0071 11.7641C56.4154 11.8618 56.8074 12.0085 57.1341 12.2366C57.4771 12.4484 57.7548 12.7417 57.9671 13.0838C58.1958 13.426 58.3264 13.8496 58.3918 14.3384H56.3501C56.2521 13.8659 56.0398 13.5563 55.7131 13.3934C55.3701 13.2305 54.9944 13.149 54.5534 13.149C54.4228 13.149 54.2431 13.1653 54.0634 13.1816C53.8674 13.2142 53.7041 13.2468 53.5244 13.3119C53.3611 13.3771 53.2141 13.4749 53.0998 13.5889C52.9854 13.703 52.9201 13.8659 52.9201 14.0614C52.9201 14.3058 53.0018 14.4851 53.1651 14.6317C53.3284 14.7783 53.5408 14.8924 53.8184 15.0065C54.0798 15.1042 54.3901 15.1857 54.7331 15.2509C55.0761 15.316 55.4354 15.3975 55.7948 15.479C56.1541 15.5604 56.4971 15.6582 56.8401 15.7722C57.1831 15.8863 57.4934 16.0329 57.7548 16.2448C58.0161 16.4403 58.2448 16.6847 58.4081 16.978C58.5714 17.2712 58.6531 17.646 58.6531 18.0696C58.6531 18.591 58.5388 19.0309 58.2938 19.4057C58.0488 19.7641 57.7384 20.0737 57.3628 20.3018C56.9871 20.5299 56.5461 20.6929 56.0888 20.8069C55.6151 20.9047 55.1578 20.9699 54.7004 20.9699C54.1451 20.9699 53.6224 20.9047 53.1488 20.7743C52.6751 20.644 52.2504 20.4485 51.9074 20.2041C51.5644 19.9434 51.2868 19.6338 51.0908 19.2428C50.8948 18.868 50.7804 18.4118 50.7641 17.8741H52.7404V17.8904H52.7568ZM59.2084 11.8781H60.6948V9.20599H62.6548V11.8618H64.4188V13.3119H62.6548V18.037C62.6548 18.2489 62.6711 18.4118 62.6874 18.5747C62.7038 18.7214 62.7528 18.8517 62.8018 18.9495C62.8671 19.0472 62.9651 19.1287 63.0794 19.1776C63.2101 19.2265 63.3734 19.259 63.6021 19.259C63.7328 19.259 63.8798 19.259 64.0104 19.2428C64.1411 19.2265 64.2881 19.2102 64.4188 19.1776V20.6929C64.2064 20.7255 63.9941 20.7417 63.7818 20.758C63.5694 20.7906 63.3734 20.7906 63.1448 20.7906C62.6221 20.7906 62.2138 20.7418 61.9034 20.644C61.5931 20.5462 61.3481 20.3996 61.1684 20.2204C60.9888 20.0248 60.8744 19.7967 60.8091 19.5197C60.7438 19.2427 60.7111 18.9006 60.6948 18.5421V13.3282H59.2084V11.8455V11.8781ZM65.7908 11.8781H67.6364V13.0838H67.6691C67.9468 12.5624 68.3224 12.204 68.8124 11.9759C69.3024 11.7478 69.8251 11.6337 70.4131 11.6337C71.1154 11.6337 71.7198 11.7478 72.2424 12.0085C72.7651 12.2529 73.1898 12.5787 73.5328 13.0187C73.8758 13.4423 74.1371 13.9474 74.3004 14.5177C74.4638 15.0879 74.5618 15.7071 74.5618 16.3425C74.5618 16.9454 74.4801 17.5156 74.3331 18.0696C74.1698 18.6236 73.9411 19.1287 73.6308 19.5523C73.3204 19.976 72.9284 20.3181 72.4384 20.5788C71.9484 20.8395 71.3931 20.9699 70.7398 20.9699C70.4621 20.9699 70.1681 20.9373 69.8904 20.8884C69.6128 20.8395 69.3351 20.758 69.0738 20.644C68.8124 20.5299 68.5674 20.3833 68.3551 20.2041C68.1264 20.0248 67.9468 19.813 67.7998 19.5849H67.7671V24.0004H65.8071V11.8781H65.7908ZM72.6344 16.3099C72.6344 15.9189 72.5854 15.5278 72.4711 15.1531C72.3731 14.7783 72.2098 14.4525 71.9974 14.1592C71.7851 13.8659 71.5238 13.6378 71.2298 13.4586C70.9194 13.2794 70.5601 13.1979 70.1681 13.1979C69.3514 13.1979 68.7308 13.4749 68.3061 14.0451C67.8978 14.6154 67.6854 15.3812 67.6854 16.3262C67.6854 16.7824 67.7344 17.1898 67.8488 17.5645C67.9631 17.9393 68.1101 18.2651 68.3388 18.5421C68.5511 18.8191 68.8124 19.0309 69.1228 19.1939C69.4331 19.3568 69.7761 19.4383 70.1844 19.4383C70.6418 19.4383 71.0011 19.3405 71.3114 19.1613C71.6218 18.9821 71.8668 18.7377 72.0791 18.4607C72.2751 18.1674 72.4221 17.8415 72.5038 17.4668C72.5854 17.0757 72.6344 16.701 72.6344 16.3099ZM76.0808 8.50537H78.0408V10.3465H76.0808V8.50537ZM76.0808 11.8781H78.0408V20.7255H76.0808V11.8781ZM79.7884 8.50537H81.7484V20.7255H79.7884V8.50537ZM87.7264 20.9699C87.0241 20.9699 86.3871 20.8558 85.8318 20.6114C85.2764 20.367 84.8191 20.0574 84.4271 19.6501C84.0514 19.2428 83.7574 18.7377 83.5614 18.1674C83.3654 17.5971 83.2511 16.9617 83.2511 16.2936C83.2511 15.6256 83.3491 15.0065 83.5614 14.4362C83.7574 13.8659 84.0514 13.3771 84.4271 12.9535C84.8028 12.5461 85.2764 12.2203 85.8318 11.9922C86.3871 11.7641 87.0241 11.6337 87.7264 11.6337C88.4288 11.6337 89.0658 11.7478 89.6211 11.9922C90.1764 12.2203 90.6338 12.5461 91.0258 12.9535C91.4014 13.3608 91.6954 13.8659 91.8914 14.4362C92.0874 15.0065 92.2018 15.6256 92.2018 16.2936C92.2018 16.978 92.1038 17.5971 91.8914 18.1674C91.6791 18.7377 91.4014 19.2265 91.0258 19.6501C90.6501 20.0574 90.1764 20.3833 89.6211 20.6114C89.0658 20.8395 88.4451 20.9699 87.7264 20.9699ZM87.7264 19.422C88.1511 19.422 88.5431 19.3242 88.8534 19.145C89.1801 18.9658 89.4251 18.7214 89.6374 18.4281C89.8498 18.1348 89.9968 17.7926 90.0948 17.4342C90.1928 17.0594 90.2418 16.6847 90.2418 16.2936C90.2418 15.9189 90.1928 15.5441 90.0948 15.1694C89.9968 14.7946 89.8498 14.4688 89.6374 14.1755C89.4251 13.8822 89.1638 13.6541 88.8534 13.4749C88.5268 13.2956 88.1511 13.1979 87.7264 13.1979C87.3018 13.1979 86.9098 13.2956 86.5994 13.4749C86.2728 13.6541 86.0278 13.8985 85.8154 14.1755C85.6031 14.4688 85.4561 14.7946 85.3581 15.1694C85.2601 15.5441 85.2111 15.9189 85.2111 16.2936C85.2111 16.6847 85.2601 17.0594 85.3581 17.4342C85.4561 17.8089 85.6031 18.1348 85.8154 18.4281C86.0278 18.7214 86.2891 18.9658 86.5994 19.145C86.9261 19.3405 87.3018 19.422 87.7264 19.422ZM92.7898 11.8781H94.2761V9.20599H96.2361V11.8618H98.0001V13.3119H96.2361V18.037C96.2361 18.2489 96.2524 18.4118 96.2688 18.5747C96.2851 18.7214 96.3341 18.8517 96.3831 18.9495C96.4484 19.0472 96.5464 19.1287 96.6608 19.1776C96.7914 19.2265 96.9548 19.259 97.1834 19.259C97.3141 19.259 97.4611 19.259 97.5918 19.2428C97.7224 19.2265 97.8694 19.2102 98.0001 19.1776V20.6929C97.7878 20.7255 97.5754 20.7417 97.3631 20.758C97.1508 20.7906 96.9548 20.7906 96.7261 20.7906C96.2034 20.7906 95.7951 20.7418 95.4848 20.644C95.1744 20.5462 94.9294 20.3996 94.7498 20.2204C94.5701 20.0248 94.4558 19.7967 94.3904 19.5197C94.3251 19.2427 94.2924 18.9006 94.2761 18.5421V13.3282H92.7898V11.8455V11.8781Z" fill="black"/>
<path d="M23.471 8.50518H14.504L11.7437 0L8.967 8.50518L0 8.48889L7.252 13.7517L4.47533 22.2568L11.7273 16.9941L18.9793 22.2568L16.219 13.7517L23.471 8.50518Z" fill="#00B67A"/>
<path d="M16.8396 15.6746L16.219 13.752L11.7437 16.9943L16.8396 15.6746Z" fill="#005128"/>
</svg>
