<svg width="15" height="15" viewBox="0 0 15 15" fill="none" xmlns="http://www.w3.org/2000/svg">
<mask id="mask0_2606_6750" style="mask-type:alpha" maskUnits="userSpaceOnUse" x="0" y="0" width="15" height="15">
<rect width="15" height="15" fill="#D9D9D9"/>
</mask>
<g mask="url(#mask0_2606_6750)">
<path d="M15 2.73017C14.4422 2.98114 13.8478 3.14748 13.2281 3.22825C13.8656 2.83787 14.3522 2.2244 14.5809 1.48498C13.9866 1.84844 13.3303 2.10517 12.6309 2.24844C12.0666 1.6321 11.2622 1.25037 10.3847 1.25037C8.68219 1.25037 7.31156 2.66767 7.31156 4.40517C7.31156 4.65517 7.33219 4.89556 7.38281 5.1244C4.82625 4.99652 2.56406 3.73979 1.04437 1.82537C0.779062 2.29748 0.623438 2.83787 0.623438 3.4196C0.623438 4.5119 1.17188 5.48017 1.98937 6.04075C1.49531 6.03114 1.01063 5.88402 0.6 5.65229C0.6 5.6619 0.6 5.6744 0.6 5.6869C0.6 7.2196 1.66594 8.49267 3.06375 8.78594C2.81344 8.85613 2.54063 8.88979 2.2575 8.88979C2.06063 8.88979 1.86187 8.87825 1.67531 8.83594C2.07375 10.085 3.20438 11.0033 4.54875 11.0331C3.5025 11.8725 2.17406 12.3783 0.735938 12.3783C0.48375 12.3783 0.241875 12.3667 0 12.335C1.36219 13.2359 2.97656 13.7504 4.7175 13.7504C10.3763 13.7504 13.47 8.94267 13.47 4.77537C13.47 4.63594 13.4653 4.50133 13.4587 4.36767C14.0691 3.92344 14.5819 3.36864 15 2.73017Z" fill="#03A9F4"/>
</g>
</svg>
