<svg width="50" height="50" viewBox="0 0 50 50" fill="none" xmlns="http://www.w3.org/2000/svg">
<mask id="mask0_677_776" style="mask-type:alpha" maskUnits="userSpaceOnUse" x="0" y="0" width="50" height="50">
<rect width="50" height="50" fill="#D9D9D9"/>
</mask>
<g mask="url(#mask0_677_776)">
<path d="M11.3286 28.2037C9.72305 27.9689 8.10644 27.8163 6.48515 27.7464C5.77423 27.7027 4.83715 28.0714 4.67486 29.8547C4.64458 30.3032 4.68808 30.7536 4.80365 31.1881C4.91133 31.6418 5.15411 32.0527 5.50025 32.3669C5.84639 32.6812 6.27977 32.8842 6.74376 32.9495L13.6739 33.9204C13.7085 33.926 13.7435 33.9288 13.7786 33.9287C13.914 33.9288 14.0471 33.8941 14.165 33.828C14.2829 33.7618 14.3816 33.6665 14.4516 33.5512C14.5216 33.4359 14.5604 33.3045 14.5643 33.1699C14.5682 33.0353 14.537 32.902 14.4738 32.7829C12.1945 28.4693 11.6103 28.2901 11.3286 28.2037ZM6.96258 31.4026C6.81035 31.3795 6.6686 31.3114 6.55567 31.2072C6.44274 31.1031 6.36383 30.9676 6.32914 30.8183C6.25609 30.5507 6.22571 30.2734 6.2391 29.9964C6.24158 29.7593 6.29551 29.5255 6.3972 29.311H6.41918C8.20957 29.4224 10.223 29.5839 10.7685 29.6797C11.358 30.4645 11.8852 31.2937 12.3453 32.1599L6.96258 31.4026ZM43.5148 27.7464C41.8935 27.8163 40.2769 27.9689 38.6713 28.2037C38.3897 28.2901 37.8044 28.4693 35.5219 32.787C35.4587 32.9061 35.4276 33.0395 35.4315 33.1741C35.4354 33.3087 35.4742 33.44 35.5441 33.5553C35.6141 33.6706 35.7128 33.766 35.8307 33.8321C35.9486 33.8983 36.0817 33.933 36.2171 33.9329C36.2522 33.933 36.2872 33.9302 36.3218 33.9245L43.252 32.9537C43.716 32.8884 44.1493 32.6853 44.4955 32.3711C44.8416 32.0568 45.0844 31.646 45.1921 31.1922C45.3073 30.7577 45.3508 30.3074 45.3209 29.8589C45.1617 28.0714 44.2194 27.7037 43.5148 27.7464ZM43.6708 30.8183C43.6361 30.9676 43.5572 31.1031 43.4442 31.2072C43.3313 31.3114 43.1896 31.3795 43.0373 31.4026L37.6547 32.1568C38.1151 31.291 38.6419 30.4618 39.2304 29.6766C39.7853 29.5797 41.8008 29.4183 43.5902 29.3079C43.7043 29.5194 43.763 29.7563 43.7608 29.9964C43.7743 30.2734 43.7439 30.5507 43.6708 30.8183ZM35.8705 28.9308C35.7914 28.8183 35.684 28.7286 35.5591 28.6704C35.4341 28.6123 35.296 28.5879 35.1586 28.5995C35.0863 28.6058 27.8735 29.2245 25.0026 29.2245C22.1317 29.2245 14.9178 28.5995 14.8466 28.5995C14.7091 28.5875 14.5708 28.6117 14.4458 28.6699C14.3207 28.728 14.2133 28.8179 14.1344 28.9306C14.0555 29.0432 14.0078 29.1746 13.9963 29.3115C13.9847 29.4483 14.0097 29.5858 14.0686 29.7099L16.1365 34.0756C16.197 34.2024 16.2906 34.3108 16.4075 34.3894C16.5245 34.468 16.6605 34.514 16.8013 34.5224L24.9984 34.9891L33.208 34.5224C33.3489 34.5142 33.485 34.4684 33.602 34.3897C33.719 34.3111 33.8126 34.2026 33.8728 34.0756L35.9407 29.7099C35.9992 29.5855 36.0235 29.4478 36.0112 29.3109C35.9989 29.1741 35.9503 29.0429 35.8705 28.9308ZM32.6478 32.9933L25.0005 33.4329L17.3573 32.9933L16.0684 30.2724C18.3289 30.4558 22.8101 30.7933 25.0036 30.7933C27.1971 30.7933 31.6794 30.4558 33.9409 30.2724L32.6478 32.9933ZM29.5141 5.19744L30.6721 5.62869C31.0508 5.76951 31.3946 5.98948 31.6805 6.27375C31.9665 6.55803 32.1878 6.9 32.3296 7.2766L32.763 8.43285C32.8196 8.58067 32.92 8.7079 33.0508 8.79766C33.1817 8.88743 33.3369 8.9355 33.4959 8.9355C33.6549 8.9355 33.8101 8.88743 33.941 8.79766C34.0719 8.7079 34.1723 8.58067 34.2288 8.43285L34.6623 7.28077C34.8043 6.90444 35.0255 6.56269 35.3112 6.27846C35.5969 5.99423 35.9404 5.7741 36.3187 5.63285L37.4767 5.2016C37.6252 5.14534 37.7531 5.04547 37.8433 4.91525C37.9336 4.78503 37.9819 4.6306 37.9819 4.47244C37.9819 4.31427 37.9336 4.15985 37.8433 4.02962C37.7531 3.8994 37.6252 3.79954 37.4767 3.74327L36.3187 3.31202C35.9401 3.17096 35.5964 2.95078 35.3107 2.66632C35.0249 2.38187 34.8038 2.03975 34.6623 1.66306L34.233 0.502646C34.1765 0.354829 34.0761 0.227604 33.9452 0.137837C33.8143 0.0480699 33.6591 0 33.5001 0C33.3411 0 33.1859 0.0480699 33.055 0.137837C32.9241 0.227604 32.8238 0.354829 32.7672 0.502646L32.3296 1.65473C32.188 2.03142 31.9669 2.37353 31.6812 2.65799C31.3954 2.94244 31.0517 3.16263 30.6732 3.30369L29.5152 3.73494C29.3666 3.79121 29.2387 3.89107 29.1485 4.02129C29.0583 4.15151 29.01 4.30594 29.01 4.4641C29.01 4.62227 29.0583 4.7767 29.1485 4.90692C29.2387 5.03714 29.3666 5.137 29.5152 5.19327L29.5141 5.19744ZM33.498 2.84223C33.8864 3.51862 34.4497 4.07932 35.1293 4.46619C34.4494 4.85277 33.8862 5.41354 33.498 6.09015C33.109 5.41387 32.5455 4.85323 31.8657 4.46619C32.5455 4.07914 33.109 3.51851 33.498 2.84223ZM38.3425 10.0464L39.2199 10.3735C39.4814 10.4711 39.7188 10.6234 39.9162 10.8199C40.1136 11.0165 40.2664 11.2528 40.3643 11.5131L40.6931 12.386C40.7491 12.5351 40.8496 12.6636 40.981 12.7543C41.1125 12.845 41.2686 12.8936 41.4286 12.8936C41.5886 12.8936 41.7447 12.845 41.8762 12.7543C42.0076 12.6636 42.1081 12.5351 42.1641 12.386L42.4918 11.5131C42.5899 11.2528 42.7429 11.0164 42.9405 10.8198C43.138 10.6233 43.3756 10.4711 43.6373 10.3735L44.5147 10.0464C44.6628 9.98971 44.7902 9.88968 44.8801 9.75951C44.9699 9.62934 45.018 9.47514 45.018 9.31723C45.018 9.15932 44.9699 9.00512 44.8801 8.87495C44.7902 8.74478 44.6628 8.64475 44.5147 8.58806L43.6373 8.25681C43.3758 8.15992 43.1384 8.00819 42.9411 7.81192C42.7438 7.61564 42.5913 7.37943 42.4939 7.11931L42.1641 6.24535C42.1081 6.09627 42.0076 5.96777 41.8762 5.87705C41.7447 5.78633 41.5886 5.73772 41.4286 5.73772C41.2686 5.73772 41.1125 5.78633 40.981 5.87705C40.8496 5.96777 40.7491 6.09627 40.6931 6.24535L40.3643 7.11931C40.2664 7.37942 40.1136 7.61562 39.9162 7.81202C39.7188 8.00841 39.4814 8.16044 39.2199 8.25785L38.3415 8.58494C38.1929 8.64121 38.065 8.74107 37.9748 8.87129C37.8846 9.00151 37.8363 9.15594 37.8363 9.31411C37.8363 9.47227 37.8846 9.6267 37.9748 9.75692C38.065 9.88714 38.1929 9.987 38.3415 10.0433L38.3425 10.0464ZM41.4281 8.43285C41.667 8.7758 41.966 9.07323 42.3107 9.31098C41.9667 9.54919 41.6679 9.84614 41.4281 10.1881C41.1889 9.84594 40.8904 9.54894 40.5465 9.31098C40.8909 9.0732 41.1895 8.77577 41.4281 8.43285ZM43.2478 5.19744L44.1252 5.52452C44.3865 5.62182 44.6239 5.77369 44.8213 5.9699C45.0187 6.16611 45.1715 6.40211 45.2696 6.66202L45.5983 7.53494C45.6544 7.68402 45.7548 7.81252 45.8863 7.90324C46.0177 7.99396 46.1739 8.04258 46.3338 8.04258C46.4938 8.04258 46.65 7.99396 46.7814 7.90324C46.9129 7.81252 47.0133 7.68402 47.0694 7.53494L47.3981 6.66202C47.4958 6.40195 47.6484 6.16575 47.8457 5.96935C48.0429 5.77294 48.2802 5.6209 48.5415 5.52348L49.4199 5.1964C49.5685 5.14013 49.6964 5.04026 49.7866 4.91004C49.8768 4.77982 49.9251 4.62539 49.9251 4.46723C49.9251 4.30907 49.8768 4.15464 49.7866 4.02442C49.6964 3.89419 49.5685 3.79433 49.4199 3.73806L48.5425 3.40994C48.2813 3.31269 48.044 3.16083 47.8468 2.9646C47.6496 2.76838 47.4969 2.53235 47.3992 2.27244L47.0704 1.39848C47.0144 1.2494 46.9139 1.1209 46.7825 1.03017C46.651 0.939454 46.4949 0.89084 46.3349 0.89084C46.1749 0.89084 46.0188 0.939454 45.8873 1.03017C45.7559 1.1209 45.6554 1.2494 45.5994 1.39848L45.2706 2.27244C45.1727 2.53242 45.0199 2.76848 44.8225 2.96471C44.625 3.16093 44.3876 3.31276 44.1262 3.40994L43.2478 3.73806C43.0992 3.79433 42.9713 3.89419 42.8811 4.02442C42.7909 4.15464 42.7426 4.30907 42.7426 4.46723C42.7426 4.62539 42.7909 4.77982 42.8811 4.91004C42.9713 5.04026 43.0992 5.14117 43.2478 5.19744ZM46.3333 3.5891C46.573 3.93078 46.8715 4.2277 47.2149 4.46619C46.8715 4.70468 46.573 5.00159 46.3333 5.34327C46.0941 5.00115 45.7956 4.70415 45.4517 4.46619C45.7954 4.22795 46.0939 3.931 46.3333 3.5891ZM47.8368 44.1318C47.6286 44.1318 47.4288 44.2141 47.2816 44.3606C47.1343 44.5072 47.0516 44.7059 47.0516 44.9131V48.1568C47.0516 48.23 47.0223 48.3002 46.9703 48.352C46.9183 48.4038 46.8477 48.4329 46.7741 48.4329H42.695C42.6214 48.4329 42.5508 48.4038 42.4988 48.352C42.4467 48.3002 42.4175 48.23 42.4175 48.1568V46.8193C42.4175 46.6121 42.3348 46.4134 42.1875 46.2669C42.0402 46.1204 41.8405 46.0381 41.6322 46.0381C41.424 46.0381 41.2243 46.1204 41.077 46.2669C40.9297 46.4134 40.847 46.6121 40.847 46.8193V48.1568C40.8475 48.6443 41.0424 49.1116 41.3889 49.4563C41.7353 49.8009 42.205 49.9948 42.695 49.9954H46.7783C47.2682 49.9948 47.738 49.8009 48.0844 49.4563C48.4309 49.1116 48.6257 48.6443 48.6263 48.1568V44.9131C48.6263 44.8101 48.6058 44.7082 48.5661 44.6131C48.5264 44.5181 48.4682 44.4318 48.3948 44.3592C48.3214 44.2866 48.2344 44.2291 48.1386 44.1901C48.0429 44.1511 47.9403 44.1313 47.8368 44.1318ZM8.31323 46.037C8.10496 46.037 7.90523 46.1193 7.75797 46.2658C7.6107 46.4124 7.52797 46.6111 7.52797 46.8183V48.1558C7.52797 48.2288 7.49888 48.2989 7.44707 48.3506C7.39527 48.4023 7.32496 48.4315 7.25156 48.4318H3.16822C3.09481 48.4315 3.02451 48.4023 2.9727 48.3506C2.92089 48.2989 2.8918 48.2288 2.89181 48.1558V44.9131C2.89181 44.7059 2.80907 44.5072 2.66181 44.3606C2.51454 44.2141 2.31481 44.1318 2.10655 44.1318C1.89828 44.1318 1.69855 44.2141 1.55129 44.3606C1.40402 44.5072 1.32129 44.7059 1.32129 44.9131V48.1568C1.32156 48.6438 1.51592 49.1108 1.86174 49.4555C2.20757 49.8001 2.67664 49.9943 3.16612 49.9954H7.24946C7.73931 49.9948 8.20892 49.8009 8.5552 49.4562C8.90147 49.1115 9.09611 48.6442 9.09639 48.1568V46.8193C9.09667 46.6123 9.01435 46.4136 8.8675 46.267C8.72066 46.1203 8.52131 46.0376 8.31323 46.037Z" fill="#13141A"/>
<path d="M48.4839 19.6362L45.8664 19.1862C45.484 19.116 45.0889 19.1775 44.7463 19.3606C44.4037 19.5437 44.1341 19.8375 43.9818 20.1935L43.8404 20.506L41.9851 16.1518C41.5657 15.1535 40.8964 14.2785 40.0408 13.6104C39.1853 12.9423 38.1721 12.5033 37.0977 12.3352C33.0943 11.7305 29.0498 11.4359 25.0005 11.4539C20.9513 11.4362 16.9067 11.7312 12.9034 12.3362C11.8291 12.5043 10.8159 12.9431 9.9604 13.611C9.10487 14.279 8.43546 15.1536 8.01591 16.1518L6.15433 20.5102L6.02241 20.2039C5.8713 19.8464 5.60233 19.5507 5.25978 19.3655C4.91723 19.1803 4.52152 19.1167 4.13779 19.1852L1.52026 19.6362C1.09548 19.7063 0.7095 19.9241 0.431085 20.2509C0.152671 20.5777 -9.61788e-05 20.9922 4.54292e-08 21.4206V21.932C0.000392182 22.3444 0.141789 22.7444 0.400948 23.0662C0.660107 23.388 1.02161 23.6125 1.42603 23.7029L3.91163 24.2612L2.81018 25.9331C1.85579 27.3777 1.34799 29.0689 1.3496 30.7977V39.6831C1.3496 43.0362 3.697 45.2039 7.33222 45.2039H42.6688C46.304 45.2039 48.6514 43.0372 48.6514 39.6831V30.7935C48.6531 29.0648 48.1453 27.3735 47.1909 25.9289L46.0894 24.2622L48.5666 23.706C48.9722 23.6168 49.3352 23.3928 49.5957 23.0709C49.8563 22.749 49.9988 22.3484 50 21.9352V21.4237C50.0012 20.9953 49.8494 20.5805 49.5718 20.2531C49.2941 19.9257 48.9086 19.7071 48.4839 19.6362ZM1.76421 22.1737C1.7091 22.1614 1.65986 22.1307 1.62465 22.0868C1.58943 22.0428 1.57033 21.9882 1.57052 21.932V21.4206C1.56966 21.3616 1.59045 21.3043 1.629 21.2594C1.66754 21.2145 1.72119 21.1852 1.77992 21.1768L4.40896 20.7247C4.44584 20.7181 4.48387 20.725 4.51602 20.7442C4.54817 20.7634 4.57225 20.7934 4.58381 20.8289L5.22563 22.2727L4.83405 22.8664L1.76421 22.1737ZM47.0809 37.256H4.91048C4.70222 37.256 4.50248 37.3383 4.35522 37.4848C4.20795 37.6313 4.12522 37.83 4.12522 38.0372C4.12522 38.2444 4.20795 38.4432 4.35522 38.5897C4.50248 38.7362 4.70222 38.8185 4.91048 38.8185H47.0809V39.6831C47.0809 42.1602 45.4319 43.6414 42.6688 43.6414H7.33222C4.56915 43.6414 2.92011 42.1612 2.92011 39.6831V30.7935C2.91901 29.3692 3.33723 27.9757 4.12313 26.7852L6.59826 23.0289H40.8575C41.0658 23.0289 41.2655 22.9466 41.4128 22.8001C41.56 22.6536 41.6428 22.4549 41.6428 22.2477C41.6428 22.0405 41.56 21.8417 41.4128 21.6952C41.2655 21.5487 41.0658 21.4664 40.8575 21.4664H7.45576L9.46184 16.7664C9.77757 16.0123 10.2823 15.3513 10.9279 14.8466C11.5735 14.3418 12.3383 14.0101 13.1494 13.8831C17.0712 13.2887 21.0335 12.999 25.0005 13.0164C28.9674 12.9979 32.9298 13.2867 36.8516 13.8799C37.6631 14.0072 38.4281 14.3394 39.0737 14.8448C39.7193 15.3501 40.2239 16.0117 40.5392 16.7664L42.8343 22.1487C42.8521 22.1918 42.8742 22.2329 42.9002 22.2716L45.8779 26.7893C46.6638 27.9799 47.082 29.3733 47.0809 30.7977V37.256ZM48.4295 21.932C48.4294 21.9894 48.4095 22.0449 48.3731 22.0893C48.3367 22.1337 48.2859 22.1643 48.2295 22.1758L45.1701 22.8633L44.7785 22.2695L45.4246 20.8112C45.4391 20.7796 45.4637 20.7537 45.4946 20.7375C45.5254 20.7213 45.5608 20.7157 45.5952 20.7216L48.219 21.1737C48.2778 21.182 48.3314 21.2114 48.3699 21.2563C48.4085 21.3011 48.4293 21.3584 48.4284 21.4174L48.4295 21.932Z" fill="#13141A"/>
</g>
</svg>
