<svg width="50" height="34" viewBox="0 0 50 34" fill="none" xmlns="http://www.w3.org/2000/svg">
<path d="M33 0.500068C42.1127 0.500068 49.5 7.88719 49.5 16.9997C49.5 26.1129 42.1127 33.5 33 33.5C23.8873 33.5 16.5 26.1129 16.5 16.9997C16.5 7.88719 23.8873 0.500068 33 0.500068Z" fill="black" fill-opacity="0.01" stroke="#B2B2B2"/>
<path d="M0.49993 17.4997H34.5V17.5001H0.49993V17.4997Z" fill="black" fill-opacity="0.01" stroke="#B2B2B2"/>
<path fill-rule="evenodd" clip-rule="evenodd" d="M33.5 15.0003C34.8807 15.0003 36 16.1194 36 17.4999C36 18.881 34.8807 20.0001 33.5 20.0001C32.1193 20.0001 31 18.881 31 17.4999C31 16.1194 32.1193 15.0003 33.5 15.0003Z" fill="#B2B2B2"/>
</svg>
